<?xml version="1.0" encoding="utf-8" standalone="no"?>
<!DOCTYPE svg PUBLIC "-//W3C//DTD SVG 1.1//EN"
  "http://www.w3.org/Graphics/SVG/1.1/DTD/svg11.dtd">
<svg xmlns:xlink="http://www.w3.org/1999/xlink" width="720pt" height="504pt" viewBox="0 0 720 504" xmlns="http://www.w3.org/2000/svg" version="1.1">
 <metadata>
  <rdf:RDF xmlns:dc="http://purl.org/dc/elements/1.1/" xmlns:cc="http://creativecommons.org/ns#" xmlns:rdf="http://www.w3.org/1999/02/22-rdf-syntax-ns#">
   <cc:Work>
    <dc:type rdf:resource="http://purl.org/dc/dcmitype/StillImage"/>
    <dc:date>2024-10-07T10:27:49.355056</dc:date>
    <dc:format>image/svg+xml</dc:format>
    <dc:creator>
     <cc:Agent>
      <dc:title>Matplotlib v3.9.1, https://matplotlib.org/</dc:title>
     </cc:Agent>
    </dc:creator>
   </cc:Work>
  </rdf:RDF>
 </metadata>
 <defs>
  <style type="text/css">*{stroke-linejoin: round; stroke-linecap: butt}</style>
 </defs>
 <g id="figure_1">
  <g id="patch_1">
   <path d="M 0 504 
L 720 504 
L 720 0 
L 0 0 
z
" style="fill: #ffffff"/>
  </g>
  <g id="axes_1">
   <g id="patch_2">
    <path d="M 108 219.03 
L 648 219.03 
L 648 60.48 
L 108 60.48 
z
" style="fill: #ffffff"/>
   </g>
   <g id="matplotlib.axis_1">
    <g id="xtick_1">
     <g id="line2d_1">
      <defs>
       <path id="m8ceffb43fa" d="M 0 0 
L 0 3.5 
" style="stroke: #000000; stroke-width: 0.8"/>
      </defs>
      <g>
       <use xlink:href="#m8ceffb43fa" x="132.545455" y="219.03" style="stroke: #000000; stroke-width: 0.8"/>
      </g>
     </g>
     <g id="text_1">
      <!-- 0 -->
      <g transform="translate(126.182955 241.226875) scale(0.2 -0.2)">
       <defs>
        <path id="DejaVuSans-30" d="M 2034 4250 
Q 1547 4250 1301 3770 
Q 1056 3291 1056 2328 
Q 1056 1369 1301 889 
Q 1547 409 2034 409 
Q 2525 409 2770 889 
Q 3016 1369 3016 2328 
Q 3016 3291 2770 3770 
Q 2525 4250 2034 4250 
z
M 2034 4750 
Q 2819 4750 3233 4129 
Q 3647 3509 3647 2328 
Q 3647 1150 3233 529 
Q 2819 -91 2034 -91 
Q 1250 -91 836 529 
Q 422 1150 422 2328 
Q 422 3509 836 4129 
Q 1250 4750 2034 4750 
z
" transform="scale(0.015625)"/>
       </defs>
       <use xlink:href="#DejaVuSans-30"/>
      </g>
     </g>
    </g>
    <g id="xtick_2">
     <g id="line2d_2">
      <g>
       <use xlink:href="#m8ceffb43fa" x="211.109765" y="219.03" style="stroke: #000000; stroke-width: 0.8"/>
      </g>
     </g>
     <g id="text_2">
      <!-- 2000 -->
      <g transform="translate(185.659765 241.226875) scale(0.2 -0.2)">
       <defs>
        <path id="DejaVuSans-32" d="M 1228 531 
L 3431 531 
L 3431 0 
L 469 0 
L 469 531 
Q 828 903 1448 1529 
Q 2069 2156 2228 2338 
Q 2531 2678 2651 2914 
Q 2772 3150 2772 3378 
Q 2772 3750 2511 3984 
Q 2250 4219 1831 4219 
Q 1534 4219 1204 4116 
Q 875 4013 500 3803 
L 500 4441 
Q 881 4594 1212 4672 
Q 1544 4750 1819 4750 
Q 2544 4750 2975 4387 
Q 3406 4025 3406 3419 
Q 3406 3131 3298 2873 
Q 3191 2616 2906 2266 
Q 2828 2175 2409 1742 
Q 1991 1309 1228 531 
z
" transform="scale(0.015625)"/>
       </defs>
       <use xlink:href="#DejaVuSans-32"/>
       <use xlink:href="#DejaVuSans-30" x="63.623047"/>
       <use xlink:href="#DejaVuSans-30" x="127.246094"/>
       <use xlink:href="#DejaVuSans-30" x="190.869141"/>
      </g>
     </g>
    </g>
    <g id="xtick_3">
     <g id="line2d_3">
      <g>
       <use xlink:href="#m8ceffb43fa" x="289.674075" y="219.03" style="stroke: #000000; stroke-width: 0.8"/>
      </g>
     </g>
     <g id="text_3">
      <!-- 4000 -->
      <g transform="translate(264.224075 241.226875) scale(0.2 -0.2)">
       <defs>
        <path id="DejaVuSans-34" d="M 2419 4116 
L 825 1625 
L 2419 1625 
L 2419 4116 
z
M 2253 4666 
L 3047 4666 
L 3047 1625 
L 3713 1625 
L 3713 1100 
L 3047 1100 
L 3047 0 
L 2419 0 
L 2419 1100 
L 313 1100 
L 313 1709 
L 2253 4666 
z
" transform="scale(0.015625)"/>
       </defs>
       <use xlink:href="#DejaVuSans-34"/>
       <use xlink:href="#DejaVuSans-30" x="63.623047"/>
       <use xlink:href="#DejaVuSans-30" x="127.246094"/>
       <use xlink:href="#DejaVuSans-30" x="190.869141"/>
      </g>
     </g>
    </g>
    <g id="xtick_4">
     <g id="line2d_4">
      <g>
       <use xlink:href="#m8ceffb43fa" x="368.238384" y="219.03" style="stroke: #000000; stroke-width: 0.8"/>
      </g>
     </g>
     <g id="text_4">
      <!-- 6000 -->
      <g transform="translate(342.788384 241.226875) scale(0.2 -0.2)">
       <defs>
        <path id="DejaVuSans-36" d="M 2113 2584 
Q 1688 2584 1439 2293 
Q 1191 2003 1191 1497 
Q 1191 994 1439 701 
Q 1688 409 2113 409 
Q 2538 409 2786 701 
Q 3034 994 3034 1497 
Q 3034 2003 2786 2293 
Q 2538 2584 2113 2584 
z
M 3366 4563 
L 3366 3988 
Q 3128 4100 2886 4159 
Q 2644 4219 2406 4219 
Q 1781 4219 1451 3797 
Q 1122 3375 1075 2522 
Q 1259 2794 1537 2939 
Q 1816 3084 2150 3084 
Q 2853 3084 3261 2657 
Q 3669 2231 3669 1497 
Q 3669 778 3244 343 
Q 2819 -91 2113 -91 
Q 1303 -91 875 529 
Q 447 1150 447 2328 
Q 447 3434 972 4092 
Q 1497 4750 2381 4750 
Q 2619 4750 2861 4703 
Q 3103 4656 3366 4563 
z
" transform="scale(0.015625)"/>
       </defs>
       <use xlink:href="#DejaVuSans-36"/>
       <use xlink:href="#DejaVuSans-30" x="63.623047"/>
       <use xlink:href="#DejaVuSans-30" x="127.246094"/>
       <use xlink:href="#DejaVuSans-30" x="190.869141"/>
      </g>
     </g>
    </g>
    <g id="xtick_5">
     <g id="line2d_5">
      <g>
       <use xlink:href="#m8ceffb43fa" x="446.802694" y="219.03" style="stroke: #000000; stroke-width: 0.8"/>
      </g>
     </g>
     <g id="text_5">
      <!-- 8000 -->
      <g transform="translate(421.352694 241.226875) scale(0.2 -0.2)">
       <defs>
        <path id="DejaVuSans-38" d="M 2034 2216 
Q 1584 2216 1326 1975 
Q 1069 1734 1069 1313 
Q 1069 891 1326 650 
Q 1584 409 2034 409 
Q 2484 409 2743 651 
Q 3003 894 3003 1313 
Q 3003 1734 2745 1975 
Q 2488 2216 2034 2216 
z
M 1403 2484 
Q 997 2584 770 2862 
Q 544 3141 544 3541 
Q 544 4100 942 4425 
Q 1341 4750 2034 4750 
Q 2731 4750 3128 4425 
Q 3525 4100 3525 3541 
Q 3525 3141 3298 2862 
Q 3072 2584 2669 2484 
Q 3125 2378 3379 2068 
Q 3634 1759 3634 1313 
Q 3634 634 3220 271 
Q 2806 -91 2034 -91 
Q 1263 -91 848 271 
Q 434 634 434 1313 
Q 434 1759 690 2068 
Q 947 2378 1403 2484 
z
M 1172 3481 
Q 1172 3119 1398 2916 
Q 1625 2713 2034 2713 
Q 2441 2713 2670 2916 
Q 2900 3119 2900 3481 
Q 2900 3844 2670 4047 
Q 2441 4250 2034 4250 
Q 1625 4250 1398 4047 
Q 1172 3844 1172 3481 
z
" transform="scale(0.015625)"/>
       </defs>
       <use xlink:href="#DejaVuSans-38"/>
       <use xlink:href="#DejaVuSans-30" x="63.623047"/>
       <use xlink:href="#DejaVuSans-30" x="127.246094"/>
       <use xlink:href="#DejaVuSans-30" x="190.869141"/>
      </g>
     </g>
    </g>
    <g id="xtick_6">
     <g id="line2d_6">
      <g>
       <use xlink:href="#m8ceffb43fa" x="525.367004" y="219.03" style="stroke: #000000; stroke-width: 0.8"/>
      </g>
     </g>
     <g id="text_6">
      <!-- 10000 -->
      <g transform="translate(493.554504 241.226875) scale(0.2 -0.2)">
       <defs>
        <path id="DejaVuSans-31" d="M 794 531 
L 1825 531 
L 1825 4091 
L 703 3866 
L 703 4441 
L 1819 4666 
L 2450 4666 
L 2450 531 
L 3481 531 
L 3481 0 
L 794 0 
L 794 531 
z
" transform="scale(0.015625)"/>
       </defs>
       <use xlink:href="#DejaVuSans-31"/>
       <use xlink:href="#DejaVuSans-30" x="63.623047"/>
       <use xlink:href="#DejaVuSans-30" x="127.246094"/>
       <use xlink:href="#DejaVuSans-30" x="190.869141"/>
       <use xlink:href="#DejaVuSans-30" x="254.492188"/>
      </g>
     </g>
    </g>
    <g id="xtick_7">
     <g id="line2d_7">
      <g>
       <use xlink:href="#m8ceffb43fa" x="603.931314" y="219.03" style="stroke: #000000; stroke-width: 0.8"/>
      </g>
     </g>
     <g id="text_7">
      <!-- 12000 -->
      <g transform="translate(572.118814 241.226875) scale(0.2 -0.2)">
       <use xlink:href="#DejaVuSans-31"/>
       <use xlink:href="#DejaVuSans-32" x="63.623047"/>
       <use xlink:href="#DejaVuSans-30" x="127.246094"/>
       <use xlink:href="#DejaVuSans-30" x="190.869141"/>
       <use xlink:href="#DejaVuSans-30" x="254.492188"/>
      </g>
     </g>
    </g>
   </g>
   <g id="matplotlib.axis_2">
    <g id="ytick_1">
     <g id="line2d_8">
      <defs>
       <path id="mea2cd4511d" d="M 0 0 
L -3.5 0 
" style="stroke: #000000; stroke-width: 0.8"/>
      </defs>
      <g>
       <use xlink:href="#mea2cd4511d" x="108" y="212.19466" style="stroke: #000000; stroke-width: 0.8"/>
      </g>
     </g>
     <g id="text_8">
      <!-- 0 -->
      <g transform="translate(88.275 219.793097) scale(0.2 -0.2)">
       <use xlink:href="#DejaVuSans-30"/>
      </g>
     </g>
    </g>
    <g id="ytick_2">
     <g id="line2d_9">
      <g>
       <use xlink:href="#mea2cd4511d" x="108" y="144.359728" style="stroke: #000000; stroke-width: 0.8"/>
      </g>
     </g>
     <g id="text_9">
      <!-- 1 -->
      <g transform="translate(88.275 151.958165) scale(0.2 -0.2)">
       <use xlink:href="#DejaVuSans-31"/>
      </g>
     </g>
    </g>
    <g id="ytick_3">
     <g id="line2d_10">
      <g>
       <use xlink:href="#mea2cd4511d" x="108" y="76.524796" style="stroke: #000000; stroke-width: 0.8"/>
      </g>
     </g>
     <g id="text_10">
      <!-- 2 -->
      <g transform="translate(88.275 84.123234) scale(0.2 -0.2)">
       <use xlink:href="#DejaVuSans-32"/>
      </g>
     </g>
    </g>
   </g>
   <g id="line2d_11">
    <path d="M 132.545455 189.546651 
L 132.584737 189.629899 
L 132.702583 67.686818 
L 140.833989 67.797261 
L 144.880051 68.052207 
L 147.669084 68.442807 
L 149.868885 68.96842 
L 151.754428 69.643029 
L 153.443561 70.481603 
L 155.014847 71.511496 
L 156.507569 72.758894 
L 157.961009 74.267909 
L 159.414449 76.10818 
L 160.867888 78.317875 
L 162.36061 81.007239 
L 163.892614 84.240079 
L 165.503183 88.177036 
L 167.192315 92.906349 
L 169.038577 98.761016 
L 171.081249 106.008451 
L 173.47746 115.376438 
L 176.698597 128.957021 
L 183.101588 156.115072 
L 185.654928 165.853066 
L 187.854729 173.393767 
L 189.858119 179.494981 
L 191.743662 184.551009 
L 193.550641 188.785508 
L 193.943463 189.629899 
L 194.061309 67.686818 
L 202.192715 67.797262 
L 206.238777 68.052207 
L 209.02781 68.442807 
L 211.227611 68.968419 
L 213.113154 69.643029 
L 214.802287 70.481603 
L 216.373573 71.511496 
L 217.866295 72.758891 
L 219.319735 74.267909 
L 220.773175 76.10818 
L 222.226614 78.317875 
L 223.719336 81.00724 
L 225.25134 84.240079 
L 226.861909 88.177036 
L 228.551041 92.906348 
L 230.397303 98.761016 
L 232.439975 106.008451 
L 234.836186 115.376438 
L 238.057323 128.957021 
L 244.460314 156.115073 
L 247.013654 165.853067 
L 249.213455 173.393767 
L 251.216845 179.494982 
L 253.102388 184.551009 
L 254.909367 188.785508 
L 255.302189 189.629899 
L 255.420035 67.686818 
L 263.551441 67.797261 
L 267.597503 68.052206 
L 270.386536 68.442807 
L 272.586337 68.96842 
L 274.471881 69.643029 
L 276.161013 70.481602 
L 277.732299 71.511496 
L 279.225021 72.758893 
L 280.678461 74.267908 
L 282.131901 76.108181 
L 283.58534 78.317875 
L 285.078062 81.00724 
L 286.610066 84.240079 
L 288.220635 88.177035 
L 289.909767 92.906348 
L 291.756029 98.761016 
L 293.798701 106.00845 
L 296.194912 115.376438 
L 299.416049 128.957021 
L 305.81904 156.115073 
L 308.37238 165.853067 
L 310.572181 173.393767 
L 312.575571 179.494982 
L 314.461114 184.551008 
L 316.268093 188.785509 
L 316.660915 189.629899 
L 316.778761 67.686818 
L 324.910168 67.797261 
L 328.956229 68.052207 
L 331.745262 68.442807 
L 333.945063 68.968419 
L 335.830607 69.643029 
L 337.519739 70.481603 
L 339.091025 71.511496 
L 340.583747 72.758896 
L 342.037187 74.267907 
L 343.490627 76.10818 
L 344.944067 78.317878 
L 346.436788 81.00724 
L 347.968793 84.240079 
L 349.579361 88.177036 
L 351.268494 92.906348 
L 353.114755 98.761015 
L 355.157427 106.00845 
L 357.553638 115.376438 
L 360.774775 128.957021 
L 367.177766 156.115073 
L 369.731106 165.853066 
L 371.930907 173.393767 
L 373.934297 179.494982 
L 375.81984 184.551008 
L 377.62682 188.785508 
L 378.019641 189.629899 
L 378.137488 67.686818 
L 386.268894 67.797261 
L 390.314956 68.052206 
L 393.103989 68.442807 
L 395.303789 68.96842 
L 397.189333 69.643029 
L 398.878465 70.481603 
L 400.449752 71.511496 
L 401.942473 72.758894 
L 403.395913 74.26791 
L 404.849353 76.108179 
L 406.302793 78.317873 
L 407.795515 81.00724 
L 409.327519 84.240079 
L 410.938087 88.177036 
L 412.62722 92.906349 
L 414.473481 98.761016 
L 416.516153 106.008451 
L 418.912364 115.376438 
L 422.133501 128.957019 
L 428.536492 156.115073 
L 431.089832 165.853066 
L 433.289633 173.393767 
L 435.293023 179.494982 
L 437.178566 184.551008 
L 438.985546 188.785508 
L 439.378367 189.629899 
L 439.496214 67.686818 
L 447.62762 67.797261 
L 451.673682 68.052206 
L 454.462715 68.442807 
L 456.662515 68.96842 
L 458.548059 69.643028 
L 460.237191 70.481603 
L 461.808478 71.511498 
L 463.3012 72.758893 
L 464.754639 74.267909 
L 466.208079 76.108181 
L 467.661519 78.317878 
L 469.154241 81.00724 
L 470.686245 84.240079 
L 472.296813 88.177036 
L 473.985946 92.906347 
L 475.832207 98.761015 
L 477.874879 106.008451 
L 480.271091 115.376438 
L 483.492227 128.957021 
L 489.895218 156.115072 
L 492.448559 165.853066 
L 494.648359 173.393767 
L 496.651749 179.494982 
L 498.537293 184.551009 
L 500.344272 188.785508 
L 500.737093 189.629899 
L 500.85494 67.686818 
L 508.986346 67.797261 
L 513.032408 68.052207 
L 515.821441 68.442807 
L 518.021241 68.968419 
L 519.906785 69.643029 
L 521.595918 70.481603 
L 523.167204 71.511495 
L 524.659926 72.758893 
L 526.113365 74.267907 
L 527.566805 76.10818 
L 529.020245 78.317876 
L 530.512967 81.00724 
L 532.044971 84.240077 
L 533.655539 88.177037 
L 535.344672 92.906348 
L 537.190933 98.761016 
L 539.233605 106.00845 
L 541.629817 115.376438 
L 544.850953 128.95702 
L 551.253945 156.115073 
L 553.807285 165.853067 
L 556.007085 173.393767 
L 558.010475 179.494982 
L 559.896019 184.551009 
L 561.702998 188.785508 
L 562.095819 189.629899 
L 562.213666 67.686818 
L 570.345072 67.797262 
L 574.391134 68.052207 
L 577.180167 68.442807 
L 579.379968 68.96842 
L 581.265511 69.643029 
L 582.954644 70.481603 
L 584.52593 71.511496 
L 586.018652 72.758894 
L 587.472091 74.267907 
L 588.925531 76.108181 
L 590.378971 78.317878 
L 591.871693 81.00724 
L 593.403697 84.240079 
L 595.014265 88.177036 
L 596.703398 92.906349 
L 598.549659 98.761016 
L 600.592331 106.008451 
L 602.988543 115.376438 
L 606.209679 128.957021 
L 612.612671 156.115074 
L 615.166011 165.853067 
L 617.365811 173.393767 
L 619.369201 179.494982 
L 621.254745 184.551008 
L 623.061724 188.785508 
L 623.454545 189.629899 
L 623.454545 189.629899 
" clip-path="url(#p2d9fd82c16)" style="fill: none; stroke: #1f77b4; stroke-width: 1.5; stroke-linecap: square"/>
   </g>
   <g id="line2d_12">
    <path d="M 132.545455 211.823152 
L 132.584737 211.823155 
L 132.702583 208.510303 
L 133.331098 208.619396 
L 137.887828 209.965278 
L 141.108964 210.645082 
L 144.565794 211.143773 
L 148.611856 211.494695 
L 153.836383 211.710502 
L 162.321328 211.808589 
L 193.943463 211.823155 
L 194.061309 208.510303 
L 194.689824 208.619395 
L 199.246554 209.965278 
L 202.46769 210.645082 
L 205.92452 211.143773 
L 209.970582 211.494695 
L 215.195109 211.710502 
L 223.680054 211.808589 
L 255.302189 211.823155 
L 255.420035 208.510303 
L 256.04855 208.619395 
L 260.60528 209.965278 
L 263.826417 210.645082 
L 267.283246 211.143773 
L 271.329308 211.494695 
L 276.553835 211.710502 
L 285.03878 211.808589 
L 316.660915 211.823155 
L 316.778761 208.510303 
L 317.407276 208.619395 
L 321.964006 209.965278 
L 325.185143 210.645082 
L 328.641972 211.143773 
L 332.688034 211.494695 
L 337.912561 211.710502 
L 346.397506 211.808589 
L 378.019641 211.823155 
L 378.137488 208.510303 
L 378.766002 208.619395 
L 383.322732 209.965278 
L 386.543869 210.645082 
L 390.000698 211.143773 
L 394.04676 211.494695 
L 399.271287 211.710502 
L 407.756232 211.808589 
L 439.378367 211.823155 
L 439.496214 208.510303 
L 440.124728 208.619395 
L 444.681458 209.965278 
L 447.902595 210.645082 
L 451.359424 211.143773 
L 455.405486 211.494695 
L 460.630013 211.710502 
L 469.114958 211.808589 
L 500.737093 211.823155 
L 500.85494 208.510303 
L 501.483454 208.619395 
L 506.040184 209.965278 
L 509.261321 210.645082 
L 512.718151 211.143773 
L 516.764213 211.494695 
L 521.988739 211.710502 
L 530.473685 211.808589 
L 562.095819 211.823155 
L 562.213666 208.510303 
L 562.84218 208.619395 
L 567.39891 209.965278 
L 570.620047 210.645082 
L 574.076877 211.143773 
L 578.122939 211.494695 
L 583.347465 211.710502 
L 591.832411 211.808589 
L 623.454545 211.823155 
L 623.454545 211.823155 
" clip-path="url(#p2d9fd82c16)" style="fill: none; stroke: #ff7f0e; stroke-width: 1.5; stroke-linecap: square"/>
   </g>
   <g id="patch_3">
    <path d="M 108 219.03 
L 108 60.48 
" style="fill: none; stroke: #000000; stroke-width: 0.8; stroke-linejoin: miter; stroke-linecap: square"/>
   </g>
   <g id="patch_4">
    <path d="M 648 219.03 
L 648 60.48 
" style="fill: none; stroke: #000000; stroke-width: 0.8; stroke-linejoin: miter; stroke-linecap: square"/>
   </g>
   <g id="patch_5">
    <path d="M 108 219.03 
L 648 219.03 
" style="fill: none; stroke: #000000; stroke-width: 0.8; stroke-linejoin: miter; stroke-linecap: square"/>
   </g>
   <g id="patch_6">
    <path d="M 108 60.48 
L 648 60.48 
" style="fill: none; stroke: #000000; stroke-width: 0.8; stroke-linejoin: miter; stroke-linecap: square"/>
   </g>
   <g id="text_11">
    <!-- Extract -->
    <g transform="translate(342.184375 54.48) scale(0.2 -0.2)">
     <defs>
      <path id="DejaVuSans-45" d="M 628 4666 
L 3578 4666 
L 3578 4134 
L 1259 4134 
L 1259 2753 
L 3481 2753 
L 3481 2222 
L 1259 2222 
L 1259 531 
L 3634 531 
L 3634 0 
L 628 0 
L 628 4666 
z
" transform="scale(0.015625)"/>
      <path id="DejaVuSans-78" d="M 3513 3500 
L 2247 1797 
L 3578 0 
L 2900 0 
L 1881 1375 
L 863 0 
L 184 0 
L 1544 1831 
L 300 3500 
L 978 3500 
L 1906 2253 
L 2834 3500 
L 3513 3500 
z
" transform="scale(0.015625)"/>
      <path id="DejaVuSans-74" d="M 1172 4494 
L 1172 3500 
L 2356 3500 
L 2356 3053 
L 1172 3053 
L 1172 1153 
Q 1172 725 1289 603 
Q 1406 481 1766 481 
L 2356 481 
L 2356 0 
L 1766 0 
Q 1100 0 847 248 
Q 594 497 594 1153 
L 594 3053 
L 172 3053 
L 172 3500 
L 594 3500 
L 594 4494 
L 1172 4494 
z
" transform="scale(0.015625)"/>
      <path id="DejaVuSans-72" d="M 2631 2963 
Q 2534 3019 2420 3045 
Q 2306 3072 2169 3072 
Q 1681 3072 1420 2755 
Q 1159 2438 1159 1844 
L 1159 0 
L 581 0 
L 581 3500 
L 1159 3500 
L 1159 2956 
Q 1341 3275 1631 3429 
Q 1922 3584 2338 3584 
Q 2397 3584 2469 3576 
Q 2541 3569 2628 3553 
L 2631 2963 
z
" transform="scale(0.015625)"/>
      <path id="DejaVuSans-61" d="M 2194 1759 
Q 1497 1759 1228 1600 
Q 959 1441 959 1056 
Q 959 750 1161 570 
Q 1363 391 1709 391 
Q 2188 391 2477 730 
Q 2766 1069 2766 1631 
L 2766 1759 
L 2194 1759 
z
M 3341 1997 
L 3341 0 
L 2766 0 
L 2766 531 
Q 2569 213 2275 61 
Q 1981 -91 1556 -91 
Q 1019 -91 701 211 
Q 384 513 384 1019 
Q 384 1609 779 1909 
Q 1175 2209 1959 2209 
L 2766 2209 
L 2766 2266 
Q 2766 2663 2505 2880 
Q 2244 3097 1772 3097 
Q 1472 3097 1187 3025 
Q 903 2953 641 2809 
L 641 3341 
Q 956 3463 1253 3523 
Q 1550 3584 1831 3584 
Q 2591 3584 2966 3190 
Q 3341 2797 3341 1997 
z
" transform="scale(0.015625)"/>
      <path id="DejaVuSans-63" d="M 3122 3366 
L 3122 2828 
Q 2878 2963 2633 3030 
Q 2388 3097 2138 3097 
Q 1578 3097 1268 2742 
Q 959 2388 959 1747 
Q 959 1106 1268 751 
Q 1578 397 2138 397 
Q 2388 397 2633 464 
Q 2878 531 3122 666 
L 3122 134 
Q 2881 22 2623 -34 
Q 2366 -91 2075 -91 
Q 1284 -91 818 406 
Q 353 903 353 1747 
Q 353 2603 823 3093 
Q 1294 3584 2113 3584 
Q 2378 3584 2631 3529 
Q 2884 3475 3122 3366 
z
" transform="scale(0.015625)"/>
     </defs>
     <use xlink:href="#DejaVuSans-45"/>
     <use xlink:href="#DejaVuSans-78" x="63.183594"/>
     <use xlink:href="#DejaVuSans-74" x="122.363281"/>
     <use xlink:href="#DejaVuSans-72" x="161.572266"/>
     <use xlink:href="#DejaVuSans-61" x="202.685547"/>
     <use xlink:href="#DejaVuSans-63" x="263.964844"/>
     <use xlink:href="#DejaVuSans-74" x="318.945312"/>
    </g>
   </g>
   <g id="legend_1">
    <g id="patch_7">
     <path d="M 339.139063 209.03 
L 416.860938 209.03 
Q 420.860938 209.03 420.860938 205.03 
L 420.860938 148.3175 
Q 420.860938 144.3175 416.860938 144.3175 
L 339.139063 144.3175 
Q 335.139063 144.3175 335.139063 148.3175 
L 335.139063 205.03 
Q 335.139063 209.03 339.139063 209.03 
z
" style="fill: #ffffff; opacity: 0.8; stroke: #cccccc; stroke-linejoin: miter"/>
    </g>
    <g id="line2d_13">
     <path d="M 343.139063 160.514375 
L 363.139063 160.514375 
L 383.139063 160.514375 
" style="fill: none; stroke: #1f77b4; stroke-width: 1.5; stroke-linecap: square"/>
    </g>
    <g id="text_12">
     <!-- A -->
     <g transform="translate(399.139063 167.514375) scale(0.2 -0.2)">
      <defs>
       <path id="DejaVuSans-41" d="M 2188 4044 
L 1331 1722 
L 3047 1722 
L 2188 4044 
z
M 1831 4666 
L 2547 4666 
L 4325 0 
L 3669 0 
L 3244 1197 
L 1141 1197 
L 716 0 
L 50 0 
L 1831 4666 
z
" transform="scale(0.015625)"/>
      </defs>
      <use xlink:href="#DejaVuSans-41"/>
     </g>
    </g>
    <g id="line2d_14">
     <path d="M 343.139063 189.870625 
L 363.139063 189.870625 
L 383.139063 189.870625 
" style="fill: none; stroke: #ff7f0e; stroke-width: 1.5; stroke-linecap: square"/>
    </g>
    <g id="text_13">
     <!-- B -->
     <g transform="translate(399.139063 196.870625) scale(0.2 -0.2)">
      <defs>
       <path id="DejaVuSans-42" d="M 1259 2228 
L 1259 519 
L 2272 519 
Q 2781 519 3026 730 
Q 3272 941 3272 1375 
Q 3272 1813 3026 2020 
Q 2781 2228 2272 2228 
L 1259 2228 
z
M 1259 4147 
L 1259 2741 
L 2194 2741 
Q 2656 2741 2882 2914 
Q 3109 3088 3109 3444 
Q 3109 3797 2882 3972 
Q 2656 4147 2194 4147 
L 1259 4147 
z
M 628 4666 
L 2241 4666 
Q 2963 4666 3353 4366 
Q 3744 4066 3744 3513 
Q 3744 3084 3544 2831 
Q 3344 2578 2956 2516 
Q 3422 2416 3680 2098 
Q 3938 1781 3938 1306 
Q 3938 681 3513 340 
Q 3088 0 2303 0 
L 628 0 
L 628 4666 
z
" transform="scale(0.015625)"/>
      </defs>
      <use xlink:href="#DejaVuSans-42"/>
     </g>
    </g>
   </g>
  </g>
  <g id="axes_2">
   <g id="patch_8">
    <path d="M 108 441 
L 648 441 
L 648 282.45 
L 108 282.45 
z
" style="fill: #ffffff"/>
   </g>
   <g id="matplotlib.axis_3">
    <g id="xtick_8">
     <g id="line2d_15">
      <g>
       <use xlink:href="#m8ceffb43fa" x="132.545455" y="441" style="stroke: #000000; stroke-width: 0.8"/>
      </g>
     </g>
     <g id="text_14">
      <!-- 0 -->
      <g transform="translate(126.182955 463.196875) scale(0.2 -0.2)">
       <use xlink:href="#DejaVuSans-30"/>
      </g>
     </g>
    </g>
    <g id="xtick_9">
     <g id="line2d_16">
      <g>
       <use xlink:href="#m8ceffb43fa" x="211.109765" y="441" style="stroke: #000000; stroke-width: 0.8"/>
      </g>
     </g>
     <g id="text_15">
      <!-- 2000 -->
      <g transform="translate(185.659765 463.196875) scale(0.2 -0.2)">
       <use xlink:href="#DejaVuSans-32"/>
       <use xlink:href="#DejaVuSans-30" x="63.623047"/>
       <use xlink:href="#DejaVuSans-30" x="127.246094"/>
       <use xlink:href="#DejaVuSans-30" x="190.869141"/>
      </g>
     </g>
    </g>
    <g id="xtick_10">
     <g id="line2d_17">
      <g>
       <use xlink:href="#m8ceffb43fa" x="289.674075" y="441" style="stroke: #000000; stroke-width: 0.8"/>
      </g>
     </g>
     <g id="text_16">
      <!-- 4000 -->
      <g transform="translate(264.224075 463.196875) scale(0.2 -0.2)">
       <use xlink:href="#DejaVuSans-34"/>
       <use xlink:href="#DejaVuSans-30" x="63.623047"/>
       <use xlink:href="#DejaVuSans-30" x="127.246094"/>
       <use xlink:href="#DejaVuSans-30" x="190.869141"/>
      </g>
     </g>
    </g>
    <g id="xtick_11">
     <g id="line2d_18">
      <g>
       <use xlink:href="#m8ceffb43fa" x="368.238384" y="441" style="stroke: #000000; stroke-width: 0.8"/>
      </g>
     </g>
     <g id="text_17">
      <!-- 6000 -->
      <g transform="translate(342.788384 463.196875) scale(0.2 -0.2)">
       <use xlink:href="#DejaVuSans-36"/>
       <use xlink:href="#DejaVuSans-30" x="63.623047"/>
       <use xlink:href="#DejaVuSans-30" x="127.246094"/>
       <use xlink:href="#DejaVuSans-30" x="190.869141"/>
      </g>
     </g>
    </g>
    <g id="xtick_12">
     <g id="line2d_19">
      <g>
       <use xlink:href="#m8ceffb43fa" x="446.802694" y="441" style="stroke: #000000; stroke-width: 0.8"/>
      </g>
     </g>
     <g id="text_18">
      <!-- 8000 -->
      <g transform="translate(421.352694 463.196875) scale(0.2 -0.2)">
       <use xlink:href="#DejaVuSans-38"/>
       <use xlink:href="#DejaVuSans-30" x="63.623047"/>
       <use xlink:href="#DejaVuSans-30" x="127.246094"/>
       <use xlink:href="#DejaVuSans-30" x="190.869141"/>
      </g>
     </g>
    </g>
    <g id="xtick_13">
     <g id="line2d_20">
      <g>
       <use xlink:href="#m8ceffb43fa" x="525.367004" y="441" style="stroke: #000000; stroke-width: 0.8"/>
      </g>
     </g>
     <g id="text_19">
      <!-- 10000 -->
      <g transform="translate(493.554504 463.196875) scale(0.2 -0.2)">
       <use xlink:href="#DejaVuSans-31"/>
       <use xlink:href="#DejaVuSans-30" x="63.623047"/>
       <use xlink:href="#DejaVuSans-30" x="127.246094"/>
       <use xlink:href="#DejaVuSans-30" x="190.869141"/>
       <use xlink:href="#DejaVuSans-30" x="254.492188"/>
      </g>
     </g>
    </g>
    <g id="xtick_14">
     <g id="line2d_21">
      <g>
       <use xlink:href="#m8ceffb43fa" x="603.931314" y="441" style="stroke: #000000; stroke-width: 0.8"/>
      </g>
     </g>
     <g id="text_20">
      <!-- 12000 -->
      <g transform="translate(572.118814 463.196875) scale(0.2 -0.2)">
       <use xlink:href="#DejaVuSans-31"/>
       <use xlink:href="#DejaVuSans-32" x="63.623047"/>
       <use xlink:href="#DejaVuSans-30" x="127.246094"/>
       <use xlink:href="#DejaVuSans-30" x="190.869141"/>
       <use xlink:href="#DejaVuSans-30" x="254.492188"/>
      </g>
     </g>
    </g>
    <g id="text_21">
     <!-- Time / s -->
     <g transform="translate(338.598437 486.553125) scale(0.2 -0.2)">
      <defs>
       <path id="DejaVuSans-54" d="M -19 4666 
L 3928 4666 
L 3928 4134 
L 2272 4134 
L 2272 0 
L 1638 0 
L 1638 4134 
L -19 4134 
L -19 4666 
z
" transform="scale(0.015625)"/>
       <path id="DejaVuSans-69" d="M 603 3500 
L 1178 3500 
L 1178 0 
L 603 0 
L 603 3500 
z
M 603 4863 
L 1178 4863 
L 1178 4134 
L 603 4134 
L 603 4863 
z
" transform="scale(0.015625)"/>
       <path id="DejaVuSans-6d" d="M 3328 2828 
Q 3544 3216 3844 3400 
Q 4144 3584 4550 3584 
Q 5097 3584 5394 3201 
Q 5691 2819 5691 2113 
L 5691 0 
L 5113 0 
L 5113 2094 
Q 5113 2597 4934 2840 
Q 4756 3084 4391 3084 
Q 3944 3084 3684 2787 
Q 3425 2491 3425 1978 
L 3425 0 
L 2847 0 
L 2847 2094 
Q 2847 2600 2669 2842 
Q 2491 3084 2119 3084 
Q 1678 3084 1418 2786 
Q 1159 2488 1159 1978 
L 1159 0 
L 581 0 
L 581 3500 
L 1159 3500 
L 1159 2956 
Q 1356 3278 1631 3431 
Q 1906 3584 2284 3584 
Q 2666 3584 2933 3390 
Q 3200 3197 3328 2828 
z
" transform="scale(0.015625)"/>
       <path id="DejaVuSans-65" d="M 3597 1894 
L 3597 1613 
L 953 1613 
Q 991 1019 1311 708 
Q 1631 397 2203 397 
Q 2534 397 2845 478 
Q 3156 559 3463 722 
L 3463 178 
Q 3153 47 2828 -22 
Q 2503 -91 2169 -91 
Q 1331 -91 842 396 
Q 353 884 353 1716 
Q 353 2575 817 3079 
Q 1281 3584 2069 3584 
Q 2775 3584 3186 3129 
Q 3597 2675 3597 1894 
z
M 3022 2063 
Q 3016 2534 2758 2815 
Q 2500 3097 2075 3097 
Q 1594 3097 1305 2825 
Q 1016 2553 972 2059 
L 3022 2063 
z
" transform="scale(0.015625)"/>
       <path id="DejaVuSans-20" transform="scale(0.015625)"/>
       <path id="DejaVuSans-2f" d="M 1625 4666 
L 2156 4666 
L 531 -594 
L 0 -594 
L 1625 4666 
z
" transform="scale(0.015625)"/>
       <path id="DejaVuSans-73" d="M 2834 3397 
L 2834 2853 
Q 2591 2978 2328 3040 
Q 2066 3103 1784 3103 
Q 1356 3103 1142 2972 
Q 928 2841 928 2578 
Q 928 2378 1081 2264 
Q 1234 2150 1697 2047 
L 1894 2003 
Q 2506 1872 2764 1633 
Q 3022 1394 3022 966 
Q 3022 478 2636 193 
Q 2250 -91 1575 -91 
Q 1294 -91 989 -36 
Q 684 19 347 128 
L 347 722 
Q 666 556 975 473 
Q 1284 391 1588 391 
Q 1994 391 2212 530 
Q 2431 669 2431 922 
Q 2431 1156 2273 1281 
Q 2116 1406 1581 1522 
L 1381 1569 
Q 847 1681 609 1914 
Q 372 2147 372 2553 
Q 372 3047 722 3315 
Q 1072 3584 1716 3584 
Q 2034 3584 2315 3537 
Q 2597 3491 2834 3397 
z
" transform="scale(0.015625)"/>
      </defs>
      <use xlink:href="#DejaVuSans-54"/>
      <use xlink:href="#DejaVuSans-69" x="57.958984"/>
      <use xlink:href="#DejaVuSans-6d" x="85.742188"/>
      <use xlink:href="#DejaVuSans-65" x="183.154297"/>
      <use xlink:href="#DejaVuSans-20" x="244.677734"/>
      <use xlink:href="#DejaVuSans-2f" x="276.464844"/>
      <use xlink:href="#DejaVuSans-20" x="310.15625"/>
      <use xlink:href="#DejaVuSans-73" x="341.943359"/>
     </g>
    </g>
   </g>
   <g id="matplotlib.axis_4">
    <g id="ytick_4">
     <g id="line2d_22">
      <g>
       <use xlink:href="#mea2cd4511d" x="108" y="433.79592" style="stroke: #000000; stroke-width: 0.8"/>
      </g>
     </g>
     <g id="text_22">
      <!-- 0 -->
      <g transform="translate(88.275 441.394357) scale(0.2 -0.2)">
       <use xlink:href="#DejaVuSans-30"/>
      </g>
     </g>
    </g>
    <g id="ytick_5">
     <g id="line2d_23">
      <g>
       <use xlink:href="#mea2cd4511d" x="108" y="372.727631" style="stroke: #000000; stroke-width: 0.8"/>
      </g>
     </g>
     <g id="text_23">
      <!-- 1 -->
      <g transform="translate(88.275 380.326069) scale(0.2 -0.2)">
       <use xlink:href="#DejaVuSans-31"/>
      </g>
     </g>
    </g>
    <g id="ytick_6">
     <g id="line2d_24">
      <g>
       <use xlink:href="#mea2cd4511d" x="108" y="311.659343" style="stroke: #000000; stroke-width: 0.8"/>
      </g>
     </g>
     <g id="text_24">
      <!-- 2 -->
      <g transform="translate(88.275 319.257781) scale(0.2 -0.2)">
       <use xlink:href="#DejaVuSans-32"/>
      </g>
     </g>
    </g>
   </g>
   <g id="line2d_25">
    <path d="M 132.545455 433.276456 
L 132.584737 433.274323 
L 132.702583 433.793182 
L 181.726713 433.682169 
L 191.075865 433.413622 
L 193.943463 433.274323 
L 194.061309 433.793182 
L 243.085439 433.682169 
L 252.434592 433.413622 
L 255.302189 433.274323 
L 255.420035 433.793182 
L 304.444165 433.682169 
L 313.793318 433.413622 
L 316.660915 433.274323 
L 316.778761 433.793182 
L 365.802891 433.682169 
L 375.152044 433.413622 
L 378.019641 433.274323 
L 378.137488 433.793182 
L 427.161617 433.682169 
L 436.51077 433.413622 
L 439.378367 433.274323 
L 439.496214 433.793182 
L 488.520343 433.682169 
L 497.869496 433.413622 
L 500.737093 433.274323 
L 500.85494 433.793182 
L 549.879069 433.682169 
L 559.228222 433.413622 
L 562.095819 433.274323 
L 562.213666 433.793182 
L 611.237795 433.682169 
L 620.586948 433.413622 
L 623.454545 433.274323 
L 623.454545 433.274323 
" clip-path="url(#p1e5092fd95)" style="fill: none; stroke: #1f77b4; stroke-width: 1.5; stroke-linecap: square"/>
   </g>
   <g id="line2d_26">
    <path d="M 132.545455 289.656913 
L 132.584737 289.656818 
L 132.702583 366.809731 
L 133.01684 366.710574 
L 134.116741 363.553531 
L 136.630799 355.600476 
L 145.822823 326.022838 
L 148.297599 319.083066 
L 150.458117 313.65811 
L 152.461507 309.209938 
L 154.347051 305.551733 
L 156.15403 302.521318 
L 157.921727 299.98795 
L 159.650141 297.895685 
L 161.378556 296.150483 
L 163.106971 294.715247 
L 164.91395 293.504197 
L 166.799494 292.509236 
L 168.842166 291.687236 
L 171.081249 291.029419 
L 173.673871 290.507499 
L 176.777161 290.119313 
L 180.783941 289.853874 
L 186.794111 289.701084 
L 193.943463 289.656818 
L 194.061309 366.80973 
L 194.375566 366.710574 
L 195.475467 363.553531 
L 197.989525 355.600476 
L 207.181549 326.022838 
L 209.656325 319.083067 
L 211.816843 313.65811 
L 213.820233 309.209938 
L 215.705777 305.551733 
L 217.512756 302.521318 
L 219.280453 299.987949 
L 221.008868 297.895685 
L 222.737282 296.150483 
L 224.465697 294.715248 
L 226.272676 293.504197 
L 228.15822 292.509234 
L 230.200892 291.687235 
L 232.439975 291.029419 
L 235.032597 290.507499 
L 238.135887 290.119313 
L 242.181949 289.852151 
L 248.192119 289.700591 
L 255.302189 289.656818 
L 255.420035 366.80973 
L 255.734293 366.710574 
L 256.834193 363.553531 
L 259.348251 355.600476 
L 268.540275 326.022838 
L 271.015051 319.083067 
L 273.175569 313.658109 
L 275.178959 309.209937 
L 277.064503 305.551733 
L 278.871482 302.521319 
L 280.639179 299.98795 
L 282.367594 297.895686 
L 284.096008 296.150483 
L 285.824423 294.715247 
L 287.631402 293.504198 
L 289.516946 292.509234 
L 291.559618 291.687237 
L 293.798701 291.029418 
L 296.391323 290.507499 
L 299.494613 290.119314 
L 303.501393 289.853875 
L 309.511563 289.701084 
L 316.660915 289.656818 
L 316.778761 366.80973 
L 317.093019 366.710574 
L 318.192919 363.55353 
L 320.706977 355.600475 
L 329.899001 326.022837 
L 332.373777 319.083066 
L 334.534296 313.65811 
L 336.537685 309.209938 
L 338.423229 305.551733 
L 340.230208 302.521318 
L 341.997905 299.987949 
L 343.72632 297.895686 
L 345.454735 296.150482 
L 347.183149 294.715248 
L 348.990129 293.504197 
L 350.875672 292.509235 
L 352.918344 291.687236 
L 355.157427 291.029419 
L 357.750049 290.507499 
L 360.853339 290.119313 
L 364.860119 289.853876 
L 370.870289 289.701083 
L 378.019641 289.656818 
L 378.137488 366.80973 
L 378.451745 366.710573 
L 379.551645 363.55353 
L 382.065703 355.600475 
L 391.257727 326.022837 
L 393.732503 319.083067 
L 395.893022 313.658109 
L 397.896412 309.209938 
L 399.781955 305.551733 
L 401.588934 302.521317 
L 403.356631 299.987949 
L 405.085046 297.895684 
L 406.813461 296.150482 
L 408.541876 294.715248 
L 410.348855 293.504197 
L 412.234398 292.509235 
L 414.27707 291.687236 
L 416.516153 291.029418 
L 419.108775 290.507499 
L 422.212065 290.119313 
L 426.258127 289.852151 
L 432.268297 289.700592 
L 439.378367 289.656818 
L 439.496214 366.809729 
L 439.810471 366.710573 
L 440.910371 363.55353 
L 443.424429 355.600475 
L 452.616453 326.022837 
L 455.091229 319.083066 
L 457.251748 313.658109 
L 459.255138 309.209937 
L 461.140681 305.551732 
L 462.94766 302.521317 
L 464.715357 299.98795 
L 466.443772 297.895685 
L 468.172187 296.150481 
L 469.900602 294.715246 
L 471.707581 293.504196 
L 473.593124 292.509234 
L 475.635796 291.687236 
L 477.874879 291.029418 
L 480.467501 290.507499 
L 483.570792 290.119313 
L 487.577571 289.853876 
L 493.587741 289.701084 
L 500.737093 289.656818 
L 500.85494 366.809729 
L 501.169197 366.710573 
L 502.269097 363.55353 
L 504.783155 355.600475 
L 513.975179 326.022838 
L 516.449955 319.083067 
L 518.610474 313.658109 
L 520.613864 309.209937 
L 522.499407 305.551733 
L 524.306386 302.521317 
L 526.074083 299.987949 
L 527.802498 297.895685 
L 529.530913 296.150482 
L 531.259328 294.715248 
L 533.066307 293.504196 
L 534.95185 292.509235 
L 536.994522 291.687237 
L 539.233605 291.029418 
L 541.826227 290.507498 
L 544.929518 290.119313 
L 548.936297 289.853875 
L 554.946467 289.701084 
L 562.095819 289.656818 
L 562.213666 366.809729 
L 562.527923 366.710573 
L 563.627823 363.55353 
L 566.141881 355.600475 
L 575.333906 326.022837 
L 577.808681 319.083066 
L 579.9692 313.658109 
L 581.97259 309.209936 
L 583.858133 305.551733 
L 585.665112 302.521317 
L 587.432809 299.987949 
L 589.161224 297.895685 
L 590.889639 296.150482 
L 592.618054 294.715248 
L 594.425033 293.504197 
L 596.310576 292.509234 
L 598.353248 291.687236 
L 600.592331 291.029419 
L 603.184953 290.507498 
L 606.288244 290.119313 
L 610.334306 289.85215 
L 616.344475 289.700591 
L 623.454545 289.656818 
L 623.454545 289.656818 
" clip-path="url(#p1e5092fd95)" style="fill: none; stroke: #ff7f0e; stroke-width: 1.5; stroke-linecap: square"/>
   </g>
   <g id="patch_9">
    <path d="M 108 441 
L 108 282.45 
" style="fill: none; stroke: #000000; stroke-width: 0.8; stroke-linejoin: miter; stroke-linecap: square"/>
   </g>
   <g id="patch_10">
    <path d="M 648 441 
L 648 282.45 
" style="fill: none; stroke: #000000; stroke-width: 0.8; stroke-linejoin: miter; stroke-linecap: square"/>
   </g>
   <g id="patch_11">
    <path d="M 108 441 
L 648 441 
" style="fill: none; stroke: #000000; stroke-width: 0.8; stroke-linejoin: miter; stroke-linecap: square"/>
   </g>
   <g id="patch_12">
    <path d="M 108 282.45 
L 648 282.45 
" style="fill: none; stroke: #000000; stroke-width: 0.8; stroke-linejoin: miter; stroke-linecap: square"/>
   </g>
   <g id="text_25">
    <!-- Raffinate -->
    <g transform="translate(332.790625 276.45) scale(0.2 -0.2)">
     <defs>
      <path id="DejaVuSans-52" d="M 2841 2188 
Q 3044 2119 3236 1894 
Q 3428 1669 3622 1275 
L 4263 0 
L 3584 0 
L 2988 1197 
Q 2756 1666 2539 1819 
Q 2322 1972 1947 1972 
L 1259 1972 
L 1259 0 
L 628 0 
L 628 4666 
L 2053 4666 
Q 2853 4666 3247 4331 
Q 3641 3997 3641 3322 
Q 3641 2881 3436 2590 
Q 3231 2300 2841 2188 
z
M 1259 4147 
L 1259 2491 
L 2053 2491 
Q 2509 2491 2742 2702 
Q 2975 2913 2975 3322 
Q 2975 3731 2742 3939 
Q 2509 4147 2053 4147 
L 1259 4147 
z
" transform="scale(0.015625)"/>
      <path id="DejaVuSans-66" d="M 2375 4863 
L 2375 4384 
L 1825 4384 
Q 1516 4384 1395 4259 
Q 1275 4134 1275 3809 
L 1275 3500 
L 2222 3500 
L 2222 3053 
L 1275 3053 
L 1275 0 
L 697 0 
L 697 3053 
L 147 3053 
L 147 3500 
L 697 3500 
L 697 3744 
Q 697 4328 969 4595 
Q 1241 4863 1831 4863 
L 2375 4863 
z
" transform="scale(0.015625)"/>
      <path id="DejaVuSans-6e" d="M 3513 2113 
L 3513 0 
L 2938 0 
L 2938 2094 
Q 2938 2591 2744 2837 
Q 2550 3084 2163 3084 
Q 1697 3084 1428 2787 
Q 1159 2491 1159 1978 
L 1159 0 
L 581 0 
L 581 3500 
L 1159 3500 
L 1159 2956 
Q 1366 3272 1645 3428 
Q 1925 3584 2291 3584 
Q 2894 3584 3203 3211 
Q 3513 2838 3513 2113 
z
" transform="scale(0.015625)"/>
     </defs>
     <use xlink:href="#DejaVuSans-52"/>
     <use xlink:href="#DejaVuSans-61" x="67.232422"/>
     <use xlink:href="#DejaVuSans-66" x="128.511719"/>
     <use xlink:href="#DejaVuSans-66" x="163.716797"/>
     <use xlink:href="#DejaVuSans-69" x="198.921875"/>
     <use xlink:href="#DejaVuSans-6e" x="226.705078"/>
     <use xlink:href="#DejaVuSans-61" x="290.083984"/>
     <use xlink:href="#DejaVuSans-74" x="351.363281"/>
     <use xlink:href="#DejaVuSans-65" x="390.572266"/>
    </g>
   </g>
  </g>
  <g id="text_26">
   <!-- Concentration / mM -->
   <g transform="translate(59.51875 350.835938) rotate(-90) scale(0.2 -0.2)">
    <defs>
     <path id="DejaVuSans-43" d="M 4122 4306 
L 4122 3641 
Q 3803 3938 3442 4084 
Q 3081 4231 2675 4231 
Q 1875 4231 1450 3742 
Q 1025 3253 1025 2328 
Q 1025 1406 1450 917 
Q 1875 428 2675 428 
Q 3081 428 3442 575 
Q 3803 722 4122 1019 
L 4122 359 
Q 3791 134 3420 21 
Q 3050 -91 2638 -91 
Q 1578 -91 968 557 
Q 359 1206 359 2328 
Q 359 3453 968 4101 
Q 1578 4750 2638 4750 
Q 3056 4750 3426 4639 
Q 3797 4528 4122 4306 
z
" transform="scale(0.015625)"/>
     <path id="DejaVuSans-6f" d="M 1959 3097 
Q 1497 3097 1228 2736 
Q 959 2375 959 1747 
Q 959 1119 1226 758 
Q 1494 397 1959 397 
Q 2419 397 2687 759 
Q 2956 1122 2956 1747 
Q 2956 2369 2687 2733 
Q 2419 3097 1959 3097 
z
M 1959 3584 
Q 2709 3584 3137 3096 
Q 3566 2609 3566 1747 
Q 3566 888 3137 398 
Q 2709 -91 1959 -91 
Q 1206 -91 779 398 
Q 353 888 353 1747 
Q 353 2609 779 3096 
Q 1206 3584 1959 3584 
z
" transform="scale(0.015625)"/>
     <path id="DejaVuSans-4d" d="M 628 4666 
L 1569 4666 
L 2759 1491 
L 3956 4666 
L 4897 4666 
L 4897 0 
L 4281 0 
L 4281 4097 
L 3078 897 
L 2444 897 
L 1241 4097 
L 1241 0 
L 628 0 
L 628 4666 
z
" transform="scale(0.015625)"/>
    </defs>
    <use xlink:href="#DejaVuSans-43"/>
    <use xlink:href="#DejaVuSans-6f" x="69.824219"/>
    <use xlink:href="#DejaVuSans-6e" x="131.005859"/>
    <use xlink:href="#DejaVuSans-63" x="194.384766"/>
    <use xlink:href="#DejaVuSans-65" x="249.365234"/>
    <use xlink:href="#DejaVuSans-6e" x="310.888672"/>
    <use xlink:href="#DejaVuSans-74" x="374.267578"/>
    <use xlink:href="#DejaVuSans-72" x="413.476562"/>
    <use xlink:href="#DejaVuSans-61" x="454.589844"/>
    <use xlink:href="#DejaVuSans-74" x="515.869141"/>
    <use xlink:href="#DejaVuSans-69" x="555.078125"/>
    <use xlink:href="#DejaVuSans-6f" x="582.861328"/>
    <use xlink:href="#DejaVuSans-6e" x="644.042969"/>
    <use xlink:href="#DejaVuSans-20" x="707.421875"/>
    <use xlink:href="#DejaVuSans-2f" x="739.208984"/>
    <use xlink:href="#DejaVuSans-20" x="772.900391"/>
    <use xlink:href="#DejaVuSans-6d" x="804.6875"/>
    <use xlink:href="#DejaVuSans-4d" x="902.099609"/>
   </g>
  </g>
 </g>
 <defs>
  <clipPath id="p2d9fd82c16">
   <rect x="108" y="60.48" width="540" height="158.55"/>
  </clipPath>
  <clipPath id="p1e5092fd95">
   <rect x="108" y="282.45" width="540" height="158.55"/>
  </clipPath>
 </defs>
</svg>
