<?xml version="1.0" encoding="utf-8" standalone="no"?>
<!DOCTYPE svg PUBLIC "-//W3C//DTD SVG 1.1//EN"
  "http://www.w3.org/Graphics/SVG/1.1/DTD/svg11.dtd">
<svg xmlns:xlink="http://www.w3.org/1999/xlink" width="665.195313pt" height="568.676pt" viewBox="0 0 665.195313 568.676" xmlns="http://www.w3.org/2000/svg" version="1.1">
 <metadata>
  <rdf:RDF xmlns:dc="http://purl.org/dc/elements/1.1/" xmlns:cc="http://creativecommons.org/ns#" xmlns:rdf="http://www.w3.org/1999/02/22-rdf-syntax-ns#">
   <cc:Work>
    <dc:type rdf:resource="http://purl.org/dc/dcmitype/StillImage"/>
    <dc:date>2025-01-15T09:20:52.656754</dc:date>
    <dc:format>image/svg+xml</dc:format>
    <dc:creator>
     <cc:Agent>
      <dc:title>Matplotlib v3.9.1, https://matplotlib.org/</dc:title>
     </cc:Agent>
    </dc:creator>
   </cc:Work>
  </rdf:RDF>
 </metadata>
 <defs>
  <style type="text/css">*{stroke-linejoin: round; stroke-linecap: butt}</style>
 </defs>
 <g id="figure_1">
  <g id="patch_1">
   <path d="M 0 568.676 
L 665.195313 568.676 
L 665.195313 0 
L 0 0 
z
" style="fill: #ffffff"/>
  </g>
  <g id="axes_1">
   <g id="patch_2">
    <path d="M 94.095313 415.44 
L 596.295313 415.44 
L 596.295313 7.2 
L 94.095313 7.2 
z
" style="fill: #ffffff"/>
   </g>
   <g id="matplotlib.axis_1">
    <g id="xtick_1">
     <g id="line2d_1">
      <path d="M 271.886945 415.44 
L 271.886945 7.2 
" clip-path="url(#pef5d2add58)" style="fill: none; stroke-dasharray: 1.85,0.8; stroke-dashoffset: 0; stroke: #b0b0b0; stroke-width: 0.5"/>
     </g>
     <g id="line2d_2">
      <defs>
       <path id="mf33d69a275" d="M 0 0 
L 0 3.5 
" style="stroke: #000000; stroke-width: 0.8"/>
      </defs>
      <g>
       <use xlink:href="#mf33d69a275" x="271.886945" y="415.44" style="stroke: #000000; stroke-width: 0.8"/>
      </g>
     </g>
     <g id="text_1">
      <!-- $\mathdefault{10^{1}}$ -->
      <g transform="translate(252.526945 439.156562) scale(0.22 -0.22)">
       <defs>
        <path id="DejaVuSans-31" d="M 794 531 
L 1825 531 
L 1825 4091 
L 703 3866 
L 703 4441 
L 1819 4666 
L 2450 4666 
L 2450 531 
L 3481 531 
L 3481 0 
L 794 0 
L 794 531 
z
" transform="scale(0.015625)"/>
        <path id="DejaVuSans-30" d="M 2034 4250 
Q 1547 4250 1301 3770 
Q 1056 3291 1056 2328 
Q 1056 1369 1301 889 
Q 1547 409 2034 409 
Q 2525 409 2770 889 
Q 3016 1369 3016 2328 
Q 3016 3291 2770 3770 
Q 2525 4250 2034 4250 
z
M 2034 4750 
Q 2819 4750 3233 4129 
Q 3647 3509 3647 2328 
Q 3647 1150 3233 529 
Q 2819 -91 2034 -91 
Q 1250 -91 836 529 
Q 422 1150 422 2328 
Q 422 3509 836 4129 
Q 1250 4750 2034 4750 
z
" transform="scale(0.015625)"/>
       </defs>
       <use xlink:href="#DejaVuSans-31" transform="translate(0 0.684375)"/>
       <use xlink:href="#DejaVuSans-30" transform="translate(63.623047 0.684375)"/>
       <use xlink:href="#DejaVuSans-31" transform="translate(128.203125 38.965625) scale(0.7)"/>
      </g>
     </g>
    </g>
    <g id="xtick_2">
     <g id="line2d_3">
      <path d="M 481.453539 415.44 
L 481.453539 7.2 
" clip-path="url(#pef5d2add58)" style="fill: none; stroke-dasharray: 1.85,0.8; stroke-dashoffset: 0; stroke: #b0b0b0; stroke-width: 0.5"/>
     </g>
     <g id="line2d_4">
      <g>
       <use xlink:href="#mf33d69a275" x="481.453539" y="415.44" style="stroke: #000000; stroke-width: 0.8"/>
      </g>
     </g>
     <g id="text_2">
      <!-- $\mathdefault{10^{2}}$ -->
      <g transform="translate(462.093539 439.156562) scale(0.22 -0.22)">
       <defs>
        <path id="DejaVuSans-32" d="M 1228 531 
L 3431 531 
L 3431 0 
L 469 0 
L 469 531 
Q 828 903 1448 1529 
Q 2069 2156 2228 2338 
Q 2531 2678 2651 2914 
Q 2772 3150 2772 3378 
Q 2772 3750 2511 3984 
Q 2250 4219 1831 4219 
Q 1534 4219 1204 4116 
Q 875 4013 500 3803 
L 500 4441 
Q 881 4594 1212 4672 
Q 1544 4750 1819 4750 
Q 2544 4750 2975 4387 
Q 3406 4025 3406 3419 
Q 3406 3131 3298 2873 
Q 3191 2616 2906 2266 
Q 2828 2175 2409 1742 
Q 1991 1309 1228 531 
z
" transform="scale(0.015625)"/>
       </defs>
       <use xlink:href="#DejaVuSans-31" transform="translate(0 0.765625)"/>
       <use xlink:href="#DejaVuSans-30" transform="translate(63.623047 0.765625)"/>
       <use xlink:href="#DejaVuSans-32" transform="translate(128.203125 39.046875) scale(0.7)"/>
      </g>
     </g>
    </g>
    <g id="xtick_3">
     <g id="line2d_5">
      <path d="M 125.406181 415.44 
L 125.406181 7.2 
" clip-path="url(#pef5d2add58)" style="fill: none; stroke-dasharray: 1.85,0.8; stroke-dashoffset: 0; stroke: #b0b0b0; stroke-width: 0.5"/>
     </g>
     <g id="line2d_6">
      <defs>
       <path id="m19d31e28ee" d="M 0 0 
L 0 2 
" style="stroke: #000000; stroke-width: 0.6"/>
      </defs>
      <g>
       <use xlink:href="#m19d31e28ee" x="125.406181" y="415.44" style="stroke: #000000; stroke-width: 0.6"/>
      </g>
     </g>
    </g>
    <g id="xtick_4">
     <g id="line2d_7">
      <path d="M 162.309027 415.44 
L 162.309027 7.2 
" clip-path="url(#pef5d2add58)" style="fill: none; stroke-dasharray: 1.85,0.8; stroke-dashoffset: 0; stroke: #b0b0b0; stroke-width: 0.5"/>
     </g>
     <g id="line2d_8">
      <g>
       <use xlink:href="#m19d31e28ee" x="162.309027" y="415.44" style="stroke: #000000; stroke-width: 0.6"/>
      </g>
     </g>
    </g>
    <g id="xtick_5">
     <g id="line2d_9">
      <path d="M 188.492012 415.44 
L 188.492012 7.2 
" clip-path="url(#pef5d2add58)" style="fill: none; stroke-dasharray: 1.85,0.8; stroke-dashoffset: 0; stroke: #b0b0b0; stroke-width: 0.5"/>
     </g>
     <g id="line2d_10">
      <g>
       <use xlink:href="#m19d31e28ee" x="188.492012" y="415.44" style="stroke: #000000; stroke-width: 0.6"/>
      </g>
     </g>
    </g>
    <g id="xtick_6">
     <g id="line2d_11">
      <path d="M 208.801114 415.44 
L 208.801114 7.2 
" clip-path="url(#pef5d2add58)" style="fill: none; stroke-dasharray: 1.85,0.8; stroke-dashoffset: 0; stroke: #b0b0b0; stroke-width: 0.5"/>
     </g>
     <g id="line2d_12">
      <g>
       <use xlink:href="#m19d31e28ee" x="208.801114" y="415.44" style="stroke: #000000; stroke-width: 0.6"/>
      </g>
     </g>
    </g>
    <g id="xtick_7">
     <g id="line2d_13">
      <path d="M 225.394858 415.44 
L 225.394858 7.2 
" clip-path="url(#pef5d2add58)" style="fill: none; stroke-dasharray: 1.85,0.8; stroke-dashoffset: 0; stroke: #b0b0b0; stroke-width: 0.5"/>
     </g>
     <g id="line2d_14">
      <g>
       <use xlink:href="#m19d31e28ee" x="225.394858" y="415.44" style="stroke: #000000; stroke-width: 0.6"/>
      </g>
     </g>
    </g>
    <g id="xtick_8">
     <g id="line2d_15">
      <path d="M 239.424668 415.44 
L 239.424668 7.2 
" clip-path="url(#pef5d2add58)" style="fill: none; stroke-dasharray: 1.85,0.8; stroke-dashoffset: 0; stroke: #b0b0b0; stroke-width: 0.5"/>
     </g>
     <g id="line2d_16">
      <g>
       <use xlink:href="#m19d31e28ee" x="239.424668" y="415.44" style="stroke: #000000; stroke-width: 0.6"/>
      </g>
     </g>
    </g>
    <g id="xtick_9">
     <g id="line2d_17">
      <path d="M 251.577843 415.44 
L 251.577843 7.2 
" clip-path="url(#pef5d2add58)" style="fill: none; stroke-dasharray: 1.85,0.8; stroke-dashoffset: 0; stroke: #b0b0b0; stroke-width: 0.5"/>
     </g>
     <g id="line2d_18">
      <g>
       <use xlink:href="#m19d31e28ee" x="251.577843" y="415.44" style="stroke: #000000; stroke-width: 0.6"/>
      </g>
     </g>
    </g>
    <g id="xtick_10">
     <g id="line2d_19">
      <path d="M 262.297703 415.44 
L 262.297703 7.2 
" clip-path="url(#pef5d2add58)" style="fill: none; stroke-dasharray: 1.85,0.8; stroke-dashoffset: 0; stroke: #b0b0b0; stroke-width: 0.5"/>
     </g>
     <g id="line2d_20">
      <g>
       <use xlink:href="#m19d31e28ee" x="262.297703" y="415.44" style="stroke: #000000; stroke-width: 0.6"/>
      </g>
     </g>
    </g>
    <g id="xtick_11">
     <g id="line2d_21">
      <path d="M 334.972776 415.44 
L 334.972776 7.2 
" clip-path="url(#pef5d2add58)" style="fill: none; stroke-dasharray: 1.85,0.8; stroke-dashoffset: 0; stroke: #b0b0b0; stroke-width: 0.5"/>
     </g>
     <g id="line2d_22">
      <g>
       <use xlink:href="#m19d31e28ee" x="334.972776" y="415.44" style="stroke: #000000; stroke-width: 0.6"/>
      </g>
     </g>
    </g>
    <g id="xtick_12">
     <g id="line2d_23">
      <path d="M 371.875621 415.44 
L 371.875621 7.2 
" clip-path="url(#pef5d2add58)" style="fill: none; stroke-dasharray: 1.85,0.8; stroke-dashoffset: 0; stroke: #b0b0b0; stroke-width: 0.5"/>
     </g>
     <g id="line2d_24">
      <g>
       <use xlink:href="#m19d31e28ee" x="371.875621" y="415.44" style="stroke: #000000; stroke-width: 0.6"/>
      </g>
     </g>
    </g>
    <g id="xtick_13">
     <g id="line2d_25">
      <path d="M 398.058607 415.44 
L 398.058607 7.2 
" clip-path="url(#pef5d2add58)" style="fill: none; stroke-dasharray: 1.85,0.8; stroke-dashoffset: 0; stroke: #b0b0b0; stroke-width: 0.5"/>
     </g>
     <g id="line2d_26">
      <g>
       <use xlink:href="#m19d31e28ee" x="398.058607" y="415.44" style="stroke: #000000; stroke-width: 0.6"/>
      </g>
     </g>
    </g>
    <g id="xtick_14">
     <g id="line2d_27">
      <path d="M 418.367708 415.44 
L 418.367708 7.2 
" clip-path="url(#pef5d2add58)" style="fill: none; stroke-dasharray: 1.85,0.8; stroke-dashoffset: 0; stroke: #b0b0b0; stroke-width: 0.5"/>
     </g>
     <g id="line2d_28">
      <g>
       <use xlink:href="#m19d31e28ee" x="418.367708" y="415.44" style="stroke: #000000; stroke-width: 0.6"/>
      </g>
     </g>
    </g>
    <g id="xtick_15">
     <g id="line2d_29">
      <path d="M 434.961452 415.44 
L 434.961452 7.2 
" clip-path="url(#pef5d2add58)" style="fill: none; stroke-dasharray: 1.85,0.8; stroke-dashoffset: 0; stroke: #b0b0b0; stroke-width: 0.5"/>
     </g>
     <g id="line2d_30">
      <g>
       <use xlink:href="#m19d31e28ee" x="434.961452" y="415.44" style="stroke: #000000; stroke-width: 0.6"/>
      </g>
     </g>
    </g>
    <g id="xtick_16">
     <g id="line2d_31">
      <path d="M 448.991263 415.44 
L 448.991263 7.2 
" clip-path="url(#pef5d2add58)" style="fill: none; stroke-dasharray: 1.85,0.8; stroke-dashoffset: 0; stroke: #b0b0b0; stroke-width: 0.5"/>
     </g>
     <g id="line2d_32">
      <g>
       <use xlink:href="#m19d31e28ee" x="448.991263" y="415.44" style="stroke: #000000; stroke-width: 0.6"/>
      </g>
     </g>
    </g>
    <g id="xtick_17">
     <g id="line2d_33">
      <path d="M 461.144438 415.44 
L 461.144438 7.2 
" clip-path="url(#pef5d2add58)" style="fill: none; stroke-dasharray: 1.85,0.8; stroke-dashoffset: 0; stroke: #b0b0b0; stroke-width: 0.5"/>
     </g>
     <g id="line2d_34">
      <g>
       <use xlink:href="#m19d31e28ee" x="461.144438" y="415.44" style="stroke: #000000; stroke-width: 0.6"/>
      </g>
     </g>
    </g>
    <g id="xtick_18">
     <g id="line2d_35">
      <path d="M 471.864298 415.44 
L 471.864298 7.2 
" clip-path="url(#pef5d2add58)" style="fill: none; stroke-dasharray: 1.85,0.8; stroke-dashoffset: 0; stroke: #b0b0b0; stroke-width: 0.5"/>
     </g>
     <g id="line2d_36">
      <g>
       <use xlink:href="#m19d31e28ee" x="471.864298" y="415.44" style="stroke: #000000; stroke-width: 0.6"/>
      </g>
     </g>
    </g>
    <g id="xtick_19">
     <g id="line2d_37">
      <path d="M 544.53937 415.44 
L 544.53937 7.2 
" clip-path="url(#pef5d2add58)" style="fill: none; stroke-dasharray: 1.85,0.8; stroke-dashoffset: 0; stroke: #b0b0b0; stroke-width: 0.5"/>
     </g>
     <g id="line2d_38">
      <g>
       <use xlink:href="#m19d31e28ee" x="544.53937" y="415.44" style="stroke: #000000; stroke-width: 0.6"/>
      </g>
     </g>
    </g>
    <g id="xtick_20">
     <g id="line2d_39">
      <path d="M 581.442216 415.44 
L 581.442216 7.2 
" clip-path="url(#pef5d2add58)" style="fill: none; stroke-dasharray: 1.85,0.8; stroke-dashoffset: 0; stroke: #b0b0b0; stroke-width: 0.5"/>
     </g>
     <g id="line2d_40">
      <g>
       <use xlink:href="#m19d31e28ee" x="581.442216" y="415.44" style="stroke: #000000; stroke-width: 0.6"/>
      </g>
     </g>
    </g>
    <g id="text_3">
     <!-- Compute time / s -->
     <g transform="translate(237.3125 466.727969) scale(0.25 -0.25)">
      <defs>
       <path id="DejaVuSans-43" d="M 4122 4306 
L 4122 3641 
Q 3803 3938 3442 4084 
Q 3081 4231 2675 4231 
Q 1875 4231 1450 3742 
Q 1025 3253 1025 2328 
Q 1025 1406 1450 917 
Q 1875 428 2675 428 
Q 3081 428 3442 575 
Q 3803 722 4122 1019 
L 4122 359 
Q 3791 134 3420 21 
Q 3050 -91 2638 -91 
Q 1578 -91 968 557 
Q 359 1206 359 2328 
Q 359 3453 968 4101 
Q 1578 4750 2638 4750 
Q 3056 4750 3426 4639 
Q 3797 4528 4122 4306 
z
" transform="scale(0.015625)"/>
       <path id="DejaVuSans-6f" d="M 1959 3097 
Q 1497 3097 1228 2736 
Q 959 2375 959 1747 
Q 959 1119 1226 758 
Q 1494 397 1959 397 
Q 2419 397 2687 759 
Q 2956 1122 2956 1747 
Q 2956 2369 2687 2733 
Q 2419 3097 1959 3097 
z
M 1959 3584 
Q 2709 3584 3137 3096 
Q 3566 2609 3566 1747 
Q 3566 888 3137 398 
Q 2709 -91 1959 -91 
Q 1206 -91 779 398 
Q 353 888 353 1747 
Q 353 2609 779 3096 
Q 1206 3584 1959 3584 
z
" transform="scale(0.015625)"/>
       <path id="DejaVuSans-6d" d="M 3328 2828 
Q 3544 3216 3844 3400 
Q 4144 3584 4550 3584 
Q 5097 3584 5394 3201 
Q 5691 2819 5691 2113 
L 5691 0 
L 5113 0 
L 5113 2094 
Q 5113 2597 4934 2840 
Q 4756 3084 4391 3084 
Q 3944 3084 3684 2787 
Q 3425 2491 3425 1978 
L 3425 0 
L 2847 0 
L 2847 2094 
Q 2847 2600 2669 2842 
Q 2491 3084 2119 3084 
Q 1678 3084 1418 2786 
Q 1159 2488 1159 1978 
L 1159 0 
L 581 0 
L 581 3500 
L 1159 3500 
L 1159 2956 
Q 1356 3278 1631 3431 
Q 1906 3584 2284 3584 
Q 2666 3584 2933 3390 
Q 3200 3197 3328 2828 
z
" transform="scale(0.015625)"/>
       <path id="DejaVuSans-70" d="M 1159 525 
L 1159 -1331 
L 581 -1331 
L 581 3500 
L 1159 3500 
L 1159 2969 
Q 1341 3281 1617 3432 
Q 1894 3584 2278 3584 
Q 2916 3584 3314 3078 
Q 3713 2572 3713 1747 
Q 3713 922 3314 415 
Q 2916 -91 2278 -91 
Q 1894 -91 1617 61 
Q 1341 213 1159 525 
z
M 3116 1747 
Q 3116 2381 2855 2742 
Q 2594 3103 2138 3103 
Q 1681 3103 1420 2742 
Q 1159 2381 1159 1747 
Q 1159 1113 1420 752 
Q 1681 391 2138 391 
Q 2594 391 2855 752 
Q 3116 1113 3116 1747 
z
" transform="scale(0.015625)"/>
       <path id="DejaVuSans-75" d="M 544 1381 
L 544 3500 
L 1119 3500 
L 1119 1403 
Q 1119 906 1312 657 
Q 1506 409 1894 409 
Q 2359 409 2629 706 
Q 2900 1003 2900 1516 
L 2900 3500 
L 3475 3500 
L 3475 0 
L 2900 0 
L 2900 538 
Q 2691 219 2414 64 
Q 2138 -91 1772 -91 
Q 1169 -91 856 284 
Q 544 659 544 1381 
z
M 1991 3584 
L 1991 3584 
z
" transform="scale(0.015625)"/>
       <path id="DejaVuSans-74" d="M 1172 4494 
L 1172 3500 
L 2356 3500 
L 2356 3053 
L 1172 3053 
L 1172 1153 
Q 1172 725 1289 603 
Q 1406 481 1766 481 
L 2356 481 
L 2356 0 
L 1766 0 
Q 1100 0 847 248 
Q 594 497 594 1153 
L 594 3053 
L 172 3053 
L 172 3500 
L 594 3500 
L 594 4494 
L 1172 4494 
z
" transform="scale(0.015625)"/>
       <path id="DejaVuSans-65" d="M 3597 1894 
L 3597 1613 
L 953 1613 
Q 991 1019 1311 708 
Q 1631 397 2203 397 
Q 2534 397 2845 478 
Q 3156 559 3463 722 
L 3463 178 
Q 3153 47 2828 -22 
Q 2503 -91 2169 -91 
Q 1331 -91 842 396 
Q 353 884 353 1716 
Q 353 2575 817 3079 
Q 1281 3584 2069 3584 
Q 2775 3584 3186 3129 
Q 3597 2675 3597 1894 
z
M 3022 2063 
Q 3016 2534 2758 2815 
Q 2500 3097 2075 3097 
Q 1594 3097 1305 2825 
Q 1016 2553 972 2059 
L 3022 2063 
z
" transform="scale(0.015625)"/>
       <path id="DejaVuSans-20" transform="scale(0.015625)"/>
       <path id="DejaVuSans-69" d="M 603 3500 
L 1178 3500 
L 1178 0 
L 603 0 
L 603 3500 
z
M 603 4863 
L 1178 4863 
L 1178 4134 
L 603 4134 
L 603 4863 
z
" transform="scale(0.015625)"/>
       <path id="DejaVuSans-2f" d="M 1625 4666 
L 2156 4666 
L 531 -594 
L 0 -594 
L 1625 4666 
z
" transform="scale(0.015625)"/>
       <path id="DejaVuSans-73" d="M 2834 3397 
L 2834 2853 
Q 2591 2978 2328 3040 
Q 2066 3103 1784 3103 
Q 1356 3103 1142 2972 
Q 928 2841 928 2578 
Q 928 2378 1081 2264 
Q 1234 2150 1697 2047 
L 1894 2003 
Q 2506 1872 2764 1633 
Q 3022 1394 3022 966 
Q 3022 478 2636 193 
Q 2250 -91 1575 -91 
Q 1294 -91 989 -36 
Q 684 19 347 128 
L 347 722 
Q 666 556 975 473 
Q 1284 391 1588 391 
Q 1994 391 2212 530 
Q 2431 669 2431 922 
Q 2431 1156 2273 1281 
Q 2116 1406 1581 1522 
L 1381 1569 
Q 847 1681 609 1914 
Q 372 2147 372 2553 
Q 372 3047 722 3315 
Q 1072 3584 1716 3584 
Q 2034 3584 2315 3537 
Q 2597 3491 2834 3397 
z
" transform="scale(0.015625)"/>
      </defs>
      <use xlink:href="#DejaVuSans-43"/>
      <use xlink:href="#DejaVuSans-6f" x="69.824219"/>
      <use xlink:href="#DejaVuSans-6d" x="131.005859"/>
      <use xlink:href="#DejaVuSans-70" x="228.417969"/>
      <use xlink:href="#DejaVuSans-75" x="291.894531"/>
      <use xlink:href="#DejaVuSans-74" x="355.273438"/>
      <use xlink:href="#DejaVuSans-65" x="394.482422"/>
      <use xlink:href="#DejaVuSans-20" x="456.005859"/>
      <use xlink:href="#DejaVuSans-74" x="487.792969"/>
      <use xlink:href="#DejaVuSans-69" x="527.001953"/>
      <use xlink:href="#DejaVuSans-6d" x="554.785156"/>
      <use xlink:href="#DejaVuSans-65" x="652.197266"/>
      <use xlink:href="#DejaVuSans-20" x="713.720703"/>
      <use xlink:href="#DejaVuSans-2f" x="745.507812"/>
      <use xlink:href="#DejaVuSans-20" x="779.199219"/>
      <use xlink:href="#DejaVuSans-73" x="810.986328"/>
     </g>
    </g>
   </g>
   <g id="matplotlib.axis_2">
    <g id="ytick_1">
     <g id="line2d_41">
      <path d="M 94.095313 399.339867 
L 596.295313 399.339867 
" clip-path="url(#pef5d2add58)" style="fill: none; stroke-dasharray: 1.85,0.8; stroke-dashoffset: 0; stroke: #b0b0b0; stroke-width: 0.5"/>
     </g>
     <g id="line2d_42">
      <defs>
       <path id="mb879762a14" d="M 0 0 
L -3.5 0 
" style="stroke: #000000; stroke-width: 0.8"/>
      </defs>
      <g>
       <use xlink:href="#mb879762a14" x="94.095313" y="399.339867" style="stroke: #000000; stroke-width: 0.8"/>
      </g>
     </g>
     <g id="text_4">
      <!-- $\mathdefault{10^{-4}}$ -->
      <g transform="translate(35.395313 407.698148) scale(0.22 -0.22)">
       <defs>
        <path id="DejaVuSans-2212" d="M 678 2272 
L 4684 2272 
L 4684 1741 
L 678 1741 
L 678 2272 
z
" transform="scale(0.015625)"/>
        <path id="DejaVuSans-34" d="M 2419 4116 
L 825 1625 
L 2419 1625 
L 2419 4116 
z
M 2253 4666 
L 3047 4666 
L 3047 1625 
L 3713 1625 
L 3713 1100 
L 3047 1100 
L 3047 0 
L 2419 0 
L 2419 1100 
L 313 1100 
L 313 1709 
L 2253 4666 
z
" transform="scale(0.015625)"/>
       </defs>
       <use xlink:href="#DejaVuSans-31" transform="translate(0 0.684375)"/>
       <use xlink:href="#DejaVuSans-30" transform="translate(63.623047 0.684375)"/>
       <use xlink:href="#DejaVuSans-2212" transform="translate(128.203125 38.965625) scale(0.7)"/>
       <use xlink:href="#DejaVuSans-34" transform="translate(186.855469 38.965625) scale(0.7)"/>
      </g>
     </g>
    </g>
    <g id="ytick_2">
     <g id="line2d_43">
      <path d="M 94.095313 339.283229 
L 596.295313 339.283229 
" clip-path="url(#pef5d2add58)" style="fill: none; stroke-dasharray: 1.85,0.8; stroke-dashoffset: 0; stroke: #b0b0b0; stroke-width: 0.5"/>
     </g>
     <g id="line2d_44">
      <g>
       <use xlink:href="#mb879762a14" x="94.095313" y="339.283229" style="stroke: #000000; stroke-width: 0.8"/>
      </g>
     </g>
     <g id="text_5">
      <!-- $\mathdefault{10^{-3}}$ -->
      <g transform="translate(35.395313 347.641511) scale(0.22 -0.22)">
       <defs>
        <path id="DejaVuSans-33" d="M 2597 2516 
Q 3050 2419 3304 2112 
Q 3559 1806 3559 1356 
Q 3559 666 3084 287 
Q 2609 -91 1734 -91 
Q 1441 -91 1130 -33 
Q 819 25 488 141 
L 488 750 
Q 750 597 1062 519 
Q 1375 441 1716 441 
Q 2309 441 2620 675 
Q 2931 909 2931 1356 
Q 2931 1769 2642 2001 
Q 2353 2234 1838 2234 
L 1294 2234 
L 1294 2753 
L 1863 2753 
Q 2328 2753 2575 2939 
Q 2822 3125 2822 3475 
Q 2822 3834 2567 4026 
Q 2313 4219 1838 4219 
Q 1578 4219 1281 4162 
Q 984 4106 628 3988 
L 628 4550 
Q 988 4650 1302 4700 
Q 1616 4750 1894 4750 
Q 2613 4750 3031 4423 
Q 3450 4097 3450 3541 
Q 3450 3153 3228 2886 
Q 3006 2619 2597 2516 
z
" transform="scale(0.015625)"/>
       </defs>
       <use xlink:href="#DejaVuSans-31" transform="translate(0 0.765625)"/>
       <use xlink:href="#DejaVuSans-30" transform="translate(63.623047 0.765625)"/>
       <use xlink:href="#DejaVuSans-2212" transform="translate(128.203125 39.046875) scale(0.7)"/>
       <use xlink:href="#DejaVuSans-33" transform="translate(186.855469 39.046875) scale(0.7)"/>
      </g>
     </g>
    </g>
    <g id="ytick_3">
     <g id="line2d_45">
      <path d="M 94.095313 279.226592 
L 596.295313 279.226592 
" clip-path="url(#pef5d2add58)" style="fill: none; stroke-dasharray: 1.85,0.8; stroke-dashoffset: 0; stroke: #b0b0b0; stroke-width: 0.5"/>
     </g>
     <g id="line2d_46">
      <g>
       <use xlink:href="#mb879762a14" x="94.095313" y="279.226592" style="stroke: #000000; stroke-width: 0.8"/>
      </g>
     </g>
     <g id="text_6">
      <!-- $\mathdefault{10^{-2}}$ -->
      <g transform="translate(35.395313 287.584873) scale(0.22 -0.22)">
       <use xlink:href="#DejaVuSans-31" transform="translate(0 0.765625)"/>
       <use xlink:href="#DejaVuSans-30" transform="translate(63.623047 0.765625)"/>
       <use xlink:href="#DejaVuSans-2212" transform="translate(128.203125 39.046875) scale(0.7)"/>
       <use xlink:href="#DejaVuSans-32" transform="translate(186.855469 39.046875) scale(0.7)"/>
      </g>
     </g>
    </g>
    <g id="ytick_4">
     <g id="line2d_47">
      <path d="M 94.095313 219.169954 
L 596.295313 219.169954 
" clip-path="url(#pef5d2add58)" style="fill: none; stroke-dasharray: 1.85,0.8; stroke-dashoffset: 0; stroke: #b0b0b0; stroke-width: 0.5"/>
     </g>
     <g id="line2d_48">
      <g>
       <use xlink:href="#mb879762a14" x="94.095313" y="219.169954" style="stroke: #000000; stroke-width: 0.8"/>
      </g>
     </g>
     <g id="text_7">
      <!-- $\mathdefault{10^{-1}}$ -->
      <g transform="translate(35.395313 227.528236) scale(0.22 -0.22)">
       <use xlink:href="#DejaVuSans-31" transform="translate(0 0.684375)"/>
       <use xlink:href="#DejaVuSans-30" transform="translate(63.623047 0.684375)"/>
       <use xlink:href="#DejaVuSans-2212" transform="translate(128.203125 38.965625) scale(0.7)"/>
       <use xlink:href="#DejaVuSans-31" transform="translate(186.855469 38.965625) scale(0.7)"/>
      </g>
     </g>
    </g>
    <g id="ytick_5">
     <g id="line2d_49">
      <path d="M 94.095313 159.113317 
L 596.295313 159.113317 
" clip-path="url(#pef5d2add58)" style="fill: none; stroke-dasharray: 1.85,0.8; stroke-dashoffset: 0; stroke: #b0b0b0; stroke-width: 0.5"/>
     </g>
     <g id="line2d_50">
      <g>
       <use xlink:href="#mb879762a14" x="94.095313" y="159.113317" style="stroke: #000000; stroke-width: 0.8"/>
      </g>
     </g>
     <g id="text_8">
      <!-- $\mathdefault{10^{0}}$ -->
      <g transform="translate(48.375313 167.471598) scale(0.22 -0.22)">
       <use xlink:href="#DejaVuSans-31" transform="translate(0 0.765625)"/>
       <use xlink:href="#DejaVuSans-30" transform="translate(63.623047 0.765625)"/>
       <use xlink:href="#DejaVuSans-30" transform="translate(128.203125 39.046875) scale(0.7)"/>
      </g>
     </g>
    </g>
    <g id="ytick_6">
     <g id="line2d_51">
      <path d="M 94.095313 99.05668 
L 596.295313 99.05668 
" clip-path="url(#pef5d2add58)" style="fill: none; stroke-dasharray: 1.85,0.8; stroke-dashoffset: 0; stroke: #b0b0b0; stroke-width: 0.5"/>
     </g>
     <g id="line2d_52">
      <g>
       <use xlink:href="#mb879762a14" x="94.095313" y="99.05668" style="stroke: #000000; stroke-width: 0.8"/>
      </g>
     </g>
     <g id="text_9">
      <!-- $\mathdefault{10^{1}}$ -->
      <g transform="translate(48.375313 107.414961) scale(0.22 -0.22)">
       <use xlink:href="#DejaVuSans-31" transform="translate(0 0.684375)"/>
       <use xlink:href="#DejaVuSans-30" transform="translate(63.623047 0.684375)"/>
       <use xlink:href="#DejaVuSans-31" transform="translate(128.203125 38.965625) scale(0.7)"/>
      </g>
     </g>
    </g>
    <g id="ytick_7">
     <g id="line2d_53">
      <path d="M 94.095313 39.000042 
L 596.295313 39.000042 
" clip-path="url(#pef5d2add58)" style="fill: none; stroke-dasharray: 1.85,0.8; stroke-dashoffset: 0; stroke: #b0b0b0; stroke-width: 0.5"/>
     </g>
     <g id="line2d_54">
      <g>
       <use xlink:href="#mb879762a14" x="94.095313" y="39.000042" style="stroke: #000000; stroke-width: 0.8"/>
      </g>
     </g>
     <g id="text_10">
      <!-- $\mathdefault{10^{2}}$ -->
      <g transform="translate(48.375313 47.358323) scale(0.22 -0.22)">
       <use xlink:href="#DejaVuSans-31" transform="translate(0 0.765625)"/>
       <use xlink:href="#DejaVuSans-30" transform="translate(63.623047 0.765625)"/>
       <use xlink:href="#DejaVuSans-32" transform="translate(128.203125 39.046875) scale(0.7)"/>
      </g>
     </g>
    </g>
    <g id="ytick_8">
     <g id="line2d_55">
      <path d="M 94.095313 412.663357 
L 596.295313 412.663357 
" clip-path="url(#pef5d2add58)" style="fill: none; stroke-dasharray: 1.85,0.8; stroke-dashoffset: 0; stroke: #b0b0b0; stroke-width: 0.5"/>
     </g>
     <g id="line2d_56">
      <defs>
       <path id="m37ba50282b" d="M 0 0 
L -2 0 
" style="stroke: #000000; stroke-width: 0.6"/>
      </defs>
      <g>
       <use xlink:href="#m37ba50282b" x="94.095313" y="412.663357" style="stroke: #000000; stroke-width: 0.6"/>
      </g>
     </g>
    </g>
    <g id="ytick_9">
     <g id="line2d_57">
      <path d="M 94.095313 408.642758 
L 596.295313 408.642758 
" clip-path="url(#pef5d2add58)" style="fill: none; stroke-dasharray: 1.85,0.8; stroke-dashoffset: 0; stroke: #b0b0b0; stroke-width: 0.5"/>
     </g>
     <g id="line2d_58">
      <g>
       <use xlink:href="#m37ba50282b" x="94.095313" y="408.642758" style="stroke: #000000; stroke-width: 0.6"/>
      </g>
     </g>
    </g>
    <g id="ytick_10">
     <g id="line2d_59">
      <path d="M 94.095313 405.159956 
L 596.295313 405.159956 
" clip-path="url(#pef5d2add58)" style="fill: none; stroke-dasharray: 1.85,0.8; stroke-dashoffset: 0; stroke: #b0b0b0; stroke-width: 0.5"/>
     </g>
     <g id="line2d_60">
      <g>
       <use xlink:href="#m37ba50282b" x="94.095313" y="405.159956" style="stroke: #000000; stroke-width: 0.6"/>
      </g>
     </g>
    </g>
    <g id="ytick_11">
     <g id="line2d_61">
      <path d="M 94.095313 402.087908 
L 596.295313 402.087908 
" clip-path="url(#pef5d2add58)" style="fill: none; stroke-dasharray: 1.85,0.8; stroke-dashoffset: 0; stroke: #b0b0b0; stroke-width: 0.5"/>
     </g>
     <g id="line2d_62">
      <g>
       <use xlink:href="#m37ba50282b" x="94.095313" y="402.087908" style="stroke: #000000; stroke-width: 0.6"/>
      </g>
     </g>
    </g>
    <g id="ytick_12">
     <g id="line2d_63">
      <path d="M 94.095313 381.261017 
L 596.295313 381.261017 
" clip-path="url(#pef5d2add58)" style="fill: none; stroke-dasharray: 1.85,0.8; stroke-dashoffset: 0; stroke: #b0b0b0; stroke-width: 0.5"/>
     </g>
     <g id="line2d_64">
      <g>
       <use xlink:href="#m37ba50282b" x="94.095313" y="381.261017" style="stroke: #000000; stroke-width: 0.6"/>
      </g>
     </g>
    </g>
    <g id="ytick_13">
     <g id="line2d_65">
      <path d="M 94.095313 370.685569 
L 596.295313 370.685569 
" clip-path="url(#pef5d2add58)" style="fill: none; stroke-dasharray: 1.85,0.8; stroke-dashoffset: 0; stroke: #b0b0b0; stroke-width: 0.5"/>
     </g>
     <g id="line2d_66">
      <g>
       <use xlink:href="#m37ba50282b" x="94.095313" y="370.685569" style="stroke: #000000; stroke-width: 0.6"/>
      </g>
     </g>
    </g>
    <g id="ytick_14">
     <g id="line2d_67">
      <path d="M 94.095313 363.182168 
L 596.295313 363.182168 
" clip-path="url(#pef5d2add58)" style="fill: none; stroke-dasharray: 1.85,0.8; stroke-dashoffset: 0; stroke: #b0b0b0; stroke-width: 0.5"/>
     </g>
     <g id="line2d_68">
      <g>
       <use xlink:href="#m37ba50282b" x="94.095313" y="363.182168" style="stroke: #000000; stroke-width: 0.6"/>
      </g>
     </g>
    </g>
    <g id="ytick_15">
     <g id="line2d_69">
      <path d="M 94.095313 357.362079 
L 596.295313 357.362079 
" clip-path="url(#pef5d2add58)" style="fill: none; stroke-dasharray: 1.85,0.8; stroke-dashoffset: 0; stroke: #b0b0b0; stroke-width: 0.5"/>
     </g>
     <g id="line2d_70">
      <g>
       <use xlink:href="#m37ba50282b" x="94.095313" y="357.362079" style="stroke: #000000; stroke-width: 0.6"/>
      </g>
     </g>
    </g>
    <g id="ytick_16">
     <g id="line2d_71">
      <path d="M 94.095313 352.606719 
L 596.295313 352.606719 
" clip-path="url(#pef5d2add58)" style="fill: none; stroke-dasharray: 1.85,0.8; stroke-dashoffset: 0; stroke: #b0b0b0; stroke-width: 0.5"/>
     </g>
     <g id="line2d_72">
      <g>
       <use xlink:href="#m37ba50282b" x="94.095313" y="352.606719" style="stroke: #000000; stroke-width: 0.6"/>
      </g>
     </g>
    </g>
    <g id="ytick_17">
     <g id="line2d_73">
      <path d="M 94.095313 348.58612 
L 596.295313 348.58612 
" clip-path="url(#pef5d2add58)" style="fill: none; stroke-dasharray: 1.85,0.8; stroke-dashoffset: 0; stroke: #b0b0b0; stroke-width: 0.5"/>
     </g>
     <g id="line2d_74">
      <g>
       <use xlink:href="#m37ba50282b" x="94.095313" y="348.58612" style="stroke: #000000; stroke-width: 0.6"/>
      </g>
     </g>
    </g>
    <g id="ytick_18">
     <g id="line2d_75">
      <path d="M 94.095313 345.103319 
L 596.295313 345.103319 
" clip-path="url(#pef5d2add58)" style="fill: none; stroke-dasharray: 1.85,0.8; stroke-dashoffset: 0; stroke: #b0b0b0; stroke-width: 0.5"/>
     </g>
     <g id="line2d_76">
      <g>
       <use xlink:href="#m37ba50282b" x="94.095313" y="345.103319" style="stroke: #000000; stroke-width: 0.6"/>
      </g>
     </g>
    </g>
    <g id="ytick_19">
     <g id="line2d_77">
      <path d="M 94.095313 342.03127 
L 596.295313 342.03127 
" clip-path="url(#pef5d2add58)" style="fill: none; stroke-dasharray: 1.85,0.8; stroke-dashoffset: 0; stroke: #b0b0b0; stroke-width: 0.5"/>
     </g>
     <g id="line2d_78">
      <g>
       <use xlink:href="#m37ba50282b" x="94.095313" y="342.03127" style="stroke: #000000; stroke-width: 0.6"/>
      </g>
     </g>
    </g>
    <g id="ytick_20">
     <g id="line2d_79">
      <path d="M 94.095313 321.20438 
L 596.295313 321.20438 
" clip-path="url(#pef5d2add58)" style="fill: none; stroke-dasharray: 1.85,0.8; stroke-dashoffset: 0; stroke: #b0b0b0; stroke-width: 0.5"/>
     </g>
     <g id="line2d_80">
      <g>
       <use xlink:href="#m37ba50282b" x="94.095313" y="321.20438" style="stroke: #000000; stroke-width: 0.6"/>
      </g>
     </g>
    </g>
    <g id="ytick_21">
     <g id="line2d_81">
      <path d="M 94.095313 310.628931 
L 596.295313 310.628931 
" clip-path="url(#pef5d2add58)" style="fill: none; stroke-dasharray: 1.85,0.8; stroke-dashoffset: 0; stroke: #b0b0b0; stroke-width: 0.5"/>
     </g>
     <g id="line2d_82">
      <g>
       <use xlink:href="#m37ba50282b" x="94.095313" y="310.628931" style="stroke: #000000; stroke-width: 0.6"/>
      </g>
     </g>
    </g>
    <g id="ytick_22">
     <g id="line2d_83">
      <path d="M 94.095313 303.125531 
L 596.295313 303.125531 
" clip-path="url(#pef5d2add58)" style="fill: none; stroke-dasharray: 1.85,0.8; stroke-dashoffset: 0; stroke: #b0b0b0; stroke-width: 0.5"/>
     </g>
     <g id="line2d_84">
      <g>
       <use xlink:href="#m37ba50282b" x="94.095313" y="303.125531" style="stroke: #000000; stroke-width: 0.6"/>
      </g>
     </g>
    </g>
    <g id="ytick_23">
     <g id="line2d_85">
      <path d="M 94.095313 297.305441 
L 596.295313 297.305441 
" clip-path="url(#pef5d2add58)" style="fill: none; stroke-dasharray: 1.85,0.8; stroke-dashoffset: 0; stroke: #b0b0b0; stroke-width: 0.5"/>
     </g>
     <g id="line2d_86">
      <g>
       <use xlink:href="#m37ba50282b" x="94.095313" y="297.305441" style="stroke: #000000; stroke-width: 0.6"/>
      </g>
     </g>
    </g>
    <g id="ytick_24">
     <g id="line2d_87">
      <path d="M 94.095313 292.550082 
L 596.295313 292.550082 
" clip-path="url(#pef5d2add58)" style="fill: none; stroke-dasharray: 1.85,0.8; stroke-dashoffset: 0; stroke: #b0b0b0; stroke-width: 0.5"/>
     </g>
     <g id="line2d_88">
      <g>
       <use xlink:href="#m37ba50282b" x="94.095313" y="292.550082" style="stroke: #000000; stroke-width: 0.6"/>
      </g>
     </g>
    </g>
    <g id="ytick_25">
     <g id="line2d_89">
      <path d="M 94.095313 288.529483 
L 596.295313 288.529483 
" clip-path="url(#pef5d2add58)" style="fill: none; stroke-dasharray: 1.85,0.8; stroke-dashoffset: 0; stroke: #b0b0b0; stroke-width: 0.5"/>
     </g>
     <g id="line2d_90">
      <g>
       <use xlink:href="#m37ba50282b" x="94.095313" y="288.529483" style="stroke: #000000; stroke-width: 0.6"/>
      </g>
     </g>
    </g>
    <g id="ytick_26">
     <g id="line2d_91">
      <path d="M 94.095313 285.046681 
L 596.295313 285.046681 
" clip-path="url(#pef5d2add58)" style="fill: none; stroke-dasharray: 1.85,0.8; stroke-dashoffset: 0; stroke: #b0b0b0; stroke-width: 0.5"/>
     </g>
     <g id="line2d_92">
      <g>
       <use xlink:href="#m37ba50282b" x="94.095313" y="285.046681" style="stroke: #000000; stroke-width: 0.6"/>
      </g>
     </g>
    </g>
    <g id="ytick_27">
     <g id="line2d_93">
      <path d="M 94.095313 281.974633 
L 596.295313 281.974633 
" clip-path="url(#pef5d2add58)" style="fill: none; stroke-dasharray: 1.85,0.8; stroke-dashoffset: 0; stroke: #b0b0b0; stroke-width: 0.5"/>
     </g>
     <g id="line2d_94">
      <g>
       <use xlink:href="#m37ba50282b" x="94.095313" y="281.974633" style="stroke: #000000; stroke-width: 0.6"/>
      </g>
     </g>
    </g>
    <g id="ytick_28">
     <g id="line2d_95">
      <path d="M 94.095313 261.147743 
L 596.295313 261.147743 
" clip-path="url(#pef5d2add58)" style="fill: none; stroke-dasharray: 1.85,0.8; stroke-dashoffset: 0; stroke: #b0b0b0; stroke-width: 0.5"/>
     </g>
     <g id="line2d_96">
      <g>
       <use xlink:href="#m37ba50282b" x="94.095313" y="261.147743" style="stroke: #000000; stroke-width: 0.6"/>
      </g>
     </g>
    </g>
    <g id="ytick_29">
     <g id="line2d_97">
      <path d="M 94.095313 250.572294 
L 596.295313 250.572294 
" clip-path="url(#pef5d2add58)" style="fill: none; stroke-dasharray: 1.85,0.8; stroke-dashoffset: 0; stroke: #b0b0b0; stroke-width: 0.5"/>
     </g>
     <g id="line2d_98">
      <g>
       <use xlink:href="#m37ba50282b" x="94.095313" y="250.572294" style="stroke: #000000; stroke-width: 0.6"/>
      </g>
     </g>
    </g>
    <g id="ytick_30">
     <g id="line2d_99">
      <path d="M 94.095313 243.068893 
L 596.295313 243.068893 
" clip-path="url(#pef5d2add58)" style="fill: none; stroke-dasharray: 1.85,0.8; stroke-dashoffset: 0; stroke: #b0b0b0; stroke-width: 0.5"/>
     </g>
     <g id="line2d_100">
      <g>
       <use xlink:href="#m37ba50282b" x="94.095313" y="243.068893" style="stroke: #000000; stroke-width: 0.6"/>
      </g>
     </g>
    </g>
    <g id="ytick_31">
     <g id="line2d_101">
      <path d="M 94.095313 237.248804 
L 596.295313 237.248804 
" clip-path="url(#pef5d2add58)" style="fill: none; stroke-dasharray: 1.85,0.8; stroke-dashoffset: 0; stroke: #b0b0b0; stroke-width: 0.5"/>
     </g>
     <g id="line2d_102">
      <g>
       <use xlink:href="#m37ba50282b" x="94.095313" y="237.248804" style="stroke: #000000; stroke-width: 0.6"/>
      </g>
     </g>
    </g>
    <g id="ytick_32">
     <g id="line2d_103">
      <path d="M 94.095313 232.493444 
L 596.295313 232.493444 
" clip-path="url(#pef5d2add58)" style="fill: none; stroke-dasharray: 1.85,0.8; stroke-dashoffset: 0; stroke: #b0b0b0; stroke-width: 0.5"/>
     </g>
     <g id="line2d_104">
      <g>
       <use xlink:href="#m37ba50282b" x="94.095313" y="232.493444" style="stroke: #000000; stroke-width: 0.6"/>
      </g>
     </g>
    </g>
    <g id="ytick_33">
     <g id="line2d_105">
      <path d="M 94.095313 228.472845 
L 596.295313 228.472845 
" clip-path="url(#pef5d2add58)" style="fill: none; stroke-dasharray: 1.85,0.8; stroke-dashoffset: 0; stroke: #b0b0b0; stroke-width: 0.5"/>
     </g>
     <g id="line2d_106">
      <g>
       <use xlink:href="#m37ba50282b" x="94.095313" y="228.472845" style="stroke: #000000; stroke-width: 0.6"/>
      </g>
     </g>
    </g>
    <g id="ytick_34">
     <g id="line2d_107">
      <path d="M 94.095313 224.990044 
L 596.295313 224.990044 
" clip-path="url(#pef5d2add58)" style="fill: none; stroke-dasharray: 1.85,0.8; stroke-dashoffset: 0; stroke: #b0b0b0; stroke-width: 0.5"/>
     </g>
     <g id="line2d_108">
      <g>
       <use xlink:href="#m37ba50282b" x="94.095313" y="224.990044" style="stroke: #000000; stroke-width: 0.6"/>
      </g>
     </g>
    </g>
    <g id="ytick_35">
     <g id="line2d_109">
      <path d="M 94.095313 221.917995 
L 596.295313 221.917995 
" clip-path="url(#pef5d2add58)" style="fill: none; stroke-dasharray: 1.85,0.8; stroke-dashoffset: 0; stroke: #b0b0b0; stroke-width: 0.5"/>
     </g>
     <g id="line2d_110">
      <g>
       <use xlink:href="#m37ba50282b" x="94.095313" y="221.917995" style="stroke: #000000; stroke-width: 0.6"/>
      </g>
     </g>
    </g>
    <g id="ytick_36">
     <g id="line2d_111">
      <path d="M 94.095313 201.091105 
L 596.295313 201.091105 
" clip-path="url(#pef5d2add58)" style="fill: none; stroke-dasharray: 1.85,0.8; stroke-dashoffset: 0; stroke: #b0b0b0; stroke-width: 0.5"/>
     </g>
     <g id="line2d_112">
      <g>
       <use xlink:href="#m37ba50282b" x="94.095313" y="201.091105" style="stroke: #000000; stroke-width: 0.6"/>
      </g>
     </g>
    </g>
    <g id="ytick_37">
     <g id="line2d_113">
      <path d="M 94.095313 190.515656 
L 596.295313 190.515656 
" clip-path="url(#pef5d2add58)" style="fill: none; stroke-dasharray: 1.85,0.8; stroke-dashoffset: 0; stroke: #b0b0b0; stroke-width: 0.5"/>
     </g>
     <g id="line2d_114">
      <g>
       <use xlink:href="#m37ba50282b" x="94.095313" y="190.515656" style="stroke: #000000; stroke-width: 0.6"/>
      </g>
     </g>
    </g>
    <g id="ytick_38">
     <g id="line2d_115">
      <path d="M 94.095313 183.012256 
L 596.295313 183.012256 
" clip-path="url(#pef5d2add58)" style="fill: none; stroke-dasharray: 1.85,0.8; stroke-dashoffset: 0; stroke: #b0b0b0; stroke-width: 0.5"/>
     </g>
     <g id="line2d_116">
      <g>
       <use xlink:href="#m37ba50282b" x="94.095313" y="183.012256" style="stroke: #000000; stroke-width: 0.6"/>
      </g>
     </g>
    </g>
    <g id="ytick_39">
     <g id="line2d_117">
      <path d="M 94.095313 177.192166 
L 596.295313 177.192166 
" clip-path="url(#pef5d2add58)" style="fill: none; stroke-dasharray: 1.85,0.8; stroke-dashoffset: 0; stroke: #b0b0b0; stroke-width: 0.5"/>
     </g>
     <g id="line2d_118">
      <g>
       <use xlink:href="#m37ba50282b" x="94.095313" y="177.192166" style="stroke: #000000; stroke-width: 0.6"/>
      </g>
     </g>
    </g>
    <g id="ytick_40">
     <g id="line2d_119">
      <path d="M 94.095313 172.436807 
L 596.295313 172.436807 
" clip-path="url(#pef5d2add58)" style="fill: none; stroke-dasharray: 1.85,0.8; stroke-dashoffset: 0; stroke: #b0b0b0; stroke-width: 0.5"/>
     </g>
     <g id="line2d_120">
      <g>
       <use xlink:href="#m37ba50282b" x="94.095313" y="172.436807" style="stroke: #000000; stroke-width: 0.6"/>
      </g>
     </g>
    </g>
    <g id="ytick_41">
     <g id="line2d_121">
      <path d="M 94.095313 168.416208 
L 596.295313 168.416208 
" clip-path="url(#pef5d2add58)" style="fill: none; stroke-dasharray: 1.85,0.8; stroke-dashoffset: 0; stroke: #b0b0b0; stroke-width: 0.5"/>
     </g>
     <g id="line2d_122">
      <g>
       <use xlink:href="#m37ba50282b" x="94.095313" y="168.416208" style="stroke: #000000; stroke-width: 0.6"/>
      </g>
     </g>
    </g>
    <g id="ytick_42">
     <g id="line2d_123">
      <path d="M 94.095313 164.933407 
L 596.295313 164.933407 
" clip-path="url(#pef5d2add58)" style="fill: none; stroke-dasharray: 1.85,0.8; stroke-dashoffset: 0; stroke: #b0b0b0; stroke-width: 0.5"/>
     </g>
     <g id="line2d_124">
      <g>
       <use xlink:href="#m37ba50282b" x="94.095313" y="164.933407" style="stroke: #000000; stroke-width: 0.6"/>
      </g>
     </g>
    </g>
    <g id="ytick_43">
     <g id="line2d_125">
      <path d="M 94.095313 161.861358 
L 596.295313 161.861358 
" clip-path="url(#pef5d2add58)" style="fill: none; stroke-dasharray: 1.85,0.8; stroke-dashoffset: 0; stroke: #b0b0b0; stroke-width: 0.5"/>
     </g>
     <g id="line2d_126">
      <g>
       <use xlink:href="#m37ba50282b" x="94.095313" y="161.861358" style="stroke: #000000; stroke-width: 0.6"/>
      </g>
     </g>
    </g>
    <g id="ytick_44">
     <g id="line2d_127">
      <path d="M 94.095313 141.034468 
L 596.295313 141.034468 
" clip-path="url(#pef5d2add58)" style="fill: none; stroke-dasharray: 1.85,0.8; stroke-dashoffset: 0; stroke: #b0b0b0; stroke-width: 0.5"/>
     </g>
     <g id="line2d_128">
      <g>
       <use xlink:href="#m37ba50282b" x="94.095313" y="141.034468" style="stroke: #000000; stroke-width: 0.6"/>
      </g>
     </g>
    </g>
    <g id="ytick_45">
     <g id="line2d_129">
      <path d="M 94.095313 130.459019 
L 596.295313 130.459019 
" clip-path="url(#pef5d2add58)" style="fill: none; stroke-dasharray: 1.85,0.8; stroke-dashoffset: 0; stroke: #b0b0b0; stroke-width: 0.5"/>
     </g>
     <g id="line2d_130">
      <g>
       <use xlink:href="#m37ba50282b" x="94.095313" y="130.459019" style="stroke: #000000; stroke-width: 0.6"/>
      </g>
     </g>
    </g>
    <g id="ytick_46">
     <g id="line2d_131">
      <path d="M 94.095313 122.955618 
L 596.295313 122.955618 
" clip-path="url(#pef5d2add58)" style="fill: none; stroke-dasharray: 1.85,0.8; stroke-dashoffset: 0; stroke: #b0b0b0; stroke-width: 0.5"/>
     </g>
     <g id="line2d_132">
      <g>
       <use xlink:href="#m37ba50282b" x="94.095313" y="122.955618" style="stroke: #000000; stroke-width: 0.6"/>
      </g>
     </g>
    </g>
    <g id="ytick_47">
     <g id="line2d_133">
      <path d="M 94.095313 117.135529 
L 596.295313 117.135529 
" clip-path="url(#pef5d2add58)" style="fill: none; stroke-dasharray: 1.85,0.8; stroke-dashoffset: 0; stroke: #b0b0b0; stroke-width: 0.5"/>
     </g>
     <g id="line2d_134">
      <g>
       <use xlink:href="#m37ba50282b" x="94.095313" y="117.135529" style="stroke: #000000; stroke-width: 0.6"/>
      </g>
     </g>
    </g>
    <g id="ytick_48">
     <g id="line2d_135">
      <path d="M 94.095313 112.380169 
L 596.295313 112.380169 
" clip-path="url(#pef5d2add58)" style="fill: none; stroke-dasharray: 1.85,0.8; stroke-dashoffset: 0; stroke: #b0b0b0; stroke-width: 0.5"/>
     </g>
     <g id="line2d_136">
      <g>
       <use xlink:href="#m37ba50282b" x="94.095313" y="112.380169" style="stroke: #000000; stroke-width: 0.6"/>
      </g>
     </g>
    </g>
    <g id="ytick_49">
     <g id="line2d_137">
      <path d="M 94.095313 108.35957 
L 596.295313 108.35957 
" clip-path="url(#pef5d2add58)" style="fill: none; stroke-dasharray: 1.85,0.8; stroke-dashoffset: 0; stroke: #b0b0b0; stroke-width: 0.5"/>
     </g>
     <g id="line2d_138">
      <g>
       <use xlink:href="#m37ba50282b" x="94.095313" y="108.35957" style="stroke: #000000; stroke-width: 0.6"/>
      </g>
     </g>
    </g>
    <g id="ytick_50">
     <g id="line2d_139">
      <path d="M 94.095313 104.876769 
L 596.295313 104.876769 
" clip-path="url(#pef5d2add58)" style="fill: none; stroke-dasharray: 1.85,0.8; stroke-dashoffset: 0; stroke: #b0b0b0; stroke-width: 0.5"/>
     </g>
     <g id="line2d_140">
      <g>
       <use xlink:href="#m37ba50282b" x="94.095313" y="104.876769" style="stroke: #000000; stroke-width: 0.6"/>
      </g>
     </g>
    </g>
    <g id="ytick_51">
     <g id="line2d_141">
      <path d="M 94.095313 101.804721 
L 596.295313 101.804721 
" clip-path="url(#pef5d2add58)" style="fill: none; stroke-dasharray: 1.85,0.8; stroke-dashoffset: 0; stroke: #b0b0b0; stroke-width: 0.5"/>
     </g>
     <g id="line2d_142">
      <g>
       <use xlink:href="#m37ba50282b" x="94.095313" y="101.804721" style="stroke: #000000; stroke-width: 0.6"/>
      </g>
     </g>
    </g>
    <g id="ytick_52">
     <g id="line2d_143">
      <path d="M 94.095313 80.97783 
L 596.295313 80.97783 
" clip-path="url(#pef5d2add58)" style="fill: none; stroke-dasharray: 1.85,0.8; stroke-dashoffset: 0; stroke: #b0b0b0; stroke-width: 0.5"/>
     </g>
     <g id="line2d_144">
      <g>
       <use xlink:href="#m37ba50282b" x="94.095313" y="80.97783" style="stroke: #000000; stroke-width: 0.6"/>
      </g>
     </g>
    </g>
    <g id="ytick_53">
     <g id="line2d_145">
      <path d="M 94.095313 70.402381 
L 596.295313 70.402381 
" clip-path="url(#pef5d2add58)" style="fill: none; stroke-dasharray: 1.85,0.8; stroke-dashoffset: 0; stroke: #b0b0b0; stroke-width: 0.5"/>
     </g>
     <g id="line2d_146">
      <g>
       <use xlink:href="#m37ba50282b" x="94.095313" y="70.402381" style="stroke: #000000; stroke-width: 0.6"/>
      </g>
     </g>
    </g>
    <g id="ytick_54">
     <g id="line2d_147">
      <path d="M 94.095313 62.898981 
L 596.295313 62.898981 
" clip-path="url(#pef5d2add58)" style="fill: none; stroke-dasharray: 1.85,0.8; stroke-dashoffset: 0; stroke: #b0b0b0; stroke-width: 0.5"/>
     </g>
     <g id="line2d_148">
      <g>
       <use xlink:href="#m37ba50282b" x="94.095313" y="62.898981" style="stroke: #000000; stroke-width: 0.6"/>
      </g>
     </g>
    </g>
    <g id="ytick_55">
     <g id="line2d_149">
      <path d="M 94.095313 57.078891 
L 596.295313 57.078891 
" clip-path="url(#pef5d2add58)" style="fill: none; stroke-dasharray: 1.85,0.8; stroke-dashoffset: 0; stroke: #b0b0b0; stroke-width: 0.5"/>
     </g>
     <g id="line2d_150">
      <g>
       <use xlink:href="#m37ba50282b" x="94.095313" y="57.078891" style="stroke: #000000; stroke-width: 0.6"/>
      </g>
     </g>
    </g>
    <g id="ytick_56">
     <g id="line2d_151">
      <path d="M 94.095313 52.323532 
L 596.295313 52.323532 
" clip-path="url(#pef5d2add58)" style="fill: none; stroke-dasharray: 1.85,0.8; stroke-dashoffset: 0; stroke: #b0b0b0; stroke-width: 0.5"/>
     </g>
     <g id="line2d_152">
      <g>
       <use xlink:href="#m37ba50282b" x="94.095313" y="52.323532" style="stroke: #000000; stroke-width: 0.6"/>
      </g>
     </g>
    </g>
    <g id="ytick_57">
     <g id="line2d_153">
      <path d="M 94.095313 48.302933 
L 596.295313 48.302933 
" clip-path="url(#pef5d2add58)" style="fill: none; stroke-dasharray: 1.85,0.8; stroke-dashoffset: 0; stroke: #b0b0b0; stroke-width: 0.5"/>
     </g>
     <g id="line2d_154">
      <g>
       <use xlink:href="#m37ba50282b" x="94.095313" y="48.302933" style="stroke: #000000; stroke-width: 0.6"/>
      </g>
     </g>
    </g>
    <g id="ytick_58">
     <g id="line2d_155">
      <path d="M 94.095313 44.820132 
L 596.295313 44.820132 
" clip-path="url(#pef5d2add58)" style="fill: none; stroke-dasharray: 1.85,0.8; stroke-dashoffset: 0; stroke: #b0b0b0; stroke-width: 0.5"/>
     </g>
     <g id="line2d_156">
      <g>
       <use xlink:href="#m37ba50282b" x="94.095313" y="44.820132" style="stroke: #000000; stroke-width: 0.6"/>
      </g>
     </g>
    </g>
    <g id="ytick_59">
     <g id="line2d_157">
      <path d="M 94.095313 41.748083 
L 596.295313 41.748083 
" clip-path="url(#pef5d2add58)" style="fill: none; stroke-dasharray: 1.85,0.8; stroke-dashoffset: 0; stroke: #b0b0b0; stroke-width: 0.5"/>
     </g>
     <g id="line2d_158">
      <g>
       <use xlink:href="#m37ba50282b" x="94.095313" y="41.748083" style="stroke: #000000; stroke-width: 0.6"/>
      </g>
     </g>
    </g>
    <g id="ytick_60">
     <g id="line2d_159">
      <path d="M 94.095313 20.921193 
L 596.295313 20.921193 
" clip-path="url(#pef5d2add58)" style="fill: none; stroke-dasharray: 1.85,0.8; stroke-dashoffset: 0; stroke: #b0b0b0; stroke-width: 0.5"/>
     </g>
     <g id="line2d_160">
      <g>
       <use xlink:href="#m37ba50282b" x="94.095313" y="20.921193" style="stroke: #000000; stroke-width: 0.6"/>
      </g>
     </g>
    </g>
    <g id="ytick_61">
     <g id="line2d_161">
      <path d="M 94.095313 10.345744 
L 596.295313 10.345744 
" clip-path="url(#pef5d2add58)" style="fill: none; stroke-dasharray: 1.85,0.8; stroke-dashoffset: 0; stroke: #b0b0b0; stroke-width: 0.5"/>
     </g>
     <g id="line2d_162">
      <g>
       <use xlink:href="#m37ba50282b" x="94.095313" y="10.345744" style="stroke: #000000; stroke-width: 0.6"/>
      </g>
     </g>
    </g>
    <g id="text_11">
     <!-- Max abs error / mM -->
     <g transform="translate(26.196094 332.589531) rotate(-90) scale(0.25 -0.25)">
      <defs>
       <path id="DejaVuSans-4d" d="M 628 4666 
L 1569 4666 
L 2759 1491 
L 3956 4666 
L 4897 4666 
L 4897 0 
L 4281 0 
L 4281 4097 
L 3078 897 
L 2444 897 
L 1241 4097 
L 1241 0 
L 628 0 
L 628 4666 
z
" transform="scale(0.015625)"/>
       <path id="DejaVuSans-61" d="M 2194 1759 
Q 1497 1759 1228 1600 
Q 959 1441 959 1056 
Q 959 750 1161 570 
Q 1363 391 1709 391 
Q 2188 391 2477 730 
Q 2766 1069 2766 1631 
L 2766 1759 
L 2194 1759 
z
M 3341 1997 
L 3341 0 
L 2766 0 
L 2766 531 
Q 2569 213 2275 61 
Q 1981 -91 1556 -91 
Q 1019 -91 701 211 
Q 384 513 384 1019 
Q 384 1609 779 1909 
Q 1175 2209 1959 2209 
L 2766 2209 
L 2766 2266 
Q 2766 2663 2505 2880 
Q 2244 3097 1772 3097 
Q 1472 3097 1187 3025 
Q 903 2953 641 2809 
L 641 3341 
Q 956 3463 1253 3523 
Q 1550 3584 1831 3584 
Q 2591 3584 2966 3190 
Q 3341 2797 3341 1997 
z
" transform="scale(0.015625)"/>
       <path id="DejaVuSans-78" d="M 3513 3500 
L 2247 1797 
L 3578 0 
L 2900 0 
L 1881 1375 
L 863 0 
L 184 0 
L 1544 1831 
L 300 3500 
L 978 3500 
L 1906 2253 
L 2834 3500 
L 3513 3500 
z
" transform="scale(0.015625)"/>
       <path id="DejaVuSans-62" d="M 3116 1747 
Q 3116 2381 2855 2742 
Q 2594 3103 2138 3103 
Q 1681 3103 1420 2742 
Q 1159 2381 1159 1747 
Q 1159 1113 1420 752 
Q 1681 391 2138 391 
Q 2594 391 2855 752 
Q 3116 1113 3116 1747 
z
M 1159 2969 
Q 1341 3281 1617 3432 
Q 1894 3584 2278 3584 
Q 2916 3584 3314 3078 
Q 3713 2572 3713 1747 
Q 3713 922 3314 415 
Q 2916 -91 2278 -91 
Q 1894 -91 1617 61 
Q 1341 213 1159 525 
L 1159 0 
L 581 0 
L 581 4863 
L 1159 4863 
L 1159 2969 
z
" transform="scale(0.015625)"/>
       <path id="DejaVuSans-72" d="M 2631 2963 
Q 2534 3019 2420 3045 
Q 2306 3072 2169 3072 
Q 1681 3072 1420 2755 
Q 1159 2438 1159 1844 
L 1159 0 
L 581 0 
L 581 3500 
L 1159 3500 
L 1159 2956 
Q 1341 3275 1631 3429 
Q 1922 3584 2338 3584 
Q 2397 3584 2469 3576 
Q 2541 3569 2628 3553 
L 2631 2963 
z
" transform="scale(0.015625)"/>
      </defs>
      <use xlink:href="#DejaVuSans-4d"/>
      <use xlink:href="#DejaVuSans-61" x="86.279297"/>
      <use xlink:href="#DejaVuSans-78" x="147.558594"/>
      <use xlink:href="#DejaVuSans-20" x="206.738281"/>
      <use xlink:href="#DejaVuSans-61" x="238.525391"/>
      <use xlink:href="#DejaVuSans-62" x="299.804688"/>
      <use xlink:href="#DejaVuSans-73" x="363.28125"/>
      <use xlink:href="#DejaVuSans-20" x="415.380859"/>
      <use xlink:href="#DejaVuSans-65" x="447.167969"/>
      <use xlink:href="#DejaVuSans-72" x="508.691406"/>
      <use xlink:href="#DejaVuSans-72" x="548.054688"/>
      <use xlink:href="#DejaVuSans-6f" x="586.917969"/>
      <use xlink:href="#DejaVuSans-72" x="648.099609"/>
      <use xlink:href="#DejaVuSans-20" x="689.212891"/>
      <use xlink:href="#DejaVuSans-2f" x="721"/>
      <use xlink:href="#DejaVuSans-20" x="754.691406"/>
      <use xlink:href="#DejaVuSans-6d" x="786.478516"/>
      <use xlink:href="#DejaVuSans-4d" x="883.890625"/>
     </g>
    </g>
   </g>
   <g id="line2d_163">
    <path d="M 167.296918 140.604561 
L 179.029091 139.342089 
L 189.14948 141.573561 
L 198.276723 145.311946 
L 206.608796 148.437769 
L 214.27594 150.54099 
L 221.283616 154.2269 
L 227.760536 158.742279 
L 233.862297 163.513469 
L 245.16844 170.626674 
L 250.28311 174.103511 
L 255.147462 177.889055 
L 259.650519 181.923074 
L 264.030585 186.121818 
L 272.105116 194.689875 
L 282.97819 207.289521 
L 289.626288 215.513751 
L 298.734175 227.931867 
L 304.217155 236.260816 
L 309.593221 244.551859 
L 314.794412 252.715598 
L 317.392578 256.732547 
L 325.454295 263.899498 
L 329.578179 270.333517 
L 333.541772 276.164811 
L 337.432995 281.337019 
L 341.147644 285.815761 
L 344.88409 289.593653 
L 346.662309 291.225232 
L 350.190973 294.007049 
L 353.580501 296.207458 
L 355.205393 295.264156 
L 358.525364 293.774794 
L 361.680984 292.754208 
L 364.727568 292.044283 
L 366.366677 291.773195 
L 378.381557 290.694083 
L 386.00679 290.453077 
L 397.803411 290.343596 
L 425.858003 290.311854 
L 270.834223 140.59456 
L 288.024479 139.353079 
L 298.59176 141.555329 
L 309.929397 145.290036 
L 318.003281 148.328621 
L 325.641041 150.424771 
L 334.021278 154.097225 
L 341.681848 158.590286 
L 347.629679 163.331755 
L 353.234886 167.28497 
L 358.812982 170.556968 
L 363.823921 174.023451 
L 368.865409 177.805826 
L 375.234966 181.841087 
L 379.258559 186.041771 
L 383.07155 190.320794 
L 387.774001 194.598896 
L 394.487713 203.046791 
L 398.372063 207.191759 
L 401.332389 211.311372 
L 404.135622 215.431223 
L 407.63465 219.572462 
L 410.213203 223.747843 
L 413.484466 227.961219 
L 420.772988 240.775181 
L 423.118063 245.074166 
L 426.06732 249.373667 
L 428.242284 253.669494 
L 431.054702 257.960243 
L 433.212462 262.246667 
L 435.766386 266.530752 
L 441.581708 279.389931 
L 443.518686 283.682372 
L 445.79989 287.977564 
L 447.568184 292.274327 
L 449.792546 296.571164 
L 453.247141 305.158945 
L 455.360309 309.447217 
L 458.566721 317.793156 
L 460.519995 321.90915 
L 463.6589 330.038715 
L 466.874934 337.993721 
L 468.759962 341.889241 
L 470.250253 345.719792 
L 472.13693 349.476592 
L 475.117347 356.729817 
L 476.803352 360.205017 
L 478.161924 363.564403 
L 479.83373 366.796674 
L 482.373571 372.836456 
L 483.931474 375.6243 
L 485.122868 378.246487 
L 486.367877 380.696968 
L 487.824646 382.971797 
L 490.171078 386.990309 
L 491.592297 388.737826 
L 493.748584 391.735507 
L 495.094281 393.001643 
L 496.119517 394.125539 
L 497.176989 395.117938 
L 499.44792 396.752969 
L 501.621278 396.873433 
L 519.346066 396.819545 
L 532.4808 396.81688 
L 223.416723 140.604547 
L 235.125061 139.34208 
L 244.531465 141.573567 
L 254.268097 145.311935 
L 263.093114 148.437782 
L 270.418951 150.541004 
L 277.018323 154.226921 
L 283.572475 158.7423 
L 289.326209 163.513489 
L 294.843875 167.259918 
L 300.046069 170.626645 
L 304.871955 174.103426 
L 309.370421 177.88892 
L 313.909697 181.922893 
L 318.069058 186.121588 
L 326.013389 194.689536 
L 333.231517 203.140898 
L 343.095411 215.512986 
L 346.144557 219.631415 
L 354.712173 232.095308 
L 362.693344 244.55355 
L 369.925386 256.735232 
L 372.202682 260.481813 
L 382.940006 276.164893 
L 388.797433 283.664747 
L 392.548051 287.791769 
L 394.305319 289.593759 
L 397.876397 292.693815 
L 399.586122 294.007182 
L 403.093156 296.207606 
L 406.366269 294.447995 
L 407.959717 293.775146 
L 411.201276 292.754547 
L 414.321827 292.044613 
L 417.298412 291.545844 
L 421.674408 291.05709 
L 427.300014 290.694398 
L 435.069088 290.453389 
L 446.394484 290.343907 
L 472.147011 290.312205 
L 472.147011 290.312205 
" clip-path="url(#pef5d2add58)" style="fill: none; stroke-dasharray: 7.4,3.2; stroke-dashoffset: 0; stroke: #ff7f0e; stroke-width: 2"/>
   </g>
   <g id="line2d_164">
    <path d="M 116.922585 25.759186 
L 132.368538 33.050042 
L 144.763784 47.420463 
L 155.867066 54.285031 
L 165.117021 59.477682 
L 173.109752 72.005991 
L 180.307639 78.808313 
L 186.699714 89.752332 
L 192.389215 93.025705 
L 197.702761 111.128362 
L 202.781491 118.844458 
L 207.259095 130.737638 
L 211.526705 138.858051 
L 215.889849 135.92753 
L 220.037273 138.211642 
L 224.234655 144.611864 
L 230.325291 151.331946 
L 235.695766 155.884999 
L 239.593537 159.96163 
L 243.206571 164.443077 
L 246.537456 169.583954 
L 250.582649 175.166042 
L 254.157576 180.781999 
L 257.266668 184.832225 
L 260.210988 189.126743 
L 263.022915 193.803282 
L 271.036557 208.181016 
L 273.340593 212.56763 
L 278.07882 220.888781 
L 282.355665 229.023648 
L 284.337702 233.057037 
L 288.495856 240.985666 
L 290.387038 244.841674 
L 294.169513 252.223209 
L 295.94751 255.703205 
L 301.286625 265.103232 
L 302.938555 267.85845 
L 307.795363 274.925542 
L 310.930539 278.640036 
L 314.047249 281.607221 
L 317.060754 283.912209 
L 318.446357 284.849135 
L 321.325177 286.360801 
L 324.090083 287.476796 
L 326.738601 288.28981 
L 329.31222 288.876112 
L 332.976036 289.457785 
L 338.318962 289.887363 
L 345.201864 290.164058 
L 354.719499 290.281505 
L 381.028774 290.311375 
L 164.40828 25.756371 
L 185.71981 33.052076 
L 201.92176 47.391549 
L 216.544204 54.276791 
L 228.070383 59.468467 
L 238.115097 71.998433 
L 246.789621 78.800283 
L 254.400544 89.731532 
L 261.454461 92.959804 
L 267.791572 111.012033 
L 273.456962 118.882853 
L 278.790265 130.686309 
L 283.947921 138.859377 
L 288.715504 135.963237 
L 293.360816 138.237334 
L 297.773654 144.629969 
L 301.995468 151.331042 
L 306.023842 155.862117 
L 309.887443 159.935087 
L 313.593688 164.414039 
L 317.160429 169.552596 
L 320.581988 175.134655 
L 323.802423 180.754595 
L 326.912789 185.053467 
L 329.929984 189.542134 
L 332.855014 194.458119 
L 338.3672 204.472957 
L 343.622474 213.407586 
L 346.128456 217.940172 
L 352.977612 231.625772 
L 357.280278 240.656548 
L 361.358041 249.82911 
L 365.300054 259.056769 
L 370.890394 272.840223 
L 376.15135 286.504128 
L 382.708672 304.565766 
L 390.2915 326.619237 
L 399.967927 355.032971 
L 401.520959 358.681702 
L 405.344983 368.722307 
L 407.859663 374.536953 
L 410.272911 379.564181 
L 412.594732 383.779147 
L 414.919311 387.206141 
L 416.044771 388.643854 
L 418.325832 391.02536 
L 420.542232 392.837382 
L 422.759724 394.188769 
L 424.926164 395.181479 
L 427.014096 395.901438 
L 429.082714 396.418892 
L 431.155985 396.788562 
L 439.817135 396.813273 
L 452.913999 396.816498 
L 150.259808 25.759155 
L 165.586467 33.050035 
L 178.268527 47.420468 
L 189.126888 54.285022 
L 198.58272 59.47769 
L 206.608796 72.005988 
L 213.966895 78.808271 
L 220.406562 89.752262 
L 226.285453 93.025644 
L 231.694371 111.12828 
L 236.706066 118.844518 
L 241.392537 130.737646 
L 245.837348 138.858121 
L 250.13297 135.927554 
L 254.190746 138.211668 
L 258.508578 144.611891 
L 262.095226 151.332054 
L 266.07129 155.885106 
L 273.161273 164.443207 
L 279.938796 175.166246 
L 282.970133 180.782253 
L 286.269723 184.831562 
L 292.188765 193.803304 
L 294.893368 198.69703 
L 300.824224 208.181043 
L 305.992563 216.774797 
L 315.524222 233.05708 
L 320.111715 240.985722 
L 322.109532 244.841737 
L 324.31035 248.595522 
L 326.224045 252.223289 
L 328.3287 255.703294 
L 330.15577 259.017952 
L 335.932443 267.858586 
L 337.755763 270.415507 
L 341.360005 274.925715 
L 344.769746 278.640234 
L 346.486042 280.212635 
L 349.770354 282.836374 
L 352.940265 284.849383 
L 356.061248 286.361065 
L 359.029848 287.47707 
L 361.941899 288.290093 
L 366.101999 289.103881 
L 371.340102 289.709628 
L 377.558746 290.061548 
L 385.504088 290.239089 
L 400.487816 290.306763 
L 414.773621 290.31164 
L 414.773621 290.31164 
" clip-path="url(#pef5d2add58)" style="fill: none; stroke: #ff7f0e; stroke-width: 2; stroke-linecap: square"/>
   </g>
   <g id="line2d_165">
    <path d="M 270.834223 140.59456 
L 288.024479 139.353079 
L 298.59176 141.555329 
L 309.929397 145.290036 
L 318.003281 148.328621 
L 325.641041 150.424771 
L 334.021278 154.097225 
L 341.681848 158.590286 
L 347.629679 163.331755 
L 353.234886 167.28497 
L 358.812982 170.556968 
L 363.823921 174.023451 
L 368.865409 177.805826 
L 375.234966 181.841087 
L 379.258559 186.041771 
L 383.07155 190.320794 
L 387.774001 194.598896 
L 394.487713 203.046791 
L 398.372063 207.191759 
L 401.332389 211.311372 
L 404.135622 215.431223 
L 407.63465 219.572462 
L 410.213203 223.747843 
L 413.484466 227.961219 
L 420.772988 240.775181 
L 423.118063 245.074166 
L 426.06732 249.373667 
L 428.242284 253.669494 
L 431.054702 257.960243 
L 433.212462 262.246667 
L 435.766386 266.530752 
L 441.581708 279.389931 
L 443.518686 283.682372 
L 445.79989 287.977564 
L 447.568184 292.274327 
L 449.792546 296.571164 
L 453.247141 305.158945 
L 455.360309 309.447217 
L 458.566721 317.793156 
L 460.519995 321.90915 
L 463.6589 330.038715 
L 466.874934 337.993721 
L 468.759962 341.889241 
L 470.250253 345.719792 
L 472.13693 349.476592 
L 475.117347 356.729817 
L 476.803352 360.205017 
L 478.161924 363.564403 
L 479.83373 366.796674 
L 482.373571 372.836456 
L 483.931474 375.6243 
L 485.122868 378.246487 
L 486.367877 380.696968 
L 487.824646 382.971797 
L 490.171078 386.990309 
L 491.592297 388.737826 
L 493.748584 391.735507 
L 495.094281 393.001643 
L 496.119517 394.125539 
L 497.176989 395.117938 
L 499.44792 396.752969 
L 501.621278 396.873433 
L 519.346066 396.819545 
L 532.4808 396.81688 
L 223.416723 140.604547 
L 235.125061 139.34208 
L 244.531465 141.573567 
L 254.268097 145.311935 
L 263.093114 148.437782 
L 270.418951 150.541004 
L 277.018323 154.226921 
L 283.572475 158.7423 
L 289.326209 163.513489 
L 294.843875 167.259918 
L 300.046069 170.626645 
L 304.871955 174.103426 
L 309.370421 177.88892 
L 313.909697 181.922893 
L 318.069058 186.121588 
L 326.013389 194.689536 
L 333.231517 203.140898 
L 343.095411 215.512986 
L 346.144557 219.631415 
L 354.712173 232.095308 
L 362.693344 244.55355 
L 369.925386 256.735232 
L 372.202682 260.481813 
L 382.940006 276.164893 
L 388.797433 283.664747 
L 392.548051 287.791769 
L 394.305319 289.593759 
L 397.876397 292.693815 
L 399.586122 294.007182 
L 403.093156 296.207606 
L 406.366269 294.447995 
L 407.959717 293.775146 
L 411.201276 292.754547 
L 414.321827 292.044613 
L 417.298412 291.545844 
L 421.674408 291.05709 
L 427.300014 290.694398 
L 435.069088 290.453389 
L 446.394484 290.343907 
L 472.93397 290.312164 
L 313.921168 140.594547 
L 325.756934 139.353072 
L 337.89689 141.555334 
L 346.981921 145.290027 
L 355.470989 148.32863 
L 363.312066 150.424782 
L 370.813692 154.097237 
L 379.437417 158.590303 
L 385.438768 163.331772 
L 402.886243 174.023389 
L 412.128065 181.840945 
L 421.119794 190.32056 
L 426.063975 194.598918 
L 429.8529 198.790124 
L 434.101878 203.046397 
L 441.183083 211.310836 
L 451.376786 223.746929 
L 454.224584 227.960121 
L 457.306936 232.207872 
L 459.833548 236.482189 
L 462.785992 240.773271 
L 467.512575 249.370946 
L 470.226575 253.666248 
L 474.551606 262.242037 
L 477.054917 266.525212 
L 481.043053 275.092867 
L 483.36286 279.380381 
L 487.077361 287.963858 
L 489.234237 292.257957 
L 493.102241 300.843351 
L 495.271953 305.131498 
L 498.948393 313.650225 
L 500.989757 317.793764 
L 502.717984 321.909859 
L 504.62592 325.993601 
L 506.274606 330.039677 
L 508.067363 334.042287 
L 511.031606 341.890747 
L 512.710678 345.721532 
L 514.077403 349.4786 
L 515.643587 353.152351 
L 517.019637 356.732464 
L 518.558816 360.208038 
L 519.853017 363.567837 
L 521.351861 366.800558 
L 522.639639 369.895184 
L 524.080542 372.841349 
L 525.294569 375.629744 
L 526.708204 378.252494 
L 527.853474 380.703564 
L 529.099433 382.979005 
L 532.976128 388.74681 
L 534.060945 390.326692 
L 535.267616 391.745568 
L 538.972714 395.129391 
L 541.418867 396.765168 
L 573.46804 396.69444 
L 573.46804 396.69444 
" clip-path="url(#pef5d2add58)" style="fill: none; stroke-dasharray: 7.4,3.2; stroke-dashoffset: 0; stroke: #d62728; stroke-width: 2"/>
   </g>
   <g id="line2d_166">
    <path d="M 164.40828 25.756371 
L 185.71981 33.052076 
L 201.92176 47.391549 
L 216.544204 54.276791 
L 228.070383 59.468467 
L 238.115097 71.998433 
L 246.789621 78.800283 
L 254.400544 89.731532 
L 261.454461 92.959804 
L 267.791572 111.012033 
L 273.456962 118.882853 
L 278.790265 130.686309 
L 283.947921 138.859377 
L 288.715504 135.963237 
L 293.360816 138.237334 
L 297.773654 144.629969 
L 301.995468 151.331042 
L 306.023842 155.862117 
L 309.887443 159.935087 
L 313.593688 164.414039 
L 317.160429 169.552596 
L 320.581988 175.134655 
L 323.802423 180.754595 
L 326.912789 185.053467 
L 329.929984 189.542134 
L 332.855014 194.458119 
L 338.3672 204.472957 
L 343.622474 213.407586 
L 346.128456 217.940172 
L 352.977612 231.625772 
L 357.280278 240.656548 
L 361.358041 249.82911 
L 365.300054 259.056769 
L 370.890394 272.840223 
L 376.15135 286.504128 
L 382.708672 304.565766 
L 390.2915 326.619237 
L 399.967927 355.032971 
L 401.520959 358.681702 
L 405.344983 368.722307 
L 407.859663 374.536953 
L 410.272911 379.564181 
L 412.594732 383.779147 
L 414.919311 387.206141 
L 416.044771 388.643854 
L 418.325832 391.02536 
L 420.542232 392.837382 
L 422.759724 394.188769 
L 424.926164 395.181479 
L 427.014096 395.901438 
L 429.082714 396.418892 
L 431.155985 396.788562 
L 439.817135 396.813273 
L 452.913999 396.816498 
L 150.259808 25.759155 
L 165.586467 33.050035 
L 178.268527 47.420468 
L 189.126888 54.285022 
L 198.58272 59.47769 
L 206.608796 72.005988 
L 213.966895 78.808271 
L 220.406562 89.752262 
L 226.285453 93.025644 
L 231.694371 111.12828 
L 236.706066 118.844518 
L 241.392537 130.737646 
L 245.837348 138.858121 
L 250.13297 135.927554 
L 254.190746 138.211668 
L 258.508578 144.611891 
L 262.095226 151.332054 
L 266.07129 155.885106 
L 273.161273 164.443207 
L 279.938796 175.166246 
L 282.970133 180.782253 
L 286.269723 184.831562 
L 292.188765 193.803304 
L 294.893368 198.69703 
L 300.824224 208.181043 
L 305.992563 216.774797 
L 315.524222 233.05708 
L 320.111715 240.985722 
L 322.109532 244.841737 
L 324.31035 248.595522 
L 326.224045 252.223289 
L 328.3287 255.703294 
L 330.15577 259.017952 
L 335.932443 267.858586 
L 337.755763 270.415507 
L 341.360005 274.925715 
L 344.769746 278.640234 
L 346.486042 280.212635 
L 349.770354 282.836374 
L 352.940265 284.849383 
L 356.061248 286.361065 
L 359.029848 287.47707 
L 361.941899 288.290093 
L 366.101999 289.103881 
L 371.340102 289.709628 
L 377.558746 290.061548 
L 385.504088 290.239089 
L 400.487816 290.306763 
L 415.48472 290.311682 
L 203.169609 25.756364 
L 223.29262 33.052075 
L 239.164257 47.391549 
L 252.708462 54.276766 
L 263.83193 59.468442 
L 273.331635 71.998415 
L 282.071286 78.800259 
L 289.318695 89.731499 
L 295.856633 92.959777 
L 301.786016 111.012002 
L 307.297128 118.882892 
L 312.312723 130.686287 
L 317.149359 138.859442 
L 321.831307 135.963257 
L 326.279137 138.237359 
L 330.619992 144.629998 
L 334.767764 151.331163 
L 342.820294 159.935212 
L 346.478022 164.414183 
L 350.017558 169.552773 
L 353.673185 175.134873 
L 356.919856 180.754863 
L 360.144463 185.053623 
L 363.145258 189.542097 
L 366.089068 194.459223 
L 371.690372 204.473542 
L 379.601991 217.941083 
L 384.664425 227.126263 
L 391.832121 240.656595 
L 396.407755 249.829167 
L 400.762113 259.071497 
L 404.947162 268.281608 
L 410.994254 282.000478 
L 414.803914 291.098666 
L 420.277029 304.671142 
L 427.040577 322.491121 
L 437.522014 351.893561 
L 442.739365 366.651698 
L 445.187829 373.142487 
L 447.553655 378.908837 
L 449.877566 383.884538 
L 452.123517 388.048305 
L 454.336222 391.42735 
L 456.476049 394.090924 
L 458.585445 396.137969 
L 459.632499 396.610972 
L 473.104715 396.687258 
L 489.074505 396.693973 
L 489.074505 396.693973 
" clip-path="url(#pef5d2add58)" style="fill: none; stroke: #d62728; stroke-width: 2; stroke-linecap: square"/>
   </g>
   <g id="patch_3">
    <path d="M 94.095313 415.44 
L 94.095313 7.2 
" style="fill: none; stroke: #000000; stroke-width: 0.8; stroke-linejoin: miter; stroke-linecap: square"/>
   </g>
   <g id="patch_4">
    <path d="M 596.295313 415.44 
L 596.295313 7.2 
" style="fill: none; stroke: #000000; stroke-width: 0.8; stroke-linejoin: miter; stroke-linecap: square"/>
   </g>
   <g id="patch_5">
    <path d="M 94.095313 415.44 
L 596.295313 415.44 
" style="fill: none; stroke: #000000; stroke-width: 0.8; stroke-linejoin: miter; stroke-linecap: square"/>
   </g>
   <g id="patch_6">
    <path d="M 94.095313 7.2 
L 596.295313 7.2 
" style="fill: none; stroke: #000000; stroke-width: 0.8; stroke-linejoin: miter; stroke-linecap: square"/>
   </g>
   <g id="legend_1">
    <g id="patch_7">
     <path d="M 36.395312 561.476 
L 653.995312 561.476 
Q 657.995312 561.476 657.995312 557.476 
L 657.995312 490.676 
Q 657.995312 486.676 653.995312 486.676 
L 36.395312 486.676 
Q 32.395312 486.676 32.395312 490.676 
L 32.395312 557.476 
Q 32.395312 561.476 36.395312 561.476 
z
" style="fill: #ffffff; stroke: #cccccc; stroke-linejoin: miter"/>
    </g>
    <g id="line2d_167">
     <path d="M 40.395312 506.276 
L 60.395312 506.276 
L 80.395312 506.276 
" style="fill: none; stroke-dasharray: 7.4,3.2; stroke-dashoffset: 0; stroke: #ff7f0e; stroke-width: 2"/>
    </g>
    <g id="text_12">
     <!-- DG-Julia, $N_e^b$ = 2, $N_d^b$=4 -->
     <g transform="translate(96.395312 513.276) scale(0.2 -0.2)">
      <defs>
       <path id="DejaVuSans-44" d="M 1259 4147 
L 1259 519 
L 2022 519 
Q 2988 519 3436 956 
Q 3884 1394 3884 2338 
Q 3884 3275 3436 3711 
Q 2988 4147 2022 4147 
L 1259 4147 
z
M 628 4666 
L 1925 4666 
Q 3281 4666 3915 4102 
Q 4550 3538 4550 2338 
Q 4550 1131 3912 565 
Q 3275 0 1925 0 
L 628 0 
L 628 4666 
z
" transform="scale(0.015625)"/>
       <path id="DejaVuSans-47" d="M 3809 666 
L 3809 1919 
L 2778 1919 
L 2778 2438 
L 4434 2438 
L 4434 434 
Q 4069 175 3628 42 
Q 3188 -91 2688 -91 
Q 1594 -91 976 548 
Q 359 1188 359 2328 
Q 359 3472 976 4111 
Q 1594 4750 2688 4750 
Q 3144 4750 3555 4637 
Q 3966 4525 4313 4306 
L 4313 3634 
Q 3963 3931 3569 4081 
Q 3175 4231 2741 4231 
Q 1884 4231 1454 3753 
Q 1025 3275 1025 2328 
Q 1025 1384 1454 906 
Q 1884 428 2741 428 
Q 3075 428 3337 486 
Q 3600 544 3809 666 
z
" transform="scale(0.015625)"/>
       <path id="DejaVuSans-2d" d="M 313 2009 
L 1997 2009 
L 1997 1497 
L 313 1497 
L 313 2009 
z
" transform="scale(0.015625)"/>
       <path id="DejaVuSans-4a" d="M 628 4666 
L 1259 4666 
L 1259 325 
Q 1259 -519 939 -900 
Q 619 -1281 -91 -1281 
L -331 -1281 
L -331 -750 
L -134 -750 
Q 284 -750 456 -515 
Q 628 -281 628 325 
L 628 4666 
z
" transform="scale(0.015625)"/>
       <path id="DejaVuSans-6c" d="M 603 4863 
L 1178 4863 
L 1178 0 
L 603 0 
L 603 4863 
z
" transform="scale(0.015625)"/>
       <path id="DejaVuSans-2c" d="M 750 794 
L 1409 794 
L 1409 256 
L 897 -744 
L 494 -744 
L 750 256 
L 750 794 
z
" transform="scale(0.015625)"/>
       <path id="DejaVuSans-Oblique-4e" d="M 1081 4666 
L 1931 4666 
L 3219 666 
L 4000 4666 
L 4616 4666 
L 3706 0 
L 2853 0 
L 1569 4025 
L 788 0 
L 172 0 
L 1081 4666 
z
" transform="scale(0.015625)"/>
       <path id="DejaVuSans-Oblique-62" d="M 3169 2138 
Q 3169 2591 2961 2847 
Q 2753 3103 2388 3103 
Q 2122 3103 1889 2973 
Q 1656 2844 1484 2597 
Q 1303 2338 1198 1995 
Q 1094 1653 1094 1313 
Q 1094 881 1298 636 
Q 1503 391 1863 391 
Q 2134 391 2365 517 
Q 2597 644 2772 891 
Q 2950 1147 3059 1487 
Q 3169 1828 3169 2138 
z
M 1381 2969 
Q 1594 3256 1914 3420 
Q 2234 3584 2584 3584 
Q 3122 3584 3439 3221 
Q 3756 2859 3756 2241 
Q 3756 1734 3570 1259 
Q 3384 784 3041 416 
Q 2816 172 2522 40 
Q 2228 -91 1906 -91 
Q 1566 -91 1316 65 
Q 1066 222 909 531 
L 806 0 
L 231 0 
L 1178 4863 
L 1753 4863 
L 1381 2969 
z
" transform="scale(0.015625)"/>
       <path id="DejaVuSans-Oblique-65" d="M 3078 2063 
Q 3088 2113 3092 2166 
Q 3097 2219 3097 2272 
Q 3097 2653 2873 2875 
Q 2650 3097 2266 3097 
Q 1838 3097 1509 2826 
Q 1181 2556 1013 2059 
L 3078 2063 
z
M 3578 1613 
L 903 1613 
Q 884 1494 878 1425 
Q 872 1356 872 1306 
Q 872 872 1139 634 
Q 1406 397 1894 397 
Q 2269 397 2603 481 
Q 2938 566 3225 728 
L 3116 159 
Q 2806 34 2476 -28 
Q 2147 -91 1806 -91 
Q 1078 -91 686 257 
Q 294 606 294 1247 
Q 294 1794 489 2264 
Q 684 2734 1063 3103 
Q 1306 3334 1642 3459 
Q 1978 3584 2356 3584 
Q 2950 3584 3301 3228 
Q 3653 2872 3653 2272 
Q 3653 2128 3634 1964 
Q 3616 1800 3578 1613 
z
" transform="scale(0.015625)"/>
       <path id="DejaVuSans-3d" d="M 678 2906 
L 4684 2906 
L 4684 2381 
L 678 2381 
L 678 2906 
z
M 678 1631 
L 4684 1631 
L 4684 1100 
L 678 1100 
L 678 1631 
z
" transform="scale(0.015625)"/>
       <path id="DejaVuSans-Oblique-64" d="M 2675 525 
Q 2444 222 2128 65 
Q 1813 -91 1428 -91 
Q 903 -91 598 267 
Q 294 625 294 1247 
Q 294 1766 478 2236 
Q 663 2706 1013 3078 
Q 1244 3325 1534 3454 
Q 1825 3584 2144 3584 
Q 2481 3584 2739 3421 
Q 2997 3259 3138 2956 
L 3513 4863 
L 4091 4863 
L 3144 0 
L 2566 0 
L 2675 525 
z
M 891 1350 
Q 891 897 1095 644 
Q 1300 391 1663 391 
Q 1931 391 2161 520 
Q 2391 650 2566 903 
Q 2750 1166 2856 1509 
Q 2963 1853 2963 2188 
Q 2963 2622 2758 2865 
Q 2553 3109 2194 3109 
Q 1922 3109 1687 2981 
Q 1453 2853 1288 2613 
Q 1106 2353 998 2009 
Q 891 1666 891 1350 
z
" transform="scale(0.015625)"/>
      </defs>
      <use xlink:href="#DejaVuSans-44" transform="translate(0 0.470313)"/>
      <use xlink:href="#DejaVuSans-47" transform="translate(77.001953 0.470313)"/>
      <use xlink:href="#DejaVuSans-2d" transform="translate(154.492188 0.470313)"/>
      <use xlink:href="#DejaVuSans-4a" transform="translate(190.576172 0.470313)"/>
      <use xlink:href="#DejaVuSans-75" transform="translate(220.068359 0.470313)"/>
      <use xlink:href="#DejaVuSans-6c" transform="translate(283.447266 0.470313)"/>
      <use xlink:href="#DejaVuSans-69" transform="translate(311.230469 0.470313)"/>
      <use xlink:href="#DejaVuSans-61" transform="translate(339.013672 0.470313)"/>
      <use xlink:href="#DejaVuSans-2c" transform="translate(400.292969 0.470313)"/>
      <use xlink:href="#DejaVuSans-20" transform="translate(432.080078 0.470313)"/>
      <use xlink:href="#DejaVuSans-Oblique-4e" transform="translate(463.867188 0.470313)"/>
      <use xlink:href="#DejaVuSans-Oblique-62" transform="translate(545.688646 38.751563) scale(0.7)"/>
      <use xlink:href="#DejaVuSans-Oblique-65" transform="translate(538.671875 -26.873437) scale(0.7)"/>
      <use xlink:href="#DejaVuSans-20" transform="translate(592.856615 0.470313)"/>
      <use xlink:href="#DejaVuSans-3d" transform="translate(624.643724 0.470313)"/>
      <use xlink:href="#DejaVuSans-20" transform="translate(708.432786 0.470313)"/>
      <use xlink:href="#DejaVuSans-32" transform="translate(740.219896 0.470313)"/>
      <use xlink:href="#DejaVuSans-2c" transform="translate(803.842943 0.470313)"/>
      <use xlink:href="#DejaVuSans-20" transform="translate(835.630052 0.470313)"/>
      <use xlink:href="#DejaVuSans-Oblique-4e" transform="translate(867.417161 0.470313)"/>
      <use xlink:href="#DejaVuSans-Oblique-62" transform="translate(949.23862 39.810938) scale(0.7)"/>
      <use xlink:href="#DejaVuSans-Oblique-64" transform="translate(942.221849 -26.873437) scale(0.7)"/>
      <use xlink:href="#DejaVuSans-3d" transform="translate(996.406589 0.470313)"/>
      <use xlink:href="#DejaVuSans-34" transform="translate(1080.195651 0.470313)"/>
     </g>
    </g>
    <g id="line2d_168">
     <path d="M 40.395312 540.676 
L 60.395312 540.676 
L 80.395312 540.676 
" style="fill: none; stroke: #ff7f0e; stroke-width: 2; stroke-linecap: square"/>
    </g>
    <g id="text_13">
     <!-- OCA-FPI, $N_e^b$ = 2, $N_d^b$=4 -->
     <g transform="translate(96.395312 547.676) scale(0.2 -0.2)">
      <defs>
       <path id="DejaVuSans-4f" d="M 2522 4238 
Q 1834 4238 1429 3725 
Q 1025 3213 1025 2328 
Q 1025 1447 1429 934 
Q 1834 422 2522 422 
Q 3209 422 3611 934 
Q 4013 1447 4013 2328 
Q 4013 3213 3611 3725 
Q 3209 4238 2522 4238 
z
M 2522 4750 
Q 3503 4750 4090 4092 
Q 4678 3434 4678 2328 
Q 4678 1225 4090 567 
Q 3503 -91 2522 -91 
Q 1538 -91 948 565 
Q 359 1222 359 2328 
Q 359 3434 948 4092 
Q 1538 4750 2522 4750 
z
" transform="scale(0.015625)"/>
       <path id="DejaVuSans-41" d="M 2188 4044 
L 1331 1722 
L 3047 1722 
L 2188 4044 
z
M 1831 4666 
L 2547 4666 
L 4325 0 
L 3669 0 
L 3244 1197 
L 1141 1197 
L 716 0 
L 50 0 
L 1831 4666 
z
" transform="scale(0.015625)"/>
       <path id="DejaVuSans-46" d="M 628 4666 
L 3309 4666 
L 3309 4134 
L 1259 4134 
L 1259 2759 
L 3109 2759 
L 3109 2228 
L 1259 2228 
L 1259 0 
L 628 0 
L 628 4666 
z
" transform="scale(0.015625)"/>
       <path id="DejaVuSans-50" d="M 1259 4147 
L 1259 2394 
L 2053 2394 
Q 2494 2394 2734 2622 
Q 2975 2850 2975 3272 
Q 2975 3691 2734 3919 
Q 2494 4147 2053 4147 
L 1259 4147 
z
M 628 4666 
L 2053 4666 
Q 2838 4666 3239 4311 
Q 3641 3956 3641 3272 
Q 3641 2581 3239 2228 
Q 2838 1875 2053 1875 
L 1259 1875 
L 1259 0 
L 628 0 
L 628 4666 
z
" transform="scale(0.015625)"/>
       <path id="DejaVuSans-49" d="M 628 4666 
L 1259 4666 
L 1259 0 
L 628 0 
L 628 4666 
z
" transform="scale(0.015625)"/>
      </defs>
      <use xlink:href="#DejaVuSans-4f" transform="translate(0 0.470313)"/>
      <use xlink:href="#DejaVuSans-43" transform="translate(78.710938 0.470313)"/>
      <use xlink:href="#DejaVuSans-41" transform="translate(148.535156 0.470313)"/>
      <use xlink:href="#DejaVuSans-2d" transform="translate(216.943359 0.470313)"/>
      <use xlink:href="#DejaVuSans-46" transform="translate(253.027344 0.470313)"/>
      <use xlink:href="#DejaVuSans-50" transform="translate(310.546875 0.470313)"/>
      <use xlink:href="#DejaVuSans-49" transform="translate(370.849609 0.470313)"/>
      <use xlink:href="#DejaVuSans-2c" transform="translate(400.341797 0.470313)"/>
      <use xlink:href="#DejaVuSans-20" transform="translate(432.128906 0.470313)"/>
      <use xlink:href="#DejaVuSans-Oblique-4e" transform="translate(463.916016 0.470313)"/>
      <use xlink:href="#DejaVuSans-Oblique-62" transform="translate(545.737474 38.751563) scale(0.7)"/>
      <use xlink:href="#DejaVuSans-Oblique-65" transform="translate(538.720703 -26.873437) scale(0.7)"/>
      <use xlink:href="#DejaVuSans-20" transform="translate(592.905443 0.470313)"/>
      <use xlink:href="#DejaVuSans-3d" transform="translate(624.692552 0.470313)"/>
      <use xlink:href="#DejaVuSans-20" transform="translate(708.481615 0.470313)"/>
      <use xlink:href="#DejaVuSans-32" transform="translate(740.268724 0.470313)"/>
      <use xlink:href="#DejaVuSans-2c" transform="translate(803.891771 0.470313)"/>
      <use xlink:href="#DejaVuSans-20" transform="translate(835.67888 0.470313)"/>
      <use xlink:href="#DejaVuSans-Oblique-4e" transform="translate(867.46599 0.470313)"/>
      <use xlink:href="#DejaVuSans-Oblique-62" transform="translate(949.287448 39.810938) scale(0.7)"/>
      <use xlink:href="#DejaVuSans-Oblique-64" transform="translate(942.270677 -26.873437) scale(0.7)"/>
      <use xlink:href="#DejaVuSans-3d" transform="translate(996.455417 0.470313)"/>
      <use xlink:href="#DejaVuSans-34" transform="translate(1080.244479 0.470313)"/>
     </g>
    </g>
    <g id="line2d_169">
     <path d="M 365.195312 506.276 
L 385.195312 506.276 
L 405.195312 506.276 
" style="fill: none; stroke-dasharray: 7.4,3.2; stroke-dashoffset: 0; stroke: #d62728; stroke-width: 2"/>
    </g>
    <g id="text_14">
     <!-- DG-Julia, $N_e^b$ = 4, $N_d^b$=4 -->
     <g transform="translate(421.195312 513.276) scale(0.2 -0.2)">
      <use xlink:href="#DejaVuSans-44" transform="translate(0 0.470313)"/>
      <use xlink:href="#DejaVuSans-47" transform="translate(77.001953 0.470313)"/>
      <use xlink:href="#DejaVuSans-2d" transform="translate(154.492188 0.470313)"/>
      <use xlink:href="#DejaVuSans-4a" transform="translate(190.576172 0.470313)"/>
      <use xlink:href="#DejaVuSans-75" transform="translate(220.068359 0.470313)"/>
      <use xlink:href="#DejaVuSans-6c" transform="translate(283.447266 0.470313)"/>
      <use xlink:href="#DejaVuSans-69" transform="translate(311.230469 0.470313)"/>
      <use xlink:href="#DejaVuSans-61" transform="translate(339.013672 0.470313)"/>
      <use xlink:href="#DejaVuSans-2c" transform="translate(400.292969 0.470313)"/>
      <use xlink:href="#DejaVuSans-20" transform="translate(432.080078 0.470313)"/>
      <use xlink:href="#DejaVuSans-Oblique-4e" transform="translate(463.867188 0.470313)"/>
      <use xlink:href="#DejaVuSans-Oblique-62" transform="translate(545.688646 38.751563) scale(0.7)"/>
      <use xlink:href="#DejaVuSans-Oblique-65" transform="translate(538.671875 -26.873437) scale(0.7)"/>
      <use xlink:href="#DejaVuSans-20" transform="translate(592.856615 0.470313)"/>
      <use xlink:href="#DejaVuSans-3d" transform="translate(624.643724 0.470313)"/>
      <use xlink:href="#DejaVuSans-20" transform="translate(708.432786 0.470313)"/>
      <use xlink:href="#DejaVuSans-34" transform="translate(740.219896 0.470313)"/>
      <use xlink:href="#DejaVuSans-2c" transform="translate(803.842943 0.470313)"/>
      <use xlink:href="#DejaVuSans-20" transform="translate(835.630052 0.470313)"/>
      <use xlink:href="#DejaVuSans-Oblique-4e" transform="translate(867.417161 0.470313)"/>
      <use xlink:href="#DejaVuSans-Oblique-62" transform="translate(949.23862 39.810938) scale(0.7)"/>
      <use xlink:href="#DejaVuSans-Oblique-64" transform="translate(942.221849 -26.873437) scale(0.7)"/>
      <use xlink:href="#DejaVuSans-3d" transform="translate(996.406589 0.470313)"/>
      <use xlink:href="#DejaVuSans-34" transform="translate(1080.195651 0.470313)"/>
     </g>
    </g>
    <g id="line2d_170">
     <path d="M 365.195312 540.676 
L 385.195312 540.676 
L 405.195312 540.676 
" style="fill: none; stroke: #d62728; stroke-width: 2; stroke-linecap: square"/>
    </g>
    <g id="text_15">
     <!-- OCA-FPI, $N_e^b$ = 4, $N_d^b$=4 -->
     <g transform="translate(421.195312 547.676) scale(0.2 -0.2)">
      <use xlink:href="#DejaVuSans-4f" transform="translate(0 0.470313)"/>
      <use xlink:href="#DejaVuSans-43" transform="translate(78.710938 0.470313)"/>
      <use xlink:href="#DejaVuSans-41" transform="translate(148.535156 0.470313)"/>
      <use xlink:href="#DejaVuSans-2d" transform="translate(216.943359 0.470313)"/>
      <use xlink:href="#DejaVuSans-46" transform="translate(253.027344 0.470313)"/>
      <use xlink:href="#DejaVuSans-50" transform="translate(310.546875 0.470313)"/>
      <use xlink:href="#DejaVuSans-49" transform="translate(370.849609 0.470313)"/>
      <use xlink:href="#DejaVuSans-2c" transform="translate(400.341797 0.470313)"/>
      <use xlink:href="#DejaVuSans-20" transform="translate(432.128906 0.470313)"/>
      <use xlink:href="#DejaVuSans-Oblique-4e" transform="translate(463.916016 0.470313)"/>
      <use xlink:href="#DejaVuSans-Oblique-62" transform="translate(545.737474 38.751563) scale(0.7)"/>
      <use xlink:href="#DejaVuSans-Oblique-65" transform="translate(538.720703 -26.873437) scale(0.7)"/>
      <use xlink:href="#DejaVuSans-20" transform="translate(592.905443 0.470313)"/>
      <use xlink:href="#DejaVuSans-3d" transform="translate(624.692552 0.470313)"/>
      <use xlink:href="#DejaVuSans-20" transform="translate(708.481615 0.470313)"/>
      <use xlink:href="#DejaVuSans-34" transform="translate(740.268724 0.470313)"/>
      <use xlink:href="#DejaVuSans-2c" transform="translate(803.891771 0.470313)"/>
      <use xlink:href="#DejaVuSans-20" transform="translate(835.67888 0.470313)"/>
      <use xlink:href="#DejaVuSans-Oblique-4e" transform="translate(867.46599 0.470313)"/>
      <use xlink:href="#DejaVuSans-Oblique-62" transform="translate(949.287448 39.810938) scale(0.7)"/>
      <use xlink:href="#DejaVuSans-Oblique-64" transform="translate(942.270677 -26.873437) scale(0.7)"/>
      <use xlink:href="#DejaVuSans-3d" transform="translate(996.455417 0.470313)"/>
      <use xlink:href="#DejaVuSans-34" transform="translate(1080.244479 0.470313)"/>
     </g>
    </g>
   </g>
  </g>
 </g>
 <defs>
  <clipPath id="pef5d2add58">
   <rect x="94.095313" y="7.2" width="502.2" height="408.24"/>
  </clipPath>
 </defs>
</svg>
