<?xml version="1.0" encoding="utf-8" standalone="no"?>
<!DOCTYPE svg PUBLIC "-//W3C//DTD SVG 1.1//EN"
  "http://www.w3.org/Graphics/SVG/1.1/DTD/svg11.dtd">
<svg xmlns:xlink="http://www.w3.org/1999/xlink" width="655.487813pt" height="568.676pt" viewBox="0 0 655.487813 568.676" xmlns="http://www.w3.org/2000/svg" version="1.1">
 <metadata>
  <rdf:RDF xmlns:dc="http://purl.org/dc/elements/1.1/" xmlns:cc="http://creativecommons.org/ns#" xmlns:rdf="http://www.w3.org/1999/02/22-rdf-syntax-ns#">
   <cc:Work>
    <dc:type rdf:resource="http://purl.org/dc/dcmitype/StillImage"/>
    <dc:date>2025-01-15T09:20:53.951606</dc:date>
    <dc:format>image/svg+xml</dc:format>
    <dc:creator>
     <cc:Agent>
      <dc:title>Matplotlib v3.9.1, https://matplotlib.org/</dc:title>
     </cc:Agent>
    </dc:creator>
   </cc:Work>
  </rdf:RDF>
 </metadata>
 <defs>
  <style type="text/css">*{stroke-linejoin: round; stroke-linecap: butt}</style>
 </defs>
 <g id="figure_1">
  <g id="patch_1">
   <path d="M 0 568.676 
L 655.487813 568.676 
L 655.487813 0 
L 0 0 
z
" style="fill: #ffffff"/>
  </g>
  <g id="axes_1">
   <g id="patch_2">
    <path d="M 84.387813 415.44 
L 586.587813 415.44 
L 586.587813 7.2 
L 84.387813 7.2 
z
" style="fill: #ffffff"/>
   </g>
   <g id="matplotlib.axis_1">
    <g id="xtick_1">
     <g id="line2d_1">
      <path d="M 105.860351 415.44 
L 105.860351 7.2 
" clip-path="url(#p399e1b0638)" style="fill: none; stroke-dasharray: 1.85,0.8; stroke-dashoffset: 0; stroke: #b0b0b0; stroke-width: 0.5"/>
     </g>
     <g id="line2d_2">
      <defs>
       <path id="m43ee43640c" d="M 0 0 
L 0 3.5 
" style="stroke: #000000; stroke-width: 0.8"/>
      </defs>
      <g>
       <use xlink:href="#m43ee43640c" x="105.860351" y="415.44" style="stroke: #000000; stroke-width: 0.8"/>
      </g>
     </g>
     <g id="text_1">
      <!-- 0 -->
      <g transform="translate(98.861601 439.156562) scale(0.22 -0.22)">
       <defs>
        <path id="DejaVuSans-30" d="M 2034 4250 
Q 1547 4250 1301 3770 
Q 1056 3291 1056 2328 
Q 1056 1369 1301 889 
Q 1547 409 2034 409 
Q 2525 409 2770 889 
Q 3016 1369 3016 2328 
Q 3016 3291 2770 3770 
Q 2525 4250 2034 4250 
z
M 2034 4750 
Q 2819 4750 3233 4129 
Q 3647 3509 3647 2328 
Q 3647 1150 3233 529 
Q 2819 -91 2034 -91 
Q 1250 -91 836 529 
Q 422 1150 422 2328 
Q 422 3509 836 4129 
Q 1250 4750 2034 4750 
z
" transform="scale(0.015625)"/>
       </defs>
       <use xlink:href="#DejaVuSans-30"/>
      </g>
     </g>
    </g>
    <g id="xtick_2">
     <g id="line2d_3">
      <path d="M 241.33378 415.44 
L 241.33378 7.2 
" clip-path="url(#p399e1b0638)" style="fill: none; stroke-dasharray: 1.85,0.8; stroke-dashoffset: 0; stroke: #b0b0b0; stroke-width: 0.5"/>
     </g>
     <g id="line2d_4">
      <g>
       <use xlink:href="#m43ee43640c" x="241.33378" y="415.44" style="stroke: #000000; stroke-width: 0.8"/>
      </g>
     </g>
     <g id="text_2">
      <!-- 100 -->
      <g transform="translate(220.33753 439.156562) scale(0.22 -0.22)">
       <defs>
        <path id="DejaVuSans-31" d="M 794 531 
L 1825 531 
L 1825 4091 
L 703 3866 
L 703 4441 
L 1819 4666 
L 2450 4666 
L 2450 531 
L 3481 531 
L 3481 0 
L 794 0 
L 794 531 
z
" transform="scale(0.015625)"/>
       </defs>
       <use xlink:href="#DejaVuSans-31"/>
       <use xlink:href="#DejaVuSans-30" x="63.623047"/>
       <use xlink:href="#DejaVuSans-30" x="127.246094"/>
      </g>
     </g>
    </g>
    <g id="xtick_3">
     <g id="line2d_5">
      <path d="M 376.807208 415.44 
L 376.807208 7.2 
" clip-path="url(#p399e1b0638)" style="fill: none; stroke-dasharray: 1.85,0.8; stroke-dashoffset: 0; stroke: #b0b0b0; stroke-width: 0.5"/>
     </g>
     <g id="line2d_6">
      <g>
       <use xlink:href="#m43ee43640c" x="376.807208" y="415.44" style="stroke: #000000; stroke-width: 0.8"/>
      </g>
     </g>
     <g id="text_3">
      <!-- 200 -->
      <g transform="translate(355.810958 439.156562) scale(0.22 -0.22)">
       <defs>
        <path id="DejaVuSans-32" d="M 1228 531 
L 3431 531 
L 3431 0 
L 469 0 
L 469 531 
Q 828 903 1448 1529 
Q 2069 2156 2228 2338 
Q 2531 2678 2651 2914 
Q 2772 3150 2772 3378 
Q 2772 3750 2511 3984 
Q 2250 4219 1831 4219 
Q 1534 4219 1204 4116 
Q 875 4013 500 3803 
L 500 4441 
Q 881 4594 1212 4672 
Q 1544 4750 1819 4750 
Q 2544 4750 2975 4387 
Q 3406 4025 3406 3419 
Q 3406 3131 3298 2873 
Q 3191 2616 2906 2266 
Q 2828 2175 2409 1742 
Q 1991 1309 1228 531 
z
" transform="scale(0.015625)"/>
       </defs>
       <use xlink:href="#DejaVuSans-32"/>
       <use xlink:href="#DejaVuSans-30" x="63.623047"/>
       <use xlink:href="#DejaVuSans-30" x="127.246094"/>
      </g>
     </g>
    </g>
    <g id="xtick_4">
     <g id="line2d_7">
      <path d="M 512.280637 415.44 
L 512.280637 7.2 
" clip-path="url(#p399e1b0638)" style="fill: none; stroke-dasharray: 1.85,0.8; stroke-dashoffset: 0; stroke: #b0b0b0; stroke-width: 0.5"/>
     </g>
     <g id="line2d_8">
      <g>
       <use xlink:href="#m43ee43640c" x="512.280637" y="415.44" style="stroke: #000000; stroke-width: 0.8"/>
      </g>
     </g>
     <g id="text_4">
      <!-- 300 -->
      <g transform="translate(491.284387 439.156562) scale(0.22 -0.22)">
       <defs>
        <path id="DejaVuSans-33" d="M 2597 2516 
Q 3050 2419 3304 2112 
Q 3559 1806 3559 1356 
Q 3559 666 3084 287 
Q 2609 -91 1734 -91 
Q 1441 -91 1130 -33 
Q 819 25 488 141 
L 488 750 
Q 750 597 1062 519 
Q 1375 441 1716 441 
Q 2309 441 2620 675 
Q 2931 909 2931 1356 
Q 2931 1769 2642 2001 
Q 2353 2234 1838 2234 
L 1294 2234 
L 1294 2753 
L 1863 2753 
Q 2328 2753 2575 2939 
Q 2822 3125 2822 3475 
Q 2822 3834 2567 4026 
Q 2313 4219 1838 4219 
Q 1578 4219 1281 4162 
Q 984 4106 628 3988 
L 628 4550 
Q 988 4650 1302 4700 
Q 1616 4750 1894 4750 
Q 2613 4750 3031 4423 
Q 3450 4097 3450 3541 
Q 3450 3153 3228 2886 
Q 3006 2619 2597 2516 
z
" transform="scale(0.015625)"/>
       </defs>
       <use xlink:href="#DejaVuSans-33"/>
       <use xlink:href="#DejaVuSans-30" x="63.623047"/>
       <use xlink:href="#DejaVuSans-30" x="127.246094"/>
      </g>
     </g>
    </g>
    <g id="text_5">
     <!-- Iteration -->
     <g transform="translate(282.466328 466.727969) scale(0.25 -0.25)">
      <defs>
       <path id="DejaVuSans-49" d="M 628 4666 
L 1259 4666 
L 1259 0 
L 628 0 
L 628 4666 
z
" transform="scale(0.015625)"/>
       <path id="DejaVuSans-74" d="M 1172 4494 
L 1172 3500 
L 2356 3500 
L 2356 3053 
L 1172 3053 
L 1172 1153 
Q 1172 725 1289 603 
Q 1406 481 1766 481 
L 2356 481 
L 2356 0 
L 1766 0 
Q 1100 0 847 248 
Q 594 497 594 1153 
L 594 3053 
L 172 3053 
L 172 3500 
L 594 3500 
L 594 4494 
L 1172 4494 
z
" transform="scale(0.015625)"/>
       <path id="DejaVuSans-65" d="M 3597 1894 
L 3597 1613 
L 953 1613 
Q 991 1019 1311 708 
Q 1631 397 2203 397 
Q 2534 397 2845 478 
Q 3156 559 3463 722 
L 3463 178 
Q 3153 47 2828 -22 
Q 2503 -91 2169 -91 
Q 1331 -91 842 396 
Q 353 884 353 1716 
Q 353 2575 817 3079 
Q 1281 3584 2069 3584 
Q 2775 3584 3186 3129 
Q 3597 2675 3597 1894 
z
M 3022 2063 
Q 3016 2534 2758 2815 
Q 2500 3097 2075 3097 
Q 1594 3097 1305 2825 
Q 1016 2553 972 2059 
L 3022 2063 
z
" transform="scale(0.015625)"/>
       <path id="DejaVuSans-72" d="M 2631 2963 
Q 2534 3019 2420 3045 
Q 2306 3072 2169 3072 
Q 1681 3072 1420 2755 
Q 1159 2438 1159 1844 
L 1159 0 
L 581 0 
L 581 3500 
L 1159 3500 
L 1159 2956 
Q 1341 3275 1631 3429 
Q 1922 3584 2338 3584 
Q 2397 3584 2469 3576 
Q 2541 3569 2628 3553 
L 2631 2963 
z
" transform="scale(0.015625)"/>
       <path id="DejaVuSans-61" d="M 2194 1759 
Q 1497 1759 1228 1600 
Q 959 1441 959 1056 
Q 959 750 1161 570 
Q 1363 391 1709 391 
Q 2188 391 2477 730 
Q 2766 1069 2766 1631 
L 2766 1759 
L 2194 1759 
z
M 3341 1997 
L 3341 0 
L 2766 0 
L 2766 531 
Q 2569 213 2275 61 
Q 1981 -91 1556 -91 
Q 1019 -91 701 211 
Q 384 513 384 1019 
Q 384 1609 779 1909 
Q 1175 2209 1959 2209 
L 2766 2209 
L 2766 2266 
Q 2766 2663 2505 2880 
Q 2244 3097 1772 3097 
Q 1472 3097 1187 3025 
Q 903 2953 641 2809 
L 641 3341 
Q 956 3463 1253 3523 
Q 1550 3584 1831 3584 
Q 2591 3584 2966 3190 
Q 3341 2797 3341 1997 
z
" transform="scale(0.015625)"/>
       <path id="DejaVuSans-69" d="M 603 3500 
L 1178 3500 
L 1178 0 
L 603 0 
L 603 3500 
z
M 603 4863 
L 1178 4863 
L 1178 4134 
L 603 4134 
L 603 4863 
z
" transform="scale(0.015625)"/>
       <path id="DejaVuSans-6f" d="M 1959 3097 
Q 1497 3097 1228 2736 
Q 959 2375 959 1747 
Q 959 1119 1226 758 
Q 1494 397 1959 397 
Q 2419 397 2687 759 
Q 2956 1122 2956 1747 
Q 2956 2369 2687 2733 
Q 2419 3097 1959 3097 
z
M 1959 3584 
Q 2709 3584 3137 3096 
Q 3566 2609 3566 1747 
Q 3566 888 3137 398 
Q 2709 -91 1959 -91 
Q 1206 -91 779 398 
Q 353 888 353 1747 
Q 353 2609 779 3096 
Q 1206 3584 1959 3584 
z
" transform="scale(0.015625)"/>
       <path id="DejaVuSans-6e" d="M 3513 2113 
L 3513 0 
L 2938 0 
L 2938 2094 
Q 2938 2591 2744 2837 
Q 2550 3084 2163 3084 
Q 1697 3084 1428 2787 
Q 1159 2491 1159 1978 
L 1159 0 
L 581 0 
L 581 3500 
L 1159 3500 
L 1159 2956 
Q 1366 3272 1645 3428 
Q 1925 3584 2291 3584 
Q 2894 3584 3203 3211 
Q 3513 2838 3513 2113 
z
" transform="scale(0.015625)"/>
      </defs>
      <use xlink:href="#DejaVuSans-49"/>
      <use xlink:href="#DejaVuSans-74" x="29.492188"/>
      <use xlink:href="#DejaVuSans-65" x="68.701172"/>
      <use xlink:href="#DejaVuSans-72" x="130.224609"/>
      <use xlink:href="#DejaVuSans-61" x="171.337891"/>
      <use xlink:href="#DejaVuSans-74" x="232.617188"/>
      <use xlink:href="#DejaVuSans-69" x="271.826172"/>
      <use xlink:href="#DejaVuSans-6f" x="299.609375"/>
      <use xlink:href="#DejaVuSans-6e" x="360.791016"/>
     </g>
    </g>
   </g>
   <g id="matplotlib.axis_2">
    <g id="ytick_1">
     <g id="line2d_9">
      <path d="M 84.387813 399.360428 
L 586.587813 399.360428 
" clip-path="url(#p399e1b0638)" style="fill: none; stroke-dasharray: 1.85,0.8; stroke-dashoffset: 0; stroke: #b0b0b0; stroke-width: 0.5"/>
     </g>
     <g id="line2d_10">
      <defs>
       <path id="m484fbfd942" d="M 0 0 
L -3.5 0 
" style="stroke: #000000; stroke-width: 0.8"/>
      </defs>
      <g>
       <use xlink:href="#m484fbfd942" x="84.387813" y="399.360428" style="stroke: #000000; stroke-width: 0.8"/>
      </g>
     </g>
     <g id="text_6">
      <!-- 0 -->
      <g transform="translate(63.390313 407.718709) scale(0.22 -0.22)">
       <use xlink:href="#DejaVuSans-30"/>
      </g>
     </g>
    </g>
    <g id="ytick_2">
     <g id="line2d_11">
      <path d="M 84.387813 331.391388 
L 586.587813 331.391388 
" clip-path="url(#p399e1b0638)" style="fill: none; stroke-dasharray: 1.85,0.8; stroke-dashoffset: 0; stroke: #b0b0b0; stroke-width: 0.5"/>
     </g>
     <g id="line2d_12">
      <g>
       <use xlink:href="#m484fbfd942" x="84.387813" y="331.391388" style="stroke: #000000; stroke-width: 0.8"/>
      </g>
     </g>
     <g id="text_7">
      <!-- 50 -->
      <g transform="translate(49.392813 339.749669) scale(0.22 -0.22)">
       <defs>
        <path id="DejaVuSans-35" d="M 691 4666 
L 3169 4666 
L 3169 4134 
L 1269 4134 
L 1269 2991 
Q 1406 3038 1543 3061 
Q 1681 3084 1819 3084 
Q 2600 3084 3056 2656 
Q 3513 2228 3513 1497 
Q 3513 744 3044 326 
Q 2575 -91 1722 -91 
Q 1428 -91 1123 -41 
Q 819 9 494 109 
L 494 744 
Q 775 591 1075 516 
Q 1375 441 1709 441 
Q 2250 441 2565 725 
Q 2881 1009 2881 1497 
Q 2881 1984 2565 2268 
Q 2250 2553 1709 2553 
Q 1456 2553 1204 2497 
Q 953 2441 691 2322 
L 691 4666 
z
" transform="scale(0.015625)"/>
       </defs>
       <use xlink:href="#DejaVuSans-35"/>
       <use xlink:href="#DejaVuSans-30" x="63.623047"/>
      </g>
     </g>
    </g>
    <g id="ytick_3">
     <g id="line2d_13">
      <path d="M 84.387813 263.422348 
L 586.587813 263.422348 
" clip-path="url(#p399e1b0638)" style="fill: none; stroke-dasharray: 1.85,0.8; stroke-dashoffset: 0; stroke: #b0b0b0; stroke-width: 0.5"/>
     </g>
     <g id="line2d_14">
      <g>
       <use xlink:href="#m484fbfd942" x="84.387813" y="263.422348" style="stroke: #000000; stroke-width: 0.8"/>
      </g>
     </g>
     <g id="text_8">
      <!-- 100 -->
      <g transform="translate(35.395313 271.780629) scale(0.22 -0.22)">
       <use xlink:href="#DejaVuSans-31"/>
       <use xlink:href="#DejaVuSans-30" x="63.623047"/>
       <use xlink:href="#DejaVuSans-30" x="127.246094"/>
      </g>
     </g>
    </g>
    <g id="ytick_4">
     <g id="line2d_15">
      <path d="M 84.387813 195.453307 
L 586.587813 195.453307 
" clip-path="url(#p399e1b0638)" style="fill: none; stroke-dasharray: 1.85,0.8; stroke-dashoffset: 0; stroke: #b0b0b0; stroke-width: 0.5"/>
     </g>
     <g id="line2d_16">
      <g>
       <use xlink:href="#m484fbfd942" x="84.387813" y="195.453307" style="stroke: #000000; stroke-width: 0.8"/>
      </g>
     </g>
     <g id="text_9">
      <!-- 150 -->
      <g transform="translate(35.395313 203.811588) scale(0.22 -0.22)">
       <use xlink:href="#DejaVuSans-31"/>
       <use xlink:href="#DejaVuSans-35" x="63.623047"/>
       <use xlink:href="#DejaVuSans-30" x="127.246094"/>
      </g>
     </g>
    </g>
    <g id="ytick_5">
     <g id="line2d_17">
      <path d="M 84.387813 127.484267 
L 586.587813 127.484267 
" clip-path="url(#p399e1b0638)" style="fill: none; stroke-dasharray: 1.85,0.8; stroke-dashoffset: 0; stroke: #b0b0b0; stroke-width: 0.5"/>
     </g>
     <g id="line2d_18">
      <g>
       <use xlink:href="#m484fbfd942" x="84.387813" y="127.484267" style="stroke: #000000; stroke-width: 0.8"/>
      </g>
     </g>
     <g id="text_10">
      <!-- 200 -->
      <g transform="translate(35.395313 135.842548) scale(0.22 -0.22)">
       <use xlink:href="#DejaVuSans-32"/>
       <use xlink:href="#DejaVuSans-30" x="63.623047"/>
       <use xlink:href="#DejaVuSans-30" x="127.246094"/>
      </g>
     </g>
    </g>
    <g id="ytick_6">
     <g id="line2d_19">
      <path d="M 84.387813 59.515227 
L 586.587813 59.515227 
" clip-path="url(#p399e1b0638)" style="fill: none; stroke-dasharray: 1.85,0.8; stroke-dashoffset: 0; stroke: #b0b0b0; stroke-width: 0.5"/>
     </g>
     <g id="line2d_20">
      <g>
       <use xlink:href="#m484fbfd942" x="84.387813" y="59.515227" style="stroke: #000000; stroke-width: 0.8"/>
      </g>
     </g>
     <g id="text_11">
      <!-- 250 -->
      <g transform="translate(35.395313 67.873508) scale(0.22 -0.22)">
       <use xlink:href="#DejaVuSans-32"/>
       <use xlink:href="#DejaVuSans-35" x="63.623047"/>
       <use xlink:href="#DejaVuSans-30" x="127.246094"/>
      </g>
     </g>
    </g>
    <g id="text_12">
     <!-- Cumulated runtime / s -->
     <g transform="translate(26.196094 351.591484) rotate(-90) scale(0.25 -0.25)">
      <defs>
       <path id="DejaVuSans-43" d="M 4122 4306 
L 4122 3641 
Q 3803 3938 3442 4084 
Q 3081 4231 2675 4231 
Q 1875 4231 1450 3742 
Q 1025 3253 1025 2328 
Q 1025 1406 1450 917 
Q 1875 428 2675 428 
Q 3081 428 3442 575 
Q 3803 722 4122 1019 
L 4122 359 
Q 3791 134 3420 21 
Q 3050 -91 2638 -91 
Q 1578 -91 968 557 
Q 359 1206 359 2328 
Q 359 3453 968 4101 
Q 1578 4750 2638 4750 
Q 3056 4750 3426 4639 
Q 3797 4528 4122 4306 
z
" transform="scale(0.015625)"/>
       <path id="DejaVuSans-75" d="M 544 1381 
L 544 3500 
L 1119 3500 
L 1119 1403 
Q 1119 906 1312 657 
Q 1506 409 1894 409 
Q 2359 409 2629 706 
Q 2900 1003 2900 1516 
L 2900 3500 
L 3475 3500 
L 3475 0 
L 2900 0 
L 2900 538 
Q 2691 219 2414 64 
Q 2138 -91 1772 -91 
Q 1169 -91 856 284 
Q 544 659 544 1381 
z
M 1991 3584 
L 1991 3584 
z
" transform="scale(0.015625)"/>
       <path id="DejaVuSans-6d" d="M 3328 2828 
Q 3544 3216 3844 3400 
Q 4144 3584 4550 3584 
Q 5097 3584 5394 3201 
Q 5691 2819 5691 2113 
L 5691 0 
L 5113 0 
L 5113 2094 
Q 5113 2597 4934 2840 
Q 4756 3084 4391 3084 
Q 3944 3084 3684 2787 
Q 3425 2491 3425 1978 
L 3425 0 
L 2847 0 
L 2847 2094 
Q 2847 2600 2669 2842 
Q 2491 3084 2119 3084 
Q 1678 3084 1418 2786 
Q 1159 2488 1159 1978 
L 1159 0 
L 581 0 
L 581 3500 
L 1159 3500 
L 1159 2956 
Q 1356 3278 1631 3431 
Q 1906 3584 2284 3584 
Q 2666 3584 2933 3390 
Q 3200 3197 3328 2828 
z
" transform="scale(0.015625)"/>
       <path id="DejaVuSans-6c" d="M 603 4863 
L 1178 4863 
L 1178 0 
L 603 0 
L 603 4863 
z
" transform="scale(0.015625)"/>
       <path id="DejaVuSans-64" d="M 2906 2969 
L 2906 4863 
L 3481 4863 
L 3481 0 
L 2906 0 
L 2906 525 
Q 2725 213 2448 61 
Q 2172 -91 1784 -91 
Q 1150 -91 751 415 
Q 353 922 353 1747 
Q 353 2572 751 3078 
Q 1150 3584 1784 3584 
Q 2172 3584 2448 3432 
Q 2725 3281 2906 2969 
z
M 947 1747 
Q 947 1113 1208 752 
Q 1469 391 1925 391 
Q 2381 391 2643 752 
Q 2906 1113 2906 1747 
Q 2906 2381 2643 2742 
Q 2381 3103 1925 3103 
Q 1469 3103 1208 2742 
Q 947 2381 947 1747 
z
" transform="scale(0.015625)"/>
       <path id="DejaVuSans-20" transform="scale(0.015625)"/>
       <path id="DejaVuSans-2f" d="M 1625 4666 
L 2156 4666 
L 531 -594 
L 0 -594 
L 1625 4666 
z
" transform="scale(0.015625)"/>
       <path id="DejaVuSans-73" d="M 2834 3397 
L 2834 2853 
Q 2591 2978 2328 3040 
Q 2066 3103 1784 3103 
Q 1356 3103 1142 2972 
Q 928 2841 928 2578 
Q 928 2378 1081 2264 
Q 1234 2150 1697 2047 
L 1894 2003 
Q 2506 1872 2764 1633 
Q 3022 1394 3022 966 
Q 3022 478 2636 193 
Q 2250 -91 1575 -91 
Q 1294 -91 989 -36 
Q 684 19 347 128 
L 347 722 
Q 666 556 975 473 
Q 1284 391 1588 391 
Q 1994 391 2212 530 
Q 2431 669 2431 922 
Q 2431 1156 2273 1281 
Q 2116 1406 1581 1522 
L 1381 1569 
Q 847 1681 609 1914 
Q 372 2147 372 2553 
Q 372 3047 722 3315 
Q 1072 3584 1716 3584 
Q 2034 3584 2315 3537 
Q 2597 3491 2834 3397 
z
" transform="scale(0.015625)"/>
      </defs>
      <use xlink:href="#DejaVuSans-43"/>
      <use xlink:href="#DejaVuSans-75" x="69.824219"/>
      <use xlink:href="#DejaVuSans-6d" x="133.203125"/>
      <use xlink:href="#DejaVuSans-75" x="230.615234"/>
      <use xlink:href="#DejaVuSans-6c" x="293.994141"/>
      <use xlink:href="#DejaVuSans-61" x="321.777344"/>
      <use xlink:href="#DejaVuSans-74" x="383.056641"/>
      <use xlink:href="#DejaVuSans-65" x="422.265625"/>
      <use xlink:href="#DejaVuSans-64" x="483.789062"/>
      <use xlink:href="#DejaVuSans-20" x="547.265625"/>
      <use xlink:href="#DejaVuSans-72" x="579.052734"/>
      <use xlink:href="#DejaVuSans-75" x="620.166016"/>
      <use xlink:href="#DejaVuSans-6e" x="683.544922"/>
      <use xlink:href="#DejaVuSans-74" x="746.923828"/>
      <use xlink:href="#DejaVuSans-69" x="786.132812"/>
      <use xlink:href="#DejaVuSans-6d" x="813.916016"/>
      <use xlink:href="#DejaVuSans-65" x="911.328125"/>
      <use xlink:href="#DejaVuSans-20" x="972.851562"/>
      <use xlink:href="#DejaVuSans-2f" x="1004.638672"/>
      <use xlink:href="#DejaVuSans-20" x="1038.330078"/>
      <use xlink:href="#DejaVuSans-73" x="1070.117188"/>
     </g>
    </g>
   </g>
   <g id="line2d_21">
    <path d="M 107.215085 395.05255 
L 123.471897 388.05038 
L 146.50238 378.198947 
L 149.211848 376.948317 
L 151.921317 374.872542 
L 162.759191 370.264241 
L 183.080205 360.974233 
L 184.43494 359.946541 
L 197.982282 353.632217 
L 207.465422 349.075573 
L 210.174891 346.976689 
L 214.239094 345.137447 
L 234.560108 335.794422 
L 238.624311 333.677866 
L 253.526388 326.694727 
L 254.881122 325.561004 
L 256.235857 385.922949 
L 257.590591 383.129421 
L 258.945325 381.131132 
L 260.30006 378.712793 
L 263.009528 374.822245 
L 265.718997 370.092959 
L 271.137934 362.031831 
L 272.492668 359.90576 
L 273.847402 357.045622 
L 276.556871 353.240716 
L 277.911605 350.79519 
L 280.621074 347.077283 
L 281.975808 344.797601 
L 284.685277 341.230586 
L 286.040011 338.952264 
L 287.394745 337.216335 
L 288.74948 334.942091 
L 292.813682 329.571177 
L 294.168417 327.749607 
L 295.523151 325.391081 
L 296.877885 323.602136 
L 298.23262 321.224579 
L 299.587354 319.349993 
L 300.942088 317.07303 
L 306.361025 309.756842 
L 307.71576 307.482598 
L 309.070494 305.680059 
L 310.425228 303.362315 
L 313.134697 299.648487 
L 314.489431 297.306274 
L 317.1989 293.64682 
L 318.553634 291.353545 
L 321.263102 287.563591 
L 323.972571 283.542543 
L 325.327305 281.118767 
L 326.68204 279.166696 
L 328.036774 276.649123 
L 330.746242 272.564183 
L 332.100977 270.193423 
L 333.455711 268.250868 
L 334.810445 265.820295 
L 337.519914 262.041217 
L 338.874648 259.670457 
L 341.584117 255.880503 
L 342.938851 253.565477 
L 345.64832 249.757852 
L 347.003054 247.403404 
L 349.712523 243.760264 
L 351.067257 241.442519 
L 353.776725 237.787144 
L 355.13146 235.466681 
L 356.486194 233.704924 
L 357.840928 231.448352 
L 360.550397 227.89493 
L 361.905131 225.578545 
L 363.259865 223.770569 
L 364.6146 221.520794 
L 365.969334 219.761755 
L 367.324068 217.46712 
L 371.388271 212.028237 
L 374.09774 207.513734 
L 378.161943 201.919882 
L 380.871411 197.31294 
L 382.226145 195.515839 
L 383.58088 193.223923 
L 384.935614 191.448571 
L 386.290348 189.179765 
L 387.645083 187.382663 
L 388.999817 185.100263 
L 390.354551 183.274615 
L 391.709285 180.751604 
L 393.06402 178.80497 
L 394.418754 176.322741 
L 395.773488 174.48214 
L 397.128223 171.844941 
L 398.482957 169.95812 
L 399.837691 167.541141 
L 401.192425 165.620336 
L 402.54716 163.140825 
L 403.901894 161.22138 
L 405.256628 391.379503 
L 412.0303 385.984121 
L 421.51344 378.839216 
L 428.287111 373.719787 
L 439.124985 365.587971 
L 451.317594 356.365932 
L 474.348077 338.736122 
L 477.057545 336.538004 
L 483.831217 331.048824 
L 490.604888 325.541972 
L 496.023825 321.043781 
L 504.152231 314.356987 
L 506.8617 312.021571 
L 509.571168 308.938495 
L 513.635371 305.752106 
L 523.118511 298.237449 
L 529.892183 293.017427 
L 551.567931 276.635529 
L 551.567931 276.635529 
" clip-path="url(#p399e1b0638)" style="fill: none; stroke-dasharray: 7.4,3.2; stroke-dashoffset: 0; stroke: #ff7f0e; stroke-width: 2"/>
   </g>
   <g id="line2d_22">
    <path d="M 107.215085 396.883636 
L 112.634022 395.154504 
L 118.05296 393.685013 
L 127.5361 391.307456 
L 130.245568 390.226749 
L 145.147645 385.893043 
L 161.404457 381.653134 
L 179.016002 377.02988 
L 188.499142 374.524541 
L 197.982282 371.947155 
L 208.820157 368.938845 
L 216.948562 366.771992 
L 222.3675 365.229095 
L 249.462185 357.84222 
L 254.881122 356.277572 
L 257.590591 354.627284 
L 258.945325 354.264329 
L 260.30006 395.187129 
L 264.364262 391.959959 
L 268.428465 389.042728 
L 273.847402 385.530088 
L 284.685277 378.722309 
L 295.523151 371.968905 
L 307.71576 364.621452 
L 342.938851 343.832441 
L 344.293585 342.876796 
L 364.6146 330.585275 
L 375.452474 323.757105 
L 390.354551 314.204736 
L 409.320831 301.797668 
L 412.0303 300.012801 
L 413.385034 395.787975 
L 418.803971 393.285355 
L 424.222908 391.12394 
L 443.189188 384.006222 
L 454.027063 379.586875 
L 463.510203 375.75614 
L 467.574405 374.08682 
L 471.638608 372.46236 
L 485.185951 366.773352 
L 489.250154 365.083641 
L 494.669091 362.795803 
L 517.699574 353.104777 
L 524.473245 350.320766 
L 538.020588 344.656226 
L 544.79426 341.797448 
L 548.858463 340.141722 
L 552.922665 338.38948 
L 558.341603 336.185924 
L 563.76054 334.023149 
L 563.76054 334.023149 
" clip-path="url(#p399e1b0638)" style="fill: none; stroke: #ff7f0e; stroke-width: 2; stroke-linecap: square"/>
   </g>
   <g id="line2d_23">
    <path d="M 107.215085 385.922949 
L 108.56982 383.129421 
L 109.924554 381.131132 
L 111.279288 378.712793 
L 113.988757 374.822245 
L 116.698225 370.092959 
L 122.117162 362.031831 
L 123.471897 359.90576 
L 124.826631 357.045622 
L 127.5361 353.240716 
L 128.890834 350.79519 
L 131.600302 347.077283 
L 132.955037 344.797601 
L 135.664505 341.230586 
L 137.01924 338.952264 
L 138.373974 337.216335 
L 139.728708 334.942091 
L 143.792911 329.571177 
L 145.147645 327.749607 
L 146.50238 325.391081 
L 147.857114 323.602136 
L 149.211848 321.224579 
L 150.566582 319.349993 
L 151.921317 317.07303 
L 157.340254 309.756842 
L 158.694988 307.482598 
L 160.049722 305.680059 
L 161.404457 303.362315 
L 164.113925 299.648487 
L 165.46866 297.306274 
L 168.178128 293.64682 
L 169.532862 291.353545 
L 172.242331 287.563591 
L 174.9518 283.542543 
L 176.306534 281.118767 
L 177.661268 279.166696 
L 179.016002 276.649123 
L 181.725471 272.564183 
L 183.080205 270.193423 
L 184.43494 268.250868 
L 185.789674 265.820295 
L 188.499142 262.041217 
L 189.853877 259.670457 
L 192.563345 255.880503 
L 193.91808 253.565477 
L 196.627548 249.757852 
L 197.982282 247.403404 
L 200.691751 243.760264 
L 202.046485 241.442519 
L 204.755954 237.787144 
L 206.110688 235.466681 
L 207.465422 233.704924 
L 208.820157 231.448352 
L 211.529625 227.89493 
L 212.88436 225.578545 
L 214.239094 223.770569 
L 215.593828 221.520794 
L 216.948562 219.761755 
L 218.303297 217.46712 
L 222.3675 212.028237 
L 225.076968 207.513734 
L 229.141171 201.919882 
L 231.85064 197.31294 
L 233.205374 195.515839 
L 234.560108 193.223923 
L 235.914842 191.448571 
L 237.269577 189.179765 
L 238.624311 187.382663 
L 239.979045 185.100263 
L 241.33378 183.274615 
L 242.688514 180.751604 
L 244.043248 178.80497 
L 245.397982 176.322741 
L 246.752717 174.48214 
L 248.107451 171.844941 
L 249.462185 169.95812 
L 250.81692 167.541141 
L 252.171654 165.620336 
L 253.526388 163.140825 
L 254.881122 161.22138 
L 256.235857 391.379503 
L 263.009528 385.984121 
L 272.492668 378.839216 
L 279.26634 373.719787 
L 290.104214 365.587971 
L 302.296822 356.365932 
L 325.327305 338.736122 
L 328.036774 336.538004 
L 334.810445 331.048824 
L 341.584117 325.541972 
L 347.003054 321.043781 
L 355.13146 314.356987 
L 357.840928 312.021571 
L 360.550397 308.938495 
L 364.6146 305.752106 
L 374.09774 298.237449 
L 380.871411 293.017427 
L 403.901894 275.569774 
L 405.256628 377.787055 
L 406.611363 374.790979 
L 407.966097 371.285136 
L 412.0303 362.241176 
L 413.385034 359.052069 
L 414.739768 355.045973 
L 416.094503 352.025429 
L 417.449237 348.535899 
L 418.803971 345.493604 
L 420.158705 342.023105 
L 421.51344 339.107233 
L 425.577643 329.304738 
L 426.932377 325.3938 
L 428.287111 322.249552 
L 429.641845 318.564271 
L 435.060783 305.383714 
L 436.415517 301.676683 
L 437.770251 298.571857 
L 439.124985 295.099998 
L 440.47972 292.165095 
L 441.834454 288.630705 
L 444.543923 282.728274 
L 445.898657 279.197962 
L 448.608125 273.349906 
L 449.96286 269.835906 
L 452.672328 264.034069 
L 454.027063 260.54046 
L 456.736531 254.757654 
L 459.446 248.096688 
L 460.800734 244.861362 
L 462.155468 241.13394 
L 464.864937 234.611631 
L 466.219671 230.874693 
L 467.574405 227.644804 
L 468.92914 224.007101 
L 470.283874 220.801681 
L 471.638608 217.249619 
L 474.348077 211.220765 
L 475.702811 207.717641 
L 477.057545 204.818082 
L 478.41228 201.44138 
L 479.767014 198.426273 
L 481.121748 194.999274 
L 482.476483 192.072527 
L 483.831217 188.630575 
L 485.185951 185.627703 
L 486.540685 182.217016 
L 487.89542 179.301144 
L 489.250154 175.856474 
L 490.604888 173.026243 
L 491.959623 169.906464 
L 493.314357 166.412855 
L 494.669091 163.392311 
L 496.023825 159.921812 
L 497.37856 157.050799 
L 498.733294 153.816833 
L 500.088028 150.120676 
L 502.797497 143.61468 
L 504.152231 139.913086 
L 506.8617 133.352714 
L 508.216434 129.71773 
L 510.925903 123.355827 
L 512.280637 119.782015 
L 514.990105 113.68927 
L 516.34484 110.26499 
L 519.054308 104.353043 
L 520.409043 100.999451 
L 523.118511 95.086144 
L 524.473245 91.625161 
L 525.82798 88.690257 
L 527.182714 85.264618 
L 529.892183 79.194983 
L 531.246917 76.01811 
L 532.601651 72.48236 
L 533.956385 69.434628 
L 535.31112 66.007629 
L 538.020588 60.050823 
L 542.084791 49.545528 
L 543.439525 46.504593 
L 544.79426 42.798921 
L 547.503728 36.305159 
L 548.858463 32.558705 
L 550.213197 29.373676 
L 551.567931 25.756364 
L 551.567931 25.756364 
" clip-path="url(#p399e1b0638)" style="fill: none; stroke-dasharray: 7.4,3.2; stroke-dashoffset: 0; stroke: #d62728; stroke-width: 2"/>
   </g>
   <g id="line2d_24">
    <path d="M 107.215085 395.187129 
L 111.279288 391.959959 
L 115.343491 389.042728 
L 120.762428 385.530088 
L 131.600302 378.722309 
L 142.438177 371.968905 
L 154.630785 364.621452 
L 189.853877 343.832441 
L 191.208611 342.876796 
L 211.529625 330.585275 
L 222.3675 323.757105 
L 237.269577 314.204736 
L 256.235857 301.797668 
L 258.945325 300.012801 
L 260.30006 395.787975 
L 265.718997 393.285355 
L 271.137934 391.12394 
L 290.104214 384.006222 
L 300.942088 379.586875 
L 310.425228 375.75614 
L 314.489431 374.08682 
L 318.553634 372.46236 
L 332.100977 366.773352 
L 336.16518 365.083641 
L 341.584117 362.795803 
L 364.6146 353.104777 
L 371.388271 350.320766 
L 384.935614 344.656226 
L 391.709285 341.797448 
L 395.773488 340.141722 
L 399.837691 338.38948 
L 405.256628 336.185924 
L 412.0303 333.510663 
L 413.385034 392.971338 
L 417.449237 388.349444 
L 421.51344 384.157113 
L 425.577643 380.479988 
L 436.415517 370.935776 
L 443.189188 364.758749 
L 449.96286 358.661926 
L 454.027063 354.96577 
L 463.510203 345.962591 
L 472.993343 336.680739 
L 487.89542 321.981754 
L 500.088028 310.520814 
L 528.537448 285.156128 
L 542.084791 272.808872 
L 543.439525 271.544648 
L 547.503728 267.408052 
L 562.405805 252.903459 
L 563.76054 251.549516 
L 563.76054 251.549516 
" clip-path="url(#p399e1b0638)" style="fill: none; stroke: #d62728; stroke-width: 2; stroke-linecap: square"/>
   </g>
   <g id="patch_3">
    <path d="M 84.387813 415.44 
L 84.387813 7.2 
" style="fill: none; stroke: #000000; stroke-width: 0.8; stroke-linejoin: miter; stroke-linecap: square"/>
   </g>
   <g id="patch_4">
    <path d="M 586.587813 415.44 
L 586.587813 7.2 
" style="fill: none; stroke: #000000; stroke-width: 0.8; stroke-linejoin: miter; stroke-linecap: square"/>
   </g>
   <g id="patch_5">
    <path d="M 84.387813 415.44 
L 586.587813 415.44 
" style="fill: none; stroke: #000000; stroke-width: 0.8; stroke-linejoin: miter; stroke-linecap: square"/>
   </g>
   <g id="patch_6">
    <path d="M 84.387813 7.2 
L 586.587813 7.2 
" style="fill: none; stroke: #000000; stroke-width: 0.8; stroke-linejoin: miter; stroke-linecap: square"/>
   </g>
   <g id="legend_1">
    <g id="patch_7">
     <path d="M 26.687813 561.476 
L 644.287812 561.476 
Q 648.287812 561.476 648.287812 557.476 
L 648.287812 490.676 
Q 648.287812 486.676 644.287812 486.676 
L 26.687813 486.676 
Q 22.687813 486.676 22.687813 490.676 
L 22.687813 557.476 
Q 22.687813 561.476 26.687813 561.476 
z
" style="fill: #ffffff; stroke: #cccccc; stroke-linejoin: miter"/>
    </g>
    <g id="line2d_25">
     <path d="M 30.687813 506.276 
L 50.687813 506.276 
L 70.687813 506.276 
" style="fill: none; stroke-dasharray: 7.4,3.2; stroke-dashoffset: 0; stroke: #ff7f0e; stroke-width: 2"/>
    </g>
    <g id="text_13">
     <!-- DG-Julia, $N_e^b$ = 2, $N_d^b$=4 -->
     <g transform="translate(86.687813 513.276) scale(0.2 -0.2)">
      <defs>
       <path id="DejaVuSans-44" d="M 1259 4147 
L 1259 519 
L 2022 519 
Q 2988 519 3436 956 
Q 3884 1394 3884 2338 
Q 3884 3275 3436 3711 
Q 2988 4147 2022 4147 
L 1259 4147 
z
M 628 4666 
L 1925 4666 
Q 3281 4666 3915 4102 
Q 4550 3538 4550 2338 
Q 4550 1131 3912 565 
Q 3275 0 1925 0 
L 628 0 
L 628 4666 
z
" transform="scale(0.015625)"/>
       <path id="DejaVuSans-47" d="M 3809 666 
L 3809 1919 
L 2778 1919 
L 2778 2438 
L 4434 2438 
L 4434 434 
Q 4069 175 3628 42 
Q 3188 -91 2688 -91 
Q 1594 -91 976 548 
Q 359 1188 359 2328 
Q 359 3472 976 4111 
Q 1594 4750 2688 4750 
Q 3144 4750 3555 4637 
Q 3966 4525 4313 4306 
L 4313 3634 
Q 3963 3931 3569 4081 
Q 3175 4231 2741 4231 
Q 1884 4231 1454 3753 
Q 1025 3275 1025 2328 
Q 1025 1384 1454 906 
Q 1884 428 2741 428 
Q 3075 428 3337 486 
Q 3600 544 3809 666 
z
" transform="scale(0.015625)"/>
       <path id="DejaVuSans-2d" d="M 313 2009 
L 1997 2009 
L 1997 1497 
L 313 1497 
L 313 2009 
z
" transform="scale(0.015625)"/>
       <path id="DejaVuSans-4a" d="M 628 4666 
L 1259 4666 
L 1259 325 
Q 1259 -519 939 -900 
Q 619 -1281 -91 -1281 
L -331 -1281 
L -331 -750 
L -134 -750 
Q 284 -750 456 -515 
Q 628 -281 628 325 
L 628 4666 
z
" transform="scale(0.015625)"/>
       <path id="DejaVuSans-2c" d="M 750 794 
L 1409 794 
L 1409 256 
L 897 -744 
L 494 -744 
L 750 256 
L 750 794 
z
" transform="scale(0.015625)"/>
       <path id="DejaVuSans-Oblique-4e" d="M 1081 4666 
L 1931 4666 
L 3219 666 
L 4000 4666 
L 4616 4666 
L 3706 0 
L 2853 0 
L 1569 4025 
L 788 0 
L 172 0 
L 1081 4666 
z
" transform="scale(0.015625)"/>
       <path id="DejaVuSans-Oblique-62" d="M 3169 2138 
Q 3169 2591 2961 2847 
Q 2753 3103 2388 3103 
Q 2122 3103 1889 2973 
Q 1656 2844 1484 2597 
Q 1303 2338 1198 1995 
Q 1094 1653 1094 1313 
Q 1094 881 1298 636 
Q 1503 391 1863 391 
Q 2134 391 2365 517 
Q 2597 644 2772 891 
Q 2950 1147 3059 1487 
Q 3169 1828 3169 2138 
z
M 1381 2969 
Q 1594 3256 1914 3420 
Q 2234 3584 2584 3584 
Q 3122 3584 3439 3221 
Q 3756 2859 3756 2241 
Q 3756 1734 3570 1259 
Q 3384 784 3041 416 
Q 2816 172 2522 40 
Q 2228 -91 1906 -91 
Q 1566 -91 1316 65 
Q 1066 222 909 531 
L 806 0 
L 231 0 
L 1178 4863 
L 1753 4863 
L 1381 2969 
z
" transform="scale(0.015625)"/>
       <path id="DejaVuSans-Oblique-65" d="M 3078 2063 
Q 3088 2113 3092 2166 
Q 3097 2219 3097 2272 
Q 3097 2653 2873 2875 
Q 2650 3097 2266 3097 
Q 1838 3097 1509 2826 
Q 1181 2556 1013 2059 
L 3078 2063 
z
M 3578 1613 
L 903 1613 
Q 884 1494 878 1425 
Q 872 1356 872 1306 
Q 872 872 1139 634 
Q 1406 397 1894 397 
Q 2269 397 2603 481 
Q 2938 566 3225 728 
L 3116 159 
Q 2806 34 2476 -28 
Q 2147 -91 1806 -91 
Q 1078 -91 686 257 
Q 294 606 294 1247 
Q 294 1794 489 2264 
Q 684 2734 1063 3103 
Q 1306 3334 1642 3459 
Q 1978 3584 2356 3584 
Q 2950 3584 3301 3228 
Q 3653 2872 3653 2272 
Q 3653 2128 3634 1964 
Q 3616 1800 3578 1613 
z
" transform="scale(0.015625)"/>
       <path id="DejaVuSans-3d" d="M 678 2906 
L 4684 2906 
L 4684 2381 
L 678 2381 
L 678 2906 
z
M 678 1631 
L 4684 1631 
L 4684 1100 
L 678 1100 
L 678 1631 
z
" transform="scale(0.015625)"/>
       <path id="DejaVuSans-Oblique-64" d="M 2675 525 
Q 2444 222 2128 65 
Q 1813 -91 1428 -91 
Q 903 -91 598 267 
Q 294 625 294 1247 
Q 294 1766 478 2236 
Q 663 2706 1013 3078 
Q 1244 3325 1534 3454 
Q 1825 3584 2144 3584 
Q 2481 3584 2739 3421 
Q 2997 3259 3138 2956 
L 3513 4863 
L 4091 4863 
L 3144 0 
L 2566 0 
L 2675 525 
z
M 891 1350 
Q 891 897 1095 644 
Q 1300 391 1663 391 
Q 1931 391 2161 520 
Q 2391 650 2566 903 
Q 2750 1166 2856 1509 
Q 2963 1853 2963 2188 
Q 2963 2622 2758 2865 
Q 2553 3109 2194 3109 
Q 1922 3109 1687 2981 
Q 1453 2853 1288 2613 
Q 1106 2353 998 2009 
Q 891 1666 891 1350 
z
" transform="scale(0.015625)"/>
       <path id="DejaVuSans-34" d="M 2419 4116 
L 825 1625 
L 2419 1625 
L 2419 4116 
z
M 2253 4666 
L 3047 4666 
L 3047 1625 
L 3713 1625 
L 3713 1100 
L 3047 1100 
L 3047 0 
L 2419 0 
L 2419 1100 
L 313 1100 
L 313 1709 
L 2253 4666 
z
" transform="scale(0.015625)"/>
      </defs>
      <use xlink:href="#DejaVuSans-44" transform="translate(0 0.470313)"/>
      <use xlink:href="#DejaVuSans-47" transform="translate(77.001953 0.470313)"/>
      <use xlink:href="#DejaVuSans-2d" transform="translate(154.492188 0.470313)"/>
      <use xlink:href="#DejaVuSans-4a" transform="translate(190.576172 0.470313)"/>
      <use xlink:href="#DejaVuSans-75" transform="translate(220.068359 0.470313)"/>
      <use xlink:href="#DejaVuSans-6c" transform="translate(283.447266 0.470313)"/>
      <use xlink:href="#DejaVuSans-69" transform="translate(311.230469 0.470313)"/>
      <use xlink:href="#DejaVuSans-61" transform="translate(339.013672 0.470313)"/>
      <use xlink:href="#DejaVuSans-2c" transform="translate(400.292969 0.470313)"/>
      <use xlink:href="#DejaVuSans-20" transform="translate(432.080078 0.470313)"/>
      <use xlink:href="#DejaVuSans-Oblique-4e" transform="translate(463.867188 0.470313)"/>
      <use xlink:href="#DejaVuSans-Oblique-62" transform="translate(545.688646 38.751563) scale(0.7)"/>
      <use xlink:href="#DejaVuSans-Oblique-65" transform="translate(538.671875 -26.873437) scale(0.7)"/>
      <use xlink:href="#DejaVuSans-20" transform="translate(592.856615 0.470313)"/>
      <use xlink:href="#DejaVuSans-3d" transform="translate(624.643724 0.470313)"/>
      <use xlink:href="#DejaVuSans-20" transform="translate(708.432786 0.470313)"/>
      <use xlink:href="#DejaVuSans-32" transform="translate(740.219896 0.470313)"/>
      <use xlink:href="#DejaVuSans-2c" transform="translate(803.842943 0.470313)"/>
      <use xlink:href="#DejaVuSans-20" transform="translate(835.630052 0.470313)"/>
      <use xlink:href="#DejaVuSans-Oblique-4e" transform="translate(867.417161 0.470313)"/>
      <use xlink:href="#DejaVuSans-Oblique-62" transform="translate(949.23862 39.810938) scale(0.7)"/>
      <use xlink:href="#DejaVuSans-Oblique-64" transform="translate(942.221849 -26.873437) scale(0.7)"/>
      <use xlink:href="#DejaVuSans-3d" transform="translate(996.406589 0.470313)"/>
      <use xlink:href="#DejaVuSans-34" transform="translate(1080.195651 0.470313)"/>
     </g>
    </g>
    <g id="line2d_26">
     <path d="M 30.687813 540.676 
L 50.687813 540.676 
L 70.687813 540.676 
" style="fill: none; stroke: #ff7f0e; stroke-width: 2; stroke-linecap: square"/>
    </g>
    <g id="text_14">
     <!-- OCA-FPI, $N_e^b$ = 2, $N_d^b$=4 -->
     <g transform="translate(86.687813 547.676) scale(0.2 -0.2)">
      <defs>
       <path id="DejaVuSans-4f" d="M 2522 4238 
Q 1834 4238 1429 3725 
Q 1025 3213 1025 2328 
Q 1025 1447 1429 934 
Q 1834 422 2522 422 
Q 3209 422 3611 934 
Q 4013 1447 4013 2328 
Q 4013 3213 3611 3725 
Q 3209 4238 2522 4238 
z
M 2522 4750 
Q 3503 4750 4090 4092 
Q 4678 3434 4678 2328 
Q 4678 1225 4090 567 
Q 3503 -91 2522 -91 
Q 1538 -91 948 565 
Q 359 1222 359 2328 
Q 359 3434 948 4092 
Q 1538 4750 2522 4750 
z
" transform="scale(0.015625)"/>
       <path id="DejaVuSans-41" d="M 2188 4044 
L 1331 1722 
L 3047 1722 
L 2188 4044 
z
M 1831 4666 
L 2547 4666 
L 4325 0 
L 3669 0 
L 3244 1197 
L 1141 1197 
L 716 0 
L 50 0 
L 1831 4666 
z
" transform="scale(0.015625)"/>
       <path id="DejaVuSans-46" d="M 628 4666 
L 3309 4666 
L 3309 4134 
L 1259 4134 
L 1259 2759 
L 3109 2759 
L 3109 2228 
L 1259 2228 
L 1259 0 
L 628 0 
L 628 4666 
z
" transform="scale(0.015625)"/>
       <path id="DejaVuSans-50" d="M 1259 4147 
L 1259 2394 
L 2053 2394 
Q 2494 2394 2734 2622 
Q 2975 2850 2975 3272 
Q 2975 3691 2734 3919 
Q 2494 4147 2053 4147 
L 1259 4147 
z
M 628 4666 
L 2053 4666 
Q 2838 4666 3239 4311 
Q 3641 3956 3641 3272 
Q 3641 2581 3239 2228 
Q 2838 1875 2053 1875 
L 1259 1875 
L 1259 0 
L 628 0 
L 628 4666 
z
" transform="scale(0.015625)"/>
      </defs>
      <use xlink:href="#DejaVuSans-4f" transform="translate(0 0.470313)"/>
      <use xlink:href="#DejaVuSans-43" transform="translate(78.710938 0.470313)"/>
      <use xlink:href="#DejaVuSans-41" transform="translate(148.535156 0.470313)"/>
      <use xlink:href="#DejaVuSans-2d" transform="translate(216.943359 0.470313)"/>
      <use xlink:href="#DejaVuSans-46" transform="translate(253.027344 0.470313)"/>
      <use xlink:href="#DejaVuSans-50" transform="translate(310.546875 0.470313)"/>
      <use xlink:href="#DejaVuSans-49" transform="translate(370.849609 0.470313)"/>
      <use xlink:href="#DejaVuSans-2c" transform="translate(400.341797 0.470313)"/>
      <use xlink:href="#DejaVuSans-20" transform="translate(432.128906 0.470313)"/>
      <use xlink:href="#DejaVuSans-Oblique-4e" transform="translate(463.916016 0.470313)"/>
      <use xlink:href="#DejaVuSans-Oblique-62" transform="translate(545.737474 38.751563) scale(0.7)"/>
      <use xlink:href="#DejaVuSans-Oblique-65" transform="translate(538.720703 -26.873437) scale(0.7)"/>
      <use xlink:href="#DejaVuSans-20" transform="translate(592.905443 0.470313)"/>
      <use xlink:href="#DejaVuSans-3d" transform="translate(624.692552 0.470313)"/>
      <use xlink:href="#DejaVuSans-20" transform="translate(708.481615 0.470313)"/>
      <use xlink:href="#DejaVuSans-32" transform="translate(740.268724 0.470313)"/>
      <use xlink:href="#DejaVuSans-2c" transform="translate(803.891771 0.470313)"/>
      <use xlink:href="#DejaVuSans-20" transform="translate(835.67888 0.470313)"/>
      <use xlink:href="#DejaVuSans-Oblique-4e" transform="translate(867.46599 0.470313)"/>
      <use xlink:href="#DejaVuSans-Oblique-62" transform="translate(949.287448 39.810938) scale(0.7)"/>
      <use xlink:href="#DejaVuSans-Oblique-64" transform="translate(942.270677 -26.873437) scale(0.7)"/>
      <use xlink:href="#DejaVuSans-3d" transform="translate(996.455417 0.470313)"/>
      <use xlink:href="#DejaVuSans-34" transform="translate(1080.244479 0.470313)"/>
     </g>
    </g>
    <g id="line2d_27">
     <path d="M 355.487813 506.276 
L 375.487813 506.276 
L 395.487813 506.276 
" style="fill: none; stroke-dasharray: 7.4,3.2; stroke-dashoffset: 0; stroke: #d62728; stroke-width: 2"/>
    </g>
    <g id="text_15">
     <!-- DG-Julia, $N_e^b$ = 4, $N_d^b$=4 -->
     <g transform="translate(411.487813 513.276) scale(0.2 -0.2)">
      <use xlink:href="#DejaVuSans-44" transform="translate(0 0.470313)"/>
      <use xlink:href="#DejaVuSans-47" transform="translate(77.001953 0.470313)"/>
      <use xlink:href="#DejaVuSans-2d" transform="translate(154.492188 0.470313)"/>
      <use xlink:href="#DejaVuSans-4a" transform="translate(190.576172 0.470313)"/>
      <use xlink:href="#DejaVuSans-75" transform="translate(220.068359 0.470313)"/>
      <use xlink:href="#DejaVuSans-6c" transform="translate(283.447266 0.470313)"/>
      <use xlink:href="#DejaVuSans-69" transform="translate(311.230469 0.470313)"/>
      <use xlink:href="#DejaVuSans-61" transform="translate(339.013672 0.470313)"/>
      <use xlink:href="#DejaVuSans-2c" transform="translate(400.292969 0.470313)"/>
      <use xlink:href="#DejaVuSans-20" transform="translate(432.080078 0.470313)"/>
      <use xlink:href="#DejaVuSans-Oblique-4e" transform="translate(463.867188 0.470313)"/>
      <use xlink:href="#DejaVuSans-Oblique-62" transform="translate(545.688646 38.751563) scale(0.7)"/>
      <use xlink:href="#DejaVuSans-Oblique-65" transform="translate(538.671875 -26.873437) scale(0.7)"/>
      <use xlink:href="#DejaVuSans-20" transform="translate(592.856615 0.470313)"/>
      <use xlink:href="#DejaVuSans-3d" transform="translate(624.643724 0.470313)"/>
      <use xlink:href="#DejaVuSans-20" transform="translate(708.432786 0.470313)"/>
      <use xlink:href="#DejaVuSans-34" transform="translate(740.219896 0.470313)"/>
      <use xlink:href="#DejaVuSans-2c" transform="translate(803.842943 0.470313)"/>
      <use xlink:href="#DejaVuSans-20" transform="translate(835.630052 0.470313)"/>
      <use xlink:href="#DejaVuSans-Oblique-4e" transform="translate(867.417161 0.470313)"/>
      <use xlink:href="#DejaVuSans-Oblique-62" transform="translate(949.23862 39.810938) scale(0.7)"/>
      <use xlink:href="#DejaVuSans-Oblique-64" transform="translate(942.221849 -26.873437) scale(0.7)"/>
      <use xlink:href="#DejaVuSans-3d" transform="translate(996.406589 0.470313)"/>
      <use xlink:href="#DejaVuSans-34" transform="translate(1080.195651 0.470313)"/>
     </g>
    </g>
    <g id="line2d_28">
     <path d="M 355.487813 540.676 
L 375.487813 540.676 
L 395.487813 540.676 
" style="fill: none; stroke: #d62728; stroke-width: 2; stroke-linecap: square"/>
    </g>
    <g id="text_16">
     <!-- OCA-FPI, $N_e^b$ = 4, $N_d^b$=4 -->
     <g transform="translate(411.487813 547.676) scale(0.2 -0.2)">
      <use xlink:href="#DejaVuSans-4f" transform="translate(0 0.470313)"/>
      <use xlink:href="#DejaVuSans-43" transform="translate(78.710938 0.470313)"/>
      <use xlink:href="#DejaVuSans-41" transform="translate(148.535156 0.470313)"/>
      <use xlink:href="#DejaVuSans-2d" transform="translate(216.943359 0.470313)"/>
      <use xlink:href="#DejaVuSans-46" transform="translate(253.027344 0.470313)"/>
      <use xlink:href="#DejaVuSans-50" transform="translate(310.546875 0.470313)"/>
      <use xlink:href="#DejaVuSans-49" transform="translate(370.849609 0.470313)"/>
      <use xlink:href="#DejaVuSans-2c" transform="translate(400.341797 0.470313)"/>
      <use xlink:href="#DejaVuSans-20" transform="translate(432.128906 0.470313)"/>
      <use xlink:href="#DejaVuSans-Oblique-4e" transform="translate(463.916016 0.470313)"/>
      <use xlink:href="#DejaVuSans-Oblique-62" transform="translate(545.737474 38.751563) scale(0.7)"/>
      <use xlink:href="#DejaVuSans-Oblique-65" transform="translate(538.720703 -26.873437) scale(0.7)"/>
      <use xlink:href="#DejaVuSans-20" transform="translate(592.905443 0.470313)"/>
      <use xlink:href="#DejaVuSans-3d" transform="translate(624.692552 0.470313)"/>
      <use xlink:href="#DejaVuSans-20" transform="translate(708.481615 0.470313)"/>
      <use xlink:href="#DejaVuSans-34" transform="translate(740.268724 0.470313)"/>
      <use xlink:href="#DejaVuSans-2c" transform="translate(803.891771 0.470313)"/>
      <use xlink:href="#DejaVuSans-20" transform="translate(835.67888 0.470313)"/>
      <use xlink:href="#DejaVuSans-Oblique-4e" transform="translate(867.46599 0.470313)"/>
      <use xlink:href="#DejaVuSans-Oblique-62" transform="translate(949.287448 39.810938) scale(0.7)"/>
      <use xlink:href="#DejaVuSans-Oblique-64" transform="translate(942.270677 -26.873437) scale(0.7)"/>
      <use xlink:href="#DejaVuSans-3d" transform="translate(996.455417 0.470313)"/>
      <use xlink:href="#DejaVuSans-34" transform="translate(1080.244479 0.470313)"/>
     </g>
    </g>
   </g>
  </g>
 </g>
 <defs>
  <clipPath id="p399e1b0638">
   <rect x="84.387813" y="7.2" width="502.2" height="408.24"/>
  </clipPath>
 </defs>
</svg>
