<?xml version="1.0" encoding="utf-8" standalone="no"?>
<!DOCTYPE svg PUBLIC "-//W3C//DTD SVG 1.1//EN"
  "http://www.w3.org/Graphics/SVG/1.1/DTD/svg11.dtd">
<svg xmlns:xlink="http://www.w3.org/1999/xlink" width="720pt" height="504pt" viewBox="0 0 720 504" xmlns="http://www.w3.org/2000/svg" version="1.1">
 <metadata>
  <rdf:RDF xmlns:dc="http://purl.org/dc/elements/1.1/" xmlns:cc="http://creativecommons.org/ns#" xmlns:rdf="http://www.w3.org/1999/02/22-rdf-syntax-ns#">
   <cc:Work>
    <dc:type rdf:resource="http://purl.org/dc/dcmitype/StillImage"/>
    <dc:date>2024-10-07T10:55:10.788771</dc:date>
    <dc:format>image/svg+xml</dc:format>
    <dc:creator>
     <cc:Agent>
      <dc:title>Matplotlib v3.9.1, https://matplotlib.org/</dc:title>
     </cc:Agent>
    </dc:creator>
   </cc:Work>
  </rdf:RDF>
 </metadata>
 <defs>
  <style type="text/css">*{stroke-linejoin: round; stroke-linecap: butt}</style>
 </defs>
 <g id="figure_1">
  <g id="patch_1">
   <path d="M 0 504 
L 720 504 
L 720 0 
L 0 0 
z
" style="fill: #ffffff"/>
  </g>
  <g id="axes_1">
   <g id="patch_2">
    <path d="M 108 219.03 
L 648 219.03 
L 648 60.48 
L 108 60.48 
z
" style="fill: #ffffff"/>
   </g>
   <g id="matplotlib.axis_1">
    <g id="xtick_1">
     <g id="line2d_1">
      <defs>
       <path id="m695b0991d0" d="M 0 0 
L 0 3.5 
" style="stroke: #000000; stroke-width: 0.8"/>
      </defs>
      <g>
       <use xlink:href="#m695b0991d0" x="132.545455" y="219.03" style="stroke: #000000; stroke-width: 0.8"/>
      </g>
     </g>
     <g id="text_1">
      <!-- 0 -->
      <g transform="translate(126.182955 241.226875) scale(0.2 -0.2)">
       <defs>
        <path id="DejaVuSans-30" d="M 2034 4250 
Q 1547 4250 1301 3770 
Q 1056 3291 1056 2328 
Q 1056 1369 1301 889 
Q 1547 409 2034 409 
Q 2525 409 2770 889 
Q 3016 1369 3016 2328 
Q 3016 3291 2770 3770 
Q 2525 4250 2034 4250 
z
M 2034 4750 
Q 2819 4750 3233 4129 
Q 3647 3509 3647 2328 
Q 3647 1150 3233 529 
Q 2819 -91 2034 -91 
Q 1250 -91 836 529 
Q 422 1150 422 2328 
Q 422 3509 836 4129 
Q 1250 4750 2034 4750 
z
" transform="scale(0.015625)"/>
       </defs>
       <use xlink:href="#DejaVuSans-30"/>
      </g>
     </g>
    </g>
    <g id="xtick_2">
     <g id="line2d_2">
      <g>
       <use xlink:href="#m695b0991d0" x="200.378685" y="219.03" style="stroke: #000000; stroke-width: 0.8"/>
      </g>
     </g>
     <g id="text_2">
      <!-- 100 -->
      <g transform="translate(181.291185 241.226875) scale(0.2 -0.2)">
       <defs>
        <path id="DejaVuSans-31" d="M 794 531 
L 1825 531 
L 1825 4091 
L 703 3866 
L 703 4441 
L 1819 4666 
L 2450 4666 
L 2450 531 
L 3481 531 
L 3481 0 
L 794 0 
L 794 531 
z
" transform="scale(0.015625)"/>
       </defs>
       <use xlink:href="#DejaVuSans-31"/>
       <use xlink:href="#DejaVuSans-30" x="63.623047"/>
       <use xlink:href="#DejaVuSans-30" x="127.246094"/>
      </g>
     </g>
    </g>
    <g id="xtick_3">
     <g id="line2d_3">
      <g>
       <use xlink:href="#m695b0991d0" x="268.211916" y="219.03" style="stroke: #000000; stroke-width: 0.8"/>
      </g>
     </g>
     <g id="text_3">
      <!-- 200 -->
      <g transform="translate(249.124416 241.226875) scale(0.2 -0.2)">
       <defs>
        <path id="DejaVuSans-32" d="M 1228 531 
L 3431 531 
L 3431 0 
L 469 0 
L 469 531 
Q 828 903 1448 1529 
Q 2069 2156 2228 2338 
Q 2531 2678 2651 2914 
Q 2772 3150 2772 3378 
Q 2772 3750 2511 3984 
Q 2250 4219 1831 4219 
Q 1534 4219 1204 4116 
Q 875 4013 500 3803 
L 500 4441 
Q 881 4594 1212 4672 
Q 1544 4750 1819 4750 
Q 2544 4750 2975 4387 
Q 3406 4025 3406 3419 
Q 3406 3131 3298 2873 
Q 3191 2616 2906 2266 
Q 2828 2175 2409 1742 
Q 1991 1309 1228 531 
z
" transform="scale(0.015625)"/>
       </defs>
       <use xlink:href="#DejaVuSans-32"/>
       <use xlink:href="#DejaVuSans-30" x="63.623047"/>
       <use xlink:href="#DejaVuSans-30" x="127.246094"/>
      </g>
     </g>
    </g>
    <g id="xtick_4">
     <g id="line2d_4">
      <g>
       <use xlink:href="#m695b0991d0" x="336.045147" y="219.03" style="stroke: #000000; stroke-width: 0.8"/>
      </g>
     </g>
     <g id="text_4">
      <!-- 300 -->
      <g transform="translate(316.957647 241.226875) scale(0.2 -0.2)">
       <defs>
        <path id="DejaVuSans-33" d="M 2597 2516 
Q 3050 2419 3304 2112 
Q 3559 1806 3559 1356 
Q 3559 666 3084 287 
Q 2609 -91 1734 -91 
Q 1441 -91 1130 -33 
Q 819 25 488 141 
L 488 750 
Q 750 597 1062 519 
Q 1375 441 1716 441 
Q 2309 441 2620 675 
Q 2931 909 2931 1356 
Q 2931 1769 2642 2001 
Q 2353 2234 1838 2234 
L 1294 2234 
L 1294 2753 
L 1863 2753 
Q 2328 2753 2575 2939 
Q 2822 3125 2822 3475 
Q 2822 3834 2567 4026 
Q 2313 4219 1838 4219 
Q 1578 4219 1281 4162 
Q 984 4106 628 3988 
L 628 4550 
Q 988 4650 1302 4700 
Q 1616 4750 1894 4750 
Q 2613 4750 3031 4423 
Q 3450 4097 3450 3541 
Q 3450 3153 3228 2886 
Q 3006 2619 2597 2516 
z
" transform="scale(0.015625)"/>
       </defs>
       <use xlink:href="#DejaVuSans-33"/>
       <use xlink:href="#DejaVuSans-30" x="63.623047"/>
       <use xlink:href="#DejaVuSans-30" x="127.246094"/>
      </g>
     </g>
    </g>
    <g id="xtick_5">
     <g id="line2d_5">
      <g>
       <use xlink:href="#m695b0991d0" x="403.878378" y="219.03" style="stroke: #000000; stroke-width: 0.8"/>
      </g>
     </g>
     <g id="text_5">
      <!-- 400 -->
      <g transform="translate(384.790878 241.226875) scale(0.2 -0.2)">
       <defs>
        <path id="DejaVuSans-34" d="M 2419 4116 
L 825 1625 
L 2419 1625 
L 2419 4116 
z
M 2253 4666 
L 3047 4666 
L 3047 1625 
L 3713 1625 
L 3713 1100 
L 3047 1100 
L 3047 0 
L 2419 0 
L 2419 1100 
L 313 1100 
L 313 1709 
L 2253 4666 
z
" transform="scale(0.015625)"/>
       </defs>
       <use xlink:href="#DejaVuSans-34"/>
       <use xlink:href="#DejaVuSans-30" x="63.623047"/>
       <use xlink:href="#DejaVuSans-30" x="127.246094"/>
      </g>
     </g>
    </g>
    <g id="xtick_6">
     <g id="line2d_6">
      <g>
       <use xlink:href="#m695b0991d0" x="471.711608" y="219.03" style="stroke: #000000; stroke-width: 0.8"/>
      </g>
     </g>
     <g id="text_6">
      <!-- 500 -->
      <g transform="translate(452.624108 241.226875) scale(0.2 -0.2)">
       <defs>
        <path id="DejaVuSans-35" d="M 691 4666 
L 3169 4666 
L 3169 4134 
L 1269 4134 
L 1269 2991 
Q 1406 3038 1543 3061 
Q 1681 3084 1819 3084 
Q 2600 3084 3056 2656 
Q 3513 2228 3513 1497 
Q 3513 744 3044 326 
Q 2575 -91 1722 -91 
Q 1428 -91 1123 -41 
Q 819 9 494 109 
L 494 744 
Q 775 591 1075 516 
Q 1375 441 1709 441 
Q 2250 441 2565 725 
Q 2881 1009 2881 1497 
Q 2881 1984 2565 2268 
Q 2250 2553 1709 2553 
Q 1456 2553 1204 2497 
Q 953 2441 691 2322 
L 691 4666 
z
" transform="scale(0.015625)"/>
       </defs>
       <use xlink:href="#DejaVuSans-35"/>
       <use xlink:href="#DejaVuSans-30" x="63.623047"/>
       <use xlink:href="#DejaVuSans-30" x="127.246094"/>
      </g>
     </g>
    </g>
    <g id="xtick_7">
     <g id="line2d_7">
      <g>
       <use xlink:href="#m695b0991d0" x="539.544839" y="219.03" style="stroke: #000000; stroke-width: 0.8"/>
      </g>
     </g>
     <g id="text_7">
      <!-- 600 -->
      <g transform="translate(520.457339 241.226875) scale(0.2 -0.2)">
       <defs>
        <path id="DejaVuSans-36" d="M 2113 2584 
Q 1688 2584 1439 2293 
Q 1191 2003 1191 1497 
Q 1191 994 1439 701 
Q 1688 409 2113 409 
Q 2538 409 2786 701 
Q 3034 994 3034 1497 
Q 3034 2003 2786 2293 
Q 2538 2584 2113 2584 
z
M 3366 4563 
L 3366 3988 
Q 3128 4100 2886 4159 
Q 2644 4219 2406 4219 
Q 1781 4219 1451 3797 
Q 1122 3375 1075 2522 
Q 1259 2794 1537 2939 
Q 1816 3084 2150 3084 
Q 2853 3084 3261 2657 
Q 3669 2231 3669 1497 
Q 3669 778 3244 343 
Q 2819 -91 2113 -91 
Q 1303 -91 875 529 
Q 447 1150 447 2328 
Q 447 3434 972 4092 
Q 1497 4750 2381 4750 
Q 2619 4750 2861 4703 
Q 3103 4656 3366 4563 
z
" transform="scale(0.015625)"/>
       </defs>
       <use xlink:href="#DejaVuSans-36"/>
       <use xlink:href="#DejaVuSans-30" x="63.623047"/>
       <use xlink:href="#DejaVuSans-30" x="127.246094"/>
      </g>
     </g>
    </g>
    <g id="xtick_8">
     <g id="line2d_8">
      <g>
       <use xlink:href="#m695b0991d0" x="607.37807" y="219.03" style="stroke: #000000; stroke-width: 0.8"/>
      </g>
     </g>
     <g id="text_8">
      <!-- 700 -->
      <g transform="translate(588.29057 241.226875) scale(0.2 -0.2)">
       <defs>
        <path id="DejaVuSans-37" d="M 525 4666 
L 3525 4666 
L 3525 4397 
L 1831 0 
L 1172 0 
L 2766 4134 
L 525 4134 
L 525 4666 
z
" transform="scale(0.015625)"/>
       </defs>
       <use xlink:href="#DejaVuSans-37"/>
       <use xlink:href="#DejaVuSans-30" x="63.623047"/>
       <use xlink:href="#DejaVuSans-30" x="127.246094"/>
      </g>
     </g>
    </g>
   </g>
   <g id="matplotlib.axis_2">
    <g id="ytick_1">
     <g id="line2d_9">
      <defs>
       <path id="m177ef05c14" d="M 0 0 
L -3.5 0 
" style="stroke: #000000; stroke-width: 0.8"/>
      </defs>
      <g>
       <use xlink:href="#m177ef05c14" x="108" y="218.466156" style="stroke: #000000; stroke-width: 0.8"/>
      </g>
     </g>
     <g id="text_9">
      <!-- 0 -->
      <g transform="translate(88.275 226.064594) scale(0.2 -0.2)">
       <use xlink:href="#DejaVuSans-30"/>
      </g>
     </g>
    </g>
    <g id="ytick_2">
     <g id="line2d_10">
      <g>
       <use xlink:href="#m177ef05c14" x="108" y="119.139486" style="stroke: #000000; stroke-width: 0.8"/>
      </g>
     </g>
     <g id="text_10">
      <!-- 2 -->
      <g transform="translate(88.275 126.737924) scale(0.2 -0.2)">
       <use xlink:href="#DejaVuSans-32"/>
      </g>
     </g>
    </g>
   </g>
   <g id="line2d_11">
    <path d="M 132.545455 211.80754 
L 132.613288 211.823182 
L 132.748954 67.686818 
L 133.223787 67.688089 
L 134.716118 70.748873 
L 148.893263 100.494395 
L 153.980755 110.366303 
L 158.932581 119.491767 
L 163.816574 128.031319 
L 168.700567 136.123345 
L 173.516726 143.674221 
L 178.265052 150.708966 
L 182.945545 157.249535 
L 187.558205 163.315816 
L 192.103031 168.926912 
L 196.580024 174.102016 
L 200.989184 178.860495 
L 205.330511 183.22145 
L 209.604005 187.203303 
L 213.809665 190.823711 
L 218.015325 194.15113 
L 222.153152 197.141993 
L 226.223146 199.813738 
L 230.29314 202.222408 
L 234.363134 204.374511 
L 238.433128 206.278795 
L 242.570955 207.97243 
L 246.844448 209.480524 
L 251.253608 210.79955 
L 255.323602 211.823182 
L 255.459269 67.686818 
L 255.934101 67.688089 
L 257.426432 70.748873 
L 271.603578 100.494395 
L 276.69107 110.366303 
L 281.642896 119.491768 
L 286.526888 128.031319 
L 291.410881 136.123346 
L 296.22704 143.674221 
L 300.975366 150.708966 
L 305.655859 157.249535 
L 310.268519 163.315816 
L 314.813346 168.926912 
L 319.290339 174.102016 
L 323.699499 178.860496 
L 328.040826 183.22145 
L 332.314319 187.203303 
L 336.519979 190.823712 
L 340.72564 194.15113 
L 344.863467 197.141993 
L 348.933461 199.813738 
L 353.003454 202.222408 
L 357.073448 204.374512 
L 361.143442 206.278795 
L 365.281269 207.97243 
L 369.554763 209.480524 
L 373.963923 210.79955 
L 378.033917 211.823182 
L 378.169583 67.686818 
L 378.644416 67.688089 
L 380.136747 70.748874 
L 394.313892 100.494395 
L 399.401384 110.366304 
L 404.35321 119.491768 
L 409.237203 128.031319 
L 414.121195 136.123346 
L 418.937355 143.674221 
L 423.685681 150.708966 
L 428.366174 157.249536 
L 432.978834 163.315816 
L 437.52366 168.926912 
L 442.000653 174.102016 
L 446.409813 178.860496 
L 450.75114 183.22145 
L 455.024634 187.203303 
L 459.230294 190.823712 
L 463.435954 194.15113 
L 467.573781 197.141993 
L 471.643775 199.813738 
L 475.713769 202.222408 
L 479.783763 204.374512 
L 483.853757 206.278795 
L 487.991584 207.97243 
L 492.265077 209.480524 
L 496.674237 210.79955 
L 500.744231 211.823182 
L 500.879897 67.686818 
L 501.35473 67.688089 
L 502.847061 70.748874 
L 517.024206 100.494395 
L 522.111699 110.366304 
L 527.063525 119.491768 
L 531.947517 128.031319 
L 536.83151 136.123346 
L 541.647669 143.674222 
L 546.395995 150.708967 
L 551.076488 157.249536 
L 555.689148 163.315817 
L 560.233974 168.926912 
L 564.710968 174.102016 
L 569.120128 178.860496 
L 573.461454 183.22145 
L 577.734948 187.203303 
L 581.940608 190.823712 
L 586.146269 194.15113 
L 590.284096 197.141993 
L 594.354089 199.813738 
L 598.424083 202.222408 
L 602.494077 204.374512 
L 606.564071 206.278795 
L 610.701898 207.97243 
L 614.975392 209.480524 
L 619.384552 210.79955 
L 623.454545 211.823182 
L 623.454545 211.823182 
" clip-path="url(#p456080ec72)" style="fill: none; stroke: #1f77b4; stroke-width: 1.5; stroke-linecap: square"/>
   </g>
   <g id="line2d_12">
    <path d="M 132.545455 177.81224 
L 132.613288 177.786682 
L 132.748954 156.690021 
L 133.29162 156.779505 
L 140.685442 166.529225 
L 143.330938 169.446612 
L 145.908601 171.96304 
L 148.486264 174.170601 
L 151.063927 176.088464 
L 153.709423 177.779017 
L 156.422752 179.24737 
L 159.203914 180.502598 
L 162.188576 181.601919 
L 165.308905 182.514021 
L 168.700567 183.272788 
L 172.431394 183.876345 
L 176.569221 184.318128 
L 181.249714 184.590882 
L 186.540706 184.673435 
L 192.781363 184.541785 
L 217.947492 183.745252 
L 226.630146 183.552986 
L 231.785471 183.213326 
L 236.330298 182.692929 
L 240.671624 181.970062 
L 244.945118 181.0293 
L 249.218611 179.857691 
L 253.492105 178.456715 
L 255.323602 177.786681 
L 255.459269 156.69002 
L 256.001935 156.779504 
L 263.395757 166.529225 
L 266.041253 169.446612 
L 268.618915 171.96304 
L 271.196578 174.1706 
L 273.774241 176.088464 
L 276.419737 177.779017 
L 279.133066 179.24737 
L 281.914229 180.502598 
L 284.898891 181.601919 
L 288.019219 182.514021 
L 291.410881 183.272787 
L 295.141709 183.876344 
L 299.279536 184.318128 
L 303.960029 184.590882 
L 309.251021 184.673435 
L 315.491678 184.541785 
L 340.657806 183.745251 
L 349.34046 183.552985 
L 354.495786 183.213326 
L 359.040612 182.692928 
L 363.381939 181.970061 
L 367.655432 181.029299 
L 371.928926 179.857691 
L 376.202419 178.456714 
L 378.033917 177.786681 
L 378.169583 156.69002 
L 378.712249 156.779504 
L 386.106071 166.529224 
L 388.751567 169.446611 
L 391.32923 171.963039 
L 393.906893 174.1706 
L 396.484555 176.088463 
L 399.130051 177.779016 
L 401.843381 179.247369 
L 404.624543 180.502597 
L 407.609205 181.601918 
L 410.729534 182.51402 
L 414.121195 183.272787 
L 417.852023 183.876344 
L 421.98985 184.318127 
L 426.670343 184.590881 
L 431.961335 184.673434 
L 438.201992 184.541784 
L 463.368121 183.745251 
L 472.050774 183.552985 
L 477.2061 183.213325 
L 481.750926 182.692928 
L 486.092253 181.970061 
L 490.365747 181.029299 
L 494.63924 179.85769 
L 498.912734 178.456714 
L 500.744231 177.786681 
L 500.879897 156.690019 
L 501.422563 156.779504 
L 508.816385 166.529224 
L 511.461881 169.446611 
L 514.039544 171.963039 
L 516.617207 174.170599 
L 519.19487 176.088463 
L 521.840366 177.779016 
L 524.553695 179.247369 
L 527.334857 180.502597 
L 530.31952 181.601918 
L 533.439848 182.51402 
L 536.83151 183.272786 
L 540.562337 183.876343 
L 544.700165 184.318127 
L 549.380657 184.590881 
L 554.671649 184.673434 
L 560.912307 184.541784 
L 586.078435 183.74525 
L 594.761089 183.552985 
L 599.916414 183.213325 
L 604.461241 182.692928 
L 608.802568 181.970061 
L 613.076061 181.029298 
L 617.349555 179.85769 
L 621.623048 178.456714 
L 623.454545 177.78668 
L 623.454545 177.78668 
" clip-path="url(#p456080ec72)" style="fill: none; stroke: #ff7f0e; stroke-width: 1.5; stroke-linecap: square"/>
   </g>
   <g id="patch_3">
    <path d="M 108 219.03 
L 108 60.48 
" style="fill: none; stroke: #000000; stroke-width: 0.8; stroke-linejoin: miter; stroke-linecap: square"/>
   </g>
   <g id="patch_4">
    <path d="M 648 219.03 
L 648 60.48 
" style="fill: none; stroke: #000000; stroke-width: 0.8; stroke-linejoin: miter; stroke-linecap: square"/>
   </g>
   <g id="patch_5">
    <path d="M 108 219.03 
L 648 219.03 
" style="fill: none; stroke: #000000; stroke-width: 0.8; stroke-linejoin: miter; stroke-linecap: square"/>
   </g>
   <g id="patch_6">
    <path d="M 108 60.48 
L 648 60.48 
" style="fill: none; stroke: #000000; stroke-width: 0.8; stroke-linejoin: miter; stroke-linecap: square"/>
   </g>
   <g id="text_11">
    <!-- Extract -->
    <g transform="translate(342.184375 54.48) scale(0.2 -0.2)">
     <defs>
      <path id="DejaVuSans-45" d="M 628 4666 
L 3578 4666 
L 3578 4134 
L 1259 4134 
L 1259 2753 
L 3481 2753 
L 3481 2222 
L 1259 2222 
L 1259 531 
L 3634 531 
L 3634 0 
L 628 0 
L 628 4666 
z
" transform="scale(0.015625)"/>
      <path id="DejaVuSans-78" d="M 3513 3500 
L 2247 1797 
L 3578 0 
L 2900 0 
L 1881 1375 
L 863 0 
L 184 0 
L 1544 1831 
L 300 3500 
L 978 3500 
L 1906 2253 
L 2834 3500 
L 3513 3500 
z
" transform="scale(0.015625)"/>
      <path id="DejaVuSans-74" d="M 1172 4494 
L 1172 3500 
L 2356 3500 
L 2356 3053 
L 1172 3053 
L 1172 1153 
Q 1172 725 1289 603 
Q 1406 481 1766 481 
L 2356 481 
L 2356 0 
L 1766 0 
Q 1100 0 847 248 
Q 594 497 594 1153 
L 594 3053 
L 172 3053 
L 172 3500 
L 594 3500 
L 594 4494 
L 1172 4494 
z
" transform="scale(0.015625)"/>
      <path id="DejaVuSans-72" d="M 2631 2963 
Q 2534 3019 2420 3045 
Q 2306 3072 2169 3072 
Q 1681 3072 1420 2755 
Q 1159 2438 1159 1844 
L 1159 0 
L 581 0 
L 581 3500 
L 1159 3500 
L 1159 2956 
Q 1341 3275 1631 3429 
Q 1922 3584 2338 3584 
Q 2397 3584 2469 3576 
Q 2541 3569 2628 3553 
L 2631 2963 
z
" transform="scale(0.015625)"/>
      <path id="DejaVuSans-61" d="M 2194 1759 
Q 1497 1759 1228 1600 
Q 959 1441 959 1056 
Q 959 750 1161 570 
Q 1363 391 1709 391 
Q 2188 391 2477 730 
Q 2766 1069 2766 1631 
L 2766 1759 
L 2194 1759 
z
M 3341 1997 
L 3341 0 
L 2766 0 
L 2766 531 
Q 2569 213 2275 61 
Q 1981 -91 1556 -91 
Q 1019 -91 701 211 
Q 384 513 384 1019 
Q 384 1609 779 1909 
Q 1175 2209 1959 2209 
L 2766 2209 
L 2766 2266 
Q 2766 2663 2505 2880 
Q 2244 3097 1772 3097 
Q 1472 3097 1187 3025 
Q 903 2953 641 2809 
L 641 3341 
Q 956 3463 1253 3523 
Q 1550 3584 1831 3584 
Q 2591 3584 2966 3190 
Q 3341 2797 3341 1997 
z
" transform="scale(0.015625)"/>
      <path id="DejaVuSans-63" d="M 3122 3366 
L 3122 2828 
Q 2878 2963 2633 3030 
Q 2388 3097 2138 3097 
Q 1578 3097 1268 2742 
Q 959 2388 959 1747 
Q 959 1106 1268 751 
Q 1578 397 2138 397 
Q 2388 397 2633 464 
Q 2878 531 3122 666 
L 3122 134 
Q 2881 22 2623 -34 
Q 2366 -91 2075 -91 
Q 1284 -91 818 406 
Q 353 903 353 1747 
Q 353 2603 823 3093 
Q 1294 3584 2113 3584 
Q 2378 3584 2631 3529 
Q 2884 3475 3122 3366 
z
" transform="scale(0.015625)"/>
     </defs>
     <use xlink:href="#DejaVuSans-45"/>
     <use xlink:href="#DejaVuSans-78" x="63.183594"/>
     <use xlink:href="#DejaVuSans-74" x="122.363281"/>
     <use xlink:href="#DejaVuSans-72" x="161.572266"/>
     <use xlink:href="#DejaVuSans-61" x="202.685547"/>
     <use xlink:href="#DejaVuSans-63" x="263.964844"/>
     <use xlink:href="#DejaVuSans-74" x="318.945312"/>
    </g>
   </g>
   <g id="legend_1">
    <g id="patch_7">
     <path d="M 556.278125 135.1925 
L 634 135.1925 
Q 638 135.1925 638 131.1925 
L 638 74.48 
Q 638 70.48 634 70.48 
L 556.278125 70.48 
Q 552.278125 70.48 552.278125 74.48 
L 552.278125 131.1925 
Q 552.278125 135.1925 556.278125 135.1925 
z
" style="fill: #ffffff; opacity: 0.8; stroke: #cccccc; stroke-linejoin: miter"/>
    </g>
    <g id="line2d_13">
     <path d="M 560.278125 86.676875 
L 580.278125 86.676875 
L 600.278125 86.676875 
" style="fill: none; stroke: #1f77b4; stroke-width: 1.5; stroke-linecap: square"/>
    </g>
    <g id="text_12">
     <!-- A -->
     <g transform="translate(616.278125 93.676875) scale(0.2 -0.2)">
      <defs>
       <path id="DejaVuSans-41" d="M 2188 4044 
L 1331 1722 
L 3047 1722 
L 2188 4044 
z
M 1831 4666 
L 2547 4666 
L 4325 0 
L 3669 0 
L 3244 1197 
L 1141 1197 
L 716 0 
L 50 0 
L 1831 4666 
z
" transform="scale(0.015625)"/>
      </defs>
      <use xlink:href="#DejaVuSans-41"/>
     </g>
    </g>
    <g id="line2d_14">
     <path d="M 560.278125 116.033125 
L 580.278125 116.033125 
L 600.278125 116.033125 
" style="fill: none; stroke: #ff7f0e; stroke-width: 1.5; stroke-linecap: square"/>
    </g>
    <g id="text_13">
     <!-- B -->
     <g transform="translate(616.278125 123.033125) scale(0.2 -0.2)">
      <defs>
       <path id="DejaVuSans-42" d="M 1259 2228 
L 1259 519 
L 2272 519 
Q 2781 519 3026 730 
Q 3272 941 3272 1375 
Q 3272 1813 3026 2020 
Q 2781 2228 2272 2228 
L 1259 2228 
z
M 1259 4147 
L 1259 2741 
L 2194 2741 
Q 2656 2741 2882 2914 
Q 3109 3088 3109 3444 
Q 3109 3797 2882 3972 
Q 2656 4147 2194 4147 
L 1259 4147 
z
M 628 4666 
L 2241 4666 
Q 2963 4666 3353 4366 
Q 3744 4066 3744 3513 
Q 3744 3084 3544 2831 
Q 3344 2578 2956 2516 
Q 3422 2416 3680 2098 
Q 3938 1781 3938 1306 
Q 3938 681 3513 340 
Q 3088 0 2303 0 
L 628 0 
L 628 4666 
z
" transform="scale(0.015625)"/>
      </defs>
      <use xlink:href="#DejaVuSans-42"/>
     </g>
    </g>
   </g>
  </g>
  <g id="axes_2">
   <g id="patch_8">
    <path d="M 108 441 
L 648 441 
L 648 282.45 
L 108 282.45 
z
" style="fill: #ffffff"/>
   </g>
   <g id="matplotlib.axis_3">
    <g id="xtick_9">
     <g id="line2d_15">
      <g>
       <use xlink:href="#m695b0991d0" x="132.545455" y="441" style="stroke: #000000; stroke-width: 0.8"/>
      </g>
     </g>
     <g id="text_14">
      <!-- 0 -->
      <g transform="translate(126.182955 463.196875) scale(0.2 -0.2)">
       <use xlink:href="#DejaVuSans-30"/>
      </g>
     </g>
    </g>
    <g id="xtick_10">
     <g id="line2d_16">
      <g>
       <use xlink:href="#m695b0991d0" x="200.378685" y="441" style="stroke: #000000; stroke-width: 0.8"/>
      </g>
     </g>
     <g id="text_15">
      <!-- 100 -->
      <g transform="translate(181.291185 463.196875) scale(0.2 -0.2)">
       <use xlink:href="#DejaVuSans-31"/>
       <use xlink:href="#DejaVuSans-30" x="63.623047"/>
       <use xlink:href="#DejaVuSans-30" x="127.246094"/>
      </g>
     </g>
    </g>
    <g id="xtick_11">
     <g id="line2d_17">
      <g>
       <use xlink:href="#m695b0991d0" x="268.211916" y="441" style="stroke: #000000; stroke-width: 0.8"/>
      </g>
     </g>
     <g id="text_16">
      <!-- 200 -->
      <g transform="translate(249.124416 463.196875) scale(0.2 -0.2)">
       <use xlink:href="#DejaVuSans-32"/>
       <use xlink:href="#DejaVuSans-30" x="63.623047"/>
       <use xlink:href="#DejaVuSans-30" x="127.246094"/>
      </g>
     </g>
    </g>
    <g id="xtick_12">
     <g id="line2d_18">
      <g>
       <use xlink:href="#m695b0991d0" x="336.045147" y="441" style="stroke: #000000; stroke-width: 0.8"/>
      </g>
     </g>
     <g id="text_17">
      <!-- 300 -->
      <g transform="translate(316.957647 463.196875) scale(0.2 -0.2)">
       <use xlink:href="#DejaVuSans-33"/>
       <use xlink:href="#DejaVuSans-30" x="63.623047"/>
       <use xlink:href="#DejaVuSans-30" x="127.246094"/>
      </g>
     </g>
    </g>
    <g id="xtick_13">
     <g id="line2d_19">
      <g>
       <use xlink:href="#m695b0991d0" x="403.878378" y="441" style="stroke: #000000; stroke-width: 0.8"/>
      </g>
     </g>
     <g id="text_18">
      <!-- 400 -->
      <g transform="translate(384.790878 463.196875) scale(0.2 -0.2)">
       <use xlink:href="#DejaVuSans-34"/>
       <use xlink:href="#DejaVuSans-30" x="63.623047"/>
       <use xlink:href="#DejaVuSans-30" x="127.246094"/>
      </g>
     </g>
    </g>
    <g id="xtick_14">
     <g id="line2d_20">
      <g>
       <use xlink:href="#m695b0991d0" x="471.711608" y="441" style="stroke: #000000; stroke-width: 0.8"/>
      </g>
     </g>
     <g id="text_19">
      <!-- 500 -->
      <g transform="translate(452.624108 463.196875) scale(0.2 -0.2)">
       <use xlink:href="#DejaVuSans-35"/>
       <use xlink:href="#DejaVuSans-30" x="63.623047"/>
       <use xlink:href="#DejaVuSans-30" x="127.246094"/>
      </g>
     </g>
    </g>
    <g id="xtick_15">
     <g id="line2d_21">
      <g>
       <use xlink:href="#m695b0991d0" x="539.544839" y="441" style="stroke: #000000; stroke-width: 0.8"/>
      </g>
     </g>
     <g id="text_20">
      <!-- 600 -->
      <g transform="translate(520.457339 463.196875) scale(0.2 -0.2)">
       <use xlink:href="#DejaVuSans-36"/>
       <use xlink:href="#DejaVuSans-30" x="63.623047"/>
       <use xlink:href="#DejaVuSans-30" x="127.246094"/>
      </g>
     </g>
    </g>
    <g id="xtick_16">
     <g id="line2d_22">
      <g>
       <use xlink:href="#m695b0991d0" x="607.37807" y="441" style="stroke: #000000; stroke-width: 0.8"/>
      </g>
     </g>
     <g id="text_21">
      <!-- 700 -->
      <g transform="translate(588.29057 463.196875) scale(0.2 -0.2)">
       <use xlink:href="#DejaVuSans-37"/>
       <use xlink:href="#DejaVuSans-30" x="63.623047"/>
       <use xlink:href="#DejaVuSans-30" x="127.246094"/>
      </g>
     </g>
    </g>
    <g id="text_22">
     <!-- Time / s -->
     <g transform="translate(338.598437 486.553125) scale(0.2 -0.2)">
      <defs>
       <path id="DejaVuSans-54" d="M -19 4666 
L 3928 4666 
L 3928 4134 
L 2272 4134 
L 2272 0 
L 1638 0 
L 1638 4134 
L -19 4134 
L -19 4666 
z
" transform="scale(0.015625)"/>
       <path id="DejaVuSans-69" d="M 603 3500 
L 1178 3500 
L 1178 0 
L 603 0 
L 603 3500 
z
M 603 4863 
L 1178 4863 
L 1178 4134 
L 603 4134 
L 603 4863 
z
" transform="scale(0.015625)"/>
       <path id="DejaVuSans-6d" d="M 3328 2828 
Q 3544 3216 3844 3400 
Q 4144 3584 4550 3584 
Q 5097 3584 5394 3201 
Q 5691 2819 5691 2113 
L 5691 0 
L 5113 0 
L 5113 2094 
Q 5113 2597 4934 2840 
Q 4756 3084 4391 3084 
Q 3944 3084 3684 2787 
Q 3425 2491 3425 1978 
L 3425 0 
L 2847 0 
L 2847 2094 
Q 2847 2600 2669 2842 
Q 2491 3084 2119 3084 
Q 1678 3084 1418 2786 
Q 1159 2488 1159 1978 
L 1159 0 
L 581 0 
L 581 3500 
L 1159 3500 
L 1159 2956 
Q 1356 3278 1631 3431 
Q 1906 3584 2284 3584 
Q 2666 3584 2933 3390 
Q 3200 3197 3328 2828 
z
" transform="scale(0.015625)"/>
       <path id="DejaVuSans-65" d="M 3597 1894 
L 3597 1613 
L 953 1613 
Q 991 1019 1311 708 
Q 1631 397 2203 397 
Q 2534 397 2845 478 
Q 3156 559 3463 722 
L 3463 178 
Q 3153 47 2828 -22 
Q 2503 -91 2169 -91 
Q 1331 -91 842 396 
Q 353 884 353 1716 
Q 353 2575 817 3079 
Q 1281 3584 2069 3584 
Q 2775 3584 3186 3129 
Q 3597 2675 3597 1894 
z
M 3022 2063 
Q 3016 2534 2758 2815 
Q 2500 3097 2075 3097 
Q 1594 3097 1305 2825 
Q 1016 2553 972 2059 
L 3022 2063 
z
" transform="scale(0.015625)"/>
       <path id="DejaVuSans-20" transform="scale(0.015625)"/>
       <path id="DejaVuSans-2f" d="M 1625 4666 
L 2156 4666 
L 531 -594 
L 0 -594 
L 1625 4666 
z
" transform="scale(0.015625)"/>
       <path id="DejaVuSans-73" d="M 2834 3397 
L 2834 2853 
Q 2591 2978 2328 3040 
Q 2066 3103 1784 3103 
Q 1356 3103 1142 2972 
Q 928 2841 928 2578 
Q 928 2378 1081 2264 
Q 1234 2150 1697 2047 
L 1894 2003 
Q 2506 1872 2764 1633 
Q 3022 1394 3022 966 
Q 3022 478 2636 193 
Q 2250 -91 1575 -91 
Q 1294 -91 989 -36 
Q 684 19 347 128 
L 347 722 
Q 666 556 975 473 
Q 1284 391 1588 391 
Q 1994 391 2212 530 
Q 2431 669 2431 922 
Q 2431 1156 2273 1281 
Q 2116 1406 1581 1522 
L 1381 1569 
Q 847 1681 609 1914 
Q 372 2147 372 2553 
Q 372 3047 722 3315 
Q 1072 3584 1716 3584 
Q 2034 3584 2315 3537 
Q 2597 3491 2834 3397 
z
" transform="scale(0.015625)"/>
      </defs>
      <use xlink:href="#DejaVuSans-54"/>
      <use xlink:href="#DejaVuSans-69" x="57.958984"/>
      <use xlink:href="#DejaVuSans-6d" x="85.742188"/>
      <use xlink:href="#DejaVuSans-65" x="183.154297"/>
      <use xlink:href="#DejaVuSans-20" x="244.677734"/>
      <use xlink:href="#DejaVuSans-2f" x="276.464844"/>
      <use xlink:href="#DejaVuSans-20" x="310.15625"/>
      <use xlink:href="#DejaVuSans-73" x="341.943359"/>
     </g>
    </g>
   </g>
   <g id="matplotlib.axis_4">
    <g id="ytick_3">
     <g id="line2d_23">
      <g>
       <use xlink:href="#m177ef05c14" x="108" y="402.375853" style="stroke: #000000; stroke-width: 0.8"/>
      </g>
     </g>
     <g id="text_23">
      <!-- 2 -->
      <g transform="translate(88.275 409.974291) scale(0.2 -0.2)">
       <use xlink:href="#DejaVuSans-32"/>
      </g>
     </g>
    </g>
    <g id="ytick_4">
     <g id="line2d_24">
      <g>
       <use xlink:href="#m177ef05c14" x="108" y="348.887124" style="stroke: #000000; stroke-width: 0.8"/>
      </g>
     </g>
     <g id="text_24">
      <!-- 4 -->
      <g transform="translate(88.275 356.485562) scale(0.2 -0.2)">
       <use xlink:href="#DejaVuSans-34"/>
      </g>
     </g>
    </g>
    <g id="ytick_5">
     <g id="line2d_25">
      <g>
       <use xlink:href="#m177ef05c14" x="108" y="295.398395" style="stroke: #000000; stroke-width: 0.8"/>
      </g>
     </g>
     <g id="text_25">
      <!-- 6 -->
      <g transform="translate(88.275 302.996832) scale(0.2 -0.2)">
       <use xlink:href="#DejaVuSans-36"/>
      </g>
     </g>
    </g>
   </g>
   <g id="line2d_26">
    <path d="M 132.545455 292.464784 
L 132.613288 292.483856 
L 132.748954 433.793182 
L 133.29162 433.712963 
L 134.919618 431.579801 
L 137.090281 428.364874 
L 139.532277 424.333175 
L 142.10994 419.642085 
L 144.958936 413.980575 
L 148.079264 407.271568 
L 151.674426 398.999637 
L 156.287085 387.793609 
L 169.853731 354.470078 
L 173.788059 345.59656 
L 177.247554 338.32239 
L 180.435715 332.11626 
L 183.488211 326.652726 
L 186.40504 321.882619 
L 189.254035 317.649007 
L 192.035198 313.912354 
L 194.81636 310.549351 
L 197.597523 307.535668 
L 200.446519 304.780622 
L 203.363347 302.274358 
L 206.34801 300.004238 
L 209.400505 297.958112 
L 212.588667 296.0903 
L 215.776829 294.477046 
L 219.032824 293.079057 
L 222.288819 291.926191 
L 225.476981 291.031142 
L 228.665143 290.364224 
L 231.853304 289.920758 
L 235.109299 289.690935 
L 238.433128 289.677675 
L 241.892623 289.885897 
L 245.555617 290.332606 
L 249.422111 291.030832 
L 253.559938 292.005019 
L 255.323602 292.483856 
L 255.459269 433.793182 
L 256.001935 433.712962 
L 257.629932 431.5798 
L 259.800595 428.364874 
L 262.242592 424.333175 
L 264.820255 419.642084 
L 267.66925 413.980574 
L 270.789579 407.271568 
L 274.38474 398.999637 
L 278.9974 387.793608 
L 292.564046 354.470078 
L 296.498373 345.59656 
L 299.957868 338.32239 
L 303.14603 332.11626 
L 306.198525 326.652726 
L 309.115354 321.882619 
L 311.96435 317.649007 
L 314.745512 313.912354 
L 317.526675 310.549351 
L 320.307837 307.535668 
L 323.156833 304.780622 
L 326.073662 302.274358 
L 329.058324 300.004239 
L 332.110819 297.958112 
L 335.298981 296.0903 
L 338.487143 294.477046 
L 341.743138 293.079057 
L 344.999133 291.926191 
L 348.187295 291.031142 
L 351.375457 290.364224 
L 354.563619 289.920758 
L 357.819614 289.690935 
L 361.143442 289.677675 
L 364.602937 289.885897 
L 368.265931 290.332606 
L 372.132426 291.030832 
L 376.270253 292.005019 
L 378.033917 292.483856 
L 378.169583 433.793182 
L 378.712249 433.712962 
L 380.340246 431.5798 
L 382.51091 428.364874 
L 384.952906 424.333175 
L 387.530569 419.642084 
L 390.379565 413.980574 
L 393.499893 407.271568 
L 397.095054 398.999637 
L 401.707714 387.793608 
L 415.27436 354.470078 
L 419.208688 345.59656 
L 422.668182 338.32239 
L 425.856344 332.116259 
L 428.90884 326.652726 
L 431.825669 321.882619 
L 434.674664 317.649007 
L 437.455827 313.912354 
L 440.236989 310.549351 
L 443.018152 307.535668 
L 445.867147 304.780622 
L 448.783976 302.274358 
L 451.768638 300.004239 
L 454.821134 297.958112 
L 458.009296 296.0903 
L 461.197458 294.477046 
L 464.453453 293.079057 
L 467.709448 291.926191 
L 470.89761 291.031142 
L 474.085771 290.364225 
L 477.273933 289.920758 
L 480.529928 289.690935 
L 483.853757 289.677675 
L 487.313251 289.885897 
L 490.976246 290.332606 
L 494.84274 291.030832 
L 498.980567 292.005019 
L 500.744231 292.483856 
L 500.879897 433.793181 
L 501.422563 433.712962 
L 503.050561 431.5798 
L 505.221224 428.364874 
L 507.663221 424.333175 
L 510.240883 419.642084 
L 513.089879 413.980574 
L 516.210208 407.271567 
L 519.805369 398.999637 
L 524.418029 387.793608 
L 537.984675 354.470078 
L 541.919002 345.59656 
L 545.378497 338.32239 
L 548.566659 332.116259 
L 551.619154 326.652725 
L 554.535983 321.882619 
L 557.384979 317.649007 
L 560.166141 313.912354 
L 562.947304 310.549351 
L 565.728466 307.535668 
L 568.577462 304.780622 
L 571.494291 302.274358 
L 574.478953 300.004239 
L 577.531448 297.958112 
L 580.71961 296.0903 
L 583.907772 294.477046 
L 587.163767 293.079057 
L 590.419762 291.926191 
L 593.607924 291.031142 
L 596.796086 290.364225 
L 599.984248 289.920758 
L 603.240243 289.690935 
L 606.564071 289.677675 
L 610.023566 289.885897 
L 613.68656 290.332606 
L 617.553054 291.030832 
L 621.690881 292.005019 
L 623.454545 292.483856 
L 623.454545 292.483856 
" clip-path="url(#pdfcf851f54)" style="fill: none; stroke: #1f77b4; stroke-width: 1.5; stroke-linecap: square"/>
   </g>
   <g id="line2d_27">
    <path d="M 132.545455 331.695704 
L 132.613288 331.725722 
L 132.748954 338.198664 
L 133.29162 338.088487 
L 136.547615 332.49972 
L 139.735777 327.297841 
L 142.381273 323.396352 
L 144.755436 320.277744 
L 146.993933 317.694926 
L 149.096763 315.594794 
L 151.13176 313.864359 
L 153.166757 312.425963 
L 155.13392 311.303853 
L 157.101084 310.432801 
L 159.136081 309.779331 
L 161.171078 309.358135 
L 163.341741 309.140597 
L 165.648071 309.141518 
L 168.090067 309.366789 
L 170.803397 309.841513 
L 173.923725 310.616985 
L 177.722386 311.799015 
L 182.945545 313.677448 
L 196.919191 318.813056 
L 201.396184 320.152352 
L 205.466178 321.138417 
L 209.536171 321.893481 
L 214.080998 322.501645 
L 220.864321 323.149825 
L 228.258143 323.917713 
L 232.938636 324.63104 
L 237.21213 325.505911 
L 241.41779 326.595686 
L 245.691283 327.934815 
L 250.168277 329.572836 
L 254.984436 331.576059 
L 255.323602 331.725722 
L 255.459269 338.198664 
L 256.001935 338.088486 
L 259.25793 332.499719 
L 262.446091 327.297841 
L 265.091587 323.396351 
L 267.46575 320.277743 
L 269.704247 317.694925 
L 271.807077 315.594794 
L 273.842074 313.864358 
L 275.877071 312.425962 
L 277.844235 311.303853 
L 279.811398 310.432801 
L 281.846395 309.779331 
L 283.881392 309.358134 
L 286.052056 309.140596 
L 288.358386 309.141518 
L 290.800382 309.366789 
L 293.513711 309.841513 
L 296.63404 310.616985 
L 300.432701 311.799014 
L 305.655859 313.677448 
L 319.629505 318.813056 
L 324.106498 320.152351 
L 328.176492 321.138417 
L 332.246486 321.893481 
L 336.791312 322.501644 
L 343.574635 323.149824 
L 350.968458 323.917712 
L 355.64895 324.63104 
L 359.922444 325.505911 
L 364.128104 326.595686 
L 368.401598 327.934815 
L 372.878591 329.572836 
L 377.69475 331.576058 
L 378.033917 331.725722 
L 378.169583 338.198663 
L 378.712249 338.088486 
L 381.968244 332.499719 
L 385.156406 327.29784 
L 387.801902 323.396351 
L 390.176065 320.277743 
L 392.414562 317.694925 
L 394.517392 315.594793 
L 396.552389 313.864358 
L 398.587386 312.425962 
L 400.554549 311.303852 
L 402.521713 310.4328 
L 404.55671 309.77933 
L 406.591707 309.358134 
L 408.76237 309.140596 
L 411.0687 309.141517 
L 413.510696 309.366788 
L 416.224026 309.841513 
L 419.344354 310.616984 
L 423.143015 311.799014 
L 428.366174 313.677448 
L 442.339819 318.813056 
L 446.816813 320.152351 
L 450.886806 321.138417 
L 454.9568 321.893481 
L 459.501627 322.501644 
L 466.28495 323.149824 
L 473.678772 323.917712 
L 478.359265 324.63104 
L 482.632758 325.505911 
L 486.838419 326.595686 
L 491.111912 327.934815 
L 495.588905 329.572835 
L 500.405065 331.576058 
L 500.744231 331.725722 
L 500.879897 338.198663 
L 501.422563 338.088485 
L 504.678558 332.499718 
L 507.86672 327.29784 
L 510.512216 323.39635 
L 512.886379 320.277743 
L 515.124876 317.694924 
L 517.227706 315.594793 
L 519.262703 313.864357 
L 521.2977 312.425962 
L 523.264864 311.303852 
L 525.232027 310.4328 
L 527.267024 309.77933 
L 529.302021 309.358134 
L 531.472685 309.140596 
L 533.779014 309.141517 
L 536.221011 309.366788 
L 538.93434 309.841512 
L 542.054669 310.616984 
L 545.853329 311.799014 
L 551.076488 313.677447 
L 565.050134 318.813055 
L 569.527127 320.152351 
L 573.597121 321.138416 
L 577.667115 321.89348 
L 582.211941 322.501644 
L 588.995264 323.149824 
L 596.389086 323.917712 
L 601.069579 324.63104 
L 605.343073 325.505911 
L 609.548733 326.595685 
L 613.822227 327.934814 
L 618.29922 329.572835 
L 623.115379 331.576058 
L 623.454545 331.725722 
L 623.454545 331.725722 
" clip-path="url(#pdfcf851f54)" style="fill: none; stroke: #ff7f0e; stroke-width: 1.5; stroke-linecap: square"/>
   </g>
   <g id="patch_9">
    <path d="M 108 441 
L 108 282.45 
" style="fill: none; stroke: #000000; stroke-width: 0.8; stroke-linejoin: miter; stroke-linecap: square"/>
   </g>
   <g id="patch_10">
    <path d="M 648 441 
L 648 282.45 
" style="fill: none; stroke: #000000; stroke-width: 0.8; stroke-linejoin: miter; stroke-linecap: square"/>
   </g>
   <g id="patch_11">
    <path d="M 108 441 
L 648 441 
" style="fill: none; stroke: #000000; stroke-width: 0.8; stroke-linejoin: miter; stroke-linecap: square"/>
   </g>
   <g id="patch_12">
    <path d="M 108 282.45 
L 648 282.45 
" style="fill: none; stroke: #000000; stroke-width: 0.8; stroke-linejoin: miter; stroke-linecap: square"/>
   </g>
   <g id="text_26">
    <!-- Raffinate -->
    <g transform="translate(332.790625 276.45) scale(0.2 -0.2)">
     <defs>
      <path id="DejaVuSans-52" d="M 2841 2188 
Q 3044 2119 3236 1894 
Q 3428 1669 3622 1275 
L 4263 0 
L 3584 0 
L 2988 1197 
Q 2756 1666 2539 1819 
Q 2322 1972 1947 1972 
L 1259 1972 
L 1259 0 
L 628 0 
L 628 4666 
L 2053 4666 
Q 2853 4666 3247 4331 
Q 3641 3997 3641 3322 
Q 3641 2881 3436 2590 
Q 3231 2300 2841 2188 
z
M 1259 4147 
L 1259 2491 
L 2053 2491 
Q 2509 2491 2742 2702 
Q 2975 2913 2975 3322 
Q 2975 3731 2742 3939 
Q 2509 4147 2053 4147 
L 1259 4147 
z
" transform="scale(0.015625)"/>
      <path id="DejaVuSans-66" d="M 2375 4863 
L 2375 4384 
L 1825 4384 
Q 1516 4384 1395 4259 
Q 1275 4134 1275 3809 
L 1275 3500 
L 2222 3500 
L 2222 3053 
L 1275 3053 
L 1275 0 
L 697 0 
L 697 3053 
L 147 3053 
L 147 3500 
L 697 3500 
L 697 3744 
Q 697 4328 969 4595 
Q 1241 4863 1831 4863 
L 2375 4863 
z
" transform="scale(0.015625)"/>
      <path id="DejaVuSans-6e" d="M 3513 2113 
L 3513 0 
L 2938 0 
L 2938 2094 
Q 2938 2591 2744 2837 
Q 2550 3084 2163 3084 
Q 1697 3084 1428 2787 
Q 1159 2491 1159 1978 
L 1159 0 
L 581 0 
L 581 3500 
L 1159 3500 
L 1159 2956 
Q 1366 3272 1645 3428 
Q 1925 3584 2291 3584 
Q 2894 3584 3203 3211 
Q 3513 2838 3513 2113 
z
" transform="scale(0.015625)"/>
     </defs>
     <use xlink:href="#DejaVuSans-52"/>
     <use xlink:href="#DejaVuSans-61" x="67.232422"/>
     <use xlink:href="#DejaVuSans-66" x="128.511719"/>
     <use xlink:href="#DejaVuSans-66" x="163.716797"/>
     <use xlink:href="#DejaVuSans-69" x="198.921875"/>
     <use xlink:href="#DejaVuSans-6e" x="226.705078"/>
     <use xlink:href="#DejaVuSans-61" x="290.083984"/>
     <use xlink:href="#DejaVuSans-74" x="351.363281"/>
     <use xlink:href="#DejaVuSans-65" x="390.572266"/>
    </g>
   </g>
  </g>
  <g id="text_27">
   <!-- Concentration / mM -->
   <g transform="translate(59.51875 350.835938) rotate(-90) scale(0.2 -0.2)">
    <defs>
     <path id="DejaVuSans-43" d="M 4122 4306 
L 4122 3641 
Q 3803 3938 3442 4084 
Q 3081 4231 2675 4231 
Q 1875 4231 1450 3742 
Q 1025 3253 1025 2328 
Q 1025 1406 1450 917 
Q 1875 428 2675 428 
Q 3081 428 3442 575 
Q 3803 722 4122 1019 
L 4122 359 
Q 3791 134 3420 21 
Q 3050 -91 2638 -91 
Q 1578 -91 968 557 
Q 359 1206 359 2328 
Q 359 3453 968 4101 
Q 1578 4750 2638 4750 
Q 3056 4750 3426 4639 
Q 3797 4528 4122 4306 
z
" transform="scale(0.015625)"/>
     <path id="DejaVuSans-6f" d="M 1959 3097 
Q 1497 3097 1228 2736 
Q 959 2375 959 1747 
Q 959 1119 1226 758 
Q 1494 397 1959 397 
Q 2419 397 2687 759 
Q 2956 1122 2956 1747 
Q 2956 2369 2687 2733 
Q 2419 3097 1959 3097 
z
M 1959 3584 
Q 2709 3584 3137 3096 
Q 3566 2609 3566 1747 
Q 3566 888 3137 398 
Q 2709 -91 1959 -91 
Q 1206 -91 779 398 
Q 353 888 353 1747 
Q 353 2609 779 3096 
Q 1206 3584 1959 3584 
z
" transform="scale(0.015625)"/>
     <path id="DejaVuSans-4d" d="M 628 4666 
L 1569 4666 
L 2759 1491 
L 3956 4666 
L 4897 4666 
L 4897 0 
L 4281 0 
L 4281 4097 
L 3078 897 
L 2444 897 
L 1241 4097 
L 1241 0 
L 628 0 
L 628 4666 
z
" transform="scale(0.015625)"/>
    </defs>
    <use xlink:href="#DejaVuSans-43"/>
    <use xlink:href="#DejaVuSans-6f" x="69.824219"/>
    <use xlink:href="#DejaVuSans-6e" x="131.005859"/>
    <use xlink:href="#DejaVuSans-63" x="194.384766"/>
    <use xlink:href="#DejaVuSans-65" x="249.365234"/>
    <use xlink:href="#DejaVuSans-6e" x="310.888672"/>
    <use xlink:href="#DejaVuSans-74" x="374.267578"/>
    <use xlink:href="#DejaVuSans-72" x="413.476562"/>
    <use xlink:href="#DejaVuSans-61" x="454.589844"/>
    <use xlink:href="#DejaVuSans-74" x="515.869141"/>
    <use xlink:href="#DejaVuSans-69" x="555.078125"/>
    <use xlink:href="#DejaVuSans-6f" x="582.861328"/>
    <use xlink:href="#DejaVuSans-6e" x="644.042969"/>
    <use xlink:href="#DejaVuSans-20" x="707.421875"/>
    <use xlink:href="#DejaVuSans-2f" x="739.208984"/>
    <use xlink:href="#DejaVuSans-20" x="772.900391"/>
    <use xlink:href="#DejaVuSans-6d" x="804.6875"/>
    <use xlink:href="#DejaVuSans-4d" x="902.099609"/>
   </g>
  </g>
 </g>
 <defs>
  <clipPath id="p456080ec72">
   <rect x="108" y="60.48" width="540" height="158.55"/>
  </clipPath>
  <clipPath id="pdfcf851f54">
   <rect x="108" y="282.45" width="540" height="158.55"/>
  </clipPath>
 </defs>
</svg>
