<?xml version="1.0" encoding="utf-8" standalone="no"?>
<!DOCTYPE svg PUBLIC "-//W3C//DTD SVG 1.1//EN"
  "http://www.w3.org/Graphics/SVG/1.1/DTD/svg11.dtd">
<svg xmlns:xlink="http://www.w3.org/1999/xlink" width="665.195313pt" height="706.276pt" viewBox="0 0 665.195313 706.276" xmlns="http://www.w3.org/2000/svg" version="1.1">
 <metadata>
  <rdf:RDF xmlns:dc="http://purl.org/dc/elements/1.1/" xmlns:cc="http://creativecommons.org/ns#" xmlns:rdf="http://www.w3.org/1999/02/22-rdf-syntax-ns#">
   <cc:Work>
    <dc:type rdf:resource="http://purl.org/dc/dcmitype/StillImage"/>
    <dc:date>2025-01-15T09:08:37.036046</dc:date>
    <dc:format>image/svg+xml</dc:format>
    <dc:creator>
     <cc:Agent>
      <dc:title>Matplotlib v3.9.1, https://matplotlib.org/</dc:title>
     </cc:Agent>
    </dc:creator>
   </cc:Work>
  </rdf:RDF>
 </metadata>
 <defs>
  <style type="text/css">*{stroke-linejoin: round; stroke-linecap: butt}</style>
 </defs>
 <g id="figure_1">
  <g id="patch_1">
   <path d="M 0 706.276 
L 665.195313 706.276 
L 665.195313 0 
L 0 0 
z
" style="fill: #ffffff"/>
  </g>
  <g id="axes_1">
   <g id="patch_2">
    <path d="M 94.095313 415.44 
L 596.295313 415.44 
L 596.295313 7.2 
L 94.095313 7.2 
z
" style="fill: #ffffff"/>
   </g>
   <g id="matplotlib.axis_1">
    <g id="xtick_1">
     <g id="line2d_1">
      <path d="M 264.391458 415.44 
L 264.391458 7.2 
" clip-path="url(#p032215f8a8)" style="fill: none; stroke-dasharray: 1.85,0.8; stroke-dashoffset: 0; stroke: #b0b0b0; stroke-width: 0.5"/>
     </g>
     <g id="line2d_2">
      <defs>
       <path id="m8cfddb5be3" d="M 0 0 
L 0 3.5 
" style="stroke: #000000; stroke-width: 0.8"/>
      </defs>
      <g>
       <use xlink:href="#m8cfddb5be3" x="264.391458" y="415.44" style="stroke: #000000; stroke-width: 0.8"/>
      </g>
     </g>
     <g id="text_1">
      <!-- $\mathdefault{10^{0}}$ -->
      <g transform="translate(245.031458 439.156562) scale(0.22 -0.22)">
       <defs>
        <path id="DejaVuSans-31" d="M 794 531 
L 1825 531 
L 1825 4091 
L 703 3866 
L 703 4441 
L 1819 4666 
L 2450 4666 
L 2450 531 
L 3481 531 
L 3481 0 
L 794 0 
L 794 531 
z
" transform="scale(0.015625)"/>
        <path id="DejaVuSans-30" d="M 2034 4250 
Q 1547 4250 1301 3770 
Q 1056 3291 1056 2328 
Q 1056 1369 1301 889 
Q 1547 409 2034 409 
Q 2525 409 2770 889 
Q 3016 1369 3016 2328 
Q 3016 3291 2770 3770 
Q 2525 4250 2034 4250 
z
M 2034 4750 
Q 2819 4750 3233 4129 
Q 3647 3509 3647 2328 
Q 3647 1150 3233 529 
Q 2819 -91 2034 -91 
Q 1250 -91 836 529 
Q 422 1150 422 2328 
Q 422 3509 836 4129 
Q 1250 4750 2034 4750 
z
" transform="scale(0.015625)"/>
       </defs>
       <use xlink:href="#DejaVuSans-31" transform="translate(0 0.765625)"/>
       <use xlink:href="#DejaVuSans-30" transform="translate(63.623047 0.765625)"/>
       <use xlink:href="#DejaVuSans-30" transform="translate(128.203125 39.046875) scale(0.7)"/>
      </g>
     </g>
    </g>
    <g id="xtick_2">
     <g id="line2d_3">
      <path d="M 479.979879 415.44 
L 479.979879 7.2 
" clip-path="url(#p032215f8a8)" style="fill: none; stroke-dasharray: 1.85,0.8; stroke-dashoffset: 0; stroke: #b0b0b0; stroke-width: 0.5"/>
     </g>
     <g id="line2d_4">
      <g>
       <use xlink:href="#m8cfddb5be3" x="479.979879" y="415.44" style="stroke: #000000; stroke-width: 0.8"/>
      </g>
     </g>
     <g id="text_2">
      <!-- $\mathdefault{10^{1}}$ -->
      <g transform="translate(460.619879 439.156562) scale(0.22 -0.22)">
       <use xlink:href="#DejaVuSans-31" transform="translate(0 0.684375)"/>
       <use xlink:href="#DejaVuSans-30" transform="translate(63.623047 0.684375)"/>
       <use xlink:href="#DejaVuSans-31" transform="translate(128.203125 38.965625) scale(0.7)"/>
      </g>
     </g>
    </g>
    <g id="xtick_3">
     <g id="line2d_5">
      <path d="M 113.701619 415.44 
L 113.701619 7.2 
" clip-path="url(#p032215f8a8)" style="fill: none; stroke-dasharray: 1.85,0.8; stroke-dashoffset: 0; stroke: #b0b0b0; stroke-width: 0.5"/>
     </g>
     <g id="line2d_6">
      <defs>
       <path id="mb1927a92a7" d="M 0 0 
L 0 2 
" style="stroke: #000000; stroke-width: 0.6"/>
      </defs>
      <g>
       <use xlink:href="#mb1927a92a7" x="113.701619" y="415.44" style="stroke: #000000; stroke-width: 0.6"/>
      </g>
     </g>
    </g>
    <g id="xtick_4">
     <g id="line2d_7">
      <path d="M 151.664855 415.44 
L 151.664855 7.2 
" clip-path="url(#p032215f8a8)" style="fill: none; stroke-dasharray: 1.85,0.8; stroke-dashoffset: 0; stroke: #b0b0b0; stroke-width: 0.5"/>
     </g>
     <g id="line2d_8">
      <g>
       <use xlink:href="#mb1927a92a7" x="151.664855" y="415.44" style="stroke: #000000; stroke-width: 0.6"/>
      </g>
     </g>
    </g>
    <g id="xtick_5">
     <g id="line2d_9">
      <path d="M 178.6002 415.44 
L 178.6002 7.2 
" clip-path="url(#p032215f8a8)" style="fill: none; stroke-dasharray: 1.85,0.8; stroke-dashoffset: 0; stroke: #b0b0b0; stroke-width: 0.5"/>
     </g>
     <g id="line2d_10">
      <g>
       <use xlink:href="#mb1927a92a7" x="178.6002" y="415.44" style="stroke: #000000; stroke-width: 0.6"/>
      </g>
     </g>
    </g>
    <g id="xtick_6">
     <g id="line2d_11">
      <path d="M 199.492877 415.44 
L 199.492877 7.2 
" clip-path="url(#p032215f8a8)" style="fill: none; stroke-dasharray: 1.85,0.8; stroke-dashoffset: 0; stroke: #b0b0b0; stroke-width: 0.5"/>
     </g>
     <g id="line2d_12">
      <g>
       <use xlink:href="#mb1927a92a7" x="199.492877" y="415.44" style="stroke: #000000; stroke-width: 0.6"/>
      </g>
     </g>
    </g>
    <g id="xtick_7">
     <g id="line2d_13">
      <path d="M 216.563437 415.44 
L 216.563437 7.2 
" clip-path="url(#p032215f8a8)" style="fill: none; stroke-dasharray: 1.85,0.8; stroke-dashoffset: 0; stroke: #b0b0b0; stroke-width: 0.5"/>
     </g>
     <g id="line2d_14">
      <g>
       <use xlink:href="#mb1927a92a7" x="216.563437" y="415.44" style="stroke: #000000; stroke-width: 0.6"/>
      </g>
     </g>
    </g>
    <g id="xtick_8">
     <g id="line2d_15">
      <path d="M 230.996389 415.44 
L 230.996389 7.2 
" clip-path="url(#p032215f8a8)" style="fill: none; stroke-dasharray: 1.85,0.8; stroke-dashoffset: 0; stroke: #b0b0b0; stroke-width: 0.5"/>
     </g>
     <g id="line2d_16">
      <g>
       <use xlink:href="#mb1927a92a7" x="230.996389" y="415.44" style="stroke: #000000; stroke-width: 0.6"/>
      </g>
     </g>
    </g>
    <g id="xtick_9">
     <g id="line2d_17">
      <path d="M 243.498782 415.44 
L 243.498782 7.2 
" clip-path="url(#p032215f8a8)" style="fill: none; stroke-dasharray: 1.85,0.8; stroke-dashoffset: 0; stroke: #b0b0b0; stroke-width: 0.5"/>
     </g>
     <g id="line2d_18">
      <g>
       <use xlink:href="#mb1927a92a7" x="243.498782" y="415.44" style="stroke: #000000; stroke-width: 0.6"/>
      </g>
     </g>
    </g>
    <g id="xtick_10">
     <g id="line2d_19">
      <path d="M 254.526673 415.44 
L 254.526673 7.2 
" clip-path="url(#p032215f8a8)" style="fill: none; stroke-dasharray: 1.85,0.8; stroke-dashoffset: 0; stroke: #b0b0b0; stroke-width: 0.5"/>
     </g>
     <g id="line2d_20">
      <g>
       <use xlink:href="#mb1927a92a7" x="254.526673" y="415.44" style="stroke: #000000; stroke-width: 0.6"/>
      </g>
     </g>
    </g>
    <g id="xtick_11">
     <g id="line2d_21">
      <path d="M 329.29004 415.44 
L 329.29004 7.2 
" clip-path="url(#p032215f8a8)" style="fill: none; stroke-dasharray: 1.85,0.8; stroke-dashoffset: 0; stroke: #b0b0b0; stroke-width: 0.5"/>
     </g>
     <g id="line2d_22">
      <g>
       <use xlink:href="#mb1927a92a7" x="329.29004" y="415.44" style="stroke: #000000; stroke-width: 0.6"/>
      </g>
     </g>
    </g>
    <g id="xtick_12">
     <g id="line2d_23">
      <path d="M 367.253276 415.44 
L 367.253276 7.2 
" clip-path="url(#p032215f8a8)" style="fill: none; stroke-dasharray: 1.85,0.8; stroke-dashoffset: 0; stroke: #b0b0b0; stroke-width: 0.5"/>
     </g>
     <g id="line2d_24">
      <g>
       <use xlink:href="#mb1927a92a7" x="367.253276" y="415.44" style="stroke: #000000; stroke-width: 0.6"/>
      </g>
     </g>
    </g>
    <g id="xtick_13">
     <g id="line2d_25">
      <path d="M 394.188621 415.44 
L 394.188621 7.2 
" clip-path="url(#p032215f8a8)" style="fill: none; stroke-dasharray: 1.85,0.8; stroke-dashoffset: 0; stroke: #b0b0b0; stroke-width: 0.5"/>
     </g>
     <g id="line2d_26">
      <g>
       <use xlink:href="#mb1927a92a7" x="394.188621" y="415.44" style="stroke: #000000; stroke-width: 0.6"/>
      </g>
     </g>
    </g>
    <g id="xtick_14">
     <g id="line2d_27">
      <path d="M 415.081298 415.44 
L 415.081298 7.2 
" clip-path="url(#p032215f8a8)" style="fill: none; stroke-dasharray: 1.85,0.8; stroke-dashoffset: 0; stroke: #b0b0b0; stroke-width: 0.5"/>
     </g>
     <g id="line2d_28">
      <g>
       <use xlink:href="#mb1927a92a7" x="415.081298" y="415.44" style="stroke: #000000; stroke-width: 0.6"/>
      </g>
     </g>
    </g>
    <g id="xtick_15">
     <g id="line2d_29">
      <path d="M 432.151857 415.44 
L 432.151857 7.2 
" clip-path="url(#p032215f8a8)" style="fill: none; stroke-dasharray: 1.85,0.8; stroke-dashoffset: 0; stroke: #b0b0b0; stroke-width: 0.5"/>
     </g>
     <g id="line2d_30">
      <g>
       <use xlink:href="#mb1927a92a7" x="432.151857" y="415.44" style="stroke: #000000; stroke-width: 0.6"/>
      </g>
     </g>
    </g>
    <g id="xtick_16">
     <g id="line2d_31">
      <path d="M 446.58481 415.44 
L 446.58481 7.2 
" clip-path="url(#p032215f8a8)" style="fill: none; stroke-dasharray: 1.85,0.8; stroke-dashoffset: 0; stroke: #b0b0b0; stroke-width: 0.5"/>
     </g>
     <g id="line2d_32">
      <g>
       <use xlink:href="#mb1927a92a7" x="446.58481" y="415.44" style="stroke: #000000; stroke-width: 0.6"/>
      </g>
     </g>
    </g>
    <g id="xtick_17">
     <g id="line2d_33">
      <path d="M 459.087202 415.44 
L 459.087202 7.2 
" clip-path="url(#p032215f8a8)" style="fill: none; stroke-dasharray: 1.85,0.8; stroke-dashoffset: 0; stroke: #b0b0b0; stroke-width: 0.5"/>
     </g>
     <g id="line2d_34">
      <g>
       <use xlink:href="#mb1927a92a7" x="459.087202" y="415.44" style="stroke: #000000; stroke-width: 0.6"/>
      </g>
     </g>
    </g>
    <g id="xtick_18">
     <g id="line2d_35">
      <path d="M 470.115094 415.44 
L 470.115094 7.2 
" clip-path="url(#p032215f8a8)" style="fill: none; stroke-dasharray: 1.85,0.8; stroke-dashoffset: 0; stroke: #b0b0b0; stroke-width: 0.5"/>
     </g>
     <g id="line2d_36">
      <g>
       <use xlink:href="#mb1927a92a7" x="470.115094" y="415.44" style="stroke: #000000; stroke-width: 0.6"/>
      </g>
     </g>
    </g>
    <g id="xtick_19">
     <g id="line2d_37">
      <path d="M 544.87846 415.44 
L 544.87846 7.2 
" clip-path="url(#p032215f8a8)" style="fill: none; stroke-dasharray: 1.85,0.8; stroke-dashoffset: 0; stroke: #b0b0b0; stroke-width: 0.5"/>
     </g>
     <g id="line2d_38">
      <g>
       <use xlink:href="#mb1927a92a7" x="544.87846" y="415.44" style="stroke: #000000; stroke-width: 0.6"/>
      </g>
     </g>
    </g>
    <g id="xtick_20">
     <g id="line2d_39">
      <path d="M 582.841697 415.44 
L 582.841697 7.2 
" clip-path="url(#p032215f8a8)" style="fill: none; stroke-dasharray: 1.85,0.8; stroke-dashoffset: 0; stroke: #b0b0b0; stroke-width: 0.5"/>
     </g>
     <g id="line2d_40">
      <g>
       <use xlink:href="#mb1927a92a7" x="582.841697" y="415.44" style="stroke: #000000; stroke-width: 0.6"/>
      </g>
     </g>
    </g>
    <g id="text_3">
     <!-- Compute time / s -->
     <g transform="translate(237.3125 466.727969) scale(0.25 -0.25)">
      <defs>
       <path id="DejaVuSans-43" d="M 4122 4306 
L 4122 3641 
Q 3803 3938 3442 4084 
Q 3081 4231 2675 4231 
Q 1875 4231 1450 3742 
Q 1025 3253 1025 2328 
Q 1025 1406 1450 917 
Q 1875 428 2675 428 
Q 3081 428 3442 575 
Q 3803 722 4122 1019 
L 4122 359 
Q 3791 134 3420 21 
Q 3050 -91 2638 -91 
Q 1578 -91 968 557 
Q 359 1206 359 2328 
Q 359 3453 968 4101 
Q 1578 4750 2638 4750 
Q 3056 4750 3426 4639 
Q 3797 4528 4122 4306 
z
" transform="scale(0.015625)"/>
       <path id="DejaVuSans-6f" d="M 1959 3097 
Q 1497 3097 1228 2736 
Q 959 2375 959 1747 
Q 959 1119 1226 758 
Q 1494 397 1959 397 
Q 2419 397 2687 759 
Q 2956 1122 2956 1747 
Q 2956 2369 2687 2733 
Q 2419 3097 1959 3097 
z
M 1959 3584 
Q 2709 3584 3137 3096 
Q 3566 2609 3566 1747 
Q 3566 888 3137 398 
Q 2709 -91 1959 -91 
Q 1206 -91 779 398 
Q 353 888 353 1747 
Q 353 2609 779 3096 
Q 1206 3584 1959 3584 
z
" transform="scale(0.015625)"/>
       <path id="DejaVuSans-6d" d="M 3328 2828 
Q 3544 3216 3844 3400 
Q 4144 3584 4550 3584 
Q 5097 3584 5394 3201 
Q 5691 2819 5691 2113 
L 5691 0 
L 5113 0 
L 5113 2094 
Q 5113 2597 4934 2840 
Q 4756 3084 4391 3084 
Q 3944 3084 3684 2787 
Q 3425 2491 3425 1978 
L 3425 0 
L 2847 0 
L 2847 2094 
Q 2847 2600 2669 2842 
Q 2491 3084 2119 3084 
Q 1678 3084 1418 2786 
Q 1159 2488 1159 1978 
L 1159 0 
L 581 0 
L 581 3500 
L 1159 3500 
L 1159 2956 
Q 1356 3278 1631 3431 
Q 1906 3584 2284 3584 
Q 2666 3584 2933 3390 
Q 3200 3197 3328 2828 
z
" transform="scale(0.015625)"/>
       <path id="DejaVuSans-70" d="M 1159 525 
L 1159 -1331 
L 581 -1331 
L 581 3500 
L 1159 3500 
L 1159 2969 
Q 1341 3281 1617 3432 
Q 1894 3584 2278 3584 
Q 2916 3584 3314 3078 
Q 3713 2572 3713 1747 
Q 3713 922 3314 415 
Q 2916 -91 2278 -91 
Q 1894 -91 1617 61 
Q 1341 213 1159 525 
z
M 3116 1747 
Q 3116 2381 2855 2742 
Q 2594 3103 2138 3103 
Q 1681 3103 1420 2742 
Q 1159 2381 1159 1747 
Q 1159 1113 1420 752 
Q 1681 391 2138 391 
Q 2594 391 2855 752 
Q 3116 1113 3116 1747 
z
" transform="scale(0.015625)"/>
       <path id="DejaVuSans-75" d="M 544 1381 
L 544 3500 
L 1119 3500 
L 1119 1403 
Q 1119 906 1312 657 
Q 1506 409 1894 409 
Q 2359 409 2629 706 
Q 2900 1003 2900 1516 
L 2900 3500 
L 3475 3500 
L 3475 0 
L 2900 0 
L 2900 538 
Q 2691 219 2414 64 
Q 2138 -91 1772 -91 
Q 1169 -91 856 284 
Q 544 659 544 1381 
z
M 1991 3584 
L 1991 3584 
z
" transform="scale(0.015625)"/>
       <path id="DejaVuSans-74" d="M 1172 4494 
L 1172 3500 
L 2356 3500 
L 2356 3053 
L 1172 3053 
L 1172 1153 
Q 1172 725 1289 603 
Q 1406 481 1766 481 
L 2356 481 
L 2356 0 
L 1766 0 
Q 1100 0 847 248 
Q 594 497 594 1153 
L 594 3053 
L 172 3053 
L 172 3500 
L 594 3500 
L 594 4494 
L 1172 4494 
z
" transform="scale(0.015625)"/>
       <path id="DejaVuSans-65" d="M 3597 1894 
L 3597 1613 
L 953 1613 
Q 991 1019 1311 708 
Q 1631 397 2203 397 
Q 2534 397 2845 478 
Q 3156 559 3463 722 
L 3463 178 
Q 3153 47 2828 -22 
Q 2503 -91 2169 -91 
Q 1331 -91 842 396 
Q 353 884 353 1716 
Q 353 2575 817 3079 
Q 1281 3584 2069 3584 
Q 2775 3584 3186 3129 
Q 3597 2675 3597 1894 
z
M 3022 2063 
Q 3016 2534 2758 2815 
Q 2500 3097 2075 3097 
Q 1594 3097 1305 2825 
Q 1016 2553 972 2059 
L 3022 2063 
z
" transform="scale(0.015625)"/>
       <path id="DejaVuSans-20" transform="scale(0.015625)"/>
       <path id="DejaVuSans-69" d="M 603 3500 
L 1178 3500 
L 1178 0 
L 603 0 
L 603 3500 
z
M 603 4863 
L 1178 4863 
L 1178 4134 
L 603 4134 
L 603 4863 
z
" transform="scale(0.015625)"/>
       <path id="DejaVuSans-2f" d="M 1625 4666 
L 2156 4666 
L 531 -594 
L 0 -594 
L 1625 4666 
z
" transform="scale(0.015625)"/>
       <path id="DejaVuSans-73" d="M 2834 3397 
L 2834 2853 
Q 2591 2978 2328 3040 
Q 2066 3103 1784 3103 
Q 1356 3103 1142 2972 
Q 928 2841 928 2578 
Q 928 2378 1081 2264 
Q 1234 2150 1697 2047 
L 1894 2003 
Q 2506 1872 2764 1633 
Q 3022 1394 3022 966 
Q 3022 478 2636 193 
Q 2250 -91 1575 -91 
Q 1294 -91 989 -36 
Q 684 19 347 128 
L 347 722 
Q 666 556 975 473 
Q 1284 391 1588 391 
Q 1994 391 2212 530 
Q 2431 669 2431 922 
Q 2431 1156 2273 1281 
Q 2116 1406 1581 1522 
L 1381 1569 
Q 847 1681 609 1914 
Q 372 2147 372 2553 
Q 372 3047 722 3315 
Q 1072 3584 1716 3584 
Q 2034 3584 2315 3537 
Q 2597 3491 2834 3397 
z
" transform="scale(0.015625)"/>
      </defs>
      <use xlink:href="#DejaVuSans-43"/>
      <use xlink:href="#DejaVuSans-6f" x="69.824219"/>
      <use xlink:href="#DejaVuSans-6d" x="131.005859"/>
      <use xlink:href="#DejaVuSans-70" x="228.417969"/>
      <use xlink:href="#DejaVuSans-75" x="291.894531"/>
      <use xlink:href="#DejaVuSans-74" x="355.273438"/>
      <use xlink:href="#DejaVuSans-65" x="394.482422"/>
      <use xlink:href="#DejaVuSans-20" x="456.005859"/>
      <use xlink:href="#DejaVuSans-74" x="487.792969"/>
      <use xlink:href="#DejaVuSans-69" x="527.001953"/>
      <use xlink:href="#DejaVuSans-6d" x="554.785156"/>
      <use xlink:href="#DejaVuSans-65" x="652.197266"/>
      <use xlink:href="#DejaVuSans-20" x="713.720703"/>
      <use xlink:href="#DejaVuSans-2f" x="745.507812"/>
      <use xlink:href="#DejaVuSans-20" x="779.199219"/>
      <use xlink:href="#DejaVuSans-73" x="810.986328"/>
     </g>
    </g>
   </g>
   <g id="matplotlib.axis_2">
    <g id="ytick_1">
     <g id="line2d_41">
      <path d="M 94.095313 367.953003 
L 596.295313 367.953003 
" clip-path="url(#p032215f8a8)" style="fill: none; stroke-dasharray: 1.85,0.8; stroke-dashoffset: 0; stroke: #b0b0b0; stroke-width: 0.5"/>
     </g>
     <g id="line2d_42">
      <defs>
       <path id="m576fc52e5f" d="M 0 0 
L -3.5 0 
" style="stroke: #000000; stroke-width: 0.8"/>
      </defs>
      <g>
       <use xlink:href="#m576fc52e5f" x="94.095313" y="367.953003" style="stroke: #000000; stroke-width: 0.8"/>
      </g>
     </g>
     <g id="text_4">
      <!-- $\mathdefault{10^{-6}}$ -->
      <g transform="translate(35.395313 376.311284) scale(0.22 -0.22)">
       <defs>
        <path id="DejaVuSans-2212" d="M 678 2272 
L 4684 2272 
L 4684 1741 
L 678 1741 
L 678 2272 
z
" transform="scale(0.015625)"/>
        <path id="DejaVuSans-36" d="M 2113 2584 
Q 1688 2584 1439 2293 
Q 1191 2003 1191 1497 
Q 1191 994 1439 701 
Q 1688 409 2113 409 
Q 2538 409 2786 701 
Q 3034 994 3034 1497 
Q 3034 2003 2786 2293 
Q 2538 2584 2113 2584 
z
M 3366 4563 
L 3366 3988 
Q 3128 4100 2886 4159 
Q 2644 4219 2406 4219 
Q 1781 4219 1451 3797 
Q 1122 3375 1075 2522 
Q 1259 2794 1537 2939 
Q 1816 3084 2150 3084 
Q 2853 3084 3261 2657 
Q 3669 2231 3669 1497 
Q 3669 778 3244 343 
Q 2819 -91 2113 -91 
Q 1303 -91 875 529 
Q 447 1150 447 2328 
Q 447 3434 972 4092 
Q 1497 4750 2381 4750 
Q 2619 4750 2861 4703 
Q 3103 4656 3366 4563 
z
" transform="scale(0.015625)"/>
       </defs>
       <use xlink:href="#DejaVuSans-31" transform="translate(0 0.765625)"/>
       <use xlink:href="#DejaVuSans-30" transform="translate(63.623047 0.765625)"/>
       <use xlink:href="#DejaVuSans-2212" transform="translate(128.203125 39.046875) scale(0.7)"/>
       <use xlink:href="#DejaVuSans-36" transform="translate(186.855469 39.046875) scale(0.7)"/>
      </g>
     </g>
    </g>
    <g id="ytick_2">
     <g id="line2d_43">
      <path d="M 94.095313 282.577346 
L 596.295313 282.577346 
" clip-path="url(#p032215f8a8)" style="fill: none; stroke-dasharray: 1.85,0.8; stroke-dashoffset: 0; stroke: #b0b0b0; stroke-width: 0.5"/>
     </g>
     <g id="line2d_44">
      <g>
       <use xlink:href="#m576fc52e5f" x="94.095313" y="282.577346" style="stroke: #000000; stroke-width: 0.8"/>
      </g>
     </g>
     <g id="text_5">
      <!-- $\mathdefault{10^{-4}}$ -->
      <g transform="translate(35.395313 290.935628) scale(0.22 -0.22)">
       <defs>
        <path id="DejaVuSans-34" d="M 2419 4116 
L 825 1625 
L 2419 1625 
L 2419 4116 
z
M 2253 4666 
L 3047 4666 
L 3047 1625 
L 3713 1625 
L 3713 1100 
L 3047 1100 
L 3047 0 
L 2419 0 
L 2419 1100 
L 313 1100 
L 313 1709 
L 2253 4666 
z
" transform="scale(0.015625)"/>
       </defs>
       <use xlink:href="#DejaVuSans-31" transform="translate(0 0.684375)"/>
       <use xlink:href="#DejaVuSans-30" transform="translate(63.623047 0.684375)"/>
       <use xlink:href="#DejaVuSans-2212" transform="translate(128.203125 38.965625) scale(0.7)"/>
       <use xlink:href="#DejaVuSans-34" transform="translate(186.855469 38.965625) scale(0.7)"/>
      </g>
     </g>
    </g>
    <g id="ytick_3">
     <g id="line2d_45">
      <path d="M 94.095313 197.20169 
L 596.295313 197.20169 
" clip-path="url(#p032215f8a8)" style="fill: none; stroke-dasharray: 1.85,0.8; stroke-dashoffset: 0; stroke: #b0b0b0; stroke-width: 0.5"/>
     </g>
     <g id="line2d_46">
      <g>
       <use xlink:href="#m576fc52e5f" x="94.095313" y="197.20169" style="stroke: #000000; stroke-width: 0.8"/>
      </g>
     </g>
     <g id="text_6">
      <!-- $\mathdefault{10^{-2}}$ -->
      <g transform="translate(35.395313 205.559971) scale(0.22 -0.22)">
       <defs>
        <path id="DejaVuSans-32" d="M 1228 531 
L 3431 531 
L 3431 0 
L 469 0 
L 469 531 
Q 828 903 1448 1529 
Q 2069 2156 2228 2338 
Q 2531 2678 2651 2914 
Q 2772 3150 2772 3378 
Q 2772 3750 2511 3984 
Q 2250 4219 1831 4219 
Q 1534 4219 1204 4116 
Q 875 4013 500 3803 
L 500 4441 
Q 881 4594 1212 4672 
Q 1544 4750 1819 4750 
Q 2544 4750 2975 4387 
Q 3406 4025 3406 3419 
Q 3406 3131 3298 2873 
Q 3191 2616 2906 2266 
Q 2828 2175 2409 1742 
Q 1991 1309 1228 531 
z
" transform="scale(0.015625)"/>
       </defs>
       <use xlink:href="#DejaVuSans-31" transform="translate(0 0.765625)"/>
       <use xlink:href="#DejaVuSans-30" transform="translate(63.623047 0.765625)"/>
       <use xlink:href="#DejaVuSans-2212" transform="translate(128.203125 39.046875) scale(0.7)"/>
       <use xlink:href="#DejaVuSans-32" transform="translate(186.855469 39.046875) scale(0.7)"/>
      </g>
     </g>
    </g>
    <g id="ytick_4">
     <g id="line2d_47">
      <path d="M 94.095313 111.826033 
L 596.295313 111.826033 
" clip-path="url(#p032215f8a8)" style="fill: none; stroke-dasharray: 1.85,0.8; stroke-dashoffset: 0; stroke: #b0b0b0; stroke-width: 0.5"/>
     </g>
     <g id="line2d_48">
      <g>
       <use xlink:href="#m576fc52e5f" x="94.095313" y="111.826033" style="stroke: #000000; stroke-width: 0.8"/>
      </g>
     </g>
     <g id="text_7">
      <!-- $\mathdefault{10^{0}}$ -->
      <g transform="translate(48.375313 120.184314) scale(0.22 -0.22)">
       <use xlink:href="#DejaVuSans-31" transform="translate(0 0.765625)"/>
       <use xlink:href="#DejaVuSans-30" transform="translate(63.623047 0.765625)"/>
       <use xlink:href="#DejaVuSans-30" transform="translate(128.203125 39.046875) scale(0.7)"/>
      </g>
     </g>
    </g>
    <g id="ytick_5">
     <g id="line2d_49">
      <path d="M 94.095313 26.450376 
L 596.295313 26.450376 
" clip-path="url(#p032215f8a8)" style="fill: none; stroke-dasharray: 1.85,0.8; stroke-dashoffset: 0; stroke: #b0b0b0; stroke-width: 0.5"/>
     </g>
     <g id="line2d_50">
      <g>
       <use xlink:href="#m576fc52e5f" x="94.095313" y="26.450376" style="stroke: #000000; stroke-width: 0.8"/>
      </g>
     </g>
     <g id="text_8">
      <!-- $\mathdefault{10^{2}}$ -->
      <g transform="translate(48.375313 34.808657) scale(0.22 -0.22)">
       <use xlink:href="#DejaVuSans-31" transform="translate(0 0.765625)"/>
       <use xlink:href="#DejaVuSans-30" transform="translate(63.623047 0.765625)"/>
       <use xlink:href="#DejaVuSans-32" transform="translate(128.203125 39.046875) scale(0.7)"/>
      </g>
     </g>
    </g>
    <g id="text_9">
     <!-- Max abs error / mM -->
     <g transform="translate(26.196094 332.589531) rotate(-90) scale(0.25 -0.25)">
      <defs>
       <path id="DejaVuSans-4d" d="M 628 4666 
L 1569 4666 
L 2759 1491 
L 3956 4666 
L 4897 4666 
L 4897 0 
L 4281 0 
L 4281 4097 
L 3078 897 
L 2444 897 
L 1241 4097 
L 1241 0 
L 628 0 
L 628 4666 
z
" transform="scale(0.015625)"/>
       <path id="DejaVuSans-61" d="M 2194 1759 
Q 1497 1759 1228 1600 
Q 959 1441 959 1056 
Q 959 750 1161 570 
Q 1363 391 1709 391 
Q 2188 391 2477 730 
Q 2766 1069 2766 1631 
L 2766 1759 
L 2194 1759 
z
M 3341 1997 
L 3341 0 
L 2766 0 
L 2766 531 
Q 2569 213 2275 61 
Q 1981 -91 1556 -91 
Q 1019 -91 701 211 
Q 384 513 384 1019 
Q 384 1609 779 1909 
Q 1175 2209 1959 2209 
L 2766 2209 
L 2766 2266 
Q 2766 2663 2505 2880 
Q 2244 3097 1772 3097 
Q 1472 3097 1187 3025 
Q 903 2953 641 2809 
L 641 3341 
Q 956 3463 1253 3523 
Q 1550 3584 1831 3584 
Q 2591 3584 2966 3190 
Q 3341 2797 3341 1997 
z
" transform="scale(0.015625)"/>
       <path id="DejaVuSans-78" d="M 3513 3500 
L 2247 1797 
L 3578 0 
L 2900 0 
L 1881 1375 
L 863 0 
L 184 0 
L 1544 1831 
L 300 3500 
L 978 3500 
L 1906 2253 
L 2834 3500 
L 3513 3500 
z
" transform="scale(0.015625)"/>
       <path id="DejaVuSans-62" d="M 3116 1747 
Q 3116 2381 2855 2742 
Q 2594 3103 2138 3103 
Q 1681 3103 1420 2742 
Q 1159 2381 1159 1747 
Q 1159 1113 1420 752 
Q 1681 391 2138 391 
Q 2594 391 2855 752 
Q 3116 1113 3116 1747 
z
M 1159 2969 
Q 1341 3281 1617 3432 
Q 1894 3584 2278 3584 
Q 2916 3584 3314 3078 
Q 3713 2572 3713 1747 
Q 3713 922 3314 415 
Q 2916 -91 2278 -91 
Q 1894 -91 1617 61 
Q 1341 213 1159 525 
L 1159 0 
L 581 0 
L 581 4863 
L 1159 4863 
L 1159 2969 
z
" transform="scale(0.015625)"/>
       <path id="DejaVuSans-72" d="M 2631 2963 
Q 2534 3019 2420 3045 
Q 2306 3072 2169 3072 
Q 1681 3072 1420 2755 
Q 1159 2438 1159 1844 
L 1159 0 
L 581 0 
L 581 3500 
L 1159 3500 
L 1159 2956 
Q 1341 3275 1631 3429 
Q 1922 3584 2338 3584 
Q 2397 3584 2469 3576 
Q 2541 3569 2628 3553 
L 2631 2963 
z
" transform="scale(0.015625)"/>
      </defs>
      <use xlink:href="#DejaVuSans-4d"/>
      <use xlink:href="#DejaVuSans-61" x="86.279297"/>
      <use xlink:href="#DejaVuSans-78" x="147.558594"/>
      <use xlink:href="#DejaVuSans-20" x="206.738281"/>
      <use xlink:href="#DejaVuSans-61" x="238.525391"/>
      <use xlink:href="#DejaVuSans-62" x="299.804688"/>
      <use xlink:href="#DejaVuSans-73" x="363.28125"/>
      <use xlink:href="#DejaVuSans-20" x="415.380859"/>
      <use xlink:href="#DejaVuSans-65" x="447.167969"/>
      <use xlink:href="#DejaVuSans-72" x="508.691406"/>
      <use xlink:href="#DejaVuSans-72" x="548.054688"/>
      <use xlink:href="#DejaVuSans-6f" x="586.917969"/>
      <use xlink:href="#DejaVuSans-72" x="648.099609"/>
      <use xlink:href="#DejaVuSans-20" x="689.212891"/>
      <use xlink:href="#DejaVuSans-2f" x="721"/>
      <use xlink:href="#DejaVuSans-20" x="754.691406"/>
      <use xlink:href="#DejaVuSans-6d" x="786.478516"/>
      <use xlink:href="#DejaVuSans-4d" x="883.890625"/>
     </g>
    </g>
   </g>
   <g id="line2d_51">
    <path d="M 193.100007 102.163146 
L 204.948528 104.581959 
L 217.95744 106.497846 
L 227.174272 108.725426 
L 235.437084 111.379984 
L 245.008021 114.245292 
L 251.996009 117.081536 
L 260.080417 119.851184 
L 267.521918 122.620205 
L 272.974153 125.437912 
L 278.287854 128.3003 
L 284.380956 131.182197 
L 289.02832 134.067348 
L 294.54777 136.953936 
L 298.727435 139.845804 
L 303.656408 142.745044 
L 307.456361 145.650739 
L 312.013269 148.560943 
L 315.494708 151.474304 
L 319.633088 154.390324 
L 322.897169 157.308876 
L 326.775407 160.229815 
L 329.757017 163.152883 
L 333.321651 166.077786 
L 336.104879 169.004271 
L 339.481954 171.932151 
L 342.090399 174.861278 
L 345.261841 177.791519 
L 347.677701 180.72275 
L 350.668325 183.654858 
L 352.950273 186.587741 
L 355.779588 189.521306 
L 358.525907 192.455478 
L 360.693182 195.390186 
L 363.301029 198.325366 
L 365.298005 201.260962 
L 367.782342 204.196925 
L 370.172214 207.133209 
L 372.05893 210.037005 
L 374.487944 212.914166 
L 376.601681 215.781563 
L 378.364356 218.63754 
L 380.528807 221.480193 
L 382.617867 224.307346 
L 384.271805 227.116508 
L 386.330797 229.904842 
L 387.895942 232.669131 
L 389.828546 235.405741 
L 391.409126 238.110594 
L 393.601604 240.779142 
L 395.236065 243.406356 
L 396.910716 245.986725 
L 398.60061 248.514278 
L 400.150792 250.982624 
L 401.805286 253.385025 
L 403.261241 255.714502 
L 404.883017 257.963969 
L 406.292243 260.12641 
L 407.94366 262.195079 
L 409.486973 264.163725 
L 410.868245 266.026821 
L 412.40302 267.779798 
L 413.761231 269.419241 
L 415.230984 270.943049 
L 416.549069 272.350541 
L 417.921548 273.642487 
L 419.363684 274.821067 
L 420.572274 275.889769 
L 421.957056 276.853228 
L 423.201542 277.717016 
L 424.497464 278.487422 
L 425.758987 279.171208 
L 426.97076 279.775398 
L 428.23216 280.307069 
L 429.380399 280.773187 
L 430.609959 281.180465 
L 431.807921 281.535262 
L 432.897908 281.843517 
L 434.128266 282.110702 
L 435.206829 282.341808 
L 436.392495 282.541342 
L 437.430684 282.713343 
L 438.646946 282.861404 
L 439.818859 282.988704 
L 440.834165 283.098039 
L 441.951079 283.191861 
L 443.027044 283.272306 
L 444.022076 283.341238 
L 445.088226 283.400267 
L 446.155811 283.450793 
L 447.224645 283.494024 
L 448.228859 283.530996 
L 449.209412 283.562609 
L 450.257001 283.589627 
L 451.165715 283.612719 
L 452.153959 283.632448 
L 453.144352 283.649301 
L 454.037953 283.663697 
L 455.008718 283.675991 
L 455.957421 283.686489 
L 456.836685 283.695455 
L 457.826466 283.703108 
L 458.747181 283.709641 
L 459.60075 283.715219 
L 460.538842 283.71998 
L 461.387725 283.724045 
L 462.319476 283.727515 
L 463.219652 283.730477 
L 464.04468 283.733005 
" clip-path="url(#p032215f8a8)" style="fill: none; stroke-dasharray: 7.4,3.2; stroke-dashoffset: 0; stroke: #ff7f0e; stroke-width: 2"/>
   </g>
   <g id="line2d_52">
    <path d="M 116.922585 25.756364 
L 141.80007 36.302956 
L 165.291816 47.180505 
L 179.763307 54.959749 
L 194.097129 61.700101 
L 207.217372 68.381525 
L 216.875014 75.108968 
L 227.868337 81.659005 
L 235.437084 87.724743 
L 243.381672 93.574854 
L 250.704556 93.627047 
L 256.889348 94.189008 
L 263.827993 95.403015 
L 268.691732 97.117887 
L 274.667307 99.224163 
L 279.171531 101.637878 
L 283.773959 104.293182 
L 289.02832 107.13833 
L 293.112031 110.132773 
L 298.141643 113.244707 
L 301.791229 116.448942 
L 305.66608 119.725282 
L 309.733696 123.057326 
L 313.076927 126.431655 
L 317.054777 129.837278 
L 320.150662 133.265226 
L 323.844687 136.708223 
L 326.727306 140.160431 
L 329.803587 143.617222 
L 332.96223 147.074995 
L 335.668583 150.53099 
L 338.723138 153.983164 
L 341.270167 157.430052 
L 344.26979 160.870662 
L 346.672177 164.304371 
L 349.392912 167.730864 
L 351.742614 171.150045 
L 354.393521 174.562004 
L 356.552513 177.966944 
L 359.072447 181.365175 
L 361.127345 184.757059 
L 363.268468 188.142995 
L 365.552604 191.523405 
L 367.471489 194.898716 
L 369.717336 198.269349 
L 371.583354 201.635707 
L 373.704677 204.998185 
L 375.493634 208.357153 
L 377.585039 211.712949 
L 379.274587 215.065896 
L 381.310962 218.416292 
L 382.987942 221.764402 
L 384.635413 225.110476 
L 386.27987 228.454739 
L 388.24577 231.79739 
L 389.80402 235.072193 
L 391.33676 238.327503 
L 392.844812 241.565262 
L 394.702169 244.782605 
L 396.157389 247.976176 
L 397.928308 251.142015 
L 399.001686 254.275513 
L 400.7201 257.371382 
L 402.085387 260.423552 
L 403.76975 263.425171 
L 405.091591 266.368582 
L 406.39503 269.245309 
L 407.680572 272.046191 
L 409.268051 274.761506 
L 410.515003 277.381107 
L 412.055531 279.894713 
L 413.247047 282.292283 
L 414.743626 284.56435 
L 415.920188 286.692655 
L 417.100477 288.251961 
L 418.501071 289.663495 
L 419.631629 290.597098 
L 420.748699 289.282141 
L 422.113525 288.250806 
L 423.21871 287.431041 
L 424.548252 286.77277 
L 425.608499 286.24018 
L 426.921269 285.806624 
L 427.955127 285.452 
L 429.235625 285.160793 
L 430.244376 284.920939 
L 431.242375 284.722868 
L 432.478986 284.558946 
L 433.43818 284.423138 
L 434.646311 284.310419 
L 435.598708 284.216737 
L 436.779453 284.138789 
L 437.710503 284.073914 
L 438.85055 284.019936 
L 440.019933 283.974947 
L 440.905252 283.937516 
L 442.007279 283.906094 
L 442.888005 283.880048 
L 443.967073 283.858265 
L 444.829639 283.840068 
L 446.531293 283.824842 
L 447.648786 283.812178 
L 453.181756 283.801536 
L 457.838328 283.79271 
L 458.688432 283.785334 
L 459.519237 283.779112 
L 460.365829 283.774018 
L 461.204833 283.769705 
L 462.013702 283.766109 
L 462.82689 283.76314 
L 463.644223 283.760576 
" clip-path="url(#p032215f8a8)" style="fill: none; stroke: #ff7f0e; stroke-width: 2; stroke-linecap: square"/>
   </g>
   <g id="line2d_53">
    <path d="M 270.551089 102.163148 
L 283.23959 104.581961 
L 294.953969 106.497849 
L 304.697079 108.725429 
L 314.622722 111.379988 
L 323.047416 114.245296 
L 330.776243 117.08154 
L 337.787267 119.851189 
L 344.110082 122.62021 
L 350.03279 125.437918 
L 355.920595 128.300307 
L 361.526332 131.182205 
L 366.689811 134.067357 
L 372.650023 136.953947 
L 378.447471 139.845816 
L 383.35656 142.745057 
L 387.870904 145.650754 
L 391.986045 148.560961 
L 396.27192 151.474325 
L 399.996924 154.390348 
L 403.367408 157.308904 
L 406.988981 160.229847 
L 410.120941 163.152921 
L 413.380626 166.07783 
L 416.438396 169.004323 
L 419.399455 171.932212 
L 422.096152 174.861348 
L 424.768019 177.791601 
L 427.480641 180.722846 
L 430.116882 183.65497 
L 432.74297 186.587872 
L 435.206829 189.521461 
L 437.666376 192.455659 
L 439.933811 195.390397 
L 442.203713 198.325613 
L 444.324016 201.261252 
L 446.611557 204.197264 
L 448.766167 207.133605 
L 450.833969 210.070239 
L 453.044534 213.007129 
L 455.045385 215.944248 
L 457.028302 218.881568 
L 458.934932 221.819067 
L 460.860946 224.756727 
L 462.736883 227.694529 
L 464.487632 230.63246 
L 466.37963 233.570509 
L 468.096064 236.508665 
L 469.896371 239.446921 
L 471.519347 242.385271 
L 473.275732 245.323713 
L 474.841652 248.262244 
L 476.537359 251.200865 
L 478.050099 254.139578 
L 479.69857 257.078387 
L 481.300058 260.0173 
L 482.88369 262.956323 
L 484.298036 265.895473 
L 485.840965 268.83476 
L 487.211658 271.768252 
L 488.699158 274.652732 
L 490.028932 277.528146 
L 491.472678 280.393007 
L 492.910811 283.245599 
L 494.174444 286.083942 
L 495.429187 288.90577 
L 496.847356 291.708484 
L 498.136453 294.489129 
L 499.461285 297.244353 
L 500.767633 299.970373 
L 501.937589 302.662952 
L 503.093107 305.317379 
L 504.350084 307.928826 
L 505.476385 310.490439 
L 506.701976 312.997305 
L 507.911731 315.442536 
L 508.996234 317.819888 
L 510.183671 320.120305 
L 511.242321 322.338817 
L 512.50107 324.46781 
L 513.533982 326.500643 
L 514.659116 328.432456 
L 515.777277 330.254477 
L 516.768539 331.96621 
L 517.855688 333.563534 
L 518.930358 335.044799 
L 520.005046 336.40985 
L 520.952764 337.659949 
L 521.992661 338.797839 
L 523.021136 339.827396 
L 523.944812 340.75366 
L 524.95797 341.582522 
L 525.954552 342.320371 
L 526.997321 342.974139 
L 527.955717 343.550932 
L 528.89885 344.059534 
L 529.843572 344.504143 
L 530.746197 344.888418 
L 531.704891 345.225478 
L 532.632527 345.518277 
L 533.529927 345.771796 
L 534.392629 345.992841 
L 535.309698 346.182715 
L 536.197329 346.342248 
L 537.010453 346.482432 
L 537.88218 346.606123 
L 538.755861 346.706244 
L 539.537247 346.794944 
L 540.321996 346.871138 
" clip-path="url(#p032215f8a8)" style="fill: none; stroke-dasharray: 7.4,3.2; stroke-dashoffset: 0; stroke: #d62728; stroke-width: 2"/>
   </g>
   <g id="line2d_54">
    <path d="M 181.367757 25.756364 
L 203.524488 36.302956 
L 226.334546 47.180505 
L 240.526187 54.959749 
L 254.734506 61.700101 
L 265.508317 68.381525 
L 277.80231 75.108968 
L 286.400993 81.659005 
L 295.291128 87.724743 
L 302.417093 93.574854 
L 310.021696 93.627047 
L 316.251091 94.189008 
L 322.746681 95.403015 
L 328.159698 97.117887 
L 333.276798 99.224163 
L 338.765456 101.637879 
L 343.347726 104.293182 
L 348.329368 107.13833 
L 353.022966 110.132773 
L 357.041074 113.244706 
L 361.26053 116.448941 
L 365.393561 119.72528 
L 369.321313 123.057323 
L 373.120225 126.431651 
L 376.29048 129.837273 
L 380.230409 133.26522 
L 383.251388 136.708215 
L 386.457993 140.160421 
L 389.607579 143.61721 
L 392.678445 147.07498 
L 395.628736 150.530972 
L 398.152946 153.983141 
L 401.285966 157.430025 
L 403.664038 160.87063 
L 406.292243 164.304332 
L 408.848682 167.730818 
L 411.35666 171.14999 
L 413.780221 174.561938 
L 415.864495 177.966866 
L 418.483015 181.365081 
L 420.466259 184.756947 
L 422.650478 188.142862 
L 424.818661 191.523247 
L 426.921269 194.898528 
L 428.993835 198.269122 
L 431.021515 201.635438 
L 432.990748 204.997866 
L 434.934563 208.356772 
L 436.823999 211.712495 
L 438.676059 215.065357 
L 440.506467 218.415645 
L 442.287773 221.763632 
L 444.035822 225.109555 
L 446.611557 228.453638 
L 448.504451 231.79608 
L 450.680458 235.137052 
L 452.556394 238.476717 
L 454.333935 241.815216 
L 456.367969 245.152673 
L 457.992391 248.489191 
L 459.891289 251.824865 
L 461.479037 255.159781 
L 463.085176 258.493999 
L 464.664228 261.827576 
L 466.06513 265.160559 
L 467.605804 268.492974 
L 468.932089 271.824844 
L 470.250238 275.156179 
L 471.713863 278.486971 
L 472.842241 281.817205 
L 474.266206 285.146851 
L 475.521661 288.475857 
L 476.731428 291.795115 
L 477.964038 295.047827 
L 479.019961 298.285323 
L 480.353647 301.504844 
L 481.521359 304.703146 
L 482.538128 307.876448 
L 483.688074 311.020358 
L 484.824067 314.129851 
L 485.937658 317.199116 
L 487.185654 320.221566 
L 488.143039 323.189907 
L 489.3537 326.096095 
L 490.414996 328.931169 
L 491.340083 331.685582 
L 492.510356 334.349274 
L 493.415068 336.911996 
L 494.56786 339.363412 
L 495.571975 341.693972 
L 496.447718 343.894631 
L 497.556226 345.957583 
L 498.528963 347.876754 
L 499.499298 349.648448 
L 500.564948 351.270825 
L 501.395415 352.744646 
L 502.447186 352.962267 
L 503.392533 351.909258 
L 504.292329 351.073101 
L 505.31223 350.402448 
L 506.215078 349.859911 
L 507.102295 349.418522 
L 507.981183 349.057519 
L 508.955018 348.761286 
L 509.823573 348.517282 
L 510.677399 348.315832 
L 511.630407 348.149171 
L 512.474605 348.01109 
L 513.3047 347.896513 
L 514.1275 347.801524 
L 514.949578 347.722262 
" clip-path="url(#p032215f8a8)" style="fill: none; stroke: #d62728; stroke-width: 2; stroke-linecap: square"/>
   </g>
   <g id="line2d_55">
    <path d="M 279.9677 102.163148 
L 289.530738 104.581961 
L 315.927675 106.497849 
L 320.767997 108.725429 
L 325.66278 111.379988 
L 329.430378 114.245296 
L 334.480328 117.08154 
L 338.128667 119.851189 
L 341.967822 122.62021 
L 345.812832 125.437918 
L 349.50615 128.300307 
L 352.986627 131.182205 
L 355.850118 134.067357 
L 359.140541 136.953946 
L 361.824461 139.845816 
L 364.914803 142.745057 
L 367.937382 145.650754 
L 370.594782 148.560961 
L 373.325199 151.474324 
L 375.779001 154.390347 
L 378.50284 157.308903 
L 380.664128 160.229846 
L 383.172432 163.15292 
L 385.255474 166.077829 
L 387.645262 169.004322 
L 390.00005 171.93221 
L 392.320946 174.861346 
L 394.165211 177.791598 
L 396.363444 180.722843 
L 398.152946 183.654967 
L 400.260544 186.587868 
L 401.956214 189.521456 
L 404.022972 192.455653 
L 405.962563 195.390391 
L 407.579187 198.325606 
L 409.168371 201.261243 
L 411.044368 204.197254 
L 412.576282 207.133594 
L 414.385868 210.070225 
L 416.161141 213.007113 
L 417.612211 215.944229 
L 419.345794 218.881546 
L 420.731072 221.819041 
L 422.391047 224.756696 
L 424.294033 227.694493 
L 426.142473 230.578666 
L 427.726365 233.453472 
L 429.492847 236.317805 
L 430.752626 239.16994 
L 432.494535 242.00789 
L 433.73017 244.829379 
L 435.161506 247.631804 
L 436.586174 250.412203 
L 438.004149 253.167218 
L 439.37208 255.893064 
L 440.549275 258.585499 
L 441.866716 261.239806 
L 442.95755 263.850784 
L 444.2829 266.412754 
L 445.359654 268.919598 
L 446.638297 271.364765 
L 447.886523 273.741444 
L 448.948934 276.042595 
L 450.154055 278.261134 
L 451.165715 280.390125 
L 452.166561 282.422976 
L 453.356111 284.353675 
L 454.321621 286.177021 
L 455.484271 287.888849 
L 456.440232 289.486207 
L 457.58892 290.967507 
L 458.523737 292.3326 
L 459.635662 293.582783 
L 460.550364 294.720727 
L 461.638618 295.750361 
L 462.725627 296.67669 
L 463.644223 297.505579 
L 464.6532 298.243506 
L 465.695055 298.897367 
L 466.552697 299.474223 
L 467.58443 299.981129 
L 468.414422 300.424967 
L 469.415472 300.812337 
L 470.250238 301.149451 
L 471.242232 301.442079 
L 472.040559 301.695516 
L 473.003775 301.914581 
L 473.957183 302.103601 
L 474.742689 302.266449 
L 475.668837 302.406573 
L 476.595622 302.527 
L 477.359391 302.630394 
L 478.288741 302.719091 
L 479.171188 302.795121 
L 479.914316 302.860258 
L 480.800209 302.91603 
L 481.668603 302.963756 
L 482.538128 303.004584 
L 483.264148 303.0395 
L 484.119048 303.06935 
L 484.957334 303.094864 
L 485.656093 303.116664 
L 486.489525 303.135288 
L 487.306946 303.151199 
L 488.125875 303.164786 
L 488.937703 303.176389 
L 489.607483 303.186296 
L 490.40662 303.194754 
L 491.198994 303.202034 
" clip-path="url(#p032215f8a8)" style="fill: none; stroke-dasharray: 7.4,3.2; stroke-dashoffset: 0; stroke: #17becf; stroke-width: 2"/>
   </g>
   <g id="line2d_56">
    <path d="M 129.594442 25.756364 
L 151.664855 36.302956 
L 173.550951 47.180505 
L 188.37131 54.959749 
L 203.524488 61.700101 
L 216.719355 68.381525 
L 226.052955 75.108968 
L 236.70407 81.659005 
L 244.314471 87.724743 
L 253.058777 93.574854 
L 261.249575 93.627047 
L 267.068069 94.189008 
L 273.993715 95.403015 
L 279.171531 97.117887 
L 285.284135 99.224163 
L 289.887964 101.637879 
L 295.358414 104.293182 
L 299.567161 107.13833 
L 303.59483 110.132773 
L 308.280254 113.244706 
L 312.798187 116.448941 
L 317.108111 119.72528 
L 320.408379 123.057323 
L 324.388898 126.431651 
L 327.446241 129.837273 
L 331.921144 133.26522 
L 334.745691 136.708215 
L 338.171255 140.160422 
L 340.815958 143.61721 
L 344.030126 147.07498 
L 347.137607 150.530972 
L 349.581566 153.983142 
L 353.131901 157.430026 
L 355.355287 160.870631 
L 358.113898 164.304333 
L 360.256995 167.730819 
L 362.844142 171.149991 
L 365.393561 174.561939 
L 368.06123 177.966867 
L 370.32335 181.365083 
L 372.67948 184.756949 
L 374.516828 188.142865 
L 377.220996 191.52325 
L 378.972159 194.898531 
L 381.149672 198.269126 
L 383.277692 201.635443 
L 385.306961 204.997871 
L 386.914472 208.356778 
L 389.28748 211.712501 
L 390.82863 215.065364 
L 392.773548 218.415653 
L 394.5857 221.763642 
L 396.432028 225.109566 
L 397.860812 228.453652 
L 399.952915 231.796096 
L 401.351039 235.13707 
L 403.048545 238.476739 
L 404.715822 241.81524 
L 406.353928 245.1527 
L 407.963867 248.41816 
L 409.54659 251.66802 
L 411.103002 254.900576 
L 412.633965 258.112882 
L 414.140296 261.301472 
L 415.641392 264.462307 
L 417.100477 267.590678 
L 418.537172 270.681201 
L 419.952154 273.727712 
L 421.346071 276.723264 
L 422.719539 279.660103 
L 423.800577 282.529697 
L 425.407471 285.322811 
L 426.458086 288.029655 
L 428.020385 290.640016 
L 429.058373 293.143629 
L 430.308059 295.530501 
L 431.572692 297.791184 
L 432.835964 299.917399 
L 434.021252 301.902348 
L 435.206829 303.741118 
L 436.392495 305.43097 
L 437.563334 306.971519 
L 438.719712 308.364813 
L 439.861983 308.611518 
L 441.004683 307.615226 
L 442.133606 306.821905 
L 443.207487 306.184171 
L 444.310313 305.667637 
L 445.386753 305.246818 
L 446.450959 304.902374 
L 447.662009 304.619353 
L 448.753099 304.386187 
L 449.572869 304.193614 
L 450.590794 304.034191 
L 451.800404 303.901995 
L 452.594033 303.792292 
L 453.778199 303.701086 
L 454.555309 303.625259 
L 455.715079 303.562144 
L 456.476342 303.509564 
L 457.612702 303.465749 
L 458.58259 303.429217 
L 459.472627 303.39874 
L 460.400457 303.373273 
L 461.319182 303.352072 
L 462.206343 303.334369 
L 463.09639 303.31959 
L 463.989163 303.30725 
L 465.038391 303.296947 
L 465.912923 303.288335 
L 466.768581 303.281144 
" clip-path="url(#p032215f8a8)" style="fill: none; stroke: #17becf; stroke-width: 2; stroke-linecap: square"/>
   </g>
   <g id="line2d_57">
    <path d="M 289.243972 102.163148 
L 302.914789 104.581961 
L 314.950669 106.497849 
L 323.894291 108.725429 
L 335.010304 111.379988 
L 342.375791 114.245296 
L 349.76984 117.08154 
L 357.214943 119.851189 
L 364.014518 122.62021 
L 369.990528 125.437918 
L 375.579336 128.300307 
L 380.826256 131.182205 
L 385.820278 134.067357 
L 390.561361 136.953947 
L 394.678887 139.845816 
L 399.001686 142.745058 
L 403.473455 145.650754 
L 407.091006 148.560962 
L 410.907413 151.474325 
L 414.517832 154.390348 
L 418.030482 157.308904 
L 421.433599 160.229848 
L 424.683554 163.152921 
L 427.579008 166.077831 
L 430.625822 169.004324 
L 433.591972 171.932212 
L 436.467034 174.861349 
L 439.256435 177.791602 
L 441.951079 180.722847 
L 444.584002 183.654971 
L 447.144905 186.587873 
L 449.650569 189.521463 
L 451.863636 192.455661 
L 454.420087 195.390399 
L 456.560546 198.325616 
L 458.782413 201.261255 
L 461.159055 204.197268 
L 463.152438 207.13361 
L 465.235874 210.070244 
L 467.295402 213.007135 
L 469.142562 215.944255 
L 471.118806 218.881576 
L 473.205301 221.819077 
L 474.980025 224.756738 
L 476.799258 227.694542 
L 478.621822 230.632476 
L 480.400264 233.570527 
L 482.017383 236.508686 
L 484.020458 239.446946 
L 485.700144 242.3853 
L 487.497231 245.323747 
L 489.268953 248.262284 
L 490.724375 251.200912 
L 492.280752 254.139633 
L 493.827834 257.078452 
L 495.357712 260.017376 
L 496.714333 262.956413 
L 498.313671 265.895575 
L 499.757375 268.834878 
L 501.08205 271.774339 
L 502.594378 274.713983 
L 503.974035 277.653836 
L 505.240768 280.593931 
L 506.680859 283.534304 
L 508.00895 286.475004 
L 509.208894 289.416081 
L 510.501849 292.357598 
L 511.770525 295.299633 
L 513.028818 298.242271 
L 514.283408 301.185613 
L 515.489375 304.125099 
L 516.692659 307.015169 
L 517.786937 309.897071 
L 519.059974 312.769465 
L 520.127086 315.630792 
L 521.561274 318.479259 
L 524.731834 321.312809 
L 525.828406 324.12907 
L 528.821081 326.925349 
L 529.849069 329.698564 
L 530.860455 332.445225 
L 531.882549 335.161415 
L 532.877643 337.842771 
L 533.851739 340.484417 
L 534.815805 343.081006 
L 535.785524 345.626706 
L 536.745302 348.115283 
L 537.725665 350.540129 
L 538.660855 352.894278 
L 539.586797 355.170723 
L 540.508576 357.362361 
L 541.416511 359.462362 
L 542.315726 361.464271 
L 543.201622 363.362354 
L 544.083935 365.151617 
L 544.953333 366.8283 
L 545.828637 368.389936 
L 546.68665 369.835297 
L 547.568719 371.164686 
L 548.42002 372.379935 
L 549.26365 373.48381 
L 550.108601 374.480999 
L 550.967931 375.376524 
L 551.815099 376.17641 
L 552.65467 376.887587 
L 553.48678 377.517011 
L 554.324257 378.071509 
L 555.145919 378.558271 
L 555.997855 378.983952 
" clip-path="url(#p032215f8a8)" style="fill: none; stroke-dasharray: 7.4,3.2; stroke-dashoffset: 0; stroke: #7f7f7f; stroke-width: 2"/>
   </g>
   <g id="line2d_58">
    <path d="M 185.153506 25.756364 
L 209.263986 36.302956 
L 229.513396 47.180505 
L 243.965759 54.959749 
L 259.094841 61.700101 
L 272.202128 68.381525 
L 282.393656 75.108968 
L 291.653932 81.659005 
L 300.080198 87.724743 
L 308.747814 93.574854 
L 315.765547 93.627047 
L 322.394598 94.189008 
L 328.537996 95.403015 
L 333.590313 97.117887 
L 339.691649 99.224163 
L 344.18997 101.637879 
L 349.694576 104.293182 
L 354.321885 107.13833 
L 358.799576 110.132773 
L 363.463664 113.244706 
L 367.471489 116.448941 
L 371.761978 119.72528 
L 375.436456 123.057323 
L 379.384319 126.431651 
L 382.77665 129.837273 
L 386.432567 133.26522 
L 390.024525 136.708215 
L 393.010884 140.160421 
L 396.317693 143.61721 
L 399.134998 147.07498 
L 402.235864 150.530971 
L 404.903895 153.983141 
L 407.822327 157.430025 
L 410.33788 160.87063 
L 413.094153 164.304332 
L 415.75301 167.730817 
L 418.338442 171.149989 
L 420.589932 174.561937 
L 423.046883 177.966865 
L 425.474528 181.365081 
L 427.791783 184.756946 
L 430.084981 188.142861 
L 432.058182 191.523245 
L 434.250417 194.898526 
L 436.392495 198.26912 
L 438.472075 201.635435 
L 440.520738 204.997862 
L 442.287773 208.356768 
L 444.460941 211.712488 
L 446.383962 215.065349 
L 448.04468 218.415635 
L 449.896195 221.763621 
L 451.699142 225.109542 
L 453.468026 228.453622 
L 455.411266 231.796061 
L 457.303066 235.13703 
L 459.005241 238.476691 
L 460.792017 241.815185 
L 462.455055 245.152633 
L 464.111256 248.489145 
L 465.65142 251.824811 
L 467.348993 255.159712 
L 469.321093 258.493915 
L 470.7992 261.827477 
L 472.406734 265.160438 
L 473.987133 268.49283 
L 475.39392 271.824674 
L 477.079743 275.155968 
L 478.583815 278.486723 
L 479.923685 281.816906 
L 481.383107 285.146491 
L 482.683783 288.475429 
L 483.966638 291.803645 
L 485.364841 295.131068 
L 486.759889 298.45757 
L 487.988451 301.783012 
L 489.328284 305.107233 
L 490.523813 308.430044 
L 491.704269 311.751174 
L 492.992327 315.070261 
L 494.134206 318.324619 
L 495.397427 321.553366 
L 496.635995 324.762722 
L 497.734545 327.949167 
L 498.950421 331.10864 
L 500.022302 334.236459 
L 501.201551 337.327231 
L 502.26287 340.374758 
L 503.414404 343.372185 
L 504.436651 346.311761 
L 505.454989 349.184964 
L 506.568155 351.982488 
L 507.452048 354.694694 
L 508.583256 357.311431 
L 509.598659 359.822136 
L 510.562654 362.216991 
L 511.583654 364.486597 
L 512.567202 366.622075 
L 513.501262 368.616892 
L 514.458494 370.465901 
L 515.425277 372.166307 
L 516.312337 373.717182 
L 517.285409 375.120746 
L 518.248471 376.38109 
L 519.127796 377.504025 
L 520.035571 378.497481 
L 520.946719 379.370607 
L 521.813158 380.132856 
L 522.754699 380.794746 
L 523.675123 381.366483 
L 524.528426 381.858081 
" clip-path="url(#p032215f8a8)" style="fill: none; stroke: #7f7f7f; stroke-width: 2; stroke-linecap: square"/>
   </g>
   <g id="line2d_59">
    <path d="M 231.66279 102.163148 
L 246.832758 104.581961 
L 258.498476 106.497849 
L 269.137797 108.725429 
L 280.835736 111.379988 
L 287.942546 114.245296 
L 295.627077 117.08154 
L 303.779442 119.851189 
L 310.366131 122.62021 
L 316.466083 125.437918 
L 323.297293 128.300307 
L 328.443565 131.182205 
L 333.456078 134.067357 
L 338.892296 136.953947 
L 342.822514 139.845816 
L 347.176288 142.745058 
L 351.926597 145.650754 
L 355.319842 148.560962 
L 359.717346 151.474325 
L 363.366117 154.390348 
L 367.1596 157.308904 
L 371.314777 160.229848 
L 374.459051 163.152922 
L 377.473177 166.077831 
L 380.664128 169.004324 
L 383.487858 171.932212 
L 386.483411 174.861349 
L 389.08995 177.791602 
L 391.601827 180.722847 
L 394.422401 183.654972 
L 396.796964 186.587873 
L 399.157198 189.521463 
L 401.632499 192.455661 
L 403.790878 195.3904 
L 406.148151 198.325616 
L 408.266449 201.261255 
L 410.33788 204.197268 
L 412.557047 207.133611 
L 414.536669 210.070244 
L 416.696429 213.007136 
L 418.555217 215.944256 
L 420.430894 218.881577 
L 422.494906 221.819078 
L 424.311003 224.756739 
L 426.225633 227.694544 
L 428.004075 230.632477 
L 429.717338 233.570529 
L 431.60409 236.508688 
L 433.237871 239.446948 
L 435.025406 242.385303 
L 436.630812 245.32375 
L 438.194526 248.223381 
L 439.991235 251.101251 
L 441.500262 253.969034 
L 443.152003 256.825076 
L 444.584002 259.66747 
L 446.048254 262.494032 
L 447.675231 265.302256 
L 449.053212 268.08929 
L 450.55234 270.851891 
L 451.914192 273.5864 
L 453.268974 276.288706 
L 454.776161 278.954228 
L 456.16292 281.577904 
L 457.553236 284.154187 
L 458.782413 286.677073 
L 460.042013 289.140139 
L 461.35346 291.536629 
L 462.556611 293.85955 
L 463.878031 296.101821 
L 465.071334 298.256442 
L 466.325481 300.316704 
L 467.488187 302.276413 
L 468.626061 304.130119 
L 469.865083 305.873345 
L 470.964294 307.502794 
L 472.152598 309.01648 
L 473.195235 310.413851 
L 474.335844 311.695801 
L 475.423414 312.864638 
L 476.469339 313.923954 
L 477.638206 314.878478 
L 478.688296 315.733854 
L 479.783052 316.496421 
L 480.790927 317.172972 
L 481.843155 317.770545 
L 482.820129 318.29621 
L 483.778024 318.756926 
L 484.966212 319.159367 
L 486.007917 319.509868 
L 487.124949 319.814319 
L 488.048599 320.078159 
L 489.039751 320.306334 
L 489.936375 320.503312 
L 490.824495 320.673078 
L 491.786841 320.819205 
L 492.657661 320.944819 
L 493.585251 321.052704 
L 494.455624 321.14528 
L 495.357712 321.224655 
L 496.196091 321.292656 
L 497.081643 321.350889 
L 497.904793 321.400733 
L 498.759084 321.443372 
L 499.567681 321.479852 
L 500.34676 321.511033 
L 501.261244 321.537677 
L 502.0634 321.560449 
L 502.8954 321.579913 
" clip-path="url(#p032215f8a8)" style="fill: none; stroke-dasharray: 7.4,3.2; stroke-dashoffset: 0; stroke: #1f77b4; stroke-width: 2"/>
   </g>
   <g id="line2d_60">
    <path d="M 144.533954 25.756364 
L 171.553459 36.302956 
L 192.899302 47.180505 
L 210.437506 54.959749 
L 223.334738 61.700101 
L 236.199331 68.381525 
L 249.174996 75.108968 
L 257.496017 81.659005 
L 266.61201 87.724743 
L 274.499362 93.574854 
L 282.548032 93.627047 
L 288.160711 94.189008 
L 294.411977 95.403015 
L 301.224353 97.117887 
L 305.726311 99.224163 
L 310.480662 101.637879 
L 315.765547 104.293182 
L 321.126238 107.13833 
L 325.028006 110.132773 
L 329.570506 113.244706 
L 334.568866 116.448941 
L 337.915438 119.72528 
L 341.640161 123.057323 
L 345.458996 126.431651 
L 349.203877 129.837273 
L 352.330091 133.265219 
L 355.673693 136.708215 
L 359.378479 140.160421 
L 362.08867 143.617209 
L 365.266131 147.074979 
L 368.73948 150.530971 
L 371.195161 153.983141 
L 373.908376 157.430024 
L 377.024385 160.870629 
L 379.274587 164.304331 
L 381.739716 167.730816 
L 384.635413 171.149988 
L 386.686511 174.561935 
L 388.991029 177.966863 
L 391.794133 181.365078 
L 393.719302 184.756943 
L 395.766934 188.142858 
L 398.332268 191.523242 
L 400.128827 194.898521 
L 402.020822 198.269115 
L 404.35954 201.635429 
L 406.024467 204.997854 
L 407.802089 208.356759 
L 409.74504 211.712478 
L 411.687333 215.065337 
L 413.418756 218.41562 
L 415.604157 221.763603 
L 417.100477 225.10952 
L 418.681438 228.453596 
L 420.678169 231.79603 
L 422.096152 235.136993 
L 423.595625 238.476646 
L 425.457768 241.815126 
L 426.805688 245.152569 
L 428.345994 248.489068 
L 430.053069 251.824719 
L 431.336871 255.159602 
L 432.789479 258.493784 
L 434.250417 261.779452 
L 435.688909 265.030196 
L 437.090833 268.264571 
L 438.48666 271.479709 
L 439.631759 274.67222 
L 441.443757 277.838191 
L 442.553467 280.973042 
L 443.87074 284.071521 
L 445.413845 287.12763 
L 446.665029 290.134575 
L 447.926088 293.084784 
L 449.365352 295.969895 
L 450.398366 298.78082 
L 451.610448 301.507828 
L 452.794524 304.140562 
L 453.976172 306.66943 
L 455.338204 309.083362 
L 456.476342 311.37382 
L 457.481827 313.531407 
L 458.735434 315.549163 
L 459.868079 317.421704 
L 460.998653 319.145791 
L 462.149725 320.720466 
L 463.152438 322.147137 
L 464.399209 323.42962 
L 465.312561 324.57393 
L 466.347145 325.587169 
L 467.488187 325.67787 
L 468.435607 324.961221 
L 469.583021 324.382942 
L 470.405931 323.913222 
L 471.37576 323.529667 
L 472.508196 323.215809 
L 473.305901 322.956456 
L 474.405431 322.74355 
L 475.35458 322.56647 
L 476.264984 322.420196 
L 477.330501 322.299549 
L 478.241061 322.198258 
L 479.284449 322.114469 
L 480.026682 322.045392 
L 480.911517 321.986798 
L 481.925724 321.938374 
L 482.647391 321.898065 
L 483.787014 321.864436 
L 484.494529 321.836415 
L 485.329476 321.813012 
L 486.30593 321.793483 
" clip-path="url(#p032215f8a8)" style="fill: none; stroke: #1f77b4; stroke-width: 2; stroke-linecap: square"/>
   </g>
   <g id="line2d_61">
    <path d="M 308.104315 102.163148 
L 321.990589 104.581961 
L 336.885124 106.497849 
L 347.292238 108.725429 
L 356.65742 111.379988 
L 364.562151 114.245296 
L 372.354943 117.08154 
L 378.668751 119.851189 
L 385.023432 122.62021 
L 391.312626 125.437918 
L 398.265063 128.300307 
L 403.409842 131.182205 
L 408.948702 134.067357 
L 413.266142 136.953947 
L 417.994185 139.845816 
L 421.939655 142.745058 
L 426.739577 145.650754 
L 430.323972 148.560962 
L 439.876353 151.474325 
L 443.429094 154.390348 
L 450.56516 157.308904 
L 453.356111 160.229848 
L 456.054183 163.152921 
L 458.688432 166.077831 
L 461.262025 169.004324 
L 463.755633 171.932212 
L 466.162847 174.861349 
L 468.541462 177.791602 
L 470.840501 180.722847 
L 473.094515 183.654972 
L 475.29554 186.587873 
L 477.436388 189.521463 
L 479.538786 192.455661 
L 481.585807 195.390399 
L 483.598037 198.325616 
L 485.567931 201.261255 
L 487.497231 204.197268 
L 489.396045 207.13361 
L 491.232211 210.070244 
L 493.049346 213.007136 
L 494.823895 215.944255 
L 496.573278 218.881577 
L 498.282874 221.819078 
L 500.090305 224.756739 
L 501.737425 227.694543 
L 503.363363 230.632476 
L 504.961546 233.570528 
L 506.532907 236.508687 
L 508.071395 239.446946 
L 509.598659 242.385302 
L 511.081263 245.323749 
L 512.553979 248.262286 
L 513.997379 251.200914 
L 515.527813 254.139635 
L 516.926424 257.078454 
L 518.304449 260.017378 
L 519.668614 262.956416 
L 521.007148 265.89558 
L 522.332772 268.834883 
L 523.634015 271.774346 
L 525.015866 274.713991 
L 526.292016 277.653845 
L 527.539738 280.593941 
L 528.776612 283.534317 
L 529.991871 286.475019 
L 531.283625 289.416098 
L 532.472323 292.357621 
L 533.646118 295.29966 
L 534.800166 298.242302 
L 535.950463 301.18565 
L 537.163084 304.129826 
L 538.440469 307.074973 
L 539.552115 310.021253 
L 540.665408 312.968859 
L 541.75594 315.918028 
L 542.829131 318.86902 
L 543.894891 321.822169 
L 544.948656 324.734602 
L 545.999945 327.63131 
L 547.057857 330.520959 
L 548.067759 333.402362 
L 549.089265 336.274167 
L 550.086463 339.134825 
L 551.077534 341.982523 
L 552.049551 344.815137 
L 553.024456 347.630326 
L 553.985067 350.425338 
L 554.940127 353.197099 
L 555.86473 355.942118 
L 556.84623 358.656435 
L 557.75229 361.335592 
L 558.649665 363.974801 
L 559.606547 366.56868 
L 560.490371 369.111323 
L 561.416948 371.596471 
L 562.40047 374.017393 
L 563.250733 376.367173 
L 564.158142 378.638811 
L 565.022869 380.825246 
L 565.879684 382.919859 
L 566.702775 384.915816 
L 567.57749 386.807835 
L 568.382212 388.590635 
L 569.281137 390.260908 
L 570.1322 391.815949 
L 570.989767 393.254528 
L 571.825508 394.577561 
L 572.650376 395.786406 
L 573.46804 396.883636 
" clip-path="url(#p032215f8a8)" style="fill: none; stroke-dasharray: 7.4,3.2; stroke-dashoffset: 0; stroke: #2ca02c; stroke-width: 2"/>
   </g>
   <g id="line2d_62">
    <path d="M 200.424515 25.756364 
L 226.193857 36.302956 
L 245.008021 47.180505 
L 261.443023 54.959749 
L 275.41935 61.700101 
L 287.650867 68.381525 
L 297.880109 75.108968 
L 307.456361 81.659005 
L 315.711442 87.724743 
L 323.695715 93.574854 
L 330.868352 93.627047 
L 337.3158 94.189008 
L 343.468511 95.403015 
L 348.938586 97.117887 
L 353.962878 99.224163 
L 358.936111 101.637879 
L 364.143662 104.293182 
L 369.107373 107.13833 
L 373.821131 110.132773 
L 377.864112 113.244706 
L 382.139897 116.448941 
L 386.254396 119.72528 
L 390.17124 123.057323 
L 393.954256 126.431651 
L 397.228487 129.837273 
L 400.7201 133.26522 
L 404.08617 136.708215 
L 407.355754 140.160421 
L 410.495339 143.61721 
L 413.55209 147.074979 
L 416.493749 150.530971 
L 419.363684 153.983141 
L 422.130894 157.430024 
L 425.088291 160.87063 
L 427.710004 164.304331 
L 430.244376 167.730817 
L 432.727462 171.149989 
L 435.131279 174.561937 
L 437.666376 177.966864 
L 439.962528 181.36508 
L 442.231742 184.756946 
L 444.529328 188.14286 
L 446.651664 191.523245 
L 448.870649 194.898525 
L 450.91063 198.26912 
L 453.007075 201.635435 
L 454.984266 204.997863 
L 456.980434 208.356769 
L 458.946654 211.712488 
L 460.803509 215.065352 
L 462.703109 218.415636 
L 464.487632 221.763622 
L 466.347145 225.109544 
L 468.149199 228.453624 
L 469.833785 231.796063 
L 471.642246 235.137032 
L 473.305901 238.476693 
L 475.00965 241.815186 
L 476.595622 245.152635 
L 478.2029 248.489147 
L 479.829953 251.824814 
L 481.346205 255.159715 
L 482.91999 258.49392 
L 484.360601 261.827482 
L 485.867346 265.160444 
L 487.298287 268.492836 
L 488.784423 271.824679 
L 490.255727 275.155977 
L 491.613355 278.48673 
L 493.008622 281.816918 
L 494.319156 285.146503 
L 495.674964 288.475441 
L 497.12843 291.80366 
L 498.490554 295.131085 
L 499.931554 298.457586 
L 501.298533 301.783043 
L 502.513451 305.107278 
L 503.799963 308.430095 
L 504.990223 311.751203 
L 506.257517 315.070327 
L 507.472992 318.387099 
L 508.610844 321.701081 
L 509.78953 325.011735 
L 510.89974 328.318208 
L 512.030189 331.619984 
L 513.153723 334.883025 
L 514.218478 338.09343 
L 515.316208 341.281092 
L 516.369484 344.442063 
L 517.454975 347.571668 
L 518.521822 350.664554 
L 519.545975 353.714806 
L 520.619726 356.714987 
L 521.603302 359.657849 
L 522.630101 362.534963 
L 523.66338 365.33674 
L 524.644713 368.05361 
L 525.644618 370.675652 
L 526.628267 373.192728 
L 527.573535 375.594406 
L 528.542804 377.871331 
L 529.452476 380.014604 
L 530.408049 382.017228 
L 531.370193 383.87459 
L 532.258289 385.583024 
L 533.175181 387.142225 
L 534.067419 388.554347 
L 534.914793 389.822467 
L 535.811315 390.953158 
L 536.632896 391.953045 
L 537.508129 392.832234 
" clip-path="url(#p032215f8a8)" style="fill: none; stroke: #2ca02c; stroke-width: 2; stroke-linecap: square"/>
   </g>
   <g id="patch_3">
    <path d="M 94.095313 415.44 
L 94.095313 7.2 
" style="fill: none; stroke: #000000; stroke-width: 0.8; stroke-linejoin: miter; stroke-linecap: square"/>
   </g>
   <g id="patch_4">
    <path d="M 596.295313 415.44 
L 596.295313 7.2 
" style="fill: none; stroke: #000000; stroke-width: 0.8; stroke-linejoin: miter; stroke-linecap: square"/>
   </g>
   <g id="patch_5">
    <path d="M 94.095313 415.44 
L 596.295312 415.44 
" style="fill: none; stroke: #000000; stroke-width: 0.8; stroke-linejoin: miter; stroke-linecap: square"/>
   </g>
   <g id="patch_6">
    <path d="M 94.095313 7.2 
L 596.295312 7.2 
" style="fill: none; stroke: #000000; stroke-width: 0.8; stroke-linejoin: miter; stroke-linecap: square"/>
   </g>
   <g id="legend_1">
    <g id="patch_7">
     <path d="M 36.395312 699.076 
L 653.995312 699.076 
Q 657.995312 699.076 657.995312 695.076 
L 657.995312 490.676 
Q 657.995312 486.676 653.995312 486.676 
L 36.395312 486.676 
Q 32.395312 486.676 32.395312 490.676 
L 32.395312 695.076 
Q 32.395312 699.076 36.395312 699.076 
z
" style="fill: #ffffff; stroke: #cccccc; stroke-linejoin: miter"/>
    </g>
    <g id="line2d_63">
     <path d="M 40.395312 506.276 
L 60.395312 506.276 
L 80.395312 506.276 
" style="fill: none; stroke-dasharray: 7.4,3.2; stroke-dashoffset: 0; stroke: #ff7f0e; stroke-width: 2"/>
    </g>
    <g id="text_10">
     <!-- DG-Julia, $N_e^b$ = 2, $N_d^b$=4 -->
     <g transform="translate(96.395312 513.276) scale(0.2 -0.2)">
      <defs>
       <path id="DejaVuSans-44" d="M 1259 4147 
L 1259 519 
L 2022 519 
Q 2988 519 3436 956 
Q 3884 1394 3884 2338 
Q 3884 3275 3436 3711 
Q 2988 4147 2022 4147 
L 1259 4147 
z
M 628 4666 
L 1925 4666 
Q 3281 4666 3915 4102 
Q 4550 3538 4550 2338 
Q 4550 1131 3912 565 
Q 3275 0 1925 0 
L 628 0 
L 628 4666 
z
" transform="scale(0.015625)"/>
       <path id="DejaVuSans-47" d="M 3809 666 
L 3809 1919 
L 2778 1919 
L 2778 2438 
L 4434 2438 
L 4434 434 
Q 4069 175 3628 42 
Q 3188 -91 2688 -91 
Q 1594 -91 976 548 
Q 359 1188 359 2328 
Q 359 3472 976 4111 
Q 1594 4750 2688 4750 
Q 3144 4750 3555 4637 
Q 3966 4525 4313 4306 
L 4313 3634 
Q 3963 3931 3569 4081 
Q 3175 4231 2741 4231 
Q 1884 4231 1454 3753 
Q 1025 3275 1025 2328 
Q 1025 1384 1454 906 
Q 1884 428 2741 428 
Q 3075 428 3337 486 
Q 3600 544 3809 666 
z
" transform="scale(0.015625)"/>
       <path id="DejaVuSans-2d" d="M 313 2009 
L 1997 2009 
L 1997 1497 
L 313 1497 
L 313 2009 
z
" transform="scale(0.015625)"/>
       <path id="DejaVuSans-4a" d="M 628 4666 
L 1259 4666 
L 1259 325 
Q 1259 -519 939 -900 
Q 619 -1281 -91 -1281 
L -331 -1281 
L -331 -750 
L -134 -750 
Q 284 -750 456 -515 
Q 628 -281 628 325 
L 628 4666 
z
" transform="scale(0.015625)"/>
       <path id="DejaVuSans-6c" d="M 603 4863 
L 1178 4863 
L 1178 0 
L 603 0 
L 603 4863 
z
" transform="scale(0.015625)"/>
       <path id="DejaVuSans-2c" d="M 750 794 
L 1409 794 
L 1409 256 
L 897 -744 
L 494 -744 
L 750 256 
L 750 794 
z
" transform="scale(0.015625)"/>
       <path id="DejaVuSans-Oblique-4e" d="M 1081 4666 
L 1931 4666 
L 3219 666 
L 4000 4666 
L 4616 4666 
L 3706 0 
L 2853 0 
L 1569 4025 
L 788 0 
L 172 0 
L 1081 4666 
z
" transform="scale(0.015625)"/>
       <path id="DejaVuSans-Oblique-62" d="M 3169 2138 
Q 3169 2591 2961 2847 
Q 2753 3103 2388 3103 
Q 2122 3103 1889 2973 
Q 1656 2844 1484 2597 
Q 1303 2338 1198 1995 
Q 1094 1653 1094 1313 
Q 1094 881 1298 636 
Q 1503 391 1863 391 
Q 2134 391 2365 517 
Q 2597 644 2772 891 
Q 2950 1147 3059 1487 
Q 3169 1828 3169 2138 
z
M 1381 2969 
Q 1594 3256 1914 3420 
Q 2234 3584 2584 3584 
Q 3122 3584 3439 3221 
Q 3756 2859 3756 2241 
Q 3756 1734 3570 1259 
Q 3384 784 3041 416 
Q 2816 172 2522 40 
Q 2228 -91 1906 -91 
Q 1566 -91 1316 65 
Q 1066 222 909 531 
L 806 0 
L 231 0 
L 1178 4863 
L 1753 4863 
L 1381 2969 
z
" transform="scale(0.015625)"/>
       <path id="DejaVuSans-Oblique-65" d="M 3078 2063 
Q 3088 2113 3092 2166 
Q 3097 2219 3097 2272 
Q 3097 2653 2873 2875 
Q 2650 3097 2266 3097 
Q 1838 3097 1509 2826 
Q 1181 2556 1013 2059 
L 3078 2063 
z
M 3578 1613 
L 903 1613 
Q 884 1494 878 1425 
Q 872 1356 872 1306 
Q 872 872 1139 634 
Q 1406 397 1894 397 
Q 2269 397 2603 481 
Q 2938 566 3225 728 
L 3116 159 
Q 2806 34 2476 -28 
Q 2147 -91 1806 -91 
Q 1078 -91 686 257 
Q 294 606 294 1247 
Q 294 1794 489 2264 
Q 684 2734 1063 3103 
Q 1306 3334 1642 3459 
Q 1978 3584 2356 3584 
Q 2950 3584 3301 3228 
Q 3653 2872 3653 2272 
Q 3653 2128 3634 1964 
Q 3616 1800 3578 1613 
z
" transform="scale(0.015625)"/>
       <path id="DejaVuSans-3d" d="M 678 2906 
L 4684 2906 
L 4684 2381 
L 678 2381 
L 678 2906 
z
M 678 1631 
L 4684 1631 
L 4684 1100 
L 678 1100 
L 678 1631 
z
" transform="scale(0.015625)"/>
       <path id="DejaVuSans-Oblique-64" d="M 2675 525 
Q 2444 222 2128 65 
Q 1813 -91 1428 -91 
Q 903 -91 598 267 
Q 294 625 294 1247 
Q 294 1766 478 2236 
Q 663 2706 1013 3078 
Q 1244 3325 1534 3454 
Q 1825 3584 2144 3584 
Q 2481 3584 2739 3421 
Q 2997 3259 3138 2956 
L 3513 4863 
L 4091 4863 
L 3144 0 
L 2566 0 
L 2675 525 
z
M 891 1350 
Q 891 897 1095 644 
Q 1300 391 1663 391 
Q 1931 391 2161 520 
Q 2391 650 2566 903 
Q 2750 1166 2856 1509 
Q 2963 1853 2963 2188 
Q 2963 2622 2758 2865 
Q 2553 3109 2194 3109 
Q 1922 3109 1687 2981 
Q 1453 2853 1288 2613 
Q 1106 2353 998 2009 
Q 891 1666 891 1350 
z
" transform="scale(0.015625)"/>
      </defs>
      <use xlink:href="#DejaVuSans-44" transform="translate(0 0.470313)"/>
      <use xlink:href="#DejaVuSans-47" transform="translate(77.001953 0.470313)"/>
      <use xlink:href="#DejaVuSans-2d" transform="translate(154.492188 0.470313)"/>
      <use xlink:href="#DejaVuSans-4a" transform="translate(190.576172 0.470313)"/>
      <use xlink:href="#DejaVuSans-75" transform="translate(220.068359 0.470313)"/>
      <use xlink:href="#DejaVuSans-6c" transform="translate(283.447266 0.470313)"/>
      <use xlink:href="#DejaVuSans-69" transform="translate(311.230469 0.470313)"/>
      <use xlink:href="#DejaVuSans-61" transform="translate(339.013672 0.470313)"/>
      <use xlink:href="#DejaVuSans-2c" transform="translate(400.292969 0.470313)"/>
      <use xlink:href="#DejaVuSans-20" transform="translate(432.080078 0.470313)"/>
      <use xlink:href="#DejaVuSans-Oblique-4e" transform="translate(463.867188 0.470313)"/>
      <use xlink:href="#DejaVuSans-Oblique-62" transform="translate(545.688646 38.751563) scale(0.7)"/>
      <use xlink:href="#DejaVuSans-Oblique-65" transform="translate(538.671875 -26.873437) scale(0.7)"/>
      <use xlink:href="#DejaVuSans-20" transform="translate(592.856615 0.470313)"/>
      <use xlink:href="#DejaVuSans-3d" transform="translate(624.643724 0.470313)"/>
      <use xlink:href="#DejaVuSans-20" transform="translate(708.432786 0.470313)"/>
      <use xlink:href="#DejaVuSans-32" transform="translate(740.219896 0.470313)"/>
      <use xlink:href="#DejaVuSans-2c" transform="translate(803.842943 0.470313)"/>
      <use xlink:href="#DejaVuSans-20" transform="translate(835.630052 0.470313)"/>
      <use xlink:href="#DejaVuSans-Oblique-4e" transform="translate(867.417161 0.470313)"/>
      <use xlink:href="#DejaVuSans-Oblique-62" transform="translate(949.23862 39.810938) scale(0.7)"/>
      <use xlink:href="#DejaVuSans-Oblique-64" transform="translate(942.221849 -26.873437) scale(0.7)"/>
      <use xlink:href="#DejaVuSans-3d" transform="translate(996.406589 0.470313)"/>
      <use xlink:href="#DejaVuSans-34" transform="translate(1080.195651 0.470313)"/>
     </g>
    </g>
    <g id="line2d_64">
     <path d="M 40.395312 540.676 
L 60.395312 540.676 
L 80.395312 540.676 
" style="fill: none; stroke: #ff7f0e; stroke-width: 2; stroke-linecap: square"/>
    </g>
    <g id="text_11">
     <!-- OCA-FPI, $N_e^b$ = 2, $N_d^b$=4 -->
     <g transform="translate(96.395312 547.676) scale(0.2 -0.2)">
      <defs>
       <path id="DejaVuSans-4f" d="M 2522 4238 
Q 1834 4238 1429 3725 
Q 1025 3213 1025 2328 
Q 1025 1447 1429 934 
Q 1834 422 2522 422 
Q 3209 422 3611 934 
Q 4013 1447 4013 2328 
Q 4013 3213 3611 3725 
Q 3209 4238 2522 4238 
z
M 2522 4750 
Q 3503 4750 4090 4092 
Q 4678 3434 4678 2328 
Q 4678 1225 4090 567 
Q 3503 -91 2522 -91 
Q 1538 -91 948 565 
Q 359 1222 359 2328 
Q 359 3434 948 4092 
Q 1538 4750 2522 4750 
z
" transform="scale(0.015625)"/>
       <path id="DejaVuSans-41" d="M 2188 4044 
L 1331 1722 
L 3047 1722 
L 2188 4044 
z
M 1831 4666 
L 2547 4666 
L 4325 0 
L 3669 0 
L 3244 1197 
L 1141 1197 
L 716 0 
L 50 0 
L 1831 4666 
z
" transform="scale(0.015625)"/>
       <path id="DejaVuSans-46" d="M 628 4666 
L 3309 4666 
L 3309 4134 
L 1259 4134 
L 1259 2759 
L 3109 2759 
L 3109 2228 
L 1259 2228 
L 1259 0 
L 628 0 
L 628 4666 
z
" transform="scale(0.015625)"/>
       <path id="DejaVuSans-50" d="M 1259 4147 
L 1259 2394 
L 2053 2394 
Q 2494 2394 2734 2622 
Q 2975 2850 2975 3272 
Q 2975 3691 2734 3919 
Q 2494 4147 2053 4147 
L 1259 4147 
z
M 628 4666 
L 2053 4666 
Q 2838 4666 3239 4311 
Q 3641 3956 3641 3272 
Q 3641 2581 3239 2228 
Q 2838 1875 2053 1875 
L 1259 1875 
L 1259 0 
L 628 0 
L 628 4666 
z
" transform="scale(0.015625)"/>
       <path id="DejaVuSans-49" d="M 628 4666 
L 1259 4666 
L 1259 0 
L 628 0 
L 628 4666 
z
" transform="scale(0.015625)"/>
      </defs>
      <use xlink:href="#DejaVuSans-4f" transform="translate(0 0.470313)"/>
      <use xlink:href="#DejaVuSans-43" transform="translate(78.710938 0.470313)"/>
      <use xlink:href="#DejaVuSans-41" transform="translate(148.535156 0.470313)"/>
      <use xlink:href="#DejaVuSans-2d" transform="translate(216.943359 0.470313)"/>
      <use xlink:href="#DejaVuSans-46" transform="translate(253.027344 0.470313)"/>
      <use xlink:href="#DejaVuSans-50" transform="translate(310.546875 0.470313)"/>
      <use xlink:href="#DejaVuSans-49" transform="translate(370.849609 0.470313)"/>
      <use xlink:href="#DejaVuSans-2c" transform="translate(400.341797 0.470313)"/>
      <use xlink:href="#DejaVuSans-20" transform="translate(432.128906 0.470313)"/>
      <use xlink:href="#DejaVuSans-Oblique-4e" transform="translate(463.916016 0.470313)"/>
      <use xlink:href="#DejaVuSans-Oblique-62" transform="translate(545.737474 38.751563) scale(0.7)"/>
      <use xlink:href="#DejaVuSans-Oblique-65" transform="translate(538.720703 -26.873437) scale(0.7)"/>
      <use xlink:href="#DejaVuSans-20" transform="translate(592.905443 0.470313)"/>
      <use xlink:href="#DejaVuSans-3d" transform="translate(624.692552 0.470313)"/>
      <use xlink:href="#DejaVuSans-20" transform="translate(708.481615 0.470313)"/>
      <use xlink:href="#DejaVuSans-32" transform="translate(740.268724 0.470313)"/>
      <use xlink:href="#DejaVuSans-2c" transform="translate(803.891771 0.470313)"/>
      <use xlink:href="#DejaVuSans-20" transform="translate(835.67888 0.470313)"/>
      <use xlink:href="#DejaVuSans-Oblique-4e" transform="translate(867.46599 0.470313)"/>
      <use xlink:href="#DejaVuSans-Oblique-62" transform="translate(949.287448 39.810938) scale(0.7)"/>
      <use xlink:href="#DejaVuSans-Oblique-64" transform="translate(942.270677 -26.873437) scale(0.7)"/>
      <use xlink:href="#DejaVuSans-3d" transform="translate(996.455417 0.470313)"/>
      <use xlink:href="#DejaVuSans-34" transform="translate(1080.244479 0.470313)"/>
     </g>
    </g>
    <g id="line2d_65">
     <path d="M 40.395312 575.076 
L 60.395312 575.076 
L 80.395312 575.076 
" style="fill: none; stroke-dasharray: 7.4,3.2; stroke-dashoffset: 0; stroke: #d62728; stroke-width: 2"/>
    </g>
    <g id="text_12">
     <!-- DG-Julia, $N_e^b$ = 4, $N_d^b$=4 -->
     <g transform="translate(96.395312 582.076) scale(0.2 -0.2)">
      <use xlink:href="#DejaVuSans-44" transform="translate(0 0.470313)"/>
      <use xlink:href="#DejaVuSans-47" transform="translate(77.001953 0.470313)"/>
      <use xlink:href="#DejaVuSans-2d" transform="translate(154.492188 0.470313)"/>
      <use xlink:href="#DejaVuSans-4a" transform="translate(190.576172 0.470313)"/>
      <use xlink:href="#DejaVuSans-75" transform="translate(220.068359 0.470313)"/>
      <use xlink:href="#DejaVuSans-6c" transform="translate(283.447266 0.470313)"/>
      <use xlink:href="#DejaVuSans-69" transform="translate(311.230469 0.470313)"/>
      <use xlink:href="#DejaVuSans-61" transform="translate(339.013672 0.470313)"/>
      <use xlink:href="#DejaVuSans-2c" transform="translate(400.292969 0.470313)"/>
      <use xlink:href="#DejaVuSans-20" transform="translate(432.080078 0.470313)"/>
      <use xlink:href="#DejaVuSans-Oblique-4e" transform="translate(463.867188 0.470313)"/>
      <use xlink:href="#DejaVuSans-Oblique-62" transform="translate(545.688646 38.751563) scale(0.7)"/>
      <use xlink:href="#DejaVuSans-Oblique-65" transform="translate(538.671875 -26.873437) scale(0.7)"/>
      <use xlink:href="#DejaVuSans-20" transform="translate(592.856615 0.470313)"/>
      <use xlink:href="#DejaVuSans-3d" transform="translate(624.643724 0.470313)"/>
      <use xlink:href="#DejaVuSans-20" transform="translate(708.432786 0.470313)"/>
      <use xlink:href="#DejaVuSans-34" transform="translate(740.219896 0.470313)"/>
      <use xlink:href="#DejaVuSans-2c" transform="translate(803.842943 0.470313)"/>
      <use xlink:href="#DejaVuSans-20" transform="translate(835.630052 0.470313)"/>
      <use xlink:href="#DejaVuSans-Oblique-4e" transform="translate(867.417161 0.470313)"/>
      <use xlink:href="#DejaVuSans-Oblique-62" transform="translate(949.23862 39.810938) scale(0.7)"/>
      <use xlink:href="#DejaVuSans-Oblique-64" transform="translate(942.221849 -26.873437) scale(0.7)"/>
      <use xlink:href="#DejaVuSans-3d" transform="translate(996.406589 0.470313)"/>
      <use xlink:href="#DejaVuSans-34" transform="translate(1080.195651 0.470313)"/>
     </g>
    </g>
    <g id="line2d_66">
     <path d="M 40.395312 609.476 
L 60.395312 609.476 
L 80.395312 609.476 
" style="fill: none; stroke: #d62728; stroke-width: 2; stroke-linecap: square"/>
    </g>
    <g id="text_13">
     <!-- OCA-FPI, $N_e^b$ = 4, $N_d^b$=4 -->
     <g transform="translate(96.395312 616.476) scale(0.2 -0.2)">
      <use xlink:href="#DejaVuSans-4f" transform="translate(0 0.470313)"/>
      <use xlink:href="#DejaVuSans-43" transform="translate(78.710938 0.470313)"/>
      <use xlink:href="#DejaVuSans-41" transform="translate(148.535156 0.470313)"/>
      <use xlink:href="#DejaVuSans-2d" transform="translate(216.943359 0.470313)"/>
      <use xlink:href="#DejaVuSans-46" transform="translate(253.027344 0.470313)"/>
      <use xlink:href="#DejaVuSans-50" transform="translate(310.546875 0.470313)"/>
      <use xlink:href="#DejaVuSans-49" transform="translate(370.849609 0.470313)"/>
      <use xlink:href="#DejaVuSans-2c" transform="translate(400.341797 0.470313)"/>
      <use xlink:href="#DejaVuSans-20" transform="translate(432.128906 0.470313)"/>
      <use xlink:href="#DejaVuSans-Oblique-4e" transform="translate(463.916016 0.470313)"/>
      <use xlink:href="#DejaVuSans-Oblique-62" transform="translate(545.737474 38.751563) scale(0.7)"/>
      <use xlink:href="#DejaVuSans-Oblique-65" transform="translate(538.720703 -26.873437) scale(0.7)"/>
      <use xlink:href="#DejaVuSans-20" transform="translate(592.905443 0.470313)"/>
      <use xlink:href="#DejaVuSans-3d" transform="translate(624.692552 0.470313)"/>
      <use xlink:href="#DejaVuSans-20" transform="translate(708.481615 0.470313)"/>
      <use xlink:href="#DejaVuSans-34" transform="translate(740.268724 0.470313)"/>
      <use xlink:href="#DejaVuSans-2c" transform="translate(803.891771 0.470313)"/>
      <use xlink:href="#DejaVuSans-20" transform="translate(835.67888 0.470313)"/>
      <use xlink:href="#DejaVuSans-Oblique-4e" transform="translate(867.46599 0.470313)"/>
      <use xlink:href="#DejaVuSans-Oblique-62" transform="translate(949.287448 39.810938) scale(0.7)"/>
      <use xlink:href="#DejaVuSans-Oblique-64" transform="translate(942.270677 -26.873437) scale(0.7)"/>
      <use xlink:href="#DejaVuSans-3d" transform="translate(996.455417 0.470313)"/>
      <use xlink:href="#DejaVuSans-34" transform="translate(1080.244479 0.470313)"/>
     </g>
    </g>
    <g id="line2d_67">
     <path d="M 40.395312 643.876 
L 60.395312 643.876 
L 80.395312 643.876 
" style="fill: none; stroke-dasharray: 7.4,3.2; stroke-dashoffset: 0; stroke: #17becf; stroke-width: 2"/>
    </g>
    <g id="text_14">
     <!-- DG-Julia, $N_e^b$ = 2, $N_d^b$=5 -->
     <g transform="translate(96.395312 650.876) scale(0.2 -0.2)">
      <defs>
       <path id="DejaVuSans-35" d="M 691 4666 
L 3169 4666 
L 3169 4134 
L 1269 4134 
L 1269 2991 
Q 1406 3038 1543 3061 
Q 1681 3084 1819 3084 
Q 2600 3084 3056 2656 
Q 3513 2228 3513 1497 
Q 3513 744 3044 326 
Q 2575 -91 1722 -91 
Q 1428 -91 1123 -41 
Q 819 9 494 109 
L 494 744 
Q 775 591 1075 516 
Q 1375 441 1709 441 
Q 2250 441 2565 725 
Q 2881 1009 2881 1497 
Q 2881 1984 2565 2268 
Q 2250 2553 1709 2553 
Q 1456 2553 1204 2497 
Q 953 2441 691 2322 
L 691 4666 
z
" transform="scale(0.015625)"/>
      </defs>
      <use xlink:href="#DejaVuSans-44" transform="translate(0 0.470313)"/>
      <use xlink:href="#DejaVuSans-47" transform="translate(77.001953 0.470313)"/>
      <use xlink:href="#DejaVuSans-2d" transform="translate(154.492188 0.470313)"/>
      <use xlink:href="#DejaVuSans-4a" transform="translate(190.576172 0.470313)"/>
      <use xlink:href="#DejaVuSans-75" transform="translate(220.068359 0.470313)"/>
      <use xlink:href="#DejaVuSans-6c" transform="translate(283.447266 0.470313)"/>
      <use xlink:href="#DejaVuSans-69" transform="translate(311.230469 0.470313)"/>
      <use xlink:href="#DejaVuSans-61" transform="translate(339.013672 0.470313)"/>
      <use xlink:href="#DejaVuSans-2c" transform="translate(400.292969 0.470313)"/>
      <use xlink:href="#DejaVuSans-20" transform="translate(432.080078 0.470313)"/>
      <use xlink:href="#DejaVuSans-Oblique-4e" transform="translate(463.867188 0.470313)"/>
      <use xlink:href="#DejaVuSans-Oblique-62" transform="translate(545.688646 38.751563) scale(0.7)"/>
      <use xlink:href="#DejaVuSans-Oblique-65" transform="translate(538.671875 -26.873437) scale(0.7)"/>
      <use xlink:href="#DejaVuSans-20" transform="translate(592.856615 0.470313)"/>
      <use xlink:href="#DejaVuSans-3d" transform="translate(624.643724 0.470313)"/>
      <use xlink:href="#DejaVuSans-20" transform="translate(708.432786 0.470313)"/>
      <use xlink:href="#DejaVuSans-32" transform="translate(740.219896 0.470313)"/>
      <use xlink:href="#DejaVuSans-2c" transform="translate(803.842943 0.470313)"/>
      <use xlink:href="#DejaVuSans-20" transform="translate(835.630052 0.470313)"/>
      <use xlink:href="#DejaVuSans-Oblique-4e" transform="translate(867.417161 0.470313)"/>
      <use xlink:href="#DejaVuSans-Oblique-62" transform="translate(949.23862 39.810938) scale(0.7)"/>
      <use xlink:href="#DejaVuSans-Oblique-64" transform="translate(942.221849 -26.873437) scale(0.7)"/>
      <use xlink:href="#DejaVuSans-3d" transform="translate(996.406589 0.470313)"/>
      <use xlink:href="#DejaVuSans-35" transform="translate(1080.195651 0.470313)"/>
     </g>
    </g>
    <g id="line2d_68">
     <path d="M 40.395312 678.276 
L 60.395312 678.276 
L 80.395312 678.276 
" style="fill: none; stroke: #17becf; stroke-width: 2; stroke-linecap: square"/>
    </g>
    <g id="text_15">
     <!-- OCA-FPI, $N_e^b$ = 2, $N_d^b$=5 -->
     <g transform="translate(96.395312 685.276) scale(0.2 -0.2)">
      <use xlink:href="#DejaVuSans-4f" transform="translate(0 0.470313)"/>
      <use xlink:href="#DejaVuSans-43" transform="translate(78.710938 0.470313)"/>
      <use xlink:href="#DejaVuSans-41" transform="translate(148.535156 0.470313)"/>
      <use xlink:href="#DejaVuSans-2d" transform="translate(216.943359 0.470313)"/>
      <use xlink:href="#DejaVuSans-46" transform="translate(253.027344 0.470313)"/>
      <use xlink:href="#DejaVuSans-50" transform="translate(310.546875 0.470313)"/>
      <use xlink:href="#DejaVuSans-49" transform="translate(370.849609 0.470313)"/>
      <use xlink:href="#DejaVuSans-2c" transform="translate(400.341797 0.470313)"/>
      <use xlink:href="#DejaVuSans-20" transform="translate(432.128906 0.470313)"/>
      <use xlink:href="#DejaVuSans-Oblique-4e" transform="translate(463.916016 0.470313)"/>
      <use xlink:href="#DejaVuSans-Oblique-62" transform="translate(545.737474 38.751563) scale(0.7)"/>
      <use xlink:href="#DejaVuSans-Oblique-65" transform="translate(538.720703 -26.873437) scale(0.7)"/>
      <use xlink:href="#DejaVuSans-20" transform="translate(592.905443 0.470313)"/>
      <use xlink:href="#DejaVuSans-3d" transform="translate(624.692552 0.470313)"/>
      <use xlink:href="#DejaVuSans-20" transform="translate(708.481615 0.470313)"/>
      <use xlink:href="#DejaVuSans-32" transform="translate(740.268724 0.470313)"/>
      <use xlink:href="#DejaVuSans-2c" transform="translate(803.891771 0.470313)"/>
      <use xlink:href="#DejaVuSans-20" transform="translate(835.67888 0.470313)"/>
      <use xlink:href="#DejaVuSans-Oblique-4e" transform="translate(867.46599 0.470313)"/>
      <use xlink:href="#DejaVuSans-Oblique-62" transform="translate(949.287448 39.810938) scale(0.7)"/>
      <use xlink:href="#DejaVuSans-Oblique-64" transform="translate(942.270677 -26.873437) scale(0.7)"/>
      <use xlink:href="#DejaVuSans-3d" transform="translate(996.455417 0.470313)"/>
      <use xlink:href="#DejaVuSans-35" transform="translate(1080.244479 0.470313)"/>
     </g>
    </g>
    <g id="line2d_69">
     <path d="M 365.195312 506.276 
L 385.195312 506.276 
L 405.195312 506.276 
" style="fill: none; stroke-dasharray: 7.4,3.2; stroke-dashoffset: 0; stroke: #7f7f7f; stroke-width: 2"/>
    </g>
    <g id="text_16">
     <!-- DG-Julia, $N_e^b$ = 4, $N_d^b$=5 -->
     <g transform="translate(421.195312 513.276) scale(0.2 -0.2)">
      <use xlink:href="#DejaVuSans-44" transform="translate(0 0.470313)"/>
      <use xlink:href="#DejaVuSans-47" transform="translate(77.001953 0.470313)"/>
      <use xlink:href="#DejaVuSans-2d" transform="translate(154.492188 0.470313)"/>
      <use xlink:href="#DejaVuSans-4a" transform="translate(190.576172 0.470313)"/>
      <use xlink:href="#DejaVuSans-75" transform="translate(220.068359 0.470313)"/>
      <use xlink:href="#DejaVuSans-6c" transform="translate(283.447266 0.470313)"/>
      <use xlink:href="#DejaVuSans-69" transform="translate(311.230469 0.470313)"/>
      <use xlink:href="#DejaVuSans-61" transform="translate(339.013672 0.470313)"/>
      <use xlink:href="#DejaVuSans-2c" transform="translate(400.292969 0.470313)"/>
      <use xlink:href="#DejaVuSans-20" transform="translate(432.080078 0.470313)"/>
      <use xlink:href="#DejaVuSans-Oblique-4e" transform="translate(463.867188 0.470313)"/>
      <use xlink:href="#DejaVuSans-Oblique-62" transform="translate(545.688646 38.751563) scale(0.7)"/>
      <use xlink:href="#DejaVuSans-Oblique-65" transform="translate(538.671875 -26.873437) scale(0.7)"/>
      <use xlink:href="#DejaVuSans-20" transform="translate(592.856615 0.470313)"/>
      <use xlink:href="#DejaVuSans-3d" transform="translate(624.643724 0.470313)"/>
      <use xlink:href="#DejaVuSans-20" transform="translate(708.432786 0.470313)"/>
      <use xlink:href="#DejaVuSans-34" transform="translate(740.219896 0.470313)"/>
      <use xlink:href="#DejaVuSans-2c" transform="translate(803.842943 0.470313)"/>
      <use xlink:href="#DejaVuSans-20" transform="translate(835.630052 0.470313)"/>
      <use xlink:href="#DejaVuSans-Oblique-4e" transform="translate(867.417161 0.470313)"/>
      <use xlink:href="#DejaVuSans-Oblique-62" transform="translate(949.23862 39.810938) scale(0.7)"/>
      <use xlink:href="#DejaVuSans-Oblique-64" transform="translate(942.221849 -26.873437) scale(0.7)"/>
      <use xlink:href="#DejaVuSans-3d" transform="translate(996.406589 0.470313)"/>
      <use xlink:href="#DejaVuSans-35" transform="translate(1080.195651 0.470313)"/>
     </g>
    </g>
    <g id="line2d_70">
     <path d="M 365.195312 540.676 
L 385.195312 540.676 
L 405.195312 540.676 
" style="fill: none; stroke: #7f7f7f; stroke-width: 2; stroke-linecap: square"/>
    </g>
    <g id="text_17">
     <!-- OCA-FPI, $N_e^b$ = 4, $N_d^b$=5 -->
     <g transform="translate(421.195312 547.676) scale(0.2 -0.2)">
      <use xlink:href="#DejaVuSans-4f" transform="translate(0 0.470313)"/>
      <use xlink:href="#DejaVuSans-43" transform="translate(78.710938 0.470313)"/>
      <use xlink:href="#DejaVuSans-41" transform="translate(148.535156 0.470313)"/>
      <use xlink:href="#DejaVuSans-2d" transform="translate(216.943359 0.470313)"/>
      <use xlink:href="#DejaVuSans-46" transform="translate(253.027344 0.470313)"/>
      <use xlink:href="#DejaVuSans-50" transform="translate(310.546875 0.470313)"/>
      <use xlink:href="#DejaVuSans-49" transform="translate(370.849609 0.470313)"/>
      <use xlink:href="#DejaVuSans-2c" transform="translate(400.341797 0.470313)"/>
      <use xlink:href="#DejaVuSans-20" transform="translate(432.128906 0.470313)"/>
      <use xlink:href="#DejaVuSans-Oblique-4e" transform="translate(463.916016 0.470313)"/>
      <use xlink:href="#DejaVuSans-Oblique-62" transform="translate(545.737474 38.751563) scale(0.7)"/>
      <use xlink:href="#DejaVuSans-Oblique-65" transform="translate(538.720703 -26.873437) scale(0.7)"/>
      <use xlink:href="#DejaVuSans-20" transform="translate(592.905443 0.470313)"/>
      <use xlink:href="#DejaVuSans-3d" transform="translate(624.692552 0.470313)"/>
      <use xlink:href="#DejaVuSans-20" transform="translate(708.481615 0.470313)"/>
      <use xlink:href="#DejaVuSans-34" transform="translate(740.268724 0.470313)"/>
      <use xlink:href="#DejaVuSans-2c" transform="translate(803.891771 0.470313)"/>
      <use xlink:href="#DejaVuSans-20" transform="translate(835.67888 0.470313)"/>
      <use xlink:href="#DejaVuSans-Oblique-4e" transform="translate(867.46599 0.470313)"/>
      <use xlink:href="#DejaVuSans-Oblique-62" transform="translate(949.287448 39.810938) scale(0.7)"/>
      <use xlink:href="#DejaVuSans-Oblique-64" transform="translate(942.270677 -26.873437) scale(0.7)"/>
      <use xlink:href="#DejaVuSans-3d" transform="translate(996.455417 0.470313)"/>
      <use xlink:href="#DejaVuSans-35" transform="translate(1080.244479 0.470313)"/>
     </g>
    </g>
    <g id="line2d_71">
     <path d="M 365.195312 575.076 
L 385.195312 575.076 
L 405.195312 575.076 
" style="fill: none; stroke-dasharray: 7.4,3.2; stroke-dashoffset: 0; stroke: #1f77b4; stroke-width: 2"/>
    </g>
    <g id="text_18">
     <!-- DG-Julia, $N_e^b$ = 2, $N_d^b$=6 -->
     <g transform="translate(421.195312 582.076) scale(0.2 -0.2)">
      <use xlink:href="#DejaVuSans-44" transform="translate(0 0.470313)"/>
      <use xlink:href="#DejaVuSans-47" transform="translate(77.001953 0.470313)"/>
      <use xlink:href="#DejaVuSans-2d" transform="translate(154.492188 0.470313)"/>
      <use xlink:href="#DejaVuSans-4a" transform="translate(190.576172 0.470313)"/>
      <use xlink:href="#DejaVuSans-75" transform="translate(220.068359 0.470313)"/>
      <use xlink:href="#DejaVuSans-6c" transform="translate(283.447266 0.470313)"/>
      <use xlink:href="#DejaVuSans-69" transform="translate(311.230469 0.470313)"/>
      <use xlink:href="#DejaVuSans-61" transform="translate(339.013672 0.470313)"/>
      <use xlink:href="#DejaVuSans-2c" transform="translate(400.292969 0.470313)"/>
      <use xlink:href="#DejaVuSans-20" transform="translate(432.080078 0.470313)"/>
      <use xlink:href="#DejaVuSans-Oblique-4e" transform="translate(463.867188 0.470313)"/>
      <use xlink:href="#DejaVuSans-Oblique-62" transform="translate(545.688646 38.751563) scale(0.7)"/>
      <use xlink:href="#DejaVuSans-Oblique-65" transform="translate(538.671875 -26.873437) scale(0.7)"/>
      <use xlink:href="#DejaVuSans-20" transform="translate(592.856615 0.470313)"/>
      <use xlink:href="#DejaVuSans-3d" transform="translate(624.643724 0.470313)"/>
      <use xlink:href="#DejaVuSans-20" transform="translate(708.432786 0.470313)"/>
      <use xlink:href="#DejaVuSans-32" transform="translate(740.219896 0.470313)"/>
      <use xlink:href="#DejaVuSans-2c" transform="translate(803.842943 0.470313)"/>
      <use xlink:href="#DejaVuSans-20" transform="translate(835.630052 0.470313)"/>
      <use xlink:href="#DejaVuSans-Oblique-4e" transform="translate(867.417161 0.470313)"/>
      <use xlink:href="#DejaVuSans-Oblique-62" transform="translate(949.23862 39.810938) scale(0.7)"/>
      <use xlink:href="#DejaVuSans-Oblique-64" transform="translate(942.221849 -26.873437) scale(0.7)"/>
      <use xlink:href="#DejaVuSans-3d" transform="translate(996.406589 0.470313)"/>
      <use xlink:href="#DejaVuSans-36" transform="translate(1080.195651 0.470313)"/>
     </g>
    </g>
    <g id="line2d_72">
     <path d="M 365.195312 609.476 
L 385.195312 609.476 
L 405.195312 609.476 
" style="fill: none; stroke: #1f77b4; stroke-width: 2; stroke-linecap: square"/>
    </g>
    <g id="text_19">
     <!-- OCA-FPI, $N_e^b$ = 2, $N_d^b$=6 -->
     <g transform="translate(421.195312 616.476) scale(0.2 -0.2)">
      <use xlink:href="#DejaVuSans-4f" transform="translate(0 0.470313)"/>
      <use xlink:href="#DejaVuSans-43" transform="translate(78.710938 0.470313)"/>
      <use xlink:href="#DejaVuSans-41" transform="translate(148.535156 0.470313)"/>
      <use xlink:href="#DejaVuSans-2d" transform="translate(216.943359 0.470313)"/>
      <use xlink:href="#DejaVuSans-46" transform="translate(253.027344 0.470313)"/>
      <use xlink:href="#DejaVuSans-50" transform="translate(310.546875 0.470313)"/>
      <use xlink:href="#DejaVuSans-49" transform="translate(370.849609 0.470313)"/>
      <use xlink:href="#DejaVuSans-2c" transform="translate(400.341797 0.470313)"/>
      <use xlink:href="#DejaVuSans-20" transform="translate(432.128906 0.470313)"/>
      <use xlink:href="#DejaVuSans-Oblique-4e" transform="translate(463.916016 0.470313)"/>
      <use xlink:href="#DejaVuSans-Oblique-62" transform="translate(545.737474 38.751563) scale(0.7)"/>
      <use xlink:href="#DejaVuSans-Oblique-65" transform="translate(538.720703 -26.873437) scale(0.7)"/>
      <use xlink:href="#DejaVuSans-20" transform="translate(592.905443 0.470313)"/>
      <use xlink:href="#DejaVuSans-3d" transform="translate(624.692552 0.470313)"/>
      <use xlink:href="#DejaVuSans-20" transform="translate(708.481615 0.470313)"/>
      <use xlink:href="#DejaVuSans-32" transform="translate(740.268724 0.470313)"/>
      <use xlink:href="#DejaVuSans-2c" transform="translate(803.891771 0.470313)"/>
      <use xlink:href="#DejaVuSans-20" transform="translate(835.67888 0.470313)"/>
      <use xlink:href="#DejaVuSans-Oblique-4e" transform="translate(867.46599 0.470313)"/>
      <use xlink:href="#DejaVuSans-Oblique-62" transform="translate(949.287448 39.810938) scale(0.7)"/>
      <use xlink:href="#DejaVuSans-Oblique-64" transform="translate(942.270677 -26.873437) scale(0.7)"/>
      <use xlink:href="#DejaVuSans-3d" transform="translate(996.455417 0.470313)"/>
      <use xlink:href="#DejaVuSans-36" transform="translate(1080.244479 0.470313)"/>
     </g>
    </g>
    <g id="line2d_73">
     <path d="M 365.195312 643.876 
L 385.195312 643.876 
L 405.195312 643.876 
" style="fill: none; stroke-dasharray: 7.4,3.2; stroke-dashoffset: 0; stroke: #2ca02c; stroke-width: 2"/>
    </g>
    <g id="text_20">
     <!-- DG-Julia, $N_e^b$ = 4, $N_d^b$=6 -->
     <g transform="translate(421.195312 650.876) scale(0.2 -0.2)">
      <use xlink:href="#DejaVuSans-44" transform="translate(0 0.470313)"/>
      <use xlink:href="#DejaVuSans-47" transform="translate(77.001953 0.470313)"/>
      <use xlink:href="#DejaVuSans-2d" transform="translate(154.492188 0.470313)"/>
      <use xlink:href="#DejaVuSans-4a" transform="translate(190.576172 0.470313)"/>
      <use xlink:href="#DejaVuSans-75" transform="translate(220.068359 0.470313)"/>
      <use xlink:href="#DejaVuSans-6c" transform="translate(283.447266 0.470313)"/>
      <use xlink:href="#DejaVuSans-69" transform="translate(311.230469 0.470313)"/>
      <use xlink:href="#DejaVuSans-61" transform="translate(339.013672 0.470313)"/>
      <use xlink:href="#DejaVuSans-2c" transform="translate(400.292969 0.470313)"/>
      <use xlink:href="#DejaVuSans-20" transform="translate(432.080078 0.470313)"/>
      <use xlink:href="#DejaVuSans-Oblique-4e" transform="translate(463.867188 0.470313)"/>
      <use xlink:href="#DejaVuSans-Oblique-62" transform="translate(545.688646 38.751563) scale(0.7)"/>
      <use xlink:href="#DejaVuSans-Oblique-65" transform="translate(538.671875 -26.873437) scale(0.7)"/>
      <use xlink:href="#DejaVuSans-20" transform="translate(592.856615 0.470313)"/>
      <use xlink:href="#DejaVuSans-3d" transform="translate(624.643724 0.470313)"/>
      <use xlink:href="#DejaVuSans-20" transform="translate(708.432786 0.470313)"/>
      <use xlink:href="#DejaVuSans-34" transform="translate(740.219896 0.470313)"/>
      <use xlink:href="#DejaVuSans-2c" transform="translate(803.842943 0.470313)"/>
      <use xlink:href="#DejaVuSans-20" transform="translate(835.630052 0.470313)"/>
      <use xlink:href="#DejaVuSans-Oblique-4e" transform="translate(867.417161 0.470313)"/>
      <use xlink:href="#DejaVuSans-Oblique-62" transform="translate(949.23862 39.810938) scale(0.7)"/>
      <use xlink:href="#DejaVuSans-Oblique-64" transform="translate(942.221849 -26.873437) scale(0.7)"/>
      <use xlink:href="#DejaVuSans-3d" transform="translate(996.406589 0.470313)"/>
      <use xlink:href="#DejaVuSans-36" transform="translate(1080.195651 0.470313)"/>
     </g>
    </g>
    <g id="line2d_74">
     <path d="M 365.195312 678.276 
L 385.195312 678.276 
L 405.195312 678.276 
" style="fill: none; stroke: #2ca02c; stroke-width: 2; stroke-linecap: square"/>
    </g>
    <g id="text_21">
     <!-- OCA-FPI, $N_e^b$ = 4, $N_d^b$=6 -->
     <g transform="translate(421.195312 685.276) scale(0.2 -0.2)">
      <use xlink:href="#DejaVuSans-4f" transform="translate(0 0.470313)"/>
      <use xlink:href="#DejaVuSans-43" transform="translate(78.710938 0.470313)"/>
      <use xlink:href="#DejaVuSans-41" transform="translate(148.535156 0.470313)"/>
      <use xlink:href="#DejaVuSans-2d" transform="translate(216.943359 0.470313)"/>
      <use xlink:href="#DejaVuSans-46" transform="translate(253.027344 0.470313)"/>
      <use xlink:href="#DejaVuSans-50" transform="translate(310.546875 0.470313)"/>
      <use xlink:href="#DejaVuSans-49" transform="translate(370.849609 0.470313)"/>
      <use xlink:href="#DejaVuSans-2c" transform="translate(400.341797 0.470313)"/>
      <use xlink:href="#DejaVuSans-20" transform="translate(432.128906 0.470313)"/>
      <use xlink:href="#DejaVuSans-Oblique-4e" transform="translate(463.916016 0.470313)"/>
      <use xlink:href="#DejaVuSans-Oblique-62" transform="translate(545.737474 38.751563) scale(0.7)"/>
      <use xlink:href="#DejaVuSans-Oblique-65" transform="translate(538.720703 -26.873437) scale(0.7)"/>
      <use xlink:href="#DejaVuSans-20" transform="translate(592.905443 0.470313)"/>
      <use xlink:href="#DejaVuSans-3d" transform="translate(624.692552 0.470313)"/>
      <use xlink:href="#DejaVuSans-20" transform="translate(708.481615 0.470313)"/>
      <use xlink:href="#DejaVuSans-34" transform="translate(740.268724 0.470313)"/>
      <use xlink:href="#DejaVuSans-2c" transform="translate(803.891771 0.470313)"/>
      <use xlink:href="#DejaVuSans-20" transform="translate(835.67888 0.470313)"/>
      <use xlink:href="#DejaVuSans-Oblique-4e" transform="translate(867.46599 0.470313)"/>
      <use xlink:href="#DejaVuSans-Oblique-62" transform="translate(949.287448 39.810938) scale(0.7)"/>
      <use xlink:href="#DejaVuSans-Oblique-64" transform="translate(942.270677 -26.873437) scale(0.7)"/>
      <use xlink:href="#DejaVuSans-3d" transform="translate(996.455417 0.470313)"/>
      <use xlink:href="#DejaVuSans-36" transform="translate(1080.244479 0.470313)"/>
     </g>
    </g>
   </g>
  </g>
 </g>
 <defs>
  <clipPath id="p032215f8a8">
   <rect x="94.095313" y="7.2" width="502.2" height="408.24"/>
  </clipPath>
 </defs>
</svg>
