<?xml version="1.0" encoding="utf-8" standalone="no"?>
<!DOCTYPE svg PUBLIC "-//W3C//DTD SVG 1.1//EN"
  "http://www.w3.org/Graphics/SVG/1.1/DTD/svg11.dtd">
<svg xmlns:xlink="http://www.w3.org/1999/xlink" width="720pt" height="504pt" viewBox="0 0 720 504" xmlns="http://www.w3.org/2000/svg" version="1.1">
 <metadata>
  <rdf:RDF xmlns:dc="http://purl.org/dc/elements/1.1/" xmlns:cc="http://creativecommons.org/ns#" xmlns:rdf="http://www.w3.org/1999/02/22-rdf-syntax-ns#">
   <cc:Work>
    <dc:type rdf:resource="http://purl.org/dc/dcmitype/StillImage"/>
    <dc:date>2024-10-07T10:56:26.261112</dc:date>
    <dc:format>image/svg+xml</dc:format>
    <dc:creator>
     <cc:Agent>
      <dc:title>Matplotlib v3.9.1, https://matplotlib.org/</dc:title>
     </cc:Agent>
    </dc:creator>
   </cc:Work>
  </rdf:RDF>
 </metadata>
 <defs>
  <style type="text/css">*{stroke-linejoin: round; stroke-linecap: butt}</style>
 </defs>
 <g id="figure_1">
  <g id="patch_1">
   <path d="M 0 504 
L 720 504 
L 720 0 
L 0 0 
z
" style="fill: #ffffff"/>
  </g>
  <g id="axes_1">
   <g id="patch_2">
    <path d="M 108 219.03 
L 648 219.03 
L 648 60.48 
L 108 60.48 
z
" style="fill: #ffffff"/>
   </g>
   <g id="matplotlib.axis_1">
    <g id="xtick_1">
     <g id="line2d_1">
      <defs>
       <path id="m367443a3ad" d="M 0 0 
L 0 3.5 
" style="stroke: #000000; stroke-width: 0.8"/>
      </defs>
      <g>
       <use xlink:href="#m367443a3ad" x="132.545455" y="219.03" style="stroke: #000000; stroke-width: 0.8"/>
      </g>
     </g>
     <g id="text_1">
      <!-- 0 -->
      <g transform="translate(126.182955 241.226875) scale(0.2 -0.2)">
       <defs>
        <path id="DejaVuSans-30" d="M 2034 4250 
Q 1547 4250 1301 3770 
Q 1056 3291 1056 2328 
Q 1056 1369 1301 889 
Q 1547 409 2034 409 
Q 2525 409 2770 889 
Q 3016 1369 3016 2328 
Q 3016 3291 2770 3770 
Q 2525 4250 2034 4250 
z
M 2034 4750 
Q 2819 4750 3233 4129 
Q 3647 3509 3647 2328 
Q 3647 1150 3233 529 
Q 2819 -91 2034 -91 
Q 1250 -91 836 529 
Q 422 1150 422 2328 
Q 422 3509 836 4129 
Q 1250 4750 2034 4750 
z
" transform="scale(0.015625)"/>
       </defs>
       <use xlink:href="#DejaVuSans-30"/>
      </g>
     </g>
    </g>
    <g id="xtick_2">
     <g id="line2d_2">
      <g>
       <use xlink:href="#m367443a3ad" x="200.378685" y="219.03" style="stroke: #000000; stroke-width: 0.8"/>
      </g>
     </g>
     <g id="text_2">
      <!-- 100 -->
      <g transform="translate(181.291185 241.226875) scale(0.2 -0.2)">
       <defs>
        <path id="DejaVuSans-31" d="M 794 531 
L 1825 531 
L 1825 4091 
L 703 3866 
L 703 4441 
L 1819 4666 
L 2450 4666 
L 2450 531 
L 3481 531 
L 3481 0 
L 794 0 
L 794 531 
z
" transform="scale(0.015625)"/>
       </defs>
       <use xlink:href="#DejaVuSans-31"/>
       <use xlink:href="#DejaVuSans-30" x="63.623047"/>
       <use xlink:href="#DejaVuSans-30" x="127.246094"/>
      </g>
     </g>
    </g>
    <g id="xtick_3">
     <g id="line2d_3">
      <g>
       <use xlink:href="#m367443a3ad" x="268.211916" y="219.03" style="stroke: #000000; stroke-width: 0.8"/>
      </g>
     </g>
     <g id="text_3">
      <!-- 200 -->
      <g transform="translate(249.124416 241.226875) scale(0.2 -0.2)">
       <defs>
        <path id="DejaVuSans-32" d="M 1228 531 
L 3431 531 
L 3431 0 
L 469 0 
L 469 531 
Q 828 903 1448 1529 
Q 2069 2156 2228 2338 
Q 2531 2678 2651 2914 
Q 2772 3150 2772 3378 
Q 2772 3750 2511 3984 
Q 2250 4219 1831 4219 
Q 1534 4219 1204 4116 
Q 875 4013 500 3803 
L 500 4441 
Q 881 4594 1212 4672 
Q 1544 4750 1819 4750 
Q 2544 4750 2975 4387 
Q 3406 4025 3406 3419 
Q 3406 3131 3298 2873 
Q 3191 2616 2906 2266 
Q 2828 2175 2409 1742 
Q 1991 1309 1228 531 
z
" transform="scale(0.015625)"/>
       </defs>
       <use xlink:href="#DejaVuSans-32"/>
       <use xlink:href="#DejaVuSans-30" x="63.623047"/>
       <use xlink:href="#DejaVuSans-30" x="127.246094"/>
      </g>
     </g>
    </g>
    <g id="xtick_4">
     <g id="line2d_4">
      <g>
       <use xlink:href="#m367443a3ad" x="336.045147" y="219.03" style="stroke: #000000; stroke-width: 0.8"/>
      </g>
     </g>
     <g id="text_4">
      <!-- 300 -->
      <g transform="translate(316.957647 241.226875) scale(0.2 -0.2)">
       <defs>
        <path id="DejaVuSans-33" d="M 2597 2516 
Q 3050 2419 3304 2112 
Q 3559 1806 3559 1356 
Q 3559 666 3084 287 
Q 2609 -91 1734 -91 
Q 1441 -91 1130 -33 
Q 819 25 488 141 
L 488 750 
Q 750 597 1062 519 
Q 1375 441 1716 441 
Q 2309 441 2620 675 
Q 2931 909 2931 1356 
Q 2931 1769 2642 2001 
Q 2353 2234 1838 2234 
L 1294 2234 
L 1294 2753 
L 1863 2753 
Q 2328 2753 2575 2939 
Q 2822 3125 2822 3475 
Q 2822 3834 2567 4026 
Q 2313 4219 1838 4219 
Q 1578 4219 1281 4162 
Q 984 4106 628 3988 
L 628 4550 
Q 988 4650 1302 4700 
Q 1616 4750 1894 4750 
Q 2613 4750 3031 4423 
Q 3450 4097 3450 3541 
Q 3450 3153 3228 2886 
Q 3006 2619 2597 2516 
z
" transform="scale(0.015625)"/>
       </defs>
       <use xlink:href="#DejaVuSans-33"/>
       <use xlink:href="#DejaVuSans-30" x="63.623047"/>
       <use xlink:href="#DejaVuSans-30" x="127.246094"/>
      </g>
     </g>
    </g>
    <g id="xtick_5">
     <g id="line2d_5">
      <g>
       <use xlink:href="#m367443a3ad" x="403.878378" y="219.03" style="stroke: #000000; stroke-width: 0.8"/>
      </g>
     </g>
     <g id="text_5">
      <!-- 400 -->
      <g transform="translate(384.790878 241.226875) scale(0.2 -0.2)">
       <defs>
        <path id="DejaVuSans-34" d="M 2419 4116 
L 825 1625 
L 2419 1625 
L 2419 4116 
z
M 2253 4666 
L 3047 4666 
L 3047 1625 
L 3713 1625 
L 3713 1100 
L 3047 1100 
L 3047 0 
L 2419 0 
L 2419 1100 
L 313 1100 
L 313 1709 
L 2253 4666 
z
" transform="scale(0.015625)"/>
       </defs>
       <use xlink:href="#DejaVuSans-34"/>
       <use xlink:href="#DejaVuSans-30" x="63.623047"/>
       <use xlink:href="#DejaVuSans-30" x="127.246094"/>
      </g>
     </g>
    </g>
    <g id="xtick_6">
     <g id="line2d_6">
      <g>
       <use xlink:href="#m367443a3ad" x="471.711608" y="219.03" style="stroke: #000000; stroke-width: 0.8"/>
      </g>
     </g>
     <g id="text_6">
      <!-- 500 -->
      <g transform="translate(452.624108 241.226875) scale(0.2 -0.2)">
       <defs>
        <path id="DejaVuSans-35" d="M 691 4666 
L 3169 4666 
L 3169 4134 
L 1269 4134 
L 1269 2991 
Q 1406 3038 1543 3061 
Q 1681 3084 1819 3084 
Q 2600 3084 3056 2656 
Q 3513 2228 3513 1497 
Q 3513 744 3044 326 
Q 2575 -91 1722 -91 
Q 1428 -91 1123 -41 
Q 819 9 494 109 
L 494 744 
Q 775 591 1075 516 
Q 1375 441 1709 441 
Q 2250 441 2565 725 
Q 2881 1009 2881 1497 
Q 2881 1984 2565 2268 
Q 2250 2553 1709 2553 
Q 1456 2553 1204 2497 
Q 953 2441 691 2322 
L 691 4666 
z
" transform="scale(0.015625)"/>
       </defs>
       <use xlink:href="#DejaVuSans-35"/>
       <use xlink:href="#DejaVuSans-30" x="63.623047"/>
       <use xlink:href="#DejaVuSans-30" x="127.246094"/>
      </g>
     </g>
    </g>
    <g id="xtick_7">
     <g id="line2d_7">
      <g>
       <use xlink:href="#m367443a3ad" x="539.544839" y="219.03" style="stroke: #000000; stroke-width: 0.8"/>
      </g>
     </g>
     <g id="text_7">
      <!-- 600 -->
      <g transform="translate(520.457339 241.226875) scale(0.2 -0.2)">
       <defs>
        <path id="DejaVuSans-36" d="M 2113 2584 
Q 1688 2584 1439 2293 
Q 1191 2003 1191 1497 
Q 1191 994 1439 701 
Q 1688 409 2113 409 
Q 2538 409 2786 701 
Q 3034 994 3034 1497 
Q 3034 2003 2786 2293 
Q 2538 2584 2113 2584 
z
M 3366 4563 
L 3366 3988 
Q 3128 4100 2886 4159 
Q 2644 4219 2406 4219 
Q 1781 4219 1451 3797 
Q 1122 3375 1075 2522 
Q 1259 2794 1537 2939 
Q 1816 3084 2150 3084 
Q 2853 3084 3261 2657 
Q 3669 2231 3669 1497 
Q 3669 778 3244 343 
Q 2819 -91 2113 -91 
Q 1303 -91 875 529 
Q 447 1150 447 2328 
Q 447 3434 972 4092 
Q 1497 4750 2381 4750 
Q 2619 4750 2861 4703 
Q 3103 4656 3366 4563 
z
" transform="scale(0.015625)"/>
       </defs>
       <use xlink:href="#DejaVuSans-36"/>
       <use xlink:href="#DejaVuSans-30" x="63.623047"/>
       <use xlink:href="#DejaVuSans-30" x="127.246094"/>
      </g>
     </g>
    </g>
    <g id="xtick_8">
     <g id="line2d_8">
      <g>
       <use xlink:href="#m367443a3ad" x="607.37807" y="219.03" style="stroke: #000000; stroke-width: 0.8"/>
      </g>
     </g>
     <g id="text_8">
      <!-- 700 -->
      <g transform="translate(588.29057 241.226875) scale(0.2 -0.2)">
       <defs>
        <path id="DejaVuSans-37" d="M 525 4666 
L 3525 4666 
L 3525 4397 
L 1831 0 
L 1172 0 
L 2766 4134 
L 525 4134 
L 525 4666 
z
" transform="scale(0.015625)"/>
       </defs>
       <use xlink:href="#DejaVuSans-37"/>
       <use xlink:href="#DejaVuSans-30" x="63.623047"/>
       <use xlink:href="#DejaVuSans-30" x="127.246094"/>
      </g>
     </g>
    </g>
   </g>
   <g id="matplotlib.axis_2">
    <g id="ytick_1">
     <g id="line2d_9">
      <defs>
       <path id="m6f784e1908" d="M 0 0 
L -3.5 0 
" style="stroke: #000000; stroke-width: 0.8"/>
      </defs>
      <g>
       <use xlink:href="#m6f784e1908" x="108" y="211.289937" style="stroke: #000000; stroke-width: 0.8"/>
      </g>
     </g>
     <g id="text_9">
      <!-- 0.2 -->
      <g transform="translate(69.19375 218.888374) scale(0.2 -0.2)">
       <defs>
        <path id="DejaVuSans-2e" d="M 684 794 
L 1344 794 
L 1344 0 
L 684 0 
L 684 794 
z
" transform="scale(0.015625)"/>
       </defs>
       <use xlink:href="#DejaVuSans-30"/>
       <use xlink:href="#DejaVuSans-2e" x="63.623047"/>
       <use xlink:href="#DejaVuSans-32" x="95.410156"/>
      </g>
     </g>
    </g>
    <g id="ytick_2">
     <g id="line2d_10">
      <g>
       <use xlink:href="#m6f784e1908" x="108" y="123.070322" style="stroke: #000000; stroke-width: 0.8"/>
      </g>
     </g>
     <g id="text_10">
      <!-- 0.4 -->
      <g transform="translate(69.19375 130.668759) scale(0.2 -0.2)">
       <use xlink:href="#DejaVuSans-30"/>
       <use xlink:href="#DejaVuSans-2e" x="63.623047"/>
       <use xlink:href="#DejaVuSans-34" x="95.410156"/>
      </g>
     </g>
    </g>
   </g>
   <g id="line2d_11">
    <path d="M 132.545455 125.830718 
L 132.613288 125.851404 
L 132.748954 67.686822 
L 133.562953 67.795823 
L 138.243446 69.413544 
L 141.228108 70.704073 
L 144.41627 72.335657 
L 148.350597 74.61282 
L 154.319922 78.356112 
L 170.464231 88.575134 
L 178.197219 93.15 
L 185.658874 97.307008 
L 193.188363 101.247518 
L 200.921351 105.041387 
L 208.857839 108.685803 
L 217.06566 112.208794 
L 225.544814 115.605984 
L 234.363134 118.898698 
L 243.52062 122.079467 
L 253.017272 125.14182 
L 255.323602 125.851403 
L 255.459269 67.68682 
L 256.273267 67.795821 
L 260.95376 69.413543 
L 263.938423 70.704072 
L 267.126584 72.335656 
L 271.060912 74.612819 
L 277.030236 78.356111 
L 293.174545 88.575132 
L 300.907533 93.149999 
L 308.369189 97.307007 
L 315.898677 101.247517 
L 323.631666 105.041386 
L 331.568154 108.685802 
L 339.775974 112.208793 
L 348.255128 115.605983 
L 357.073448 118.898697 
L 366.230934 122.079466 
L 375.727587 125.141819 
L 378.033917 125.851402 
L 378.169583 67.686819 
L 378.983582 67.79582 
L 383.664075 69.413541 
L 386.648737 70.704071 
L 389.836899 72.335655 
L 393.771226 74.612818 
L 399.74055 78.35611 
L 415.884859 88.575131 
L 423.617848 93.149998 
L 431.079503 97.307006 
L 438.608992 101.247516 
L 446.34198 105.041385 
L 454.278468 108.685801 
L 462.486289 112.208792 
L 470.965443 115.605983 
L 479.783763 118.898696 
L 488.941249 122.079465 
L 498.437901 125.141818 
L 500.744231 125.851401 
L 500.879897 67.686818 
L 501.693896 67.795819 
L 506.374389 69.41354 
L 509.359051 70.70407 
L 512.547213 72.335654 
L 516.481541 74.612817 
L 522.450865 78.356109 
L 538.595174 88.575131 
L 546.328162 93.149997 
L 553.789817 97.307005 
L 561.319306 101.247515 
L 569.052294 105.041384 
L 576.988782 108.685801 
L 585.196603 112.208791 
L 593.675757 115.605982 
L 602.494077 118.898695 
L 611.651563 122.079464 
L 621.148216 125.141817 
L 623.454545 125.8514 
L 623.454545 125.8514 
" clip-path="url(#p1a394d6abc)" style="fill: none; stroke: #1f77b4; stroke-width: 1.5; stroke-linecap: square"/>
   </g>
   <g id="line2d_12">
    <path d="M 132.545455 208.974571 
L 132.613288 208.965212 
L 132.748954 176.330269 
L 133.427287 176.423221 
L 136.954615 178.146032 
L 138.853945 179.391418 
L 141.567274 181.464243 
L 153.166757 190.602564 
L 157.508083 193.6137 
L 161.781577 196.308397 
L 166.055071 198.741392 
L 170.396397 200.955072 
L 174.737724 202.920355 
L 179.146884 204.674585 
L 183.691711 206.24139 
L 188.30437 207.595471 
L 193.052696 208.756468 
L 197.936689 209.720806 
L 203.024181 210.495752 
L 208.315173 211.073192 
L 213.809665 211.447983 
L 219.643323 211.619552 
L 225.816147 211.574687 
L 232.39597 211.30169 
L 239.518459 210.780471 
L 247.319281 209.983442 
L 255.323602 208.965212 
L 255.459269 176.330269 
L 256.137601 176.423221 
L 259.664929 178.146032 
L 261.564259 179.391418 
L 264.277589 181.464243 
L 275.877071 190.602564 
L 280.218398 193.6137 
L 284.491891 196.308397 
L 288.765385 198.741392 
L 293.106712 200.955072 
L 297.448038 202.920355 
L 301.857198 204.674585 
L 306.402025 206.24139 
L 311.014685 207.595471 
L 315.763011 208.756468 
L 320.647003 209.720806 
L 325.734496 210.495752 
L 331.025488 211.073192 
L 336.519979 211.447983 
L 342.353637 211.619552 
L 348.526461 211.574687 
L 355.106285 211.30169 
L 362.228774 210.780471 
L 370.029595 209.983442 
L 378.033917 208.965212 
L 378.169583 176.330269 
L 378.847915 176.423221 
L 382.375243 178.146032 
L 384.274574 179.391418 
L 386.987903 181.464243 
L 398.587386 190.602564 
L 402.928712 193.6137 
L 407.202206 196.308397 
L 411.475699 198.741393 
L 415.817026 200.955072 
L 420.158353 202.920355 
L 424.567513 204.674585 
L 429.112339 206.24139 
L 433.724999 207.595471 
L 438.473325 208.756468 
L 443.357318 209.720806 
L 448.44481 210.495752 
L 453.735802 211.073192 
L 459.230294 211.447983 
L 465.063952 211.619552 
L 471.236776 211.574687 
L 477.816599 211.30169 
L 484.939088 210.780471 
L 492.73991 209.983442 
L 500.744231 208.965212 
L 500.879897 176.330269 
L 501.55823 176.423221 
L 505.085558 178.146032 
L 506.984888 179.391419 
L 509.698217 181.464243 
L 521.2977 190.602564 
L 525.639027 193.613701 
L 529.91252 196.308397 
L 534.186014 198.741393 
L 538.527341 200.955072 
L 542.868667 202.920355 
L 547.277827 204.674585 
L 551.822654 206.24139 
L 556.435313 207.595471 
L 561.18364 208.756468 
L 566.067632 209.720806 
L 571.155125 210.495752 
L 576.446117 211.073192 
L 581.940608 211.447983 
L 587.774266 211.619552 
L 593.94709 211.574687 
L 600.526913 211.30169 
L 607.649403 210.780471 
L 615.450224 209.983442 
L 623.454545 208.965212 
L 623.454545 208.965212 
" clip-path="url(#p1a394d6abc)" style="fill: none; stroke: #ff7f0e; stroke-width: 1.5; stroke-linecap: square"/>
   </g>
   <g id="line2d_13">
    <path d="M 132.545455 206.742777 
L 132.613288 206.730283 
L 132.748954 181.636494 
L 133.49512 181.740935 
L 136.615448 183.051492 
L 138.379112 184.112313 
L 140.753275 185.826696 
L 153.370256 195.319734 
L 157.44025 197.934391 
L 161.510244 200.285077 
L 165.580238 202.379191 
L 169.718065 204.255962 
L 173.855892 205.890514 
L 178.129386 207.337878 
L 182.470712 208.57223 
L 186.947706 209.611898 
L 191.560365 210.452556 
L 196.308691 211.09212 
L 201.260517 211.535369 
L 206.483676 211.778106 
L 211.978168 211.809802 
L 217.879659 211.617776 
L 224.188149 211.187331 
L 231.107139 210.487991 
L 238.772294 209.484945 
L 247.522781 208.110087 
L 255.323602 206.730283 
L 255.459269 181.636494 
L 256.205434 181.740935 
L 259.325763 183.051492 
L 261.089427 184.112313 
L 263.46359 185.826696 
L 276.080571 195.319734 
L 280.150565 197.934391 
L 284.220558 200.285077 
L 288.290552 202.379191 
L 292.428379 204.255962 
L 296.566206 205.890514 
L 300.8397 207.337878 
L 305.181027 208.57223 
L 309.65802 209.611898 
L 314.27068 210.452556 
L 319.019006 211.09212 
L 323.970832 211.535369 
L 329.19399 211.778106 
L 334.688482 211.809802 
L 340.589973 211.617776 
L 346.898464 211.187331 
L 353.817453 210.487991 
L 361.482608 209.484945 
L 370.233095 208.110087 
L 378.033917 206.730283 
L 378.169583 181.636494 
L 378.915749 181.740935 
L 382.036077 183.051492 
L 383.799741 184.112313 
L 386.173904 185.826696 
L 398.790885 195.319734 
L 402.860879 197.934391 
L 406.930873 200.285077 
L 411.000867 202.379191 
L 415.138694 204.255962 
L 419.276521 205.890514 
L 423.550014 207.337878 
L 427.891341 208.57223 
L 432.368334 209.611898 
L 436.980994 210.452556 
L 441.72932 211.09212 
L 446.681146 211.535369 
L 451.904305 211.778106 
L 457.398797 211.809802 
L 463.300288 211.617776 
L 469.608778 211.187331 
L 476.527768 210.487991 
L 484.192923 209.484945 
L 492.943409 208.110087 
L 500.744231 206.730283 
L 500.879897 181.636494 
L 501.626063 181.740935 
L 504.746392 183.051492 
L 506.510056 184.112313 
L 508.884219 185.826696 
L 521.5012 195.319734 
L 525.571193 197.934391 
L 529.641187 200.285077 
L 533.711181 202.379191 
L 537.849008 204.255962 
L 541.986835 205.890514 
L 546.260329 207.337878 
L 550.601656 208.57223 
L 555.078649 209.611898 
L 559.691309 210.452556 
L 564.439635 211.09212 
L 569.391461 211.535369 
L 574.614619 211.778106 
L 580.109111 211.809802 
L 586.010602 211.617776 
L 592.319093 211.187331 
L 599.238082 210.487991 
L 606.903237 209.484945 
L 615.653724 208.110087 
L 623.454545 206.730283 
L 623.454545 206.730283 
" clip-path="url(#p1a394d6abc)" style="fill: none; stroke: #2ca02c; stroke-width: 1.5; stroke-linecap: square"/>
   </g>
   <g id="patch_3">
    <path d="M 108 219.03 
L 108 60.48 
" style="fill: none; stroke: #000000; stroke-width: 0.8; stroke-linejoin: miter; stroke-linecap: square"/>
   </g>
   <g id="patch_4">
    <path d="M 648 219.03 
L 648 60.48 
" style="fill: none; stroke: #000000; stroke-width: 0.8; stroke-linejoin: miter; stroke-linecap: square"/>
   </g>
   <g id="patch_5">
    <path d="M 108 219.03 
L 648 219.03 
" style="fill: none; stroke: #000000; stroke-width: 0.8; stroke-linejoin: miter; stroke-linecap: square"/>
   </g>
   <g id="patch_6">
    <path d="M 108 60.48 
L 648 60.48 
" style="fill: none; stroke: #000000; stroke-width: 0.8; stroke-linejoin: miter; stroke-linecap: square"/>
   </g>
   <g id="text_11">
    <!-- Extract -->
    <g transform="translate(342.184375 54.48) scale(0.2 -0.2)">
     <defs>
      <path id="DejaVuSans-45" d="M 628 4666 
L 3578 4666 
L 3578 4134 
L 1259 4134 
L 1259 2753 
L 3481 2753 
L 3481 2222 
L 1259 2222 
L 1259 531 
L 3634 531 
L 3634 0 
L 628 0 
L 628 4666 
z
" transform="scale(0.015625)"/>
      <path id="DejaVuSans-78" d="M 3513 3500 
L 2247 1797 
L 3578 0 
L 2900 0 
L 1881 1375 
L 863 0 
L 184 0 
L 1544 1831 
L 300 3500 
L 978 3500 
L 1906 2253 
L 2834 3500 
L 3513 3500 
z
" transform="scale(0.015625)"/>
      <path id="DejaVuSans-74" d="M 1172 4494 
L 1172 3500 
L 2356 3500 
L 2356 3053 
L 1172 3053 
L 1172 1153 
Q 1172 725 1289 603 
Q 1406 481 1766 481 
L 2356 481 
L 2356 0 
L 1766 0 
Q 1100 0 847 248 
Q 594 497 594 1153 
L 594 3053 
L 172 3053 
L 172 3500 
L 594 3500 
L 594 4494 
L 1172 4494 
z
" transform="scale(0.015625)"/>
      <path id="DejaVuSans-72" d="M 2631 2963 
Q 2534 3019 2420 3045 
Q 2306 3072 2169 3072 
Q 1681 3072 1420 2755 
Q 1159 2438 1159 1844 
L 1159 0 
L 581 0 
L 581 3500 
L 1159 3500 
L 1159 2956 
Q 1341 3275 1631 3429 
Q 1922 3584 2338 3584 
Q 2397 3584 2469 3576 
Q 2541 3569 2628 3553 
L 2631 2963 
z
" transform="scale(0.015625)"/>
      <path id="DejaVuSans-61" d="M 2194 1759 
Q 1497 1759 1228 1600 
Q 959 1441 959 1056 
Q 959 750 1161 570 
Q 1363 391 1709 391 
Q 2188 391 2477 730 
Q 2766 1069 2766 1631 
L 2766 1759 
L 2194 1759 
z
M 3341 1997 
L 3341 0 
L 2766 0 
L 2766 531 
Q 2569 213 2275 61 
Q 1981 -91 1556 -91 
Q 1019 -91 701 211 
Q 384 513 384 1019 
Q 384 1609 779 1909 
Q 1175 2209 1959 2209 
L 2766 2209 
L 2766 2266 
Q 2766 2663 2505 2880 
Q 2244 3097 1772 3097 
Q 1472 3097 1187 3025 
Q 903 2953 641 2809 
L 641 3341 
Q 956 3463 1253 3523 
Q 1550 3584 1831 3584 
Q 2591 3584 2966 3190 
Q 3341 2797 3341 1997 
z
" transform="scale(0.015625)"/>
      <path id="DejaVuSans-63" d="M 3122 3366 
L 3122 2828 
Q 2878 2963 2633 3030 
Q 2388 3097 2138 3097 
Q 1578 3097 1268 2742 
Q 959 2388 959 1747 
Q 959 1106 1268 751 
Q 1578 397 2138 397 
Q 2388 397 2633 464 
Q 2878 531 3122 666 
L 3122 134 
Q 2881 22 2623 -34 
Q 2366 -91 2075 -91 
Q 1284 -91 818 406 
Q 353 903 353 1747 
Q 353 2603 823 3093 
Q 1294 3584 2113 3584 
Q 2378 3584 2631 3529 
Q 2884 3475 3122 3366 
z
" transform="scale(0.015625)"/>
     </defs>
     <use xlink:href="#DejaVuSans-45"/>
     <use xlink:href="#DejaVuSans-78" x="63.183594"/>
     <use xlink:href="#DejaVuSans-74" x="122.363281"/>
     <use xlink:href="#DejaVuSans-72" x="161.572266"/>
     <use xlink:href="#DejaVuSans-61" x="202.685547"/>
     <use xlink:href="#DejaVuSans-63" x="263.964844"/>
     <use xlink:href="#DejaVuSans-74" x="318.945312"/>
    </g>
   </g>
   <g id="legend_1">
    <g id="patch_7">
     <path d="M 122 186.789375 
L 199.965625 186.789375 
Q 203.965625 186.789375 203.965625 182.789375 
L 203.965625 96.720625 
Q 203.965625 92.720625 199.965625 92.720625 
L 122 92.720625 
Q 118 92.720625 118 96.720625 
L 118 182.789375 
Q 118 186.789375 122 186.789375 
z
" style="fill: #ffffff; opacity: 0.8; stroke: #cccccc; stroke-linejoin: miter"/>
    </g>
    <g id="line2d_14">
     <path d="M 126 108.9175 
L 146 108.9175 
L 166 108.9175 
" style="fill: none; stroke: #1f77b4; stroke-width: 1.5; stroke-linecap: square"/>
    </g>
    <g id="text_12">
     <!-- A -->
     <g transform="translate(182 115.9175) scale(0.2 -0.2)">
      <defs>
       <path id="DejaVuSans-41" d="M 2188 4044 
L 1331 1722 
L 3047 1722 
L 2188 4044 
z
M 1831 4666 
L 2547 4666 
L 4325 0 
L 3669 0 
L 3244 1197 
L 1141 1197 
L 716 0 
L 50 0 
L 1831 4666 
z
" transform="scale(0.015625)"/>
      </defs>
      <use xlink:href="#DejaVuSans-41"/>
     </g>
    </g>
    <g id="line2d_15">
     <path d="M 126 138.27375 
L 146 138.27375 
L 166 138.27375 
" style="fill: none; stroke: #ff7f0e; stroke-width: 1.5; stroke-linecap: square"/>
    </g>
    <g id="text_13">
     <!-- B -->
     <g transform="translate(182 145.27375) scale(0.2 -0.2)">
      <defs>
       <path id="DejaVuSans-42" d="M 1259 2228 
L 1259 519 
L 2272 519 
Q 2781 519 3026 730 
Q 3272 941 3272 1375 
Q 3272 1813 3026 2020 
Q 2781 2228 2272 2228 
L 1259 2228 
z
M 1259 4147 
L 1259 2741 
L 2194 2741 
Q 2656 2741 2882 2914 
Q 3109 3088 3109 3444 
Q 3109 3797 2882 3972 
Q 2656 4147 2194 4147 
L 1259 4147 
z
M 628 4666 
L 2241 4666 
Q 2963 4666 3353 4366 
Q 3744 4066 3744 3513 
Q 3744 3084 3544 2831 
Q 3344 2578 2956 2516 
Q 3422 2416 3680 2098 
Q 3938 1781 3938 1306 
Q 3938 681 3513 340 
Q 3088 0 2303 0 
L 628 0 
L 628 4666 
z
" transform="scale(0.015625)"/>
      </defs>
      <use xlink:href="#DejaVuSans-42"/>
     </g>
    </g>
    <g id="line2d_16">
     <path d="M 126 167.63 
L 146 167.63 
L 166 167.63 
" style="fill: none; stroke: #2ca02c; stroke-width: 1.5; stroke-linecap: square"/>
    </g>
    <g id="text_14">
     <!-- C -->
     <g transform="translate(182 174.63) scale(0.2 -0.2)">
      <defs>
       <path id="DejaVuSans-43" d="M 4122 4306 
L 4122 3641 
Q 3803 3938 3442 4084 
Q 3081 4231 2675 4231 
Q 1875 4231 1450 3742 
Q 1025 3253 1025 2328 
Q 1025 1406 1450 917 
Q 1875 428 2675 428 
Q 3081 428 3442 575 
Q 3803 722 4122 1019 
L 4122 359 
Q 3791 134 3420 21 
Q 3050 -91 2638 -91 
Q 1578 -91 968 557 
Q 359 1206 359 2328 
Q 359 3453 968 4101 
Q 1578 4750 2638 4750 
Q 3056 4750 3426 4639 
Q 3797 4528 4122 4306 
z
" transform="scale(0.015625)"/>
      </defs>
      <use xlink:href="#DejaVuSans-43"/>
     </g>
    </g>
   </g>
  </g>
  <g id="axes_2">
   <g id="patch_8">
    <path d="M 108 441 
L 648 441 
L 648 282.45 
L 108 282.45 
z
" style="fill: #ffffff"/>
   </g>
   <g id="matplotlib.axis_3">
    <g id="xtick_9">
     <g id="line2d_17">
      <g>
       <use xlink:href="#m367443a3ad" x="132.545455" y="441" style="stroke: #000000; stroke-width: 0.8"/>
      </g>
     </g>
     <g id="text_15">
      <!-- 0 -->
      <g transform="translate(126.182955 463.196875) scale(0.2 -0.2)">
       <use xlink:href="#DejaVuSans-30"/>
      </g>
     </g>
    </g>
    <g id="xtick_10">
     <g id="line2d_18">
      <g>
       <use xlink:href="#m367443a3ad" x="200.378685" y="441" style="stroke: #000000; stroke-width: 0.8"/>
      </g>
     </g>
     <g id="text_16">
      <!-- 100 -->
      <g transform="translate(181.291185 463.196875) scale(0.2 -0.2)">
       <use xlink:href="#DejaVuSans-31"/>
       <use xlink:href="#DejaVuSans-30" x="63.623047"/>
       <use xlink:href="#DejaVuSans-30" x="127.246094"/>
      </g>
     </g>
    </g>
    <g id="xtick_11">
     <g id="line2d_19">
      <g>
       <use xlink:href="#m367443a3ad" x="268.211916" y="441" style="stroke: #000000; stroke-width: 0.8"/>
      </g>
     </g>
     <g id="text_17">
      <!-- 200 -->
      <g transform="translate(249.124416 463.196875) scale(0.2 -0.2)">
       <use xlink:href="#DejaVuSans-32"/>
       <use xlink:href="#DejaVuSans-30" x="63.623047"/>
       <use xlink:href="#DejaVuSans-30" x="127.246094"/>
      </g>
     </g>
    </g>
    <g id="xtick_12">
     <g id="line2d_20">
      <g>
       <use xlink:href="#m367443a3ad" x="336.045147" y="441" style="stroke: #000000; stroke-width: 0.8"/>
      </g>
     </g>
     <g id="text_18">
      <!-- 300 -->
      <g transform="translate(316.957647 463.196875) scale(0.2 -0.2)">
       <use xlink:href="#DejaVuSans-33"/>
       <use xlink:href="#DejaVuSans-30" x="63.623047"/>
       <use xlink:href="#DejaVuSans-30" x="127.246094"/>
      </g>
     </g>
    </g>
    <g id="xtick_13">
     <g id="line2d_21">
      <g>
       <use xlink:href="#m367443a3ad" x="403.878378" y="441" style="stroke: #000000; stroke-width: 0.8"/>
      </g>
     </g>
     <g id="text_19">
      <!-- 400 -->
      <g transform="translate(384.790878 463.196875) scale(0.2 -0.2)">
       <use xlink:href="#DejaVuSans-34"/>
       <use xlink:href="#DejaVuSans-30" x="63.623047"/>
       <use xlink:href="#DejaVuSans-30" x="127.246094"/>
      </g>
     </g>
    </g>
    <g id="xtick_14">
     <g id="line2d_22">
      <g>
       <use xlink:href="#m367443a3ad" x="471.711608" y="441" style="stroke: #000000; stroke-width: 0.8"/>
      </g>
     </g>
     <g id="text_20">
      <!-- 500 -->
      <g transform="translate(452.624108 463.196875) scale(0.2 -0.2)">
       <use xlink:href="#DejaVuSans-35"/>
       <use xlink:href="#DejaVuSans-30" x="63.623047"/>
       <use xlink:href="#DejaVuSans-30" x="127.246094"/>
      </g>
     </g>
    </g>
    <g id="xtick_15">
     <g id="line2d_23">
      <g>
       <use xlink:href="#m367443a3ad" x="539.544839" y="441" style="stroke: #000000; stroke-width: 0.8"/>
      </g>
     </g>
     <g id="text_21">
      <!-- 600 -->
      <g transform="translate(520.457339 463.196875) scale(0.2 -0.2)">
       <use xlink:href="#DejaVuSans-36"/>
       <use xlink:href="#DejaVuSans-30" x="63.623047"/>
       <use xlink:href="#DejaVuSans-30" x="127.246094"/>
      </g>
     </g>
    </g>
    <g id="xtick_16">
     <g id="line2d_24">
      <g>
       <use xlink:href="#m367443a3ad" x="607.37807" y="441" style="stroke: #000000; stroke-width: 0.8"/>
      </g>
     </g>
     <g id="text_22">
      <!-- 700 -->
      <g transform="translate(588.29057 463.196875) scale(0.2 -0.2)">
       <use xlink:href="#DejaVuSans-37"/>
       <use xlink:href="#DejaVuSans-30" x="63.623047"/>
       <use xlink:href="#DejaVuSans-30" x="127.246094"/>
      </g>
     </g>
    </g>
    <g id="text_23">
     <!-- Time / s -->
     <g transform="translate(338.598437 486.553125) scale(0.2 -0.2)">
      <defs>
       <path id="DejaVuSans-54" d="M -19 4666 
L 3928 4666 
L 3928 4134 
L 2272 4134 
L 2272 0 
L 1638 0 
L 1638 4134 
L -19 4134 
L -19 4666 
z
" transform="scale(0.015625)"/>
       <path id="DejaVuSans-69" d="M 603 3500 
L 1178 3500 
L 1178 0 
L 603 0 
L 603 3500 
z
M 603 4863 
L 1178 4863 
L 1178 4134 
L 603 4134 
L 603 4863 
z
" transform="scale(0.015625)"/>
       <path id="DejaVuSans-6d" d="M 3328 2828 
Q 3544 3216 3844 3400 
Q 4144 3584 4550 3584 
Q 5097 3584 5394 3201 
Q 5691 2819 5691 2113 
L 5691 0 
L 5113 0 
L 5113 2094 
Q 5113 2597 4934 2840 
Q 4756 3084 4391 3084 
Q 3944 3084 3684 2787 
Q 3425 2491 3425 1978 
L 3425 0 
L 2847 0 
L 2847 2094 
Q 2847 2600 2669 2842 
Q 2491 3084 2119 3084 
Q 1678 3084 1418 2786 
Q 1159 2488 1159 1978 
L 1159 0 
L 581 0 
L 581 3500 
L 1159 3500 
L 1159 2956 
Q 1356 3278 1631 3431 
Q 1906 3584 2284 3584 
Q 2666 3584 2933 3390 
Q 3200 3197 3328 2828 
z
" transform="scale(0.015625)"/>
       <path id="DejaVuSans-65" d="M 3597 1894 
L 3597 1613 
L 953 1613 
Q 991 1019 1311 708 
Q 1631 397 2203 397 
Q 2534 397 2845 478 
Q 3156 559 3463 722 
L 3463 178 
Q 3153 47 2828 -22 
Q 2503 -91 2169 -91 
Q 1331 -91 842 396 
Q 353 884 353 1716 
Q 353 2575 817 3079 
Q 1281 3584 2069 3584 
Q 2775 3584 3186 3129 
Q 3597 2675 3597 1894 
z
M 3022 2063 
Q 3016 2534 2758 2815 
Q 2500 3097 2075 3097 
Q 1594 3097 1305 2825 
Q 1016 2553 972 2059 
L 3022 2063 
z
" transform="scale(0.015625)"/>
       <path id="DejaVuSans-20" transform="scale(0.015625)"/>
       <path id="DejaVuSans-2f" d="M 1625 4666 
L 2156 4666 
L 531 -594 
L 0 -594 
L 1625 4666 
z
" transform="scale(0.015625)"/>
       <path id="DejaVuSans-73" d="M 2834 3397 
L 2834 2853 
Q 2591 2978 2328 3040 
Q 2066 3103 1784 3103 
Q 1356 3103 1142 2972 
Q 928 2841 928 2578 
Q 928 2378 1081 2264 
Q 1234 2150 1697 2047 
L 1894 2003 
Q 2506 1872 2764 1633 
Q 3022 1394 3022 966 
Q 3022 478 2636 193 
Q 2250 -91 1575 -91 
Q 1294 -91 989 -36 
Q 684 19 347 128 
L 347 722 
Q 666 556 975 473 
Q 1284 391 1588 391 
Q 1994 391 2212 530 
Q 2431 669 2431 922 
Q 2431 1156 2273 1281 
Q 2116 1406 1581 1522 
L 1381 1569 
Q 847 1681 609 1914 
Q 372 2147 372 2553 
Q 372 3047 722 3315 
Q 1072 3584 1716 3584 
Q 2034 3584 2315 3537 
Q 2597 3491 2834 3397 
z
" transform="scale(0.015625)"/>
      </defs>
      <use xlink:href="#DejaVuSans-54"/>
      <use xlink:href="#DejaVuSans-69" x="57.958984"/>
      <use xlink:href="#DejaVuSans-6d" x="85.742188"/>
      <use xlink:href="#DejaVuSans-65" x="183.154297"/>
      <use xlink:href="#DejaVuSans-20" x="244.677734"/>
      <use xlink:href="#DejaVuSans-2f" x="276.464844"/>
      <use xlink:href="#DejaVuSans-20" x="310.15625"/>
      <use xlink:href="#DejaVuSans-73" x="341.943359"/>
     </g>
    </g>
   </g>
   <g id="matplotlib.axis_4">
    <g id="ytick_3">
     <g id="line2d_25">
      <g>
       <use xlink:href="#m6f784e1908" x="108" y="437.668502" style="stroke: #000000; stroke-width: 0.8"/>
      </g>
     </g>
     <g id="text_24">
      <!-- 0.4 -->
      <g transform="translate(69.19375 445.266939) scale(0.2 -0.2)">
       <use xlink:href="#DejaVuSans-30"/>
       <use xlink:href="#DejaVuSans-2e" x="63.623047"/>
       <use xlink:href="#DejaVuSans-34" x="95.410156"/>
      </g>
     </g>
    </g>
    <g id="ytick_4">
     <g id="line2d_26">
      <g>
       <use xlink:href="#m6f784e1908" x="108" y="367.312313" style="stroke: #000000; stroke-width: 0.8"/>
      </g>
     </g>
     <g id="text_25">
      <!-- 0.5 -->
      <g transform="translate(69.19375 374.91075) scale(0.2 -0.2)">
       <use xlink:href="#DejaVuSans-30"/>
       <use xlink:href="#DejaVuSans-2e" x="63.623047"/>
       <use xlink:href="#DejaVuSans-35" x="95.410156"/>
      </g>
     </g>
    </g>
    <g id="ytick_5">
     <g id="line2d_27">
      <g>
       <use xlink:href="#m6f784e1908" x="108" y="296.956124" style="stroke: #000000; stroke-width: 0.8"/>
      </g>
     </g>
     <g id="text_26">
      <!-- 0.6 -->
      <g transform="translate(69.19375 304.554561) scale(0.2 -0.2)">
       <use xlink:href="#DejaVuSans-30"/>
       <use xlink:href="#DejaVuSans-2e" x="63.623047"/>
       <use xlink:href="#DejaVuSans-36" x="95.410156"/>
      </g>
     </g>
    </g>
   </g>
   <g id="line2d_28">
    <path d="M 132.545455 289.68794 
L 132.613288 289.656825 
L 132.748954 412.769215 
L 133.49512 412.660874 
L 136.072783 411.506094 
L 137.768613 410.470579 
L 139.464444 409.171942 
L 141.228108 407.53809 
L 143.195272 405.3962 
L 145.433768 402.612036 
L 148.147098 398.86289 
L 151.742259 393.487559 
L 158.254249 383.266054 
L 166.055071 371.151784 
L 171.481729 363.139702 
L 176.501388 356.121929 
L 181.317547 349.764865 
L 186.065874 343.858159 
L 190.8142 338.300469 
L 195.630359 333.005689 
L 200.446519 328.039083 
L 205.330511 323.319915 
L 210.282337 318.843266 
L 215.301996 314.603571 
L 220.389488 310.594919 
L 225.612647 306.76325 
L 230.903639 303.157311 
L 236.330298 299.729326 
L 241.824789 296.520383 
L 247.454947 293.48874 
L 253.220772 290.63656 
L 255.323602 289.656823 
L 255.459269 412.769213 
L 256.205434 412.660871 
L 258.783097 411.506092 
L 260.478928 410.470576 
L 262.174759 409.17194 
L 263.938423 407.538088 
L 265.905586 405.396198 
L 268.144083 402.612034 
L 270.857412 398.862888 
L 274.452573 393.487556 
L 280.964563 383.266051 
L 288.765385 371.151782 
L 294.192043 363.1397 
L 299.211702 356.121927 
L 304.027862 349.764863 
L 308.776188 343.858157 
L 313.524514 338.300467 
L 318.340674 333.005686 
L 323.156833 328.039081 
L 328.040826 323.319913 
L 332.992651 318.843264 
L 338.01231 314.603569 
L 343.099803 310.594917 
L 348.322962 306.763248 
L 353.613954 303.157309 
L 359.040612 299.729324 
L 364.535104 296.520381 
L 370.165262 293.488738 
L 375.931086 290.636558 
L 378.033917 289.656821 
L 378.169583 412.769211 
L 378.915749 412.660869 
L 381.493411 411.50609 
L 383.189242 410.470574 
L 384.885073 409.171938 
L 386.648737 407.538086 
L 388.615901 405.396195 
L 390.854397 402.612032 
L 393.567726 398.862886 
L 397.162888 393.487554 
L 403.674878 383.266049 
L 411.475699 371.15178 
L 416.902358 363.139698 
L 421.922017 356.121925 
L 426.738176 349.764861 
L 431.486502 343.858155 
L 436.234829 338.300465 
L 441.050988 333.005684 
L 445.867147 328.039079 
L 450.75114 323.319911 
L 455.702966 318.843262 
L 460.722625 314.603567 
L 465.810117 310.594915 
L 471.033276 306.763247 
L 476.324268 303.157307 
L 481.750926 299.729322 
L 487.245418 296.52038 
L 492.875576 293.488736 
L 498.641401 290.636556 
L 500.744231 289.65682 
L 500.879897 412.769209 
L 501.626063 412.660868 
L 504.203726 411.506088 
L 505.899557 410.470572 
L 507.595387 409.171936 
L 509.359051 407.538084 
L 511.326215 405.396194 
L 513.564712 402.61203 
L 516.278041 398.862884 
L 519.873202 393.487552 
L 526.385192 383.266048 
L 534.186014 371.151778 
L 539.612672 363.139696 
L 544.632331 356.121923 
L 549.448491 349.764859 
L 554.196817 343.858153 
L 558.945143 338.300464 
L 563.761302 333.005683 
L 568.577462 328.039077 
L 573.461454 323.31991 
L 578.41328 318.84326 
L 583.432939 314.603565 
L 588.520432 310.594913 
L 593.74359 306.763245 
L 599.034582 303.157306 
L 604.461241 299.72932 
L 609.955733 296.520378 
L 615.585891 293.488735 
L 621.351715 290.636555 
L 623.454545 289.656818 
L 623.454545 289.656818 
" clip-path="url(#p3073b67e30)" style="fill: none; stroke: #1f77b4; stroke-width: 1.5; stroke-linecap: square"/>
   </g>
   <g id="line2d_29">
    <path d="M 132.545455 329.941121 
L 132.613288 329.973658 
L 132.748954 433.793182 
L 133.29162 433.735775 
L 135.258784 431.924462 
L 136.140616 430.790851 
L 137.022448 429.245793 
L 138.039946 426.953033 
L 139.260944 423.616598 
L 140.956775 418.275792 
L 143.941437 407.98705 
L 148.757597 391.484024 
L 151.810092 381.833915 
L 154.659088 373.549644 
L 157.372417 366.321653 
L 160.085746 359.722498 
L 162.731242 353.867021 
L 165.376738 348.552782 
L 167.954401 343.866014 
L 170.532064 339.63568 
L 173.109727 335.834518 
L 175.619556 332.520842 
L 178.129386 329.566158 
L 180.639215 326.948445 
L 183.149045 324.646717 
L 185.658874 322.640996 
L 188.168704 320.91227 
L 190.746367 319.406165 
L 193.324029 318.154553 
L 195.969525 317.116119 
L 198.682855 316.291259 
L 201.464017 315.679068 
L 204.313013 315.277378 
L 207.297675 315.080732 
L 210.418003 315.098491 
L 213.741832 315.344247 
L 217.26916 315.833998 
L 220.999987 316.578818 
L 225.069981 317.622937 
L 229.479141 318.98696 
L 234.430967 320.758524 
L 240.061125 323.017982 
L 246.708782 325.935122 
L 255.323602 329.973658 
L 255.459269 433.793182 
L 256.001935 433.735775 
L 257.969098 431.924462 
L 258.85093 430.790851 
L 259.732762 429.245793 
L 260.750261 426.953033 
L 261.971259 423.616598 
L 263.66709 418.275793 
L 266.651752 407.98705 
L 271.467911 391.484024 
L 274.520406 381.833915 
L 277.369402 373.549644 
L 280.082731 366.321653 
L 282.796061 359.722498 
L 285.441557 353.867021 
L 288.087053 348.552782 
L 290.664715 343.866015 
L 293.242378 339.635681 
L 295.820041 335.834519 
L 298.32987 332.520842 
L 300.8397 329.566158 
L 303.34953 326.948445 
L 305.859359 324.646717 
L 308.369189 322.640996 
L 310.879018 320.912271 
L 313.456681 319.406165 
L 316.034344 318.154554 
L 318.67984 317.116119 
L 321.393169 316.291259 
L 324.174331 315.679068 
L 327.023327 315.277378 
L 330.007989 315.080732 
L 333.128318 315.098491 
L 336.452146 315.344247 
L 339.979474 315.833998 
L 343.710302 316.578818 
L 347.780296 317.622938 
L 352.189456 318.98696 
L 357.141282 320.758524 
L 362.77144 323.017982 
L 369.419096 325.935122 
L 378.033917 329.973659 
L 378.169583 433.793182 
L 378.712249 433.735775 
L 380.679413 431.924462 
L 381.561245 430.790851 
L 382.443077 429.245793 
L 383.460575 426.953033 
L 384.681573 423.616598 
L 386.377404 418.275793 
L 389.362066 407.98705 
L 394.178226 391.484025 
L 397.230721 381.833915 
L 400.079717 373.549644 
L 402.793046 366.321653 
L 405.506375 359.722498 
L 408.151871 353.867021 
L 410.797367 348.552782 
L 413.37503 343.866015 
L 415.952693 339.635681 
L 418.530355 335.834519 
L 421.040185 332.520842 
L 423.550014 329.566159 
L 426.059844 326.948445 
L 428.569674 324.646717 
L 431.079503 322.640996 
L 433.589333 320.912271 
L 436.166995 319.406165 
L 438.744658 318.154554 
L 441.390154 317.116119 
L 444.103483 316.291259 
L 446.884646 315.679068 
L 449.733642 315.277378 
L 452.718304 315.080733 
L 455.838632 315.098491 
L 459.162461 315.344247 
L 462.689789 315.833998 
L 466.420616 316.578818 
L 470.49061 317.622938 
L 474.89977 318.98696 
L 479.851596 320.758525 
L 485.481754 323.017982 
L 492.129411 325.935123 
L 500.744231 329.973659 
L 500.879897 433.793182 
L 501.422563 433.735775 
L 503.389727 431.924462 
L 504.271559 430.790852 
L 505.153391 429.245793 
L 506.170889 426.953033 
L 507.391888 423.616598 
L 509.087718 418.275793 
L 512.072381 407.98705 
L 516.88854 391.484025 
L 519.941035 381.833915 
L 522.790031 373.549644 
L 525.50336 366.321653 
L 528.216689 359.722498 
L 530.862185 353.867021 
L 533.507681 348.552782 
L 536.085344 343.866015 
L 538.663007 339.635681 
L 541.24067 335.834519 
L 543.750499 332.520842 
L 546.260329 329.566159 
L 548.770158 326.948445 
L 551.279988 324.646717 
L 553.789817 322.640996 
L 556.299647 320.912271 
L 558.87731 319.406165 
L 561.454973 318.154554 
L 564.100469 317.116119 
L 566.813798 316.291259 
L 569.59496 315.679068 
L 572.443956 315.277378 
L 575.428618 315.080733 
L 578.548947 315.098491 
L 581.872775 315.344248 
L 585.400103 315.833998 
L 589.130931 316.578818 
L 593.200925 317.622938 
L 597.610085 318.98696 
L 602.56191 320.758525 
L 608.192069 323.017982 
L 614.839725 325.935123 
L 623.454545 329.973659 
L 623.454545 329.973659 
" clip-path="url(#p3073b67e30)" style="fill: none; stroke: #ff7f0e; stroke-width: 1.5; stroke-linecap: square"/>
   </g>
   <g id="line2d_30">
    <path d="M 132.545455 337.810652 
L 132.613288 337.844825 
L 132.748954 424.679411 
L 133.359453 424.574759 
L 135.190951 423.022268 
L 136.004949 422.003902 
L 136.818948 420.591245 
L 137.768613 418.459879 
L 138.989611 415.115077 
L 140.685442 409.748709 
L 144.144937 397.855181 
L 147.943598 385.114226 
L 150.792594 376.316895 
L 153.505923 368.651425 
L 156.083586 362.018842 
L 158.661248 355.998338 
L 161.171078 350.695559 
L 163.680907 345.913391 
L 166.122904 341.73034 
L 168.5649 337.98221 
L 171.006896 334.641807 
L 173.381059 331.760397 
L 175.755223 329.217059 
L 178.129386 326.990147 
L 180.503549 325.059088 
L 182.945545 323.360937 
L 185.387541 321.934947 
L 187.829538 320.762006 
L 190.339367 319.801144 
L 192.91703 319.053135 
L 195.562526 318.517329 
L 198.275855 318.191695 
L 201.124851 318.072522 
L 204.109513 318.169582 
L 207.297675 318.498662 
L 210.689336 319.075969 
L 214.352331 319.930081 
L 218.354491 321.098903 
L 222.763651 322.625705 
L 227.715477 324.58252 
L 233.481302 327.108135 
L 240.671624 330.514117 
L 251.728441 336.031223 
L 255.323602 337.844825 
L 255.459269 424.679411 
L 256.069768 424.574759 
L 257.901265 423.022268 
L 258.715264 422.003902 
L 259.529263 420.591245 
L 260.478928 418.459879 
L 261.699926 415.115077 
L 263.395757 409.748709 
L 266.855251 397.855181 
L 270.653912 385.114226 
L 273.502908 376.316895 
L 276.216237 368.651425 
L 278.7939 362.018842 
L 281.371563 355.998338 
L 283.881392 350.695559 
L 286.391222 345.913391 
L 288.833218 341.73034 
L 291.275214 337.98221 
L 293.717211 334.641807 
L 296.091374 331.760397 
L 298.465537 329.217059 
L 300.8397 326.990147 
L 303.213863 325.059088 
L 305.655859 323.360937 
L 308.097856 321.934947 
L 310.539852 320.762007 
L 313.049682 319.801145 
L 315.627344 319.053135 
L 318.27284 318.517329 
L 320.98617 318.191695 
L 323.835165 318.072522 
L 326.819827 318.169582 
L 330.007989 318.498662 
L 333.399651 319.07597 
L 337.062645 319.930081 
L 341.064806 321.098903 
L 345.473966 322.625704 
L 350.425792 324.58252 
L 356.191616 327.108135 
L 363.381939 330.514117 
L 374.438755 336.031223 
L 378.033917 337.844825 
L 378.169583 424.679411 
L 378.780082 424.574759 
L 380.611579 423.022268 
L 381.425578 422.003902 
L 382.239577 420.591245 
L 383.189242 418.459879 
L 384.41024 415.115077 
L 386.106071 409.748709 
L 389.565566 397.855181 
L 393.364227 385.114226 
L 396.213222 376.316895 
L 398.926552 368.651425 
L 401.504214 362.018842 
L 404.081877 355.998338 
L 406.591707 350.695559 
L 409.101536 345.913391 
L 411.543533 341.73034 
L 413.985529 337.98221 
L 416.427525 334.641807 
L 418.801688 331.760397 
L 421.175851 329.217059 
L 423.550014 326.990147 
L 425.924178 325.059089 
L 428.366174 323.360937 
L 430.80817 321.934947 
L 433.250166 320.762006 
L 435.759996 319.801145 
L 438.337659 319.053135 
L 440.983155 318.517329 
L 443.696484 318.191695 
L 446.54548 318.072522 
L 449.530142 318.169582 
L 452.718304 318.498662 
L 456.109965 319.075969 
L 459.77296 319.930082 
L 463.77512 321.098903 
L 468.18428 322.625705 
L 473.136106 324.58252 
L 478.901931 327.108135 
L 486.092253 330.514117 
L 497.14907 336.031223 
L 500.744231 337.844825 
L 500.879897 424.679411 
L 501.490397 424.574759 
L 503.321894 423.022268 
L 504.135893 422.003902 
L 504.949891 420.591245 
L 505.899557 418.459879 
L 507.120555 415.115077 
L 508.816385 409.748709 
L 512.27588 397.855181 
L 516.074541 385.114226 
L 518.923537 376.316895 
L 521.636866 368.651425 
L 524.214529 362.018842 
L 526.792192 355.998338 
L 529.302021 350.695559 
L 531.811851 345.913391 
L 534.253847 341.73034 
L 536.695843 337.98221 
L 539.13784 334.641807 
L 541.512003 331.760397 
L 543.886166 329.217059 
L 546.260329 326.990147 
L 548.634492 325.059089 
L 551.076488 323.360937 
L 553.518485 321.934947 
L 555.960481 320.762007 
L 558.47031 319.801145 
L 561.047973 319.053135 
L 563.693469 318.517329 
L 566.406798 318.191695 
L 569.255794 318.072522 
L 572.240456 318.169582 
L 575.428618 318.498662 
L 578.82028 319.07597 
L 582.483274 319.930082 
L 586.485435 321.098903 
L 590.894595 322.625705 
L 595.846421 324.58252 
L 601.612245 327.108135 
L 608.802568 330.514117 
L 619.859384 336.031223 
L 623.454545 337.844825 
L 623.454545 337.844825 
" clip-path="url(#p3073b67e30)" style="fill: none; stroke: #2ca02c; stroke-width: 1.5; stroke-linecap: square"/>
   </g>
   <g id="patch_9">
    <path d="M 108 441 
L 108 282.45 
" style="fill: none; stroke: #000000; stroke-width: 0.8; stroke-linejoin: miter; stroke-linecap: square"/>
   </g>
   <g id="patch_10">
    <path d="M 648 441 
L 648 282.45 
" style="fill: none; stroke: #000000; stroke-width: 0.8; stroke-linejoin: miter; stroke-linecap: square"/>
   </g>
   <g id="patch_11">
    <path d="M 108 441 
L 648 441 
" style="fill: none; stroke: #000000; stroke-width: 0.8; stroke-linejoin: miter; stroke-linecap: square"/>
   </g>
   <g id="patch_12">
    <path d="M 108 282.45 
L 648 282.45 
" style="fill: none; stroke: #000000; stroke-width: 0.8; stroke-linejoin: miter; stroke-linecap: square"/>
   </g>
   <g id="text_27">
    <!-- Raffinate -->
    <g transform="translate(332.790625 276.45) scale(0.2 -0.2)">
     <defs>
      <path id="DejaVuSans-52" d="M 2841 2188 
Q 3044 2119 3236 1894 
Q 3428 1669 3622 1275 
L 4263 0 
L 3584 0 
L 2988 1197 
Q 2756 1666 2539 1819 
Q 2322 1972 1947 1972 
L 1259 1972 
L 1259 0 
L 628 0 
L 628 4666 
L 2053 4666 
Q 2853 4666 3247 4331 
Q 3641 3997 3641 3322 
Q 3641 2881 3436 2590 
Q 3231 2300 2841 2188 
z
M 1259 4147 
L 1259 2491 
L 2053 2491 
Q 2509 2491 2742 2702 
Q 2975 2913 2975 3322 
Q 2975 3731 2742 3939 
Q 2509 4147 2053 4147 
L 1259 4147 
z
" transform="scale(0.015625)"/>
      <path id="DejaVuSans-66" d="M 2375 4863 
L 2375 4384 
L 1825 4384 
Q 1516 4384 1395 4259 
Q 1275 4134 1275 3809 
L 1275 3500 
L 2222 3500 
L 2222 3053 
L 1275 3053 
L 1275 0 
L 697 0 
L 697 3053 
L 147 3053 
L 147 3500 
L 697 3500 
L 697 3744 
Q 697 4328 969 4595 
Q 1241 4863 1831 4863 
L 2375 4863 
z
" transform="scale(0.015625)"/>
      <path id="DejaVuSans-6e" d="M 3513 2113 
L 3513 0 
L 2938 0 
L 2938 2094 
Q 2938 2591 2744 2837 
Q 2550 3084 2163 3084 
Q 1697 3084 1428 2787 
Q 1159 2491 1159 1978 
L 1159 0 
L 581 0 
L 581 3500 
L 1159 3500 
L 1159 2956 
Q 1366 3272 1645 3428 
Q 1925 3584 2291 3584 
Q 2894 3584 3203 3211 
Q 3513 2838 3513 2113 
z
" transform="scale(0.015625)"/>
     </defs>
     <use xlink:href="#DejaVuSans-52"/>
     <use xlink:href="#DejaVuSans-61" x="67.232422"/>
     <use xlink:href="#DejaVuSans-66" x="128.511719"/>
     <use xlink:href="#DejaVuSans-66" x="163.716797"/>
     <use xlink:href="#DejaVuSans-69" x="198.921875"/>
     <use xlink:href="#DejaVuSans-6e" x="226.705078"/>
     <use xlink:href="#DejaVuSans-61" x="290.083984"/>
     <use xlink:href="#DejaVuSans-74" x="351.363281"/>
     <use xlink:href="#DejaVuSans-65" x="390.572266"/>
    </g>
   </g>
  </g>
  <g id="text_28">
   <!-- Concentration / mM -->
   <g transform="translate(59.51875 350.835938) rotate(-90) scale(0.2 -0.2)">
    <defs>
     <path id="DejaVuSans-6f" d="M 1959 3097 
Q 1497 3097 1228 2736 
Q 959 2375 959 1747 
Q 959 1119 1226 758 
Q 1494 397 1959 397 
Q 2419 397 2687 759 
Q 2956 1122 2956 1747 
Q 2956 2369 2687 2733 
Q 2419 3097 1959 3097 
z
M 1959 3584 
Q 2709 3584 3137 3096 
Q 3566 2609 3566 1747 
Q 3566 888 3137 398 
Q 2709 -91 1959 -91 
Q 1206 -91 779 398 
Q 353 888 353 1747 
Q 353 2609 779 3096 
Q 1206 3584 1959 3584 
z
" transform="scale(0.015625)"/>
     <path id="DejaVuSans-4d" d="M 628 4666 
L 1569 4666 
L 2759 1491 
L 3956 4666 
L 4897 4666 
L 4897 0 
L 4281 0 
L 4281 4097 
L 3078 897 
L 2444 897 
L 1241 4097 
L 1241 0 
L 628 0 
L 628 4666 
z
" transform="scale(0.015625)"/>
    </defs>
    <use xlink:href="#DejaVuSans-43"/>
    <use xlink:href="#DejaVuSans-6f" x="69.824219"/>
    <use xlink:href="#DejaVuSans-6e" x="131.005859"/>
    <use xlink:href="#DejaVuSans-63" x="194.384766"/>
    <use xlink:href="#DejaVuSans-65" x="249.365234"/>
    <use xlink:href="#DejaVuSans-6e" x="310.888672"/>
    <use xlink:href="#DejaVuSans-74" x="374.267578"/>
    <use xlink:href="#DejaVuSans-72" x="413.476562"/>
    <use xlink:href="#DejaVuSans-61" x="454.589844"/>
    <use xlink:href="#DejaVuSans-74" x="515.869141"/>
    <use xlink:href="#DejaVuSans-69" x="555.078125"/>
    <use xlink:href="#DejaVuSans-6f" x="582.861328"/>
    <use xlink:href="#DejaVuSans-6e" x="644.042969"/>
    <use xlink:href="#DejaVuSans-20" x="707.421875"/>
    <use xlink:href="#DejaVuSans-2f" x="739.208984"/>
    <use xlink:href="#DejaVuSans-20" x="772.900391"/>
    <use xlink:href="#DejaVuSans-6d" x="804.6875"/>
    <use xlink:href="#DejaVuSans-4d" x="902.099609"/>
   </g>
  </g>
 </g>
 <defs>
  <clipPath id="p1a394d6abc">
   <rect x="108" y="60.48" width="540" height="158.55"/>
  </clipPath>
  <clipPath id="p3073b67e30">
   <rect x="108" y="282.45" width="540" height="158.55"/>
  </clipPath>
 </defs>
</svg>
