<?xml version="1.0" encoding="utf-8" standalone="no"?>
<!DOCTYPE svg PUBLIC "-//W3C//DTD SVG 1.1//EN"
  "http://www.w3.org/Graphics/SVG/1.1/DTD/svg11.dtd">
<svg xmlns:xlink="http://www.w3.org/1999/xlink" width="641.490313pt" height="706.276pt" viewBox="0 0 641.490313 706.276" xmlns="http://www.w3.org/2000/svg" version="1.1">
 <metadata>
  <rdf:RDF xmlns:dc="http://purl.org/dc/elements/1.1/" xmlns:cc="http://creativecommons.org/ns#" xmlns:rdf="http://www.w3.org/1999/02/22-rdf-syntax-ns#">
   <cc:Work>
    <dc:type rdf:resource="http://purl.org/dc/dcmitype/StillImage"/>
    <dc:date>2025-01-15T09:08:38.060825</dc:date>
    <dc:format>image/svg+xml</dc:format>
    <dc:creator>
     <cc:Agent>
      <dc:title>Matplotlib v3.9.1, https://matplotlib.org/</dc:title>
     </cc:Agent>
    </dc:creator>
   </cc:Work>
  </rdf:RDF>
 </metadata>
 <defs>
  <style type="text/css">*{stroke-linejoin: round; stroke-linecap: butt}</style>
 </defs>
 <g id="figure_1">
  <g id="patch_1">
   <path d="M 0 706.276 
L 641.490313 706.276 
L 641.490313 0 
L 0 0 
z
" style="fill: #ffffff"/>
  </g>
  <g id="axes_1">
   <g id="patch_2">
    <path d="M 70.390313 415.44 
L 572.590313 415.44 
L 572.590313 7.2 
L 70.390313 7.2 
z
" style="fill: #ffffff"/>
   </g>
   <g id="matplotlib.axis_1">
    <g id="xtick_1">
     <g id="line2d_1">
      <path d="M 89.067172 415.44 
L 89.067172 7.2 
" clip-path="url(#p7c9b160050)" style="fill: none; stroke-dasharray: 1.85,0.8; stroke-dashoffset: 0; stroke: #b0b0b0; stroke-width: 0.5"/>
     </g>
     <g id="line2d_2">
      <defs>
       <path id="m5a8ba0cf99" d="M 0 0 
L 0 3.5 
" style="stroke: #000000; stroke-width: 0.8"/>
      </defs>
      <g>
       <use xlink:href="#m5a8ba0cf99" x="89.067172" y="415.44" style="stroke: #000000; stroke-width: 0.8"/>
      </g>
     </g>
     <g id="text_1">
      <!-- 0 -->
      <g transform="translate(82.068422 439.156562) scale(0.22 -0.22)">
       <defs>
        <path id="DejaVuSans-30" d="M 2034 4250 
Q 1547 4250 1301 3770 
Q 1056 3291 1056 2328 
Q 1056 1369 1301 889 
Q 1547 409 2034 409 
Q 2525 409 2770 889 
Q 3016 1369 3016 2328 
Q 3016 3291 2770 3770 
Q 2525 4250 2034 4250 
z
M 2034 4750 
Q 2819 4750 3233 4129 
Q 3647 3509 3647 2328 
Q 3647 1150 3233 529 
Q 2819 -91 2034 -91 
Q 1250 -91 836 529 
Q 422 1150 422 2328 
Q 422 3509 836 4129 
Q 1250 4750 2034 4750 
z
" transform="scale(0.015625)"/>
       </defs>
       <use xlink:href="#DejaVuSans-30"/>
      </g>
     </g>
    </g>
    <g id="xtick_2">
     <g id="line2d_3">
      <path d="M 172.075436 415.44 
L 172.075436 7.2 
" clip-path="url(#p7c9b160050)" style="fill: none; stroke-dasharray: 1.85,0.8; stroke-dashoffset: 0; stroke: #b0b0b0; stroke-width: 0.5"/>
     </g>
     <g id="line2d_4">
      <g>
       <use xlink:href="#m5a8ba0cf99" x="172.075436" y="415.44" style="stroke: #000000; stroke-width: 0.8"/>
      </g>
     </g>
     <g id="text_2">
      <!-- 20 -->
      <g transform="translate(158.077936 439.156562) scale(0.22 -0.22)">
       <defs>
        <path id="DejaVuSans-32" d="M 1228 531 
L 3431 531 
L 3431 0 
L 469 0 
L 469 531 
Q 828 903 1448 1529 
Q 2069 2156 2228 2338 
Q 2531 2678 2651 2914 
Q 2772 3150 2772 3378 
Q 2772 3750 2511 3984 
Q 2250 4219 1831 4219 
Q 1534 4219 1204 4116 
Q 875 4013 500 3803 
L 500 4441 
Q 881 4594 1212 4672 
Q 1544 4750 1819 4750 
Q 2544 4750 2975 4387 
Q 3406 4025 3406 3419 
Q 3406 3131 3298 2873 
Q 3191 2616 2906 2266 
Q 2828 2175 2409 1742 
Q 1991 1309 1228 531 
z
" transform="scale(0.015625)"/>
       </defs>
       <use xlink:href="#DejaVuSans-32"/>
       <use xlink:href="#DejaVuSans-30" x="63.623047"/>
      </g>
     </g>
    </g>
    <g id="xtick_3">
     <g id="line2d_5">
      <path d="M 255.083701 415.44 
L 255.083701 7.2 
" clip-path="url(#p7c9b160050)" style="fill: none; stroke-dasharray: 1.85,0.8; stroke-dashoffset: 0; stroke: #b0b0b0; stroke-width: 0.5"/>
     </g>
     <g id="line2d_6">
      <g>
       <use xlink:href="#m5a8ba0cf99" x="255.083701" y="415.44" style="stroke: #000000; stroke-width: 0.8"/>
      </g>
     </g>
     <g id="text_3">
      <!-- 40 -->
      <g transform="translate(241.086201 439.156562) scale(0.22 -0.22)">
       <defs>
        <path id="DejaVuSans-34" d="M 2419 4116 
L 825 1625 
L 2419 1625 
L 2419 4116 
z
M 2253 4666 
L 3047 4666 
L 3047 1625 
L 3713 1625 
L 3713 1100 
L 3047 1100 
L 3047 0 
L 2419 0 
L 2419 1100 
L 313 1100 
L 313 1709 
L 2253 4666 
z
" transform="scale(0.015625)"/>
       </defs>
       <use xlink:href="#DejaVuSans-34"/>
       <use xlink:href="#DejaVuSans-30" x="63.623047"/>
      </g>
     </g>
    </g>
    <g id="xtick_4">
     <g id="line2d_7">
      <path d="M 338.091965 415.44 
L 338.091965 7.2 
" clip-path="url(#p7c9b160050)" style="fill: none; stroke-dasharray: 1.85,0.8; stroke-dashoffset: 0; stroke: #b0b0b0; stroke-width: 0.5"/>
     </g>
     <g id="line2d_8">
      <g>
       <use xlink:href="#m5a8ba0cf99" x="338.091965" y="415.44" style="stroke: #000000; stroke-width: 0.8"/>
      </g>
     </g>
     <g id="text_4">
      <!-- 60 -->
      <g transform="translate(324.094465 439.156562) scale(0.22 -0.22)">
       <defs>
        <path id="DejaVuSans-36" d="M 2113 2584 
Q 1688 2584 1439 2293 
Q 1191 2003 1191 1497 
Q 1191 994 1439 701 
Q 1688 409 2113 409 
Q 2538 409 2786 701 
Q 3034 994 3034 1497 
Q 3034 2003 2786 2293 
Q 2538 2584 2113 2584 
z
M 3366 4563 
L 3366 3988 
Q 3128 4100 2886 4159 
Q 2644 4219 2406 4219 
Q 1781 4219 1451 3797 
Q 1122 3375 1075 2522 
Q 1259 2794 1537 2939 
Q 1816 3084 2150 3084 
Q 2853 3084 3261 2657 
Q 3669 2231 3669 1497 
Q 3669 778 3244 343 
Q 2819 -91 2113 -91 
Q 1303 -91 875 529 
Q 447 1150 447 2328 
Q 447 3434 972 4092 
Q 1497 4750 2381 4750 
Q 2619 4750 2861 4703 
Q 3103 4656 3366 4563 
z
" transform="scale(0.015625)"/>
       </defs>
       <use xlink:href="#DejaVuSans-36"/>
       <use xlink:href="#DejaVuSans-30" x="63.623047"/>
      </g>
     </g>
    </g>
    <g id="xtick_5">
     <g id="line2d_9">
      <path d="M 421.10023 415.44 
L 421.10023 7.2 
" clip-path="url(#p7c9b160050)" style="fill: none; stroke-dasharray: 1.85,0.8; stroke-dashoffset: 0; stroke: #b0b0b0; stroke-width: 0.5"/>
     </g>
     <g id="line2d_10">
      <g>
       <use xlink:href="#m5a8ba0cf99" x="421.10023" y="415.44" style="stroke: #000000; stroke-width: 0.8"/>
      </g>
     </g>
     <g id="text_5">
      <!-- 80 -->
      <g transform="translate(407.10273 439.156562) scale(0.22 -0.22)">
       <defs>
        <path id="DejaVuSans-38" d="M 2034 2216 
Q 1584 2216 1326 1975 
Q 1069 1734 1069 1313 
Q 1069 891 1326 650 
Q 1584 409 2034 409 
Q 2484 409 2743 651 
Q 3003 894 3003 1313 
Q 3003 1734 2745 1975 
Q 2488 2216 2034 2216 
z
M 1403 2484 
Q 997 2584 770 2862 
Q 544 3141 544 3541 
Q 544 4100 942 4425 
Q 1341 4750 2034 4750 
Q 2731 4750 3128 4425 
Q 3525 4100 3525 3541 
Q 3525 3141 3298 2862 
Q 3072 2584 2669 2484 
Q 3125 2378 3379 2068 
Q 3634 1759 3634 1313 
Q 3634 634 3220 271 
Q 2806 -91 2034 -91 
Q 1263 -91 848 271 
Q 434 634 434 1313 
Q 434 1759 690 2068 
Q 947 2378 1403 2484 
z
M 1172 3481 
Q 1172 3119 1398 2916 
Q 1625 2713 2034 2713 
Q 2441 2713 2670 2916 
Q 2900 3119 2900 3481 
Q 2900 3844 2670 4047 
Q 2441 4250 2034 4250 
Q 1625 4250 1398 4047 
Q 1172 3844 1172 3481 
z
" transform="scale(0.015625)"/>
       </defs>
       <use xlink:href="#DejaVuSans-38"/>
       <use xlink:href="#DejaVuSans-30" x="63.623047"/>
      </g>
     </g>
    </g>
    <g id="xtick_6">
     <g id="line2d_11">
      <path d="M 504.108494 415.44 
L 504.108494 7.2 
" clip-path="url(#p7c9b160050)" style="fill: none; stroke-dasharray: 1.85,0.8; stroke-dashoffset: 0; stroke: #b0b0b0; stroke-width: 0.5"/>
     </g>
     <g id="line2d_12">
      <g>
       <use xlink:href="#m5a8ba0cf99" x="504.108494" y="415.44" style="stroke: #000000; stroke-width: 0.8"/>
      </g>
     </g>
     <g id="text_6">
      <!-- 100 -->
      <g transform="translate(483.112244 439.156562) scale(0.22 -0.22)">
       <defs>
        <path id="DejaVuSans-31" d="M 794 531 
L 1825 531 
L 1825 4091 
L 703 3866 
L 703 4441 
L 1819 4666 
L 2450 4666 
L 2450 531 
L 3481 531 
L 3481 0 
L 794 0 
L 794 531 
z
" transform="scale(0.015625)"/>
       </defs>
       <use xlink:href="#DejaVuSans-31"/>
       <use xlink:href="#DejaVuSans-30" x="63.623047"/>
       <use xlink:href="#DejaVuSans-30" x="127.246094"/>
      </g>
     </g>
    </g>
    <g id="text_7">
     <!-- Iteration -->
     <g transform="translate(268.468828 466.727969) scale(0.25 -0.25)">
      <defs>
       <path id="DejaVuSans-49" d="M 628 4666 
L 1259 4666 
L 1259 0 
L 628 0 
L 628 4666 
z
" transform="scale(0.015625)"/>
       <path id="DejaVuSans-74" d="M 1172 4494 
L 1172 3500 
L 2356 3500 
L 2356 3053 
L 1172 3053 
L 1172 1153 
Q 1172 725 1289 603 
Q 1406 481 1766 481 
L 2356 481 
L 2356 0 
L 1766 0 
Q 1100 0 847 248 
Q 594 497 594 1153 
L 594 3053 
L 172 3053 
L 172 3500 
L 594 3500 
L 594 4494 
L 1172 4494 
z
" transform="scale(0.015625)"/>
       <path id="DejaVuSans-65" d="M 3597 1894 
L 3597 1613 
L 953 1613 
Q 991 1019 1311 708 
Q 1631 397 2203 397 
Q 2534 397 2845 478 
Q 3156 559 3463 722 
L 3463 178 
Q 3153 47 2828 -22 
Q 2503 -91 2169 -91 
Q 1331 -91 842 396 
Q 353 884 353 1716 
Q 353 2575 817 3079 
Q 1281 3584 2069 3584 
Q 2775 3584 3186 3129 
Q 3597 2675 3597 1894 
z
M 3022 2063 
Q 3016 2534 2758 2815 
Q 2500 3097 2075 3097 
Q 1594 3097 1305 2825 
Q 1016 2553 972 2059 
L 3022 2063 
z
" transform="scale(0.015625)"/>
       <path id="DejaVuSans-72" d="M 2631 2963 
Q 2534 3019 2420 3045 
Q 2306 3072 2169 3072 
Q 1681 3072 1420 2755 
Q 1159 2438 1159 1844 
L 1159 0 
L 581 0 
L 581 3500 
L 1159 3500 
L 1159 2956 
Q 1341 3275 1631 3429 
Q 1922 3584 2338 3584 
Q 2397 3584 2469 3576 
Q 2541 3569 2628 3553 
L 2631 2963 
z
" transform="scale(0.015625)"/>
       <path id="DejaVuSans-61" d="M 2194 1759 
Q 1497 1759 1228 1600 
Q 959 1441 959 1056 
Q 959 750 1161 570 
Q 1363 391 1709 391 
Q 2188 391 2477 730 
Q 2766 1069 2766 1631 
L 2766 1759 
L 2194 1759 
z
M 3341 1997 
L 3341 0 
L 2766 0 
L 2766 531 
Q 2569 213 2275 61 
Q 1981 -91 1556 -91 
Q 1019 -91 701 211 
Q 384 513 384 1019 
Q 384 1609 779 1909 
Q 1175 2209 1959 2209 
L 2766 2209 
L 2766 2266 
Q 2766 2663 2505 2880 
Q 2244 3097 1772 3097 
Q 1472 3097 1187 3025 
Q 903 2953 641 2809 
L 641 3341 
Q 956 3463 1253 3523 
Q 1550 3584 1831 3584 
Q 2591 3584 2966 3190 
Q 3341 2797 3341 1997 
z
" transform="scale(0.015625)"/>
       <path id="DejaVuSans-69" d="M 603 3500 
L 1178 3500 
L 1178 0 
L 603 0 
L 603 3500 
z
M 603 4863 
L 1178 4863 
L 1178 4134 
L 603 4134 
L 603 4863 
z
" transform="scale(0.015625)"/>
       <path id="DejaVuSans-6f" d="M 1959 3097 
Q 1497 3097 1228 2736 
Q 959 2375 959 1747 
Q 959 1119 1226 758 
Q 1494 397 1959 397 
Q 2419 397 2687 759 
Q 2956 1122 2956 1747 
Q 2956 2369 2687 2733 
Q 2419 3097 1959 3097 
z
M 1959 3584 
Q 2709 3584 3137 3096 
Q 3566 2609 3566 1747 
Q 3566 888 3137 398 
Q 2709 -91 1959 -91 
Q 1206 -91 779 398 
Q 353 888 353 1747 
Q 353 2609 779 3096 
Q 1206 3584 1959 3584 
z
" transform="scale(0.015625)"/>
       <path id="DejaVuSans-6e" d="M 3513 2113 
L 3513 0 
L 2938 0 
L 2938 2094 
Q 2938 2591 2744 2837 
Q 2550 3084 2163 3084 
Q 1697 3084 1428 2787 
Q 1159 2491 1159 1978 
L 1159 0 
L 581 0 
L 581 3500 
L 1159 3500 
L 1159 2956 
Q 1366 3272 1645 3428 
Q 1925 3584 2291 3584 
Q 2894 3584 3203 3211 
Q 3513 2838 3513 2113 
z
" transform="scale(0.015625)"/>
      </defs>
      <use xlink:href="#DejaVuSans-49"/>
      <use xlink:href="#DejaVuSans-74" x="29.492188"/>
      <use xlink:href="#DejaVuSans-65" x="68.701172"/>
      <use xlink:href="#DejaVuSans-72" x="130.224609"/>
      <use xlink:href="#DejaVuSans-61" x="171.337891"/>
      <use xlink:href="#DejaVuSans-74" x="232.617188"/>
      <use xlink:href="#DejaVuSans-69" x="271.826172"/>
      <use xlink:href="#DejaVuSans-6f" x="299.609375"/>
      <use xlink:href="#DejaVuSans-6e" x="360.791016"/>
     </g>
    </g>
   </g>
   <g id="matplotlib.axis_2">
    <g id="ytick_1">
     <g id="line2d_13">
      <path d="M 70.390313 399.735812 
L 572.590313 399.735812 
" clip-path="url(#p7c9b160050)" style="fill: none; stroke-dasharray: 1.85,0.8; stroke-dashoffset: 0; stroke: #b0b0b0; stroke-width: 0.5"/>
     </g>
     <g id="line2d_14">
      <defs>
       <path id="medac9549f2" d="M 0 0 
L -3.5 0 
" style="stroke: #000000; stroke-width: 0.8"/>
      </defs>
      <g>
       <use xlink:href="#medac9549f2" x="70.390313" y="399.735812" style="stroke: #000000; stroke-width: 0.8"/>
      </g>
     </g>
     <g id="text_8">
      <!-- 0 -->
      <g transform="translate(49.392813 408.094093) scale(0.22 -0.22)">
       <use xlink:href="#DejaVuSans-30"/>
      </g>
     </g>
    </g>
    <g id="ytick_2">
     <g id="line2d_15">
      <path d="M 70.390313 330.842685 
L 572.590313 330.842685 
" clip-path="url(#p7c9b160050)" style="fill: none; stroke-dasharray: 1.85,0.8; stroke-dashoffset: 0; stroke: #b0b0b0; stroke-width: 0.5"/>
     </g>
     <g id="line2d_16">
      <g>
       <use xlink:href="#medac9549f2" x="70.390313" y="330.842685" style="stroke: #000000; stroke-width: 0.8"/>
      </g>
     </g>
     <g id="text_9">
      <!-- 5 -->
      <g transform="translate(49.392813 339.200967) scale(0.22 -0.22)">
       <defs>
        <path id="DejaVuSans-35" d="M 691 4666 
L 3169 4666 
L 3169 4134 
L 1269 4134 
L 1269 2991 
Q 1406 3038 1543 3061 
Q 1681 3084 1819 3084 
Q 2600 3084 3056 2656 
Q 3513 2228 3513 1497 
Q 3513 744 3044 326 
Q 2575 -91 1722 -91 
Q 1428 -91 1123 -41 
Q 819 9 494 109 
L 494 744 
Q 775 591 1075 516 
Q 1375 441 1709 441 
Q 2250 441 2565 725 
Q 2881 1009 2881 1497 
Q 2881 1984 2565 2268 
Q 2250 2553 1709 2553 
Q 1456 2553 1204 2497 
Q 953 2441 691 2322 
L 691 4666 
z
" transform="scale(0.015625)"/>
       </defs>
       <use xlink:href="#DejaVuSans-35"/>
      </g>
     </g>
    </g>
    <g id="ytick_3">
     <g id="line2d_17">
      <path d="M 70.390313 261.949559 
L 572.590313 261.949559 
" clip-path="url(#p7c9b160050)" style="fill: none; stroke-dasharray: 1.85,0.8; stroke-dashoffset: 0; stroke: #b0b0b0; stroke-width: 0.5"/>
     </g>
     <g id="line2d_18">
      <g>
       <use xlink:href="#medac9549f2" x="70.390313" y="261.949559" style="stroke: #000000; stroke-width: 0.8"/>
      </g>
     </g>
     <g id="text_10">
      <!-- 10 -->
      <g transform="translate(35.395313 270.30784) scale(0.22 -0.22)">
       <use xlink:href="#DejaVuSans-31"/>
       <use xlink:href="#DejaVuSans-30" x="63.623047"/>
      </g>
     </g>
    </g>
    <g id="ytick_4">
     <g id="line2d_19">
      <path d="M 70.390313 193.056432 
L 572.590313 193.056432 
" clip-path="url(#p7c9b160050)" style="fill: none; stroke-dasharray: 1.85,0.8; stroke-dashoffset: 0; stroke: #b0b0b0; stroke-width: 0.5"/>
     </g>
     <g id="line2d_20">
      <g>
       <use xlink:href="#medac9549f2" x="70.390313" y="193.056432" style="stroke: #000000; stroke-width: 0.8"/>
      </g>
     </g>
     <g id="text_11">
      <!-- 15 -->
      <g transform="translate(35.395313 201.414713) scale(0.22 -0.22)">
       <use xlink:href="#DejaVuSans-31"/>
       <use xlink:href="#DejaVuSans-35" x="63.623047"/>
      </g>
     </g>
    </g>
    <g id="ytick_5">
     <g id="line2d_21">
      <path d="M 70.390313 124.163306 
L 572.590313 124.163306 
" clip-path="url(#p7c9b160050)" style="fill: none; stroke-dasharray: 1.85,0.8; stroke-dashoffset: 0; stroke: #b0b0b0; stroke-width: 0.5"/>
     </g>
     <g id="line2d_22">
      <g>
       <use xlink:href="#medac9549f2" x="70.390313" y="124.163306" style="stroke: #000000; stroke-width: 0.8"/>
      </g>
     </g>
     <g id="text_12">
      <!-- 20 -->
      <g transform="translate(35.395313 132.521587) scale(0.22 -0.22)">
       <use xlink:href="#DejaVuSans-32"/>
       <use xlink:href="#DejaVuSans-30" x="63.623047"/>
      </g>
     </g>
    </g>
    <g id="ytick_6">
     <g id="line2d_23">
      <path d="M 70.390313 55.270179 
L 572.590313 55.270179 
" clip-path="url(#p7c9b160050)" style="fill: none; stroke-dasharray: 1.85,0.8; stroke-dashoffset: 0; stroke: #b0b0b0; stroke-width: 0.5"/>
     </g>
     <g id="line2d_24">
      <g>
       <use xlink:href="#medac9549f2" x="70.390313" y="55.270179" style="stroke: #000000; stroke-width: 0.8"/>
      </g>
     </g>
     <g id="text_13">
      <!-- 25 -->
      <g transform="translate(35.395313 63.62846) scale(0.22 -0.22)">
       <use xlink:href="#DejaVuSans-32"/>
       <use xlink:href="#DejaVuSans-35" x="63.623047"/>
      </g>
     </g>
    </g>
    <g id="text_14">
     <!-- Cumulated runtime / s -->
     <g transform="translate(26.196094 351.591484) rotate(-90) scale(0.25 -0.25)">
      <defs>
       <path id="DejaVuSans-43" d="M 4122 4306 
L 4122 3641 
Q 3803 3938 3442 4084 
Q 3081 4231 2675 4231 
Q 1875 4231 1450 3742 
Q 1025 3253 1025 2328 
Q 1025 1406 1450 917 
Q 1875 428 2675 428 
Q 3081 428 3442 575 
Q 3803 722 4122 1019 
L 4122 359 
Q 3791 134 3420 21 
Q 3050 -91 2638 -91 
Q 1578 -91 968 557 
Q 359 1206 359 2328 
Q 359 3453 968 4101 
Q 1578 4750 2638 4750 
Q 3056 4750 3426 4639 
Q 3797 4528 4122 4306 
z
" transform="scale(0.015625)"/>
       <path id="DejaVuSans-75" d="M 544 1381 
L 544 3500 
L 1119 3500 
L 1119 1403 
Q 1119 906 1312 657 
Q 1506 409 1894 409 
Q 2359 409 2629 706 
Q 2900 1003 2900 1516 
L 2900 3500 
L 3475 3500 
L 3475 0 
L 2900 0 
L 2900 538 
Q 2691 219 2414 64 
Q 2138 -91 1772 -91 
Q 1169 -91 856 284 
Q 544 659 544 1381 
z
M 1991 3584 
L 1991 3584 
z
" transform="scale(0.015625)"/>
       <path id="DejaVuSans-6d" d="M 3328 2828 
Q 3544 3216 3844 3400 
Q 4144 3584 4550 3584 
Q 5097 3584 5394 3201 
Q 5691 2819 5691 2113 
L 5691 0 
L 5113 0 
L 5113 2094 
Q 5113 2597 4934 2840 
Q 4756 3084 4391 3084 
Q 3944 3084 3684 2787 
Q 3425 2491 3425 1978 
L 3425 0 
L 2847 0 
L 2847 2094 
Q 2847 2600 2669 2842 
Q 2491 3084 2119 3084 
Q 1678 3084 1418 2786 
Q 1159 2488 1159 1978 
L 1159 0 
L 581 0 
L 581 3500 
L 1159 3500 
L 1159 2956 
Q 1356 3278 1631 3431 
Q 1906 3584 2284 3584 
Q 2666 3584 2933 3390 
Q 3200 3197 3328 2828 
z
" transform="scale(0.015625)"/>
       <path id="DejaVuSans-6c" d="M 603 4863 
L 1178 4863 
L 1178 0 
L 603 0 
L 603 4863 
z
" transform="scale(0.015625)"/>
       <path id="DejaVuSans-64" d="M 2906 2969 
L 2906 4863 
L 3481 4863 
L 3481 0 
L 2906 0 
L 2906 525 
Q 2725 213 2448 61 
Q 2172 -91 1784 -91 
Q 1150 -91 751 415 
Q 353 922 353 1747 
Q 353 2572 751 3078 
Q 1150 3584 1784 3584 
Q 2172 3584 2448 3432 
Q 2725 3281 2906 2969 
z
M 947 1747 
Q 947 1113 1208 752 
Q 1469 391 1925 391 
Q 2381 391 2643 752 
Q 2906 1113 2906 1747 
Q 2906 2381 2643 2742 
Q 2381 3103 1925 3103 
Q 1469 3103 1208 2742 
Q 947 2381 947 1747 
z
" transform="scale(0.015625)"/>
       <path id="DejaVuSans-20" transform="scale(0.015625)"/>
       <path id="DejaVuSans-2f" d="M 1625 4666 
L 2156 4666 
L 531 -594 
L 0 -594 
L 1625 4666 
z
" transform="scale(0.015625)"/>
       <path id="DejaVuSans-73" d="M 2834 3397 
L 2834 2853 
Q 2591 2978 2328 3040 
Q 2066 3103 1784 3103 
Q 1356 3103 1142 2972 
Q 928 2841 928 2578 
Q 928 2378 1081 2264 
Q 1234 2150 1697 2047 
L 1894 2003 
Q 2506 1872 2764 1633 
Q 3022 1394 3022 966 
Q 3022 478 2636 193 
Q 2250 -91 1575 -91 
Q 1294 -91 989 -36 
Q 684 19 347 128 
L 347 722 
Q 666 556 975 473 
Q 1284 391 1588 391 
Q 1994 391 2212 530 
Q 2431 669 2431 922 
Q 2431 1156 2273 1281 
Q 2116 1406 1581 1522 
L 1381 1569 
Q 847 1681 609 1914 
Q 372 2147 372 2553 
Q 372 3047 722 3315 
Q 1072 3584 1716 3584 
Q 2034 3584 2315 3537 
Q 2597 3491 2834 3397 
z
" transform="scale(0.015625)"/>
      </defs>
      <use xlink:href="#DejaVuSans-43"/>
      <use xlink:href="#DejaVuSans-75" x="69.824219"/>
      <use xlink:href="#DejaVuSans-6d" x="133.203125"/>
      <use xlink:href="#DejaVuSans-75" x="230.615234"/>
      <use xlink:href="#DejaVuSans-6c" x="293.994141"/>
      <use xlink:href="#DejaVuSans-61" x="321.777344"/>
      <use xlink:href="#DejaVuSans-74" x="383.056641"/>
      <use xlink:href="#DejaVuSans-65" x="422.265625"/>
      <use xlink:href="#DejaVuSans-64" x="483.789062"/>
      <use xlink:href="#DejaVuSans-20" x="547.265625"/>
      <use xlink:href="#DejaVuSans-72" x="579.052734"/>
      <use xlink:href="#DejaVuSans-75" x="620.166016"/>
      <use xlink:href="#DejaVuSans-6e" x="683.544922"/>
      <use xlink:href="#DejaVuSans-74" x="746.923828"/>
      <use xlink:href="#DejaVuSans-69" x="786.132812"/>
      <use xlink:href="#DejaVuSans-6d" x="813.916016"/>
      <use xlink:href="#DejaVuSans-65" x="911.328125"/>
      <use xlink:href="#DejaVuSans-20" x="972.851562"/>
      <use xlink:href="#DejaVuSans-2f" x="1004.638672"/>
      <use xlink:href="#DejaVuSans-20" x="1038.330078"/>
      <use xlink:href="#DejaVuSans-73" x="1070.117188"/>
     </g>
    </g>
   </g>
   <g id="line2d_25">
    <path d="M 93.217585 393.301194 
L 97.367998 392.43314 
L 101.518412 391.344629 
L 105.668825 390.476576 
L 109.819238 389.622301 
L 113.969651 388.533789 
L 118.120065 387.665736 
L 122.270478 386.577225 
L 126.420891 385.488713 
L 130.571304 384.634438 
L 134.721717 383.752606 
L 138.872131 382.677874 
L 143.022544 381.80982 
L 147.172957 380.721309 
L 151.32337 379.853255 
L 155.473784 378.778523 
L 159.624197 377.910469 
L 163.77461 376.821958 
L 167.925023 375.953905 
L 172.075436 374.879172 
L 176.22585 373.99734 
L 180.376263 372.908828 
L 184.526676 372.040775 
L 188.677089 370.966042 
L 192.827503 370.097989 
L 196.977916 369.009477 
L 201.128329 368.141424 
L 205.278742 367.052913 
L 209.429155 366.198638 
L 213.579569 365.110126 
L 217.729982 364.255852 
L 221.880395 363.16734 
L 226.030808 362.078829 
L 230.181222 361.196997 
L 234.331635 360.108485 
L 238.482048 359.254211 
L 242.632461 358.165699 
L 246.782874 357.090966 
L 250.933288 356.222913 
L 255.083701 355.079287 
L 259.234114 354.059669 
L 263.384527 353.191616 
L 267.534941 352.103104 
L 271.685354 351.028371 
L 275.835767 350.160318 
L 279.98618 349.058028 
L 284.136593 348.203753 
L 288.287007 347.12902 
L 292.43742 346.23341 
L 296.587833 344.965776 
L 300.738246 344.001272 
L 304.88866 342.995433 
L 309.039073 341.962036 
L 313.189486 340.997532 
L 317.339899 339.950357 
L 321.490313 339.01341 
L 325.640726 337.952456 
L 329.791139 337.015509 
L 333.941552 335.899441 
L 338.091965 334.838487 
L 342.242379 333.873983 
L 346.392792 332.785471 
L 350.543205 331.807189 
L 354.693618 330.732456 
L 358.844032 329.754174 
L 362.994445 328.720777 
L 367.144858 327.618487 
L 371.295271 326.68154 
L 375.445684 325.593029 
L 379.596098 324.600968 
L 383.746511 323.553792 
L 387.896924 322.520396 
L 392.047337 321.514556 
L 396.197751 320.453602 
L 400.348164 319.475319 
L 404.498577 318.414365 
L 408.64899 317.36719 
L 412.799403 316.402686 
L 416.949817 315.300396 
L 421.10023 314.322114 
L 425.250643 313.233602 
L 429.401056 312.269098 
L 433.55147 311.125472 
L 437.701883 310.009404 
L 441.852296 309.031121 
L 446.002709 307.94261 
L 450.153122 306.881656 
L 454.303536 305.889595 
L 458.453949 304.814862 
L 462.604362 303.726351 
L 466.754775 302.624061 
L 470.905189 301.576885 
L 475.055602 300.543488 
L 479.206015 299.42742 
L 483.356428 298.449137 
L 487.506841 297.374404 
L 491.657255 296.285893 
L 495.807668 295.293832 
L 499.958081 294.205321 
L 504.108494 293.130588 
L 508.258908 292.124748 
L 512.409321 290.981122 
L 516.559734 289.906389 
L 520.710147 288.90055 
L 524.86056 287.784481 
L 529.010974 286.764863 
L 533.161387 285.635016 
L 537.3118 284.532726 
L 541.462213 283.513107 
" clip-path="url(#p7c9b160050)" style="fill: none; stroke-dasharray: 7.4,3.2; stroke-dashoffset: 0; stroke: #ff7f0e; stroke-width: 2"/>
   </g>
   <g id="line2d_26">
    <path d="M 93.217585 396.883636 
L 97.367998 396.015583 
L 101.518412 394.954629 
L 105.668825 394.155469 
L 109.819238 393.232301 
L 113.969651 392.254018 
L 118.120065 391.441079 
L 122.270478 390.407682 
L 126.420891 389.622301 
L 130.571304 388.72669 
L 134.721717 387.83108 
L 138.872131 387.018141 
L 143.022544 386.039858 
L 147.172957 385.309591 
L 151.32337 384.358866 
L 155.473784 383.601042 
L 159.624197 382.788103 
L 163.77461 381.80982 
L 167.925023 381.01066 
L 172.075436 379.977263 
L 176.22585 379.191881 
L 180.376263 378.323828 
L 184.526676 377.373103 
L 188.677089 376.560164 
L 192.827503 375.554324 
L 196.977916 374.741385 
L 201.128329 373.735546 
L 205.278742 372.922607 
L 209.429155 372.026996 
L 213.579569 371.076271 
L 217.729982 370.235775 
L 221.880395 369.257493 
L 226.030808 368.416996 
L 230.181222 367.397378 
L 234.331635 366.556882 
L 238.482048 365.5786 
L 242.632461 364.710546 
L 246.782874 363.704707 
L 250.933288 362.86421 
L 255.083701 361.858371 
L 259.234114 361.017875 
L 263.384527 360.122264 
L 267.534941 359.143982 
L 271.685354 358.303485 
L 275.835767 357.297646 
L 279.98618 356.443371 
L 284.136593 355.45131 
L 288.287007 354.597035 
L 292.43742 353.577417 
L 296.587833 352.736921 
L 300.738246 351.703524 
L 304.88866 350.835471 
L 309.039073 349.967417 
L 313.189486 349.085585 
L 317.339899 348.010852 
L 321.490313 347.142799 
L 325.640726 346.274746 
L 329.791139 345.406692 
L 333.941552 344.318181 
L 338.091965 343.450127 
L 342.242379 342.375395 
L 346.392792 341.714021 
L 350.543205 340.639288 
L 354.693618 339.771234 
L 358.844032 338.682723 
L 362.994445 337.81467 
L 367.144858 336.946616 
L 371.295271 336.078563 
L 375.445684 334.990051 
L 379.596098 334.121998 
L 383.746511 333.033487 
L 387.896924 332.179212 
L 392.047337 331.090701 
L 396.197751 330.222647 
L 400.348164 329.340815 
L 404.498577 328.279861 
L 408.64899 327.411808 
L 412.799403 326.543754 
L 416.949817 325.469021 
L 421.10023 324.587189 
L 425.250643 323.512457 
L 429.401056 322.644403 
L 433.55147 321.555892 
L 437.701883 320.687838 
L 441.852296 319.599327 
L 446.002709 318.731274 
L 450.153122 317.86322 
L 454.303536 316.774709 
L 458.453949 315.920434 
L 462.604362 314.831923 
L 466.754775 313.963869 
L 470.905189 312.875358 
L 475.055602 312.007304 
L 479.206015 310.932572 
L 483.356428 309.816503 
L 487.506841 308.962228 
L 491.657255 307.887495 
L 495.807668 307.019442 
L 499.958081 305.944709 
L 504.108494 305.076656 
L 508.258908 303.340549 
L 512.409321 302.183145 
L 516.559734 296.244557 
L 520.710147 290.967344 
L 524.86056 289.975283 
L 529.010974 288.997 
L 533.161387 287.991161 
L 537.3118 286.985321 
L 541.462213 286.007038 
L 545.612627 285.014977 
L 549.76304 284.009138 
" clip-path="url(#p7c9b160050)" style="fill: none; stroke: #ff7f0e; stroke-width: 2; stroke-linecap: square"/>
   </g>
   <g id="line2d_27">
    <path d="M 93.217585 385.02024 
L 97.367998 382.884553 
L 101.518412 380.638637 
L 105.668825 378.544286 
L 109.819238 376.174363 
L 113.969651 373.956004 
L 118.120065 371.737645 
L 122.270478 369.560622 
L 126.420891 367.452493 
L 130.571304 365.344363 
L 134.721717 363.112226 
L 138.872131 360.852531 
L 143.022544 358.647951 
L 147.172957 355.947341 
L 151.32337 353.15028 
L 155.473784 350.64257 
L 159.624197 348.217532 
L 163.77461 345.902723 
L 167.925023 343.381234 
L 172.075436 341.093982 
L 176.22585 338.944517 
L 180.376263 336.547036 
L 184.526676 334.397571 
L 188.677089 332.082762 
L 192.827503 329.836846 
L 196.977916 327.59093 
L 201.128329 325.4828 
L 205.278742 323.333334 
L 209.429155 321.087419 
L 213.579569 318.841503 
L 217.729982 316.540472 
L 221.880395 314.322114 
L 226.030808 312.04864 
L 230.181222 309.899175 
L 234.331635 307.694595 
L 238.482048 305.586465 
L 242.632461 303.257877 
L 246.782874 301.011961 
L 250.933288 298.807381 
L 255.083701 296.396122 
L 259.234114 294.163985 
L 263.384527 291.90429 
L 267.534941 289.685931 
L 271.685354 287.39868 
L 275.835767 285.125206 
L 279.98618 282.961962 
L 284.136593 280.57826 
L 288.287007 278.37368 
L 292.43742 276.017535 
L 296.587833 273.854291 
L 300.738246 271.470589 
L 304.88866 269.307345 
L 309.039073 266.923642 
L 313.189486 264.760398 
L 317.339899 262.362917 
L 321.490313 259.992994 
L 325.640726 257.609292 
L 329.791139 255.446048 
L 333.941552 253.048567 
L 338.091965 250.885323 
L 342.242379 248.50162 
L 346.392792 246.338376 
L 350.543205 243.954674 
L 354.693618 241.543415 
L 358.844032 239.393949 
L 362.994445 237.230705 
L 367.144858 234.750552 
L 371.295271 232.463301 
L 375.445684 230.079598 
L 379.596098 227.695896 
L 383.746511 225.532652 
L 387.896924 223.369408 
L 392.047337 220.985706 
L 396.197751 218.822461 
L 400.348164 216.438759 
L 404.498577 214.055057 
L 408.64899 211.891813 
L 412.799403 209.494332 
L 416.949817 207.331088 
L 421.10023 204.726928 
L 425.250643 202.563684 
L 429.401056 200.179981 
L 433.55147 197.782501 
L 437.701883 195.633035 
L 441.852296 193.249333 
L 446.002709 190.865631 
L 450.153122 188.454371 
L 454.303536 186.304906 
L 458.453949 183.921204 
L 462.604362 181.537501 
L 466.754775 179.374257 
L 470.905189 176.976776 
L 475.055602 174.593074 
L 479.206015 172.071586 
L 483.356428 169.72922 
L 487.506841 167.400632 
L 491.657255 165.044487 
L 495.807668 162.771014 
L 499.958081 160.332197 
L 504.108494 157.948495 
L 508.258908 155.619907 
L 512.409321 153.360213 
L 516.559734 150.935175 
L 520.710147 148.565251 
L 524.86056 146.37445 
L 529.010974 144.004526 
L 533.161387 141.607045 
L 537.3118 139.443801 
L 541.462213 137.253 
" clip-path="url(#p7c9b160050)" style="fill: none; stroke-dasharray: 7.4,3.2; stroke-dashoffset: 0; stroke: #d62728; stroke-width: 2"/>
   </g>
   <g id="line2d_28">
    <path d="M 93.217585 394.059018 
L 97.367998 392.543369 
L 101.518412 390.559247 
L 105.668825 389.057377 
L 109.819238 387.307492 
L 113.969651 385.791843 
L 118.120065 383.835278 
L 122.270478 382.305851 
L 126.420891 380.569744 
L 130.571304 379.054095 
L 134.721717 377.30421 
L 138.872131 375.761004 
L 143.022544 374.038676 
L 147.172957 372.509248 
L 151.32337 370.979821 
L 155.473784 369.243714 
L 159.624197 367.714287 
L 163.77461 365.964401 
L 167.925023 364.228294 
L 172.075436 362.67131 
L 176.22585 360.96276 
L 180.376263 359.212875 
L 184.526676 357.476768 
L 188.677089 355.726883 
L 192.827503 354.211234 
L 196.977916 352.254669 
L 201.128329 350.697684 
L 205.278742 348.989135 
L 209.429155 347.253028 
L 213.579569 345.503143 
L 217.729982 343.767036 
L 221.880395 342.237608 
L 226.030808 340.281044 
L 230.181222 338.751616 
L 234.331635 337.015509 
L 238.482048 335.279403 
L 242.632461 333.529517 
L 246.782874 331.79341 
L 250.933288 330.263983 
L 255.083701 328.29364 
L 259.234114 326.764212 
L 263.384527 325.041884 
L 267.534941 323.291999 
L 271.685354 321.555892 
L 275.835767 319.806006 
L 279.98618 318.056121 
L 284.136593 316.320014 
L 288.287007 314.570129 
L 292.43742 312.834022 
L 296.587833 311.097915 
L 300.738246 309.34803 
L 304.88866 307.611923 
L 309.039073 305.875816 
L 313.189486 303.257877 
L 317.339899 301.287534 
L 321.490313 298.972725 
L 325.640726 296.933488 
L 329.791139 294.963145 
L 333.941552 292.662115 
L 338.091965 290.788221 
L 342.242379 288.556084 
L 346.392792 286.654634 
L 350.543205 284.698069 
L 354.693618 282.741504 
L 358.844032 280.97784 
L 362.994445 279.007497 
L 367.144858 277.285169 
L 371.295271 275.549062 
L 375.445684 273.592497 
L 379.596098 272.06307 
L 383.746511 270.106505 
L 387.896924 268.356619 
L 392.047337 266.64807 
L 396.197751 264.884406 
L 400.348164 263.354978 
L 404.498577 261.398414 
L 408.64899 259.662307 
L 412.799403 258.132879 
L 416.949817 256.382994 
L 421.10023 254.633109 
L 425.250643 252.897002 
L 429.401056 250.926658 
L 433.55147 249.397231 
L 437.701883 247.440666 
L 441.852296 245.704559 
L 446.002709 244.175132 
L 450.153122 242.218567 
L 454.303536 240.68914 
L 458.453949 238.718796 
L 462.604362 236.98269 
L 466.754775 235.453262 
L 470.905189 233.496697 
L 475.055602 231.760591 
L 479.206015 230.010705 
L 483.356428 228.067919 
L 487.506841 226.538492 
L 491.657255 224.581927 
L 495.807668 222.804484 
L 499.958081 221.095935 
L 504.108494 219.13937 
L 508.258908 217.389484 
L 512.409321 215.653378 
L 516.559734 213.917271 
L 520.710147 211.974485 
L 524.86056 210.224599 
L 529.010974 208.488492 
L 533.161387 206.531928 
L 537.3118 204.782042 
L 541.462213 203.045936 
L 545.612627 201.309829 
L 549.76304 199.559943 
" clip-path="url(#p7c9b160050)" style="fill: none; stroke: #d62728; stroke-width: 2; stroke-linecap: square"/>
   </g>
   <g id="line2d_29">
    <path d="M 93.217585 383.463255 
L 97.367998 381.71337 
L 101.518412 375.843676 
L 105.668825 374.576042 
L 109.819238 373.225737 
L 113.969651 372.137225 
L 118.120065 370.607798 
L 122.270478 369.450393 
L 126.420891 368.18276 
L 130.571304 366.860012 
L 134.721717 365.537264 
L 138.872131 364.242073 
L 143.022544 363.139783 
L 147.172957 361.830814 
L 151.32337 360.728524 
L 155.473784 359.419554 
L 159.624197 358.096806 
L 163.77461 356.898066 
L 167.925023 355.630432 
L 172.075436 354.459249 
L 176.22585 353.122722 
L 180.376263 352.034211 
L 184.526676 350.73902 
L 188.677089 349.63673 
L 192.827503 348.341539 
L 196.977916 347.03257 
L 201.128329 345.709822 
L 205.278742 344.635089 
L 209.429155 343.32612 
L 213.579569 342.237608 
L 217.729982 340.928639 
L 221.880395 339.853906 
L 226.030808 338.51738 
L 230.181222 337.235967 
L 234.331635 336.147456 
L 238.482048 335.058945 
L 242.632461 333.749975 
L 246.782874 332.661464 
L 250.933288 331.352494 
L 255.083701 330.043525 
L 259.234114 328.955014 
L 263.384527 327.632266 
L 267.534941 326.557533 
L 271.685354 325.248563 
L 275.835767 323.719136 
L 279.98618 322.203487 
L 284.136593 320.880739 
L 288.287007 319.378869 
L 292.43742 318.290358 
L 296.587833 316.76093 
L 300.738246 315.65864 
L 304.88866 314.363449 
L 309.039073 313.05448 
L 313.189486 311.731732 
L 317.339899 310.436541 
L 321.490313 309.306694 
L 325.640726 308.025282 
L 329.791139 306.950549 
L 333.941552 305.627801 
L 338.091965 304.53929 
L 342.242379 303.23032 
L 346.392792 301.935129 
L 350.543205 300.819061 
L 354.693618 299.537649 
L 358.844032 298.449137 
L 362.994445 297.360626 
L 367.144858 296.051656 
L 371.295271 294.976924 
L 375.445684 293.667954 
L 379.596098 292.579443 
L 383.746511 291.256695 
L 387.896924 290.168183 
L 392.047337 288.859214 
L 396.197751 287.770703 
L 400.348164 286.461733 
L 404.498577 285.138985 
L 408.64899 284.009138 
L 412.799403 282.755283 
L 416.949817 281.446314 
L 421.10023 280.357802 
L 425.250643 279.035054 
L 429.401056 277.960321 
L 433.55147 276.651352 
L 437.701883 275.549062 
L 441.852296 274.226314 
L 446.002709 273.151581 
L 450.153122 271.842612 
L 454.303536 270.533642 
L 458.453949 269.445131 
L 462.604362 268.14994 
L 466.754775 266.840971 
L 470.905189 265.752459 
L 475.055602 264.415933 
L 479.206015 263.13452 
L 483.356428 262.046009 
L 487.506841 260.73704 
L 491.657255 259.441849 
L 495.807668 258.132879 
L 499.958081 257.030589 
L 504.108494 255.72162 
L 508.258908 254.426429 
L 512.409321 253.337918 
L 516.559734 252.028948 
L 520.710147 250.733758 
L 524.86056 249.424788 
L 529.010974 248.115819 
L 533.161387 247.027307 
L 537.3118 245.718338 
L 541.462213 244.409369 
" clip-path="url(#p7c9b160050)" style="fill: none; stroke-dasharray: 7.4,3.2; stroke-dashoffset: 0; stroke: #17becf; stroke-width: 2"/>
   </g>
   <g id="line2d_30">
    <path d="M 93.217585 396.470278 
L 97.367998 395.602224 
L 101.518412 394.513713 
L 105.668825 393.618102 
L 109.819238 392.543369 
L 113.969651 391.454858 
L 118.120065 390.586805 
L 122.270478 389.484515 
L 126.420891 388.616461 
L 130.571304 387.52795 
L 134.721717 386.411881 
L 138.872131 385.557606 
L 143.022544 384.469095 
L 147.172957 383.601042 
L 151.32337 382.51253 
L 155.473784 381.644477 
L 159.624197 380.555965 
L 163.77461 379.674133 
L 167.925023 378.792301 
L 172.075436 377.717569 
L 176.22585 376.629057 
L 180.376263 375.540546 
L 184.526676 374.672492 
L 188.677089 373.583981 
L 192.827503 372.715928 
L 196.977916 371.39318 
L 201.128329 370.525126 
L 205.278742 369.436615 
L 209.429155 368.568561 
L 213.579569 367.48005 
L 217.729982 366.391539 
L 221.880395 365.509707 
L 226.030808 364.186959 
L 230.181222 363.332684 
L 234.331635 362.244172 
L 238.482048 361.376119 
L 242.632461 360.301386 
L 246.782874 359.212875 
L 250.933288 358.041692 
L 255.083701 357.022073 
L 259.234114 355.933562 
L 263.384527 355.065509 
L 267.534941 353.756539 
L 271.685354 352.888486 
L 275.835767 351.786196 
L 279.98618 350.683906 
L 284.136593 349.609173 
L 288.287007 348.74112 
L 292.43742 347.43215 
L 296.587833 346.564097 
L 300.738246 345.448028 
L 304.88866 344.387074 
L 309.039073 343.284784 
L 313.189486 342.416731 
L 317.339899 341.12154 
L 321.490313 340.239708 
L 325.640726 339.151196 
L 329.791139 338.062685 
L 333.941552 336.974174 
L 338.091965 335.885662 
L 342.242379 334.797151 
L 346.392792 333.708639 
L 350.543205 332.620128 
L 354.693618 331.531617 
L 358.844032 330.429326 
L 362.994445 329.340815 
L 367.144858 328.252304 
L 371.295271 327.163792 
L 375.445684 326.075281 
L 379.596098 324.986769 
L 383.746511 324.118716 
L 387.896924 322.809747 
L 392.047337 321.941693 
L 396.197751 320.632724 
L 400.348164 319.750892 
L 404.498577 318.676159 
L 408.64899 317.573869 
L 412.799403 316.4578 
L 416.949817 315.396846 
L 421.10023 314.322114 
L 425.250643 313.233602 
L 429.401056 312.145091 
L 433.55147 311.056579 
L 437.701883 309.968068 
L 441.852296 308.865778 
L 446.002709 307.763488 
L 450.153122 306.702534 
L 454.303536 305.600244 
L 458.453949 304.511732 
L 462.604362 303.423221 
L 466.754775 302.169366 
L 470.905189 301.02574 
L 475.055602 300.157687 
L 479.206015 299.069175 
L 483.356428 297.760206 
L 487.506841 296.892152 
L 491.657255 295.583183 
L 495.807668 294.71513 
L 499.958081 293.40616 
L 504.108494 292.538107 
L 508.258908 291.229137 
L 512.409321 290.09929 
L 516.559734 289.052115 
L 520.710147 287.949825 
L 524.86056 286.847535 
L 529.010974 285.772802 
L 533.161387 284.68429 
L 537.3118 283.582 
L 541.462213 282.273031 
L 545.612627 281.170741 
L 549.76304 280.08223 
" clip-path="url(#p7c9b160050)" style="fill: none; stroke: #17becf; stroke-width: 2; stroke-linecap: square"/>
   </g>
   <g id="line2d_31">
    <path d="M 93.217585 381.768484 
L 97.367998 378.943866 
L 101.518412 376.091691 
L 105.668825 373.721767 
L 109.819238 370.442454 
L 113.969651 368.044974 
L 118.120065 365.440813 
L 122.270478 362.602417 
L 126.420891 359.805356 
L 130.571304 357.173638 
L 134.721717 354.555699 
L 138.872131 351.951539 
L 143.022544 349.3336 
L 147.172957 346.715662 
L 151.32337 344.331959 
L 155.473784 341.714021 
L 159.624197 338.875624 
L 163.77461 336.478143 
L 167.925023 333.846426 
L 172.075436 331.256044 
L 176.22585 328.638105 
L 180.376263 326.006388 
L 184.526676 323.402228 
L 188.677089 321.004747 
L 192.827503 318.400587 
L 196.977916 315.782648 
L 201.128329 313.164709 
L 205.278742 310.54677 
L 209.429155 307.94261 
L 213.579569 305.324671 
L 217.729982 302.706732 
L 221.880395 300.075015 
L 226.030808 297.691313 
L 230.181222 294.866695 
L 234.331635 292.441657 
L 238.482048 289.865054 
L 242.632461 287.040435 
L 246.782874 284.615397 
L 250.933288 282.025016 
L 255.083701 279.407077 
L 259.234114 277.009596 
L 263.384527 274.391657 
L 267.534941 271.567039 
L 271.685354 269.114444 
L 275.835767 266.55162 
L 279.98618 263.933681 
L 284.136593 261.329521 
L 288.287007 258.918261 
L 292.43742 255.873185 
L 296.587833 253.269025 
L 300.738246 250.430628 
L 304.88866 247.578453 
L 309.039073 245.19475 
L 313.189486 242.604369 
L 317.339899 239.98643 
L 321.490313 237.354713 
L 325.640726 234.984789 
L 329.791139 232.146392 
L 333.941552 229.542232 
L 338.091965 227.117194 
L 342.242379 224.306354 
L 346.392792 221.702194 
L 350.543205 219.277156 
L 354.693618 216.480095 
L 358.844032 213.862156 
L 362.994445 211.464676 
L 367.144858 208.846737 
L 371.295271 206.242577 
L 375.445684 203.624638 
L 379.596098 200.979142 
L 383.746511 198.402539 
L 387.896924 195.798379 
L 392.047337 193.400898 
L 396.197751 190.57628 
L 400.348164 188.178799 
L 404.498577 184.913265 
L 408.64899 177.514143 
L 412.799403 174.896204 
L 416.949817 167.593533 
L 421.10023 165.030708 
L 425.250643 162.481663 
L 429.401056 159.877502 
L 433.55147 157.314678 
L 437.701883 154.779411 
L 441.852296 152.244144 
L 446.002709 149.667541 
L 450.153122 147.090938 
L 454.303536 144.431663 
L 458.453949 141.868839 
L 462.604362 139.306015 
L 466.754775 136.729412 
L 470.905189 134.166588 
L 475.055602 131.603763 
L 479.206015 129.054718 
L 483.356428 126.491893 
L 487.506841 123.942848 
L 491.657255 121.352466 
L 495.807668 118.789642 
L 499.958081 116.130367 
L 504.108494 113.539985 
L 508.258908 110.949604 
L 512.409321 108.331665 
L 516.559734 105.644833 
L 520.710147 102.97178 
L 524.86056 100.298727 
L 529.010974 97.625673 
L 533.161387 94.911284 
L 537.3118 92.224452 
L 541.462213 89.413613 
" clip-path="url(#p7c9b160050)" style="fill: none; stroke-dasharray: 7.4,3.2; stroke-dashoffset: 0; stroke: #7f7f7f; stroke-width: 2"/>
   </g>
   <g id="line2d_32">
    <path d="M 93.217585 393.824782 
L 97.367998 392.088675 
L 101.518412 390.242339 
L 105.668825 388.657797 
L 109.819238 386.715011 
L 113.969651 384.758446 
L 118.120065 383.036118 
L 122.270478 381.300011 
L 126.420891 379.563904 
L 130.571304 377.60734 
L 134.721717 375.885011 
L 138.872131 374.135126 
L 143.022544 372.399019 
L 147.172957 370.88337 
L 151.32337 368.940584 
L 155.473784 367.424935 
L 159.624197 365.468371 
L 163.77461 363.732264 
L 167.925023 361.9686 
L 172.075436 360.039592 
L 176.22585 358.303485 
L 180.376263 356.360699 
L 184.526676 354.624593 
L 188.677089 352.681806 
L 192.827503 350.9457 
L 196.977916 349.002913 
L 201.128329 347.018791 
L 205.278742 345.310242 
L 209.429155 343.353677 
L 213.579569 341.631349 
L 217.729982 339.674784 
L 221.880395 337.938677 
L 226.030808 335.982112 
L 230.181222 334.246006 
L 234.331635 332.289441 
L 238.482048 330.346655 
L 242.632461 328.403869 
L 246.782874 326.667762 
L 250.933288 324.724976 
L 255.083701 322.754632 
L 259.234114 320.825625 
L 263.384527 318.86906 
L 267.534941 317.146732 
L 271.685354 315.190167 
L 275.835767 313.233602 
L 279.98618 311.290816 
L 284.136593 309.334251 
L 288.287007 307.611923 
L 292.43742 305.448679 
L 296.587833 303.492114 
L 300.738246 301.769786 
L 304.88866 299.813221 
L 309.039073 297.870435 
L 313.189486 295.927649 
L 317.339899 293.750626 
L 321.490313 291.587382 
L 325.640726 289.60326 
L 329.791139 287.481351 
L 333.941552 285.469672 
L 338.091965 283.430436 
L 342.242379 281.501428 
L 346.392792 279.338184 
L 350.543205 276.77536 
L 354.693618 274.818795 
L 358.844032 272.655551 
L 362.994445 270.492306 
L 367.144858 268.535742 
L 371.295271 266.152039 
L 375.445684 263.988795 
L 379.596098 262.03223 
L 383.746511 259.868986 
L 387.896924 257.912421 
L 392.047337 255.955857 
L 396.197751 253.792613 
L 400.348164 251.601811 
L 404.498577 249.645246 
L 408.64899 247.482002 
L 412.799403 245.525437 
L 416.949817 243.568873 
L 421.10023 241.405628 
L 425.250643 239.462842 
L 429.401056 237.285819 
L 433.55147 235.122575 
L 437.701883 233.179789 
L 441.852296 231.002766 
L 446.002709 229.05998 
L 450.153122 226.896736 
L 454.303536 224.926392 
L 458.453949 222.763148 
L 462.604362 220.820362 
L 466.754775 218.863797 
L 470.905189 216.700553 
L 475.055602 214.964446 
L 479.206015 212.71853 
L 483.356428 210.679294 
L 487.506841 208.722729 
L 491.657255 206.628378 
L 495.807668 204.589142 
L 499.958081 202.632577 
L 504.108494 200.607119 
L 508.258908 198.540325 
L 512.409321 196.625096 
L 516.559734 194.503188 
L 520.710147 192.38128 
L 524.86056 190.424715 
L 529.010974 188.385478 
L 533.161387 186.318684 
L 537.3118 184.334562 
L 541.462213 182.15754 
L 545.612627 180.008074 
L 549.76304 177.996395 
" clip-path="url(#p7c9b160050)" style="fill: none; stroke: #7f7f7f; stroke-width: 2; stroke-linecap: square"/>
   </g>
   <g id="line2d_33">
    <path d="M 93.217585 390.021881 
L 97.367998 388.313331 
L 101.518412 386.797683 
L 105.668825 385.240698 
L 109.819238 383.31169 
L 113.969651 382.0165 
L 118.120065 380.500851 
L 122.270478 378.750965 
L 126.420891 377.221538 
L 130.571304 375.705889 
L 134.721717 373.887111 
L 138.872131 372.426576 
L 143.022544 370.924706 
L 147.172957 369.202378 
L 151.32337 367.893409 
L 155.473784 366.37776 
L 159.624197 364.641653 
L 163.77461 363.346462 
L 167.925023 361.596577 
L 172.075436 360.080928 
L 176.22585 358.441272 
L 180.376263 356.567379 
L 184.526676 355.093066 
L 188.677089 353.632532 
L 192.827503 352.034211 
L 196.977916 350.573677 
L 201.128329 348.975356 
L 205.278742 347.542379 
L 209.429155 346.123181 
L 213.579569 344.483524 
L 217.729982 343.064326 
L 221.880395 341.61757 
L 226.030808 340.060586 
L 230.181222 338.668944 
L 234.331635 337.11196 
L 238.482048 335.678983 
L 242.632461 334.246006 
L 246.782874 332.675242 
L 250.933288 331.242265 
L 255.083701 329.643945 
L 259.234114 328.238525 
L 263.384527 326.791769 
L 267.534941 325.165892 
L 271.685354 323.705357 
L 275.835767 322.134594 
L 279.98618 320.646503 
L 284.136593 319.185968 
L 288.287007 317.546312 
L 292.43742 316.099556 
L 296.587833 314.487457 
L 300.738246 313.013144 
L 304.88866 311.55261 
L 309.039073 309.84406 
L 313.189486 308.383526 
L 317.339899 306.757648 
L 321.490313 305.324671 
L 325.640726 303.83658 
L 329.791139 302.155587 
L 333.941552 300.708832 
L 338.091965 299.110511 
L 342.242379 297.636198 
L 346.392792 296.148107 
L 350.543205 294.467114 
L 354.693618 292.896351 
L 358.844032 291.298031 
L 362.994445 289.865054 
L 367.144858 288.376962 
L 371.295271 286.806199 
L 375.445684 285.345664 
L 379.596098 283.719787 
L 383.746511 282.231695 
L 387.896924 280.647153 
L 392.047337 279.159062 
L 396.197751 277.684749 
L 400.348164 276.058871 
L 404.498577 274.598337 
L 408.64899 273.000016 
L 412.799403 271.580818 
L 416.949817 270.010055 
L 421.10023 268.494406 
L 425.250643 267.020093 
L 429.401056 265.352879 
L 433.55147 263.83723 
L 437.701883 262.23891 
L 441.852296 260.750818 
L 446.002709 259.180055 
L 450.153122 257.705742 
L 454.303536 256.245208 
L 458.453949 254.412651 
L 462.604362 252.786773 
L 466.754775 251.023109 
L 470.905189 249.548796 
L 475.055602 247.950475 
L 479.206015 246.489941 
L 483.356428 245.029407 
L 487.506841 243.431086 
L 491.657255 241.970552 
L 495.807668 240.399789 
L 499.958081 238.911697 
L 504.108494 237.354713 
L 508.258908 235.894178 
L 512.409321 234.337194 
L 516.559734 232.876659 
L 520.710147 231.347232 
L 524.86056 229.886698 
L 529.010974 228.467499 
L 533.161387 226.786507 
L 537.3118 225.298415 
L 541.462213 223.741431 
" clip-path="url(#p7c9b160050)" style="fill: none; stroke-dasharray: 7.4,3.2; stroke-dashoffset: 0; stroke: #1f77b4; stroke-width: 2"/>
   </g>
   <g id="line2d_34">
    <path d="M 93.217585 395.905354 
L 97.367998 394.623942 
L 101.518412 393.314972 
L 105.668825 391.992224 
L 109.819238 390.848598 
L 113.969651 389.539629 
L 118.120065 388.02398 
L 122.270478 386.935469 
L 126.420891 385.626499 
L 130.571304 384.386423 
L 134.721717 383.008561 
L 138.872131 381.975164 
L 143.022544 380.748866 
L 147.172957 379.315889 
L 151.32337 378.310049 
L 155.473784 377.193981 
L 159.624197 375.885011 
L 163.77461 374.479592 
L 167.925023 373.404859 
L 172.075436 372.095889 
L 176.22585 370.580241 
L 180.376263 369.519286 
L 184.526676 368.292989 
L 188.677089 366.984019 
L 192.827503 365.647493 
L 196.977916 364.490088 
L 201.128329 363.208676 
L 205.278742 361.734363 
L 209.429155 360.618295 
L 213.579569 359.267989 
L 217.729982 357.738562 
L 221.880395 356.622493 
L 226.030808 355.35486 
L 230.181222 353.85299 
L 234.331635 352.736921 
L 238.482048 351.483066 
L 242.632461 349.967417 
L 246.782874 348.865127 
L 250.933288 347.597494 
L 255.083701 346.012952 
L 259.234114 344.896883 
L 263.384527 343.684364 
L 267.534941 342.127379 
L 271.685354 341.011311 
L 275.835767 339.81257 
L 279.98618 338.296922 
L 284.136593 337.194632 
L 288.287007 335.995891 
L 292.43742 334.659364 
L 296.587833 333.295281 
L 300.738246 332.055204 
L 304.88866 330.456884 
L 309.039073 329.340815 
L 313.189486 328.142075 
L 317.339899 326.598869 
L 321.490313 325.4828 
L 325.640726 324.28406 
L 329.791139 322.768411 
L 333.941552 321.652342 
L 338.091965 320.357151 
L 342.242379 318.896617 
L 346.392792 317.780548 
L 350.543205 316.499136 
L 354.693618 315.190167 
L 358.844032 313.881197 
L 362.994445 312.586007 
L 367.144858 311.277037 
L 371.295271 310.188526 
L 375.445684 308.43864 
L 379.596098 307.350129 
L 383.746511 306.04116 
L 387.896924 304.484175 
L 392.047337 303.202763 
L 396.197751 301.893793 
L 400.348164 300.378145 
L 404.498577 299.275855 
L 408.64899 297.966885 
L 412.799403 296.671694 
L 416.949817 295.362725 
L 421.10023 293.833298 
L 425.250643 292.538107 
L 429.401056 291.380702 
L 433.55147 289.920168 
L 437.701883 288.583641 
L 441.852296 287.233336 
L 446.002709 285.841695 
L 450.153122 284.615397 
L 454.303536 283.072191 
L 458.453949 281.928565 
L 462.604362 280.619596 
L 466.754775 279.159062 
L 470.905189 277.932764 
L 475.055602 276.430894 
L 479.206015 275.342383 
L 483.356428 274.047192 
L 487.506841 272.517764 
L 491.657255 271.429253 
L 495.807668 269.913604 
L 499.958081 268.590856 
L 504.108494 267.309444 
L 508.258908 265.793795 
L 512.409321 264.484826 
L 516.559734 262.969177 
L 520.710147 261.880666 
L 524.86056 260.571696 
L 529.010974 259.056047 
L 533.161387 257.967536 
L 537.3118 256.231429 
L 541.462213 255.142918 
L 545.612627 253.847727 
L 549.76304 252.3183 
" clip-path="url(#p7c9b160050)" style="fill: none; stroke: #1f77b4; stroke-width: 2; stroke-linecap: square"/>
   </g>
   <g id="line2d_35">
    <path d="M 93.217585 377.758904 
L 97.367998 374.245355 
L 101.518412 369.849974 
L 105.668825 366.336424 
L 109.819238 362.822875 
L 113.969651 359.571119 
L 118.120065 356.085127 
L 122.270478 353.040051 
L 126.420891 349.760738 
L 130.571304 346.288524 
L 134.721717 342.168715 
L 138.872131 338.91696 
L 143.022544 335.210509 
L 147.172957 332.165433 
L 151.32337 328.665662 
L 155.473784 325.606808 
L 159.624197 321.707457 
L 163.77461 318.66238 
L 167.925023 309.954289 
L 172.075436 306.482076 
L 176.22585 299.096733 
L 180.376263 296.051656 
L 184.526676 293.020359 
L 188.677089 289.975283 
L 192.827503 286.916428 
L 196.977916 283.871352 
L 201.128329 280.853833 
L 205.278742 277.794978 
L 209.429155 274.76368 
L 213.579569 271.718604 
L 217.729982 268.673528 
L 221.880395 265.64223 
L 226.030808 262.597154 
L 230.181222 259.565857 
L 234.331635 256.52078 
L 238.482048 253.475704 
L 242.632461 250.430628 
L 246.782874 247.371773 
L 250.933288 244.354254 
L 255.083701 241.309178 
L 259.234114 238.27788 
L 263.384527 235.232804 
L 267.534941 232.201507 
L 271.685354 228.935972 
L 275.835767 225.904675 
L 279.98618 222.859599 
L 284.136593 219.814523 
L 288.287007 216.769446 
L 292.43742 213.738149 
L 296.587833 210.679294 
L 300.738246 207.661775 
L 304.88866 204.616699 
L 309.039073 201.585401 
L 313.189486 198.319867 
L 317.339899 195.288569 
L 321.490313 192.257272 
L 325.640726 189.212196 
L 329.791139 186.180898 
L 333.941552 183.135822 
L 338.091965 180.104524 
L 342.242379 176.83899 
L 346.392792 173.780135 
L 350.543205 170.748838 
L 354.693618 167.703762 
L 358.844032 164.672464 
L 362.994445 161.40693 
L 367.144858 158.361854 
L 371.295271 155.316777 
L 375.445684 152.28548 
L 379.596098 149.226625 
L 383.746511 145.961091 
L 387.896924 142.475099 
L 392.047337 139.402465 
L 396.197751 136.288496 
L 400.348164 133.202084 
L 404.498577 130.12945 
L 408.64899 127.043038 
L 412.799403 123.956626 
L 416.949817 120.842657 
L 421.10023 117.673573 
L 425.250643 114.614718 
L 429.401056 111.48697 
L 433.55147 108.400558 
L 437.701883 105.300368 
L 441.852296 102.227734 
L 446.002709 99.113765 
L 450.153122 96.013574 
L 454.303536 92.899605 
L 458.453949 89.854529 
L 462.604362 86.588994 
L 466.754775 83.543918 
L 470.905189 80.498842 
L 475.055602 77.219529 
L 479.206015 74.160674 
L 483.356428 70.922697 
L 487.506841 67.450484 
L 491.657255 64.419186 
L 495.807668 61.153652 
L 499.958081 58.012125 
L 504.108494 54.870599 
L 508.258908 51.825523 
L 512.409321 48.559989 
L 516.559734 45.528691 
L 520.710147 42.111592 
L 524.86056 38.846058 
L 529.010974 35.525409 
L 533.161387 32.259875 
L 537.3118 29.008119 
L 541.462213 25.756364 
" clip-path="url(#p7c9b160050)" style="fill: none; stroke-dasharray: 7.4,3.2; stroke-dashoffset: 0; stroke: #2ca02c; stroke-width: 2"/>
   </g>
   <g id="line2d_36">
    <path d="M 93.217585 392.777606 
L 97.367998 390.573026 
L 101.518412 388.533789 
L 105.668825 386.384324 
L 109.819238 384.234858 
L 113.969651 382.071614 
L 118.120065 380.032378 
L 122.270478 377.910469 
L 126.420891 375.89879 
L 130.571304 373.776882 
L 134.721717 371.710088 
L 138.872131 369.712187 
L 143.022544 367.672951 
L 147.172957 365.743943 
L 151.32337 363.87005 
L 155.473784 361.913485 
L 159.624197 359.750241 
L 163.77461 357.573218 
L 167.925023 355.396196 
L 172.075436 353.439631 
L 176.22585 351.276387 
L 180.376263 349.099364 
L 184.526676 346.93612 
L 188.677089 344.759097 
L 192.827503 342.802532 
L 196.977916 340.639288 
L 201.128329 338.476044 
L 205.278742 336.299021 
L 209.429155 334.135777 
L 213.579569 331.958754 
L 217.729982 329.79551 
L 221.880395 327.618487 
L 226.030808 325.455243 
L 230.181222 323.071541 
L 234.331635 320.894518 
L 238.482048 318.731274 
L 242.632461 316.554251 
L 246.782874 314.391007 
L 250.933288 312.04864 
L 255.083701 309.871618 
L 259.234114 307.667037 
L 263.384527 305.379786 
L 267.534941 303.216542 
L 271.685354 300.901732 
L 275.835767 298.72471 
L 279.98618 296.437458 
L 284.136593 294.232878 
L 288.287007 291.959405 
L 292.43742 289.672153 
L 296.587833 287.467573 
L 300.738246 285.166542 
L 304.88866 282.961962 
L 309.039073 280.619596 
L 313.189486 278.304787 
L 317.339899 276.100207 
L 321.490313 273.688947 
L 325.640726 271.429253 
L 329.791139 269.073108 
L 333.941552 266.840971 
L 338.091965 264.53994 
L 342.242379 262.170017 
L 346.392792 259.924101 
L 350.543205 257.554177 
L 354.693618 255.349597 
L 358.844032 253.007231 
L 362.994445 250.747536 
L 367.144858 248.363834 
L 371.295271 245.966353 
L 375.445684 243.720437 
L 379.596098 241.378071 
L 383.746511 239.145934 
L 387.896924 236.803568 
L 392.047337 234.254522 
L 396.197751 231.829484 
L 400.348164 229.225324 
L 404.498577 226.717614 
L 408.64899 224.457919 
L 412.799403 222.032881 
L 416.949817 219.759408 
L 421.10023 217.306813 
L 425.250643 214.923111 
L 429.401056 212.663416 
L 433.55147 210.293492 
L 437.701883 208.033798 
L 441.852296 205.70521 
L 446.002709 203.362844 
L 450.153122 201.116928 
L 454.303536 198.774562 
L 458.453949 196.501088 
L 462.604362 194.131165 
L 466.754775 191.77502 
L 470.905189 189.487768 
L 475.055602 187.06273 
L 479.206015 184.816814 
L 483.356428 182.446891 
L 487.506841 180.035631 
L 491.657255 177.720822 
L 495.807668 175.33712 
L 499.958081 172.967196 
L 504.108494 170.666166 
L 508.258908 168.282464 
L 512.409321 166.022769 
L 516.559734 163.625288 
L 520.710147 161.186472 
L 524.86056 158.912999 
L 529.010974 156.543075 
L 533.161387 154.214487 
L 537.3118 151.98235 
L 541.462213 149.598648 
L 545.612627 147.394068 
L 549.76304 145.024144 
" clip-path="url(#p7c9b160050)" style="fill: none; stroke: #2ca02c; stroke-width: 2; stroke-linecap: square"/>
   </g>
   <g id="patch_3">
    <path d="M 70.390313 415.44 
L 70.390313 7.2 
" style="fill: none; stroke: #000000; stroke-width: 0.8; stroke-linejoin: miter; stroke-linecap: square"/>
   </g>
   <g id="patch_4">
    <path d="M 572.590313 415.44 
L 572.590313 7.2 
" style="fill: none; stroke: #000000; stroke-width: 0.8; stroke-linejoin: miter; stroke-linecap: square"/>
   </g>
   <g id="patch_5">
    <path d="M 70.390313 415.44 
L 572.590313 415.44 
" style="fill: none; stroke: #000000; stroke-width: 0.8; stroke-linejoin: miter; stroke-linecap: square"/>
   </g>
   <g id="patch_6">
    <path d="M 70.390313 7.2 
L 572.590313 7.2 
" style="fill: none; stroke: #000000; stroke-width: 0.8; stroke-linejoin: miter; stroke-linecap: square"/>
   </g>
   <g id="legend_1">
    <g id="patch_7">
     <path d="M 12.690313 699.076 
L 630.290313 699.076 
Q 634.290313 699.076 634.290313 695.076 
L 634.290313 490.676 
Q 634.290313 486.676 630.290313 486.676 
L 12.690313 486.676 
Q 8.690313 486.676 8.690313 490.676 
L 8.690313 695.076 
Q 8.690313 699.076 12.690313 699.076 
z
" style="fill: #ffffff; stroke: #cccccc; stroke-linejoin: miter"/>
    </g>
    <g id="line2d_37">
     <path d="M 16.690313 506.276 
L 36.690313 506.276 
L 56.690313 506.276 
" style="fill: none; stroke-dasharray: 7.4,3.2; stroke-dashoffset: 0; stroke: #ff7f0e; stroke-width: 2"/>
    </g>
    <g id="text_15">
     <!-- DG-Julia, $N_e^b$ = 2, $N_d^b$=4 -->
     <g transform="translate(72.690313 513.276) scale(0.2 -0.2)">
      <defs>
       <path id="DejaVuSans-44" d="M 1259 4147 
L 1259 519 
L 2022 519 
Q 2988 519 3436 956 
Q 3884 1394 3884 2338 
Q 3884 3275 3436 3711 
Q 2988 4147 2022 4147 
L 1259 4147 
z
M 628 4666 
L 1925 4666 
Q 3281 4666 3915 4102 
Q 4550 3538 4550 2338 
Q 4550 1131 3912 565 
Q 3275 0 1925 0 
L 628 0 
L 628 4666 
z
" transform="scale(0.015625)"/>
       <path id="DejaVuSans-47" d="M 3809 666 
L 3809 1919 
L 2778 1919 
L 2778 2438 
L 4434 2438 
L 4434 434 
Q 4069 175 3628 42 
Q 3188 -91 2688 -91 
Q 1594 -91 976 548 
Q 359 1188 359 2328 
Q 359 3472 976 4111 
Q 1594 4750 2688 4750 
Q 3144 4750 3555 4637 
Q 3966 4525 4313 4306 
L 4313 3634 
Q 3963 3931 3569 4081 
Q 3175 4231 2741 4231 
Q 1884 4231 1454 3753 
Q 1025 3275 1025 2328 
Q 1025 1384 1454 906 
Q 1884 428 2741 428 
Q 3075 428 3337 486 
Q 3600 544 3809 666 
z
" transform="scale(0.015625)"/>
       <path id="DejaVuSans-2d" d="M 313 2009 
L 1997 2009 
L 1997 1497 
L 313 1497 
L 313 2009 
z
" transform="scale(0.015625)"/>
       <path id="DejaVuSans-4a" d="M 628 4666 
L 1259 4666 
L 1259 325 
Q 1259 -519 939 -900 
Q 619 -1281 -91 -1281 
L -331 -1281 
L -331 -750 
L -134 -750 
Q 284 -750 456 -515 
Q 628 -281 628 325 
L 628 4666 
z
" transform="scale(0.015625)"/>
       <path id="DejaVuSans-2c" d="M 750 794 
L 1409 794 
L 1409 256 
L 897 -744 
L 494 -744 
L 750 256 
L 750 794 
z
" transform="scale(0.015625)"/>
       <path id="DejaVuSans-Oblique-4e" d="M 1081 4666 
L 1931 4666 
L 3219 666 
L 4000 4666 
L 4616 4666 
L 3706 0 
L 2853 0 
L 1569 4025 
L 788 0 
L 172 0 
L 1081 4666 
z
" transform="scale(0.015625)"/>
       <path id="DejaVuSans-Oblique-62" d="M 3169 2138 
Q 3169 2591 2961 2847 
Q 2753 3103 2388 3103 
Q 2122 3103 1889 2973 
Q 1656 2844 1484 2597 
Q 1303 2338 1198 1995 
Q 1094 1653 1094 1313 
Q 1094 881 1298 636 
Q 1503 391 1863 391 
Q 2134 391 2365 517 
Q 2597 644 2772 891 
Q 2950 1147 3059 1487 
Q 3169 1828 3169 2138 
z
M 1381 2969 
Q 1594 3256 1914 3420 
Q 2234 3584 2584 3584 
Q 3122 3584 3439 3221 
Q 3756 2859 3756 2241 
Q 3756 1734 3570 1259 
Q 3384 784 3041 416 
Q 2816 172 2522 40 
Q 2228 -91 1906 -91 
Q 1566 -91 1316 65 
Q 1066 222 909 531 
L 806 0 
L 231 0 
L 1178 4863 
L 1753 4863 
L 1381 2969 
z
" transform="scale(0.015625)"/>
       <path id="DejaVuSans-Oblique-65" d="M 3078 2063 
Q 3088 2113 3092 2166 
Q 3097 2219 3097 2272 
Q 3097 2653 2873 2875 
Q 2650 3097 2266 3097 
Q 1838 3097 1509 2826 
Q 1181 2556 1013 2059 
L 3078 2063 
z
M 3578 1613 
L 903 1613 
Q 884 1494 878 1425 
Q 872 1356 872 1306 
Q 872 872 1139 634 
Q 1406 397 1894 397 
Q 2269 397 2603 481 
Q 2938 566 3225 728 
L 3116 159 
Q 2806 34 2476 -28 
Q 2147 -91 1806 -91 
Q 1078 -91 686 257 
Q 294 606 294 1247 
Q 294 1794 489 2264 
Q 684 2734 1063 3103 
Q 1306 3334 1642 3459 
Q 1978 3584 2356 3584 
Q 2950 3584 3301 3228 
Q 3653 2872 3653 2272 
Q 3653 2128 3634 1964 
Q 3616 1800 3578 1613 
z
" transform="scale(0.015625)"/>
       <path id="DejaVuSans-3d" d="M 678 2906 
L 4684 2906 
L 4684 2381 
L 678 2381 
L 678 2906 
z
M 678 1631 
L 4684 1631 
L 4684 1100 
L 678 1100 
L 678 1631 
z
" transform="scale(0.015625)"/>
       <path id="DejaVuSans-Oblique-64" d="M 2675 525 
Q 2444 222 2128 65 
Q 1813 -91 1428 -91 
Q 903 -91 598 267 
Q 294 625 294 1247 
Q 294 1766 478 2236 
Q 663 2706 1013 3078 
Q 1244 3325 1534 3454 
Q 1825 3584 2144 3584 
Q 2481 3584 2739 3421 
Q 2997 3259 3138 2956 
L 3513 4863 
L 4091 4863 
L 3144 0 
L 2566 0 
L 2675 525 
z
M 891 1350 
Q 891 897 1095 644 
Q 1300 391 1663 391 
Q 1931 391 2161 520 
Q 2391 650 2566 903 
Q 2750 1166 2856 1509 
Q 2963 1853 2963 2188 
Q 2963 2622 2758 2865 
Q 2553 3109 2194 3109 
Q 1922 3109 1687 2981 
Q 1453 2853 1288 2613 
Q 1106 2353 998 2009 
Q 891 1666 891 1350 
z
" transform="scale(0.015625)"/>
      </defs>
      <use xlink:href="#DejaVuSans-44" transform="translate(0 0.470313)"/>
      <use xlink:href="#DejaVuSans-47" transform="translate(77.001953 0.470313)"/>
      <use xlink:href="#DejaVuSans-2d" transform="translate(154.492188 0.470313)"/>
      <use xlink:href="#DejaVuSans-4a" transform="translate(190.576172 0.470313)"/>
      <use xlink:href="#DejaVuSans-75" transform="translate(220.068359 0.470313)"/>
      <use xlink:href="#DejaVuSans-6c" transform="translate(283.447266 0.470313)"/>
      <use xlink:href="#DejaVuSans-69" transform="translate(311.230469 0.470313)"/>
      <use xlink:href="#DejaVuSans-61" transform="translate(339.013672 0.470313)"/>
      <use xlink:href="#DejaVuSans-2c" transform="translate(400.292969 0.470313)"/>
      <use xlink:href="#DejaVuSans-20" transform="translate(432.080078 0.470313)"/>
      <use xlink:href="#DejaVuSans-Oblique-4e" transform="translate(463.867188 0.470313)"/>
      <use xlink:href="#DejaVuSans-Oblique-62" transform="translate(545.688646 38.751563) scale(0.7)"/>
      <use xlink:href="#DejaVuSans-Oblique-65" transform="translate(538.671875 -26.873437) scale(0.7)"/>
      <use xlink:href="#DejaVuSans-20" transform="translate(592.856615 0.470313)"/>
      <use xlink:href="#DejaVuSans-3d" transform="translate(624.643724 0.470313)"/>
      <use xlink:href="#DejaVuSans-20" transform="translate(708.432786 0.470313)"/>
      <use xlink:href="#DejaVuSans-32" transform="translate(740.219896 0.470313)"/>
      <use xlink:href="#DejaVuSans-2c" transform="translate(803.842943 0.470313)"/>
      <use xlink:href="#DejaVuSans-20" transform="translate(835.630052 0.470313)"/>
      <use xlink:href="#DejaVuSans-Oblique-4e" transform="translate(867.417161 0.470313)"/>
      <use xlink:href="#DejaVuSans-Oblique-62" transform="translate(949.23862 39.810938) scale(0.7)"/>
      <use xlink:href="#DejaVuSans-Oblique-64" transform="translate(942.221849 -26.873437) scale(0.7)"/>
      <use xlink:href="#DejaVuSans-3d" transform="translate(996.406589 0.470313)"/>
      <use xlink:href="#DejaVuSans-34" transform="translate(1080.195651 0.470313)"/>
     </g>
    </g>
    <g id="line2d_38">
     <path d="M 16.690313 540.676 
L 36.690313 540.676 
L 56.690313 540.676 
" style="fill: none; stroke: #ff7f0e; stroke-width: 2; stroke-linecap: square"/>
    </g>
    <g id="text_16">
     <!-- OCA-FPI, $N_e^b$ = 2, $N_d^b$=4 -->
     <g transform="translate(72.690313 547.676) scale(0.2 -0.2)">
      <defs>
       <path id="DejaVuSans-4f" d="M 2522 4238 
Q 1834 4238 1429 3725 
Q 1025 3213 1025 2328 
Q 1025 1447 1429 934 
Q 1834 422 2522 422 
Q 3209 422 3611 934 
Q 4013 1447 4013 2328 
Q 4013 3213 3611 3725 
Q 3209 4238 2522 4238 
z
M 2522 4750 
Q 3503 4750 4090 4092 
Q 4678 3434 4678 2328 
Q 4678 1225 4090 567 
Q 3503 -91 2522 -91 
Q 1538 -91 948 565 
Q 359 1222 359 2328 
Q 359 3434 948 4092 
Q 1538 4750 2522 4750 
z
" transform="scale(0.015625)"/>
       <path id="DejaVuSans-41" d="M 2188 4044 
L 1331 1722 
L 3047 1722 
L 2188 4044 
z
M 1831 4666 
L 2547 4666 
L 4325 0 
L 3669 0 
L 3244 1197 
L 1141 1197 
L 716 0 
L 50 0 
L 1831 4666 
z
" transform="scale(0.015625)"/>
       <path id="DejaVuSans-46" d="M 628 4666 
L 3309 4666 
L 3309 4134 
L 1259 4134 
L 1259 2759 
L 3109 2759 
L 3109 2228 
L 1259 2228 
L 1259 0 
L 628 0 
L 628 4666 
z
" transform="scale(0.015625)"/>
       <path id="DejaVuSans-50" d="M 1259 4147 
L 1259 2394 
L 2053 2394 
Q 2494 2394 2734 2622 
Q 2975 2850 2975 3272 
Q 2975 3691 2734 3919 
Q 2494 4147 2053 4147 
L 1259 4147 
z
M 628 4666 
L 2053 4666 
Q 2838 4666 3239 4311 
Q 3641 3956 3641 3272 
Q 3641 2581 3239 2228 
Q 2838 1875 2053 1875 
L 1259 1875 
L 1259 0 
L 628 0 
L 628 4666 
z
" transform="scale(0.015625)"/>
      </defs>
      <use xlink:href="#DejaVuSans-4f" transform="translate(0 0.470313)"/>
      <use xlink:href="#DejaVuSans-43" transform="translate(78.710938 0.470313)"/>
      <use xlink:href="#DejaVuSans-41" transform="translate(148.535156 0.470313)"/>
      <use xlink:href="#DejaVuSans-2d" transform="translate(216.943359 0.470313)"/>
      <use xlink:href="#DejaVuSans-46" transform="translate(253.027344 0.470313)"/>
      <use xlink:href="#DejaVuSans-50" transform="translate(310.546875 0.470313)"/>
      <use xlink:href="#DejaVuSans-49" transform="translate(370.849609 0.470313)"/>
      <use xlink:href="#DejaVuSans-2c" transform="translate(400.341797 0.470313)"/>
      <use xlink:href="#DejaVuSans-20" transform="translate(432.128906 0.470313)"/>
      <use xlink:href="#DejaVuSans-Oblique-4e" transform="translate(463.916016 0.470313)"/>
      <use xlink:href="#DejaVuSans-Oblique-62" transform="translate(545.737474 38.751563) scale(0.7)"/>
      <use xlink:href="#DejaVuSans-Oblique-65" transform="translate(538.720703 -26.873437) scale(0.7)"/>
      <use xlink:href="#DejaVuSans-20" transform="translate(592.905443 0.470313)"/>
      <use xlink:href="#DejaVuSans-3d" transform="translate(624.692552 0.470313)"/>
      <use xlink:href="#DejaVuSans-20" transform="translate(708.481615 0.470313)"/>
      <use xlink:href="#DejaVuSans-32" transform="translate(740.268724 0.470313)"/>
      <use xlink:href="#DejaVuSans-2c" transform="translate(803.891771 0.470313)"/>
      <use xlink:href="#DejaVuSans-20" transform="translate(835.67888 0.470313)"/>
      <use xlink:href="#DejaVuSans-Oblique-4e" transform="translate(867.46599 0.470313)"/>
      <use xlink:href="#DejaVuSans-Oblique-62" transform="translate(949.287448 39.810938) scale(0.7)"/>
      <use xlink:href="#DejaVuSans-Oblique-64" transform="translate(942.270677 -26.873437) scale(0.7)"/>
      <use xlink:href="#DejaVuSans-3d" transform="translate(996.455417 0.470313)"/>
      <use xlink:href="#DejaVuSans-34" transform="translate(1080.244479 0.470313)"/>
     </g>
    </g>
    <g id="line2d_39">
     <path d="M 16.690313 575.076 
L 36.690313 575.076 
L 56.690313 575.076 
" style="fill: none; stroke-dasharray: 7.4,3.2; stroke-dashoffset: 0; stroke: #d62728; stroke-width: 2"/>
    </g>
    <g id="text_17">
     <!-- DG-Julia, $N_e^b$ = 4, $N_d^b$=4 -->
     <g transform="translate(72.690313 582.076) scale(0.2 -0.2)">
      <use xlink:href="#DejaVuSans-44" transform="translate(0 0.470313)"/>
      <use xlink:href="#DejaVuSans-47" transform="translate(77.001953 0.470313)"/>
      <use xlink:href="#DejaVuSans-2d" transform="translate(154.492188 0.470313)"/>
      <use xlink:href="#DejaVuSans-4a" transform="translate(190.576172 0.470313)"/>
      <use xlink:href="#DejaVuSans-75" transform="translate(220.068359 0.470313)"/>
      <use xlink:href="#DejaVuSans-6c" transform="translate(283.447266 0.470313)"/>
      <use xlink:href="#DejaVuSans-69" transform="translate(311.230469 0.470313)"/>
      <use xlink:href="#DejaVuSans-61" transform="translate(339.013672 0.470313)"/>
      <use xlink:href="#DejaVuSans-2c" transform="translate(400.292969 0.470313)"/>
      <use xlink:href="#DejaVuSans-20" transform="translate(432.080078 0.470313)"/>
      <use xlink:href="#DejaVuSans-Oblique-4e" transform="translate(463.867188 0.470313)"/>
      <use xlink:href="#DejaVuSans-Oblique-62" transform="translate(545.688646 38.751563) scale(0.7)"/>
      <use xlink:href="#DejaVuSans-Oblique-65" transform="translate(538.671875 -26.873437) scale(0.7)"/>
      <use xlink:href="#DejaVuSans-20" transform="translate(592.856615 0.470313)"/>
      <use xlink:href="#DejaVuSans-3d" transform="translate(624.643724 0.470313)"/>
      <use xlink:href="#DejaVuSans-20" transform="translate(708.432786 0.470313)"/>
      <use xlink:href="#DejaVuSans-34" transform="translate(740.219896 0.470313)"/>
      <use xlink:href="#DejaVuSans-2c" transform="translate(803.842943 0.470313)"/>
      <use xlink:href="#DejaVuSans-20" transform="translate(835.630052 0.470313)"/>
      <use xlink:href="#DejaVuSans-Oblique-4e" transform="translate(867.417161 0.470313)"/>
      <use xlink:href="#DejaVuSans-Oblique-62" transform="translate(949.23862 39.810938) scale(0.7)"/>
      <use xlink:href="#DejaVuSans-Oblique-64" transform="translate(942.221849 -26.873437) scale(0.7)"/>
      <use xlink:href="#DejaVuSans-3d" transform="translate(996.406589 0.470313)"/>
      <use xlink:href="#DejaVuSans-34" transform="translate(1080.195651 0.470313)"/>
     </g>
    </g>
    <g id="line2d_40">
     <path d="M 16.690313 609.476 
L 36.690313 609.476 
L 56.690313 609.476 
" style="fill: none; stroke: #d62728; stroke-width: 2; stroke-linecap: square"/>
    </g>
    <g id="text_18">
     <!-- OCA-FPI, $N_e^b$ = 4, $N_d^b$=4 -->
     <g transform="translate(72.690313 616.476) scale(0.2 -0.2)">
      <use xlink:href="#DejaVuSans-4f" transform="translate(0 0.470313)"/>
      <use xlink:href="#DejaVuSans-43" transform="translate(78.710938 0.470313)"/>
      <use xlink:href="#DejaVuSans-41" transform="translate(148.535156 0.470313)"/>
      <use xlink:href="#DejaVuSans-2d" transform="translate(216.943359 0.470313)"/>
      <use xlink:href="#DejaVuSans-46" transform="translate(253.027344 0.470313)"/>
      <use xlink:href="#DejaVuSans-50" transform="translate(310.546875 0.470313)"/>
      <use xlink:href="#DejaVuSans-49" transform="translate(370.849609 0.470313)"/>
      <use xlink:href="#DejaVuSans-2c" transform="translate(400.341797 0.470313)"/>
      <use xlink:href="#DejaVuSans-20" transform="translate(432.128906 0.470313)"/>
      <use xlink:href="#DejaVuSans-Oblique-4e" transform="translate(463.916016 0.470313)"/>
      <use xlink:href="#DejaVuSans-Oblique-62" transform="translate(545.737474 38.751563) scale(0.7)"/>
      <use xlink:href="#DejaVuSans-Oblique-65" transform="translate(538.720703 -26.873437) scale(0.7)"/>
      <use xlink:href="#DejaVuSans-20" transform="translate(592.905443 0.470313)"/>
      <use xlink:href="#DejaVuSans-3d" transform="translate(624.692552 0.470313)"/>
      <use xlink:href="#DejaVuSans-20" transform="translate(708.481615 0.470313)"/>
      <use xlink:href="#DejaVuSans-34" transform="translate(740.268724 0.470313)"/>
      <use xlink:href="#DejaVuSans-2c" transform="translate(803.891771 0.470313)"/>
      <use xlink:href="#DejaVuSans-20" transform="translate(835.67888 0.470313)"/>
      <use xlink:href="#DejaVuSans-Oblique-4e" transform="translate(867.46599 0.470313)"/>
      <use xlink:href="#DejaVuSans-Oblique-62" transform="translate(949.287448 39.810938) scale(0.7)"/>
      <use xlink:href="#DejaVuSans-Oblique-64" transform="translate(942.270677 -26.873437) scale(0.7)"/>
      <use xlink:href="#DejaVuSans-3d" transform="translate(996.455417 0.470313)"/>
      <use xlink:href="#DejaVuSans-34" transform="translate(1080.244479 0.470313)"/>
     </g>
    </g>
    <g id="line2d_41">
     <path d="M 16.690313 643.876 
L 36.690313 643.876 
L 56.690313 643.876 
" style="fill: none; stroke-dasharray: 7.4,3.2; stroke-dashoffset: 0; stroke: #17becf; stroke-width: 2"/>
    </g>
    <g id="text_19">
     <!-- DG-Julia, $N_e^b$ = 2, $N_d^b$=5 -->
     <g transform="translate(72.690313 650.876) scale(0.2 -0.2)">
      <use xlink:href="#DejaVuSans-44" transform="translate(0 0.470313)"/>
      <use xlink:href="#DejaVuSans-47" transform="translate(77.001953 0.470313)"/>
      <use xlink:href="#DejaVuSans-2d" transform="translate(154.492188 0.470313)"/>
      <use xlink:href="#DejaVuSans-4a" transform="translate(190.576172 0.470313)"/>
      <use xlink:href="#DejaVuSans-75" transform="translate(220.068359 0.470313)"/>
      <use xlink:href="#DejaVuSans-6c" transform="translate(283.447266 0.470313)"/>
      <use xlink:href="#DejaVuSans-69" transform="translate(311.230469 0.470313)"/>
      <use xlink:href="#DejaVuSans-61" transform="translate(339.013672 0.470313)"/>
      <use xlink:href="#DejaVuSans-2c" transform="translate(400.292969 0.470313)"/>
      <use xlink:href="#DejaVuSans-20" transform="translate(432.080078 0.470313)"/>
      <use xlink:href="#DejaVuSans-Oblique-4e" transform="translate(463.867188 0.470313)"/>
      <use xlink:href="#DejaVuSans-Oblique-62" transform="translate(545.688646 38.751563) scale(0.7)"/>
      <use xlink:href="#DejaVuSans-Oblique-65" transform="translate(538.671875 -26.873437) scale(0.7)"/>
      <use xlink:href="#DejaVuSans-20" transform="translate(592.856615 0.470313)"/>
      <use xlink:href="#DejaVuSans-3d" transform="translate(624.643724 0.470313)"/>
      <use xlink:href="#DejaVuSans-20" transform="translate(708.432786 0.470313)"/>
      <use xlink:href="#DejaVuSans-32" transform="translate(740.219896 0.470313)"/>
      <use xlink:href="#DejaVuSans-2c" transform="translate(803.842943 0.470313)"/>
      <use xlink:href="#DejaVuSans-20" transform="translate(835.630052 0.470313)"/>
      <use xlink:href="#DejaVuSans-Oblique-4e" transform="translate(867.417161 0.470313)"/>
      <use xlink:href="#DejaVuSans-Oblique-62" transform="translate(949.23862 39.810938) scale(0.7)"/>
      <use xlink:href="#DejaVuSans-Oblique-64" transform="translate(942.221849 -26.873437) scale(0.7)"/>
      <use xlink:href="#DejaVuSans-3d" transform="translate(996.406589 0.470313)"/>
      <use xlink:href="#DejaVuSans-35" transform="translate(1080.195651 0.470313)"/>
     </g>
    </g>
    <g id="line2d_42">
     <path d="M 16.690313 678.276 
L 36.690313 678.276 
L 56.690313 678.276 
" style="fill: none; stroke: #17becf; stroke-width: 2; stroke-linecap: square"/>
    </g>
    <g id="text_20">
     <!-- OCA-FPI, $N_e^b$ = 2, $N_d^b$=5 -->
     <g transform="translate(72.690313 685.276) scale(0.2 -0.2)">
      <use xlink:href="#DejaVuSans-4f" transform="translate(0 0.470313)"/>
      <use xlink:href="#DejaVuSans-43" transform="translate(78.710938 0.470313)"/>
      <use xlink:href="#DejaVuSans-41" transform="translate(148.535156 0.470313)"/>
      <use xlink:href="#DejaVuSans-2d" transform="translate(216.943359 0.470313)"/>
      <use xlink:href="#DejaVuSans-46" transform="translate(253.027344 0.470313)"/>
      <use xlink:href="#DejaVuSans-50" transform="translate(310.546875 0.470313)"/>
      <use xlink:href="#DejaVuSans-49" transform="translate(370.849609 0.470313)"/>
      <use xlink:href="#DejaVuSans-2c" transform="translate(400.341797 0.470313)"/>
      <use xlink:href="#DejaVuSans-20" transform="translate(432.128906 0.470313)"/>
      <use xlink:href="#DejaVuSans-Oblique-4e" transform="translate(463.916016 0.470313)"/>
      <use xlink:href="#DejaVuSans-Oblique-62" transform="translate(545.737474 38.751563) scale(0.7)"/>
      <use xlink:href="#DejaVuSans-Oblique-65" transform="translate(538.720703 -26.873437) scale(0.7)"/>
      <use xlink:href="#DejaVuSans-20" transform="translate(592.905443 0.470313)"/>
      <use xlink:href="#DejaVuSans-3d" transform="translate(624.692552 0.470313)"/>
      <use xlink:href="#DejaVuSans-20" transform="translate(708.481615 0.470313)"/>
      <use xlink:href="#DejaVuSans-32" transform="translate(740.268724 0.470313)"/>
      <use xlink:href="#DejaVuSans-2c" transform="translate(803.891771 0.470313)"/>
      <use xlink:href="#DejaVuSans-20" transform="translate(835.67888 0.470313)"/>
      <use xlink:href="#DejaVuSans-Oblique-4e" transform="translate(867.46599 0.470313)"/>
      <use xlink:href="#DejaVuSans-Oblique-62" transform="translate(949.287448 39.810938) scale(0.7)"/>
      <use xlink:href="#DejaVuSans-Oblique-64" transform="translate(942.270677 -26.873437) scale(0.7)"/>
      <use xlink:href="#DejaVuSans-3d" transform="translate(996.455417 0.470313)"/>
      <use xlink:href="#DejaVuSans-35" transform="translate(1080.244479 0.470313)"/>
     </g>
    </g>
    <g id="line2d_43">
     <path d="M 341.490313 506.276 
L 361.490313 506.276 
L 381.490313 506.276 
" style="fill: none; stroke-dasharray: 7.4,3.2; stroke-dashoffset: 0; stroke: #7f7f7f; stroke-width: 2"/>
    </g>
    <g id="text_21">
     <!-- DG-Julia, $N_e^b$ = 4, $N_d^b$=5 -->
     <g transform="translate(397.490313 513.276) scale(0.2 -0.2)">
      <use xlink:href="#DejaVuSans-44" transform="translate(0 0.470313)"/>
      <use xlink:href="#DejaVuSans-47" transform="translate(77.001953 0.470313)"/>
      <use xlink:href="#DejaVuSans-2d" transform="translate(154.492188 0.470313)"/>
      <use xlink:href="#DejaVuSans-4a" transform="translate(190.576172 0.470313)"/>
      <use xlink:href="#DejaVuSans-75" transform="translate(220.068359 0.470313)"/>
      <use xlink:href="#DejaVuSans-6c" transform="translate(283.447266 0.470313)"/>
      <use xlink:href="#DejaVuSans-69" transform="translate(311.230469 0.470313)"/>
      <use xlink:href="#DejaVuSans-61" transform="translate(339.013672 0.470313)"/>
      <use xlink:href="#DejaVuSans-2c" transform="translate(400.292969 0.470313)"/>
      <use xlink:href="#DejaVuSans-20" transform="translate(432.080078 0.470313)"/>
      <use xlink:href="#DejaVuSans-Oblique-4e" transform="translate(463.867188 0.470313)"/>
      <use xlink:href="#DejaVuSans-Oblique-62" transform="translate(545.688646 38.751563) scale(0.7)"/>
      <use xlink:href="#DejaVuSans-Oblique-65" transform="translate(538.671875 -26.873437) scale(0.7)"/>
      <use xlink:href="#DejaVuSans-20" transform="translate(592.856615 0.470313)"/>
      <use xlink:href="#DejaVuSans-3d" transform="translate(624.643724 0.470313)"/>
      <use xlink:href="#DejaVuSans-20" transform="translate(708.432786 0.470313)"/>
      <use xlink:href="#DejaVuSans-34" transform="translate(740.219896 0.470313)"/>
      <use xlink:href="#DejaVuSans-2c" transform="translate(803.842943 0.470313)"/>
      <use xlink:href="#DejaVuSans-20" transform="translate(835.630052 0.470313)"/>
      <use xlink:href="#DejaVuSans-Oblique-4e" transform="translate(867.417161 0.470313)"/>
      <use xlink:href="#DejaVuSans-Oblique-62" transform="translate(949.23862 39.810938) scale(0.7)"/>
      <use xlink:href="#DejaVuSans-Oblique-64" transform="translate(942.221849 -26.873437) scale(0.7)"/>
      <use xlink:href="#DejaVuSans-3d" transform="translate(996.406589 0.470313)"/>
      <use xlink:href="#DejaVuSans-35" transform="translate(1080.195651 0.470313)"/>
     </g>
    </g>
    <g id="line2d_44">
     <path d="M 341.490313 540.676 
L 361.490313 540.676 
L 381.490313 540.676 
" style="fill: none; stroke: #7f7f7f; stroke-width: 2; stroke-linecap: square"/>
    </g>
    <g id="text_22">
     <!-- OCA-FPI, $N_e^b$ = 4, $N_d^b$=5 -->
     <g transform="translate(397.490313 547.676) scale(0.2 -0.2)">
      <use xlink:href="#DejaVuSans-4f" transform="translate(0 0.470313)"/>
      <use xlink:href="#DejaVuSans-43" transform="translate(78.710938 0.470313)"/>
      <use xlink:href="#DejaVuSans-41" transform="translate(148.535156 0.470313)"/>
      <use xlink:href="#DejaVuSans-2d" transform="translate(216.943359 0.470313)"/>
      <use xlink:href="#DejaVuSans-46" transform="translate(253.027344 0.470313)"/>
      <use xlink:href="#DejaVuSans-50" transform="translate(310.546875 0.470313)"/>
      <use xlink:href="#DejaVuSans-49" transform="translate(370.849609 0.470313)"/>
      <use xlink:href="#DejaVuSans-2c" transform="translate(400.341797 0.470313)"/>
      <use xlink:href="#DejaVuSans-20" transform="translate(432.128906 0.470313)"/>
      <use xlink:href="#DejaVuSans-Oblique-4e" transform="translate(463.916016 0.470313)"/>
      <use xlink:href="#DejaVuSans-Oblique-62" transform="translate(545.737474 38.751563) scale(0.7)"/>
      <use xlink:href="#DejaVuSans-Oblique-65" transform="translate(538.720703 -26.873437) scale(0.7)"/>
      <use xlink:href="#DejaVuSans-20" transform="translate(592.905443 0.470313)"/>
      <use xlink:href="#DejaVuSans-3d" transform="translate(624.692552 0.470313)"/>
      <use xlink:href="#DejaVuSans-20" transform="translate(708.481615 0.470313)"/>
      <use xlink:href="#DejaVuSans-34" transform="translate(740.268724 0.470313)"/>
      <use xlink:href="#DejaVuSans-2c" transform="translate(803.891771 0.470313)"/>
      <use xlink:href="#DejaVuSans-20" transform="translate(835.67888 0.470313)"/>
      <use xlink:href="#DejaVuSans-Oblique-4e" transform="translate(867.46599 0.470313)"/>
      <use xlink:href="#DejaVuSans-Oblique-62" transform="translate(949.287448 39.810938) scale(0.7)"/>
      <use xlink:href="#DejaVuSans-Oblique-64" transform="translate(942.270677 -26.873437) scale(0.7)"/>
      <use xlink:href="#DejaVuSans-3d" transform="translate(996.455417 0.470313)"/>
      <use xlink:href="#DejaVuSans-35" transform="translate(1080.244479 0.470313)"/>
     </g>
    </g>
    <g id="line2d_45">
     <path d="M 341.490313 575.076 
L 361.490313 575.076 
L 381.490313 575.076 
" style="fill: none; stroke-dasharray: 7.4,3.2; stroke-dashoffset: 0; stroke: #1f77b4; stroke-width: 2"/>
    </g>
    <g id="text_23">
     <!-- DG-Julia, $N_e^b$ = 2, $N_d^b$=6 -->
     <g transform="translate(397.490313 582.076) scale(0.2 -0.2)">
      <use xlink:href="#DejaVuSans-44" transform="translate(0 0.470313)"/>
      <use xlink:href="#DejaVuSans-47" transform="translate(77.001953 0.470313)"/>
      <use xlink:href="#DejaVuSans-2d" transform="translate(154.492188 0.470313)"/>
      <use xlink:href="#DejaVuSans-4a" transform="translate(190.576172 0.470313)"/>
      <use xlink:href="#DejaVuSans-75" transform="translate(220.068359 0.470313)"/>
      <use xlink:href="#DejaVuSans-6c" transform="translate(283.447266 0.470313)"/>
      <use xlink:href="#DejaVuSans-69" transform="translate(311.230469 0.470313)"/>
      <use xlink:href="#DejaVuSans-61" transform="translate(339.013672 0.470313)"/>
      <use xlink:href="#DejaVuSans-2c" transform="translate(400.292969 0.470313)"/>
      <use xlink:href="#DejaVuSans-20" transform="translate(432.080078 0.470313)"/>
      <use xlink:href="#DejaVuSans-Oblique-4e" transform="translate(463.867188 0.470313)"/>
      <use xlink:href="#DejaVuSans-Oblique-62" transform="translate(545.688646 38.751563) scale(0.7)"/>
      <use xlink:href="#DejaVuSans-Oblique-65" transform="translate(538.671875 -26.873437) scale(0.7)"/>
      <use xlink:href="#DejaVuSans-20" transform="translate(592.856615 0.470313)"/>
      <use xlink:href="#DejaVuSans-3d" transform="translate(624.643724 0.470313)"/>
      <use xlink:href="#DejaVuSans-20" transform="translate(708.432786 0.470313)"/>
      <use xlink:href="#DejaVuSans-32" transform="translate(740.219896 0.470313)"/>
      <use xlink:href="#DejaVuSans-2c" transform="translate(803.842943 0.470313)"/>
      <use xlink:href="#DejaVuSans-20" transform="translate(835.630052 0.470313)"/>
      <use xlink:href="#DejaVuSans-Oblique-4e" transform="translate(867.417161 0.470313)"/>
      <use xlink:href="#DejaVuSans-Oblique-62" transform="translate(949.23862 39.810938) scale(0.7)"/>
      <use xlink:href="#DejaVuSans-Oblique-64" transform="translate(942.221849 -26.873437) scale(0.7)"/>
      <use xlink:href="#DejaVuSans-3d" transform="translate(996.406589 0.470313)"/>
      <use xlink:href="#DejaVuSans-36" transform="translate(1080.195651 0.470313)"/>
     </g>
    </g>
    <g id="line2d_46">
     <path d="M 341.490313 609.476 
L 361.490313 609.476 
L 381.490313 609.476 
" style="fill: none; stroke: #1f77b4; stroke-width: 2; stroke-linecap: square"/>
    </g>
    <g id="text_24">
     <!-- OCA-FPI, $N_e^b$ = 2, $N_d^b$=6 -->
     <g transform="translate(397.490313 616.476) scale(0.2 -0.2)">
      <use xlink:href="#DejaVuSans-4f" transform="translate(0 0.470313)"/>
      <use xlink:href="#DejaVuSans-43" transform="translate(78.710938 0.470313)"/>
      <use xlink:href="#DejaVuSans-41" transform="translate(148.535156 0.470313)"/>
      <use xlink:href="#DejaVuSans-2d" transform="translate(216.943359 0.470313)"/>
      <use xlink:href="#DejaVuSans-46" transform="translate(253.027344 0.470313)"/>
      <use xlink:href="#DejaVuSans-50" transform="translate(310.546875 0.470313)"/>
      <use xlink:href="#DejaVuSans-49" transform="translate(370.849609 0.470313)"/>
      <use xlink:href="#DejaVuSans-2c" transform="translate(400.341797 0.470313)"/>
      <use xlink:href="#DejaVuSans-20" transform="translate(432.128906 0.470313)"/>
      <use xlink:href="#DejaVuSans-Oblique-4e" transform="translate(463.916016 0.470313)"/>
      <use xlink:href="#DejaVuSans-Oblique-62" transform="translate(545.737474 38.751563) scale(0.7)"/>
      <use xlink:href="#DejaVuSans-Oblique-65" transform="translate(538.720703 -26.873437) scale(0.7)"/>
      <use xlink:href="#DejaVuSans-20" transform="translate(592.905443 0.470313)"/>
      <use xlink:href="#DejaVuSans-3d" transform="translate(624.692552 0.470313)"/>
      <use xlink:href="#DejaVuSans-20" transform="translate(708.481615 0.470313)"/>
      <use xlink:href="#DejaVuSans-32" transform="translate(740.268724 0.470313)"/>
      <use xlink:href="#DejaVuSans-2c" transform="translate(803.891771 0.470313)"/>
      <use xlink:href="#DejaVuSans-20" transform="translate(835.67888 0.470313)"/>
      <use xlink:href="#DejaVuSans-Oblique-4e" transform="translate(867.46599 0.470313)"/>
      <use xlink:href="#DejaVuSans-Oblique-62" transform="translate(949.287448 39.810938) scale(0.7)"/>
      <use xlink:href="#DejaVuSans-Oblique-64" transform="translate(942.270677 -26.873437) scale(0.7)"/>
      <use xlink:href="#DejaVuSans-3d" transform="translate(996.455417 0.470313)"/>
      <use xlink:href="#DejaVuSans-36" transform="translate(1080.244479 0.470313)"/>
     </g>
    </g>
    <g id="line2d_47">
     <path d="M 341.490313 643.876 
L 361.490313 643.876 
L 381.490313 643.876 
" style="fill: none; stroke-dasharray: 7.4,3.2; stroke-dashoffset: 0; stroke: #2ca02c; stroke-width: 2"/>
    </g>
    <g id="text_25">
     <!-- DG-Julia, $N_e^b$ = 4, $N_d^b$=6 -->
     <g transform="translate(397.490313 650.876) scale(0.2 -0.2)">
      <use xlink:href="#DejaVuSans-44" transform="translate(0 0.470313)"/>
      <use xlink:href="#DejaVuSans-47" transform="translate(77.001953 0.470313)"/>
      <use xlink:href="#DejaVuSans-2d" transform="translate(154.492188 0.470313)"/>
      <use xlink:href="#DejaVuSans-4a" transform="translate(190.576172 0.470313)"/>
      <use xlink:href="#DejaVuSans-75" transform="translate(220.068359 0.470313)"/>
      <use xlink:href="#DejaVuSans-6c" transform="translate(283.447266 0.470313)"/>
      <use xlink:href="#DejaVuSans-69" transform="translate(311.230469 0.470313)"/>
      <use xlink:href="#DejaVuSans-61" transform="translate(339.013672 0.470313)"/>
      <use xlink:href="#DejaVuSans-2c" transform="translate(400.292969 0.470313)"/>
      <use xlink:href="#DejaVuSans-20" transform="translate(432.080078 0.470313)"/>
      <use xlink:href="#DejaVuSans-Oblique-4e" transform="translate(463.867188 0.470313)"/>
      <use xlink:href="#DejaVuSans-Oblique-62" transform="translate(545.688646 38.751563) scale(0.7)"/>
      <use xlink:href="#DejaVuSans-Oblique-65" transform="translate(538.671875 -26.873437) scale(0.7)"/>
      <use xlink:href="#DejaVuSans-20" transform="translate(592.856615 0.470313)"/>
      <use xlink:href="#DejaVuSans-3d" transform="translate(624.643724 0.470313)"/>
      <use xlink:href="#DejaVuSans-20" transform="translate(708.432786 0.470313)"/>
      <use xlink:href="#DejaVuSans-34" transform="translate(740.219896 0.470313)"/>
      <use xlink:href="#DejaVuSans-2c" transform="translate(803.842943 0.470313)"/>
      <use xlink:href="#DejaVuSans-20" transform="translate(835.630052 0.470313)"/>
      <use xlink:href="#DejaVuSans-Oblique-4e" transform="translate(867.417161 0.470313)"/>
      <use xlink:href="#DejaVuSans-Oblique-62" transform="translate(949.23862 39.810938) scale(0.7)"/>
      <use xlink:href="#DejaVuSans-Oblique-64" transform="translate(942.221849 -26.873437) scale(0.7)"/>
      <use xlink:href="#DejaVuSans-3d" transform="translate(996.406589 0.470313)"/>
      <use xlink:href="#DejaVuSans-36" transform="translate(1080.195651 0.470313)"/>
     </g>
    </g>
    <g id="line2d_48">
     <path d="M 341.490313 678.276 
L 361.490313 678.276 
L 381.490313 678.276 
" style="fill: none; stroke: #2ca02c; stroke-width: 2; stroke-linecap: square"/>
    </g>
    <g id="text_26">
     <!-- OCA-FPI, $N_e^b$ = 4, $N_d^b$=6 -->
     <g transform="translate(397.490313 685.276) scale(0.2 -0.2)">
      <use xlink:href="#DejaVuSans-4f" transform="translate(0 0.470313)"/>
      <use xlink:href="#DejaVuSans-43" transform="translate(78.710938 0.470313)"/>
      <use xlink:href="#DejaVuSans-41" transform="translate(148.535156 0.470313)"/>
      <use xlink:href="#DejaVuSans-2d" transform="translate(216.943359 0.470313)"/>
      <use xlink:href="#DejaVuSans-46" transform="translate(253.027344 0.470313)"/>
      <use xlink:href="#DejaVuSans-50" transform="translate(310.546875 0.470313)"/>
      <use xlink:href="#DejaVuSans-49" transform="translate(370.849609 0.470313)"/>
      <use xlink:href="#DejaVuSans-2c" transform="translate(400.341797 0.470313)"/>
      <use xlink:href="#DejaVuSans-20" transform="translate(432.128906 0.470313)"/>
      <use xlink:href="#DejaVuSans-Oblique-4e" transform="translate(463.916016 0.470313)"/>
      <use xlink:href="#DejaVuSans-Oblique-62" transform="translate(545.737474 38.751563) scale(0.7)"/>
      <use xlink:href="#DejaVuSans-Oblique-65" transform="translate(538.720703 -26.873437) scale(0.7)"/>
      <use xlink:href="#DejaVuSans-20" transform="translate(592.905443 0.470313)"/>
      <use xlink:href="#DejaVuSans-3d" transform="translate(624.692552 0.470313)"/>
      <use xlink:href="#DejaVuSans-20" transform="translate(708.481615 0.470313)"/>
      <use xlink:href="#DejaVuSans-34" transform="translate(740.268724 0.470313)"/>
      <use xlink:href="#DejaVuSans-2c" transform="translate(803.891771 0.470313)"/>
      <use xlink:href="#DejaVuSans-20" transform="translate(835.67888 0.470313)"/>
      <use xlink:href="#DejaVuSans-Oblique-4e" transform="translate(867.46599 0.470313)"/>
      <use xlink:href="#DejaVuSans-Oblique-62" transform="translate(949.287448 39.810938) scale(0.7)"/>
      <use xlink:href="#DejaVuSans-Oblique-64" transform="translate(942.270677 -26.873437) scale(0.7)"/>
      <use xlink:href="#DejaVuSans-3d" transform="translate(996.455417 0.470313)"/>
      <use xlink:href="#DejaVuSans-36" transform="translate(1080.244479 0.470313)"/>
     </g>
    </g>
   </g>
  </g>
 </g>
 <defs>
  <clipPath id="p7c9b160050">
   <rect x="70.390313" y="7.2" width="502.2" height="408.24"/>
  </clipPath>
 </defs>
</svg>
