<?xml version="1.0" encoding="utf-8" standalone="no"?>
<!DOCTYPE svg PUBLIC "-//W3C//DTD SVG 1.1//EN"
  "http://www.w3.org/Graphics/SVG/1.1/DTD/svg11.dtd">
<svg xmlns:xlink="http://www.w3.org/1999/xlink" width="432pt" height="288pt" viewBox="0 0 432 288" xmlns="http://www.w3.org/2000/svg" version="1.1">
 <metadata>
  <rdf:RDF xmlns:dc="http://purl.org/dc/elements/1.1/" xmlns:cc="http://creativecommons.org/ns#" xmlns:rdf="http://www.w3.org/1999/02/22-rdf-syntax-ns#">
   <cc:Work>
    <dc:type rdf:resource="http://purl.org/dc/dcmitype/StillImage"/>
    <dc:date>2024-10-07T10:27:47.526927</dc:date>
    <dc:format>image/svg+xml</dc:format>
    <dc:creator>
     <cc:Agent>
      <dc:title>Matplotlib v3.9.1, https://matplotlib.org/</dc:title>
     </cc:Agent>
    </dc:creator>
   </cc:Work>
  </rdf:RDF>
 </metadata>
 <defs>
  <style type="text/css">*{stroke-linejoin: round; stroke-linecap: butt}</style>
 </defs>
 <g id="figure_1">
  <g id="patch_1">
   <path d="M 0 288 
L 432 288 
L 432 0 
L 0 0 
z
" style="fill: #ffffff"/>
  </g>
  <g id="axes_1">
   <g id="patch_2">
    <path d="M 54 252 
L 388.8 252 
L 388.8 34.56 
L 54 34.56 
z
" style="fill: #ffffff"/>
   </g>
   <g id="matplotlib.axis_1">
    <g id="xtick_1">
     <g id="line2d_1">
      <defs>
       <path id="m658d090cef" d="M 0 0 
L 0 3.5 
" style="stroke: #000000; stroke-width: 0.8"/>
      </defs>
      <g>
       <use xlink:href="#m658d090cef" x="69.218182" y="252" style="stroke: #000000; stroke-width: 0.8"/>
      </g>
     </g>
     <g id="text_1">
      <!-- 0 -->
      <g transform="translate(66.036932 266.598437) scale(0.1 -0.1)">
       <defs>
        <path id="DejaVuSans-30" d="M 2034 4250 
Q 1547 4250 1301 3770 
Q 1056 3291 1056 2328 
Q 1056 1369 1301 889 
Q 1547 409 2034 409 
Q 2525 409 2770 889 
Q 3016 1369 3016 2328 
Q 3016 3291 2770 3770 
Q 2525 4250 2034 4250 
z
M 2034 4750 
Q 2819 4750 3233 4129 
Q 3647 3509 3647 2328 
Q 3647 1150 3233 529 
Q 2819 -91 2034 -91 
Q 1250 -91 836 529 
Q 422 1150 422 2328 
Q 422 3509 836 4129 
Q 1250 4750 2034 4750 
z
" transform="scale(0.015625)"/>
       </defs>
       <use xlink:href="#DejaVuSans-30"/>
      </g>
     </g>
    </g>
    <g id="xtick_2">
     <g id="line2d_2">
      <g>
       <use xlink:href="#m658d090cef" x="118.245829" y="252" style="stroke: #000000; stroke-width: 0.8"/>
      </g>
     </g>
     <g id="text_2">
      <!-- 20000 -->
      <g transform="translate(102.339579 266.598437) scale(0.1 -0.1)">
       <defs>
        <path id="DejaVuSans-32" d="M 1228 531 
L 3431 531 
L 3431 0 
L 469 0 
L 469 531 
Q 828 903 1448 1529 
Q 2069 2156 2228 2338 
Q 2531 2678 2651 2914 
Q 2772 3150 2772 3378 
Q 2772 3750 2511 3984 
Q 2250 4219 1831 4219 
Q 1534 4219 1204 4116 
Q 875 4013 500 3803 
L 500 4441 
Q 881 4594 1212 4672 
Q 1544 4750 1819 4750 
Q 2544 4750 2975 4387 
Q 3406 4025 3406 3419 
Q 3406 3131 3298 2873 
Q 3191 2616 2906 2266 
Q 2828 2175 2409 1742 
Q 1991 1309 1228 531 
z
" transform="scale(0.015625)"/>
       </defs>
       <use xlink:href="#DejaVuSans-32"/>
       <use xlink:href="#DejaVuSans-30" x="63.623047"/>
       <use xlink:href="#DejaVuSans-30" x="127.246094"/>
       <use xlink:href="#DejaVuSans-30" x="190.869141"/>
       <use xlink:href="#DejaVuSans-30" x="254.492188"/>
      </g>
     </g>
    </g>
    <g id="xtick_3">
     <g id="line2d_3">
      <g>
       <use xlink:href="#m658d090cef" x="167.273477" y="252" style="stroke: #000000; stroke-width: 0.8"/>
      </g>
     </g>
     <g id="text_3">
      <!-- 40000 -->
      <g transform="translate(151.367227 266.598437) scale(0.1 -0.1)">
       <defs>
        <path id="DejaVuSans-34" d="M 2419 4116 
L 825 1625 
L 2419 1625 
L 2419 4116 
z
M 2253 4666 
L 3047 4666 
L 3047 1625 
L 3713 1625 
L 3713 1100 
L 3047 1100 
L 3047 0 
L 2419 0 
L 2419 1100 
L 313 1100 
L 313 1709 
L 2253 4666 
z
" transform="scale(0.015625)"/>
       </defs>
       <use xlink:href="#DejaVuSans-34"/>
       <use xlink:href="#DejaVuSans-30" x="63.623047"/>
       <use xlink:href="#DejaVuSans-30" x="127.246094"/>
       <use xlink:href="#DejaVuSans-30" x="190.869141"/>
       <use xlink:href="#DejaVuSans-30" x="254.492188"/>
      </g>
     </g>
    </g>
    <g id="xtick_4">
     <g id="line2d_4">
      <g>
       <use xlink:href="#m658d090cef" x="216.301125" y="252" style="stroke: #000000; stroke-width: 0.8"/>
      </g>
     </g>
     <g id="text_4">
      <!-- 60000 -->
      <g transform="translate(200.394875 266.598437) scale(0.1 -0.1)">
       <defs>
        <path id="DejaVuSans-36" d="M 2113 2584 
Q 1688 2584 1439 2293 
Q 1191 2003 1191 1497 
Q 1191 994 1439 701 
Q 1688 409 2113 409 
Q 2538 409 2786 701 
Q 3034 994 3034 1497 
Q 3034 2003 2786 2293 
Q 2538 2584 2113 2584 
z
M 3366 4563 
L 3366 3988 
Q 3128 4100 2886 4159 
Q 2644 4219 2406 4219 
Q 1781 4219 1451 3797 
Q 1122 3375 1075 2522 
Q 1259 2794 1537 2939 
Q 1816 3084 2150 3084 
Q 2853 3084 3261 2657 
Q 3669 2231 3669 1497 
Q 3669 778 3244 343 
Q 2819 -91 2113 -91 
Q 1303 -91 875 529 
Q 447 1150 447 2328 
Q 447 3434 972 4092 
Q 1497 4750 2381 4750 
Q 2619 4750 2861 4703 
Q 3103 4656 3366 4563 
z
" transform="scale(0.015625)"/>
       </defs>
       <use xlink:href="#DejaVuSans-36"/>
       <use xlink:href="#DejaVuSans-30" x="63.623047"/>
       <use xlink:href="#DejaVuSans-30" x="127.246094"/>
       <use xlink:href="#DejaVuSans-30" x="190.869141"/>
       <use xlink:href="#DejaVuSans-30" x="254.492188"/>
      </g>
     </g>
    </g>
    <g id="xtick_5">
     <g id="line2d_5">
      <g>
       <use xlink:href="#m658d090cef" x="265.328772" y="252" style="stroke: #000000; stroke-width: 0.8"/>
      </g>
     </g>
     <g id="text_5">
      <!-- 80000 -->
      <g transform="translate(249.422522 266.598437) scale(0.1 -0.1)">
       <defs>
        <path id="DejaVuSans-38" d="M 2034 2216 
Q 1584 2216 1326 1975 
Q 1069 1734 1069 1313 
Q 1069 891 1326 650 
Q 1584 409 2034 409 
Q 2484 409 2743 651 
Q 3003 894 3003 1313 
Q 3003 1734 2745 1975 
Q 2488 2216 2034 2216 
z
M 1403 2484 
Q 997 2584 770 2862 
Q 544 3141 544 3541 
Q 544 4100 942 4425 
Q 1341 4750 2034 4750 
Q 2731 4750 3128 4425 
Q 3525 4100 3525 3541 
Q 3525 3141 3298 2862 
Q 3072 2584 2669 2484 
Q 3125 2378 3379 2068 
Q 3634 1759 3634 1313 
Q 3634 634 3220 271 
Q 2806 -91 2034 -91 
Q 1263 -91 848 271 
Q 434 634 434 1313 
Q 434 1759 690 2068 
Q 947 2378 1403 2484 
z
M 1172 3481 
Q 1172 3119 1398 2916 
Q 1625 2713 2034 2713 
Q 2441 2713 2670 2916 
Q 2900 3119 2900 3481 
Q 2900 3844 2670 4047 
Q 2441 4250 2034 4250 
Q 1625 4250 1398 4047 
Q 1172 3844 1172 3481 
z
" transform="scale(0.015625)"/>
       </defs>
       <use xlink:href="#DejaVuSans-38"/>
       <use xlink:href="#DejaVuSans-30" x="63.623047"/>
       <use xlink:href="#DejaVuSans-30" x="127.246094"/>
       <use xlink:href="#DejaVuSans-30" x="190.869141"/>
       <use xlink:href="#DejaVuSans-30" x="254.492188"/>
      </g>
     </g>
    </g>
    <g id="xtick_6">
     <g id="line2d_6">
      <g>
       <use xlink:href="#m658d090cef" x="314.35642" y="252" style="stroke: #000000; stroke-width: 0.8"/>
      </g>
     </g>
     <g id="text_6">
      <!-- 100000 -->
      <g transform="translate(295.26892 266.598437) scale(0.1 -0.1)">
       <defs>
        <path id="DejaVuSans-31" d="M 794 531 
L 1825 531 
L 1825 4091 
L 703 3866 
L 703 4441 
L 1819 4666 
L 2450 4666 
L 2450 531 
L 3481 531 
L 3481 0 
L 794 0 
L 794 531 
z
" transform="scale(0.015625)"/>
       </defs>
       <use xlink:href="#DejaVuSans-31"/>
       <use xlink:href="#DejaVuSans-30" x="63.623047"/>
       <use xlink:href="#DejaVuSans-30" x="127.246094"/>
       <use xlink:href="#DejaVuSans-30" x="190.869141"/>
       <use xlink:href="#DejaVuSans-30" x="254.492188"/>
       <use xlink:href="#DejaVuSans-30" x="318.115234"/>
      </g>
     </g>
    </g>
    <g id="xtick_7">
     <g id="line2d_7">
      <g>
       <use xlink:href="#m658d090cef" x="363.384067" y="252" style="stroke: #000000; stroke-width: 0.8"/>
      </g>
     </g>
     <g id="text_7">
      <!-- 120000 -->
      <g transform="translate(344.296567 266.598437) scale(0.1 -0.1)">
       <use xlink:href="#DejaVuSans-31"/>
       <use xlink:href="#DejaVuSans-32" x="63.623047"/>
       <use xlink:href="#DejaVuSans-30" x="127.246094"/>
       <use xlink:href="#DejaVuSans-30" x="190.869141"/>
       <use xlink:href="#DejaVuSans-30" x="254.492188"/>
       <use xlink:href="#DejaVuSans-30" x="318.115234"/>
      </g>
     </g>
    </g>
    <g id="text_8">
     <!-- Time / s -->
     <g transform="translate(201.699219 280.276563) scale(0.1 -0.1)">
      <defs>
       <path id="DejaVuSans-54" d="M -19 4666 
L 3928 4666 
L 3928 4134 
L 2272 4134 
L 2272 0 
L 1638 0 
L 1638 4134 
L -19 4134 
L -19 4666 
z
" transform="scale(0.015625)"/>
       <path id="DejaVuSans-69" d="M 603 3500 
L 1178 3500 
L 1178 0 
L 603 0 
L 603 3500 
z
M 603 4863 
L 1178 4863 
L 1178 4134 
L 603 4134 
L 603 4863 
z
" transform="scale(0.015625)"/>
       <path id="DejaVuSans-6d" d="M 3328 2828 
Q 3544 3216 3844 3400 
Q 4144 3584 4550 3584 
Q 5097 3584 5394 3201 
Q 5691 2819 5691 2113 
L 5691 0 
L 5113 0 
L 5113 2094 
Q 5113 2597 4934 2840 
Q 4756 3084 4391 3084 
Q 3944 3084 3684 2787 
Q 3425 2491 3425 1978 
L 3425 0 
L 2847 0 
L 2847 2094 
Q 2847 2600 2669 2842 
Q 2491 3084 2119 3084 
Q 1678 3084 1418 2786 
Q 1159 2488 1159 1978 
L 1159 0 
L 581 0 
L 581 3500 
L 1159 3500 
L 1159 2956 
Q 1356 3278 1631 3431 
Q 1906 3584 2284 3584 
Q 2666 3584 2933 3390 
Q 3200 3197 3328 2828 
z
" transform="scale(0.015625)"/>
       <path id="DejaVuSans-65" d="M 3597 1894 
L 3597 1613 
L 953 1613 
Q 991 1019 1311 708 
Q 1631 397 2203 397 
Q 2534 397 2845 478 
Q 3156 559 3463 722 
L 3463 178 
Q 3153 47 2828 -22 
Q 2503 -91 2169 -91 
Q 1331 -91 842 396 
Q 353 884 353 1716 
Q 353 2575 817 3079 
Q 1281 3584 2069 3584 
Q 2775 3584 3186 3129 
Q 3597 2675 3597 1894 
z
M 3022 2063 
Q 3016 2534 2758 2815 
Q 2500 3097 2075 3097 
Q 1594 3097 1305 2825 
Q 1016 2553 972 2059 
L 3022 2063 
z
" transform="scale(0.015625)"/>
       <path id="DejaVuSans-20" transform="scale(0.015625)"/>
       <path id="DejaVuSans-2f" d="M 1625 4666 
L 2156 4666 
L 531 -594 
L 0 -594 
L 1625 4666 
z
" transform="scale(0.015625)"/>
       <path id="DejaVuSans-73" d="M 2834 3397 
L 2834 2853 
Q 2591 2978 2328 3040 
Q 2066 3103 1784 3103 
Q 1356 3103 1142 2972 
Q 928 2841 928 2578 
Q 928 2378 1081 2264 
Q 1234 2150 1697 2047 
L 1894 2003 
Q 2506 1872 2764 1633 
Q 3022 1394 3022 966 
Q 3022 478 2636 193 
Q 2250 -91 1575 -91 
Q 1294 -91 989 -36 
Q 684 19 347 128 
L 347 722 
Q 666 556 975 473 
Q 1284 391 1588 391 
Q 1994 391 2212 530 
Q 2431 669 2431 922 
Q 2431 1156 2273 1281 
Q 2116 1406 1581 1522 
L 1381 1569 
Q 847 1681 609 1914 
Q 372 2147 372 2553 
Q 372 3047 722 3315 
Q 1072 3584 1716 3584 
Q 2034 3584 2315 3537 
Q 2597 3491 2834 3397 
z
" transform="scale(0.015625)"/>
      </defs>
      <use xlink:href="#DejaVuSans-54"/>
      <use xlink:href="#DejaVuSans-69" x="57.958984"/>
      <use xlink:href="#DejaVuSans-6d" x="85.742188"/>
      <use xlink:href="#DejaVuSans-65" x="183.154297"/>
      <use xlink:href="#DejaVuSans-20" x="244.677734"/>
      <use xlink:href="#DejaVuSans-2f" x="276.464844"/>
      <use xlink:href="#DejaVuSans-20" x="310.15625"/>
      <use xlink:href="#DejaVuSans-73" x="341.943359"/>
     </g>
    </g>
   </g>
   <g id="matplotlib.axis_2">
    <g id="ytick_1">
     <g id="line2d_8">
      <defs>
       <path id="m976a7b0c2b" d="M 0 0 
L -3.5 0 
" style="stroke: #000000; stroke-width: 0.8"/>
      </defs>
      <g>
       <use xlink:href="#m976a7b0c2b" x="54" y="242.116364" style="stroke: #000000; stroke-width: 0.8"/>
      </g>
     </g>
     <g id="text_9">
      <!-- 0.0 -->
      <g transform="translate(31.096875 245.915582) scale(0.1 -0.1)">
       <defs>
        <path id="DejaVuSans-2e" d="M 684 794 
L 1344 794 
L 1344 0 
L 684 0 
L 684 794 
z
" transform="scale(0.015625)"/>
       </defs>
       <use xlink:href="#DejaVuSans-30"/>
       <use xlink:href="#DejaVuSans-2e" x="63.623047"/>
       <use xlink:href="#DejaVuSans-30" x="95.410156"/>
      </g>
     </g>
    </g>
    <g id="ytick_2">
     <g id="line2d_9">
      <g>
       <use xlink:href="#m976a7b0c2b" x="54" y="195.717101" style="stroke: #000000; stroke-width: 0.8"/>
      </g>
     </g>
     <g id="text_10">
      <!-- 0.5 -->
      <g transform="translate(31.096875 199.516319) scale(0.1 -0.1)">
       <defs>
        <path id="DejaVuSans-35" d="M 691 4666 
L 3169 4666 
L 3169 4134 
L 1269 4134 
L 1269 2991 
Q 1406 3038 1543 3061 
Q 1681 3084 1819 3084 
Q 2600 3084 3056 2656 
Q 3513 2228 3513 1497 
Q 3513 744 3044 326 
Q 2575 -91 1722 -91 
Q 1428 -91 1123 -41 
Q 819 9 494 109 
L 494 744 
Q 775 591 1075 516 
Q 1375 441 1709 441 
Q 2250 441 2565 725 
Q 2881 1009 2881 1497 
Q 2881 1984 2565 2268 
Q 2250 2553 1709 2553 
Q 1456 2553 1204 2497 
Q 953 2441 691 2322 
L 691 4666 
z
" transform="scale(0.015625)"/>
       </defs>
       <use xlink:href="#DejaVuSans-30"/>
       <use xlink:href="#DejaVuSans-2e" x="63.623047"/>
       <use xlink:href="#DejaVuSans-35" x="95.410156"/>
      </g>
     </g>
    </g>
    <g id="ytick_3">
     <g id="line2d_10">
      <g>
       <use xlink:href="#m976a7b0c2b" x="54" y="149.317838" style="stroke: #000000; stroke-width: 0.8"/>
      </g>
     </g>
     <g id="text_11">
      <!-- 1.0 -->
      <g transform="translate(31.096875 153.117056) scale(0.1 -0.1)">
       <use xlink:href="#DejaVuSans-31"/>
       <use xlink:href="#DejaVuSans-2e" x="63.623047"/>
       <use xlink:href="#DejaVuSans-30" x="95.410156"/>
      </g>
     </g>
    </g>
    <g id="ytick_4">
     <g id="line2d_11">
      <g>
       <use xlink:href="#m976a7b0c2b" x="54" y="102.918575" style="stroke: #000000; stroke-width: 0.8"/>
      </g>
     </g>
     <g id="text_12">
      <!-- 1.5 -->
      <g transform="translate(31.096875 106.717793) scale(0.1 -0.1)">
       <use xlink:href="#DejaVuSans-31"/>
       <use xlink:href="#DejaVuSans-2e" x="63.623047"/>
       <use xlink:href="#DejaVuSans-35" x="95.410156"/>
      </g>
     </g>
    </g>
    <g id="ytick_5">
     <g id="line2d_12">
      <g>
       <use xlink:href="#m976a7b0c2b" x="54" y="56.519312" style="stroke: #000000; stroke-width: 0.8"/>
      </g>
     </g>
     <g id="text_13">
      <!-- 2.0 -->
      <g transform="translate(31.096875 60.31853) scale(0.1 -0.1)">
       <use xlink:href="#DejaVuSans-32"/>
       <use xlink:href="#DejaVuSans-2e" x="63.623047"/>
       <use xlink:href="#DejaVuSans-30" x="95.410156"/>
      </g>
     </g>
    </g>
    <g id="text_14">
     <!-- Concentration / mM -->
     <g transform="translate(25.017187 192.697969) rotate(-90) scale(0.1 -0.1)">
      <defs>
       <path id="DejaVuSans-43" d="M 4122 4306 
L 4122 3641 
Q 3803 3938 3442 4084 
Q 3081 4231 2675 4231 
Q 1875 4231 1450 3742 
Q 1025 3253 1025 2328 
Q 1025 1406 1450 917 
Q 1875 428 2675 428 
Q 3081 428 3442 575 
Q 3803 722 4122 1019 
L 4122 359 
Q 3791 134 3420 21 
Q 3050 -91 2638 -91 
Q 1578 -91 968 557 
Q 359 1206 359 2328 
Q 359 3453 968 4101 
Q 1578 4750 2638 4750 
Q 3056 4750 3426 4639 
Q 3797 4528 4122 4306 
z
" transform="scale(0.015625)"/>
       <path id="DejaVuSans-6f" d="M 1959 3097 
Q 1497 3097 1228 2736 
Q 959 2375 959 1747 
Q 959 1119 1226 758 
Q 1494 397 1959 397 
Q 2419 397 2687 759 
Q 2956 1122 2956 1747 
Q 2956 2369 2687 2733 
Q 2419 3097 1959 3097 
z
M 1959 3584 
Q 2709 3584 3137 3096 
Q 3566 2609 3566 1747 
Q 3566 888 3137 398 
Q 2709 -91 1959 -91 
Q 1206 -91 779 398 
Q 353 888 353 1747 
Q 353 2609 779 3096 
Q 1206 3584 1959 3584 
z
" transform="scale(0.015625)"/>
       <path id="DejaVuSans-6e" d="M 3513 2113 
L 3513 0 
L 2938 0 
L 2938 2094 
Q 2938 2591 2744 2837 
Q 2550 3084 2163 3084 
Q 1697 3084 1428 2787 
Q 1159 2491 1159 1978 
L 1159 0 
L 581 0 
L 581 3500 
L 1159 3500 
L 1159 2956 
Q 1366 3272 1645 3428 
Q 1925 3584 2291 3584 
Q 2894 3584 3203 3211 
Q 3513 2838 3513 2113 
z
" transform="scale(0.015625)"/>
       <path id="DejaVuSans-63" d="M 3122 3366 
L 3122 2828 
Q 2878 2963 2633 3030 
Q 2388 3097 2138 3097 
Q 1578 3097 1268 2742 
Q 959 2388 959 1747 
Q 959 1106 1268 751 
Q 1578 397 2138 397 
Q 2388 397 2633 464 
Q 2878 531 3122 666 
L 3122 134 
Q 2881 22 2623 -34 
Q 2366 -91 2075 -91 
Q 1284 -91 818 406 
Q 353 903 353 1747 
Q 353 2603 823 3093 
Q 1294 3584 2113 3584 
Q 2378 3584 2631 3529 
Q 2884 3475 3122 3366 
z
" transform="scale(0.015625)"/>
       <path id="DejaVuSans-74" d="M 1172 4494 
L 1172 3500 
L 2356 3500 
L 2356 3053 
L 1172 3053 
L 1172 1153 
Q 1172 725 1289 603 
Q 1406 481 1766 481 
L 2356 481 
L 2356 0 
L 1766 0 
Q 1100 0 847 248 
Q 594 497 594 1153 
L 594 3053 
L 172 3053 
L 172 3500 
L 594 3500 
L 594 4494 
L 1172 4494 
z
" transform="scale(0.015625)"/>
       <path id="DejaVuSans-72" d="M 2631 2963 
Q 2534 3019 2420 3045 
Q 2306 3072 2169 3072 
Q 1681 3072 1420 2755 
Q 1159 2438 1159 1844 
L 1159 0 
L 581 0 
L 581 3500 
L 1159 3500 
L 1159 2956 
Q 1341 3275 1631 3429 
Q 1922 3584 2338 3584 
Q 2397 3584 2469 3576 
Q 2541 3569 2628 3553 
L 2631 2963 
z
" transform="scale(0.015625)"/>
       <path id="DejaVuSans-61" d="M 2194 1759 
Q 1497 1759 1228 1600 
Q 959 1441 959 1056 
Q 959 750 1161 570 
Q 1363 391 1709 391 
Q 2188 391 2477 730 
Q 2766 1069 2766 1631 
L 2766 1759 
L 2194 1759 
z
M 3341 1997 
L 3341 0 
L 2766 0 
L 2766 531 
Q 2569 213 2275 61 
Q 1981 -91 1556 -91 
Q 1019 -91 701 211 
Q 384 513 384 1019 
Q 384 1609 779 1909 
Q 1175 2209 1959 2209 
L 2766 2209 
L 2766 2266 
Q 2766 2663 2505 2880 
Q 2244 3097 1772 3097 
Q 1472 3097 1187 3025 
Q 903 2953 641 2809 
L 641 3341 
Q 956 3463 1253 3523 
Q 1550 3584 1831 3584 
Q 2591 3584 2966 3190 
Q 3341 2797 3341 1997 
z
" transform="scale(0.015625)"/>
       <path id="DejaVuSans-4d" d="M 628 4666 
L 1569 4666 
L 2759 1491 
L 3956 4666 
L 4897 4666 
L 4897 0 
L 4281 0 
L 4281 4097 
L 3078 897 
L 2444 897 
L 1241 4097 
L 1241 0 
L 628 0 
L 628 4666 
z
" transform="scale(0.015625)"/>
      </defs>
      <use xlink:href="#DejaVuSans-43"/>
      <use xlink:href="#DejaVuSans-6f" x="69.824219"/>
      <use xlink:href="#DejaVuSans-6e" x="131.005859"/>
      <use xlink:href="#DejaVuSans-63" x="194.384766"/>
      <use xlink:href="#DejaVuSans-65" x="249.365234"/>
      <use xlink:href="#DejaVuSans-6e" x="310.888672"/>
      <use xlink:href="#DejaVuSans-74" x="374.267578"/>
      <use xlink:href="#DejaVuSans-72" x="413.476562"/>
      <use xlink:href="#DejaVuSans-61" x="454.589844"/>
      <use xlink:href="#DejaVuSans-74" x="515.869141"/>
      <use xlink:href="#DejaVuSans-69" x="555.078125"/>
      <use xlink:href="#DejaVuSans-6f" x="582.861328"/>
      <use xlink:href="#DejaVuSans-6e" x="644.042969"/>
      <use xlink:href="#DejaVuSans-20" x="707.421875"/>
      <use xlink:href="#DejaVuSans-2f" x="739.208984"/>
      <use xlink:href="#DejaVuSans-20" x="772.900391"/>
      <use xlink:href="#DejaVuSans-6d" x="804.6875"/>
      <use xlink:href="#DejaVuSans-4d" x="902.099609"/>
     </g>
    </g>
   </g>
   <g id="line2d_13">
    <path d="M 69.218182 242.116364 
L 84.436364 242.116364 
L 84.438815 240.010196 
L 84.549127 240.426628 
L 84.948703 241.453357 
L 85.33357 241.876164 
L 85.804235 242.056141 
L 86.718601 242.11376 
L 88.240909 242.11636 
L 88.24336 230.934101 
L 88.353673 232.421398 
L 88.861109 237.749584 
L 89.295004 240.191394 
L 89.69703 241.322275 
L 90.089251 241.821253 
L 90.537854 242.034849 
L 91.302686 242.110054 
L 92.045455 242.116013 
L 92.047906 213.123428 
L 92.158218 215.814074 
L 92.844605 230.159739 
L 93.359396 236.686692 
L 93.800644 239.767784 
L 94.197768 241.151716 
L 94.577733 241.751849 
L 94.992016 242.006106 
L 95.629376 242.102932 
L 95.85 242.110328 
L 95.852451 189.503678 
L 95.962764 192.982412 
L 97.00215 223.455632 
L 97.558614 233.757535 
L 98.012119 238.486357 
L 98.414146 240.61365 
L 98.786756 241.528874 
L 99.164269 241.914885 
L 99.639837 242.071897 
L 99.654545 242.074042 
L 99.656997 164.216617 
L 99.767309 167.933139 
L 101.586235 228.574535 
L 102.061803 236.186944 
L 102.473635 239.632428 
L 102.848697 241.126465 
L 103.20905 241.750725 
L 103.459091 241.943901 
L 103.461542 140.40776 
L 103.571854 143.934164 
L 104.331783 173.558578 
L 105.606502 223.406939 
L 106.096778 233.950947 
L 106.513513 238.693104 
L 106.888575 240.741281 
L 107.244025 241.595261 
L 107.263636 241.623776 
L 107.266088 119.772999 
L 107.3764 122.866016 
L 107.972086 144.099815 
L 108.75898 181.083533 
L 109.64638 219.939704 
L 110.136657 232.515067 
L 110.55094 238.109138 
L 110.92355 240.504155 
L 111.068182 241.016038 
L 111.070633 102.861958 
L 111.180945 105.432064 
L 111.70309 121.350752 
L 112.269359 145.892041 
L 114.031903 228.881747 
L 114.455992 236.550078 
L 114.833505 239.842837 
L 114.872727 240.056989 
L 114.875179 89.522033 
L 114.985491 91.579171 
L 115.461059 103.433015 
L 115.946433 121.454097 
L 116.529862 152.437993 
L 117.76781 220.199418 
L 118.221316 232.724044 
L 118.613537 238.181887 
L 118.677273 238.735902 
L 118.679724 79.262115 
L 118.790036 80.867748 
L 119.236188 89.706714 
L 119.672534 103.0485 
L 120.148102 125.110405 
L 120.856552 170.341255 
L 121.636091 215.459177 
L 122.099403 230.652674 
L 122.481818 237.093323 
L 122.48427 71.490903 
L 122.594582 72.724761 
L 123.018671 79.27702 
L 123.423149 89.214655 
L 123.842335 105.532153 
L 124.349772 135.029464 
L 125.749511 221.849369 
L 126.176051 233.352919 
L 126.286364 235.205704 
L 126.288815 65.647354 
L 126.399127 66.588125 
L 126.806057 71.440634 
L 127.186021 78.829354 
L 127.568437 91.029825 
L 127.99988 112.694007 
L 128.629885 157.564699 
L 129.451098 212.267713 
L 129.907055 229.081575 
L 130.090909 233.165882 
L 130.09336 61.25684 
L 130.203673 61.973048 
L 130.595894 65.56816 
L 130.956247 71.070739 
L 131.311698 80.243087 
L 131.699016 96.632858 
L 132.181938 127.753128 
L 133.513039 219.213333 
L 133.895455 231.066118 
L 133.897906 57.943893 
L 134.008218 58.491068 
L 134.390634 61.195944 
L 134.736279 65.361899 
L 135.072118 72.398702 
L 135.43002 85.125853 
L 135.849206 108.925778 
L 136.538045 163.595128 
L 137.226883 211.179099 
L 137.675486 228.343557 
L 137.7 228.986682 
L 137.702451 55.423688 
L 137.812764 55.844854 
L 138.187825 57.906974 
L 138.518762 61.07047 
L 138.837441 66.489237 
L 139.170829 76.373833 
L 139.550794 95.039564 
L 140.060681 132.683359 
L 141.112324 211.657104 
L 141.504545 226.990164 
L 141.506997 53.485761 
L 141.617309 53.813312 
L 141.985016 55.399216 
L 142.303696 57.834716 
L 142.607668 62.054422 
L 142.923896 69.902665 
L 143.276895 84.88165 
L 143.718144 114.371888 
L 145.166911 220.127643 
L 145.309091 225.120273 
L 145.311542 51.976967 
L 145.421854 52.23487 
L 145.784659 53.479509 
L 146.093533 55.398246 
L 146.387699 58.796521 
L 146.689219 65.166862 
L 147.022607 77.507324 
L 147.422183 101.582436 
L 148.093861 158.679415 
L 148.767991 208.326101 
L 149.113636 223.403488 
L 149.116088 50.786692 
L 149.2264 50.992514 
L 149.586753 51.991662 
L 149.888273 53.545149 
L 150.172634 56.330627 
L 150.464348 61.667845 
L 150.783028 72.108331 
L 151.158089 92.64802 
L 151.697393 136.511404 
L 152.582342 206.536318 
L 152.918182 221.852148 
L 152.920633 49.83516 
L 153.030945 50.00173 
L 153.391299 50.823379 
L 153.683013 52.090812 
L 153.957568 54.395089 
L 154.239477 58.884531 
L 154.5459 67.780419 
L 154.90135 85.420384 
L 155.376918 121.774682 
L 156.492297 210.277846 
L 156.722727 220.46792 
L 156.725179 49.064652 
L 156.835491 49.201349 
L 157.195844 49.887585 
L 157.480204 50.948546 
L 157.747405 52.909219 
L 158.02196 56.792477 
L 158.318577 64.556226 
L 158.659319 80.062974 
L 159.098117 111.627316 
L 160.43412 215.370344 
L 160.527273 219.245054 
L 160.529724 48.433137 
L 160.640036 48.546849 
L 161.002841 49.13446 
L 161.282299 50.05213 
L 161.544596 51.782201 
L 161.811797 55.223565 
L 162.10106 62.191599 
L 162.431997 76.241816 
L 162.848732 104.739624 
L 164.331818 218.173103 
L 164.33427 47.909732 
L 164.444582 48.005554 
L 164.809838 48.5164 
L 165.084393 49.322019 
L 165.339336 50.84618 
L 165.601634 53.938824 
L 165.885995 60.287938 
L 166.207126 73.066058 
L 166.60425 98.86421 
L 167.398498 169.818224 
L 167.974572 209.800798 
L 168.136364 217.23903 
L 168.138815 47.471506 
L 168.249127 47.55324 
L 168.616835 48.003802 
L 168.886487 48.720821 
L 169.138979 50.11418 
L 169.396374 52.947959 
L 169.675832 58.81857 
L 169.99206 70.77694 
L 170.379379 95.003617 
L 171.036349 153.402181 
L 171.705576 204.857165 
L 171.940909 216.428741 
L 171.94336 47.101231 
L 172.053673 47.171742 
L 172.423831 47.574543 
L 172.688581 48.220662 
L 172.93617 49.489289 
L 173.191114 52.12061 
L 173.465669 57.570299 
L 173.776994 68.780375 
L 174.154507 91.503756 
L 174.747742 143.39161 
L 175.495414 203.132575 
L 175.745455 215.728123 
L 175.747906 46.785807 
L 175.858218 46.847278 
L 176.23328 47.215635 
L 176.495578 47.816692 
L 176.740716 49.014751 
L 176.993208 51.521476 
L 177.265312 56.747225 
L 177.571734 67.461087 
L 177.941893 89.188498 
L 178.505711 137.873936 
L 179.30241 202.521475 
L 179.55 215.123705 
L 179.552451 46.51515 
L 179.662764 46.569262 
L 180.040276 46.906632 
L 180.300123 47.467506 
L 180.54281 48.599432 
L 180.792851 50.984713 
L 181.062503 55.985786 
L 181.366474 66.306707 
L 181.73173 87.259574 
L 182.273486 133.452315 
L 183.116761 202.456144 
L 183.354545 214.603037 
L 183.356997 46.281405 
L 183.467309 46.329466 
L 183.847273 46.641706 
L 184.104668 47.169709 
L 184.344904 48.245989 
L 184.592494 50.525853 
L 184.859694 55.326148 
L 185.161214 65.285949 
L 185.521567 85.500921 
L 186.043712 129.419389 
L 186.936015 202.772535 
L 187.159091 214.154873 
L 187.161542 46.078382 
L 187.271854 46.121423 
L 187.65427 46.41316 
L 187.909214 46.914001 
L 188.146998 47.942858 
L 188.392136 50.130036 
L 188.656886 54.748946 
L 188.955954 64.374173 
L 189.313856 84.050703 
L 189.823744 126.44406 
L 190.755269 203.16409 
L 190.963636 213.769219 
L 190.966088 45.901147 
L 191.0764 45.939988 
L 191.463718 46.217883 
L 191.716211 46.699972 
L 191.951543 47.69564 
L 192.196682 49.844743 
L 192.461431 54.40824 
L 192.758048 63.854716 
L 193.113499 83.208219 
L 193.616032 124.726623 
L 194.56962 203.336702 
L 194.768182 213.437303 
L 194.770633 45.74573 
L 194.880945 45.781029 
L 195.268264 46.042091 
L 195.520756 46.50787 
L 195.756089 47.481953 
L 195.998776 49.570348 
L 196.261074 54.00517 
L 196.557691 63.299442 
L 196.91069 82.283727 
L 197.405869 122.872607 
L 198.386422 203.702721 
L 198.572727 213.151494 
L 198.575179 45.608902 
L 198.685491 45.641192 
L 199.075261 45.890805 
L 199.325302 46.340172 
L 199.558183 47.282135 
L 199.80087 49.330098 
L 200.063168 53.700971 
L 200.357334 62.799535 
L 200.707881 81.430172 
L 201.195706 121.097048 
L 202.203225 204.111041 
L 202.377273 212.905197 
L 202.379724 45.488013 
L 202.490036 45.517732 
L 202.882257 45.75787 
L 203.132299 46.19961 
L 203.36518 47.134186 
L 203.605415 49.146699 
L 203.867713 53.48641 
L 204.161879 62.541812 
L 204.512427 81.119661 
L 204.9978 120.519493 
L 206.012673 204.144029 
L 206.181818 212.692744 
L 206.18427 45.380873 
L 206.294582 45.408379 
L 206.689254 45.640671 
L 206.936844 46.07008 
L 207.167274 46.978271 
L 207.407509 48.958613 
L 207.667356 53.192029 
L 207.95907 62.027038 
L 208.307167 80.210446 
L 208.785186 118.637347 
L 209.831927 204.753866 
L 209.986364 212.509274 
L 209.988815 45.285653 
L 210.099127 45.311247 
L 210.4938 45.534464 
L 210.741389 45.955674 
L 210.971819 46.853334 
L 211.212055 48.818653 
L 211.471901 53.030445 
L 211.763616 61.835552 
L 212.109261 79.822756 
L 212.584829 117.929727 
L 213.643826 204.980862 
L 213.790909 212.350635 
L 213.79336 45.200817 
L 213.903673 45.22475 
L 214.300797 45.44265 
L 214.545935 45.854308 
L 214.776365 46.743009 
L 215.0166 48.695598 
L 215.276447 52.889142 
L 215.568161 61.669099 
L 215.913806 79.625623 
L 216.389374 117.708361 
L 217.448372 204.828269 
L 217.595455 212.213281 
L 217.597906 45.125068 
L 217.708218 45.147551 
L 218.105342 45.358595 
L 218.35048 45.764251 
L 218.578459 46.631917 
L 218.816243 48.532309 
L 219.07609 52.659179 
L 219.367804 61.332195 
L 219.713449 79.137844 
L 220.184114 116.618706 
L 221.262723 205.231827 
L 221.4 212.094191 
L 221.402451 45.057301 
L 221.512764 45.078513 
L 221.912339 45.286025 
L 222.157477 45.690145 
L 222.385456 46.55848 
L 222.62324 48.46363 
L 222.883086 52.60294 
L 223.174801 61.300802 
L 223.520446 79.147227 
L 223.993563 116.901926 
L 225.064817 204.98445 
L 225.204545 211.990786 
L 225.206997 44.996569 
L 225.317309 45.016663 
L 225.716884 45.218904 
L 225.962023 45.618502 
L 226.190001 46.481196 
L 226.427785 48.378493 
L 226.687632 52.506605 
L 226.979346 61.189223 
L 227.324991 79.017281 
L 227.795657 116.533506 
L 228.874265 205.152369 
L 229.009091 211.90087 
L 229.011542 44.942058 
L 229.121854 44.961166 
L 229.52143 45.158773 
L 229.764117 45.548418 
L 229.992095 46.39908 
L 230.229879 48.275776 
L 230.487274 52.316655 
L 230.776538 60.806514 
L 231.119731 78.274941 
L 231.585494 115.06532 
L 232.691067 205.727855 
L 232.813636 211.82257 
L 232.816088 44.893065 
L 232.9264 44.9113 
L 233.325975 45.104822 
L 233.568662 45.491055 
L 233.796641 46.337476 
L 234.034425 48.208336 
L 234.29182 52.241073 
L 234.581083 60.719958 
L 234.924277 78.175248 
L 235.390039 114.955766 
L 236.498064 205.784801 
L 236.618182 211.754284 
L 236.620633 44.848977 
L 236.730945 44.866437 
L 237.132972 45.058691 
L 237.375659 45.445518 
L 237.603638 46.29536 
L 237.841422 48.174965 
L 238.098817 52.225825 
L 238.38808 60.737492 
L 238.731273 78.243711 
L 239.197036 115.083059 
L 240.300158 205.588676 
L 240.422727 211.694646 
L 240.425179 44.80926 
L 240.535491 44.826031 
L 240.937518 45.015062 
L 241.180204 45.399237 
L 241.405732 46.232813 
L 241.643516 48.094202 
L 241.900911 52.113839 
L 242.190174 60.575221 
L 242.533368 78.009839 
L 242.99913 114.775475 
L 244.107155 205.663397 
L 244.227273 211.642488 
L 244.229724 44.773448 
L 244.340036 44.789604 
L 244.742063 44.975769 
L 244.98475 45.357608 
L 245.210277 46.18836 
L 245.448061 48.045899 
L 245.705456 52.060257 
L 245.994719 60.514664 
L 246.337913 77.941172 
L 246.801224 114.478192 
L 247.916603 205.875703 
L 248.031818 211.596808 
L 248.03427 44.741128 
L 248.144582 44.756735 
L 248.546608 44.940347 
L 248.789295 45.320114 
L 249.014823 46.148379 
L 249.250155 47.976003 
L 249.50755 51.96077 
L 249.796813 60.367087 
L 250.137556 77.569321 
L 250.598416 113.744769 
L 251.728503 206.222542 
L 251.836364 211.556747 
L 251.838815 44.711939 
L 251.949127 44.727054 
L 252.351154 44.908389 
L 252.593841 45.286313 
L 252.819368 46.112388 
L 253.054701 47.93708 
L 253.312096 51.91785 
L 253.601359 60.318946 
L 253.942101 77.515261 
L 254.402961 113.686898 
L 255.533048 206.18465 
L 255.640909 211.521568 
L 255.64336 44.685559 
L 255.753673 44.700234 
L 256.155699 44.879531 
L 256.398386 45.255821 
L 256.623913 46.079949 
L 256.859246 47.902065 
L 257.116641 51.879329 
L 257.405904 60.275891 
L 257.746647 77.467131 
L 258.207506 113.63565 
L 259.337594 206.151325 
L 259.445455 211.490636 
L 259.447906 44.661705 
L 259.558218 44.675984 
L 259.962696 44.855716 
L 260.202932 45.228287 
L 260.428459 46.05069 
L 260.663792 47.870529 
L 260.921187 51.844723 
L 261.21045 60.23734 
L 261.551192 77.42421 
L 262.012052 113.590184 
L 263.142139 206.121979 
L 263.25 211.463404 
L 263.252451 44.640122 
L 263.362764 44.654045 
L 263.767242 44.83213 
L 264.007477 45.203411 
L 264.233004 46.024279 
L 264.468337 47.842106 
L 264.725732 51.813598 
L 265.014995 60.202777 
L 265.355737 77.385877 
L 265.816597 113.549786 
L 266.946685 206.096105 
L 267.054545 211.439402 
L 267.056997 44.620586 
L 267.167309 44.634189 
L 267.571787 44.810794 
L 267.812023 45.180918 
L 268.03755 46.000423 
L 268.272882 47.816463 
L 268.530278 51.785577 
L 268.819541 60.171742 
L 269.160283 77.351595 
L 269.621143 113.513836 
L 270.75123 206.073264 
L 270.859091 211.418222 
L 270.861542 44.602894 
L 270.971854 44.616209 
L 271.376333 44.791484 
L 271.616568 45.160572 
L 271.842095 45.978858 
L 272.077428 47.793316 
L 272.334823 51.760329 
L 272.624086 60.143854 
L 272.964828 77.320898 
L 273.425688 113.481797 
L 274.558227 206.182658 
L 274.663636 211.399511 
L 274.666088 44.586868 
L 274.7764 44.599923 
L 275.180878 44.774 
L 275.421114 45.142161 
L 275.646641 45.959357 
L 275.881973 47.772407 
L 276.139369 51.737559 
L 276.428632 60.118769 
L 276.769374 77.29338 
L 277.230234 113.453211 
L 278.362772 206.164827 
L 278.468182 211.382964 
L 278.470633 44.572344 
L 278.580945 44.585164 
L 278.985424 44.758162 
L 279.225659 45.125492 
L 279.451186 45.941714 
L 279.686519 47.753505 
L 279.943914 51.717012 
L 280.233177 60.096187 
L 280.573919 77.268685 
L 281.034779 113.427671 
L 282.167318 206.149033 
L 282.272727 211.368315 
L 282.275179 44.559179 
L 282.385491 44.571787 
L 282.789969 44.743813 
L 283.030204 45.110393 
L 283.255732 45.925742 
L 283.491064 47.736411 
L 283.748459 51.698458 
L 284.037723 60.075834 
L 284.378465 77.246502 
L 284.839325 113.404833 
L 285.971863 206.135028 
L 286.077273 211.355333 
L 286.079724 44.547241 
L 286.190036 44.559658 
L 286.594514 44.730807 
L 286.83475 45.096712 
L 287.060277 45.911278 
L 287.29561 47.720945 
L 287.553005 51.681696 
L 287.842268 60.057489 
L 288.18301 77.226559 
L 288.64387 113.384386 
L 289.776409 206.1226 
L 289.881818 211.343818 
L 289.88427 44.536414 
L 289.994582 44.548658 
L 290.39906 44.719014 
L 290.639295 45.084312 
L 290.864823 45.898175 
L 291.100155 47.70695 
L 291.35755 51.666542 
L 291.646813 60.040934 
L 291.987556 77.208617 
L 292.448416 113.366061 
L 293.580954 206.111558 
L 293.686364 211.333595 
L 293.688815 44.526593 
L 293.799127 44.53868 
L 294.203605 44.708319 
L 294.443841 45.073068 
L 294.669368 45.886301 
L 294.904701 47.694275 
L 295.162096 51.652836 
L 295.451359 60.025992 
L 295.792101 77.192461 
L 296.252961 113.349627 
L 297.3855 206.10174 
L 297.490909 211.324511 
L 297.49336 44.51768 
L 297.603673 44.529626 
L 298.008151 44.69862 
L 298.248386 45.062875 
L 298.473913 45.87554 
L 298.709246 47.682795 
L 298.966641 51.640433 
L 299.255904 60.012494 
L 299.596647 77.177905 
L 300.057506 113.334874 
L 301.190045 206.093002 
L 301.295455 211.316431 
L 301.297906 44.509592 
L 301.408218 44.521409 
L 301.812696 44.68982 
L 302.052932 45.053629 
L 302.276007 45.85313 
L 302.51134 47.646271 
L 302.766284 51.527572 
L 303.053096 59.722832 
L 303.391386 76.549184 
L 303.847344 111.991238 
L 305.009299 206.855714 
L 305.1 211.30924 
L 305.102451 44.502251 
L 305.212764 44.513952 
L 305.617242 44.681831 
L 305.857477 45.045242 
L 306.080553 45.844285 
L 306.315886 47.636847 
L 306.570829 51.517422 
L 306.857641 59.711828 
L 307.195932 76.537363 
L 307.651889 111.979302 
L 308.813844 206.848852 
L 308.904545 211.302833 
L 308.906997 44.495585 
L 309.017309 44.507182 
L 309.421787 44.674581 
L 309.662023 45.037629 
L 309.885098 45.836262 
L 310.120431 47.628306 
L 310.375375 51.50823 
L 310.662187 59.701869 
L 311.000477 76.52669 
L 311.456435 111.968562 
L 312.61839 206.842731 
L 312.709091 211.297122 
L 312.711542 44.489533 
L 312.821854 44.501033 
L 313.226333 44.667999 
L 313.466568 45.030721 
L 313.689644 45.82898 
L 313.924977 47.620557 
L 314.17992 51.499897 
L 314.466732 59.692857 
L 314.805023 76.517052 
L 315.26098 111.958894 
L 316.422935 206.837268 
L 316.513636 211.292027 
L 316.516088 44.484036 
L 316.6264 44.49545 
L 317.030878 44.662024 
L 317.271114 45.024446 
L 317.494189 45.822376 
L 317.729522 47.61353 
L 317.984466 51.492346 
L 318.271278 59.684702 
L 318.609568 76.508345 
L 319.065525 111.950186 
L 320.227481 206.832386 
L 320.318182 211.287478 
L 320.320633 44.479043 
L 320.430945 44.49038 
L 320.835424 44.656597 
L 321.075659 45.018752 
L 321.298735 45.816379 
L 321.534067 47.607151 
L 321.789011 51.485503 
L 322.075823 59.677317 
L 322.414114 76.500474 
L 322.867619 111.721371 
L 324.034478 206.955159 
L 324.122727 211.283414 
L 324.125179 44.474508 
L 324.235491 44.485773 
L 324.639969 44.651667 
L 324.880204 45.013577 
L 325.10328 45.810933 
L 325.338613 47.601366 
L 325.593557 51.479295 
L 325.880368 59.670628 
L 326.218659 76.493358 
L 326.672165 111.714291 
L 327.839023 206.951264 
L 327.927273 211.279781 
L 327.929724 44.470387 
L 328.040036 44.481588 
L 328.444514 44.647191 
L 328.68475 45.008881 
L 328.907826 45.80599 
L 329.143158 47.596115 
L 329.398102 51.473665 
L 329.684914 59.664567 
L 330.023205 76.486919 
L 330.47671 111.707903 
L 331.643568 206.947777 
L 331.731818 211.276532 
L 331.73427 44.466642 
L 331.844582 44.477785 
L 332.24906 44.643123 
L 332.489295 45.004613 
L 332.712371 45.801499 
L 332.947704 47.591346 
L 333.202648 51.468556 
L 333.489459 59.659074 
L 333.82775 76.481094 
L 334.281256 111.702138 
L 335.448114 206.944655 
L 335.536364 211.273623 
L 335.538815 44.463239 
L 335.649127 44.474329 
L 336.053605 44.639427 
L 336.293841 45.000739 
L 336.516917 45.797419 
L 336.752249 47.587019 
L 337.007193 51.463922 
L 337.294005 59.654092 
L 337.632296 76.475821 
L 338.085801 111.696932 
L 339.252659 206.941857 
L 339.340909 211.271018 
L 339.34336 44.460146 
L 339.453673 44.471188 
L 339.858151 44.636067 
L 340.098386 44.997216 
L 340.321462 45.793716 
L 340.556795 47.583089 
L 340.811739 51.459717 
L 341.09855 59.649579 
L 341.436841 76.471044 
L 341.890347 111.692231 
L 343.057205 206.939348 
L 343.145455 211.268684 
L 343.147906 44.457334 
L 343.258218 44.468333 
L 343.662696 44.633014 
L 343.902932 44.994012 
L 344.126007 45.790352 
L 344.36134 47.579517 
L 344.616284 51.455897 
L 344.903096 59.645481 
L 345.241386 76.46672 
L 345.694892 111.687979 
L 346.86175 206.937096 
L 346.95 211.266591 
L 346.952451 44.454778 
L 347.062764 44.465737 
L 347.467242 44.630239 
L 347.707477 44.991105 
L 347.930553 45.787294 
L 348.165886 47.576273 
L 348.420829 51.452431 
L 348.707641 59.641764 
L 349.045932 76.462802 
L 349.499438 111.684139 
L 350.666296 206.935076 
L 350.754545 211.264713 
L 350.756997 44.452454 
L 350.867309 44.463377 
L 351.271787 44.627715 
L 351.512023 44.98846 
L 351.735098 45.784512 
L 351.970431 47.573327 
L 352.225375 51.449281 
L 352.512187 59.638395 
L 352.850477 76.45925 
L 353.303983 111.680665 
L 354.470841 206.933262 
L 354.559091 211.263028 
L 354.561542 44.450341 
L 354.671854 44.461231 
L 355.076333 44.625422 
L 355.316568 44.986056 
L 355.539644 45.781986 
L 355.774977 47.57065 
L 356.02992 51.446421 
L 356.316732 59.635336 
L 356.655023 76.456032 
L 357.108529 111.677522 
L 358.275387 206.931632 
L 358.363636 211.261514 
L 358.366088 44.448419 
L 358.4764 44.45928 
L 358.880878 44.623336 
L 359.121114 44.983869 
L 359.344189 45.779689 
L 359.579522 47.568216 
L 359.834466 51.44383 
L 360.121278 59.632558 
L 360.459568 76.453114 
L 360.913074 111.674678 
L 362.079932 206.930166 
L 362.168182 211.260154 
L 362.170633 44.446672 
L 362.280945 44.457505 
L 362.685424 44.62144 
L 362.925659 44.981884 
L 363.148735 45.777601 
L 363.384067 47.566006 
L 363.639011 51.441469 
L 363.925823 59.630039 
L 364.264114 76.450469 
L 364.717619 111.672104 
L 365.884478 206.928848 
L 365.972727 211.258932 
L 365.975179 44.445082 
L 366.085491 44.455891 
L 366.49242 44.621886 
L 366.732656 44.985783 
L 366.955732 45.788308 
L 367.191064 47.590059 
L 367.448459 51.540841 
L 367.737723 59.905043 
L 368.078465 77.063551 
L 368.539325 113.221382 
L 369.671863 206.029341 
L 369.777273 211.257833 
L 369.779724 44.443636 
L 369.890036 44.454423 
L 370.294514 44.618146 
L 370.53475 44.978431 
L 370.757826 45.773976 
L 370.993158 47.562167 
L 371.248102 51.43737 
L 371.534914 59.625667 
L 371.873205 76.445891 
L 372.32671 111.667663 
L 373.493568 206.926595 
L 373.581818 211.256844 
L 373.581818 211.256844 
" clip-path="url(#pb98c4b4077)" style="fill: none; stroke: #1f77b4; stroke-width: 1.5; stroke-linecap: square"/>
   </g>
   <g id="line2d_14">
    <path d="M 69.218182 242.116364 
L 99.654545 242.116364 
L 99.656997 241.947407 
L 99.767309 241.989384 
L 100.419377 242.10022 
L 102.664843 242.116363 
L 103.459091 242.116364 
L 103.461542 241.845634 
L 103.571854 241.909512 
L 104.111159 242.074153 
L 105.233892 242.115848 
L 107.263636 242.116364 
L 107.266088 241.72152 
L 107.3764 241.810786 
L 107.856871 242.036567 
L 108.629056 242.111196 
L 111.068182 242.116364 
L 111.070633 241.578852 
L 111.180945 241.696108 
L 111.632 241.991094 
L 112.247297 242.100231 
L 114.379999 242.116363 
L 114.872727 242.116364 
L 114.875179 241.421806 
L 114.985491 241.568826 
L 115.419386 241.938985 
L 115.951336 242.083896 
L 117.213797 242.116222 
L 118.677273 242.116363 
L 118.679724 241.254485 
L 118.790036 241.43232 
L 119.216577 241.88404 
L 119.699499 242.064327 
L 120.62367 242.115062 
L 122.481818 242.116361 
L 122.48427 241.080645 
L 122.594582 241.289736 
L 123.01622 241.825592 
L 123.467274 242.042145 
L 124.217397 242.112076 
L 126.286364 242.116354 
L 126.288815 240.903565 
L 126.399127 241.143862 
L 126.820765 241.768132 
L 127.249757 242.01924 
L 127.896922 242.107372 
L 130.090909 242.116327 
L 130.09336 240.725999 
L 130.203673 240.997063 
L 130.62531 241.709525 
L 131.039594 241.99582 
L 131.620572 242.101385 
L 133.753274 242.116267 
L 133.895455 242.116253 
L 133.897906 240.550188 
L 134.008218 240.851285 
L 134.429856 241.650678 
L 134.834334 241.972481 
L 135.371187 242.094682 
L 136.962134 242.116202 
L 137.7 242.116079 
L 137.702451 240.377904 
L 137.812764 240.708079 
L 138.236853 241.595684 
L 138.636428 241.951731 
L 139.141413 242.08797 
L 140.438194 242.11601 
L 141.504545 242.115717 
L 141.506997 240.210499 
L 141.617309 240.56864 
L 142.04385 241.542435 
L 142.438522 241.93091 
L 142.918993 242.080864 
L 144.027018 242.115581 
L 145.309091 242.115047 
L 145.311542 240.048966 
L 145.421854 240.433857 
L 145.848395 241.487361 
L 146.238165 241.908599 
L 146.699025 242.073014 
L 147.667321 242.114758 
L 149.113636 242.113916 
L 149.116088 239.893994 
L 149.2264 240.30435 
L 149.655392 241.438387 
L 150.04271 241.889619 
L 150.488862 242.06586 
L 151.368908 242.113486 
L 152.918182 242.112148 
L 152.920633 239.746015 
L 153.030945 240.180518 
L 153.462389 241.391988 
L 153.847256 241.871131 
L 154.28115 242.05849 
L 155.092558 242.111611 
L 156.722727 242.109564 
L 156.725179 239.605252 
L 156.835491 240.062569 
L 157.266934 241.343385 
L 157.64935 241.851127 
L 158.073439 242.0504 
L 158.828465 242.108968 
L 160.527273 242.105994 
L 160.529724 239.471753 
L 160.640036 239.950559 
L 161.073931 241.301912 
L 161.453895 241.833349 
L 161.87063 242.042685 
L 162.586434 242.105569 
L 164.331818 242.101297 
L 164.33427 239.345426 
L 164.444582 239.844413 
L 164.878476 241.257585 
L 165.258441 241.815826 
L 165.667822 242.034188 
L 166.349306 242.101159 
L 168.136364 242.09537 
L 168.138815 239.226069 
L 168.249127 239.74396 
L 168.685473 241.220613 
L 169.065438 241.800712 
L 169.469916 242.026167 
L 170.126886 242.095811 
L 171.940909 242.088155 
L 171.94336 239.113399 
L 172.053673 239.648953 
L 172.490019 241.179984 
L 172.867532 241.780959 
L 173.264656 242.015065 
L 173.894661 242.089032 
L 175.745455 242.079646 
L 175.747906 239.007074 
L 175.858218 239.559094 
L 176.294564 241.140813 
L 176.672077 241.763325 
L 177.06675 242.005086 
L 177.679595 242.081307 
L 179.55 242.069881 
L 179.552451 238.906718 
L 179.662764 239.474058 
L 180.101561 241.109022 
L 180.479074 241.747954 
L 180.868844 241.994066 
L 181.46453 242.072301 
L 183.354545 242.05894 
L 183.356997 238.811938 
L 183.467309 239.393508 
L 183.906106 241.072402 
L 184.281168 241.727076 
L 184.668486 241.981145 
L 185.249464 242.062036 
L 187.159091 242.046933 
L 187.161542 238.722344 
L 187.271854 239.317112 
L 187.710652 241.036725 
L 188.085713 241.708323 
L 188.47058 241.967982 
L 189.039301 242.050717 
L 190.963636 242.033997 
L 190.966088 238.637558 
L 191.0764 239.244553 
L 191.515197 241.001874 
L 191.890259 241.689119 
L 192.272675 241.953822 
L 192.83159 242.038388 
L 194.768182 242.020281 
L 194.770633 238.557227 
L 194.880945 239.175541 
L 195.319743 240.967762 
L 195.694804 241.669483 
L 196.074769 241.938748 
L 196.623878 242.025098 
L 198.572727 242.005944 
L 198.575179 238.481024 
L 198.685491 239.109813 
L 199.12674 240.941152 
L 199.501801 241.652344 
L 199.879314 241.923805 
L 200.423521 242.011244 
L 202.377273 241.991141 
L 202.379724 238.408657 
L 202.490036 239.047137 
L 202.931285 240.908497 
L 203.303895 241.629132 
L 203.678957 241.90631 
L 204.213358 241.996363 
L 206.181818 241.976025 
L 206.18427 238.339864 
L 206.294582 238.987314 
L 206.735831 240.876486 
L 207.108441 241.608577 
L 207.483502 241.890187 
L 208.013001 241.981327 
L 209.986364 241.960737 
L 209.988815 238.274414 
L 210.099127 238.93017 
L 210.540376 240.845132 
L 210.912986 241.5879 
L 211.285596 241.872696 
L 211.807741 241.965719 
L 213.790909 241.945406 
L 213.79336 238.212108 
L 213.903673 238.875559 
L 214.344922 240.814464 
L 214.717532 241.567202 
L 215.090142 241.855952 
L 215.609835 241.950195 
L 217.595455 241.930147 
L 217.597906 238.152768 
L 217.708218 238.823356 
L 218.149467 240.784518 
L 218.522077 241.54659 
L 218.894687 241.839102 
L 219.409478 241.934467 
L 221.387743 241.915227 
L 221.4 241.91506 
L 221.402451 238.096241 
L 221.512764 238.773456 
L 221.954012 240.755335 
L 222.326623 241.526163 
L 222.696781 241.821221 
L 223.206669 241.918637 
L 225.10649 241.901547 
L 225.204545 241.900231 
L 225.206997 238.042391 
L 225.317309 238.725764 
L 225.758558 240.726957 
L 226.131168 241.506015 
L 226.501327 241.804494 
L 227.008763 241.903171 
L 228.869362 241.887564 
L 229.009091 241.885731 
L 229.011542 237.991098 
L 229.121854 238.680202 
L 229.565555 240.706941 
L 229.938165 241.489437 
L 230.308324 241.789056 
L 230.81576 241.888185 
L 232.673908 241.87339 
L 232.813636 241.871616 
L 232.816088 237.942253 
L 232.9264 238.636696 
L 233.3701 240.680352 
L 233.74271 241.470119 
L 234.112869 241.77286 
L 234.617854 241.873244 
L 236.43678 241.860169 
L 236.618182 241.857934 
L 236.620633 237.895756 
L 236.730945 238.595178 
L 237.174646 240.654668 
L 237.547256 241.451297 
L 237.914963 241.755938 
L 238.415045 241.858382 
L 240.162881 241.847844 
L 240.422727 241.844717 
L 240.425179 237.851515 
L 240.535491 238.555586 
L 240.979191 240.629911 
L 241.351801 241.433026 
L 241.719509 241.740528 
L 242.217139 241.844198 
L 243.930655 241.83544 
L 244.227273 241.831991 
L 244.229724 237.809442 
L 244.340036 238.517858 
L 244.783737 240.606097 
L 245.156347 241.415345 
L 245.524054 241.72559 
L 246.021685 241.830612 
L 247.718041 241.823273 
L 248.031818 241.819771 
L 248.03427 237.769454 
L 248.144582 238.481936 
L 248.588282 240.583236 
L 248.960892 241.398286 
L 249.328599 241.711159 
L 249.823779 241.817355 
L 251.488267 241.811805 
L 251.836364 241.808068 
L 251.838815 237.731471 
L 251.949127 238.44776 
L 252.392827 240.56133 
L 252.765438 241.381872 
L 253.133145 241.697261 
L 253.625873 241.804593 
L 255.258493 241.800828 
L 255.640909 241.796884 
L 255.64336 237.695415 
L 255.753673 238.415271 
L 256.197373 240.540376 
L 256.569983 241.366116 
L 256.93769 241.683912 
L 257.430418 241.792506 
L 259.048331 241.790125 
L 259.445455 241.786217 
L 259.447906 237.661209 
L 259.558218 238.384411 
L 260.001918 240.520366 
L 260.374528 241.351027 
L 260.742236 241.671122 
L 261.232512 241.780772 
L 262.821008 241.780102 
L 263.25 241.77606 
L 263.252451 237.628779 
L 263.362764 238.355121 
L 263.806464 240.501285 
L 264.179074 241.336603 
L 264.54433 241.657715 
L 265.032155 241.769373 
L 266.581429 241.770684 
L 267.054545 241.766405 
L 267.056997 237.59805 
L 267.167309 238.32734 
L 267.613461 240.491113 
L 267.986071 241.326283 
L 268.351327 241.647226 
L 268.839152 241.759022 
L 270.388425 241.761267 
L 270.859091 241.757239 
L 270.861542 237.568951 
L 270.971854 238.30101 
L 271.418006 240.47387 
L 271.790616 241.313193 
L 272.155872 241.636111 
L 272.643697 241.749005 
L 274.180714 241.752471 
L 274.663636 241.748549 
L 274.666088 237.541411 
L 274.7764 238.276072 
L 275.222552 240.457489 
L 275.595162 241.300742 
L 275.960418 241.62554 
L 276.445791 241.739299 
L 277.958294 241.744263 
L 278.468182 241.740317 
L 278.470633 237.51536 
L 278.580945 238.252467 
L 279.027097 240.441945 
L 279.399707 241.288914 
L 279.764963 241.6155 
L 280.250337 241.730266 
L 281.753034 241.736337 
L 282.272727 241.732529 
L 282.275179 237.49073 
L 282.385491 238.230138 
L 282.831642 240.427209 
L 283.204253 241.277692 
L 283.569509 241.605975 
L 284.052431 241.721508 
L 285.533066 241.728957 
L 286.077273 241.725166 
L 286.079724 237.467455 
L 286.190036 238.209026 
L 286.636188 240.413251 
L 287.008798 241.267056 
L 287.374054 241.596951 
L 287.856976 241.7134 
L 289.327806 241.721861 
L 289.881818 241.71821 
L 289.88427 237.445471 
L 289.994582 238.189076 
L 290.440733 240.400042 
L 290.813343 241.256985 
L 291.178599 241.588407 
L 291.661522 241.70573 
L 293.124997 241.715138 
L 293.686364 241.711643 
L 293.688815 237.424713 
L 293.799127 238.170233 
L 294.245279 240.387549 
L 294.617889 241.247457 
L 294.983145 241.580327 
L 295.463616 241.698274 
L 296.90748 241.708895 
L 297.490909 241.705448 
L 297.49336 237.405122 
L 297.603673 238.152443 
L 298.049824 240.375741 
L 298.422434 241.238449 
L 298.78769 241.572691 
L 299.268161 241.691426 
L 300.704671 241.702901 
L 301.295455 241.699606 
L 301.297906 237.386639 
L 301.408218 238.135655 
L 301.85437 240.364589 
L 302.22698 241.22994 
L 302.592236 241.565479 
L 303.072707 241.684963 
L 304.501863 241.697248 
L 305.1 241.694101 
L 305.102451 237.369206 
L 305.212764 238.119817 
L 305.658915 240.354061 
L 306.031525 241.221907 
L 306.396781 241.558673 
L 306.874801 241.678649 
L 308.286797 241.691993 
L 308.904545 241.688914 
L 308.906997 237.35277 
L 309.017309 238.104882 
L 309.463461 240.344127 
L 309.836071 241.214326 
L 310.201327 241.552253 
L 310.679346 241.672899 
L 312.083988 241.686968 
L 312.709091 241.68403 
L 312.711542 237.337277 
L 312.821854 238.090803 
L 313.268006 240.334758 
L 313.640616 241.207177 
L 314.005872 241.5462 
L 314.483892 241.66748 
L 315.883631 241.682222 
L 316.513636 241.679432 
L 316.516088 237.322678 
L 316.6264 238.077533 
L 317.072552 240.325925 
L 317.445162 241.200438 
L 317.810418 241.540496 
L 318.288437 241.662377 
L 319.683274 241.677754 
L 320.318182 241.675105 
L 320.320633 237.308925 
L 320.430945 238.065031 
L 320.877097 240.317601 
L 321.249707 241.194088 
L 321.614963 241.535123 
L 322.092983 241.657571 
L 323.482916 241.673548 
L 324.122727 241.671035 
L 324.125179 237.29597 
L 324.235491 238.053254 
L 324.681642 240.309759 
L 325.054253 241.188107 
L 325.419509 241.530064 
L 325.895077 241.652819 
L 327.270302 241.669647 
L 327.927273 241.667206 
L 327.929724 237.283771 
L 328.040036 238.042164 
L 328.486188 240.302373 
L 328.861249 241.186101 
L 329.226505 241.526578 
L 329.704525 241.649019 
L 331.09691 241.665803 
L 331.731818 241.663606 
L 331.73427 237.272286 
L 331.844582 238.031721 
L 332.290733 240.295419 
L 332.665795 241.180806 
L 333.031051 241.5221 
L 333.50907 241.645016 
L 334.896553 241.662305 
L 335.536364 241.660221 
L 335.538815 237.261474 
L 335.649127 238.021891 
L 336.095279 240.288873 
L 336.47034 241.175824 
L 336.835596 241.517887 
L 337.313616 241.641252 
L 338.698647 241.659006 
L 339.340909 241.65704 
L 339.34336 237.251298 
L 339.453673 238.012639 
L 339.902276 240.291108 
L 340.274886 241.171136 
L 340.640142 241.513924 
L 341.11571 241.637479 
L 342.486033 241.65596 
L 343.145455 241.65405 
L 343.147906 237.241722 
L 343.258218 238.003932 
L 343.706821 240.285324 
L 344.079431 241.166727 
L 344.444687 241.510198 
L 344.920255 241.63415 
L 346.285675 241.653052 
L 346.95 241.65124 
L 346.952451 237.232712 
L 347.062764 237.99574 
L 347.511367 240.279882 
L 347.883977 241.16258 
L 348.249233 241.506694 
L 348.724801 241.631021 
L 350.087769 241.650309 
L 350.754545 241.6486 
L 350.756997 237.224235 
L 350.867309 237.988033 
L 351.315912 240.274763 
L 351.690974 241.162324 
L 352.056229 241.504688 
L 352.534249 241.628551 
L 353.916829 241.647646 
L 354.559091 241.64612 
L 354.561542 237.216261 
L 354.671854 237.980783 
L 355.120457 240.269949 
L 355.495519 241.158663 
L 355.860775 241.501595 
L 356.338795 241.62579 
L 357.716471 241.645237 
L 358.363636 241.643791 
L 358.366088 237.20876 
L 358.4764 237.973964 
L 358.925003 240.265423 
L 359.300064 241.155222 
L 359.66532 241.498689 
L 360.140889 241.62296 
L 361.506309 241.643003 
L 362.168182 241.641603 
L 362.170633 237.201706 
L 362.280945 237.967551 
L 362.729548 240.261167 
L 363.10461 241.151988 
L 363.469866 241.495958 
L 363.945434 241.620522 
L 365.308403 241.640869 
L 365.972727 241.639549 
L 365.975179 237.195072 
L 366.085491 237.961521 
L 366.534094 240.257167 
L 366.909155 241.148949 
L 367.274411 241.493392 
L 367.749979 241.618232 
L 369.110497 241.638864 
L 369.777273 241.637619 
L 369.779724 237.188834 
L 369.890036 237.95585 
L 370.338639 240.253406 
L 370.713701 241.146093 
L 371.078957 241.490982 
L 371.554525 241.616082 
L 372.912591 241.636982 
L 373.581818 241.635808 
L 373.581818 241.635808 
" clip-path="url(#pb98c4b4077)" style="fill: none; stroke: #ff7f0e; stroke-width: 1.5; stroke-linecap: square"/>
   </g>
   <g id="patch_3">
    <path d="M 54 252 
L 54 34.56 
" style="fill: none; stroke: #000000; stroke-width: 0.8; stroke-linejoin: miter; stroke-linecap: square"/>
   </g>
   <g id="patch_4">
    <path d="M 388.8 252 
L 388.8 34.56 
" style="fill: none; stroke: #000000; stroke-width: 0.8; stroke-linejoin: miter; stroke-linecap: square"/>
   </g>
   <g id="patch_5">
    <path d="M 54 252 
L 388.8 252 
" style="fill: none; stroke: #000000; stroke-width: 0.8; stroke-linejoin: miter; stroke-linecap: square"/>
   </g>
   <g id="patch_6">
    <path d="M 54 34.56 
L 388.8 34.56 
" style="fill: none; stroke: #000000; stroke-width: 0.8; stroke-linejoin: miter; stroke-linecap: square"/>
   </g>
   <g id="legend_1">
    <g id="patch_7">
     <path d="M 61 71.91625 
L 99.860938 71.91625 
Q 101.860938 71.91625 101.860938 69.91625 
L 101.860938 41.56 
Q 101.860938 39.56 99.860938 39.56 
L 61 39.56 
Q 59 39.56 59 41.56 
L 59 69.91625 
Q 59 71.91625 61 71.91625 
z
" style="fill: #ffffff; opacity: 0.8; stroke: #cccccc; stroke-linejoin: miter"/>
    </g>
    <g id="line2d_15">
     <path d="M 63 47.658437 
L 73 47.658437 
L 83 47.658437 
" style="fill: none; stroke: #1f77b4; stroke-width: 1.5; stroke-linecap: square"/>
    </g>
    <g id="text_15">
     <!-- A -->
     <g transform="translate(91 51.158437) scale(0.1 -0.1)">
      <defs>
       <path id="DejaVuSans-41" d="M 2188 4044 
L 1331 1722 
L 3047 1722 
L 2188 4044 
z
M 1831 4666 
L 2547 4666 
L 4325 0 
L 3669 0 
L 3244 1197 
L 1141 1197 
L 716 0 
L 50 0 
L 1831 4666 
z
" transform="scale(0.015625)"/>
      </defs>
      <use xlink:href="#DejaVuSans-41"/>
     </g>
    </g>
    <g id="line2d_16">
     <path d="M 63 62.336562 
L 73 62.336562 
L 83 62.336562 
" style="fill: none; stroke: #ff7f0e; stroke-width: 1.5; stroke-linecap: square"/>
    </g>
    <g id="text_16">
     <!-- B -->
     <g transform="translate(91 65.836562) scale(0.1 -0.1)">
      <defs>
       <path id="DejaVuSans-42" d="M 1259 2228 
L 1259 519 
L 2272 519 
Q 2781 519 3026 730 
Q 3272 941 3272 1375 
Q 3272 1813 3026 2020 
Q 2781 2228 2272 2228 
L 1259 2228 
z
M 1259 4147 
L 1259 2741 
L 2194 2741 
Q 2656 2741 2882 2914 
Q 3109 3088 3109 3444 
Q 3109 3797 2882 3972 
Q 2656 4147 2194 4147 
L 1259 4147 
z
M 628 4666 
L 2241 4666 
Q 2963 4666 3353 4366 
Q 3744 4066 3744 3513 
Q 3744 3084 3544 2831 
Q 3344 2578 2956 2516 
Q 3422 2416 3680 2098 
Q 3938 1781 3938 1306 
Q 3938 681 3513 340 
Q 3088 0 2303 0 
L 628 0 
L 628 4666 
z
" transform="scale(0.015625)"/>
      </defs>
      <use xlink:href="#DejaVuSans-42"/>
     </g>
    </g>
   </g>
  </g>
 </g>
 <defs>
  <clipPath id="pb98c4b4077">
   <rect x="54" y="34.56" width="334.8" height="217.44"/>
  </clipPath>
 </defs>
</svg>
