<?xml version="1.0" encoding="utf-8" standalone="no"?>
<!DOCTYPE svg PUBLIC "-//W3C//DTD SVG 1.1//EN"
  "http://www.w3.org/Graphics/SVG/1.1/DTD/svg11.dtd">
<svg xmlns:xlink="http://www.w3.org/1999/xlink" width="432pt" height="288pt" viewBox="0 0 432 288" xmlns="http://www.w3.org/2000/svg" version="1.1">
 <metadata>
  <rdf:RDF xmlns:dc="http://purl.org/dc/elements/1.1/" xmlns:cc="http://creativecommons.org/ns#" xmlns:rdf="http://www.w3.org/1999/02/22-rdf-syntax-ns#">
   <cc:Work>
    <dc:type rdf:resource="http://purl.org/dc/dcmitype/StillImage"/>
    <dc:date>2024-10-07T10:27:47.811171</dc:date>
    <dc:format>image/svg+xml</dc:format>
    <dc:creator>
     <cc:Agent>
      <dc:title>Matplotlib v3.9.1, https://matplotlib.org/</dc:title>
     </cc:Agent>
    </dc:creator>
   </cc:Work>
  </rdf:RDF>
 </metadata>
 <defs>
  <style type="text/css">*{stroke-linejoin: round; stroke-linecap: butt}</style>
 </defs>
 <g id="figure_1">
  <g id="patch_1">
   <path d="M 0 288 
L 432 288 
L 432 0 
L 0 0 
z
" style="fill: #ffffff"/>
  </g>
  <g id="axes_1">
   <g id="patch_2">
    <path d="M 54 252 
L 388.8 252 
L 388.8 34.56 
L 54 34.56 
z
" style="fill: #ffffff"/>
   </g>
   <g id="matplotlib.axis_1">
    <g id="xtick_1">
     <g id="line2d_1">
      <defs>
       <path id="m0f5053f132" d="M 0 0 
L 0 3.5 
" style="stroke: #000000; stroke-width: 0.8"/>
      </defs>
      <g>
       <use xlink:href="#m0f5053f132" x="69.218182" y="252" style="stroke: #000000; stroke-width: 0.8"/>
      </g>
     </g>
     <g id="text_1">
      <!-- 0 -->
      <g transform="translate(66.036932 266.598437) scale(0.1 -0.1)">
       <defs>
        <path id="DejaVuSans-30" d="M 2034 4250 
Q 1547 4250 1301 3770 
Q 1056 3291 1056 2328 
Q 1056 1369 1301 889 
Q 1547 409 2034 409 
Q 2525 409 2770 889 
Q 3016 1369 3016 2328 
Q 3016 3291 2770 3770 
Q 2525 4250 2034 4250 
z
M 2034 4750 
Q 2819 4750 3233 4129 
Q 3647 3509 3647 2328 
Q 3647 1150 3233 529 
Q 2819 -91 2034 -91 
Q 1250 -91 836 529 
Q 422 1150 422 2328 
Q 422 3509 836 4129 
Q 1250 4750 2034 4750 
z
" transform="scale(0.015625)"/>
       </defs>
       <use xlink:href="#DejaVuSans-30"/>
      </g>
     </g>
    </g>
    <g id="xtick_2">
     <g id="line2d_2">
      <g>
       <use xlink:href="#m0f5053f132" x="118.245829" y="252" style="stroke: #000000; stroke-width: 0.8"/>
      </g>
     </g>
     <g id="text_2">
      <!-- 20000 -->
      <g transform="translate(102.339579 266.598437) scale(0.1 -0.1)">
       <defs>
        <path id="DejaVuSans-32" d="M 1228 531 
L 3431 531 
L 3431 0 
L 469 0 
L 469 531 
Q 828 903 1448 1529 
Q 2069 2156 2228 2338 
Q 2531 2678 2651 2914 
Q 2772 3150 2772 3378 
Q 2772 3750 2511 3984 
Q 2250 4219 1831 4219 
Q 1534 4219 1204 4116 
Q 875 4013 500 3803 
L 500 4441 
Q 881 4594 1212 4672 
Q 1544 4750 1819 4750 
Q 2544 4750 2975 4387 
Q 3406 4025 3406 3419 
Q 3406 3131 3298 2873 
Q 3191 2616 2906 2266 
Q 2828 2175 2409 1742 
Q 1991 1309 1228 531 
z
" transform="scale(0.015625)"/>
       </defs>
       <use xlink:href="#DejaVuSans-32"/>
       <use xlink:href="#DejaVuSans-30" x="63.623047"/>
       <use xlink:href="#DejaVuSans-30" x="127.246094"/>
       <use xlink:href="#DejaVuSans-30" x="190.869141"/>
       <use xlink:href="#DejaVuSans-30" x="254.492188"/>
      </g>
     </g>
    </g>
    <g id="xtick_3">
     <g id="line2d_3">
      <g>
       <use xlink:href="#m0f5053f132" x="167.273477" y="252" style="stroke: #000000; stroke-width: 0.8"/>
      </g>
     </g>
     <g id="text_3">
      <!-- 40000 -->
      <g transform="translate(151.367227 266.598437) scale(0.1 -0.1)">
       <defs>
        <path id="DejaVuSans-34" d="M 2419 4116 
L 825 1625 
L 2419 1625 
L 2419 4116 
z
M 2253 4666 
L 3047 4666 
L 3047 1625 
L 3713 1625 
L 3713 1100 
L 3047 1100 
L 3047 0 
L 2419 0 
L 2419 1100 
L 313 1100 
L 313 1709 
L 2253 4666 
z
" transform="scale(0.015625)"/>
       </defs>
       <use xlink:href="#DejaVuSans-34"/>
       <use xlink:href="#DejaVuSans-30" x="63.623047"/>
       <use xlink:href="#DejaVuSans-30" x="127.246094"/>
       <use xlink:href="#DejaVuSans-30" x="190.869141"/>
       <use xlink:href="#DejaVuSans-30" x="254.492188"/>
      </g>
     </g>
    </g>
    <g id="xtick_4">
     <g id="line2d_4">
      <g>
       <use xlink:href="#m0f5053f132" x="216.301125" y="252" style="stroke: #000000; stroke-width: 0.8"/>
      </g>
     </g>
     <g id="text_4">
      <!-- 60000 -->
      <g transform="translate(200.394875 266.598437) scale(0.1 -0.1)">
       <defs>
        <path id="DejaVuSans-36" d="M 2113 2584 
Q 1688 2584 1439 2293 
Q 1191 2003 1191 1497 
Q 1191 994 1439 701 
Q 1688 409 2113 409 
Q 2538 409 2786 701 
Q 3034 994 3034 1497 
Q 3034 2003 2786 2293 
Q 2538 2584 2113 2584 
z
M 3366 4563 
L 3366 3988 
Q 3128 4100 2886 4159 
Q 2644 4219 2406 4219 
Q 1781 4219 1451 3797 
Q 1122 3375 1075 2522 
Q 1259 2794 1537 2939 
Q 1816 3084 2150 3084 
Q 2853 3084 3261 2657 
Q 3669 2231 3669 1497 
Q 3669 778 3244 343 
Q 2819 -91 2113 -91 
Q 1303 -91 875 529 
Q 447 1150 447 2328 
Q 447 3434 972 4092 
Q 1497 4750 2381 4750 
Q 2619 4750 2861 4703 
Q 3103 4656 3366 4563 
z
" transform="scale(0.015625)"/>
       </defs>
       <use xlink:href="#DejaVuSans-36"/>
       <use xlink:href="#DejaVuSans-30" x="63.623047"/>
       <use xlink:href="#DejaVuSans-30" x="127.246094"/>
       <use xlink:href="#DejaVuSans-30" x="190.869141"/>
       <use xlink:href="#DejaVuSans-30" x="254.492188"/>
      </g>
     </g>
    </g>
    <g id="xtick_5">
     <g id="line2d_5">
      <g>
       <use xlink:href="#m0f5053f132" x="265.328772" y="252" style="stroke: #000000; stroke-width: 0.8"/>
      </g>
     </g>
     <g id="text_5">
      <!-- 80000 -->
      <g transform="translate(249.422522 266.598437) scale(0.1 -0.1)">
       <defs>
        <path id="DejaVuSans-38" d="M 2034 2216 
Q 1584 2216 1326 1975 
Q 1069 1734 1069 1313 
Q 1069 891 1326 650 
Q 1584 409 2034 409 
Q 2484 409 2743 651 
Q 3003 894 3003 1313 
Q 3003 1734 2745 1975 
Q 2488 2216 2034 2216 
z
M 1403 2484 
Q 997 2584 770 2862 
Q 544 3141 544 3541 
Q 544 4100 942 4425 
Q 1341 4750 2034 4750 
Q 2731 4750 3128 4425 
Q 3525 4100 3525 3541 
Q 3525 3141 3298 2862 
Q 3072 2584 2669 2484 
Q 3125 2378 3379 2068 
Q 3634 1759 3634 1313 
Q 3634 634 3220 271 
Q 2806 -91 2034 -91 
Q 1263 -91 848 271 
Q 434 634 434 1313 
Q 434 1759 690 2068 
Q 947 2378 1403 2484 
z
M 1172 3481 
Q 1172 3119 1398 2916 
Q 1625 2713 2034 2713 
Q 2441 2713 2670 2916 
Q 2900 3119 2900 3481 
Q 2900 3844 2670 4047 
Q 2441 4250 2034 4250 
Q 1625 4250 1398 4047 
Q 1172 3844 1172 3481 
z
" transform="scale(0.015625)"/>
       </defs>
       <use xlink:href="#DejaVuSans-38"/>
       <use xlink:href="#DejaVuSans-30" x="63.623047"/>
       <use xlink:href="#DejaVuSans-30" x="127.246094"/>
       <use xlink:href="#DejaVuSans-30" x="190.869141"/>
       <use xlink:href="#DejaVuSans-30" x="254.492188"/>
      </g>
     </g>
    </g>
    <g id="xtick_6">
     <g id="line2d_6">
      <g>
       <use xlink:href="#m0f5053f132" x="314.35642" y="252" style="stroke: #000000; stroke-width: 0.8"/>
      </g>
     </g>
     <g id="text_6">
      <!-- 100000 -->
      <g transform="translate(295.26892 266.598437) scale(0.1 -0.1)">
       <defs>
        <path id="DejaVuSans-31" d="M 794 531 
L 1825 531 
L 1825 4091 
L 703 3866 
L 703 4441 
L 1819 4666 
L 2450 4666 
L 2450 531 
L 3481 531 
L 3481 0 
L 794 0 
L 794 531 
z
" transform="scale(0.015625)"/>
       </defs>
       <use xlink:href="#DejaVuSans-31"/>
       <use xlink:href="#DejaVuSans-30" x="63.623047"/>
       <use xlink:href="#DejaVuSans-30" x="127.246094"/>
       <use xlink:href="#DejaVuSans-30" x="190.869141"/>
       <use xlink:href="#DejaVuSans-30" x="254.492188"/>
       <use xlink:href="#DejaVuSans-30" x="318.115234"/>
      </g>
     </g>
    </g>
    <g id="xtick_7">
     <g id="line2d_7">
      <g>
       <use xlink:href="#m0f5053f132" x="363.384067" y="252" style="stroke: #000000; stroke-width: 0.8"/>
      </g>
     </g>
     <g id="text_7">
      <!-- 120000 -->
      <g transform="translate(344.296567 266.598437) scale(0.1 -0.1)">
       <use xlink:href="#DejaVuSans-31"/>
       <use xlink:href="#DejaVuSans-32" x="63.623047"/>
       <use xlink:href="#DejaVuSans-30" x="127.246094"/>
       <use xlink:href="#DejaVuSans-30" x="190.869141"/>
       <use xlink:href="#DejaVuSans-30" x="254.492188"/>
       <use xlink:href="#DejaVuSans-30" x="318.115234"/>
      </g>
     </g>
    </g>
    <g id="text_8">
     <!-- Time / s -->
     <g transform="translate(201.699219 280.276563) scale(0.1 -0.1)">
      <defs>
       <path id="DejaVuSans-54" d="M -19 4666 
L 3928 4666 
L 3928 4134 
L 2272 4134 
L 2272 0 
L 1638 0 
L 1638 4134 
L -19 4134 
L -19 4666 
z
" transform="scale(0.015625)"/>
       <path id="DejaVuSans-69" d="M 603 3500 
L 1178 3500 
L 1178 0 
L 603 0 
L 603 3500 
z
M 603 4863 
L 1178 4863 
L 1178 4134 
L 603 4134 
L 603 4863 
z
" transform="scale(0.015625)"/>
       <path id="DejaVuSans-6d" d="M 3328 2828 
Q 3544 3216 3844 3400 
Q 4144 3584 4550 3584 
Q 5097 3584 5394 3201 
Q 5691 2819 5691 2113 
L 5691 0 
L 5113 0 
L 5113 2094 
Q 5113 2597 4934 2840 
Q 4756 3084 4391 3084 
Q 3944 3084 3684 2787 
Q 3425 2491 3425 1978 
L 3425 0 
L 2847 0 
L 2847 2094 
Q 2847 2600 2669 2842 
Q 2491 3084 2119 3084 
Q 1678 3084 1418 2786 
Q 1159 2488 1159 1978 
L 1159 0 
L 581 0 
L 581 3500 
L 1159 3500 
L 1159 2956 
Q 1356 3278 1631 3431 
Q 1906 3584 2284 3584 
Q 2666 3584 2933 3390 
Q 3200 3197 3328 2828 
z
" transform="scale(0.015625)"/>
       <path id="DejaVuSans-65" d="M 3597 1894 
L 3597 1613 
L 953 1613 
Q 991 1019 1311 708 
Q 1631 397 2203 397 
Q 2534 397 2845 478 
Q 3156 559 3463 722 
L 3463 178 
Q 3153 47 2828 -22 
Q 2503 -91 2169 -91 
Q 1331 -91 842 396 
Q 353 884 353 1716 
Q 353 2575 817 3079 
Q 1281 3584 2069 3584 
Q 2775 3584 3186 3129 
Q 3597 2675 3597 1894 
z
M 3022 2063 
Q 3016 2534 2758 2815 
Q 2500 3097 2075 3097 
Q 1594 3097 1305 2825 
Q 1016 2553 972 2059 
L 3022 2063 
z
" transform="scale(0.015625)"/>
       <path id="DejaVuSans-20" transform="scale(0.015625)"/>
       <path id="DejaVuSans-2f" d="M 1625 4666 
L 2156 4666 
L 531 -594 
L 0 -594 
L 1625 4666 
z
" transform="scale(0.015625)"/>
       <path id="DejaVuSans-73" d="M 2834 3397 
L 2834 2853 
Q 2591 2978 2328 3040 
Q 2066 3103 1784 3103 
Q 1356 3103 1142 2972 
Q 928 2841 928 2578 
Q 928 2378 1081 2264 
Q 1234 2150 1697 2047 
L 1894 2003 
Q 2506 1872 2764 1633 
Q 3022 1394 3022 966 
Q 3022 478 2636 193 
Q 2250 -91 1575 -91 
Q 1294 -91 989 -36 
Q 684 19 347 128 
L 347 722 
Q 666 556 975 473 
Q 1284 391 1588 391 
Q 1994 391 2212 530 
Q 2431 669 2431 922 
Q 2431 1156 2273 1281 
Q 2116 1406 1581 1522 
L 1381 1569 
Q 847 1681 609 1914 
Q 372 2147 372 2553 
Q 372 3047 722 3315 
Q 1072 3584 1716 3584 
Q 2034 3584 2315 3537 
Q 2597 3491 2834 3397 
z
" transform="scale(0.015625)"/>
      </defs>
      <use xlink:href="#DejaVuSans-54"/>
      <use xlink:href="#DejaVuSans-69" x="57.958984"/>
      <use xlink:href="#DejaVuSans-6d" x="85.742188"/>
      <use xlink:href="#DejaVuSans-65" x="183.154297"/>
      <use xlink:href="#DejaVuSans-20" x="244.677734"/>
      <use xlink:href="#DejaVuSans-2f" x="276.464844"/>
      <use xlink:href="#DejaVuSans-20" x="310.15625"/>
      <use xlink:href="#DejaVuSans-73" x="341.943359"/>
     </g>
    </g>
   </g>
   <g id="matplotlib.axis_2">
    <g id="ytick_1">
     <g id="line2d_8">
      <defs>
       <path id="mb9fc1568b4" d="M 0 0 
L -3.5 0 
" style="stroke: #000000; stroke-width: 0.8"/>
      </defs>
      <g>
       <use xlink:href="#mb9fc1568b4" x="54" y="242.116364" style="stroke: #000000; stroke-width: 0.8"/>
      </g>
     </g>
     <g id="text_9">
      <!-- 0.0 -->
      <g transform="translate(31.096875 245.915582) scale(0.1 -0.1)">
       <defs>
        <path id="DejaVuSans-2e" d="M 684 794 
L 1344 794 
L 1344 0 
L 684 0 
L 684 794 
z
" transform="scale(0.015625)"/>
       </defs>
       <use xlink:href="#DejaVuSans-30"/>
       <use xlink:href="#DejaVuSans-2e" x="63.623047"/>
       <use xlink:href="#DejaVuSans-30" x="95.410156"/>
      </g>
     </g>
    </g>
    <g id="ytick_2">
     <g id="line2d_9">
      <g>
       <use xlink:href="#mb9fc1568b4" x="54" y="200.218602" style="stroke: #000000; stroke-width: 0.8"/>
      </g>
     </g>
     <g id="text_10">
      <!-- 0.5 -->
      <g transform="translate(31.096875 204.01782) scale(0.1 -0.1)">
       <defs>
        <path id="DejaVuSans-35" d="M 691 4666 
L 3169 4666 
L 3169 4134 
L 1269 4134 
L 1269 2991 
Q 1406 3038 1543 3061 
Q 1681 3084 1819 3084 
Q 2600 3084 3056 2656 
Q 3513 2228 3513 1497 
Q 3513 744 3044 326 
Q 2575 -91 1722 -91 
Q 1428 -91 1123 -41 
Q 819 9 494 109 
L 494 744 
Q 775 591 1075 516 
Q 1375 441 1709 441 
Q 2250 441 2565 725 
Q 2881 1009 2881 1497 
Q 2881 1984 2565 2268 
Q 2250 2553 1709 2553 
Q 1456 2553 1204 2497 
Q 953 2441 691 2322 
L 691 4666 
z
" transform="scale(0.015625)"/>
       </defs>
       <use xlink:href="#DejaVuSans-30"/>
       <use xlink:href="#DejaVuSans-2e" x="63.623047"/>
       <use xlink:href="#DejaVuSans-35" x="95.410156"/>
      </g>
     </g>
    </g>
    <g id="ytick_3">
     <g id="line2d_10">
      <g>
       <use xlink:href="#mb9fc1568b4" x="54" y="158.32084" style="stroke: #000000; stroke-width: 0.8"/>
      </g>
     </g>
     <g id="text_11">
      <!-- 1.0 -->
      <g transform="translate(31.096875 162.120059) scale(0.1 -0.1)">
       <use xlink:href="#DejaVuSans-31"/>
       <use xlink:href="#DejaVuSans-2e" x="63.623047"/>
       <use xlink:href="#DejaVuSans-30" x="95.410156"/>
      </g>
     </g>
    </g>
    <g id="ytick_4">
     <g id="line2d_11">
      <g>
       <use xlink:href="#mb9fc1568b4" x="54" y="116.423078" style="stroke: #000000; stroke-width: 0.8"/>
      </g>
     </g>
     <g id="text_12">
      <!-- 1.5 -->
      <g transform="translate(31.096875 120.222297) scale(0.1 -0.1)">
       <use xlink:href="#DejaVuSans-31"/>
       <use xlink:href="#DejaVuSans-2e" x="63.623047"/>
       <use xlink:href="#DejaVuSans-35" x="95.410156"/>
      </g>
     </g>
    </g>
    <g id="ytick_5">
     <g id="line2d_12">
      <g>
       <use xlink:href="#mb9fc1568b4" x="54" y="74.525316" style="stroke: #000000; stroke-width: 0.8"/>
      </g>
     </g>
     <g id="text_13">
      <!-- 2.0 -->
      <g transform="translate(31.096875 78.324535) scale(0.1 -0.1)">
       <use xlink:href="#DejaVuSans-32"/>
       <use xlink:href="#DejaVuSans-2e" x="63.623047"/>
       <use xlink:href="#DejaVuSans-30" x="95.410156"/>
      </g>
     </g>
    </g>
    <g id="text_14">
     <!-- Concentration / mM -->
     <g transform="translate(25.017187 192.697969) rotate(-90) scale(0.1 -0.1)">
      <defs>
       <path id="DejaVuSans-43" d="M 4122 4306 
L 4122 3641 
Q 3803 3938 3442 4084 
Q 3081 4231 2675 4231 
Q 1875 4231 1450 3742 
Q 1025 3253 1025 2328 
Q 1025 1406 1450 917 
Q 1875 428 2675 428 
Q 3081 428 3442 575 
Q 3803 722 4122 1019 
L 4122 359 
Q 3791 134 3420 21 
Q 3050 -91 2638 -91 
Q 1578 -91 968 557 
Q 359 1206 359 2328 
Q 359 3453 968 4101 
Q 1578 4750 2638 4750 
Q 3056 4750 3426 4639 
Q 3797 4528 4122 4306 
z
" transform="scale(0.015625)"/>
       <path id="DejaVuSans-6f" d="M 1959 3097 
Q 1497 3097 1228 2736 
Q 959 2375 959 1747 
Q 959 1119 1226 758 
Q 1494 397 1959 397 
Q 2419 397 2687 759 
Q 2956 1122 2956 1747 
Q 2956 2369 2687 2733 
Q 2419 3097 1959 3097 
z
M 1959 3584 
Q 2709 3584 3137 3096 
Q 3566 2609 3566 1747 
Q 3566 888 3137 398 
Q 2709 -91 1959 -91 
Q 1206 -91 779 398 
Q 353 888 353 1747 
Q 353 2609 779 3096 
Q 1206 3584 1959 3584 
z
" transform="scale(0.015625)"/>
       <path id="DejaVuSans-6e" d="M 3513 2113 
L 3513 0 
L 2938 0 
L 2938 2094 
Q 2938 2591 2744 2837 
Q 2550 3084 2163 3084 
Q 1697 3084 1428 2787 
Q 1159 2491 1159 1978 
L 1159 0 
L 581 0 
L 581 3500 
L 1159 3500 
L 1159 2956 
Q 1366 3272 1645 3428 
Q 1925 3584 2291 3584 
Q 2894 3584 3203 3211 
Q 3513 2838 3513 2113 
z
" transform="scale(0.015625)"/>
       <path id="DejaVuSans-63" d="M 3122 3366 
L 3122 2828 
Q 2878 2963 2633 3030 
Q 2388 3097 2138 3097 
Q 1578 3097 1268 2742 
Q 959 2388 959 1747 
Q 959 1106 1268 751 
Q 1578 397 2138 397 
Q 2388 397 2633 464 
Q 2878 531 3122 666 
L 3122 134 
Q 2881 22 2623 -34 
Q 2366 -91 2075 -91 
Q 1284 -91 818 406 
Q 353 903 353 1747 
Q 353 2603 823 3093 
Q 1294 3584 2113 3584 
Q 2378 3584 2631 3529 
Q 2884 3475 3122 3366 
z
" transform="scale(0.015625)"/>
       <path id="DejaVuSans-74" d="M 1172 4494 
L 1172 3500 
L 2356 3500 
L 2356 3053 
L 1172 3053 
L 1172 1153 
Q 1172 725 1289 603 
Q 1406 481 1766 481 
L 2356 481 
L 2356 0 
L 1766 0 
Q 1100 0 847 248 
Q 594 497 594 1153 
L 594 3053 
L 172 3053 
L 172 3500 
L 594 3500 
L 594 4494 
L 1172 4494 
z
" transform="scale(0.015625)"/>
       <path id="DejaVuSans-72" d="M 2631 2963 
Q 2534 3019 2420 3045 
Q 2306 3072 2169 3072 
Q 1681 3072 1420 2755 
Q 1159 2438 1159 1844 
L 1159 0 
L 581 0 
L 581 3500 
L 1159 3500 
L 1159 2956 
Q 1341 3275 1631 3429 
Q 1922 3584 2338 3584 
Q 2397 3584 2469 3576 
Q 2541 3569 2628 3553 
L 2631 2963 
z
" transform="scale(0.015625)"/>
       <path id="DejaVuSans-61" d="M 2194 1759 
Q 1497 1759 1228 1600 
Q 959 1441 959 1056 
Q 959 750 1161 570 
Q 1363 391 1709 391 
Q 2188 391 2477 730 
Q 2766 1069 2766 1631 
L 2766 1759 
L 2194 1759 
z
M 3341 1997 
L 3341 0 
L 2766 0 
L 2766 531 
Q 2569 213 2275 61 
Q 1981 -91 1556 -91 
Q 1019 -91 701 211 
Q 384 513 384 1019 
Q 384 1609 779 1909 
Q 1175 2209 1959 2209 
L 2766 2209 
L 2766 2266 
Q 2766 2663 2505 2880 
Q 2244 3097 1772 3097 
Q 1472 3097 1187 3025 
Q 903 2953 641 2809 
L 641 3341 
Q 956 3463 1253 3523 
Q 1550 3584 1831 3584 
Q 2591 3584 2966 3190 
Q 3341 2797 3341 1997 
z
" transform="scale(0.015625)"/>
       <path id="DejaVuSans-4d" d="M 628 4666 
L 1569 4666 
L 2759 1491 
L 3956 4666 
L 4897 4666 
L 4897 0 
L 4281 0 
L 4281 4097 
L 3078 897 
L 2444 897 
L 1241 4097 
L 1241 0 
L 628 0 
L 628 4666 
z
" transform="scale(0.015625)"/>
      </defs>
      <use xlink:href="#DejaVuSans-43"/>
      <use xlink:href="#DejaVuSans-6f" x="69.824219"/>
      <use xlink:href="#DejaVuSans-6e" x="131.005859"/>
      <use xlink:href="#DejaVuSans-63" x="194.384766"/>
      <use xlink:href="#DejaVuSans-65" x="249.365234"/>
      <use xlink:href="#DejaVuSans-6e" x="310.888672"/>
      <use xlink:href="#DejaVuSans-74" x="374.267578"/>
      <use xlink:href="#DejaVuSans-72" x="413.476562"/>
      <use xlink:href="#DejaVuSans-61" x="454.589844"/>
      <use xlink:href="#DejaVuSans-74" x="515.869141"/>
      <use xlink:href="#DejaVuSans-69" x="555.078125"/>
      <use xlink:href="#DejaVuSans-6f" x="582.861328"/>
      <use xlink:href="#DejaVuSans-6e" x="644.042969"/>
      <use xlink:href="#DejaVuSans-20" x="707.421875"/>
      <use xlink:href="#DejaVuSans-2f" x="739.208984"/>
      <use xlink:href="#DejaVuSans-20" x="772.900391"/>
      <use xlink:href="#DejaVuSans-6d" x="804.6875"/>
      <use xlink:href="#DejaVuSans-4d" x="902.099609"/>
     </g>
    </g>
   </g>
   <g id="line2d_13">
    <path d="M 69.218182 242.116364 
L 111.053474 242.005356 
L 111.068182 242.001546 
L 111.180945 242.116364 
L 114.75261 242.005723 
L 114.872727 241.97148 
L 114.985491 242.116364 
L 118.466454 242.005655 
L 118.677273 241.94004 
L 118.790036 242.116364 
L 122.192555 242.005412 
L 122.481818 241.907932 
L 122.594582 242.116364 
L 125.928462 242.005255 
L 126.286364 241.875754 
L 126.399127 242.116364 
L 129.671723 242.005474 
L 130.090909 241.843996 
L 130.203673 242.116364 
L 133.422338 242.005767 
L 133.895455 241.813042 
L 134.008218 242.116364 
L 137.180307 242.005859 
L 137.7 241.783183 
L 137.812764 242.116364 
L 140.94563 242.005506 
L 141.504545 241.754628 
L 141.617309 242.116363 
L 144.713405 242.005799 
L 145.299285 241.734555 
L 145.309091 241.727517 
L 145.421854 242.116363 
L 148.488534 242.005258 
L 149.069511 241.734497 
L 149.113636 241.701933 
L 149.2264 242.116363 
L 152.263663 242.005703 
L 152.84464 241.733616 
L 152.918182 241.677915 
L 153.030945 242.116361 
L 156.043694 242.005687 
L 156.622221 241.733357 
L 156.722727 241.655467 
L 156.835491 242.116359 
L 159.826177 242.005761 
L 160.402252 241.733452 
L 160.527273 241.634564 
L 160.640036 242.116353 
L 163.611112 242.00583 
L 164.184735 241.73366 
L 164.331818 241.615165 
L 164.444582 242.116344 
L 167.398498 242.005812 
L 167.96967 241.733767 
L 168.136364 241.597209 
L 168.249127 242.11633 
L 171.188335 242.005632 
L 171.757055 241.733581 
L 171.940909 241.580631 
L 172.053673 242.116307 
L 174.978172 242.005905 
L 175.546893 241.73293 
L 175.745455 241.565354 
L 175.858218 242.116275 
L 178.77046 242.005901 
L 179.33673 241.733457 
L 179.55 241.551303 
L 179.662764 242.116231 
L 182.5652 242.005569 
L 183.129018 241.73324 
L 183.354545 241.538397 
L 183.467309 242.116174 
L 186.35994 242.005547 
L 186.923758 241.732156 
L 187.159091 241.526559 
L 187.271854 242.116103 
L 190.15468 242.005802 
L 190.716047 241.733711 
L 190.963636 241.515711 
L 191.0764 242.116017 
L 193.951871 242.005615 
L 194.513238 241.732398 
L 194.768182 241.505779 
L 194.880945 242.115917 
L 197.749063 242.005641 
L 198.307978 241.733558 
L 198.572727 241.496692 
L 198.685491 242.115802 
L 201.548705 242.005167 
L 202.107621 241.731683 
L 202.377273 241.488381 
L 202.490036 242.115675 
L 205.345897 242.00555 
L 205.902361 241.733972 
L 206.181818 241.480784 
L 206.294582 242.115538 
L 209.145539 242.005391 
L 209.702003 241.7331 
L 209.986364 241.47384 
L 210.099127 242.115391 
L 212.945182 242.005364 
L 213.501646 241.732649 
L 213.790909 241.467493 
L 213.903673 242.115238 
L 216.747276 242.00476 
L 217.301289 241.732578 
L 217.595455 241.461693 
L 217.708218 242.115082 
L 220.546919 242.004955 
L 221.100931 241.732848 
L 221.4 241.456392 
L 221.512764 242.114923 
L 224.349013 242.004549 
L 224.903025 241.731595 
L 225.204545 241.451547 
L 225.317309 242.114764 
L 228.151107 242.004229 
L 228.705119 241.730616 
L 229.009091 241.447118 
L 229.121854 242.114608 
L 231.953201 242.003987 
L 232.504762 241.731721 
L 232.813636 241.44307 
L 232.9264 242.114455 
L 235.755295 242.003817 
L 236.306856 241.731218 
L 236.618182 241.439368 
L 236.730945 242.114308 
L 239.557389 242.003714 
L 240.10895 241.730919 
L 240.422727 241.435984 
L 240.535491 242.114166 
L 243.359483 242.003671 
L 243.911044 241.730806 
L 244.227273 241.43289 
L 244.340036 242.114032 
L 247.161577 242.003686 
L 247.713138 241.730863 
L 248.031818 241.430061 
L 248.144582 242.113905 
L 250.963672 242.003754 
L 251.515233 241.731074 
L 251.836364 241.427474 
L 251.949127 242.113786 
L 254.768217 242.003171 
L 255.319778 241.729585 
L 255.640909 241.42511 
L 255.753673 242.113675 
L 258.570311 242.003335 
L 259.121872 241.730067 
L 259.445455 241.422949 
L 259.558218 242.113573 
L 262.374856 242.002841 
L 262.923966 241.730667 
L 263.25 241.420974 
L 263.362764 242.113478 
L 266.176951 242.003088 
L 266.72606 241.731373 
L 267.054545 241.419169 
L 267.167309 242.113391 
L 269.981496 242.002671 
L 270.530606 241.730338 
L 270.859091 241.417521 
L 270.971854 242.113311 
L 273.78359 242.00299 
L 274.3327 241.731234 
L 274.663636 241.416016 
L 274.7764 242.113238 
L 277.588136 242.002641 
L 278.137245 241.730372 
L 278.468182 241.414642 
L 278.580945 242.113172 
L 281.392681 242.002321 
L 281.941791 241.729585 
L 282.272727 241.413389 
L 282.385491 242.113112 
L 285.194775 242.00273 
L 285.743885 241.730711 
L 286.077273 241.412245 
L 286.190036 242.113058 
L 288.999321 242.002464 
L 289.54843 241.730057 
L 289.881818 241.411201 
L 289.994582 242.11301 
L 292.803866 242.002221 
L 293.352976 241.72946 
L 293.686364 241.41025 
L 293.799127 242.112966 
L 296.608411 242.002 
L 297.157521 241.728917 
L 297.490909 241.409383 
L 297.603673 242.112927 
L 300.410506 242.0025 
L 300.959615 241.730268 
L 301.295455 241.408593 
L 301.408218 242.112891 
L 304.215051 242.002318 
L 304.764161 241.729818 
L 305.1 241.407873 
L 305.212764 242.11286 
L 308.019596 242.002151 
L 308.568706 241.729409 
L 308.904545 241.407217 
L 309.017309 242.112832 
L 311.824142 242.002001 
L 312.373252 241.729036 
L 312.709091 241.40662 
L 312.821854 242.112807 
L 315.628687 242.001864 
L 316.177797 241.728697 
L 316.513636 241.406077 
L 316.6264 242.112784 
L 319.433233 242.001739 
L 319.982342 241.728388 
L 320.318182 241.405583 
L 320.430945 242.112764 
L 323.235327 242.002329 
L 323.784437 241.729956 
L 324.122727 241.405133 
L 324.235491 242.112746 
L 327.039872 242.002227 
L 327.588982 241.729702 
L 327.927273 241.404723 
L 328.040036 242.112731 
L 330.844418 242.002135 
L 331.393527 241.729471 
L 331.731818 241.404351 
L 331.844582 242.112717 
L 334.648963 242.002052 
L 335.198073 241.729262 
L 335.536364 241.404013 
L 335.649127 242.112704 
L 338.453509 242.001976 
L 339.002618 241.729071 
L 339.340909 241.403705 
L 339.453673 242.112693 
L 342.258054 242.001908 
L 342.807164 241.728898 
L 343.145455 241.403425 
L 343.258218 242.112683 
L 346.0626 242.001846 
L 346.611709 241.728741 
L 346.95 241.403171 
L 347.062764 242.112675 
L 349.867145 242.00179 
L 350.416255 241.728598 
L 350.754545 241.40294 
L 350.867309 242.112667 
L 353.67169 242.001739 
L 354.2208 241.728469 
L 354.559091 241.40273 
L 354.671854 242.11266 
L 357.476236 242.001693 
L 358.025346 241.728351 
L 358.363636 241.402539 
L 358.4764 242.112654 
L 361.280781 242.001652 
L 361.829891 241.728244 
L 362.168182 241.402366 
L 362.280945 242.112649 
L 365.085327 242.001615 
L 365.634437 241.728147 
L 365.972727 241.402208 
L 366.085491 242.112644 
L 368.889872 242.001581 
L 369.438982 241.72806 
L 369.777273 241.402065 
L 369.890036 242.11264 
L 372.694418 242.00155 
L 373.243527 241.72798 
L 373.581818 241.401935 
L 373.581818 241.401935 
" clip-path="url(#p26e7ce8328)" style="fill: none; stroke: #1f77b4; stroke-width: 1.5; stroke-linecap: square"/>
   </g>
   <g id="line2d_14">
    <path d="M 69.218182 242.116364 
L 76.493885 242.005867 
L 76.775794 241.728486 
L 76.827273 241.639986 
L 76.940036 242.116364 
L 79.273752 242.006217 
L 79.589981 241.728587 
L 79.866987 241.15572 
L 80.15625 239.984415 
L 80.47493 237.658542 
L 80.631818 235.991615 
L 80.744582 242.116358 
L 82.264439 242.005888 
L 82.578216 241.734337 
L 82.847868 241.169662 
L 83.132228 239.9867 
L 83.458262 237.55976 
L 83.84558 232.821924 
L 84.308892 224.153025 
L 84.436364 221.176065 
L 84.438815 242.115757 
L 84.549127 242.115151 
L 85.421819 241.998161 
L 85.730694 241.718909 
L 85.997894 241.139305 
L 86.277352 239.927278 
L 86.588677 237.452112 
L 86.953933 232.52945 
L 87.429502 222.709477 
L 88.123243 203.237067 
L 88.240909 199.498001 
L 88.24336 242.101275 
L 88.353673 242.090614 
L 88.807178 241.922663 
L 89.086636 241.565641 
L 89.348934 240.822212 
L 89.628392 239.275093 
L 89.942168 236.135922 
L 90.312327 229.933787 
L 90.787895 217.762918 
L 91.716969 186.676336 
L 92.045455 175.309905 
L 92.047906 241.996874 
L 92.158218 241.931355 
L 92.435224 241.588591 
L 92.692619 240.871467 
L 92.964723 239.37045 
L 93.268694 236.282113 
L 93.621693 230.133589 
L 94.062942 218.088822 
L 94.771392 191.506333 
L 95.85 151.867575 
L 95.852451 241.616148 
L 95.962764 241.391703 
L 96.217707 240.468228 
L 96.494714 238.509839 
L 96.803588 234.531869 
L 97.166392 226.623462 
L 97.632155 210.96988 
L 98.605354 168.208993 
L 99.421664 137.992309 
L 99.654545 130.954811 
L 99.656997 240.702971 
L 99.767309 240.165875 
L 100.039412 237.95223 
L 100.348287 233.387648 
L 100.711091 224.319604 
L 101.179305 206.325492 
L 103.223758 119.370377 
L 103.459091 113.309561 
L 103.461542 239.035937 
L 103.571854 238.020248 
L 103.86602 233.694268 
L 104.214117 224.904441 
L 104.652914 207.467209 
L 105.454516 164.407726 
L 106.25857 126.497704 
L 106.864061 107.856516 
L 107.263636 99.009432 
L 107.266088 236.508833 
L 107.3764 234.875181 
L 107.697531 227.529421 
L 108.092204 212.783403 
L 108.665827 181.673007 
L 109.786109 120.891305 
L 110.359732 101.925156 
L 110.933356 89.945283 
L 111.068182 87.748535 
L 111.070633 233.148758 
L 111.180945 230.807575 
L 111.52659 219.826072 
L 111.980096 197.418269 
L 113.745091 101.341007 
L 114.269687 88.230234 
L 114.828602 79.58928 
L 114.872727 79.04446 
L 114.875179 229.087759 
L 114.985491 226.004949 
L 115.358101 210.823451 
L 115.892502 178.613892 
L 117.037298 108.454009 
L 117.566797 89.961815 
L 118.064427 79.744962 
L 118.598828 73.137466 
L 118.677273 72.381114 
L 118.679724 224.517159 
L 118.790036 220.707489 
L 119.189612 201.072535 
L 119.868645 154.402894 
L 120.653087 105.751867 
L 121.170329 86.424716 
L 121.645897 76.200059 
L 122.133722 70.168993 
L 122.481818 67.290028 
L 122.48427 219.644692 
L 122.594582 215.159188 
L 123.023574 190.869732 
L 124.685611 87.268507 
L 125.153825 75.113017 
L 125.609782 68.547926 
L 126.10251 64.486893 
L 126.286364 63.38385 
L 126.288815 214.663307 
L 126.399127 209.575404 
L 126.859987 180.553869 
L 128.205796 90.548947 
L 128.678913 75.273397 
L 129.120162 67.516994 
L 129.568765 63.23711 
L 130.081104 60.403437 
L 130.090909 60.360317 
L 130.09336 209.733183 
L 130.203673 204.126538 
L 130.698852 170.387334 
L 131.821585 92.172066 
L 132.297153 74.716137 
L 132.731048 66.132772 
L 133.157588 61.688053 
L 133.618448 59.062679 
L 133.895455 57.99194 
L 133.897906 204.974883 
L 134.008218 198.934114 
L 134.540168 160.553352 
L 135.506013 92.04604 
L 135.984032 73.372738 
L 136.410573 64.488392 
L 136.824856 60.042757 
L 137.258751 57.596337 
L 137.7 56.111131 
L 137.702451 200.470263 
L 137.812764 194.074817 
L 138.386387 150.964954 
L 139.234565 90.743327 
L 139.710134 71.704001 
L 140.12932 62.831717 
L 140.533798 58.496798 
L 140.950533 56.220052 
L 141.438358 54.748784 
L 141.504545 54.595765 
L 141.506997 196.267764 
L 141.617309 189.588492 
L 142.237509 141.677898 
L 142.999889 88.349519 
L 143.468103 69.750551 
L 143.882386 61.135866 
L 144.27951 57.029294 
L 144.683988 54.949065 
L 145.1473 53.677257 
L 145.309091 53.35713 
L 145.311542 192.389493 
L 145.421854 185.487247 
L 146.100887 132.129132 
L 146.789726 85.375511 
L 147.250586 67.63098 
L 147.659967 59.482897 
L 148.049736 55.68685 
L 148.444409 53.811996 
L 148.893012 52.705067 
L 149.113636 52.330629 
L 149.116088 188.838334 
L 149.2264 181.763922 
L 149.98878 121.425982 
L 150.613882 81.317606 
L 151.064937 65.123303 
L 151.466963 57.779045 
L 151.849379 54.409218 
L 152.239149 52.762628 
L 152.682849 51.809749 
L 152.918182 51.468927 
L 152.920633 185.604177 
L 153.030945 178.39911 
L 154.724851 67.168573 
L 155.13178 58.242032 
L 155.514196 54.186694 
L 155.891709 52.304415 
L 156.30109 51.316199 
L 156.722727 50.737018 
L 156.725179 182.668884 
L 156.835491 175.366511 
L 158.46566 67.378666 
L 158.875041 57.891263 
L 159.255005 53.645686 
L 159.627615 51.711645 
L 160.022288 50.746524 
L 160.52237 50.113541 
L 160.527273 50.108732 
L 160.529724 180.009993 
L 160.640036 172.636745 
L 162.218727 67.499412 
L 162.630559 57.549949 
L 163.008072 53.158069 
L 163.375779 51.184912 
L 163.758195 50.236496 
L 164.22886 49.655972 
L 164.331818 49.564269 
L 164.33427 177.603309 
L 164.444582 170.179912 
L 165.979147 67.621459 
L 166.390979 57.297117 
L 166.768492 52.734745 
L 167.131297 50.724162 
L 167.506358 49.778709 
L 167.954961 49.236241 
L 168.136364 49.088464 
L 168.138815 175.424625 
L 168.249127 167.967181 
L 169.746922 67.694045 
L 170.161205 57.017822 
L 170.538718 52.334541 
L 170.899072 50.296862 
L 171.266779 49.362984 
L 171.700674 48.849304 
L 171.940909 48.66956 
L 171.94336 173.450777 
L 172.053673 165.971691 
L 173.522051 67.673921 
L 173.938786 56.724932 
L 174.316299 51.958719 
L 174.676652 49.899247 
L 175.039456 48.980662 
L 175.461094 48.494436 
L 175.745455 48.298327 
L 175.747906 171.660233 
L 175.858218 164.168992 
L 177.302082 67.61493 
L 177.718817 56.485039 
L 178.09633 51.633899 
L 178.454232 49.557671 
L 178.814585 48.640765 
L 179.226418 48.174614 
L 179.55 47.967437 
L 179.552451 170.033374 
L 179.662764 162.537167 
L 181.084565 67.582133 
L 181.503752 56.237742 
L 181.881265 51.328459 
L 182.236715 49.245863 
L 182.592166 48.336942 
L 182.996644 47.88503 
L 183.354545 47.671005 
L 183.356997 168.552557 
L 183.467309 161.056787 
L 184.8695 67.557426 
L 185.288686 56.060444 
L 185.666199 51.075074 
L 186.021649 48.966223 
L 186.374649 48.059866 
L 186.771772 47.621648 
L 187.159091 47.404257 
L 187.161542 167.20207 
L 187.271854 159.710746 
L 188.656886 67.525489 
L 189.076072 55.897726 
L 189.453585 50.84556 
L 189.809035 48.713144 
L 190.159583 47.809152 
L 190.549353 47.382772 
L 190.963636 47.163278 
L 190.966088 165.968003 
L 191.0764 158.484056 
L 192.449174 67.380512 
L 192.870812 55.646721 
L 193.248325 50.590318 
L 193.601324 48.472504 
L 193.94942 47.577052 
L 194.334287 47.161962 
L 194.768182 46.944829 
L 194.770633 164.838087 
L 194.880945 157.363616 
L 196.241463 67.296939 
L 196.6631 55.486484 
L 197.040613 50.390073 
L 197.393612 48.259129 
L 197.741709 47.36445 
L 198.124124 46.95853 
L 198.572727 46.746205 
L 198.575179 163.80153 
L 198.685491 156.337992 
L 200.036203 67.173646 
L 200.45784 55.317863 
L 200.835353 50.197555 
L 201.188352 48.060322 
L 201.533997 47.172606 
L 201.91151 46.775216 
L 202.377273 46.565128 
L 202.379724 162.848845 
L 202.490036 155.397203 
L 203.830942 67.097074 
L 204.25258 55.183024 
L 204.630093 50.030859 
L 204.983092 47.882704 
L 205.328737 46.99526 
L 205.703799 46.605139 
L 206.181818 46.399665 
L 206.18427 161.971689 
L 206.294582 154.53253 
L 207.625682 67.061851 
L 208.049772 55.030403 
L 208.427284 49.865108 
L 208.777832 47.72394 
L 209.121026 46.838288 
L 209.493636 46.45143 
L 209.986364 46.248162 
L 209.988815 161.162723 
L 210.099127 153.736345 
L 211.422874 66.968861 
L 211.846963 54.903993 
L 212.224476 49.719582 
L 212.575023 47.5725 
L 212.918217 46.688218 
L 213.288376 46.307894 
L 213.790909 46.109194 
L 213.79336 160.415477 
L 213.903673 153.001961 
L 215.222516 66.813581 
L 215.646606 54.753067 
L 216.024118 49.570093 
L 216.374666 47.426608 
L 216.715408 46.551424 
L 217.083116 46.176394 
L 217.595455 45.981523 
L 217.597906 159.724241 
L 217.708218 152.323501 
L 219.019708 66.781496 
L 219.443797 54.670794 
L 219.82131 49.458781 
L 220.171857 47.303736 
L 220.5126 46.426602 
L 220.877856 46.055783 
L 221.4 45.86407 
L 221.402451 159.083958 
L 221.512764 151.695789 
L 222.81935 66.680512 
L 223.24344 54.559217 
L 223.620952 49.339932 
L 223.9715 47.18357 
L 224.312242 46.308745 
L 224.677498 45.9421 
L 225.204545 45.755887 
L 225.206997 158.490143 
L 225.317309 151.114249 
L 226.618993 66.602626 
L 227.045534 54.416303 
L 227.423047 49.212056 
L 227.773594 47.064967 
L 228.111885 46.200737 
L 228.47469 45.838919 
L 228.999285 45.658121 
L 229.009091 45.656134 
L 229.011542 157.938803 
L 229.121854 150.574825 
L 230.418636 66.545608 
L 230.845176 54.336531 
L 231.222689 49.118118 
L 231.573237 46.965862 
L 231.911528 46.101686 
L 232.271881 45.743952 
L 232.791574 45.568319 
L 232.813636 45.564067 
L 232.816088 157.426377 
L 232.9264 150.07391 
L 234.22073 66.412566 
L 234.64727 54.222365 
L 235.024783 49.012822 
L 235.375331 46.866421 
L 235.713622 46.006992 
L 236.073975 45.653656 
L 236.593668 45.483493 
L 236.618182 45.47902 
L 236.620633 156.949675 
L 236.730945 149.608286 
L 238.020373 66.391553 
L 238.446913 54.168718 
L 238.824426 48.939421 
L 239.174974 46.78474 
L 239.513264 45.923573 
L 239.871166 45.57308 
L 240.385957 45.40682 
L 240.422727 45.400399 
L 240.425179 156.505833 
L 240.535491 149.175071 
L 241.822467 66.291235 
L 242.249007 54.078249 
L 242.62652 48.852804 
L 242.977068 46.701211 
L 243.315358 45.843195 
L 243.67326 45.496018 
L 244.188051 45.334177 
L 244.227273 45.327665 
L 244.229724 156.092275 
L 244.340036 148.771679 
L 245.624561 66.20519 
L 246.051101 53.998108 
L 246.428614 48.774339 
L 246.77671 46.634094 
L 247.11255 45.776657 
L 247.468 45.428906 
L 247.975436 45.269367 
L 248.031818 45.260334 
L 248.03427 155.70667 
L 248.144582 148.395781 
L 249.424203 66.227148 
L 249.850744 53.975677 
L 250.228257 48.725541 
L 250.576353 46.573398 
L 250.912192 45.712087 
L 251.267643 45.36434 
L 251.772628 45.207763 
L 251.836364 45.197965 
L 251.838815 155.346909 
L 251.949127 148.045269 
L 253.226297 66.166104 
L 253.652838 53.913656 
L 254.030351 48.661393 
L 254.378447 46.509053 
L 254.714287 45.648993 
L 255.069737 45.303301 
L 255.57227 45.150286 
L 255.640909 45.140158 
L 255.64336 155.011076 
L 255.753673 147.718235 
L 257.028392 66.116074 
L 257.454932 53.859599 
L 257.832445 48.60354 
L 258.180541 46.450095 
L 258.516381 45.590768 
L 258.86938 45.248148 
L 259.369462 45.097356 
L 259.445455 45.08655 
L 259.447906 154.697426 
L 259.558218 147.412945 
L 260.832937 65.981227 
L 261.259478 53.76452 
L 261.63699 48.529233 
L 261.985087 46.386595 
L 262.320926 45.53325 
L 262.673925 45.194445 
L 263.176459 45.046809 
L 263.25 45.036807 
L 263.252451 154.404365 
L 263.362764 147.127816 
L 264.635031 65.950654 
L 265.061572 53.724497 
L 265.439084 48.48248 
L 265.787181 46.337159 
L 266.12302 45.48364 
L 266.476019 45.145941 
L 266.976101 45.000924 
L 267.054545 44.990626 
L 267.056997 154.130434 
L 267.167309 146.861406 
L 268.437125 65.928715 
L 268.866117 53.642446 
L 269.24363 48.418452 
L 269.591726 46.282463 
L 269.927566 45.43409 
L 270.280565 45.099658 
L 270.780647 44.957639 
L 270.859091 44.947729 
L 270.861542 153.874294 
L 270.971854 146.612389 
L 272.239219 65.914764 
L 272.668211 53.614333 
L 273.045724 48.381113 
L 273.39382 46.241102 
L 273.72966 45.391792 
L 274.082659 45.057963 
L 274.582741 44.917735 
L 274.663636 44.907859 
L 274.666088 153.634716 
L 274.7764 146.379552 
L 276.043765 65.8133 
L 276.472757 53.543343 
L 276.850269 48.325807 
L 277.198366 46.193886 
L 277.531754 45.35273 
L 277.882301 45.020588 
L 278.379932 44.881269 
L 278.468182 44.870784 
L 278.470633 153.410565 
L 278.580945 146.161778 
L 279.845859 65.813528 
L 280.274851 53.525393 
L 280.652364 48.296487 
L 281.00046 46.159395 
L 281.333848 45.316657 
L 281.684396 44.984679 
L 282.179575 44.847055 
L 282.272727 44.836289 
L 282.275179 153.200797 
L 282.385491 145.958035 
L 283.647953 65.820132 
L 284.076945 53.51201 
L 284.454458 48.270754 
L 284.802554 46.127965 
L 285.135942 45.283346 
L 285.48649 44.951343 
L 285.981669 44.814911 
L 286.077273 44.804177 
L 286.079724 153.004444 
L 286.190036 145.767374 
L 287.452498 65.737713 
L 287.88149 53.454582 
L 288.259003 48.226136 
L 288.607099 46.089917 
L 288.940487 45.248856 
L 289.291035 44.919092 
L 289.786214 44.78468 
L 289.881818 44.774267 
L 289.88427 152.820612 
L 289.994582 145.588915 
L 291.254592 65.755641 
L 291.683584 53.449273 
L 292.061097 48.206749 
L 292.409193 46.06391 
L 292.742581 45.220453 
L 293.093129 44.890332 
L 293.585857 44.757098 
L 293.686364 44.746394 
L 293.688815 152.648471 
L 293.799127 145.421845 
L 295.059138 65.683774 
L 295.48813 53.399323 
L 295.865643 48.167997 
L 296.213739 46.030884 
L 296.547127 45.190514 
L 296.897675 44.862322 
L 297.392854 44.730531 
L 297.490909 44.720404 
L 297.49336 152.487252 
L 297.603673 145.265408 
L 298.861232 65.711491 
L 299.290224 53.400966 
L 299.667737 48.154057 
L 300.015833 46.009526 
L 300.349221 45.166314 
L 300.697317 44.838763 
L 301.187594 44.707158 
L 301.295455 44.696159 
L 301.297906 152.336238 
L 301.408218 145.118904 
L 302.665777 65.648723 
L 303.094769 53.357435 
L 303.472282 48.120332 
L 303.820378 45.980799 
L 304.153766 45.140269 
L 304.501863 44.814378 
L 304.992139 44.68426 
L 305.1 44.673529 
L 305.102451 152.194767 
L 305.212764 144.981682 
L 306.470323 65.590097 
L 306.899315 53.31681 
L 307.276828 48.088873 
L 307.624924 45.954 
L 307.958312 45.115964 
L 308.306408 44.791619 
L 308.796685 44.66288 
L 308.904545 44.652397 
L 308.906997 152.062217 
L 309.017309 144.853137 
L 310.272417 65.630028 
L 310.701409 53.327084 
L 311.078922 48.081677 
L 311.427018 45.938396 
L 311.760406 45.096973 
L 312.108502 44.771631 
L 312.598779 44.643177 
L 312.709091 44.632653 
L 312.711542 151.938014 
L 312.821854 144.732704 
L 314.076962 65.578716 
L 314.505954 53.29159 
L 314.883467 48.054221 
L 315.231563 45.915016 
L 315.564951 45.075769 
L 315.913048 44.751767 
L 316.403324 44.624504 
L 316.513636 44.614198 
L 316.516088 151.821619 
L 316.6264 144.619859 
L 317.881508 65.530742 
L 318.3105 53.258426 
L 318.688013 48.028574 
L 319.036109 45.89317 
L 319.369497 45.055952 
L 319.717593 44.733197 
L 320.20787 44.607043 
L 320.318182 44.59694 
L 320.320633 151.712531 
L 320.430945 144.514113 
L 321.683602 65.58057 
L 322.112594 53.275652 
L 322.490107 48.026787 
L 322.838203 45.882168 
L 323.171591 45.041117 
L 323.519687 44.717087 
L 324.007512 44.591225 
L 324.122727 44.580794 
L 324.125179 151.610283 
L 324.235491 144.415009 
L 325.488147 65.538503 
L 325.917139 53.24661 
L 326.294652 48.004345 
L 326.642748 45.863059 
L 326.976136 45.02378 
L 327.324233 44.700837 
L 327.812058 44.575936 
L 327.927273 44.565683 
L 327.929724 151.514438 
L 328.040036 144.322122 
L 329.292693 65.499137 
L 329.721685 53.219444 
L 330.099198 47.983352 
L 330.447294 45.845184 
L 330.780682 45.007556 
L 331.128778 44.685625 
L 331.619055 44.56136 
L 331.731818 44.551534 
L 331.73427 151.424588 
L 331.844582 144.235054 
L 333.097238 65.462293 
L 333.52623 53.194025 
L 333.903743 47.963712 
L 334.251839 45.828457 
L 334.585227 44.992372 
L 334.933324 44.671383 
L 335.4236 44.547953 
L 335.536364 44.538281 
L 335.538815 151.340353 
L 335.649127 144.153434 
L 336.899332 65.522457 
L 337.328324 53.218472 
L 337.705837 47.967524 
L 338.053933 45.822208 
L 338.387321 44.981833 
L 338.735418 44.659288 
L 339.223243 44.535885 
L 339.340909 44.525864 
L 339.34336 151.261375 
L 339.453673 144.076916 
L 340.703878 65.490081 
L 341.13287 53.196153 
L 341.510382 47.950286 
L 341.858479 45.807527 
L 342.191867 44.968505 
L 342.539963 44.646784 
L 343.027788 44.524103 
L 343.145455 44.514226 
L 343.147906 151.187324 
L 343.258218 144.005175 
L 344.508423 65.459756 
L 344.937415 53.175249 
L 345.314928 47.93414 
L 345.663024 45.793776 
L 345.996412 44.956017 
L 346.344509 44.635066 
L 346.832334 44.513062 
L 346.95 44.503314 
L 346.952451 151.117886 
L 347.062764 143.937908 
L 348.312969 65.431345 
L 348.741961 53.155668 
L 349.119473 47.919013 
L 349.46757 45.780889 
L 349.800958 44.944311 
L 350.149054 44.624079 
L 350.636879 44.502705 
L 350.754545 44.49308 
L 350.756997 151.052771 
L 350.867309 143.874833 
L 352.117514 65.404721 
L 352.546506 53.137319 
L 352.924019 47.904837 
L 353.272115 45.768809 
L 353.605503 44.933336 
L 353.953599 44.613774 
L 354.441425 44.492989 
L 354.559091 44.48348 
L 354.561542 150.991708 
L 354.671854 143.815686 
L 355.919608 65.474415 
L 356.3486 53.168388 
L 356.726113 47.913762 
L 357.074209 45.766898 
L 357.407597 44.926716 
L 357.753242 44.606586 
L 358.238616 44.484591 
L 358.363636 44.474473 
L 358.366088 150.93444 
L 358.4764 143.760217 
L 359.724154 65.450974 
L 360.153146 53.152235 
L 360.530658 47.901283 
L 360.878755 45.756262 
L 361.212143 44.917054 
L 361.557788 44.597511 
L 362.043161 44.47603 
L 362.168182 44.466019 
L 362.170633 150.880729 
L 362.280945 143.708196 
L 363.528699 65.428998 
L 363.957691 53.137088 
L 364.335204 47.889581 
L 364.6833 45.746285 
L 365.016688 44.907988 
L 365.362333 44.588993 
L 365.847707 44.467995 
L 365.972727 44.458083 
L 365.975179 150.830352 
L 366.085491 143.659406 
L 367.333244 65.40839 
L 367.762236 53.122884 
L 368.139749 47.878603 
L 368.487846 45.736926 
L 368.821234 44.899479 
L 369.166879 44.580998 
L 369.652252 44.46045 
L 369.777273 44.450633 
L 369.779724 150.783101 
L 369.890036 143.613645 
L 371.13779 65.389066 
L 371.566782 53.10956 
L 371.944295 47.868301 
L 372.292391 45.728142 
L 372.625779 44.891493 
L 372.971424 44.573492 
L 373.456798 44.453363 
L 373.581818 44.443636 
L 373.581818 44.443636 
" clip-path="url(#p26e7ce8328)" style="fill: none; stroke: #ff7f0e; stroke-width: 1.5; stroke-linecap: square"/>
   </g>
   <g id="patch_3">
    <path d="M 54 252 
L 54 34.56 
" style="fill: none; stroke: #000000; stroke-width: 0.8; stroke-linejoin: miter; stroke-linecap: square"/>
   </g>
   <g id="patch_4">
    <path d="M 388.8 252 
L 388.8 34.56 
" style="fill: none; stroke: #000000; stroke-width: 0.8; stroke-linejoin: miter; stroke-linecap: square"/>
   </g>
   <g id="patch_5">
    <path d="M 54 252 
L 388.8 252 
" style="fill: none; stroke: #000000; stroke-width: 0.8; stroke-linejoin: miter; stroke-linecap: square"/>
   </g>
   <g id="patch_6">
    <path d="M 54 34.56 
L 388.8 34.56 
" style="fill: none; stroke: #000000; stroke-width: 0.8; stroke-linejoin: miter; stroke-linecap: square"/>
   </g>
   <g id="legend_1">
    <g id="patch_7">
     <path d="M 61 71.91625 
L 99.860938 71.91625 
Q 101.860938 71.91625 101.860938 69.91625 
L 101.860938 41.56 
Q 101.860938 39.56 99.860938 39.56 
L 61 39.56 
Q 59 39.56 59 41.56 
L 59 69.91625 
Q 59 71.91625 61 71.91625 
z
" style="fill: #ffffff; opacity: 0.8; stroke: #cccccc; stroke-linejoin: miter"/>
    </g>
    <g id="line2d_15">
     <path d="M 63 47.658437 
L 73 47.658437 
L 83 47.658437 
" style="fill: none; stroke: #1f77b4; stroke-width: 1.5; stroke-linecap: square"/>
    </g>
    <g id="text_15">
     <!-- A -->
     <g transform="translate(91 51.158437) scale(0.1 -0.1)">
      <defs>
       <path id="DejaVuSans-41" d="M 2188 4044 
L 1331 1722 
L 3047 1722 
L 2188 4044 
z
M 1831 4666 
L 2547 4666 
L 4325 0 
L 3669 0 
L 3244 1197 
L 1141 1197 
L 716 0 
L 50 0 
L 1831 4666 
z
" transform="scale(0.015625)"/>
      </defs>
      <use xlink:href="#DejaVuSans-41"/>
     </g>
    </g>
    <g id="line2d_16">
     <path d="M 63 62.336562 
L 73 62.336562 
L 83 62.336562 
" style="fill: none; stroke: #ff7f0e; stroke-width: 1.5; stroke-linecap: square"/>
    </g>
    <g id="text_16">
     <!-- B -->
     <g transform="translate(91 65.836562) scale(0.1 -0.1)">
      <defs>
       <path id="DejaVuSans-42" d="M 1259 2228 
L 1259 519 
L 2272 519 
Q 2781 519 3026 730 
Q 3272 941 3272 1375 
Q 3272 1813 3026 2020 
Q 2781 2228 2272 2228 
L 1259 2228 
z
M 1259 4147 
L 1259 2741 
L 2194 2741 
Q 2656 2741 2882 2914 
Q 3109 3088 3109 3444 
Q 3109 3797 2882 3972 
Q 2656 4147 2194 4147 
L 1259 4147 
z
M 628 4666 
L 2241 4666 
Q 2963 4666 3353 4366 
Q 3744 4066 3744 3513 
Q 3744 3084 3544 2831 
Q 3344 2578 2956 2516 
Q 3422 2416 3680 2098 
Q 3938 1781 3938 1306 
Q 3938 681 3513 340 
Q 3088 0 2303 0 
L 628 0 
L 628 4666 
z
" transform="scale(0.015625)"/>
      </defs>
      <use xlink:href="#DejaVuSans-42"/>
     </g>
    </g>
   </g>
  </g>
 </g>
 <defs>
  <clipPath id="p26e7ce8328">
   <rect x="54" y="34.56" width="334.8" height="217.44"/>
  </clipPath>
 </defs>
</svg>
