<?xml version="1.0" encoding="utf-8" standalone="no"?>
<!DOCTYPE svg PUBLIC "-//W3C//DTD SVG 1.1//EN"
  "http://www.w3.org/Graphics/SVG/1.1/DTD/svg11.dtd">
<svg xmlns:xlink="http://www.w3.org/1999/xlink" width="828pt" height="792pt" viewBox="0 0 828 792" xmlns="http://www.w3.org/2000/svg" version="1.1">
 <metadata>
  <rdf:RDF xmlns:dc="http://purl.org/dc/elements/1.1/" xmlns:cc="http://creativecommons.org/ns#" xmlns:rdf="http://www.w3.org/1999/02/22-rdf-syntax-ns#">
   <cc:Work>
    <dc:type rdf:resource="http://purl.org/dc/dcmitype/StillImage"/>
    <dc:date>2025-01-15T09:08:46.146203</dc:date>
    <dc:format>image/svg+xml</dc:format>
    <dc:creator>
     <cc:Agent>
      <dc:title>Matplotlib v3.9.1, https://matplotlib.org/</dc:title>
     </cc:Agent>
    </dc:creator>
   </cc:Work>
  </rdf:RDF>
 </metadata>
 <defs>
  <style type="text/css">*{stroke-linejoin: round; stroke-linecap: butt}</style>
 </defs>
 <g id="figure_1">
  <g id="patch_1">
   <path d="M 0 792 
L 828 792 
L 828 0 
L 0 0 
z
" style="fill: #ffffff"/>
  </g>
  <g id="axes_1">
   <g id="patch_2">
    <path d="M 103.5 491.04 
L 745.2 491.04 
L 745.2 95.04 
L 103.5 95.04 
z
" style="fill: #ffffff"/>
   </g>
   <g id="matplotlib.axis_1">
    <g id="xtick_1">
     <g id="line2d_1">
      <path d="M 436.228232 491.04 
L 436.228232 95.04 
" clip-path="url(#pe82ae21aa6)" style="fill: none; stroke-dasharray: 1.85,0.8; stroke-dashoffset: 0; stroke: #b0b0b0; stroke-width: 0.5"/>
     </g>
     <g id="line2d_2">
      <defs>
       <path id="mf5b4acec7e" d="M 0 0 
L 0 3.5 
" style="stroke: #000000; stroke-width: 0.8"/>
      </defs>
      <g>
       <use xlink:href="#mf5b4acec7e" x="436.228232" y="491.04" style="stroke: #000000; stroke-width: 0.8"/>
      </g>
     </g>
     <g id="text_1">
      <!-- $\mathdefault{10^{2}}$ -->
      <g transform="translate(416.868232 514.756562) scale(0.22 -0.22)">
       <defs>
        <path id="DejaVuSans-31" d="M 794 531 
L 1825 531 
L 1825 4091 
L 703 3866 
L 703 4441 
L 1819 4666 
L 2450 4666 
L 2450 531 
L 3481 531 
L 3481 0 
L 794 0 
L 794 531 
z
" transform="scale(0.015625)"/>
        <path id="DejaVuSans-30" d="M 2034 4250 
Q 1547 4250 1301 3770 
Q 1056 3291 1056 2328 
Q 1056 1369 1301 889 
Q 1547 409 2034 409 
Q 2525 409 2770 889 
Q 3016 1369 3016 2328 
Q 3016 3291 2770 3770 
Q 2525 4250 2034 4250 
z
M 2034 4750 
Q 2819 4750 3233 4129 
Q 3647 3509 3647 2328 
Q 3647 1150 3233 529 
Q 2819 -91 2034 -91 
Q 1250 -91 836 529 
Q 422 1150 422 2328 
Q 422 3509 836 4129 
Q 1250 4750 2034 4750 
z
" transform="scale(0.015625)"/>
        <path id="DejaVuSans-32" d="M 1228 531 
L 3431 531 
L 3431 0 
L 469 0 
L 469 531 
Q 828 903 1448 1529 
Q 2069 2156 2228 2338 
Q 2531 2678 2651 2914 
Q 2772 3150 2772 3378 
Q 2772 3750 2511 3984 
Q 2250 4219 1831 4219 
Q 1534 4219 1204 4116 
Q 875 4013 500 3803 
L 500 4441 
Q 881 4594 1212 4672 
Q 1544 4750 1819 4750 
Q 2544 4750 2975 4387 
Q 3406 4025 3406 3419 
Q 3406 3131 3298 2873 
Q 3191 2616 2906 2266 
Q 2828 2175 2409 1742 
Q 1991 1309 1228 531 
z
" transform="scale(0.015625)"/>
       </defs>
       <use xlink:href="#DejaVuSans-31" transform="translate(0 0.765625)"/>
       <use xlink:href="#DejaVuSans-30" transform="translate(63.623047 0.765625)"/>
       <use xlink:href="#DejaVuSans-32" transform="translate(128.203125 39.046875) scale(0.7)"/>
      </g>
     </g>
    </g>
    <g id="xtick_2">
     <g id="line2d_3">
      <path d="M 146.326938 491.04 
L 146.326938 95.04 
" clip-path="url(#pe82ae21aa6)" style="fill: none; stroke-dasharray: 1.85,0.8; stroke-dashoffset: 0; stroke: #b0b0b0; stroke-width: 0.5"/>
     </g>
     <g id="line2d_4">
      <defs>
       <path id="mf114f1a8b4" d="M 0 0 
L 0 2 
" style="stroke: #000000; stroke-width: 0.6"/>
      </defs>
      <g>
       <use xlink:href="#mf114f1a8b4" x="146.326938" y="491.04" style="stroke: #000000; stroke-width: 0.6"/>
      </g>
     </g>
    </g>
    <g id="xtick_3">
     <g id="line2d_5">
      <path d="M 219.361666 491.04 
L 219.361666 95.04 
" clip-path="url(#pe82ae21aa6)" style="fill: none; stroke-dasharray: 1.85,0.8; stroke-dashoffset: 0; stroke: #b0b0b0; stroke-width: 0.5"/>
     </g>
     <g id="line2d_6">
      <g>
       <use xlink:href="#mf114f1a8b4" x="219.361666" y="491.04" style="stroke: #000000; stroke-width: 0.6"/>
      </g>
     </g>
    </g>
    <g id="xtick_4">
     <g id="line2d_7">
      <path d="M 271.18063 491.04 
L 271.18063 95.04 
" clip-path="url(#pe82ae21aa6)" style="fill: none; stroke-dasharray: 1.85,0.8; stroke-dashoffset: 0; stroke: #b0b0b0; stroke-width: 0.5"/>
     </g>
     <g id="line2d_8">
      <g>
       <use xlink:href="#mf114f1a8b4" x="271.18063" y="491.04" style="stroke: #000000; stroke-width: 0.6"/>
      </g>
     </g>
    </g>
    <g id="xtick_5">
     <g id="line2d_9">
      <path d="M 311.374541 491.04 
L 311.374541 95.04 
" clip-path="url(#pe82ae21aa6)" style="fill: none; stroke-dasharray: 1.85,0.8; stroke-dashoffset: 0; stroke: #b0b0b0; stroke-width: 0.5"/>
     </g>
     <g id="line2d_10">
      <g>
       <use xlink:href="#mf114f1a8b4" x="311.374541" y="491.04" style="stroke: #000000; stroke-width: 0.6"/>
      </g>
     </g>
    </g>
    <g id="xtick_6">
     <g id="line2d_11">
      <path d="M 344.215357 491.04 
L 344.215357 95.04 
" clip-path="url(#pe82ae21aa6)" style="fill: none; stroke-dasharray: 1.85,0.8; stroke-dashoffset: 0; stroke: #b0b0b0; stroke-width: 0.5"/>
     </g>
     <g id="line2d_12">
      <g>
       <use xlink:href="#mf114f1a8b4" x="344.215357" y="491.04" style="stroke: #000000; stroke-width: 0.6"/>
      </g>
     </g>
    </g>
    <g id="xtick_7">
     <g id="line2d_13">
      <path d="M 371.981872 491.04 
L 371.981872 95.04 
" clip-path="url(#pe82ae21aa6)" style="fill: none; stroke-dasharray: 1.85,0.8; stroke-dashoffset: 0; stroke: #b0b0b0; stroke-width: 0.5"/>
     </g>
     <g id="line2d_14">
      <g>
       <use xlink:href="#mf114f1a8b4" x="371.981872" y="491.04" style="stroke: #000000; stroke-width: 0.6"/>
      </g>
     </g>
    </g>
    <g id="xtick_8">
     <g id="line2d_15">
      <path d="M 396.034321 491.04 
L 396.034321 95.04 
" clip-path="url(#pe82ae21aa6)" style="fill: none; stroke-dasharray: 1.85,0.8; stroke-dashoffset: 0; stroke: #b0b0b0; stroke-width: 0.5"/>
     </g>
     <g id="line2d_16">
      <g>
       <use xlink:href="#mf114f1a8b4" x="396.034321" y="491.04" style="stroke: #000000; stroke-width: 0.6"/>
      </g>
     </g>
    </g>
    <g id="xtick_9">
     <g id="line2d_17">
      <path d="M 417.250085 491.04 
L 417.250085 95.04 
" clip-path="url(#pe82ae21aa6)" style="fill: none; stroke-dasharray: 1.85,0.8; stroke-dashoffset: 0; stroke: #b0b0b0; stroke-width: 0.5"/>
     </g>
     <g id="line2d_18">
      <g>
       <use xlink:href="#mf114f1a8b4" x="417.250085" y="491.04" style="stroke: #000000; stroke-width: 0.6"/>
      </g>
     </g>
    </g>
    <g id="xtick_10">
     <g id="line2d_19">
      <path d="M 561.081923 491.04 
L 561.081923 95.04 
" clip-path="url(#pe82ae21aa6)" style="fill: none; stroke-dasharray: 1.85,0.8; stroke-dashoffset: 0; stroke: #b0b0b0; stroke-width: 0.5"/>
     </g>
     <g id="line2d_20">
      <g>
       <use xlink:href="#mf114f1a8b4" x="561.081923" y="491.04" style="stroke: #000000; stroke-width: 0.6"/>
      </g>
     </g>
    </g>
    <g id="xtick_11">
     <g id="line2d_21">
      <path d="M 634.116651 491.04 
L 634.116651 95.04 
" clip-path="url(#pe82ae21aa6)" style="fill: none; stroke-dasharray: 1.85,0.8; stroke-dashoffset: 0; stroke: #b0b0b0; stroke-width: 0.5"/>
     </g>
     <g id="line2d_22">
      <g>
       <use xlink:href="#mf114f1a8b4" x="634.116651" y="491.04" style="stroke: #000000; stroke-width: 0.6"/>
      </g>
     </g>
    </g>
    <g id="xtick_12">
     <g id="line2d_23">
      <path d="M 685.935614 491.04 
L 685.935614 95.04 
" clip-path="url(#pe82ae21aa6)" style="fill: none; stroke-dasharray: 1.85,0.8; stroke-dashoffset: 0; stroke: #b0b0b0; stroke-width: 0.5"/>
     </g>
     <g id="line2d_24">
      <g>
       <use xlink:href="#mf114f1a8b4" x="685.935614" y="491.04" style="stroke: #000000; stroke-width: 0.6"/>
      </g>
     </g>
    </g>
    <g id="xtick_13">
     <g id="line2d_25">
      <path d="M 726.129525 491.04 
L 726.129525 95.04 
" clip-path="url(#pe82ae21aa6)" style="fill: none; stroke-dasharray: 1.85,0.8; stroke-dashoffset: 0; stroke: #b0b0b0; stroke-width: 0.5"/>
     </g>
     <g id="line2d_26">
      <g>
       <use xlink:href="#mf114f1a8b4" x="726.129525" y="491.04" style="stroke: #000000; stroke-width: 0.6"/>
      </g>
     </g>
    </g>
    <g id="text_2">
     <!-- Compute time / s -->
     <g transform="translate(316.467188 542.327969) scale(0.25 -0.25)">
      <defs>
       <path id="DejaVuSans-43" d="M 4122 4306 
L 4122 3641 
Q 3803 3938 3442 4084 
Q 3081 4231 2675 4231 
Q 1875 4231 1450 3742 
Q 1025 3253 1025 2328 
Q 1025 1406 1450 917 
Q 1875 428 2675 428 
Q 3081 428 3442 575 
Q 3803 722 4122 1019 
L 4122 359 
Q 3791 134 3420 21 
Q 3050 -91 2638 -91 
Q 1578 -91 968 557 
Q 359 1206 359 2328 
Q 359 3453 968 4101 
Q 1578 4750 2638 4750 
Q 3056 4750 3426 4639 
Q 3797 4528 4122 4306 
z
" transform="scale(0.015625)"/>
       <path id="DejaVuSans-6f" d="M 1959 3097 
Q 1497 3097 1228 2736 
Q 959 2375 959 1747 
Q 959 1119 1226 758 
Q 1494 397 1959 397 
Q 2419 397 2687 759 
Q 2956 1122 2956 1747 
Q 2956 2369 2687 2733 
Q 2419 3097 1959 3097 
z
M 1959 3584 
Q 2709 3584 3137 3096 
Q 3566 2609 3566 1747 
Q 3566 888 3137 398 
Q 2709 -91 1959 -91 
Q 1206 -91 779 398 
Q 353 888 353 1747 
Q 353 2609 779 3096 
Q 1206 3584 1959 3584 
z
" transform="scale(0.015625)"/>
       <path id="DejaVuSans-6d" d="M 3328 2828 
Q 3544 3216 3844 3400 
Q 4144 3584 4550 3584 
Q 5097 3584 5394 3201 
Q 5691 2819 5691 2113 
L 5691 0 
L 5113 0 
L 5113 2094 
Q 5113 2597 4934 2840 
Q 4756 3084 4391 3084 
Q 3944 3084 3684 2787 
Q 3425 2491 3425 1978 
L 3425 0 
L 2847 0 
L 2847 2094 
Q 2847 2600 2669 2842 
Q 2491 3084 2119 3084 
Q 1678 3084 1418 2786 
Q 1159 2488 1159 1978 
L 1159 0 
L 581 0 
L 581 3500 
L 1159 3500 
L 1159 2956 
Q 1356 3278 1631 3431 
Q 1906 3584 2284 3584 
Q 2666 3584 2933 3390 
Q 3200 3197 3328 2828 
z
" transform="scale(0.015625)"/>
       <path id="DejaVuSans-70" d="M 1159 525 
L 1159 -1331 
L 581 -1331 
L 581 3500 
L 1159 3500 
L 1159 2969 
Q 1341 3281 1617 3432 
Q 1894 3584 2278 3584 
Q 2916 3584 3314 3078 
Q 3713 2572 3713 1747 
Q 3713 922 3314 415 
Q 2916 -91 2278 -91 
Q 1894 -91 1617 61 
Q 1341 213 1159 525 
z
M 3116 1747 
Q 3116 2381 2855 2742 
Q 2594 3103 2138 3103 
Q 1681 3103 1420 2742 
Q 1159 2381 1159 1747 
Q 1159 1113 1420 752 
Q 1681 391 2138 391 
Q 2594 391 2855 752 
Q 3116 1113 3116 1747 
z
" transform="scale(0.015625)"/>
       <path id="DejaVuSans-75" d="M 544 1381 
L 544 3500 
L 1119 3500 
L 1119 1403 
Q 1119 906 1312 657 
Q 1506 409 1894 409 
Q 2359 409 2629 706 
Q 2900 1003 2900 1516 
L 2900 3500 
L 3475 3500 
L 3475 0 
L 2900 0 
L 2900 538 
Q 2691 219 2414 64 
Q 2138 -91 1772 -91 
Q 1169 -91 856 284 
Q 544 659 544 1381 
z
M 1991 3584 
L 1991 3584 
z
" transform="scale(0.015625)"/>
       <path id="DejaVuSans-74" d="M 1172 4494 
L 1172 3500 
L 2356 3500 
L 2356 3053 
L 1172 3053 
L 1172 1153 
Q 1172 725 1289 603 
Q 1406 481 1766 481 
L 2356 481 
L 2356 0 
L 1766 0 
Q 1100 0 847 248 
Q 594 497 594 1153 
L 594 3053 
L 172 3053 
L 172 3500 
L 594 3500 
L 594 4494 
L 1172 4494 
z
" transform="scale(0.015625)"/>
       <path id="DejaVuSans-65" d="M 3597 1894 
L 3597 1613 
L 953 1613 
Q 991 1019 1311 708 
Q 1631 397 2203 397 
Q 2534 397 2845 478 
Q 3156 559 3463 722 
L 3463 178 
Q 3153 47 2828 -22 
Q 2503 -91 2169 -91 
Q 1331 -91 842 396 
Q 353 884 353 1716 
Q 353 2575 817 3079 
Q 1281 3584 2069 3584 
Q 2775 3584 3186 3129 
Q 3597 2675 3597 1894 
z
M 3022 2063 
Q 3016 2534 2758 2815 
Q 2500 3097 2075 3097 
Q 1594 3097 1305 2825 
Q 1016 2553 972 2059 
L 3022 2063 
z
" transform="scale(0.015625)"/>
       <path id="DejaVuSans-20" transform="scale(0.015625)"/>
       <path id="DejaVuSans-69" d="M 603 3500 
L 1178 3500 
L 1178 0 
L 603 0 
L 603 3500 
z
M 603 4863 
L 1178 4863 
L 1178 4134 
L 603 4134 
L 603 4863 
z
" transform="scale(0.015625)"/>
       <path id="DejaVuSans-2f" d="M 1625 4666 
L 2156 4666 
L 531 -594 
L 0 -594 
L 1625 4666 
z
" transform="scale(0.015625)"/>
       <path id="DejaVuSans-73" d="M 2834 3397 
L 2834 2853 
Q 2591 2978 2328 3040 
Q 2066 3103 1784 3103 
Q 1356 3103 1142 2972 
Q 928 2841 928 2578 
Q 928 2378 1081 2264 
Q 1234 2150 1697 2047 
L 1894 2003 
Q 2506 1872 2764 1633 
Q 3022 1394 3022 966 
Q 3022 478 2636 193 
Q 2250 -91 1575 -91 
Q 1294 -91 989 -36 
Q 684 19 347 128 
L 347 722 
Q 666 556 975 473 
Q 1284 391 1588 391 
Q 1994 391 2212 530 
Q 2431 669 2431 922 
Q 2431 1156 2273 1281 
Q 2116 1406 1581 1522 
L 1381 1569 
Q 847 1681 609 1914 
Q 372 2147 372 2553 
Q 372 3047 722 3315 
Q 1072 3584 1716 3584 
Q 2034 3584 2315 3537 
Q 2597 3491 2834 3397 
z
" transform="scale(0.015625)"/>
      </defs>
      <use xlink:href="#DejaVuSans-43"/>
      <use xlink:href="#DejaVuSans-6f" x="69.824219"/>
      <use xlink:href="#DejaVuSans-6d" x="131.005859"/>
      <use xlink:href="#DejaVuSans-70" x="228.417969"/>
      <use xlink:href="#DejaVuSans-75" x="291.894531"/>
      <use xlink:href="#DejaVuSans-74" x="355.273438"/>
      <use xlink:href="#DejaVuSans-65" x="394.482422"/>
      <use xlink:href="#DejaVuSans-20" x="456.005859"/>
      <use xlink:href="#DejaVuSans-74" x="487.792969"/>
      <use xlink:href="#DejaVuSans-69" x="527.001953"/>
      <use xlink:href="#DejaVuSans-6d" x="554.785156"/>
      <use xlink:href="#DejaVuSans-65" x="652.197266"/>
      <use xlink:href="#DejaVuSans-20" x="713.720703"/>
      <use xlink:href="#DejaVuSans-2f" x="745.507812"/>
      <use xlink:href="#DejaVuSans-20" x="779.199219"/>
      <use xlink:href="#DejaVuSans-73" x="810.986328"/>
     </g>
    </g>
   </g>
   <g id="matplotlib.axis_2">
    <g id="ytick_1">
     <g id="line2d_27">
      <path d="M 103.5 443.826975 
L 745.2 443.826975 
" clip-path="url(#pe82ae21aa6)" style="fill: none; stroke-dasharray: 1.85,0.8; stroke-dashoffset: 0; stroke: #b0b0b0; stroke-width: 0.5"/>
     </g>
     <g id="line2d_28">
      <defs>
       <path id="mee9bb279ff" d="M 0 0 
L -3.5 0 
" style="stroke: #000000; stroke-width: 0.8"/>
      </defs>
      <g>
       <use xlink:href="#mee9bb279ff" x="103.5" y="443.826975" style="stroke: #000000; stroke-width: 0.8"/>
      </g>
     </g>
     <g id="text_3">
      <!-- $\mathdefault{10^{-3}}$ -->
      <g transform="translate(44.8 452.185256) scale(0.22 -0.22)">
       <defs>
        <path id="DejaVuSans-2212" d="M 678 2272 
L 4684 2272 
L 4684 1741 
L 678 1741 
L 678 2272 
z
" transform="scale(0.015625)"/>
        <path id="DejaVuSans-33" d="M 2597 2516 
Q 3050 2419 3304 2112 
Q 3559 1806 3559 1356 
Q 3559 666 3084 287 
Q 2609 -91 1734 -91 
Q 1441 -91 1130 -33 
Q 819 25 488 141 
L 488 750 
Q 750 597 1062 519 
Q 1375 441 1716 441 
Q 2309 441 2620 675 
Q 2931 909 2931 1356 
Q 2931 1769 2642 2001 
Q 2353 2234 1838 2234 
L 1294 2234 
L 1294 2753 
L 1863 2753 
Q 2328 2753 2575 2939 
Q 2822 3125 2822 3475 
Q 2822 3834 2567 4026 
Q 2313 4219 1838 4219 
Q 1578 4219 1281 4162 
Q 984 4106 628 3988 
L 628 4550 
Q 988 4650 1302 4700 
Q 1616 4750 1894 4750 
Q 2613 4750 3031 4423 
Q 3450 4097 3450 3541 
Q 3450 3153 3228 2886 
Q 3006 2619 2597 2516 
z
" transform="scale(0.015625)"/>
       </defs>
       <use xlink:href="#DejaVuSans-31" transform="translate(0 0.765625)"/>
       <use xlink:href="#DejaVuSans-30" transform="translate(63.623047 0.765625)"/>
       <use xlink:href="#DejaVuSans-2212" transform="translate(128.203125 39.046875) scale(0.7)"/>
       <use xlink:href="#DejaVuSans-33" transform="translate(186.855469 39.046875) scale(0.7)"/>
      </g>
     </g>
    </g>
    <g id="ytick_2">
     <g id="line2d_29">
      <path d="M 103.5 293.933818 
L 745.2 293.933818 
" clip-path="url(#pe82ae21aa6)" style="fill: none; stroke-dasharray: 1.85,0.8; stroke-dashoffset: 0; stroke: #b0b0b0; stroke-width: 0.5"/>
     </g>
     <g id="line2d_30">
      <g>
       <use xlink:href="#mee9bb279ff" x="103.5" y="293.933818" style="stroke: #000000; stroke-width: 0.8"/>
      </g>
     </g>
     <g id="text_4">
      <!-- $\mathdefault{10^{-2}}$ -->
      <g transform="translate(44.8 302.292099) scale(0.22 -0.22)">
       <use xlink:href="#DejaVuSans-31" transform="translate(0 0.765625)"/>
       <use xlink:href="#DejaVuSans-30" transform="translate(63.623047 0.765625)"/>
       <use xlink:href="#DejaVuSans-2212" transform="translate(128.203125 39.046875) scale(0.7)"/>
       <use xlink:href="#DejaVuSans-32" transform="translate(186.855469 39.046875) scale(0.7)"/>
      </g>
     </g>
    </g>
    <g id="ytick_3">
     <g id="line2d_31">
      <path d="M 103.5 144.040661 
L 745.2 144.040661 
" clip-path="url(#pe82ae21aa6)" style="fill: none; stroke-dasharray: 1.85,0.8; stroke-dashoffset: 0; stroke: #b0b0b0; stroke-width: 0.5"/>
     </g>
     <g id="line2d_32">
      <g>
       <use xlink:href="#mee9bb279ff" x="103.5" y="144.040661" style="stroke: #000000; stroke-width: 0.8"/>
      </g>
     </g>
     <g id="text_5">
      <!-- $\mathdefault{10^{-1}}$ -->
      <g transform="translate(44.8 152.398942) scale(0.22 -0.22)">
       <use xlink:href="#DejaVuSans-31" transform="translate(0 0.684375)"/>
       <use xlink:href="#DejaVuSans-30" transform="translate(63.623047 0.684375)"/>
       <use xlink:href="#DejaVuSans-2212" transform="translate(128.203125 38.965625) scale(0.7)"/>
       <use xlink:href="#DejaVuSans-31" transform="translate(186.855469 38.965625) scale(0.7)"/>
      </g>
     </g>
    </g>
    <g id="ytick_4">
     <g id="line2d_33">
      <path d="M 103.5 488.949311 
L 745.2 488.949311 
" clip-path="url(#pe82ae21aa6)" style="fill: none; stroke-dasharray: 1.85,0.8; stroke-dashoffset: 0; stroke: #b0b0b0; stroke-width: 0.5"/>
     </g>
     <g id="line2d_34">
      <defs>
       <path id="m2f8411fb63" d="M 0 0 
L -2 0 
" style="stroke: #000000; stroke-width: 0.6"/>
      </defs>
      <g>
       <use xlink:href="#m2f8411fb63" x="103.5" y="488.949311" style="stroke: #000000; stroke-width: 0.6"/>
      </g>
     </g>
    </g>
    <g id="ytick_5">
     <g id="line2d_35">
      <path d="M 103.5 477.080584 
L 745.2 477.080584 
" clip-path="url(#pe82ae21aa6)" style="fill: none; stroke-dasharray: 1.85,0.8; stroke-dashoffset: 0; stroke: #b0b0b0; stroke-width: 0.5"/>
     </g>
     <g id="line2d_36">
      <g>
       <use xlink:href="#m2f8411fb63" x="103.5" y="477.080584" style="stroke: #000000; stroke-width: 0.6"/>
      </g>
     </g>
    </g>
    <g id="ytick_6">
     <g id="line2d_37">
      <path d="M 103.5 467.045718 
L 745.2 467.045718 
" clip-path="url(#pe82ae21aa6)" style="fill: none; stroke-dasharray: 1.85,0.8; stroke-dashoffset: 0; stroke: #b0b0b0; stroke-width: 0.5"/>
     </g>
     <g id="line2d_38">
      <g>
       <use xlink:href="#m2f8411fb63" x="103.5" y="467.045718" style="stroke: #000000; stroke-width: 0.6"/>
      </g>
     </g>
    </g>
    <g id="ytick_7">
     <g id="line2d_39">
      <path d="M 103.5 458.353122 
L 745.2 458.353122 
" clip-path="url(#pe82ae21aa6)" style="fill: none; stroke-dasharray: 1.85,0.8; stroke-dashoffset: 0; stroke: #b0b0b0; stroke-width: 0.5"/>
     </g>
     <g id="line2d_40">
      <g>
       <use xlink:href="#m2f8411fb63" x="103.5" y="458.353122" style="stroke: #000000; stroke-width: 0.6"/>
      </g>
     </g>
    </g>
    <g id="ytick_8">
     <g id="line2d_41">
      <path d="M 103.5 450.685709 
L 745.2 450.685709 
" clip-path="url(#pe82ae21aa6)" style="fill: none; stroke-dasharray: 1.85,0.8; stroke-dashoffset: 0; stroke: #b0b0b0; stroke-width: 0.5"/>
     </g>
     <g id="line2d_42">
      <g>
       <use xlink:href="#m2f8411fb63" x="103.5" y="450.685709" style="stroke: #000000; stroke-width: 0.6"/>
      </g>
     </g>
    </g>
    <g id="ytick_9">
     <g id="line2d_43">
      <path d="M 103.5 398.704638 
L 745.2 398.704638 
" clip-path="url(#pe82ae21aa6)" style="fill: none; stroke-dasharray: 1.85,0.8; stroke-dashoffset: 0; stroke: #b0b0b0; stroke-width: 0.5"/>
     </g>
     <g id="line2d_44">
      <g>
       <use xlink:href="#m2f8411fb63" x="103.5" y="398.704638" style="stroke: #000000; stroke-width: 0.6"/>
      </g>
     </g>
    </g>
    <g id="ytick_10">
     <g id="line2d_45">
      <path d="M 103.5 372.309764 
L 745.2 372.309764 
" clip-path="url(#pe82ae21aa6)" style="fill: none; stroke-dasharray: 1.85,0.8; stroke-dashoffset: 0; stroke: #b0b0b0; stroke-width: 0.5"/>
     </g>
     <g id="line2d_46">
      <g>
       <use xlink:href="#m2f8411fb63" x="103.5" y="372.309764" style="stroke: #000000; stroke-width: 0.6"/>
      </g>
     </g>
    </g>
    <g id="ytick_11">
     <g id="line2d_47">
      <path d="M 103.5 353.582302 
L 745.2 353.582302 
" clip-path="url(#pe82ae21aa6)" style="fill: none; stroke-dasharray: 1.85,0.8; stroke-dashoffset: 0; stroke: #b0b0b0; stroke-width: 0.5"/>
     </g>
     <g id="line2d_48">
      <g>
       <use xlink:href="#m2f8411fb63" x="103.5" y="353.582302" style="stroke: #000000; stroke-width: 0.6"/>
      </g>
     </g>
    </g>
    <g id="ytick_12">
     <g id="line2d_49">
      <path d="M 103.5 339.056154 
L 745.2 339.056154 
" clip-path="url(#pe82ae21aa6)" style="fill: none; stroke-dasharray: 1.85,0.8; stroke-dashoffset: 0; stroke: #b0b0b0; stroke-width: 0.5"/>
     </g>
     <g id="line2d_50">
      <g>
       <use xlink:href="#m2f8411fb63" x="103.5" y="339.056154" style="stroke: #000000; stroke-width: 0.6"/>
      </g>
     </g>
    </g>
    <g id="ytick_13">
     <g id="line2d_51">
      <path d="M 103.5 327.187427 
L 745.2 327.187427 
" clip-path="url(#pe82ae21aa6)" style="fill: none; stroke-dasharray: 1.85,0.8; stroke-dashoffset: 0; stroke: #b0b0b0; stroke-width: 0.5"/>
     </g>
     <g id="line2d_52">
      <g>
       <use xlink:href="#m2f8411fb63" x="103.5" y="327.187427" style="stroke: #000000; stroke-width: 0.6"/>
      </g>
     </g>
    </g>
    <g id="ytick_14">
     <g id="line2d_53">
      <path d="M 103.5 317.152562 
L 745.2 317.152562 
" clip-path="url(#pe82ae21aa6)" style="fill: none; stroke-dasharray: 1.85,0.8; stroke-dashoffset: 0; stroke: #b0b0b0; stroke-width: 0.5"/>
     </g>
     <g id="line2d_54">
      <g>
       <use xlink:href="#m2f8411fb63" x="103.5" y="317.152562" style="stroke: #000000; stroke-width: 0.6"/>
      </g>
     </g>
    </g>
    <g id="ytick_15">
     <g id="line2d_55">
      <path d="M 103.5 308.459966 
L 745.2 308.459966 
" clip-path="url(#pe82ae21aa6)" style="fill: none; stroke-dasharray: 1.85,0.8; stroke-dashoffset: 0; stroke: #b0b0b0; stroke-width: 0.5"/>
     </g>
     <g id="line2d_56">
      <g>
       <use xlink:href="#m2f8411fb63" x="103.5" y="308.459966" style="stroke: #000000; stroke-width: 0.6"/>
      </g>
     </g>
    </g>
    <g id="ytick_16">
     <g id="line2d_57">
      <path d="M 103.5 300.792553 
L 745.2 300.792553 
" clip-path="url(#pe82ae21aa6)" style="fill: none; stroke-dasharray: 1.85,0.8; stroke-dashoffset: 0; stroke: #b0b0b0; stroke-width: 0.5"/>
     </g>
     <g id="line2d_58">
      <g>
       <use xlink:href="#m2f8411fb63" x="103.5" y="300.792553" style="stroke: #000000; stroke-width: 0.6"/>
      </g>
     </g>
    </g>
    <g id="ytick_17">
     <g id="line2d_59">
      <path d="M 103.5 248.811481 
L 745.2 248.811481 
" clip-path="url(#pe82ae21aa6)" style="fill: none; stroke-dasharray: 1.85,0.8; stroke-dashoffset: 0; stroke: #b0b0b0; stroke-width: 0.5"/>
     </g>
     <g id="line2d_60">
      <g>
       <use xlink:href="#m2f8411fb63" x="103.5" y="248.811481" style="stroke: #000000; stroke-width: 0.6"/>
      </g>
     </g>
    </g>
    <g id="ytick_18">
     <g id="line2d_61">
      <path d="M 103.5 222.416607 
L 745.2 222.416607 
" clip-path="url(#pe82ae21aa6)" style="fill: none; stroke-dasharray: 1.85,0.8; stroke-dashoffset: 0; stroke: #b0b0b0; stroke-width: 0.5"/>
     </g>
     <g id="line2d_62">
      <g>
       <use xlink:href="#m2f8411fb63" x="103.5" y="222.416607" style="stroke: #000000; stroke-width: 0.6"/>
      </g>
     </g>
    </g>
    <g id="ytick_19">
     <g id="line2d_63">
      <path d="M 103.5 203.689145 
L 745.2 203.689145 
" clip-path="url(#pe82ae21aa6)" style="fill: none; stroke-dasharray: 1.85,0.8; stroke-dashoffset: 0; stroke: #b0b0b0; stroke-width: 0.5"/>
     </g>
     <g id="line2d_64">
      <g>
       <use xlink:href="#m2f8411fb63" x="103.5" y="203.689145" style="stroke: #000000; stroke-width: 0.6"/>
      </g>
     </g>
    </g>
    <g id="ytick_20">
     <g id="line2d_65">
      <path d="M 103.5 189.162997 
L 745.2 189.162997 
" clip-path="url(#pe82ae21aa6)" style="fill: none; stroke-dasharray: 1.85,0.8; stroke-dashoffset: 0; stroke: #b0b0b0; stroke-width: 0.5"/>
     </g>
     <g id="line2d_66">
      <g>
       <use xlink:href="#m2f8411fb63" x="103.5" y="189.162997" style="stroke: #000000; stroke-width: 0.6"/>
      </g>
     </g>
    </g>
    <g id="ytick_21">
     <g id="line2d_67">
      <path d="M 103.5 177.29427 
L 745.2 177.29427 
" clip-path="url(#pe82ae21aa6)" style="fill: none; stroke-dasharray: 1.85,0.8; stroke-dashoffset: 0; stroke: #b0b0b0; stroke-width: 0.5"/>
     </g>
     <g id="line2d_68">
      <g>
       <use xlink:href="#m2f8411fb63" x="103.5" y="177.29427" style="stroke: #000000; stroke-width: 0.6"/>
      </g>
     </g>
    </g>
    <g id="ytick_22">
     <g id="line2d_69">
      <path d="M 103.5 167.259405 
L 745.2 167.259405 
" clip-path="url(#pe82ae21aa6)" style="fill: none; stroke-dasharray: 1.85,0.8; stroke-dashoffset: 0; stroke: #b0b0b0; stroke-width: 0.5"/>
     </g>
     <g id="line2d_70">
      <g>
       <use xlink:href="#m2f8411fb63" x="103.5" y="167.259405" style="stroke: #000000; stroke-width: 0.6"/>
      </g>
     </g>
    </g>
    <g id="ytick_23">
     <g id="line2d_71">
      <path d="M 103.5 158.566809 
L 745.2 158.566809 
" clip-path="url(#pe82ae21aa6)" style="fill: none; stroke-dasharray: 1.85,0.8; stroke-dashoffset: 0; stroke: #b0b0b0; stroke-width: 0.5"/>
     </g>
     <g id="line2d_72">
      <g>
       <use xlink:href="#m2f8411fb63" x="103.5" y="158.566809" style="stroke: #000000; stroke-width: 0.6"/>
      </g>
     </g>
    </g>
    <g id="ytick_24">
     <g id="line2d_73">
      <path d="M 103.5 150.899396 
L 745.2 150.899396 
" clip-path="url(#pe82ae21aa6)" style="fill: none; stroke-dasharray: 1.85,0.8; stroke-dashoffset: 0; stroke: #b0b0b0; stroke-width: 0.5"/>
     </g>
     <g id="line2d_74">
      <g>
       <use xlink:href="#m2f8411fb63" x="103.5" y="150.899396" style="stroke: #000000; stroke-width: 0.6"/>
      </g>
     </g>
    </g>
    <g id="ytick_25">
     <g id="line2d_75">
      <path d="M 103.5 98.918325 
L 745.2 98.918325 
" clip-path="url(#pe82ae21aa6)" style="fill: none; stroke-dasharray: 1.85,0.8; stroke-dashoffset: 0; stroke: #b0b0b0; stroke-width: 0.5"/>
     </g>
     <g id="line2d_76">
      <g>
       <use xlink:href="#m2f8411fb63" x="103.5" y="98.918325" style="stroke: #000000; stroke-width: 0.6"/>
      </g>
     </g>
    </g>
    <g id="text_6">
     <!-- Max abs error / mM -->
     <g transform="translate(35.600781 414.309531) rotate(-90) scale(0.25 -0.25)">
      <defs>
       <path id="DejaVuSans-4d" d="M 628 4666 
L 1569 4666 
L 2759 1491 
L 3956 4666 
L 4897 4666 
L 4897 0 
L 4281 0 
L 4281 4097 
L 3078 897 
L 2444 897 
L 1241 4097 
L 1241 0 
L 628 0 
L 628 4666 
z
" transform="scale(0.015625)"/>
       <path id="DejaVuSans-61" d="M 2194 1759 
Q 1497 1759 1228 1600 
Q 959 1441 959 1056 
Q 959 750 1161 570 
Q 1363 391 1709 391 
Q 2188 391 2477 730 
Q 2766 1069 2766 1631 
L 2766 1759 
L 2194 1759 
z
M 3341 1997 
L 3341 0 
L 2766 0 
L 2766 531 
Q 2569 213 2275 61 
Q 1981 -91 1556 -91 
Q 1019 -91 701 211 
Q 384 513 384 1019 
Q 384 1609 779 1909 
Q 1175 2209 1959 2209 
L 2766 2209 
L 2766 2266 
Q 2766 2663 2505 2880 
Q 2244 3097 1772 3097 
Q 1472 3097 1187 3025 
Q 903 2953 641 2809 
L 641 3341 
Q 956 3463 1253 3523 
Q 1550 3584 1831 3584 
Q 2591 3584 2966 3190 
Q 3341 2797 3341 1997 
z
" transform="scale(0.015625)"/>
       <path id="DejaVuSans-78" d="M 3513 3500 
L 2247 1797 
L 3578 0 
L 2900 0 
L 1881 1375 
L 863 0 
L 184 0 
L 1544 1831 
L 300 3500 
L 978 3500 
L 1906 2253 
L 2834 3500 
L 3513 3500 
z
" transform="scale(0.015625)"/>
       <path id="DejaVuSans-62" d="M 3116 1747 
Q 3116 2381 2855 2742 
Q 2594 3103 2138 3103 
Q 1681 3103 1420 2742 
Q 1159 2381 1159 1747 
Q 1159 1113 1420 752 
Q 1681 391 2138 391 
Q 2594 391 2855 752 
Q 3116 1113 3116 1747 
z
M 1159 2969 
Q 1341 3281 1617 3432 
Q 1894 3584 2278 3584 
Q 2916 3584 3314 3078 
Q 3713 2572 3713 1747 
Q 3713 922 3314 415 
Q 2916 -91 2278 -91 
Q 1894 -91 1617 61 
Q 1341 213 1159 525 
L 1159 0 
L 581 0 
L 581 4863 
L 1159 4863 
L 1159 2969 
z
" transform="scale(0.015625)"/>
       <path id="DejaVuSans-72" d="M 2631 2963 
Q 2534 3019 2420 3045 
Q 2306 3072 2169 3072 
Q 1681 3072 1420 2755 
Q 1159 2438 1159 1844 
L 1159 0 
L 581 0 
L 581 3500 
L 1159 3500 
L 1159 2956 
Q 1341 3275 1631 3429 
Q 1922 3584 2338 3584 
Q 2397 3584 2469 3576 
Q 2541 3569 2628 3553 
L 2631 2963 
z
" transform="scale(0.015625)"/>
      </defs>
      <use xlink:href="#DejaVuSans-4d"/>
      <use xlink:href="#DejaVuSans-61" x="86.279297"/>
      <use xlink:href="#DejaVuSans-78" x="147.558594"/>
      <use xlink:href="#DejaVuSans-20" x="206.738281"/>
      <use xlink:href="#DejaVuSans-61" x="238.525391"/>
      <use xlink:href="#DejaVuSans-62" x="299.804688"/>
      <use xlink:href="#DejaVuSans-73" x="363.28125"/>
      <use xlink:href="#DejaVuSans-20" x="415.380859"/>
      <use xlink:href="#DejaVuSans-65" x="447.167969"/>
      <use xlink:href="#DejaVuSans-72" x="508.691406"/>
      <use xlink:href="#DejaVuSans-72" x="548.054688"/>
      <use xlink:href="#DejaVuSans-6f" x="586.917969"/>
      <use xlink:href="#DejaVuSans-72" x="648.099609"/>
      <use xlink:href="#DejaVuSans-20" x="689.212891"/>
      <use xlink:href="#DejaVuSans-2f" x="721"/>
      <use xlink:href="#DejaVuSans-20" x="754.691406"/>
      <use xlink:href="#DejaVuSans-6d" x="786.478516"/>
      <use xlink:href="#DejaVuSans-4d" x="883.890625"/>
     </g>
    </g>
   </g>
   <g id="line2d_77">
    <path d="M 153.870261 121.583698 
L 337.895951 333.930594 
L 467.052777 473.04 
" clip-path="url(#pe82ae21aa6)" style="fill: none; stroke-dasharray: 7.4,3.2; stroke-dashoffset: 0; stroke: #006428; stroke-width: 2"/>
    <defs>
     <path id="m944cc6ce73" d="M 0 3.5 
C 0.928211 3.5 1.81853 3.131218 2.474874 2.474874 
C 3.131218 1.81853 3.5 0.928211 3.5 0 
C 3.5 -0.928211 3.131218 -1.81853 2.474874 -2.474874 
C 1.81853 -3.131218 0.928211 -3.5 0 -3.5 
C -0.928211 -3.5 -1.81853 -3.131218 -2.474874 -2.474874 
C -3.131218 -1.81853 -3.5 -0.928211 -3.5 0 
C -3.5 0.928211 -3.131218 1.81853 -2.474874 2.474874 
C -1.81853 3.131218 -0.928211 3.5 0 3.5 
z
" style="stroke: #006428"/>
    </defs>
    <g clip-path="url(#pe82ae21aa6)">
     <use xlink:href="#m944cc6ce73" x="153.870261" y="121.583698" style="fill: #006428; stroke: #006428"/>
     <use xlink:href="#m944cc6ce73" x="337.895951" y="333.930594" style="fill: #006428; stroke: #006428"/>
     <use xlink:href="#m944cc6ce73" x="467.052777" y="473.04" style="fill: #006428; stroke: #006428"/>
    </g>
   </g>
   <g id="line2d_78">
    <path d="M 132.668182 113.084979 
L 290.91375 305.565117 
L 470.052743 432.968624 
" clip-path="url(#pe82ae21aa6)" style="fill: none; stroke-dasharray: 7.4,3.2; stroke-dashoffset: 0; stroke: #3f007d; stroke-width: 2"/>
    <defs>
     <path id="m4b43c9895d" d="M 0 3.5 
C 0.928211 3.5 1.81853 3.131218 2.474874 2.474874 
C 3.131218 1.81853 3.5 0.928211 3.5 0 
C 3.5 -0.928211 3.131218 -1.81853 2.474874 -2.474874 
C 1.81853 -3.131218 0.928211 -3.5 0 -3.5 
C -0.928211 -3.5 -1.81853 -3.131218 -2.474874 -2.474874 
C -3.131218 -1.81853 -3.5 -0.928211 -3.5 0 
C -3.5 0.928211 -3.131218 1.81853 -2.474874 2.474874 
C -1.81853 3.131218 -0.928211 3.5 0 3.5 
z
" style="stroke: #3f007d"/>
    </defs>
    <g clip-path="url(#pe82ae21aa6)">
     <use xlink:href="#m4b43c9895d" x="132.668182" y="113.084979" style="fill: #3f007d; stroke: #3f007d"/>
     <use xlink:href="#m4b43c9895d" x="290.91375" y="305.565117" style="fill: #3f007d; stroke: #3f007d"/>
     <use xlink:href="#m4b43c9895d" x="470.052743" y="432.968624" style="fill: #3f007d; stroke: #3f007d"/>
    </g>
   </g>
   <g id="line2d_79">
    <path d="M 175.042838 121.389959 
L 348.47587 333.964425 
L 561.136975 472.912432 
" clip-path="url(#pe82ae21aa6)" style="fill: none; stroke-dasharray: 7.4,3.2; stroke-dashoffset: 0; stroke: #19833e; stroke-width: 2"/>
    <defs>
     <path id="m614a10e880" d="M 0 3.5 
C 0.928211 3.5 1.81853 3.131218 2.474874 2.474874 
C 3.131218 1.81853 3.5 0.928211 3.5 0 
C 3.5 -0.928211 3.131218 -1.81853 2.474874 -2.474874 
C 1.81853 -3.131218 0.928211 -3.5 0 -3.5 
C -0.928211 -3.5 -1.81853 -3.131218 -2.474874 -2.474874 
C -3.131218 -1.81853 -3.5 -0.928211 -3.5 0 
C -3.5 0.928211 -3.131218 1.81853 -2.474874 2.474874 
C -1.81853 3.131218 -0.928211 3.5 0 3.5 
z
" style="stroke: #19833e"/>
    </defs>
    <g clip-path="url(#pe82ae21aa6)">
     <use xlink:href="#m614a10e880" x="175.042838" y="121.389959" style="fill: #19833e; stroke: #19833e"/>
     <use xlink:href="#m614a10e880" x="348.47587" y="333.964425" style="fill: #19833e; stroke: #19833e"/>
     <use xlink:href="#m614a10e880" x="561.136975" y="472.912432" style="fill: #19833e; stroke: #19833e"/>
    </g>
   </g>
   <g id="line2d_80">
    <path d="M 165.026201 113.04 
L 360.87071 305.825327 
L 554.185779 432.91561 
" clip-path="url(#pe82ae21aa6)" style="fill: none; stroke-dasharray: 7.4,3.2; stroke-dashoffset: 0; stroke: #53258e; stroke-width: 2"/>
    <defs>
     <path id="m3c06875ca3" d="M 0 3.5 
C 0.928211 3.5 1.81853 3.131218 2.474874 2.474874 
C 3.131218 1.81853 3.5 0.928211 3.5 0 
C 3.5 -0.928211 3.131218 -1.81853 2.474874 -2.474874 
C 1.81853 -3.131218 0.928211 -3.5 0 -3.5 
C -0.928211 -3.5 -1.81853 -3.131218 -2.474874 -2.474874 
C -3.131218 -1.81853 -3.5 -0.928211 -3.5 0 
C -3.5 0.928211 -3.131218 1.81853 -2.474874 2.474874 
C -1.81853 3.131218 -0.928211 3.5 0 3.5 
z
" style="stroke: #53258e"/>
    </defs>
    <g clip-path="url(#pe82ae21aa6)">
     <use xlink:href="#m3c06875ca3" x="165.026201" y="113.04" style="fill: #53258e; stroke: #53258e"/>
     <use xlink:href="#m3c06875ca3" x="360.87071" y="305.825327" style="fill: #53258e; stroke: #53258e"/>
     <use xlink:href="#m3c06875ca3" x="554.185779" y="432.91561" style="fill: #53258e; stroke: #53258e"/>
    </g>
   </g>
   <g id="line2d_81">
    <path d="M 230.921044 121.39707 
L 444.99861 333.978619 
L 638.097842 472.914324 
" clip-path="url(#pe82ae21aa6)" style="fill: none; stroke-dasharray: 7.4,3.2; stroke-dashoffset: 0; stroke: #37a055; stroke-width: 2"/>
    <defs>
     <path id="md7d13d70af" d="M 0 3.5 
C 0.928211 3.5 1.81853 3.131218 2.474874 2.474874 
C 3.131218 1.81853 3.5 0.928211 3.5 0 
C 3.5 -0.928211 3.131218 -1.81853 2.474874 -2.474874 
C 1.81853 -3.131218 0.928211 -3.5 0 -3.5 
C -0.928211 -3.5 -1.81853 -3.131218 -2.474874 -2.474874 
C -3.131218 -1.81853 -3.5 -0.928211 -3.5 0 
C -3.5 0.928211 -3.131218 1.81853 -2.474874 2.474874 
C -1.81853 3.131218 -0.928211 3.5 0 3.5 
z
" style="stroke: #37a055"/>
    </defs>
    <g clip-path="url(#pe82ae21aa6)">
     <use xlink:href="#md7d13d70af" x="230.921044" y="121.39707" style="fill: #37a055; stroke: #37a055"/>
     <use xlink:href="#md7d13d70af" x="444.99861" y="333.978619" style="fill: #37a055; stroke: #37a055"/>
     <use xlink:href="#md7d13d70af" x="638.097842" y="472.914324" style="fill: #37a055; stroke: #37a055"/>
    </g>
   </g>
   <g id="line2d_82">
    <path d="M 223.577538 113.040649 
L 427.771415 305.809165 
L 629.893913 432.918277 
" clip-path="url(#pe82ae21aa6)" style="fill: none; stroke-dasharray: 7.4,3.2; stroke-dashoffset: 0; stroke: #674ca1; stroke-width: 2"/>
    <defs>
     <path id="md8712a06af" d="M 0 3.5 
C 0.928211 3.5 1.81853 3.131218 2.474874 2.474874 
C 3.131218 1.81853 3.5 0.928211 3.5 0 
C 3.5 -0.928211 3.131218 -1.81853 2.474874 -2.474874 
C 1.81853 -3.131218 0.928211 -3.5 0 -3.5 
C -0.928211 -3.5 -1.81853 -3.131218 -2.474874 -2.474874 
C -3.131218 -1.81853 -3.5 -0.928211 -3.5 0 
C -3.5 0.928211 -3.131218 1.81853 -2.474874 2.474874 
C -1.81853 3.131218 -0.928211 3.5 0 3.5 
z
" style="stroke: #674ca1"/>
    </defs>
    <g clip-path="url(#pe82ae21aa6)">
     <use xlink:href="#md8712a06af" x="223.577538" y="113.040649" style="fill: #674ca1; stroke: #674ca1"/>
     <use xlink:href="#md8712a06af" x="427.771415" y="305.809165" style="fill: #674ca1; stroke: #674ca1"/>
     <use xlink:href="#md8712a06af" x="629.893913" y="432.918277" style="fill: #674ca1; stroke: #674ca1"/>
    </g>
   </g>
   <g id="line2d_83">
    <path d="M 288.209893 121.396853 
L 491.160325 333.980793 
L 716.031818 472.914779 
" clip-path="url(#pe82ae21aa6)" style="fill: none; stroke-dasharray: 7.4,3.2; stroke-dashoffset: 0; stroke: #60ba6c; stroke-width: 2"/>
    <defs>
     <path id="m19bb2de548" d="M 0 3.5 
C 0.928211 3.5 1.81853 3.131218 2.474874 2.474874 
C 3.131218 1.81853 3.5 0.928211 3.5 0 
C 3.5 -0.928211 3.131218 -1.81853 2.474874 -2.474874 
C 1.81853 -3.131218 0.928211 -3.5 0 -3.5 
C -0.928211 -3.5 -1.81853 -3.131218 -2.474874 -2.474874 
C -3.131218 -1.81853 -3.5 -0.928211 -3.5 0 
C -3.5 0.928211 -3.131218 1.81853 -2.474874 2.474874 
C -1.81853 3.131218 -0.928211 3.5 0 3.5 
z
" style="stroke: #60ba6c"/>
    </defs>
    <g clip-path="url(#pe82ae21aa6)">
     <use xlink:href="#m19bb2de548" x="288.209893" y="121.396853" style="fill: #60ba6c; stroke: #60ba6c"/>
     <use xlink:href="#m19bb2de548" x="491.160325" y="333.980793" style="fill: #60ba6c; stroke: #60ba6c"/>
     <use xlink:href="#m19bb2de548" x="716.031818" y="472.914779" style="fill: #60ba6c; stroke: #60ba6c"/>
    </g>
   </g>
   <g id="line2d_84">
    <path d="M 281.220436 113.040642 
L 503.83001 305.809134 
L 704.554341 432.918337 
" clip-path="url(#pe82ae21aa6)" style="fill: none; stroke-dasharray: 7.4,3.2; stroke-dashoffset: 0; stroke: #7c75b6; stroke-width: 2"/>
    <defs>
     <path id="m4dbe0f4f38" d="M 0 3.5 
C 0.928211 3.5 1.81853 3.131218 2.474874 2.474874 
C 3.131218 1.81853 3.5 0.928211 3.5 0 
C 3.5 -0.928211 3.131218 -1.81853 2.474874 -2.474874 
C 1.81853 -3.131218 0.928211 -3.5 0 -3.5 
C -0.928211 -3.5 -1.81853 -3.131218 -2.474874 -2.474874 
C -3.131218 -1.81853 -3.5 -0.928211 -3.5 0 
C -3.5 0.928211 -3.131218 1.81853 -2.474874 2.474874 
C -1.81853 3.131218 -0.928211 3.5 0 3.5 
z
" style="stroke: #7c75b6"/>
    </defs>
    <g clip-path="url(#pe82ae21aa6)">
     <use xlink:href="#m4dbe0f4f38" x="281.220436" y="113.040642" style="fill: #7c75b6; stroke: #7c75b6"/>
     <use xlink:href="#m4dbe0f4f38" x="503.83001" y="305.809134" style="fill: #7c75b6; stroke: #7c75b6"/>
     <use xlink:href="#m4dbe0f4f38" x="704.554341" y="432.918337" style="fill: #7c75b6; stroke: #7c75b6"/>
    </g>
   </g>
   <g id="patch_3">
    <path d="M 103.5 491.04 
L 103.5 95.04 
" style="fill: none; stroke: #000000; stroke-width: 0.8; stroke-linejoin: miter; stroke-linecap: square"/>
   </g>
   <g id="patch_4">
    <path d="M 745.2 491.04 
L 745.2 95.04 
" style="fill: none; stroke: #000000; stroke-width: 0.8; stroke-linejoin: miter; stroke-linecap: square"/>
   </g>
   <g id="patch_5">
    <path d="M 103.5 491.04 
L 745.2 491.04 
" style="fill: none; stroke: #000000; stroke-width: 0.8; stroke-linejoin: miter; stroke-linecap: square"/>
   </g>
   <g id="patch_6">
    <path d="M 103.5 95.04 
L 745.2 95.04 
" style="fill: none; stroke: #000000; stroke-width: 0.8; stroke-linejoin: miter; stroke-linecap: square"/>
   </g>
   <g id="legend_1">
    <g id="patch_7">
     <path d="M 65.95 704.04 
L 782.75 704.04 
Q 786.75 704.04 786.75 700.04 
L 786.75 564.44 
Q 786.75 560.44 782.75 560.44 
L 65.95 560.44 
Q 61.95 560.44 61.95 564.44 
L 61.95 700.04 
Q 61.95 704.04 65.95 704.04 
z
" style="fill: #ffffff; stroke: #cccccc; stroke-linejoin: miter"/>
    </g>
    <g id="line2d_85">
     <path d="M 69.95 580.04 
L 89.95 580.04 
L 109.95 580.04 
" style="fill: none; stroke-dasharray: 7.4,3.2; stroke-dashoffset: 0; stroke: #006428; stroke-width: 2"/>
     <g>
      <use xlink:href="#m944cc6ce73" x="89.95" y="580.04" style="fill: #006428; stroke: #006428"/>
     </g>
    </g>
    <g id="text_7">
     <!-- DG-Julia, Exact, $N_d^p$=4 -->
     <g transform="translate(125.95 587.04) scale(0.2 -0.2)">
      <defs>
       <path id="DejaVuSans-44" d="M 1259 4147 
L 1259 519 
L 2022 519 
Q 2988 519 3436 956 
Q 3884 1394 3884 2338 
Q 3884 3275 3436 3711 
Q 2988 4147 2022 4147 
L 1259 4147 
z
M 628 4666 
L 1925 4666 
Q 3281 4666 3915 4102 
Q 4550 3538 4550 2338 
Q 4550 1131 3912 565 
Q 3275 0 1925 0 
L 628 0 
L 628 4666 
z
" transform="scale(0.015625)"/>
       <path id="DejaVuSans-47" d="M 3809 666 
L 3809 1919 
L 2778 1919 
L 2778 2438 
L 4434 2438 
L 4434 434 
Q 4069 175 3628 42 
Q 3188 -91 2688 -91 
Q 1594 -91 976 548 
Q 359 1188 359 2328 
Q 359 3472 976 4111 
Q 1594 4750 2688 4750 
Q 3144 4750 3555 4637 
Q 3966 4525 4313 4306 
L 4313 3634 
Q 3963 3931 3569 4081 
Q 3175 4231 2741 4231 
Q 1884 4231 1454 3753 
Q 1025 3275 1025 2328 
Q 1025 1384 1454 906 
Q 1884 428 2741 428 
Q 3075 428 3337 486 
Q 3600 544 3809 666 
z
" transform="scale(0.015625)"/>
       <path id="DejaVuSans-2d" d="M 313 2009 
L 1997 2009 
L 1997 1497 
L 313 1497 
L 313 2009 
z
" transform="scale(0.015625)"/>
       <path id="DejaVuSans-4a" d="M 628 4666 
L 1259 4666 
L 1259 325 
Q 1259 -519 939 -900 
Q 619 -1281 -91 -1281 
L -331 -1281 
L -331 -750 
L -134 -750 
Q 284 -750 456 -515 
Q 628 -281 628 325 
L 628 4666 
z
" transform="scale(0.015625)"/>
       <path id="DejaVuSans-6c" d="M 603 4863 
L 1178 4863 
L 1178 0 
L 603 0 
L 603 4863 
z
" transform="scale(0.015625)"/>
       <path id="DejaVuSans-2c" d="M 750 794 
L 1409 794 
L 1409 256 
L 897 -744 
L 494 -744 
L 750 256 
L 750 794 
z
" transform="scale(0.015625)"/>
       <path id="DejaVuSans-45" d="M 628 4666 
L 3578 4666 
L 3578 4134 
L 1259 4134 
L 1259 2753 
L 3481 2753 
L 3481 2222 
L 1259 2222 
L 1259 531 
L 3634 531 
L 3634 0 
L 628 0 
L 628 4666 
z
" transform="scale(0.015625)"/>
       <path id="DejaVuSans-63" d="M 3122 3366 
L 3122 2828 
Q 2878 2963 2633 3030 
Q 2388 3097 2138 3097 
Q 1578 3097 1268 2742 
Q 959 2388 959 1747 
Q 959 1106 1268 751 
Q 1578 397 2138 397 
Q 2388 397 2633 464 
Q 2878 531 3122 666 
L 3122 134 
Q 2881 22 2623 -34 
Q 2366 -91 2075 -91 
Q 1284 -91 818 406 
Q 353 903 353 1747 
Q 353 2603 823 3093 
Q 1294 3584 2113 3584 
Q 2378 3584 2631 3529 
Q 2884 3475 3122 3366 
z
" transform="scale(0.015625)"/>
       <path id="DejaVuSans-Oblique-4e" d="M 1081 4666 
L 1931 4666 
L 3219 666 
L 4000 4666 
L 4616 4666 
L 3706 0 
L 2853 0 
L 1569 4025 
L 788 0 
L 172 0 
L 1081 4666 
z
" transform="scale(0.015625)"/>
       <path id="DejaVuSans-Oblique-70" d="M 3175 2156 
Q 3175 2616 2975 2859 
Q 2775 3103 2400 3103 
Q 2144 3103 1911 2972 
Q 1678 2841 1497 2591 
Q 1319 2344 1212 1994 
Q 1106 1644 1106 1300 
Q 1106 863 1306 627 
Q 1506 391 1875 391 
Q 2147 391 2380 519 
Q 2613 647 2778 891 
Q 2956 1147 3065 1494 
Q 3175 1841 3175 2156 
z
M 1394 2969 
Q 1625 3272 1939 3428 
Q 2253 3584 2638 3584 
Q 3175 3584 3472 3232 
Q 3769 2881 3769 2247 
Q 3769 1728 3584 1258 
Q 3400 788 3053 416 
Q 2822 169 2531 39 
Q 2241 -91 1919 -91 
Q 1547 -91 1294 64 
Q 1041 219 916 525 
L 556 -1331 
L -19 -1331 
L 922 3500 
L 1497 3500 
L 1394 2969 
z
" transform="scale(0.015625)"/>
       <path id="DejaVuSans-Oblique-64" d="M 2675 525 
Q 2444 222 2128 65 
Q 1813 -91 1428 -91 
Q 903 -91 598 267 
Q 294 625 294 1247 
Q 294 1766 478 2236 
Q 663 2706 1013 3078 
Q 1244 3325 1534 3454 
Q 1825 3584 2144 3584 
Q 2481 3584 2739 3421 
Q 2997 3259 3138 2956 
L 3513 4863 
L 4091 4863 
L 3144 0 
L 2566 0 
L 2675 525 
z
M 891 1350 
Q 891 897 1095 644 
Q 1300 391 1663 391 
Q 1931 391 2161 520 
Q 2391 650 2566 903 
Q 2750 1166 2856 1509 
Q 2963 1853 2963 2188 
Q 2963 2622 2758 2865 
Q 2553 3109 2194 3109 
Q 1922 3109 1687 2981 
Q 1453 2853 1288 2613 
Q 1106 2353 998 2009 
Q 891 1666 891 1350 
z
" transform="scale(0.015625)"/>
       <path id="DejaVuSans-3d" d="M 678 2906 
L 4684 2906 
L 4684 2381 
L 678 2381 
L 678 2906 
z
M 678 1631 
L 4684 1631 
L 4684 1100 
L 678 1100 
L 678 1631 
z
" transform="scale(0.015625)"/>
       <path id="DejaVuSans-34" d="M 2419 4116 
L 825 1625 
L 2419 1625 
L 2419 4116 
z
M 2253 4666 
L 3047 4666 
L 3047 1625 
L 3713 1625 
L 3713 1100 
L 3047 1100 
L 3047 0 
L 2419 0 
L 2419 1100 
L 313 1100 
L 313 1709 
L 2253 4666 
z
" transform="scale(0.015625)"/>
      </defs>
      <use xlink:href="#DejaVuSans-44" transform="translate(0 0.896875)"/>
      <use xlink:href="#DejaVuSans-47" transform="translate(77.001953 0.896875)"/>
      <use xlink:href="#DejaVuSans-2d" transform="translate(154.492188 0.896875)"/>
      <use xlink:href="#DejaVuSans-4a" transform="translate(190.576172 0.896875)"/>
      <use xlink:href="#DejaVuSans-75" transform="translate(220.068359 0.896875)"/>
      <use xlink:href="#DejaVuSans-6c" transform="translate(283.447266 0.896875)"/>
      <use xlink:href="#DejaVuSans-69" transform="translate(311.230469 0.896875)"/>
      <use xlink:href="#DejaVuSans-61" transform="translate(339.013672 0.896875)"/>
      <use xlink:href="#DejaVuSans-2c" transform="translate(400.292969 0.896875)"/>
      <use xlink:href="#DejaVuSans-20" transform="translate(432.080078 0.896875)"/>
      <use xlink:href="#DejaVuSans-45" transform="translate(463.867188 0.896875)"/>
      <use xlink:href="#DejaVuSans-78" transform="translate(527.050781 0.896875)"/>
      <use xlink:href="#DejaVuSans-61" transform="translate(586.230469 0.896875)"/>
      <use xlink:href="#DejaVuSans-63" transform="translate(647.509766 0.896875)"/>
      <use xlink:href="#DejaVuSans-74" transform="translate(702.490234 0.896875)"/>
      <use xlink:href="#DejaVuSans-2c" transform="translate(741.699219 0.896875)"/>
      <use xlink:href="#DejaVuSans-20" transform="translate(773.486328 0.896875)"/>
      <use xlink:href="#DejaVuSans-Oblique-4e" transform="translate(805.273438 0.896875)"/>
      <use xlink:href="#DejaVuSans-Oblique-70" transform="translate(887.094896 53.8) scale(0.7)"/>
      <use xlink:href="#DejaVuSans-Oblique-64" transform="translate(880.078125 -26.446875) scale(0.7)"/>
      <use xlink:href="#DejaVuSans-3d" transform="translate(934.262865 0.896875)"/>
      <use xlink:href="#DejaVuSans-34" transform="translate(1018.051927 0.896875)"/>
     </g>
    </g>
    <g id="line2d_86">
     <path d="M 69.95 614.44 
L 89.95 614.44 
L 109.95 614.44 
" style="fill: none; stroke-dasharray: 7.4,3.2; stroke-dashoffset: 0; stroke: #3f007d; stroke-width: 2"/>
     <g>
      <use xlink:href="#m4b43c9895d" x="89.95" y="614.44" style="fill: #3f007d; stroke: #3f007d"/>
     </g>
    </g>
    <g id="text_8">
     <!-- DG-Julia, Collocation, $N_d^p$=4 -->
     <g transform="translate(125.95 621.44) scale(0.2 -0.2)">
      <defs>
       <path id="DejaVuSans-6e" d="M 3513 2113 
L 3513 0 
L 2938 0 
L 2938 2094 
Q 2938 2591 2744 2837 
Q 2550 3084 2163 3084 
Q 1697 3084 1428 2787 
Q 1159 2491 1159 1978 
L 1159 0 
L 581 0 
L 581 3500 
L 1159 3500 
L 1159 2956 
Q 1366 3272 1645 3428 
Q 1925 3584 2291 3584 
Q 2894 3584 3203 3211 
Q 3513 2838 3513 2113 
z
" transform="scale(0.015625)"/>
      </defs>
      <use xlink:href="#DejaVuSans-44" transform="translate(0 0.896875)"/>
      <use xlink:href="#DejaVuSans-47" transform="translate(77.001953 0.896875)"/>
      <use xlink:href="#DejaVuSans-2d" transform="translate(154.492188 0.896875)"/>
      <use xlink:href="#DejaVuSans-4a" transform="translate(190.576172 0.896875)"/>
      <use xlink:href="#DejaVuSans-75" transform="translate(220.068359 0.896875)"/>
      <use xlink:href="#DejaVuSans-6c" transform="translate(283.447266 0.896875)"/>
      <use xlink:href="#DejaVuSans-69" transform="translate(311.230469 0.896875)"/>
      <use xlink:href="#DejaVuSans-61" transform="translate(339.013672 0.896875)"/>
      <use xlink:href="#DejaVuSans-2c" transform="translate(400.292969 0.896875)"/>
      <use xlink:href="#DejaVuSans-20" transform="translate(432.080078 0.896875)"/>
      <use xlink:href="#DejaVuSans-43" transform="translate(463.867188 0.896875)"/>
      <use xlink:href="#DejaVuSans-6f" transform="translate(533.691406 0.896875)"/>
      <use xlink:href="#DejaVuSans-6c" transform="translate(594.873047 0.896875)"/>
      <use xlink:href="#DejaVuSans-6c" transform="translate(622.65625 0.896875)"/>
      <use xlink:href="#DejaVuSans-6f" transform="translate(650.439453 0.896875)"/>
      <use xlink:href="#DejaVuSans-63" transform="translate(711.621094 0.896875)"/>
      <use xlink:href="#DejaVuSans-61" transform="translate(766.601562 0.896875)"/>
      <use xlink:href="#DejaVuSans-74" transform="translate(827.880859 0.896875)"/>
      <use xlink:href="#DejaVuSans-69" transform="translate(867.089844 0.896875)"/>
      <use xlink:href="#DejaVuSans-6f" transform="translate(894.873047 0.896875)"/>
      <use xlink:href="#DejaVuSans-6e" transform="translate(956.054688 0.896875)"/>
      <use xlink:href="#DejaVuSans-2c" transform="translate(1019.433594 0.896875)"/>
      <use xlink:href="#DejaVuSans-20" transform="translate(1051.220703 0.896875)"/>
      <use xlink:href="#DejaVuSans-Oblique-4e" transform="translate(1083.007812 0.896875)"/>
      <use xlink:href="#DejaVuSans-Oblique-70" transform="translate(1164.829271 53.8) scale(0.7)"/>
      <use xlink:href="#DejaVuSans-Oblique-64" transform="translate(1157.8125 -26.446875) scale(0.7)"/>
      <use xlink:href="#DejaVuSans-3d" transform="translate(1211.99724 0.896875)"/>
      <use xlink:href="#DejaVuSans-34" transform="translate(1295.786302 0.896875)"/>
     </g>
    </g>
    <g id="line2d_87">
     <path d="M 69.95 648.84 
L 89.95 648.84 
L 109.95 648.84 
" style="fill: none; stroke-dasharray: 7.4,3.2; stroke-dashoffset: 0; stroke: #19833e; stroke-width: 2"/>
     <g>
      <use xlink:href="#m614a10e880" x="89.95" y="648.84" style="fill: #19833e; stroke: #19833e"/>
     </g>
    </g>
    <g id="text_9">
     <!-- DG-Julia, Exact, $N_d^p$=6 -->
     <g transform="translate(125.95 655.84) scale(0.2 -0.2)">
      <defs>
       <path id="DejaVuSans-36" d="M 2113 2584 
Q 1688 2584 1439 2293 
Q 1191 2003 1191 1497 
Q 1191 994 1439 701 
Q 1688 409 2113 409 
Q 2538 409 2786 701 
Q 3034 994 3034 1497 
Q 3034 2003 2786 2293 
Q 2538 2584 2113 2584 
z
M 3366 4563 
L 3366 3988 
Q 3128 4100 2886 4159 
Q 2644 4219 2406 4219 
Q 1781 4219 1451 3797 
Q 1122 3375 1075 2522 
Q 1259 2794 1537 2939 
Q 1816 3084 2150 3084 
Q 2853 3084 3261 2657 
Q 3669 2231 3669 1497 
Q 3669 778 3244 343 
Q 2819 -91 2113 -91 
Q 1303 -91 875 529 
Q 447 1150 447 2328 
Q 447 3434 972 4092 
Q 1497 4750 2381 4750 
Q 2619 4750 2861 4703 
Q 3103 4656 3366 4563 
z
" transform="scale(0.015625)"/>
      </defs>
      <use xlink:href="#DejaVuSans-44" transform="translate(0 0.896875)"/>
      <use xlink:href="#DejaVuSans-47" transform="translate(77.001953 0.896875)"/>
      <use xlink:href="#DejaVuSans-2d" transform="translate(154.492188 0.896875)"/>
      <use xlink:href="#DejaVuSans-4a" transform="translate(190.576172 0.896875)"/>
      <use xlink:href="#DejaVuSans-75" transform="translate(220.068359 0.896875)"/>
      <use xlink:href="#DejaVuSans-6c" transform="translate(283.447266 0.896875)"/>
      <use xlink:href="#DejaVuSans-69" transform="translate(311.230469 0.896875)"/>
      <use xlink:href="#DejaVuSans-61" transform="translate(339.013672 0.896875)"/>
      <use xlink:href="#DejaVuSans-2c" transform="translate(400.292969 0.896875)"/>
      <use xlink:href="#DejaVuSans-20" transform="translate(432.080078 0.896875)"/>
      <use xlink:href="#DejaVuSans-45" transform="translate(463.867188 0.896875)"/>
      <use xlink:href="#DejaVuSans-78" transform="translate(527.050781 0.896875)"/>
      <use xlink:href="#DejaVuSans-61" transform="translate(586.230469 0.896875)"/>
      <use xlink:href="#DejaVuSans-63" transform="translate(647.509766 0.896875)"/>
      <use xlink:href="#DejaVuSans-74" transform="translate(702.490234 0.896875)"/>
      <use xlink:href="#DejaVuSans-2c" transform="translate(741.699219 0.896875)"/>
      <use xlink:href="#DejaVuSans-20" transform="translate(773.486328 0.896875)"/>
      <use xlink:href="#DejaVuSans-Oblique-4e" transform="translate(805.273438 0.896875)"/>
      <use xlink:href="#DejaVuSans-Oblique-70" transform="translate(887.094896 53.8) scale(0.7)"/>
      <use xlink:href="#DejaVuSans-Oblique-64" transform="translate(880.078125 -26.446875) scale(0.7)"/>
      <use xlink:href="#DejaVuSans-3d" transform="translate(934.262865 0.896875)"/>
      <use xlink:href="#DejaVuSans-36" transform="translate(1018.051927 0.896875)"/>
     </g>
    </g>
    <g id="line2d_88">
     <path d="M 69.95 683.24 
L 89.95 683.24 
L 109.95 683.24 
" style="fill: none; stroke-dasharray: 7.4,3.2; stroke-dashoffset: 0; stroke: #53258e; stroke-width: 2"/>
     <g>
      <use xlink:href="#m3c06875ca3" x="89.95" y="683.24" style="fill: #53258e; stroke: #53258e"/>
     </g>
    </g>
    <g id="text_10">
     <!-- DG-Julia, Collocation, $N_d^p$=6 -->
     <g transform="translate(125.95 690.24) scale(0.2 -0.2)">
      <use xlink:href="#DejaVuSans-44" transform="translate(0 0.896875)"/>
      <use xlink:href="#DejaVuSans-47" transform="translate(77.001953 0.896875)"/>
      <use xlink:href="#DejaVuSans-2d" transform="translate(154.492188 0.896875)"/>
      <use xlink:href="#DejaVuSans-4a" transform="translate(190.576172 0.896875)"/>
      <use xlink:href="#DejaVuSans-75" transform="translate(220.068359 0.896875)"/>
      <use xlink:href="#DejaVuSans-6c" transform="translate(283.447266 0.896875)"/>
      <use xlink:href="#DejaVuSans-69" transform="translate(311.230469 0.896875)"/>
      <use xlink:href="#DejaVuSans-61" transform="translate(339.013672 0.896875)"/>
      <use xlink:href="#DejaVuSans-2c" transform="translate(400.292969 0.896875)"/>
      <use xlink:href="#DejaVuSans-20" transform="translate(432.080078 0.896875)"/>
      <use xlink:href="#DejaVuSans-43" transform="translate(463.867188 0.896875)"/>
      <use xlink:href="#DejaVuSans-6f" transform="translate(533.691406 0.896875)"/>
      <use xlink:href="#DejaVuSans-6c" transform="translate(594.873047 0.896875)"/>
      <use xlink:href="#DejaVuSans-6c" transform="translate(622.65625 0.896875)"/>
      <use xlink:href="#DejaVuSans-6f" transform="translate(650.439453 0.896875)"/>
      <use xlink:href="#DejaVuSans-63" transform="translate(711.621094 0.896875)"/>
      <use xlink:href="#DejaVuSans-61" transform="translate(766.601562 0.896875)"/>
      <use xlink:href="#DejaVuSans-74" transform="translate(827.880859 0.896875)"/>
      <use xlink:href="#DejaVuSans-69" transform="translate(867.089844 0.896875)"/>
      <use xlink:href="#DejaVuSans-6f" transform="translate(894.873047 0.896875)"/>
      <use xlink:href="#DejaVuSans-6e" transform="translate(956.054688 0.896875)"/>
      <use xlink:href="#DejaVuSans-2c" transform="translate(1019.433594 0.896875)"/>
      <use xlink:href="#DejaVuSans-20" transform="translate(1051.220703 0.896875)"/>
      <use xlink:href="#DejaVuSans-Oblique-4e" transform="translate(1083.007812 0.896875)"/>
      <use xlink:href="#DejaVuSans-Oblique-70" transform="translate(1164.829271 53.8) scale(0.7)"/>
      <use xlink:href="#DejaVuSans-Oblique-64" transform="translate(1157.8125 -26.446875) scale(0.7)"/>
      <use xlink:href="#DejaVuSans-3d" transform="translate(1211.99724 0.896875)"/>
      <use xlink:href="#DejaVuSans-36" transform="translate(1295.786302 0.896875)"/>
     </g>
    </g>
    <g id="line2d_89">
     <path d="M 437.95 580.04 
L 457.95 580.04 
L 477.95 580.04 
" style="fill: none; stroke-dasharray: 7.4,3.2; stroke-dashoffset: 0; stroke: #37a055; stroke-width: 2"/>
     <g>
      <use xlink:href="#md7d13d70af" x="457.95" y="580.04" style="fill: #37a055; stroke: #37a055"/>
     </g>
    </g>
    <g id="text_11">
     <!-- DG-Julia, Exact, $N_d^p$=8 -->
     <g transform="translate(493.95 587.04) scale(0.2 -0.2)">
      <defs>
       <path id="DejaVuSans-38" d="M 2034 2216 
Q 1584 2216 1326 1975 
Q 1069 1734 1069 1313 
Q 1069 891 1326 650 
Q 1584 409 2034 409 
Q 2484 409 2743 651 
Q 3003 894 3003 1313 
Q 3003 1734 2745 1975 
Q 2488 2216 2034 2216 
z
M 1403 2484 
Q 997 2584 770 2862 
Q 544 3141 544 3541 
Q 544 4100 942 4425 
Q 1341 4750 2034 4750 
Q 2731 4750 3128 4425 
Q 3525 4100 3525 3541 
Q 3525 3141 3298 2862 
Q 3072 2584 2669 2484 
Q 3125 2378 3379 2068 
Q 3634 1759 3634 1313 
Q 3634 634 3220 271 
Q 2806 -91 2034 -91 
Q 1263 -91 848 271 
Q 434 634 434 1313 
Q 434 1759 690 2068 
Q 947 2378 1403 2484 
z
M 1172 3481 
Q 1172 3119 1398 2916 
Q 1625 2713 2034 2713 
Q 2441 2713 2670 2916 
Q 2900 3119 2900 3481 
Q 2900 3844 2670 4047 
Q 2441 4250 2034 4250 
Q 1625 4250 1398 4047 
Q 1172 3844 1172 3481 
z
" transform="scale(0.015625)"/>
      </defs>
      <use xlink:href="#DejaVuSans-44" transform="translate(0 0.896875)"/>
      <use xlink:href="#DejaVuSans-47" transform="translate(77.001953 0.896875)"/>
      <use xlink:href="#DejaVuSans-2d" transform="translate(154.492188 0.896875)"/>
      <use xlink:href="#DejaVuSans-4a" transform="translate(190.576172 0.896875)"/>
      <use xlink:href="#DejaVuSans-75" transform="translate(220.068359 0.896875)"/>
      <use xlink:href="#DejaVuSans-6c" transform="translate(283.447266 0.896875)"/>
      <use xlink:href="#DejaVuSans-69" transform="translate(311.230469 0.896875)"/>
      <use xlink:href="#DejaVuSans-61" transform="translate(339.013672 0.896875)"/>
      <use xlink:href="#DejaVuSans-2c" transform="translate(400.292969 0.896875)"/>
      <use xlink:href="#DejaVuSans-20" transform="translate(432.080078 0.896875)"/>
      <use xlink:href="#DejaVuSans-45" transform="translate(463.867188 0.896875)"/>
      <use xlink:href="#DejaVuSans-78" transform="translate(527.050781 0.896875)"/>
      <use xlink:href="#DejaVuSans-61" transform="translate(586.230469 0.896875)"/>
      <use xlink:href="#DejaVuSans-63" transform="translate(647.509766 0.896875)"/>
      <use xlink:href="#DejaVuSans-74" transform="translate(702.490234 0.896875)"/>
      <use xlink:href="#DejaVuSans-2c" transform="translate(741.699219 0.896875)"/>
      <use xlink:href="#DejaVuSans-20" transform="translate(773.486328 0.896875)"/>
      <use xlink:href="#DejaVuSans-Oblique-4e" transform="translate(805.273438 0.896875)"/>
      <use xlink:href="#DejaVuSans-Oblique-70" transform="translate(887.094896 53.8) scale(0.7)"/>
      <use xlink:href="#DejaVuSans-Oblique-64" transform="translate(880.078125 -26.446875) scale(0.7)"/>
      <use xlink:href="#DejaVuSans-3d" transform="translate(934.262865 0.896875)"/>
      <use xlink:href="#DejaVuSans-38" transform="translate(1018.051927 0.896875)"/>
     </g>
    </g>
    <g id="line2d_90">
     <path d="M 437.95 614.44 
L 457.95 614.44 
L 477.95 614.44 
" style="fill: none; stroke-dasharray: 7.4,3.2; stroke-dashoffset: 0; stroke: #674ca1; stroke-width: 2"/>
     <g>
      <use xlink:href="#md8712a06af" x="457.95" y="614.44" style="fill: #674ca1; stroke: #674ca1"/>
     </g>
    </g>
    <g id="text_12">
     <!-- DG-Julia, Collocation, $N_d^p$=8 -->
     <g transform="translate(493.95 621.44) scale(0.2 -0.2)">
      <use xlink:href="#DejaVuSans-44" transform="translate(0 0.896875)"/>
      <use xlink:href="#DejaVuSans-47" transform="translate(77.001953 0.896875)"/>
      <use xlink:href="#DejaVuSans-2d" transform="translate(154.492188 0.896875)"/>
      <use xlink:href="#DejaVuSans-4a" transform="translate(190.576172 0.896875)"/>
      <use xlink:href="#DejaVuSans-75" transform="translate(220.068359 0.896875)"/>
      <use xlink:href="#DejaVuSans-6c" transform="translate(283.447266 0.896875)"/>
      <use xlink:href="#DejaVuSans-69" transform="translate(311.230469 0.896875)"/>
      <use xlink:href="#DejaVuSans-61" transform="translate(339.013672 0.896875)"/>
      <use xlink:href="#DejaVuSans-2c" transform="translate(400.292969 0.896875)"/>
      <use xlink:href="#DejaVuSans-20" transform="translate(432.080078 0.896875)"/>
      <use xlink:href="#DejaVuSans-43" transform="translate(463.867188 0.896875)"/>
      <use xlink:href="#DejaVuSans-6f" transform="translate(533.691406 0.896875)"/>
      <use xlink:href="#DejaVuSans-6c" transform="translate(594.873047 0.896875)"/>
      <use xlink:href="#DejaVuSans-6c" transform="translate(622.65625 0.896875)"/>
      <use xlink:href="#DejaVuSans-6f" transform="translate(650.439453 0.896875)"/>
      <use xlink:href="#DejaVuSans-63" transform="translate(711.621094 0.896875)"/>
      <use xlink:href="#DejaVuSans-61" transform="translate(766.601562 0.896875)"/>
      <use xlink:href="#DejaVuSans-74" transform="translate(827.880859 0.896875)"/>
      <use xlink:href="#DejaVuSans-69" transform="translate(867.089844 0.896875)"/>
      <use xlink:href="#DejaVuSans-6f" transform="translate(894.873047 0.896875)"/>
      <use xlink:href="#DejaVuSans-6e" transform="translate(956.054688 0.896875)"/>
      <use xlink:href="#DejaVuSans-2c" transform="translate(1019.433594 0.896875)"/>
      <use xlink:href="#DejaVuSans-20" transform="translate(1051.220703 0.896875)"/>
      <use xlink:href="#DejaVuSans-Oblique-4e" transform="translate(1083.007812 0.896875)"/>
      <use xlink:href="#DejaVuSans-Oblique-70" transform="translate(1164.829271 53.8) scale(0.7)"/>
      <use xlink:href="#DejaVuSans-Oblique-64" transform="translate(1157.8125 -26.446875) scale(0.7)"/>
      <use xlink:href="#DejaVuSans-3d" transform="translate(1211.99724 0.896875)"/>
      <use xlink:href="#DejaVuSans-38" transform="translate(1295.786302 0.896875)"/>
     </g>
    </g>
    <g id="line2d_91">
     <path d="M 437.95 648.84 
L 457.95 648.84 
L 477.95 648.84 
" style="fill: none; stroke-dasharray: 7.4,3.2; stroke-dashoffset: 0; stroke: #60ba6c; stroke-width: 2"/>
     <g>
      <use xlink:href="#m19bb2de548" x="457.95" y="648.84" style="fill: #60ba6c; stroke: #60ba6c"/>
     </g>
    </g>
    <g id="text_13">
     <!-- DG-Julia, Exact, $N_d^p$=10 -->
     <g transform="translate(493.95 655.84) scale(0.2 -0.2)">
      <use xlink:href="#DejaVuSans-44" transform="translate(0 0.896875)"/>
      <use xlink:href="#DejaVuSans-47" transform="translate(77.001953 0.896875)"/>
      <use xlink:href="#DejaVuSans-2d" transform="translate(154.492188 0.896875)"/>
      <use xlink:href="#DejaVuSans-4a" transform="translate(190.576172 0.896875)"/>
      <use xlink:href="#DejaVuSans-75" transform="translate(220.068359 0.896875)"/>
      <use xlink:href="#DejaVuSans-6c" transform="translate(283.447266 0.896875)"/>
      <use xlink:href="#DejaVuSans-69" transform="translate(311.230469 0.896875)"/>
      <use xlink:href="#DejaVuSans-61" transform="translate(339.013672 0.896875)"/>
      <use xlink:href="#DejaVuSans-2c" transform="translate(400.292969 0.896875)"/>
      <use xlink:href="#DejaVuSans-20" transform="translate(432.080078 0.896875)"/>
      <use xlink:href="#DejaVuSans-45" transform="translate(463.867188 0.896875)"/>
      <use xlink:href="#DejaVuSans-78" transform="translate(527.050781 0.896875)"/>
      <use xlink:href="#DejaVuSans-61" transform="translate(586.230469 0.896875)"/>
      <use xlink:href="#DejaVuSans-63" transform="translate(647.509766 0.896875)"/>
      <use xlink:href="#DejaVuSans-74" transform="translate(702.490234 0.896875)"/>
      <use xlink:href="#DejaVuSans-2c" transform="translate(741.699219 0.896875)"/>
      <use xlink:href="#DejaVuSans-20" transform="translate(773.486328 0.896875)"/>
      <use xlink:href="#DejaVuSans-Oblique-4e" transform="translate(805.273438 0.896875)"/>
      <use xlink:href="#DejaVuSans-Oblique-70" transform="translate(887.094896 53.8) scale(0.7)"/>
      <use xlink:href="#DejaVuSans-Oblique-64" transform="translate(880.078125 -26.446875) scale(0.7)"/>
      <use xlink:href="#DejaVuSans-3d" transform="translate(934.262865 0.896875)"/>
      <use xlink:href="#DejaVuSans-31" transform="translate(1018.051927 0.896875)"/>
      <use xlink:href="#DejaVuSans-30" transform="translate(1081.674974 0.896875)"/>
     </g>
    </g>
    <g id="line2d_92">
     <path d="M 437.95 683.24 
L 457.95 683.24 
L 477.95 683.24 
" style="fill: none; stroke-dasharray: 7.4,3.2; stroke-dashoffset: 0; stroke: #7c75b6; stroke-width: 2"/>
     <g>
      <use xlink:href="#m4dbe0f4f38" x="457.95" y="683.24" style="fill: #7c75b6; stroke: #7c75b6"/>
     </g>
    </g>
    <g id="text_14">
     <!-- DG-Julia, Collocation, $N_d^p$=10 -->
     <g transform="translate(493.95 690.24) scale(0.2 -0.2)">
      <use xlink:href="#DejaVuSans-44" transform="translate(0 0.896875)"/>
      <use xlink:href="#DejaVuSans-47" transform="translate(77.001953 0.896875)"/>
      <use xlink:href="#DejaVuSans-2d" transform="translate(154.492188 0.896875)"/>
      <use xlink:href="#DejaVuSans-4a" transform="translate(190.576172 0.896875)"/>
      <use xlink:href="#DejaVuSans-75" transform="translate(220.068359 0.896875)"/>
      <use xlink:href="#DejaVuSans-6c" transform="translate(283.447266 0.896875)"/>
      <use xlink:href="#DejaVuSans-69" transform="translate(311.230469 0.896875)"/>
      <use xlink:href="#DejaVuSans-61" transform="translate(339.013672 0.896875)"/>
      <use xlink:href="#DejaVuSans-2c" transform="translate(400.292969 0.896875)"/>
      <use xlink:href="#DejaVuSans-20" transform="translate(432.080078 0.896875)"/>
      <use xlink:href="#DejaVuSans-43" transform="translate(463.867188 0.896875)"/>
      <use xlink:href="#DejaVuSans-6f" transform="translate(533.691406 0.896875)"/>
      <use xlink:href="#DejaVuSans-6c" transform="translate(594.873047 0.896875)"/>
      <use xlink:href="#DejaVuSans-6c" transform="translate(622.65625 0.896875)"/>
      <use xlink:href="#DejaVuSans-6f" transform="translate(650.439453 0.896875)"/>
      <use xlink:href="#DejaVuSans-63" transform="translate(711.621094 0.896875)"/>
      <use xlink:href="#DejaVuSans-61" transform="translate(766.601562 0.896875)"/>
      <use xlink:href="#DejaVuSans-74" transform="translate(827.880859 0.896875)"/>
      <use xlink:href="#DejaVuSans-69" transform="translate(867.089844 0.896875)"/>
      <use xlink:href="#DejaVuSans-6f" transform="translate(894.873047 0.896875)"/>
      <use xlink:href="#DejaVuSans-6e" transform="translate(956.054688 0.896875)"/>
      <use xlink:href="#DejaVuSans-2c" transform="translate(1019.433594 0.896875)"/>
      <use xlink:href="#DejaVuSans-20" transform="translate(1051.220703 0.896875)"/>
      <use xlink:href="#DejaVuSans-Oblique-4e" transform="translate(1083.007812 0.896875)"/>
      <use xlink:href="#DejaVuSans-Oblique-70" transform="translate(1164.829271 53.8) scale(0.7)"/>
      <use xlink:href="#DejaVuSans-Oblique-64" transform="translate(1157.8125 -26.446875) scale(0.7)"/>
      <use xlink:href="#DejaVuSans-3d" transform="translate(1211.99724 0.896875)"/>
      <use xlink:href="#DejaVuSans-31" transform="translate(1295.786302 0.896875)"/>
      <use xlink:href="#DejaVuSans-30" transform="translate(1359.409349 0.896875)"/>
     </g>
    </g>
   </g>
  </g>
 </g>
 <defs>
  <clipPath id="pe82ae21aa6">
   <rect x="103.5" y="95.04" width="641.7" height="396"/>
  </clipPath>
 </defs>
</svg>
