<?xml version="1.0" encoding="utf-8" standalone="no"?>
<!DOCTYPE svg PUBLIC "-//W3C//DTD SVG 1.1//EN"
  "http://www.w3.org/Graphics/SVG/1.1/DTD/svg11.dtd">
<svg xmlns:xlink="http://www.w3.org/1999/xlink" width="432pt" height="288pt" viewBox="0 0 432 288" xmlns="http://www.w3.org/2000/svg" version="1.1">
 <metadata>
  <rdf:RDF xmlns:dc="http://purl.org/dc/elements/1.1/" xmlns:cc="http://creativecommons.org/ns#" xmlns:rdf="http://www.w3.org/1999/02/22-rdf-syntax-ns#">
   <cc:Work>
    <dc:type rdf:resource="http://purl.org/dc/dcmitype/StillImage"/>
    <dc:date>2024-10-07T10:57:15.333863</dc:date>
    <dc:format>image/svg+xml</dc:format>
    <dc:creator>
     <cc:Agent>
      <dc:title>Matplotlib v3.9.1, https://matplotlib.org/</dc:title>
     </cc:Agent>
    </dc:creator>
   </cc:Work>
  </rdf:RDF>
 </metadata>
 <defs>
  <style type="text/css">*{stroke-linejoin: round; stroke-linecap: butt}</style>
 </defs>
 <g id="figure_1">
  <g id="patch_1">
   <path d="M 0 288 
L 432 288 
L 432 0 
L 0 0 
z
" style="fill: #ffffff"/>
  </g>
  <g id="axes_1">
   <g id="patch_2">
    <path d="M 54 252 
L 388.8 252 
L 388.8 34.56 
L 54 34.56 
z
" style="fill: #ffffff"/>
   </g>
   <g id="matplotlib.axis_1">
    <g id="xtick_1">
     <g id="line2d_1">
      <defs>
       <path id="mc9a6df0335" d="M 0 0 
L 0 3.5 
" style="stroke: #000000; stroke-width: 0.8"/>
      </defs>
      <g>
       <use xlink:href="#mc9a6df0335" x="69.218182" y="252" style="stroke: #000000; stroke-width: 0.8"/>
      </g>
     </g>
     <g id="text_1">
      <!-- 0 -->
      <g transform="translate(66.036932 266.598437) scale(0.1 -0.1)">
       <defs>
        <path id="DejaVuSans-30" d="M 2034 4250 
Q 1547 4250 1301 3770 
Q 1056 3291 1056 2328 
Q 1056 1369 1301 889 
Q 1547 409 2034 409 
Q 2525 409 2770 889 
Q 3016 1369 3016 2328 
Q 3016 3291 2770 3770 
Q 2525 4250 2034 4250 
z
M 2034 4750 
Q 2819 4750 3233 4129 
Q 3647 3509 3647 2328 
Q 3647 1150 3233 529 
Q 2819 -91 2034 -91 
Q 1250 -91 836 529 
Q 422 1150 422 2328 
Q 422 3509 836 4129 
Q 1250 4750 2034 4750 
z
" transform="scale(0.015625)"/>
       </defs>
       <use xlink:href="#DejaVuSans-30"/>
      </g>
     </g>
    </g>
    <g id="xtick_2">
     <g id="line2d_2">
      <g>
       <use xlink:href="#mc9a6df0335" x="111.490909" y="252" style="stroke: #000000; stroke-width: 0.8"/>
      </g>
     </g>
     <g id="text_2">
      <!-- 2000 -->
      <g transform="translate(98.765909 266.598437) scale(0.1 -0.1)">
       <defs>
        <path id="DejaVuSans-32" d="M 1228 531 
L 3431 531 
L 3431 0 
L 469 0 
L 469 531 
Q 828 903 1448 1529 
Q 2069 2156 2228 2338 
Q 2531 2678 2651 2914 
Q 2772 3150 2772 3378 
Q 2772 3750 2511 3984 
Q 2250 4219 1831 4219 
Q 1534 4219 1204 4116 
Q 875 4013 500 3803 
L 500 4441 
Q 881 4594 1212 4672 
Q 1544 4750 1819 4750 
Q 2544 4750 2975 4387 
Q 3406 4025 3406 3419 
Q 3406 3131 3298 2873 
Q 3191 2616 2906 2266 
Q 2828 2175 2409 1742 
Q 1991 1309 1228 531 
z
" transform="scale(0.015625)"/>
       </defs>
       <use xlink:href="#DejaVuSans-32"/>
       <use xlink:href="#DejaVuSans-30" x="63.623047"/>
       <use xlink:href="#DejaVuSans-30" x="127.246094"/>
       <use xlink:href="#DejaVuSans-30" x="190.869141"/>
      </g>
     </g>
    </g>
    <g id="xtick_3">
     <g id="line2d_3">
      <g>
       <use xlink:href="#mc9a6df0335" x="153.763636" y="252" style="stroke: #000000; stroke-width: 0.8"/>
      </g>
     </g>
     <g id="text_3">
      <!-- 4000 -->
      <g transform="translate(141.038636 266.598437) scale(0.1 -0.1)">
       <defs>
        <path id="DejaVuSans-34" d="M 2419 4116 
L 825 1625 
L 2419 1625 
L 2419 4116 
z
M 2253 4666 
L 3047 4666 
L 3047 1625 
L 3713 1625 
L 3713 1100 
L 3047 1100 
L 3047 0 
L 2419 0 
L 2419 1100 
L 313 1100 
L 313 1709 
L 2253 4666 
z
" transform="scale(0.015625)"/>
       </defs>
       <use xlink:href="#DejaVuSans-34"/>
       <use xlink:href="#DejaVuSans-30" x="63.623047"/>
       <use xlink:href="#DejaVuSans-30" x="127.246094"/>
       <use xlink:href="#DejaVuSans-30" x="190.869141"/>
      </g>
     </g>
    </g>
    <g id="xtick_4">
     <g id="line2d_4">
      <g>
       <use xlink:href="#mc9a6df0335" x="196.036364" y="252" style="stroke: #000000; stroke-width: 0.8"/>
      </g>
     </g>
     <g id="text_4">
      <!-- 6000 -->
      <g transform="translate(183.311364 266.598437) scale(0.1 -0.1)">
       <defs>
        <path id="DejaVuSans-36" d="M 2113 2584 
Q 1688 2584 1439 2293 
Q 1191 2003 1191 1497 
Q 1191 994 1439 701 
Q 1688 409 2113 409 
Q 2538 409 2786 701 
Q 3034 994 3034 1497 
Q 3034 2003 2786 2293 
Q 2538 2584 2113 2584 
z
M 3366 4563 
L 3366 3988 
Q 3128 4100 2886 4159 
Q 2644 4219 2406 4219 
Q 1781 4219 1451 3797 
Q 1122 3375 1075 2522 
Q 1259 2794 1537 2939 
Q 1816 3084 2150 3084 
Q 2853 3084 3261 2657 
Q 3669 2231 3669 1497 
Q 3669 778 3244 343 
Q 2819 -91 2113 -91 
Q 1303 -91 875 529 
Q 447 1150 447 2328 
Q 447 3434 972 4092 
Q 1497 4750 2381 4750 
Q 2619 4750 2861 4703 
Q 3103 4656 3366 4563 
z
" transform="scale(0.015625)"/>
       </defs>
       <use xlink:href="#DejaVuSans-36"/>
       <use xlink:href="#DejaVuSans-30" x="63.623047"/>
       <use xlink:href="#DejaVuSans-30" x="127.246094"/>
       <use xlink:href="#DejaVuSans-30" x="190.869141"/>
      </g>
     </g>
    </g>
    <g id="xtick_5">
     <g id="line2d_5">
      <g>
       <use xlink:href="#mc9a6df0335" x="238.309091" y="252" style="stroke: #000000; stroke-width: 0.8"/>
      </g>
     </g>
     <g id="text_5">
      <!-- 8000 -->
      <g transform="translate(225.584091 266.598437) scale(0.1 -0.1)">
       <defs>
        <path id="DejaVuSans-38" d="M 2034 2216 
Q 1584 2216 1326 1975 
Q 1069 1734 1069 1313 
Q 1069 891 1326 650 
Q 1584 409 2034 409 
Q 2484 409 2743 651 
Q 3003 894 3003 1313 
Q 3003 1734 2745 1975 
Q 2488 2216 2034 2216 
z
M 1403 2484 
Q 997 2584 770 2862 
Q 544 3141 544 3541 
Q 544 4100 942 4425 
Q 1341 4750 2034 4750 
Q 2731 4750 3128 4425 
Q 3525 4100 3525 3541 
Q 3525 3141 3298 2862 
Q 3072 2584 2669 2484 
Q 3125 2378 3379 2068 
Q 3634 1759 3634 1313 
Q 3634 634 3220 271 
Q 2806 -91 2034 -91 
Q 1263 -91 848 271 
Q 434 634 434 1313 
Q 434 1759 690 2068 
Q 947 2378 1403 2484 
z
M 1172 3481 
Q 1172 3119 1398 2916 
Q 1625 2713 2034 2713 
Q 2441 2713 2670 2916 
Q 2900 3119 2900 3481 
Q 2900 3844 2670 4047 
Q 2441 4250 2034 4250 
Q 1625 4250 1398 4047 
Q 1172 3844 1172 3481 
z
" transform="scale(0.015625)"/>
       </defs>
       <use xlink:href="#DejaVuSans-38"/>
       <use xlink:href="#DejaVuSans-30" x="63.623047"/>
       <use xlink:href="#DejaVuSans-30" x="127.246094"/>
       <use xlink:href="#DejaVuSans-30" x="190.869141"/>
      </g>
     </g>
    </g>
    <g id="xtick_6">
     <g id="line2d_6">
      <g>
       <use xlink:href="#mc9a6df0335" x="280.581818" y="252" style="stroke: #000000; stroke-width: 0.8"/>
      </g>
     </g>
     <g id="text_6">
      <!-- 10000 -->
      <g transform="translate(264.675568 266.598437) scale(0.1 -0.1)">
       <defs>
        <path id="DejaVuSans-31" d="M 794 531 
L 1825 531 
L 1825 4091 
L 703 3866 
L 703 4441 
L 1819 4666 
L 2450 4666 
L 2450 531 
L 3481 531 
L 3481 0 
L 794 0 
L 794 531 
z
" transform="scale(0.015625)"/>
       </defs>
       <use xlink:href="#DejaVuSans-31"/>
       <use xlink:href="#DejaVuSans-30" x="63.623047"/>
       <use xlink:href="#DejaVuSans-30" x="127.246094"/>
       <use xlink:href="#DejaVuSans-30" x="190.869141"/>
       <use xlink:href="#DejaVuSans-30" x="254.492188"/>
      </g>
     </g>
    </g>
    <g id="xtick_7">
     <g id="line2d_7">
      <g>
       <use xlink:href="#mc9a6df0335" x="322.854545" y="252" style="stroke: #000000; stroke-width: 0.8"/>
      </g>
     </g>
     <g id="text_7">
      <!-- 12000 -->
      <g transform="translate(306.948295 266.598437) scale(0.1 -0.1)">
       <use xlink:href="#DejaVuSans-31"/>
       <use xlink:href="#DejaVuSans-32" x="63.623047"/>
       <use xlink:href="#DejaVuSans-30" x="127.246094"/>
       <use xlink:href="#DejaVuSans-30" x="190.869141"/>
       <use xlink:href="#DejaVuSans-30" x="254.492188"/>
      </g>
     </g>
    </g>
    <g id="xtick_8">
     <g id="line2d_8">
      <g>
       <use xlink:href="#mc9a6df0335" x="365.127273" y="252" style="stroke: #000000; stroke-width: 0.8"/>
      </g>
     </g>
     <g id="text_8">
      <!-- 14000 -->
      <g transform="translate(349.221023 266.598437) scale(0.1 -0.1)">
       <use xlink:href="#DejaVuSans-31"/>
       <use xlink:href="#DejaVuSans-34" x="63.623047"/>
       <use xlink:href="#DejaVuSans-30" x="127.246094"/>
       <use xlink:href="#DejaVuSans-30" x="190.869141"/>
       <use xlink:href="#DejaVuSans-30" x="254.492188"/>
      </g>
     </g>
    </g>
    <g id="text_9">
     <!-- Time / s -->
     <g transform="translate(201.699219 280.276563) scale(0.1 -0.1)">
      <defs>
       <path id="DejaVuSans-54" d="M -19 4666 
L 3928 4666 
L 3928 4134 
L 2272 4134 
L 2272 0 
L 1638 0 
L 1638 4134 
L -19 4134 
L -19 4666 
z
" transform="scale(0.015625)"/>
       <path id="DejaVuSans-69" d="M 603 3500 
L 1178 3500 
L 1178 0 
L 603 0 
L 603 3500 
z
M 603 4863 
L 1178 4863 
L 1178 4134 
L 603 4134 
L 603 4863 
z
" transform="scale(0.015625)"/>
       <path id="DejaVuSans-6d" d="M 3328 2828 
Q 3544 3216 3844 3400 
Q 4144 3584 4550 3584 
Q 5097 3584 5394 3201 
Q 5691 2819 5691 2113 
L 5691 0 
L 5113 0 
L 5113 2094 
Q 5113 2597 4934 2840 
Q 4756 3084 4391 3084 
Q 3944 3084 3684 2787 
Q 3425 2491 3425 1978 
L 3425 0 
L 2847 0 
L 2847 2094 
Q 2847 2600 2669 2842 
Q 2491 3084 2119 3084 
Q 1678 3084 1418 2786 
Q 1159 2488 1159 1978 
L 1159 0 
L 581 0 
L 581 3500 
L 1159 3500 
L 1159 2956 
Q 1356 3278 1631 3431 
Q 1906 3584 2284 3584 
Q 2666 3584 2933 3390 
Q 3200 3197 3328 2828 
z
" transform="scale(0.015625)"/>
       <path id="DejaVuSans-65" d="M 3597 1894 
L 3597 1613 
L 953 1613 
Q 991 1019 1311 708 
Q 1631 397 2203 397 
Q 2534 397 2845 478 
Q 3156 559 3463 722 
L 3463 178 
Q 3153 47 2828 -22 
Q 2503 -91 2169 -91 
Q 1331 -91 842 396 
Q 353 884 353 1716 
Q 353 2575 817 3079 
Q 1281 3584 2069 3584 
Q 2775 3584 3186 3129 
Q 3597 2675 3597 1894 
z
M 3022 2063 
Q 3016 2534 2758 2815 
Q 2500 3097 2075 3097 
Q 1594 3097 1305 2825 
Q 1016 2553 972 2059 
L 3022 2063 
z
" transform="scale(0.015625)"/>
       <path id="DejaVuSans-20" transform="scale(0.015625)"/>
       <path id="DejaVuSans-2f" d="M 1625 4666 
L 2156 4666 
L 531 -594 
L 0 -594 
L 1625 4666 
z
" transform="scale(0.015625)"/>
       <path id="DejaVuSans-73" d="M 2834 3397 
L 2834 2853 
Q 2591 2978 2328 3040 
Q 2066 3103 1784 3103 
Q 1356 3103 1142 2972 
Q 928 2841 928 2578 
Q 928 2378 1081 2264 
Q 1234 2150 1697 2047 
L 1894 2003 
Q 2506 1872 2764 1633 
Q 3022 1394 3022 966 
Q 3022 478 2636 193 
Q 2250 -91 1575 -91 
Q 1294 -91 989 -36 
Q 684 19 347 128 
L 347 722 
Q 666 556 975 473 
Q 1284 391 1588 391 
Q 1994 391 2212 530 
Q 2431 669 2431 922 
Q 2431 1156 2273 1281 
Q 2116 1406 1581 1522 
L 1381 1569 
Q 847 1681 609 1914 
Q 372 2147 372 2553 
Q 372 3047 722 3315 
Q 1072 3584 1716 3584 
Q 2034 3584 2315 3537 
Q 2597 3491 2834 3397 
z
" transform="scale(0.015625)"/>
      </defs>
      <use xlink:href="#DejaVuSans-54"/>
      <use xlink:href="#DejaVuSans-69" x="57.958984"/>
      <use xlink:href="#DejaVuSans-6d" x="85.742188"/>
      <use xlink:href="#DejaVuSans-65" x="183.154297"/>
      <use xlink:href="#DejaVuSans-20" x="244.677734"/>
      <use xlink:href="#DejaVuSans-2f" x="276.464844"/>
      <use xlink:href="#DejaVuSans-20" x="310.15625"/>
      <use xlink:href="#DejaVuSans-73" x="341.943359"/>
     </g>
    </g>
   </g>
   <g id="matplotlib.axis_2">
    <g id="ytick_1">
     <g id="line2d_9">
      <defs>
       <path id="m5d7ebedcf9" d="M 0 0 
L -3.5 0 
" style="stroke: #000000; stroke-width: 0.8"/>
      </defs>
      <g>
       <use xlink:href="#m5d7ebedcf9" x="54" y="242.116364" style="stroke: #000000; stroke-width: 0.8"/>
      </g>
     </g>
     <g id="text_10">
      <!-- 0.0 -->
      <g transform="translate(31.096875 245.915582) scale(0.1 -0.1)">
       <defs>
        <path id="DejaVuSans-2e" d="M 684 794 
L 1344 794 
L 1344 0 
L 684 0 
L 684 794 
z
" transform="scale(0.015625)"/>
       </defs>
       <use xlink:href="#DejaVuSans-30"/>
       <use xlink:href="#DejaVuSans-2e" x="63.623047"/>
       <use xlink:href="#DejaVuSans-30" x="95.410156"/>
      </g>
     </g>
    </g>
    <g id="ytick_2">
     <g id="line2d_10">
      <g>
       <use xlink:href="#m5d7ebedcf9" x="54" y="215.706372" style="stroke: #000000; stroke-width: 0.8"/>
      </g>
     </g>
     <g id="text_11">
      <!-- 0.1 -->
      <g transform="translate(31.096875 219.505591) scale(0.1 -0.1)">
       <use xlink:href="#DejaVuSans-30"/>
       <use xlink:href="#DejaVuSans-2e" x="63.623047"/>
       <use xlink:href="#DejaVuSans-31" x="95.410156"/>
      </g>
     </g>
    </g>
    <g id="ytick_3">
     <g id="line2d_11">
      <g>
       <use xlink:href="#m5d7ebedcf9" x="54" y="189.296381" style="stroke: #000000; stroke-width: 0.8"/>
      </g>
     </g>
     <g id="text_12">
      <!-- 0.2 -->
      <g transform="translate(31.096875 193.0956) scale(0.1 -0.1)">
       <use xlink:href="#DejaVuSans-30"/>
       <use xlink:href="#DejaVuSans-2e" x="63.623047"/>
       <use xlink:href="#DejaVuSans-32" x="95.410156"/>
      </g>
     </g>
    </g>
    <g id="ytick_4">
     <g id="line2d_12">
      <g>
       <use xlink:href="#m5d7ebedcf9" x="54" y="162.886389" style="stroke: #000000; stroke-width: 0.8"/>
      </g>
     </g>
     <g id="text_13">
      <!-- 0.3 -->
      <g transform="translate(31.096875 166.685608) scale(0.1 -0.1)">
       <defs>
        <path id="DejaVuSans-33" d="M 2597 2516 
Q 3050 2419 3304 2112 
Q 3559 1806 3559 1356 
Q 3559 666 3084 287 
Q 2609 -91 1734 -91 
Q 1441 -91 1130 -33 
Q 819 25 488 141 
L 488 750 
Q 750 597 1062 519 
Q 1375 441 1716 441 
Q 2309 441 2620 675 
Q 2931 909 2931 1356 
Q 2931 1769 2642 2001 
Q 2353 2234 1838 2234 
L 1294 2234 
L 1294 2753 
L 1863 2753 
Q 2328 2753 2575 2939 
Q 2822 3125 2822 3475 
Q 2822 3834 2567 4026 
Q 2313 4219 1838 4219 
Q 1578 4219 1281 4162 
Q 984 4106 628 3988 
L 628 4550 
Q 988 4650 1302 4700 
Q 1616 4750 1894 4750 
Q 2613 4750 3031 4423 
Q 3450 4097 3450 3541 
Q 3450 3153 3228 2886 
Q 3006 2619 2597 2516 
z
" transform="scale(0.015625)"/>
       </defs>
       <use xlink:href="#DejaVuSans-30"/>
       <use xlink:href="#DejaVuSans-2e" x="63.623047"/>
       <use xlink:href="#DejaVuSans-33" x="95.410156"/>
      </g>
     </g>
    </g>
    <g id="ytick_5">
     <g id="line2d_13">
      <g>
       <use xlink:href="#m5d7ebedcf9" x="54" y="136.476398" style="stroke: #000000; stroke-width: 0.8"/>
      </g>
     </g>
     <g id="text_14">
      <!-- 0.4 -->
      <g transform="translate(31.096875 140.275617) scale(0.1 -0.1)">
       <use xlink:href="#DejaVuSans-30"/>
       <use xlink:href="#DejaVuSans-2e" x="63.623047"/>
       <use xlink:href="#DejaVuSans-34" x="95.410156"/>
      </g>
     </g>
    </g>
    <g id="ytick_6">
     <g id="line2d_14">
      <g>
       <use xlink:href="#m5d7ebedcf9" x="54" y="110.066406" style="stroke: #000000; stroke-width: 0.8"/>
      </g>
     </g>
     <g id="text_15">
      <!-- 0.5 -->
      <g transform="translate(31.096875 113.865625) scale(0.1 -0.1)">
       <defs>
        <path id="DejaVuSans-35" d="M 691 4666 
L 3169 4666 
L 3169 4134 
L 1269 4134 
L 1269 2991 
Q 1406 3038 1543 3061 
Q 1681 3084 1819 3084 
Q 2600 3084 3056 2656 
Q 3513 2228 3513 1497 
Q 3513 744 3044 326 
Q 2575 -91 1722 -91 
Q 1428 -91 1123 -41 
Q 819 9 494 109 
L 494 744 
Q 775 591 1075 516 
Q 1375 441 1709 441 
Q 2250 441 2565 725 
Q 2881 1009 2881 1497 
Q 2881 1984 2565 2268 
Q 2250 2553 1709 2553 
Q 1456 2553 1204 2497 
Q 953 2441 691 2322 
L 691 4666 
z
" transform="scale(0.015625)"/>
       </defs>
       <use xlink:href="#DejaVuSans-30"/>
       <use xlink:href="#DejaVuSans-2e" x="63.623047"/>
       <use xlink:href="#DejaVuSans-35" x="95.410156"/>
      </g>
     </g>
    </g>
    <g id="ytick_7">
     <g id="line2d_15">
      <g>
       <use xlink:href="#m5d7ebedcf9" x="54" y="83.656415" style="stroke: #000000; stroke-width: 0.8"/>
      </g>
     </g>
     <g id="text_16">
      <!-- 0.6 -->
      <g transform="translate(31.096875 87.455634) scale(0.1 -0.1)">
       <use xlink:href="#DejaVuSans-30"/>
       <use xlink:href="#DejaVuSans-2e" x="63.623047"/>
       <use xlink:href="#DejaVuSans-36" x="95.410156"/>
      </g>
     </g>
    </g>
    <g id="ytick_8">
     <g id="line2d_16">
      <g>
       <use xlink:href="#m5d7ebedcf9" x="54" y="57.246424" style="stroke: #000000; stroke-width: 0.8"/>
      </g>
     </g>
     <g id="text_17">
      <!-- 0.7 -->
      <g transform="translate(31.096875 61.045642) scale(0.1 -0.1)">
       <defs>
        <path id="DejaVuSans-37" d="M 525 4666 
L 3525 4666 
L 3525 4397 
L 1831 0 
L 1172 0 
L 2766 4134 
L 525 4134 
L 525 4666 
z
" transform="scale(0.015625)"/>
       </defs>
       <use xlink:href="#DejaVuSans-30"/>
       <use xlink:href="#DejaVuSans-2e" x="63.623047"/>
       <use xlink:href="#DejaVuSans-37" x="95.410156"/>
      </g>
     </g>
    </g>
    <g id="text_18">
     <!-- Concentration / mM -->
     <g transform="translate(25.017187 192.697969) rotate(-90) scale(0.1 -0.1)">
      <defs>
       <path id="DejaVuSans-43" d="M 4122 4306 
L 4122 3641 
Q 3803 3938 3442 4084 
Q 3081 4231 2675 4231 
Q 1875 4231 1450 3742 
Q 1025 3253 1025 2328 
Q 1025 1406 1450 917 
Q 1875 428 2675 428 
Q 3081 428 3442 575 
Q 3803 722 4122 1019 
L 4122 359 
Q 3791 134 3420 21 
Q 3050 -91 2638 -91 
Q 1578 -91 968 557 
Q 359 1206 359 2328 
Q 359 3453 968 4101 
Q 1578 4750 2638 4750 
Q 3056 4750 3426 4639 
Q 3797 4528 4122 4306 
z
" transform="scale(0.015625)"/>
       <path id="DejaVuSans-6f" d="M 1959 3097 
Q 1497 3097 1228 2736 
Q 959 2375 959 1747 
Q 959 1119 1226 758 
Q 1494 397 1959 397 
Q 2419 397 2687 759 
Q 2956 1122 2956 1747 
Q 2956 2369 2687 2733 
Q 2419 3097 1959 3097 
z
M 1959 3584 
Q 2709 3584 3137 3096 
Q 3566 2609 3566 1747 
Q 3566 888 3137 398 
Q 2709 -91 1959 -91 
Q 1206 -91 779 398 
Q 353 888 353 1747 
Q 353 2609 779 3096 
Q 1206 3584 1959 3584 
z
" transform="scale(0.015625)"/>
       <path id="DejaVuSans-6e" d="M 3513 2113 
L 3513 0 
L 2938 0 
L 2938 2094 
Q 2938 2591 2744 2837 
Q 2550 3084 2163 3084 
Q 1697 3084 1428 2787 
Q 1159 2491 1159 1978 
L 1159 0 
L 581 0 
L 581 3500 
L 1159 3500 
L 1159 2956 
Q 1366 3272 1645 3428 
Q 1925 3584 2291 3584 
Q 2894 3584 3203 3211 
Q 3513 2838 3513 2113 
z
" transform="scale(0.015625)"/>
       <path id="DejaVuSans-63" d="M 3122 3366 
L 3122 2828 
Q 2878 2963 2633 3030 
Q 2388 3097 2138 3097 
Q 1578 3097 1268 2742 
Q 959 2388 959 1747 
Q 959 1106 1268 751 
Q 1578 397 2138 397 
Q 2388 397 2633 464 
Q 2878 531 3122 666 
L 3122 134 
Q 2881 22 2623 -34 
Q 2366 -91 2075 -91 
Q 1284 -91 818 406 
Q 353 903 353 1747 
Q 353 2603 823 3093 
Q 1294 3584 2113 3584 
Q 2378 3584 2631 3529 
Q 2884 3475 3122 3366 
z
" transform="scale(0.015625)"/>
       <path id="DejaVuSans-74" d="M 1172 4494 
L 1172 3500 
L 2356 3500 
L 2356 3053 
L 1172 3053 
L 1172 1153 
Q 1172 725 1289 603 
Q 1406 481 1766 481 
L 2356 481 
L 2356 0 
L 1766 0 
Q 1100 0 847 248 
Q 594 497 594 1153 
L 594 3053 
L 172 3053 
L 172 3500 
L 594 3500 
L 594 4494 
L 1172 4494 
z
" transform="scale(0.015625)"/>
       <path id="DejaVuSans-72" d="M 2631 2963 
Q 2534 3019 2420 3045 
Q 2306 3072 2169 3072 
Q 1681 3072 1420 2755 
Q 1159 2438 1159 1844 
L 1159 0 
L 581 0 
L 581 3500 
L 1159 3500 
L 1159 2956 
Q 1341 3275 1631 3429 
Q 1922 3584 2338 3584 
Q 2397 3584 2469 3576 
Q 2541 3569 2628 3553 
L 2631 2963 
z
" transform="scale(0.015625)"/>
       <path id="DejaVuSans-61" d="M 2194 1759 
Q 1497 1759 1228 1600 
Q 959 1441 959 1056 
Q 959 750 1161 570 
Q 1363 391 1709 391 
Q 2188 391 2477 730 
Q 2766 1069 2766 1631 
L 2766 1759 
L 2194 1759 
z
M 3341 1997 
L 3341 0 
L 2766 0 
L 2766 531 
Q 2569 213 2275 61 
Q 1981 -91 1556 -91 
Q 1019 -91 701 211 
Q 384 513 384 1019 
Q 384 1609 779 1909 
Q 1175 2209 1959 2209 
L 2766 2209 
L 2766 2266 
Q 2766 2663 2505 2880 
Q 2244 3097 1772 3097 
Q 1472 3097 1187 3025 
Q 903 2953 641 2809 
L 641 3341 
Q 956 3463 1253 3523 
Q 1550 3584 1831 3584 
Q 2591 3584 2966 3190 
Q 3341 2797 3341 1997 
z
" transform="scale(0.015625)"/>
       <path id="DejaVuSans-4d" d="M 628 4666 
L 1569 4666 
L 2759 1491 
L 3956 4666 
L 4897 4666 
L 4897 0 
L 4281 0 
L 4281 4097 
L 3078 897 
L 2444 897 
L 1241 4097 
L 1241 0 
L 628 0 
L 628 4666 
z
" transform="scale(0.015625)"/>
      </defs>
      <use xlink:href="#DejaVuSans-43"/>
      <use xlink:href="#DejaVuSans-6f" x="69.824219"/>
      <use xlink:href="#DejaVuSans-6e" x="131.005859"/>
      <use xlink:href="#DejaVuSans-63" x="194.384766"/>
      <use xlink:href="#DejaVuSans-65" x="249.365234"/>
      <use xlink:href="#DejaVuSans-6e" x="310.888672"/>
      <use xlink:href="#DejaVuSans-74" x="374.267578"/>
      <use xlink:href="#DejaVuSans-72" x="413.476562"/>
      <use xlink:href="#DejaVuSans-61" x="454.589844"/>
      <use xlink:href="#DejaVuSans-74" x="515.869141"/>
      <use xlink:href="#DejaVuSans-69" x="555.078125"/>
      <use xlink:href="#DejaVuSans-6f" x="582.861328"/>
      <use xlink:href="#DejaVuSans-6e" x="644.042969"/>
      <use xlink:href="#DejaVuSans-20" x="707.421875"/>
      <use xlink:href="#DejaVuSans-2f" x="739.208984"/>
      <use xlink:href="#DejaVuSans-20" x="772.900391"/>
      <use xlink:href="#DejaVuSans-6d" x="804.6875"/>
      <use xlink:href="#DejaVuSans-4d" x="902.099609"/>
     </g>
    </g>
   </g>
   <g id="line2d_17">
    <path d="M 69.218182 242.116364 
L 76.827273 242.116364 
L 76.939295 203.417881 
L 77.638909 199.526849 
L 78.163091 197.694496 
L 78.5055 197.16228 
L 78.76125 197.11307 
L 79.033909 197.310936 
L 79.401682 197.888383 
L 79.892045 199.117103 
L 80.585318 201.525152 
L 80.631818 201.707292 
L 80.743841 176.437239 
L 81.390614 170.504807 
L 81.87675 167.807193 
L 82.189568 167.071974 
L 82.390364 167.028524 
L 82.599614 167.257839 
L 82.937795 168.02032 
L 83.4345 169.743484 
L 84.125659 173.04111 
L 84.436364 174.753854 
L 84.548386 156.877022 
L 85.169795 150.060512 
L 85.645364 146.950913 
L 85.943386 146.152813 
L 86.120932 146.130276 
L 86.309045 146.401849 
L 86.636659 147.346391 
L 87.165068 149.619608 
L 87.894273 153.850202 
L 88.240909 156.164164 
L 88.352932 141.928199 
L 88.951091 134.749412 
L 89.416091 131.473424 
L 89.703545 130.673346 
L 89.862068 130.676215 
L 90.039614 130.992428 
L 90.360886 132.116793 
L 90.925227 134.995074 
L 91.692477 140.175141 
L 92.045455 142.90103 
L 92.157477 127.776408 
L 92.726045 121.567995 
L 93.172023 118.787144 
L 93.440455 118.181767 
L 93.577841 118.237969 
L 93.7575 118.648719 
L 94.085114 120.070557 
L 94.725545 123.988352 
L 95.581568 130.707649 
L 95.85 133.068413 
L 95.962023 111.216843 
L 96.462955 107.588665 
L 96.853977 106.127313 
L 97.080136 105.903685 
L 97.217523 106.056366 
L 97.418318 106.700576 
L 97.760727 108.700931 
L 98.576591 115.125081 
L 99.654545 125.332264 
L 99.766568 95.518027 
L 100.157591 94.2121 
L 100.442932 93.882225 
L 100.631045 93.944371 
L 100.823386 94.28946 
L 101.064341 95.26102 
L 101.410977 97.761297 
L 102.326182 106.647292 
L 103.459091 118.958444 
L 103.571114 82.72279 
L 103.807841 82.629265 
L 104.017091 82.80036 
L 104.293977 83.363911 
L 104.61525 84.563628 
L 104.942864 86.75922 
L 105.45225 92.04294 
L 107.263636 113.627623 
L 107.26575 72.848659 
L 107.375659 72.970629 
L 107.661 73.564025 
L 108.05625 74.966117 
L 108.476864 77.294579 
L 108.865773 80.870005 
L 109.770409 92.190925 
L 111.068182 109.22025 
L 111.070295 65.440129 
L 111.180205 65.744333 
L 111.605045 67.375995 
L 112.133455 70.34336 
L 112.541386 73.933584 
L 113.158568 81.904538 
L 114.872727 105.647549 
L 114.874841 60.021619 
L 114.98475 60.44042 
L 115.508932 63.007945 
L 116.071159 66.874081 
L 116.502341 71.580465 
L 117.764182 89.455909 
L 118.677273 102.805663 
L 118.679386 56.057197 
L 118.789295 56.547494 
L 119.381114 59.821626 
L 119.941227 64.111827 
L 120.399886 69.662986 
L 122.409955 99.483204 
L 122.481818 100.578907 
L 122.483932 53.142201 
L 122.593841 53.677561 
L 123.236386 57.485372 
L 123.783818 61.963453 
L 124.263614 68.113258 
L 126.286364 98.853356 
L 126.288477 50.984115 
L 126.398386 51.548586 
L 127.07475 55.723571 
L 127.611614 60.300418 
L 128.106205 66.861711 
L 130.090909 97.526674 
L 130.093023 49.375587 
L 130.202932 49.959498 
L 130.904659 54.405664 
L 131.433068 59.042744 
L 131.940341 65.934455 
L 133.895455 96.512135 
L 133.897568 48.169947 
L 134.007477 48.767279 
L 134.726114 53.399165 
L 135.248182 58.069323 
L 135.763909 65.184666 
L 137.7 95.739055 
L 137.702114 47.262528 
L 137.812023 47.869391 
L 138.543341 52.639444 
L 139.059068 57.314417 
L 139.579023 64.558875 
L 141.504545 95.151305 
L 141.506659 46.57764 
L 141.616568 47.191416 
L 142.358455 52.072701 
L 142.869955 56.760658 
L 143.39625 64.157963 
L 145.309091 94.705079 
L 145.311205 46.059795 
L 145.421114 46.678655 
L 146.171455 51.64744 
L 146.680841 56.359347 
L 147.211364 63.869886 
L 149.113636 94.366578 
L 149.11575 45.667848 
L 149.225659 46.290481 
L 149.980227 51.308954 
L 150.4875 56.023907 
L 151.020136 63.592662 
L 152.918182 94.109914 
L 152.920295 45.371028 
L 153.030205 45.996476 
L 153.789 51.060323 
L 154.294159 55.775664 
L 154.828909 63.398693 
L 156.722727 93.91535 
L 156.724841 45.146189 
L 156.83475 45.773744 
L 157.597773 50.879802 
L 158.100818 55.593562 
L 158.637682 63.267877 
L 160.527273 93.76788 
L 160.529386 44.97586 
L 160.639295 45.604995 
L 161.404432 50.73468 
L 161.907477 55.461636 
L 162.446455 63.18496 
L 164.331818 93.656112 
L 164.333932 44.846823 
L 164.443841 45.477145 
L 165.211091 50.628651 
L 165.712023 55.342648 
L 166.251 63.071568 
L 168.136364 93.571406 
L 168.138477 44.74907 
L 168.248386 45.380284 
L 169.015636 50.535976 
L 169.516568 55.252455 
L 170.055545 62.985611 
L 171.940909 93.50721 
L 171.943023 44.675018 
L 172.052932 45.306903 
L 172.822295 50.482037 
L 173.323227 55.209243 
L 173.864318 62.987325 
L 175.745455 93.458561 
L 175.747568 44.618922 
L 175.857477 45.251312 
L 176.626841 50.428821 
L 177.127773 55.157443 
L 177.668864 62.937967 
L 179.55 93.421693 
L 179.552114 44.576427 
L 179.662023 45.209199 
L 180.4335 50.404817 
L 180.932318 55.118188 
L 181.473409 62.900562 
L 183.354545 93.393755 
L 183.356659 44.544236 
L 183.466568 45.177295 
L 184.238045 50.374266 
L 184.736864 55.088442 
L 185.277955 62.872216 
L 187.159091 93.372584 
L 187.161205 44.51985 
L 187.271114 45.153127 
L 188.042591 50.351118 
L 188.541409 55.065903 
L 189.0825 62.850736 
L 190.963636 93.356542 
L 190.96575 44.501376 
L 191.075659 45.134817 
L 191.847136 50.333579 
L 192.345955 55.048824 
L 192.887045 62.83446 
L 194.768182 93.344386 
L 194.770295 44.487381 
L 194.880205 45.120946 
L 195.651682 50.320291 
L 196.1505 55.035883 
L 196.691591 62.822128 
L 198.572727 93.335175 
L 198.574841 44.476778 
L 198.68475 45.110437 
L 199.456227 50.310223 
L 199.955045 55.026078 
L 200.496136 62.812783 
L 202.377273 93.328195 
L 202.379386 44.468746 
L 202.489295 45.102476 
L 203.260773 50.302595 
L 203.759591 55.01865 
L 204.300682 62.805703 
L 206.181818 93.322907 
L 206.183932 44.46266 
L 206.293841 45.096444 
L 207.065318 50.296815 
L 207.564136 55.013021 
L 208.105227 62.800338 
L 209.986364 93.3189 
L 209.988477 44.45805 
L 210.098386 45.091874 
L 210.869864 50.292436 
L 211.368682 55.008756 
L 211.909773 62.796273 
L 213.790909 93.315865 
L 213.793023 44.454557 
L 213.902932 45.088412 
L 214.674409 50.289118 
L 215.173227 55.005525 
L 215.714318 62.793194 
L 217.595455 93.313564 
L 217.597568 44.45191 
L 217.707477 45.085789 
L 218.478955 50.286605 
L 218.977773 55.003077 
L 219.518864 62.79086 
L 221.4 93.311822 
L 221.402114 44.449905 
L 221.512023 45.083801 
L 222.2835 50.2847 
L 222.782318 55.001222 
L 223.323409 62.789092 
L 225.204545 93.310501 
L 225.206659 44.448386 
L 225.316568 45.082295 
L 226.088045 50.283257 
L 226.586864 54.999816 
L 227.127955 62.787753 
L 229.009091 93.309501 
L 229.011205 44.447235 
L 229.121114 45.081154 
L 229.892591 50.282164 
L 230.391409 54.998752 
L 230.9325 62.786738 
L 232.813636 93.308742 
L 232.81575 44.446363 
L 232.925659 45.08029 
L 233.697136 50.281335 
L 234.195955 54.997945 
L 234.737045 62.785969 
L 236.618182 93.308168 
L 236.620295 44.445702 
L 236.730205 45.079635 
L 237.501682 50.280708 
L 238.0005 54.997334 
L 238.541591 62.785386 
L 240.422727 93.307733 
L 240.424841 44.445201 
L 240.53475 45.079139 
L 241.306227 50.280232 
L 241.805045 54.99687 
L 242.346136 62.784945 
L 244.227273 93.307403 
L 244.229386 44.444822 
L 244.339295 45.078763 
L 245.110773 50.279872 
L 245.609591 54.99652 
L 246.150682 62.78461 
L 248.031818 93.307153 
L 248.033932 44.444535 
L 248.143841 45.078478 
L 248.915318 50.279599 
L 249.414136 54.996254 
L 249.955227 62.784357 
L 251.836364 93.306964 
L 251.838477 44.444317 
L 251.948386 45.078262 
L 252.719864 50.279392 
L 253.218682 54.996052 
L 253.759773 62.784165 
L 255.640909 93.306821 
L 255.643023 44.444152 
L 255.752932 45.078099 
L 256.524409 50.279236 
L 257.023227 54.9959 
L 257.564318 62.78402 
L 259.445455 93.306712 
L 259.447568 44.444027 
L 259.557477 45.077975 
L 260.328955 50.279117 
L 260.827773 54.995784 
L 261.368864 62.783909 
L 263.25 93.30663 
L 263.252114 44.443932 
L 263.362023 45.077881 
L 264.1335 50.279027 
L 264.632318 54.995696 
L 265.173409 62.783826 
L 267.054545 93.306567 
L 267.056659 44.443861 
L 267.166568 45.07781 
L 267.938045 50.278959 
L 268.436864 54.99563 
L 268.977955 62.783763 
L 270.859091 93.30652 
L 270.861205 44.443806 
L 270.971114 45.077756 
L 271.742591 50.278907 
L 272.241409 54.99558 
L 272.7825 62.783715 
L 274.663636 93.306484 
L 274.66575 44.443765 
L 274.775659 45.077715 
L 275.547136 50.278868 
L 276.045955 54.995542 
L 276.587045 62.783678 
L 278.468182 93.306457 
L 278.470295 44.443734 
L 278.580205 45.077684 
L 279.351682 50.278838 
L 279.8505 54.995513 
L 280.391591 62.783651 
L 282.272727 93.306437 
L 282.274841 44.44371 
L 282.38475 45.077661 
L 283.156227 50.278816 
L 283.655045 54.995491 
L 284.196136 62.78363 
L 286.077273 93.306421 
L 286.079386 44.443692 
L 286.189295 45.077643 
L 286.960773 50.278799 
L 287.459591 54.995474 
L 288.000682 62.783614 
L 289.881818 93.306409 
L 289.883932 44.443679 
L 289.993841 45.07763 
L 290.765318 50.278786 
L 291.264136 54.995462 
L 291.805227 62.783602 
L 293.686364 93.3064 
L 293.688477 44.443668 
L 293.798386 45.077619 
L 294.569864 50.278776 
L 295.068682 54.995452 
L 295.609773 62.783593 
L 297.490909 93.306394 
L 297.493023 44.443661 
L 297.602932 45.077612 
L 298.374409 50.278769 
L 298.873227 54.995445 
L 299.414318 62.783586 
L 301.295455 93.306389 
L 301.297568 44.443655 
L 301.407477 45.077606 
L 302.178955 50.278763 
L 302.677773 54.99544 
L 303.218864 62.783581 
L 305.1 93.306385 
L 305.102114 44.44365 
L 305.212023 45.077601 
L 305.9835 50.278759 
L 306.482318 54.995435 
L 307.023409 62.783577 
L 308.904545 93.306382 
L 308.906659 44.443647 
L 309.016568 45.077598 
L 309.788045 50.278756 
L 310.286864 54.995432 
L 310.827955 62.783574 
L 312.709091 93.306379 
L 312.711205 44.443644 
L 312.821114 45.077596 
L 313.592591 50.278753 
L 314.091409 54.99543 
L 314.6325 62.783572 
L 316.513636 93.306378 
L 316.51575 44.443642 
L 316.625659 45.077594 
L 317.397136 50.278751 
L 317.895955 54.995428 
L 318.437045 62.78357 
L 320.318182 93.306376 
L 320.320295 44.443641 
L 320.430205 45.077592 
L 321.201682 50.27875 
L 321.7005 54.995427 
L 322.241591 62.783569 
L 324.122727 93.306375 
L 324.124841 44.44364 
L 324.23475 45.077591 
L 325.006227 50.278749 
L 325.505045 54.995426 
L 326.046136 62.783568 
L 327.927273 93.306375 
L 327.929386 44.443639 
L 328.039295 45.07759 
L 328.810773 50.278748 
L 329.309591 54.995425 
L 329.850682 62.783567 
L 331.731818 93.306374 
L 331.733932 44.443638 
L 331.843841 45.07759 
L 332.615318 50.278748 
L 333.114136 54.995424 
L 333.655227 62.783567 
L 335.536364 93.306374 
L 335.538477 44.443638 
L 335.648386 45.077589 
L 336.419864 50.278747 
L 336.918682 54.995424 
L 337.459773 62.783566 
L 339.340909 93.306373 
L 339.343023 44.443637 
L 339.452932 45.077589 
L 340.224409 50.278747 
L 340.723227 54.995424 
L 341.264318 62.783566 
L 343.145455 93.306373 
L 343.147568 44.443637 
L 343.257477 45.077588 
L 344.028955 50.278746 
L 344.527773 54.995423 
L 345.068864 62.783566 
L 346.95 93.306373 
L 346.952114 44.443637 
L 347.062023 45.077588 
L 347.8335 50.278746 
L 348.332318 54.995423 
L 348.873409 62.783565 
L 350.754545 93.306373 
L 350.756659 44.443637 
L 350.866568 45.077588 
L 351.638045 50.278746 
L 352.136864 54.995423 
L 352.677955 62.783565 
L 354.559091 93.306373 
L 354.561205 44.443637 
L 354.671114 45.077588 
L 355.442591 50.278746 
L 355.941409 54.995423 
L 356.4825 62.783565 
L 358.363636 93.306373 
L 358.36575 44.443637 
L 358.475659 45.077588 
L 359.247136 50.278746 
L 359.745955 54.995423 
L 360.287045 62.783565 
L 362.168182 93.306373 
L 362.170295 44.443636 
L 362.280205 45.077588 
L 363.051682 50.278746 
L 363.5505 54.995423 
L 364.091591 62.783565 
L 365.972727 93.306373 
L 365.974841 44.443636 
L 366.08475 45.077588 
L 366.856227 50.278746 
L 367.355045 54.995423 
L 367.896136 62.783565 
L 369.777273 93.306373 
L 369.779386 44.443636 
L 369.889295 45.077588 
L 370.660773 50.278746 
L 371.159591 54.995423 
L 371.700682 62.783565 
L 373.581818 93.306373 
L 373.581818 93.306373 
" clip-path="url(#pb25f569eef)" style="fill: none; stroke: #1f77b4; stroke-width: 1.5; stroke-linecap: square"/>
   </g>
   <g id="line2d_18">
    <path d="M 69.218182 242.116364 
L 76.068477 242.005522 
L 76.696227 241.766296 
L 76.827273 241.669247 
L 76.829386 230.951475 
L 76.939295 232.690907 
L 77.381045 237.542809 
L 77.791091 239.861781 
L 78.173659 240.894432 
L 78.530864 241.290722 
L 78.883841 241.368918 
L 79.289659 241.21935 
L 79.758886 240.79779 
L 80.219659 240.074038 
L 80.631818 239.006637 
L 80.633932 232.445087 
L 80.743841 233.977401 
L 81.143318 237.645633 
L 81.496295 239.126334 
L 81.790091 239.56696 
L 82.035273 239.59001 
L 82.339636 239.362458 
L 82.836341 238.672318 
L 83.438727 237.453418 
L 83.954455 235.893633 
L 84.423682 233.717898 
L 84.436364 233.64508 
L 84.438477 231.588481 
L 84.546273 232.785701 
L 84.905591 235.253422 
L 85.197273 236.00034 
L 85.402295 236.063093 
L 85.613659 235.854111 
L 86.017364 235.061 
L 87.365864 231.782921 
L 87.843545 229.842163 
L 88.240909 227.442178 
L 88.285295 228.17581 
L 88.629818 230.382935 
L 88.902477 230.980553 
L 89.082136 230.97919 
L 89.291386 230.691002 
L 89.756386 229.54653 
L 90.405273 228.191901 
L 91.115455 226.756725 
L 91.523386 225.299902 
L 91.948227 222.880689 
L 92.045455 222.167051 
L 92.049682 222.945444 
L 92.398432 225.181156 
L 92.677432 225.80856 
L 92.861318 225.815614 
L 93.068455 225.538832 
L 94.266886 223.511107 
L 94.767818 223.008993 
L 95.091205 222.297773 
L 95.444182 220.921506 
L 95.85 218.345332 
L 95.8965 219.235822 
L 96.247364 221.207065 
L 96.522136 221.740273 
L 96.706023 221.72793 
L 96.932182 221.423517 
L 97.688864 220.273998 
L 98.022818 220.24336 
L 98.498386 220.193903 
L 98.754136 219.895253 
L 99.039477 219.16974 
L 99.379773 217.623568 
L 99.654545 215.751703 
L 99.705273 216.387336 
L 100.062477 218.360893 
L 100.345705 218.921996 
L 100.535932 218.920436 
L 100.770545 218.63065 
L 101.364477 217.866269 
L 101.624455 217.897488 
L 102.438205 218.182251 
L 102.668591 217.858029 
L 102.947591 217.024658 
L 103.294227 215.200001 
L 103.459091 213.995658 
L 103.511932 214.496068 
L 103.875477 216.482654 
L 104.162932 217.056803 
L 104.355273 217.061528 
L 104.598341 216.777805 
L 105.107727 216.202232 
L 105.344455 216.260381 
L 105.727023 216.654803 
L 106.120159 216.932792 
L 106.331523 216.832605 
L 106.559795 216.431933 
L 106.84725 215.41114 
L 107.208682 213.203111 
L 107.263636 212.771481 
L 107.316477 213.221732 
L 107.68425 215.216907 
L 107.973818 215.796486 
L 108.168273 215.802566 
L 108.417682 215.517823 
L 108.878455 215.039206 
L 109.1025 215.111497 
L 109.436455 215.515915 
L 109.920477 216.01934 
L 110.129727 215.959233 
L 110.343205 215.624984 
L 110.615864 214.724145 
L 110.9625 212.717739 
L 111.068182 211.902455 
L 111.123136 212.353743 
L 111.493023 214.340496 
L 111.782591 214.916562 
L 111.977045 214.922275 
L 112.230682 214.636006 
L 112.661864 214.212262 
L 112.879568 214.294368 
L 113.1945 214.713332 
L 113.735591 215.378207 
L 113.942727 215.330315 
L 114.151977 215.007567 
L 114.420409 214.121472 
L 114.764932 212.119427 
L 114.872727 211.282235 
L 114.927682 211.724402 
L 115.299682 213.715012 
L 115.58925 214.290783 
L 115.783705 214.296902 
L 116.039455 214.010918 
L 116.453727 213.620105 
L 116.665091 213.708258 
L 116.969455 214.137689 
L 117.548591 214.924227 
L 117.753614 214.88337 
L 117.958636 214.570024 
L 118.224955 213.691156 
L 118.567364 211.695076 
L 118.677273 210.837132 
L 118.734341 211.289163 
L 119.106341 213.269503 
L 119.395909 213.84364 
L 119.590364 213.848974 
L 119.850341 213.558551 
L 120.249818 213.194199 
L 120.459068 213.288666 
L 120.759205 213.73198 
L 121.359477 214.599597 
L 121.562386 214.563146 
L 121.765295 214.254144 
L 122.0295 213.38085 
L 122.369795 211.392141 
L 122.481818 210.514354 
L 122.538886 210.963642 
L 122.910886 212.943507 
L 123.200455 213.520157 
L 123.394909 213.526641 
L 123.654886 213.237917 
L 124.048023 212.88517 
L 124.255159 212.982856 
L 124.551068 213.432393 
L 125.16825 214.364119 
L 125.371159 214.329548 
L 125.571955 214.02282 
L 125.836159 213.14495 
L 126.176455 211.143195 
L 126.286364 210.277501 
L 126.343432 210.726664 
L 126.717545 212.713094 
L 127.007114 213.285876 
L 127.201568 213.290048 
L 127.463659 212.997651 
L 127.848341 212.658417 
L 128.053364 212.757971 
L 128.345045 213.209099 
L 128.979136 214.192732 
L 129.179932 214.156929 
L 129.380727 213.846405 
L 129.644932 212.959028 
L 129.987341 210.923425 
L 130.090909 210.102203 
L 130.147977 210.552321 
L 130.522091 212.538363 
L 130.811659 213.112112 
L 131.006114 213.116524 
L 131.268205 212.82451 
L 131.650773 212.490576 
L 131.855795 212.593997 
L 132.147477 213.054461 
L 132.783682 214.063934 
L 132.984477 214.031675 
L 133.183159 213.727629 
L 133.44525 212.853707 
L 133.785545 210.842237 
L 133.895455 209.97182 
L 133.952523 210.423104 
L 134.326636 212.408829 
L 134.616205 212.98322 
L 134.808545 212.989024 
L 135.068523 212.701641 
L 135.453205 212.365772 
L 135.656114 212.469241 
L 135.945682 212.929895 
L 136.592455 213.970088 
L 136.791136 213.936797 
L 136.989818 213.630811 
L 137.251909 212.751906 
L 137.592205 210.730791 
L 137.7 209.874549 
L 137.757068 210.326949 
L 138.131182 212.312421 
L 138.42075 212.887251 
L 138.613091 212.893094 
L 138.873068 212.605779 
L 139.255636 212.272691 
L 139.458545 212.377202 
L 139.746 212.837804 
L 140.399114 213.899674 
L 140.597795 213.865585 
L 140.796477 213.557303 
L 141.058568 212.673447 
L 141.398864 210.643421 
L 141.504545 209.801811 
L 141.561614 210.255231 
L 141.935727 212.240491 
L 142.225295 212.815619 
L 142.417636 212.821466 
L 142.677614 212.534165 
L 143.058068 212.203118 
L 143.260977 212.307807 
L 143.548432 212.770977 
L 144.203659 213.846351 
L 144.402341 213.813643 
L 144.601023 213.505954 
L 144.863114 212.621774 
L 145.203409 210.589794 
L 145.309091 209.747311 
L 145.366159 210.201638 
L 145.740273 212.186716 
L 146.029841 212.762043 
L 146.222182 212.767874 
L 146.482159 212.480558 
L 146.862614 212.150953 
L 147.063409 212.255255 
L 147.34875 212.715532 
L 148.010318 213.807366 
L 148.206886 213.77473 
L 148.405568 213.467473 
L 148.667659 212.58303 
L 149.007955 210.549559 
L 149.113636 209.706414 
L 149.170705 210.161521 
L 149.544818 212.146443 
L 149.834386 212.721902 
L 150.026727 212.727709 
L 150.286705 212.440365 
L 150.667159 212.111826 
L 150.867955 212.217489 
L 151.153295 212.680331 
L 151.814864 213.777417 
L 152.011432 213.745534 
L 152.210114 213.438593 
L 152.472205 212.553942 
L 152.8125 210.519336 
L 152.918182 209.675687 
L 152.97525 210.131449 
L 153.349364 212.116238 
L 153.638932 212.691785 
L 153.831273 212.697565 
L 154.093364 212.40733 
L 154.469591 212.082498 
L 154.670386 212.186893 
L 154.955727 212.649587 
L 155.621523 213.75587 
L 155.818091 213.721869 
L 156.016773 213.41201 
L 156.278864 212.522591 
L 156.619159 210.480722 
L 156.722727 209.65258 
L 156.779795 210.108879 
L 157.153909 212.093558 
L 157.443477 212.669164 
L 157.635818 212.674918 
L 157.897909 212.384653 
L 158.274136 212.060402 
L 158.474932 212.165561 
L 158.760273 212.629703 
L 159.426068 213.738966 
L 159.622636 213.705382 
L 159.821318 213.395692 
L 160.083409 212.506143 
L 160.423705 210.463614 
L 160.527273 209.635189 
L 160.584341 210.091922 
L 160.958455 212.076512 
L 161.248023 212.652155 
L 161.440364 212.657887 
L 161.702455 212.367594 
L 162.078682 212.043777 
L 162.279477 212.14951 
L 162.564818 212.614742 
L 163.230614 213.726246 
L 163.427182 213.692975 
L 163.625864 213.38341 
L 163.887955 212.493758 
L 164.22825 210.450728 
L 164.331818 209.622088 
L 164.388886 210.079171 
L 164.763 212.063687 
L 165.052568 212.639356 
L 165.244909 212.645068 
L 165.507 212.354752 
L 165.883227 212.031258 
L 166.084023 212.137422 
L 166.369364 212.603475 
L 167.035159 213.716667 
L 167.231727 213.68363 
L 167.430409 213.374158 
L 167.6925 212.484427 
L 168.032795 210.441016 
L 168.136364 209.612213 
L 168.193432 210.069574 
L 168.567545 212.054032 
L 168.857114 212.629717 
L 169.049455 212.635412 
L 169.311545 212.345075 
L 169.687773 212.021824 
L 169.888568 212.128312 
L 170.173909 212.594984 
L 170.839705 213.709447 
L 171.036273 213.676586 
L 171.234955 213.367184 
L 171.497045 212.477391 
L 171.837341 210.43369 
L 171.940909 209.604765 
L 171.997977 210.062344 
L 172.372091 212.046756 
L 172.661659 212.622451 
L 172.854 212.628132 
L 173.116091 212.337779 
L 173.492318 212.014709 
L 173.693114 212.121442 
L 173.978455 212.588581 
L 174.64425 213.704002 
L 174.840818 213.671273 
L 175.0395 213.361922 
L 175.301591 212.472082 
L 175.641886 210.428162 
L 175.745455 209.599143 
L 175.802523 210.056895 
L 176.176636 212.041269 
L 176.466205 212.616972 
L 176.658545 212.622641 
L 176.920636 212.332275 
L 177.296864 212.00934 
L 177.497659 212.116258 
L 177.783 212.583749 
L 178.448795 213.699892 
L 178.645364 213.667263 
L 178.844045 213.357951 
L 179.106136 212.468075 
L 179.446432 210.423988 
L 179.55 209.594898 
L 179.607068 210.052784 
L 179.981182 212.037129 
L 180.27075 212.612836 
L 180.463091 212.618497 
L 180.725182 212.328119 
L 181.101409 212.005286 
L 181.302205 212.112344 
L 181.587545 212.5801 
L 182.253341 213.696789 
L 182.449909 213.664235 
L 182.648591 213.354951 
L 182.910682 212.465048 
L 183.250977 210.420834 
L 183.354545 209.591691 
L 183.411614 210.049681 
L 183.785727 212.034004 
L 184.075295 212.609713 
L 184.267636 212.615367 
L 184.529727 212.32498 
L 184.905955 212.002224 
L 185.10675 212.109387 
L 185.392091 212.577344 
L 186.057886 213.694445 
L 186.254455 213.661947 
L 186.453136 213.352685 
L 186.715227 212.46276 
L 187.055523 210.418451 
L 187.159091 209.589267 
L 187.216159 210.047337 
L 187.590273 212.031643 
L 187.879841 212.607354 
L 188.072182 212.613002 
L 188.334273 212.322609 
L 188.7105 211.99991 
L 188.911295 212.107152 
L 189.196636 212.575261 
L 189.862432 213.692673 
L 190.059 213.660218 
L 190.257682 213.350972 
L 190.519773 212.461031 
L 190.860068 210.416649 
L 190.963636 209.587434 
L 191.020705 210.045566 
L 191.394818 212.029858 
L 191.684386 212.60557 
L 191.876727 212.611214 
L 192.138818 212.320816 
L 192.515045 211.99816 
L 192.715841 212.105462 
L 193.001182 212.573686 
L 193.666977 213.691334 
L 193.863545 213.65891 
L 194.062227 213.349677 
L 194.324318 212.459723 
L 194.664614 210.415286 
L 194.768182 209.586048 
L 194.82525 210.044228 
L 195.199364 212.028509 
L 195.488932 212.604222 
L 195.681273 212.609862 
L 195.943364 212.31946 
L 196.319591 211.996837 
L 196.520386 212.104185 
L 196.805727 212.572495 
L 197.471523 213.690321 
L 197.668091 213.657922 
L 197.866773 213.348697 
L 198.128864 212.458734 
L 198.469159 210.414255 
L 198.572727 209.584999 
L 198.629795 210.043216 
L 199.003909 212.027489 
L 199.293477 212.603202 
L 199.485818 212.60884 
L 199.747909 212.318434 
L 200.124136 211.995836 
L 200.324932 212.103218 
L 200.610273 212.571594 
L 201.276068 213.689554 
L 201.472636 213.657173 
L 201.671318 213.347956 
L 201.933409 212.457986 
L 202.273705 210.413475 
L 202.377273 209.584205 
L 202.434341 210.04245 
L 202.808455 212.026717 
L 203.098023 212.602431 
L 203.290364 212.608067 
L 203.552455 212.317658 
L 203.928682 211.995079 
L 204.129477 212.102486 
L 204.414818 212.570912 
L 205.080614 213.688974 
L 205.277182 213.656607 
L 205.475864 213.347395 
L 205.737955 212.457419 
L 206.07825 210.412884 
L 206.181818 209.583605 
L 206.238886 210.041871 
L 206.613 212.026134 
L 206.902568 212.601847 
L 207.094909 212.607481 
L 207.357 212.317071 
L 207.733227 211.994506 
L 207.934023 212.101933 
L 208.219364 212.570396 
L 208.885159 213.688535 
L 209.081727 213.656179 
L 209.278295 213.351855 
L 209.540386 212.46649 
L 209.880682 210.428347 
L 209.986364 209.58315 
L 210.043432 210.041433 
L 210.417545 212.025692 
L 210.707114 212.601405 
L 210.899455 212.607038 
L 211.161545 212.316626 
L 211.537773 211.994072 
L 211.738568 212.101514 
L 212.023909 212.570005 
L 212.689705 213.688203 
L 212.886273 213.655854 
L 213.082841 213.351533 
L 213.344932 212.466165 
L 213.685227 210.428008 
L 213.790909 209.582806 
L 213.847977 210.041101 
L 214.222091 212.025357 
L 214.511659 212.601071 
L 214.704 212.606703 
L 214.966091 212.31629 
L 215.342318 211.993743 
L 215.543114 212.101196 
L 215.828455 212.569709 
L 216.49425 213.687951 
L 216.690818 213.655609 
L 216.887386 213.35129 
L 217.149477 212.465919 
L 217.489773 210.427752 
L 217.595455 209.582545 
L 217.652523 210.04085 
L 218.026636 212.025104 
L 218.316205 212.600817 
L 218.508545 212.606449 
L 218.770636 212.316035 
L 219.146864 211.993495 
L 219.347659 212.100956 
L 219.633 212.569485 
L 220.298795 213.687761 
L 220.495364 213.655423 
L 220.691932 213.351106 
L 220.954023 212.465733 
L 221.294318 210.427558 
L 221.4 209.582348 
L 221.457068 210.04066 
L 221.831182 212.024912 
L 222.12075 212.600626 
L 222.313091 212.606256 
L 222.575182 212.315842 
L 222.951409 211.993306 
L 223.152205 212.100774 
L 223.437545 212.569316 
L 224.103341 213.687616 
L 224.299909 213.655282 
L 224.496477 213.350966 
L 224.758568 212.465593 
L 225.098864 210.427411 
L 225.204545 209.582198 
L 225.261614 210.040516 
L 225.635727 212.024767 
L 225.925295 212.600481 
L 226.117636 212.606111 
L 226.379727 212.315696 
L 226.755955 211.993164 
L 226.95675 212.100636 
L 227.242091 212.569187 
L 227.907886 213.687507 
L 228.104455 213.655175 
L 228.301023 213.35086 
L 228.563114 212.465486 
L 228.903409 210.4273 
L 229.009091 209.582085 
L 229.066159 210.040407 
L 229.440273 212.024657 
L 229.729841 212.600371 
L 229.922182 212.606001 
L 230.184273 212.315585 
L 230.5605 211.993055 
L 230.761295 212.100532 
L 231.046636 212.56909 
L 231.712432 213.687424 
L 231.909 213.655095 
L 232.105568 213.35078 
L 232.367659 212.465405 
L 232.707955 210.427216 
L 232.813636 209.581999 
L 232.870705 210.040324 
L 233.244818 212.024574 
L 233.534386 212.600287 
L 233.726727 212.605917 
L 233.988818 212.315501 
L 234.365045 211.992974 
L 234.565841 212.100453 
L 234.851182 212.569016 
L 235.516977 213.687362 
L 235.713545 213.655033 
L 235.910114 213.35072 
L 236.172205 212.465344 
L 236.5125 210.427152 
L 236.618182 209.581934 
L 236.67525 210.040262 
L 237.049364 212.02451 
L 237.338932 212.600224 
L 237.531273 212.605854 
L 237.793364 212.315438 
L 238.169591 211.992912 
L 238.370386 212.100393 
L 238.655727 212.568961 
L 239.321523 213.687314 
L 239.518091 213.654987 
L 239.714659 213.350674 
L 239.97675 212.465297 
L 240.317045 210.427104 
L 240.422727 209.581885 
L 240.479795 210.040214 
L 240.853909 212.024463 
L 241.143477 212.600176 
L 241.335818 212.605806 
L 241.597909 212.31539 
L 241.974136 211.992865 
L 242.174932 212.100348 
L 242.460273 212.568918 
L 243.126068 213.687278 
L 243.322636 213.654952 
L 243.519205 213.350639 
L 243.781295 212.465262 
L 244.121591 210.427067 
L 244.227273 209.581848 
L 244.284341 210.040179 
L 244.658455 212.024426 
L 244.948023 212.60014 
L 245.140364 212.605769 
L 245.402455 212.315353 
L 245.778682 211.992829 
L 245.979477 212.100314 
L 246.264818 212.568886 
L 246.930614 213.687251 
L 247.127182 213.654925 
L 247.32375 213.350613 
L 247.585841 212.465236 
L 247.926136 210.427039 
L 248.031818 209.581819 
L 248.088886 210.040151 
L 248.463 212.024399 
L 248.752568 212.600113 
L 248.944909 212.605742 
L 249.207 212.315326 
L 249.583227 211.992802 
L 249.784023 212.100288 
L 250.069364 212.568862 
L 250.735159 213.68723 
L 250.931727 213.654905 
L 251.128295 213.350593 
L 251.390386 212.465215 
L 251.730682 210.427018 
L 251.836364 209.581798 
L 251.893432 210.040131 
L 252.267545 212.024378 
L 252.557114 212.600092 
L 252.749455 212.605721 
L 253.011545 212.315305 
L 253.387773 211.992782 
L 253.588568 212.100268 
L 253.873909 212.568844 
L 254.539705 213.687215 
L 254.736273 213.65489 
L 254.932841 213.350577 
L 255.194932 212.4652 
L 255.535227 210.427002 
L 255.640909 209.581782 
L 255.697977 210.040115 
L 256.072091 212.024363 
L 256.361659 212.600076 
L 256.554 212.605705 
L 256.816091 212.315289 
L 257.192318 211.992766 
L 257.393114 212.100253 
L 257.678455 212.56883 
L 258.34425 213.687203 
L 258.540818 213.654878 
L 258.737386 213.350566 
L 258.999477 212.465189 
L 259.339773 210.42699 
L 259.445455 209.58177 
L 259.502523 210.040103 
L 259.876636 212.024351 
L 260.166205 212.600064 
L 260.358545 212.605693 
L 260.620636 212.315277 
L 260.996864 211.992755 
L 261.197659 212.100242 
L 261.483 212.568819 
L 262.148795 213.687194 
L 262.345364 213.65487 
L 262.541932 213.350557 
L 262.804023 212.46518 
L 263.144318 210.426981 
L 263.25 209.58176 
L 263.307068 210.040094 
L 263.681182 212.024342 
L 263.97075 212.600055 
L 264.163091 212.605684 
L 264.425182 212.315268 
L 264.801409 211.992746 
L 265.002205 212.100233 
L 265.287545 212.568811 
L 265.953341 213.687187 
L 266.149909 213.654863 
L 266.346477 213.350551 
L 266.608568 212.465173 
L 266.948864 210.426974 
L 267.054545 209.581753 
L 267.111614 210.040088 
L 267.485727 212.024335 
L 267.775295 212.600048 
L 267.967636 212.605677 
L 268.229727 212.315261 
L 268.605955 211.992739 
L 268.80675 212.100226 
L 269.092091 212.568805 
L 269.757886 213.687182 
L 269.954455 213.654858 
L 270.151023 213.350546 
L 270.413114 212.465168 
L 270.753409 210.426969 
L 270.859091 209.581748 
L 270.916159 210.040082 
L 271.290273 212.02433 
L 271.579841 212.600043 
L 271.772182 212.605672 
L 272.034273 212.315256 
L 272.4105 211.992734 
L 272.611295 212.100222 
L 272.896636 212.568801 
L 273.562432 213.687178 
L 273.759 213.654854 
L 273.955568 213.350542 
L 274.217659 212.465164 
L 274.557955 210.426965 
L 274.663636 209.581744 
L 274.720705 210.040079 
L 275.094818 212.024326 
L 275.384386 212.600039 
L 275.576727 212.605668 
L 275.838818 212.315252 
L 276.215045 211.99273 
L 276.415841 212.100218 
L 276.701182 212.568797 
L 277.366977 213.687175 
L 277.563545 213.654851 
L 277.760114 213.350539 
L 278.022205 212.465161 
L 278.3625 210.426962 
L 278.468182 209.581741 
L 278.52525 210.040076 
L 278.899364 212.024323 
L 279.188932 212.600036 
L 279.381273 212.605665 
L 279.643364 212.315249 
L 280.019591 211.992727 
L 280.220386 212.100215 
L 280.505727 212.568795 
L 281.171523 213.687173 
L 281.368091 213.654849 
L 281.564659 213.350537 
L 281.82675 212.465159 
L 282.167045 210.42696 
L 282.272727 209.581738 
L 282.329795 210.040073 
L 282.703909 212.02432 
L 282.993477 212.600034 
L 283.185818 212.605663 
L 283.447909 212.315246 
L 283.824136 211.992725 
L 284.024932 212.100213 
L 284.310273 212.568793 
L 284.976068 213.687171 
L 285.172636 213.654847 
L 285.369205 213.350535 
L 285.631295 212.465158 
L 285.971591 210.426958 
L 286.077273 209.581737 
L 286.134341 210.040072 
L 286.508455 212.024319 
L 286.798023 212.600032 
L 286.990364 212.605661 
L 287.252455 212.315245 
L 287.628682 211.992723 
L 287.829477 212.100211 
L 288.114818 212.568791 
L 288.780614 213.68717 
L 288.977182 213.654846 
L 289.17375 213.350534 
L 289.435841 212.465156 
L 289.776136 210.426957 
L 289.881818 209.581735 
L 289.938886 210.04007 
L 290.313 212.024317 
L 290.602568 212.600031 
L 290.794909 212.60566 
L 291.057 212.315243 
L 291.433227 211.992722 
L 291.634023 212.10021 
L 291.919364 212.56879 
L 292.585159 213.687169 
L 292.781727 213.654845 
L 292.978295 213.350533 
L 293.240386 212.465155 
L 293.580682 210.426956 
L 293.686364 209.581734 
L 293.743432 210.040069 
L 294.117545 212.024316 
L 294.407114 212.60003 
L 294.599455 212.605659 
L 294.861545 212.315242 
L 295.237773 211.992721 
L 295.438568 212.100209 
L 295.723909 212.568789 
L 296.389705 213.687168 
L 296.586273 213.654844 
L 296.782841 213.350532 
L 297.044932 212.465155 
L 297.385227 210.426955 
L 297.490909 209.581734 
L 297.547977 210.040069 
L 297.922091 212.024316 
L 298.211659 212.600029 
L 298.404 212.605658 
L 298.666091 212.315242 
L 299.042318 211.99272 
L 299.243114 212.100208 
L 299.528455 212.568788 
L 300.19425 213.687168 
L 300.390818 213.654844 
L 300.587386 213.350532 
L 300.849477 212.465154 
L 301.189773 210.426954 
L 301.295455 209.581733 
L 301.352523 210.040068 
L 301.726636 212.024315 
L 302.016205 212.600029 
L 302.208545 212.605658 
L 302.470636 212.315241 
L 302.846864 211.99272 
L 303.047659 212.100208 
L 303.333 212.568788 
L 303.998795 213.687167 
L 304.195364 213.654843 
L 304.391932 213.350531 
L 304.654023 212.465154 
L 304.994318 210.426954 
L 305.1 209.581733 
L 305.157068 210.040068 
L 305.531182 212.024315 
L 305.82075 212.600028 
L 306.013091 212.605657 
L 306.275182 212.315241 
L 306.651409 211.992719 
L 306.852205 212.100207 
L 307.137545 212.568788 
L 307.803341 213.687167 
L 307.999909 213.654843 
L 308.196477 213.350531 
L 308.458568 212.465153 
L 308.798864 210.426954 
L 308.904545 209.581732 
L 308.961614 210.040067 
L 309.335727 212.024314 
L 309.625295 212.600028 
L 309.817636 212.605657 
L 310.079727 212.31524 
L 310.455955 211.992719 
L 310.65675 212.100207 
L 310.942091 212.568787 
L 311.607886 213.687167 
L 311.804455 213.654843 
L 312.001023 213.350531 
L 312.263114 212.465153 
L 312.603409 210.426953 
L 312.709091 209.581732 
L 312.766159 210.040067 
L 313.140273 212.024314 
L 313.429841 212.600028 
L 313.622182 212.605657 
L 313.884273 212.31524 
L 314.2605 211.992719 
L 314.461295 212.100207 
L 314.746636 212.568787 
L 315.412432 213.687167 
L 315.609 213.654843 
L 315.805568 213.350531 
L 316.067659 212.465153 
L 316.407955 210.426953 
L 316.513636 209.581732 
L 316.570705 210.040067 
L 316.944818 212.024314 
L 317.234386 212.600028 
L 317.426727 212.605657 
L 317.688818 212.31524 
L 318.065045 211.992719 
L 318.265841 212.100207 
L 318.551182 212.568787 
L 319.216977 213.687166 
L 319.413545 213.654843 
L 319.610114 213.350531 
L 319.872205 212.465153 
L 320.2125 210.426953 
L 320.318182 209.581732 
L 320.37525 210.040067 
L 320.749364 212.024314 
L 321.038932 212.600028 
L 321.231273 212.605656 
L 321.493364 212.31524 
L 321.869591 211.992718 
L 322.070386 212.100207 
L 322.355727 212.568787 
L 323.021523 213.687166 
L 323.218091 213.654842 
L 323.414659 213.35053 
L 323.67675 212.465153 
L 324.017045 210.426953 
L 324.122727 209.581732 
L 324.179795 210.040067 
L 324.553909 212.024314 
L 324.843477 212.600027 
L 325.035818 212.605656 
L 325.297909 212.31524 
L 325.674136 211.992718 
L 325.874932 212.100206 
L 326.160273 212.568787 
L 326.826068 213.687166 
L 327.022636 213.654842 
L 327.219205 213.35053 
L 327.481295 212.465153 
L 327.821591 210.426953 
L 327.927273 209.581731 
L 327.984341 210.040067 
L 328.358455 212.024314 
L 328.648023 212.600027 
L 328.840364 212.605656 
L 329.102455 212.31524 
L 329.478682 211.992718 
L 329.679477 212.100206 
L 329.964818 212.568787 
L 330.630614 213.687166 
L 330.827182 213.654842 
L 331.02375 213.35053 
L 331.285841 212.465153 
L 331.626136 210.426953 
L 331.731818 209.581731 
L 331.788886 210.040067 
L 332.163 212.024314 
L 332.452568 212.600027 
L 332.644909 212.605656 
L 332.907 212.31524 
L 333.283227 211.992718 
L 333.484023 212.100206 
L 333.769364 212.568786 
L 334.435159 213.687166 
L 334.631727 213.654842 
L 334.828295 213.35053 
L 335.090386 212.465153 
L 335.430682 210.426953 
L 335.536364 209.581731 
L 335.593432 210.040067 
L 335.967545 212.024313 
L 336.257114 212.600027 
L 336.449455 212.605656 
L 336.711545 212.31524 
L 337.087773 211.992718 
L 337.288568 212.100206 
L 337.573909 212.568786 
L 338.239705 213.687166 
L 338.436273 213.654842 
L 338.632841 213.35053 
L 338.894932 212.465153 
L 339.235227 210.426953 
L 339.340909 209.581731 
L 339.397977 210.040067 
L 339.772091 212.024313 
L 340.061659 212.600027 
L 340.254 212.605656 
L 340.516091 212.315239 
L 340.892318 211.992718 
L 341.093114 212.100206 
L 341.378455 212.568786 
L 342.04425 213.687166 
L 342.240818 213.654842 
L 342.437386 213.35053 
L 342.699477 212.465153 
L 343.039773 210.426953 
L 343.145455 209.581731 
L 343.202523 210.040066 
L 343.576636 212.024313 
L 343.866205 212.600027 
L 344.058545 212.605656 
L 344.320636 212.315239 
L 344.696864 211.992718 
L 344.897659 212.100206 
L 345.183 212.568786 
L 345.848795 213.687166 
L 346.045364 213.654842 
L 346.241932 213.35053 
L 346.504023 212.465152 
L 346.844318 210.426953 
L 346.95 209.581731 
L 347.007068 210.040066 
L 347.381182 212.024313 
L 347.67075 212.600027 
L 347.863091 212.605656 
L 348.125182 212.315239 
L 348.501409 211.992718 
L 348.702205 212.100206 
L 348.987545 212.568786 
L 349.653341 213.687166 
L 349.849909 213.654842 
L 350.046477 213.35053 
L 350.308568 212.465152 
L 350.648864 210.426953 
L 350.754545 209.581731 
L 350.811614 210.040066 
L 351.185727 212.024313 
L 351.475295 212.600027 
L 351.667636 212.605656 
L 351.929727 212.315239 
L 352.305955 211.992718 
L 352.50675 212.100206 
L 352.792091 212.568786 
L 353.457886 213.687166 
L 353.654455 213.654842 
L 353.851023 213.35053 
L 354.113114 212.465152 
L 354.453409 210.426953 
L 354.559091 209.581731 
L 354.616159 210.040066 
L 354.990273 212.024313 
L 355.279841 212.600027 
L 355.472182 212.605656 
L 355.734273 212.315239 
L 356.1105 211.992718 
L 356.311295 212.100206 
L 356.596636 212.568786 
L 357.262432 213.687166 
L 357.459 213.654842 
L 357.655568 213.35053 
L 357.917659 212.465152 
L 358.257955 210.426953 
L 358.363636 209.581731 
L 358.420705 210.040066 
L 358.794818 212.024313 
L 359.084386 212.600027 
L 359.276727 212.605656 
L 359.538818 212.315239 
L 359.915045 211.992718 
L 360.115841 212.100206 
L 360.401182 212.568786 
L 361.066977 213.687166 
L 361.263545 213.654842 
L 361.460114 213.35053 
L 361.722205 212.465152 
L 362.0625 210.426953 
L 362.168182 209.581731 
L 362.22525 210.040066 
L 362.599364 212.024313 
L 362.888932 212.600027 
L 363.081273 212.605656 
L 363.343364 212.315239 
L 363.719591 211.992718 
L 363.920386 212.100206 
L 364.205727 212.568786 
L 364.871523 213.687166 
L 365.068091 213.654842 
L 365.264659 213.35053 
L 365.52675 212.465152 
L 365.867045 210.426953 
L 365.972727 209.581731 
L 366.029795 210.040066 
L 366.403909 212.024313 
L 366.693477 212.600027 
L 366.885818 212.605656 
L 367.147909 212.315239 
L 367.524136 211.992718 
L 367.724932 212.100206 
L 368.010273 212.568786 
L 368.676068 213.687166 
L 368.872636 213.654842 
L 369.069205 213.35053 
L 369.331295 212.465152 
L 369.671591 210.426953 
L 369.777273 209.581731 
L 369.834341 210.040066 
L 370.208455 212.024313 
L 370.498023 212.600027 
L 370.690364 212.605656 
L 370.952455 212.315239 
L 371.328682 211.992718 
L 371.529477 212.100206 
L 371.814818 212.568786 
L 372.480614 213.687166 
L 372.677182 213.654842 
L 372.87375 213.35053 
L 373.135841 212.465152 
L 373.476136 210.426953 
L 373.581818 209.581731 
L 373.581818 209.581731 
" clip-path="url(#pb25f569eef)" style="fill: none; stroke: #ff7f0e; stroke-width: 1.5; stroke-linecap: square"/>
   </g>
   <g id="line2d_19">
    <path d="M 69.218182 242.116364 
L 74.578364 242.005724 
L 75.204 241.72027 
L 75.707045 241.24312 
L 76.129773 240.521657 
L 76.510227 239.399004 
L 76.827273 237.885174 
L 76.867432 238.473331 
L 77.199273 239.889477 
L 77.463477 240.240516 
L 77.655818 240.189905 
L 77.896773 239.844463 
L 78.29625 238.807793 
L 79.131136 235.905838 
L 79.744091 233.036114 
L 80.245023 229.551449 
L 80.631818 225.692439 
L 80.743841 233.958121 
L 80.917159 234.00924 
L 81.082023 233.751824 
L 81.344114 232.853099 
L 81.768955 230.4619 
L 82.591159 225.90311 
L 83.726182 220.776675 
L 84.193295 216.928382 
L 84.436364 214.25919 
L 84.548386 223.227506 
L 84.692114 223.144006 
L 84.895023 222.695129 
L 85.207841 221.380743 
L 86.336523 216.026418 
L 86.676818 215.727698 
L 87.029795 215.37787 
L 87.304568 214.718836 
L 87.623727 213.293819 
L 88.010523 210.42494 
L 88.240909 208.074649 
L 88.352932 214.269656 
L 88.583318 214.499338 
L 88.746068 214.376388 
L 88.968 213.865089 
L 89.335773 212.334788 
L 89.809227 210.643418 
L 90.031159 210.478774 
L 90.2235 210.624569 
L 90.901977 211.285956 
L 91.08375 211.066189 
L 91.318364 210.367674 
L 91.626955 208.655442 
L 92.024318 205.046269 
L 92.045455 204.810079 
L 92.157477 209.526055 
L 92.442818 210.141646 
L 92.61825 210.139995 
L 92.800023 209.850549 
L 93.100159 208.855623 
L 93.582068 207.415852 
L 93.768068 207.370922 
L 93.956182 207.618888 
L 94.767818 208.942335 
L 94.769932 208.941202 
L 94.939023 208.720525 
L 95.167295 207.984825 
L 95.475886 206.130893 
L 95.85 202.527126 
L 95.962023 206.982974 
L 96.262159 207.730441 
L 96.443932 207.757614 
L 96.61725 207.49667 
L 96.908932 206.555132 
L 97.367591 205.243602 
L 97.540909 205.226914 
L 97.722682 205.508232 
L 98.5935 207.270255 
L 98.627318 207.249434 
L 98.796409 206.977947 
L 99.033136 206.099731 
L 99.354409 203.931841 
L 99.654545 200.892196 
L 99.766568 205.246415 
L 100.070932 206.04439 
L 100.256932 206.085768 
L 100.426023 205.837912 
L 100.715591 204.916598 
L 101.155227 203.698881 
L 101.320091 203.699224 
L 101.49975 204.009028 
L 101.916136 205.330665 
L 102.283909 206.127853 
L 102.459341 206.130824 
L 102.626318 205.847803 
L 102.863045 204.93041 
L 103.186432 202.66373 
L 103.459091 199.855473 
L 103.571114 204.063524 
L 103.881818 204.91633 
L 104.069932 204.971116 
L 104.236909 204.734008 
L 104.524364 203.837198 
L 104.947091 202.709354 
L 105.105614 202.721218 
L 105.283159 203.047368 
L 105.667841 204.366641 
L 106.075773 205.421966 
L 106.263886 205.46557 
L 106.424523 205.216109 
L 106.652795 204.372152 
L 106.967727 202.234641 
L 107.263636 199.215107 
L 107.375659 203.334835 
L 107.690591 204.226248 
L 107.880818 204.28894 
L 108.045682 204.057943 
L 108.333136 203.169206 
L 108.745295 202.097393 
L 108.899591 202.117489 
L 109.077136 202.458136 
L 109.455477 203.815981 
L 109.876091 204.987449 
L 110.068432 205.051857 
L 110.224841 204.820503 
L 110.448886 204.01275 
L 110.759591 201.937158 
L 111.068182 198.797762 
L 111.180205 202.888214 
L 111.49725 203.798744 
L 111.687477 203.864868 
L 111.850227 203.639062 
L 112.135568 202.761311 
L 112.545614 201.701835 
L 112.697795 201.7261 
L 112.873227 202.070052 
L 113.241 203.423058 
L 113.678523 204.703985 
L 113.872977 204.780372 
L 114.027273 204.557938 
L 114.249205 203.767099 
L 114.557795 201.719343 
L 114.872727 198.516365 
L 114.98475 202.597909 
L 115.301795 203.516799 
L 115.494136 203.584957 
L 115.656886 203.357021 
L 115.944341 202.468533 
L 116.345932 201.436695 
L 116.498114 201.462596 
L 116.673545 201.812845 
L 117.039205 203.183718 
L 117.480955 204.514149 
L 117.677523 204.599517 
L 117.831818 204.379487 
L 118.051636 203.599186 
L 118.358114 201.572516 
L 118.677273 198.326301 
L 118.789295 202.40355 
L 119.106341 203.32776 
L 119.298682 203.397828 
L 119.461432 203.170296 
L 119.748886 202.281052 
L 120.148364 201.256726 
L 120.298432 201.282947 
L 120.473864 201.635333 
L 120.835295 203.005615 
L 121.283386 204.386444 
L 121.482068 204.478767 
L 121.63425 204.26488 
L 121.851955 203.499799 
L 122.156318 201.502189 
L 122.481818 198.196704 
L 122.593841 202.273148 
L 122.910886 203.200698 
L 123.103227 203.271762 
L 123.265977 203.04417 
L 123.553432 202.153746 
L 123.950795 201.13448 
L 124.100864 201.161225 
L 124.276295 201.516514 
L 124.637727 202.899331 
L 125.087932 204.301849 
L 125.286614 204.39663 
L 125.438795 204.183392 
L 125.6565 203.417689 
L 125.960864 201.41691 
L 126.286364 198.106357 
L 126.398386 202.184532 
L 126.717545 203.116771 
L 126.907773 203.185391 
L 127.070523 202.957442 
L 127.357977 202.065626 
L 127.755341 201.048324 
L 127.905409 201.078046 
L 128.080841 201.438034 
L 128.444386 202.840474 
L 128.892477 204.243091 
L 129.091159 204.339436 
L 129.243341 204.126503 
L 129.461045 203.360116 
L 129.765409 201.356739 
L 130.090909 198.042243 
L 130.202932 202.122951 
L 130.522091 203.056244 
L 130.712318 203.124919 
L 130.875068 202.896535 
L 131.162523 202.003413 
L 131.559886 200.987262 
L 131.707841 201.016759 
L 131.881159 201.370152 
L 132.23625 202.739175 
L 132.694909 204.198459 
L 132.895705 204.299003 
L 133.047886 204.08621 
L 133.265591 203.319207 
L 133.569955 201.313779 
L 133.895455 197.996264 
L 134.007477 202.079453 
L 134.326636 203.013358 
L 134.516864 203.081973 
L 134.679614 202.853182 
L 134.967068 201.958953 
L 135.362318 200.945001 
L 135.512386 200.974502 
L 135.687818 201.336479 
L 136.04925 202.740712 
L 136.501568 204.172038 
L 136.70025 204.270123 
L 136.852432 204.057383 
L 137.070136 203.289855 
L 137.3745 201.282824 
L 137.7 197.962999 
L 137.812023 202.048421 
L 138.131182 202.982678 
L 138.321409 203.051186 
L 138.484159 202.822039 
L 138.771614 201.926901 
L 139.166864 200.91337 
L 139.314818 200.94164 
L 139.488136 201.29539 
L 139.841114 202.662193 
L 140.304 204.147549 
L 140.504795 204.249288 
L 140.656977 204.036554 
L 140.874682 203.268591 
L 141.179045 201.260313 
L 141.504545 197.938724 
L 141.616568 202.026082 
L 141.935727 202.960531 
L 142.125955 203.028917 
L 142.288705 202.799469 
L 142.576159 201.903595 
L 142.971409 200.890317 
L 143.119364 200.919373 
L 143.292682 201.274417 
L 143.647773 202.653207 
L 144.108545 204.132048 
L 144.309341 204.234121 
L 144.459409 204.026125 
L 144.677114 203.263192 
L 144.981477 201.261505 
L 145.309091 197.920884 
L 145.421114 202.009857 
L 145.740273 202.944405 
L 145.9305 203.012672 
L 146.09325 202.782978 
L 146.380705 201.88652 
L 146.775955 200.873394 
L 146.923909 200.903028 
L 147.097227 201.259029 
L 147.452318 202.640032 
L 147.913091 204.120694 
L 148.113886 204.223 
L 148.263955 204.014982 
L 148.481659 203.251774 
L 148.786023 201.24935 
L 149.113636 197.907703 
L 149.225659 201.997987 
L 149.544818 202.932582 
L 149.735045 203.000745 
L 149.897795 202.770854 
L 150.18525 201.873936 
L 150.5805 200.860905 
L 150.728455 200.890966 
L 150.901773 201.247678 
L 151.256864 202.630326 
L 151.717636 204.112331 
L 151.918432 204.214802 
L 152.0685 204.00676 
L 152.286205 203.243337 
L 152.590568 201.240349 
L 152.918182 197.897923 
L 153.030205 201.989254 
L 153.349364 202.923866 
L 153.539591 202.991942 
L 153.702341 202.761895 
L 153.989795 201.86462 
L 154.385045 200.851647 
L 154.533 200.882025 
L 154.706318 201.239267 
L 155.061409 202.623142 
L 155.522182 204.106142 
L 155.722977 204.208731 
L 155.873045 204.000667 
L 156.09075 203.237075 
L 156.395114 201.233657 
L 156.722727 197.890641 
L 156.83475 201.982797 
L 157.153909 202.917413 
L 157.344136 202.985417 
L 157.506886 202.755247 
L 157.794341 201.857697 
L 158.189591 200.844759 
L 158.337545 200.875373 
L 158.510864 201.233011 
L 158.865955 202.617803 
L 159.326727 204.101544 
L 159.527523 204.204217 
L 159.677591 203.996134 
L 159.895295 203.232412 
L 160.199659 201.228665 
L 160.527273 197.885201 
L 160.639295 201.978004 
L 160.958455 202.912616 
L 161.148682 202.980562 
L 161.311432 202.750297 
L 161.598886 201.852533 
L 161.994136 200.839617 
L 162.142091 200.870408 
L 162.315409 201.228343 
L 162.6705 202.613822 
L 163.131273 204.098115 
L 163.332068 204.20085 
L 163.482136 203.992751 
L 163.699841 203.228928 
L 164.004205 201.224932 
L 164.331818 197.881128 
L 164.443841 201.974434 
L 164.763 202.909038 
L 164.953227 202.976938 
L 165.115977 202.7466 
L 165.403432 201.848672 
L 165.798682 200.83577 
L 165.946636 200.866693 
L 166.119955 201.22485 
L 166.475045 202.610846 
L 166.935818 204.095552 
L 167.136614 204.198331 
L 167.286682 203.990219 
L 167.504386 203.226319 
L 167.80875 201.222133 
L 168.136364 197.878072 
L 168.248386 201.971766 
L 168.567545 202.906362 
L 168.757773 202.974226 
L 168.920523 202.743831 
L 169.207977 201.845778 
L 169.603227 200.832884 
L 169.751182 200.863906 
L 169.9245 201.222232 
L 170.279591 202.608616 
L 170.740364 204.093631 
L 170.941159 204.196444 
L 171.091227 203.98832 
L 171.308932 203.224362 
L 171.613295 201.220031 
L 171.940909 197.875774 
L 172.052932 201.969767 
L 172.372091 202.904356 
L 172.562318 202.972192 
L 172.725068 202.741753 
L 173.012523 201.843605 
L 173.407773 200.830715 
L 173.555727 200.861812 
L 173.729045 201.220264 
L 174.084136 202.606941 
L 174.544909 204.092189 
L 174.745705 204.195026 
L 174.895773 203.986894 
L 175.113477 203.22289 
L 175.417841 201.21845 
L 175.745455 197.874045 
L 175.857477 201.968267 
L 176.176636 202.90285 
L 176.366864 202.970664 
L 176.529614 202.740192 
L 176.817068 201.84197 
L 177.212318 200.829084 
L 177.360273 200.860237 
L 177.533591 201.218784 
L 177.888682 202.605681 
L 178.349455 204.091104 
L 178.55025 204.193959 
L 178.700318 203.98582 
L 178.918023 203.221782 
L 179.222386 201.217259 
L 179.55 197.872742 
L 179.662023 201.96714 
L 179.981182 202.901717 
L 180.171409 202.969514 
L 180.334159 202.739016 
L 180.621614 201.840738 
L 181.016864 200.827854 
L 181.164818 200.85905 
L 181.338136 201.217669 
L 181.695341 202.613785 
L 182.154 204.090287 
L 182.354795 204.193155 
L 182.504864 203.985012 
L 182.722568 203.220947 
L 183.026932 201.21636 
L 183.354545 197.871758 
L 183.466568 201.966291 
L 183.785727 202.900863 
L 183.975955 202.968648 
L 184.138705 202.73813 
L 184.426159 201.83981 
L 184.821409 200.826927 
L 184.969364 200.858154 
L 185.142682 201.216827 
L 185.499886 202.613071 
L 185.958545 204.089671 
L 186.159341 204.19255 
L 186.309409 203.984402 
L 186.527114 203.220317 
L 186.831477 201.215682 
L 187.159091 197.871016 
L 187.271114 201.965651 
L 187.590273 202.900219 
L 187.7805 202.967994 
L 187.94325 202.737461 
L 188.230705 201.839109 
L 188.625955 200.826227 
L 188.773909 200.857479 
L 188.947227 201.216192 
L 189.304432 202.612531 
L 189.763091 204.089207 
L 189.963886 204.192092 
L 190.113955 203.983941 
L 190.331659 203.219842 
L 190.636023 201.21517 
L 190.963636 197.870455 
L 191.075659 201.965168 
L 191.394818 202.899733 
L 191.585045 202.9675 
L 191.747795 202.736957 
L 192.03525 201.83858 
L 192.4305 200.825698 
L 192.578455 200.856968 
L 192.751773 201.215713 
L 193.108977 202.612124 
L 193.567636 204.088855 
L 193.768432 204.191747 
L 193.9185 203.983593 
L 194.136205 203.219482 
L 194.440568 201.214783 
L 194.768182 197.870031 
L 194.880205 201.964803 
L 195.199364 202.899366 
L 195.389591 202.967128 
L 195.552341 202.736575 
L 195.839795 201.83818 
L 196.235045 200.825298 
L 196.383 200.856582 
L 196.556318 201.21535 
L 196.913523 202.611816 
L 197.372182 204.08859 
L 197.572977 204.191486 
L 197.723045 203.983331 
L 197.94075 203.219211 
L 198.245114 201.214491 
L 198.572727 197.86971 
L 198.68475 201.964527 
L 199.003909 202.899089 
L 199.194136 202.966846 
L 199.356886 202.736287 
L 199.644341 201.837877 
L 200.039591 200.824996 
L 200.187545 200.85629 
L 200.360864 201.215076 
L 200.718068 202.611583 
L 201.176727 204.088389 
L 201.377523 204.191288 
L 201.527591 203.983132 
L 201.743182 203.229104 
L 202.045432 201.249544 
L 202.377273 197.869468 
L 202.489295 201.964319 
L 202.808455 202.898879 
L 202.998682 202.966633 
L 203.161432 202.736069 
L 203.448886 201.837649 
L 203.844136 200.824767 
L 203.992091 200.856069 
L 204.165409 201.214869 
L 204.522614 202.611407 
L 204.981273 204.088238 
L 205.182068 204.191139 
L 205.332136 203.982981 
L 205.547727 203.228949 
L 205.849977 201.249377 
L 206.181818 197.869284 
L 206.293841 201.964161 
L 206.613 202.898721 
L 206.803227 202.966471 
L 206.965977 202.735904 
L 207.253432 201.837475 
L 207.648682 200.824594 
L 207.796636 200.855902 
L 207.969955 201.214712 
L 208.327159 202.611274 
L 208.785818 204.088123 
L 208.986614 204.191026 
L 209.136682 203.982867 
L 209.352273 203.228831 
L 209.654523 201.24925 
L 209.986364 197.869145 
L 210.098386 201.964042 
L 210.417545 202.8986 
L 210.607773 202.966349 
L 210.770523 202.735779 
L 211.057977 201.837344 
L 211.453227 200.824463 
L 211.601182 200.855776 
L 211.7745 201.214593 
L 212.131705 202.611173 
L 212.590364 204.088036 
L 212.791159 204.19094 
L 212.941227 203.982781 
L 213.156818 203.228742 
L 213.459068 201.249154 
L 213.790909 197.86904 
L 213.902932 201.963952 
L 214.222091 202.89851 
L 214.412318 202.966257 
L 214.575068 202.735684 
L 214.862523 201.837245 
L 215.257773 200.824364 
L 215.405727 200.85568 
L 215.579045 201.214503 
L 215.93625 202.611097 
L 216.394909 204.08797 
L 216.595705 204.190875 
L 216.745773 203.982716 
L 216.961364 203.228675 
L 217.263614 201.249082 
L 217.595455 197.86896 
L 217.707477 201.963884 
L 218.026636 202.898441 
L 218.216864 202.966187 
L 218.379614 202.735613 
L 218.667068 201.83717 
L 219.062318 200.824289 
L 219.210273 200.855607 
L 219.383591 201.214435 
L 219.740795 202.611039 
L 220.199455 204.08792 
L 220.40025 204.190826 
L 220.550318 203.982667 
L 220.765909 203.228624 
L 221.068159 201.249027 
L 221.4 197.8689 
L 221.512023 201.963832 
L 221.831182 202.898389 
L 222.021409 202.966134 
L 222.184159 202.735559 
L 222.471614 201.837113 
L 222.866864 200.824232 
L 223.014818 200.855552 
L 223.188136 201.214383 
L 223.545341 202.610995 
L 224.004 204.087883 
L 224.204795 204.190789 
L 224.354864 203.982629 
L 224.570455 203.228585 
L 224.872705 201.248985 
L 225.204545 197.868854 
L 225.316568 201.963793 
L 225.635727 202.898349 
L 225.825955 202.966094 
L 225.988705 202.735518 
L 226.276159 201.83707 
L 226.671409 200.824189 
L 226.819364 200.855511 
L 226.992682 201.214344 
L 227.349886 202.610962 
L 227.808545 204.087854 
L 228.009341 204.190761 
L 228.159409 203.982601 
L 228.375 203.228556 
L 228.67725 201.248953 
L 229.009091 197.86882 
L 229.121114 201.963763 
L 229.440273 202.898319 
L 229.6305 202.966064 
L 229.79325 202.735487 
L 230.080705 201.837038 
L 230.475955 200.824156 
L 230.623909 200.855479 
L 230.797227 201.214315 
L 231.154432 202.610937 
L 231.613091 204.087832 
L 231.813886 204.19074 
L 231.963955 203.982579 
L 232.179545 203.228534 
L 232.481795 201.24893 
L 232.813636 197.868793 
L 232.925659 201.96374 
L 233.244818 202.898297 
L 233.435045 202.966041 
L 233.597795 202.735463 
L 233.88525 201.837013 
L 234.2805 200.824132 
L 234.428455 200.855455 
L 234.601773 201.214292 
L 234.958977 202.610918 
L 235.417636 204.087816 
L 235.618432 204.190724 
L 235.7685 203.982563 
L 235.984091 203.228517 
L 236.286341 201.248911 
L 236.618182 197.868773 
L 236.730205 201.963723 
L 237.049364 202.89828 
L 237.239591 202.966023 
L 237.402341 202.735445 
L 237.689795 201.836994 
L 238.085045 200.824113 
L 238.233 200.855437 
L 238.406318 201.214275 
L 238.763523 202.610903 
L 239.222182 204.087804 
L 239.422977 204.190711 
L 239.573045 203.982551 
L 239.788636 203.228504 
L 240.090886 201.248898 
L 240.422727 197.868758 
L 240.53475 201.963711 
L 240.853909 202.898267 
L 241.044136 202.96601 
L 241.206886 202.735432 
L 241.494341 201.83698 
L 241.889591 200.824099 
L 242.037545 200.855424 
L 242.210864 201.214263 
L 242.568068 202.610892 
L 243.026727 204.087794 
L 243.227523 204.190702 
L 243.377591 203.982542 
L 243.593182 203.228495 
L 243.895432 201.248887 
L 244.227273 197.868747 
L 244.339295 201.963701 
L 244.658455 202.898257 
L 244.848682 202.966 
L 245.011432 202.735421 
L 245.298886 201.836969 
L 245.694136 200.824088 
L 245.842091 200.855413 
L 246.015409 201.214253 
L 246.372614 202.610884 
L 246.831273 204.087787 
L 247.032068 204.190695 
L 247.182136 203.982535 
L 247.397727 203.228487 
L 247.699977 201.248879 
L 248.031818 197.868738 
L 248.143841 201.963693 
L 248.463 202.898249 
L 248.653227 202.965992 
L 248.815977 202.735414 
L 249.103432 201.836961 
L 249.498682 200.82408 
L 249.646636 200.855405 
L 249.819955 201.214245 
L 250.177159 202.610878 
L 250.635818 204.087782 
L 250.836614 204.19069 
L 250.986682 203.982529 
L 251.202273 203.228482 
L 251.504523 201.248874 
L 251.836364 197.868732 
L 251.948386 201.963688 
L 252.267545 202.898244 
L 252.457773 202.965987 
L 252.620523 202.735408 
L 252.907977 201.836955 
L 253.303227 200.824074 
L 253.451182 200.8554 
L 253.6245 201.21424 
L 253.981705 202.610873 
L 254.440364 204.087778 
L 254.641159 204.190686 
L 254.791227 203.982525 
L 255.006818 203.228478 
L 255.309068 201.248869 
L 255.640909 197.868727 
L 255.752932 201.963684 
L 256.072091 202.898239 
L 256.262318 202.965982 
L 256.425068 202.735403 
L 256.712523 201.83695 
L 257.107773 200.824069 
L 257.255727 200.855395 
L 257.429045 201.214236 
L 257.78625 202.61087 
L 258.244909 204.087774 
L 258.445705 204.190683 
L 258.595773 203.982522 
L 258.811364 203.228474 
L 259.113614 201.248866 
L 259.445455 197.868723 
L 259.557477 201.96368 
L 259.876636 202.898236 
L 260.066864 202.965979 
L 260.229614 202.7354 
L 260.517068 201.836947 
L 260.912318 200.824065 
L 261.060273 200.855392 
L 261.233591 201.214232 
L 261.590795 202.610867 
L 262.049455 204.087772 
L 262.25025 204.190681 
L 262.400318 203.98252 
L 262.615909 203.228472 
L 262.918159 201.248863 
L 263.25 197.86872 
L 263.362023 201.963678 
L 263.681182 202.898234 
L 263.871409 202.965977 
L 264.034159 202.735397 
L 264.321614 201.836944 
L 264.716864 200.824063 
L 264.864818 200.855389 
L 265.038136 201.21423 
L 265.395341 202.610865 
L 265.854 204.08777 
L 266.054795 204.190679 
L 266.204864 203.982518 
L 266.420455 203.22847 
L 266.722705 201.248861 
L 267.054545 197.868718 
L 267.166568 201.963676 
L 267.485727 202.898232 
L 267.675955 202.965975 
L 267.838705 202.735395 
L 268.126159 201.836942 
L 268.521409 200.824061 
L 268.669364 200.855387 
L 268.842682 201.214228 
L 269.199886 202.610863 
L 269.658545 204.087769 
L 269.859341 204.190677 
L 270.009409 203.982517 
L 270.225 203.228469 
L 270.52725 201.24886 
L 270.859091 197.868716 
L 270.971114 201.963675 
L 271.290273 202.89823 
L 271.4805 202.965973 
L 271.64325 202.735394 
L 271.930705 201.83694 
L 272.325955 200.824059 
L 272.473909 200.855386 
L 272.647227 201.214227 
L 273.004432 202.610862 
L 273.463091 204.087768 
L 273.663886 204.190676 
L 273.813955 203.982516 
L 274.029545 203.228468 
L 274.331795 201.248858 
L 274.663636 197.868715 
L 274.775659 201.963674 
L 275.094818 202.898229 
L 275.285045 202.965972 
L 275.447795 202.735393 
L 275.73525 201.836939 
L 276.1305 200.824058 
L 276.278455 200.855384 
L 276.451773 201.214226 
L 276.808977 202.610861 
L 277.267636 204.087767 
L 277.468432 204.190676 
L 277.6185 203.982515 
L 277.834091 203.228467 
L 278.136341 201.248858 
L 278.468182 197.868714 
L 278.580205 201.963673 
L 278.899364 202.898228 
L 279.089591 202.965971 
L 279.252341 202.735392 
L 279.539795 201.836938 
L 279.935045 200.824057 
L 280.083 200.855384 
L 280.256318 201.214225 
L 280.613523 202.61086 
L 281.072182 204.087767 
L 281.272977 204.190675 
L 281.423045 203.982514 
L 281.638636 203.228466 
L 281.940886 201.248857 
L 282.272727 197.868714 
L 282.38475 201.963672 
L 282.703909 202.898228 
L 282.894136 202.965971 
L 283.056886 202.735391 
L 283.344341 201.836938 
L 283.739591 200.824056 
L 283.887545 200.855383 
L 284.060864 201.214224 
L 284.418068 202.61086 
L 284.876727 204.087766 
L 285.077523 204.190675 
L 285.227591 203.982514 
L 285.443182 203.228466 
L 285.745432 201.248856 
L 286.077273 197.868713 
L 286.189295 201.963672 
L 286.508455 202.898227 
L 286.698682 202.96597 
L 286.861432 202.735391 
L 287.148886 201.836937 
L 287.544136 200.824056 
L 287.692091 200.855382 
L 287.865409 201.214224 
L 288.222614 202.61086 
L 288.681273 204.087766 
L 288.882068 204.190674 
L 289.032136 203.982513 
L 289.247727 203.228466 
L 289.549977 201.248856 
L 289.881818 197.868713 
L 289.993841 201.963671 
L 290.313 202.898227 
L 290.503227 202.96597 
L 290.665977 202.735391 
L 290.953432 201.836937 
L 291.348682 200.824055 
L 291.496636 200.855382 
L 291.669955 201.214223 
L 292.027159 202.610859 
L 292.485818 204.087766 
L 292.686614 204.190674 
L 292.836682 203.982513 
L 293.052273 203.228465 
L 293.354523 201.248856 
L 293.686364 197.868712 
L 293.798386 201.963671 
L 294.117545 202.898227 
L 294.307773 202.96597 
L 294.470523 202.73539 
L 294.757977 201.836936 
L 295.153227 200.824055 
L 295.301182 200.855382 
L 295.4745 201.214223 
L 295.831705 202.610859 
L 296.290364 204.087765 
L 296.491159 204.190674 
L 296.641227 203.982513 
L 296.856818 203.228465 
L 297.159068 201.248856 
L 297.490909 197.868712 
L 297.602932 201.963671 
L 297.922091 202.898227 
L 298.112318 202.965969 
L 298.275068 202.73539 
L 298.562523 201.836936 
L 298.957773 200.824055 
L 299.105727 200.855382 
L 299.279045 201.214223 
L 299.63625 202.610859 
L 300.094909 204.087765 
L 300.295705 204.190674 
L 300.445773 203.982513 
L 300.661364 203.228465 
L 300.963614 201.248855 
L 301.295455 197.868712 
L 301.407477 201.963671 
L 301.726636 202.898226 
L 301.916864 202.965969 
L 302.079614 202.73539 
L 302.367068 201.836936 
L 302.762318 200.824055 
L 302.910273 200.855381 
L 303.083591 201.214223 
L 303.440795 202.610859 
L 303.899455 204.087765 
L 304.10025 204.190674 
L 304.250318 203.982513 
L 304.465909 203.228465 
L 304.768159 201.248855 
L 305.1 197.868712 
L 305.212023 201.963671 
L 305.531182 202.898226 
L 305.721409 202.965969 
L 305.884159 202.73539 
L 306.171614 201.836936 
L 306.566864 200.824055 
L 306.714818 200.855381 
L 306.888136 201.214223 
L 307.245341 202.610859 
L 307.704 204.087765 
L 307.904795 204.190674 
L 308.054864 203.982513 
L 308.270455 203.228465 
L 308.572705 201.248855 
L 308.904545 197.868712 
L 309.016568 201.963671 
L 309.335727 202.898226 
L 309.525955 202.965969 
L 309.688705 202.73539 
L 309.976159 201.836936 
L 310.371409 200.824055 
L 310.519364 200.855381 
L 310.692682 201.214223 
L 311.049886 202.610859 
L 311.508545 204.087765 
L 311.709341 204.190673 
L 311.859409 203.982513 
L 312.075 203.228465 
L 312.37725 201.248855 
L 312.709091 197.868712 
L 312.821114 201.96367 
L 313.140273 202.898226 
L 313.3305 202.965969 
L 313.49325 202.73539 
L 313.780705 201.836936 
L 314.175955 200.824055 
L 314.323909 200.855381 
L 314.497227 201.214223 
L 314.854432 202.610858 
L 315.313091 204.087765 
L 315.513886 204.190673 
L 315.663955 203.982513 
L 315.879545 203.228465 
L 316.181795 201.248855 
L 316.513636 197.868712 
L 316.625659 201.96367 
L 316.944818 202.898226 
L 317.135045 202.965969 
L 317.297795 202.73539 
L 317.58525 201.836936 
L 317.9805 200.824054 
L 318.128455 200.855381 
L 318.301773 201.214222 
L 318.658977 202.610858 
L 319.117636 204.087765 
L 319.318432 204.190673 
L 319.4685 203.982513 
L 319.684091 203.228465 
L 319.986341 201.248855 
L 320.318182 197.868711 
L 320.430205 201.96367 
L 320.749364 202.898226 
L 320.939591 202.965969 
L 321.102341 202.73539 
L 321.389795 201.836936 
L 321.785045 200.824054 
L 321.933 200.855381 
L 322.106318 201.214222 
L 322.463523 202.610858 
L 322.922182 204.087765 
L 323.122977 204.190673 
L 323.273045 203.982513 
L 323.488636 203.228465 
L 323.790886 201.248855 
L 324.122727 197.868711 
L 324.23475 201.96367 
L 324.553909 202.898226 
L 324.744136 202.965969 
L 324.906886 202.735389 
L 325.194341 201.836936 
L 325.589591 200.824054 
L 325.737545 200.855381 
L 325.910864 201.214222 
L 326.268068 202.610858 
L 326.726727 204.087765 
L 326.927523 204.190673 
L 327.077591 203.982512 
L 327.293182 203.228465 
L 327.595432 201.248855 
L 327.927273 197.868711 
L 328.039295 201.96367 
L 328.358455 202.898226 
L 328.548682 202.965969 
L 328.711432 202.735389 
L 328.998886 201.836936 
L 329.394136 200.824054 
L 329.542091 200.855381 
L 329.715409 201.214222 
L 330.072614 202.610858 
L 330.531273 204.087765 
L 330.732068 204.190673 
L 330.882136 203.982512 
L 331.097727 203.228465 
L 331.399977 201.248855 
L 331.731818 197.868711 
L 331.843841 201.96367 
L 332.163 202.898226 
L 332.353227 202.965969 
L 332.515977 202.735389 
L 332.803432 201.836936 
L 333.198682 200.824054 
L 333.346636 200.855381 
L 333.519955 201.214222 
L 333.877159 202.610858 
L 334.335818 204.087765 
L 334.536614 204.190673 
L 334.686682 203.982512 
L 334.902273 203.228465 
L 335.204523 201.248855 
L 335.536364 197.868711 
L 335.648386 201.96367 
L 335.967545 202.898226 
L 336.157773 202.965969 
L 336.320523 202.735389 
L 336.607977 201.836936 
L 337.003227 200.824054 
L 337.151182 200.855381 
L 337.3245 201.214222 
L 337.681705 202.610858 
L 338.140364 204.087765 
L 338.341159 204.190673 
L 338.491227 203.982512 
L 338.706818 203.228465 
L 339.009068 201.248855 
L 339.340909 197.868711 
L 339.452932 201.96367 
L 339.772091 202.898226 
L 339.962318 202.965969 
L 340.125068 202.735389 
L 340.412523 201.836936 
L 340.807773 200.824054 
L 340.955727 200.855381 
L 341.129045 201.214222 
L 341.48625 202.610858 
L 341.944909 204.087765 
L 342.145705 204.190673 
L 342.295773 203.982512 
L 342.511364 203.228465 
L 342.813614 201.248855 
L 343.145455 197.868711 
L 343.257477 201.96367 
L 343.576636 202.898226 
L 343.766864 202.965969 
L 343.929614 202.735389 
L 344.217068 201.836936 
L 344.612318 200.824054 
L 344.760273 200.855381 
L 344.933591 201.214222 
L 345.290795 202.610858 
L 345.749455 204.087765 
L 345.95025 204.190673 
L 346.100318 203.982512 
L 346.315909 203.228465 
L 346.618159 201.248855 
L 346.95 197.868711 
L 347.062023 201.96367 
L 347.381182 202.898226 
L 347.571409 202.965969 
L 347.734159 202.735389 
L 348.021614 201.836936 
L 348.416864 200.824054 
L 348.564818 200.855381 
L 348.738136 201.214222 
L 349.095341 202.610858 
L 349.554 204.087765 
L 349.754795 204.190673 
L 349.904864 203.982512 
L 350.120455 203.228465 
L 350.422705 201.248855 
L 350.754545 197.868711 
L 350.866568 201.96367 
L 351.185727 202.898226 
L 351.375955 202.965969 
L 351.538705 202.735389 
L 351.826159 201.836936 
L 352.221409 200.824054 
L 352.369364 200.855381 
L 352.542682 201.214222 
L 352.899886 202.610858 
L 353.358545 204.087765 
L 353.559341 204.190673 
L 353.709409 203.982512 
L 353.925 203.228465 
L 354.22725 201.248855 
L 354.559091 197.868711 
L 354.671114 201.96367 
L 354.990273 202.898226 
L 355.1805 202.965969 
L 355.34325 202.735389 
L 355.630705 201.836936 
L 356.025955 200.824054 
L 356.173909 200.855381 
L 356.347227 201.214222 
L 356.704432 202.610858 
L 357.163091 204.087765 
L 357.363886 204.190673 
L 357.513955 203.982512 
L 357.729545 203.228465 
L 358.031795 201.248855 
L 358.363636 197.868711 
L 358.475659 201.96367 
L 358.794818 202.898226 
L 358.985045 202.965969 
L 359.147795 202.735389 
L 359.43525 201.836936 
L 359.8305 200.824054 
L 359.978455 200.855381 
L 360.151773 201.214222 
L 360.508977 202.610858 
L 360.967636 204.087765 
L 361.168432 204.190673 
L 361.3185 203.982512 
L 361.534091 203.228465 
L 361.836341 201.248855 
L 362.168182 197.868711 
L 362.280205 201.96367 
L 362.599364 202.898226 
L 362.789591 202.965969 
L 362.952341 202.735389 
L 363.239795 201.836936 
L 363.635045 200.824054 
L 363.783 200.855381 
L 363.956318 201.214222 
L 364.313523 202.610858 
L 364.772182 204.087765 
L 364.972977 204.190673 
L 365.123045 203.982512 
L 365.338636 203.228465 
L 365.640886 201.248855 
L 365.972727 197.868711 
L 366.08475 201.96367 
L 366.403909 202.898226 
L 366.594136 202.965969 
L 366.756886 202.735389 
L 367.044341 201.836936 
L 367.439591 200.824054 
L 367.587545 200.855381 
L 367.760864 201.214222 
L 368.118068 202.610858 
L 368.576727 204.087765 
L 368.777523 204.190673 
L 368.927591 203.982512 
L 369.143182 203.228465 
L 369.445432 201.248855 
L 369.777273 197.868711 
L 369.889295 201.96367 
L 370.208455 202.898226 
L 370.398682 202.965969 
L 370.561432 202.735389 
L 370.848886 201.836936 
L 371.244136 200.824054 
L 371.392091 200.855381 
L 371.565409 201.214222 
L 371.922614 202.610858 
L 372.381273 204.087765 
L 372.582068 204.190673 
L 372.732136 203.982512 
L 372.947727 203.228465 
L 373.249977 201.248855 
L 373.581818 197.868711 
L 373.581818 197.868711 
" clip-path="url(#pb25f569eef)" style="fill: none; stroke: #2ca02c; stroke-width: 1.5; stroke-linecap: square"/>
   </g>
   <g id="patch_3">
    <path d="M 54 252 
L 54 34.56 
" style="fill: none; stroke: #000000; stroke-width: 0.8; stroke-linejoin: miter; stroke-linecap: square"/>
   </g>
   <g id="patch_4">
    <path d="M 388.8 252 
L 388.8 34.56 
" style="fill: none; stroke: #000000; stroke-width: 0.8; stroke-linejoin: miter; stroke-linecap: square"/>
   </g>
   <g id="patch_5">
    <path d="M 54 252 
L 388.8 252 
" style="fill: none; stroke: #000000; stroke-width: 0.8; stroke-linejoin: miter; stroke-linecap: square"/>
   </g>
   <g id="patch_6">
    <path d="M 54 34.56 
L 388.8 34.56 
" style="fill: none; stroke: #000000; stroke-width: 0.8; stroke-linejoin: miter; stroke-linecap: square"/>
   </g>
   <g id="legend_1">
    <g id="patch_7">
     <path d="M 61 86.594375 
L 99.982812 86.594375 
Q 101.982812 86.594375 101.982812 84.594375 
L 101.982812 41.56 
Q 101.982812 39.56 99.982812 39.56 
L 61 39.56 
Q 59 39.56 59 41.56 
L 59 84.594375 
Q 59 86.594375 61 86.594375 
z
" style="fill: #ffffff; opacity: 0.8; stroke: #cccccc; stroke-linejoin: miter"/>
    </g>
    <g id="line2d_20">
     <path d="M 63 47.658438 
L 73 47.658438 
L 83 47.658438 
" style="fill: none; stroke: #1f77b4; stroke-width: 1.5; stroke-linecap: square"/>
    </g>
    <g id="text_19">
     <!-- A -->
     <g transform="translate(91 51.158438) scale(0.1 -0.1)">
      <defs>
       <path id="DejaVuSans-41" d="M 2188 4044 
L 1331 1722 
L 3047 1722 
L 2188 4044 
z
M 1831 4666 
L 2547 4666 
L 4325 0 
L 3669 0 
L 3244 1197 
L 1141 1197 
L 716 0 
L 50 0 
L 1831 4666 
z
" transform="scale(0.015625)"/>
      </defs>
      <use xlink:href="#DejaVuSans-41"/>
     </g>
    </g>
    <g id="line2d_21">
     <path d="M 63 62.336563 
L 73 62.336563 
L 83 62.336563 
" style="fill: none; stroke: #ff7f0e; stroke-width: 1.5; stroke-linecap: square"/>
    </g>
    <g id="text_20">
     <!-- B -->
     <g transform="translate(91 65.836563) scale(0.1 -0.1)">
      <defs>
       <path id="DejaVuSans-42" d="M 1259 2228 
L 1259 519 
L 2272 519 
Q 2781 519 3026 730 
Q 3272 941 3272 1375 
Q 3272 1813 3026 2020 
Q 2781 2228 2272 2228 
L 1259 2228 
z
M 1259 4147 
L 1259 2741 
L 2194 2741 
Q 2656 2741 2882 2914 
Q 3109 3088 3109 3444 
Q 3109 3797 2882 3972 
Q 2656 4147 2194 4147 
L 1259 4147 
z
M 628 4666 
L 2241 4666 
Q 2963 4666 3353 4366 
Q 3744 4066 3744 3513 
Q 3744 3084 3544 2831 
Q 3344 2578 2956 2516 
Q 3422 2416 3680 2098 
Q 3938 1781 3938 1306 
Q 3938 681 3513 340 
Q 3088 0 2303 0 
L 628 0 
L 628 4666 
z
" transform="scale(0.015625)"/>
      </defs>
      <use xlink:href="#DejaVuSans-42"/>
     </g>
    </g>
    <g id="line2d_22">
     <path d="M 63 77.014688 
L 73 77.014688 
L 83 77.014688 
" style="fill: none; stroke: #2ca02c; stroke-width: 1.5; stroke-linecap: square"/>
    </g>
    <g id="text_21">
     <!-- C -->
     <g transform="translate(91 80.514688) scale(0.1 -0.1)">
      <use xlink:href="#DejaVuSans-43"/>
     </g>
    </g>
   </g>
  </g>
 </g>
 <defs>
  <clipPath id="pb25f569eef">
   <rect x="54" y="34.56" width="334.8" height="217.44"/>
  </clipPath>
 </defs>
</svg>
