<?xml version="1.0" encoding="utf-8" standalone="no"?>
<!DOCTYPE svg PUBLIC "-//W3C//DTD SVG 1.1//EN"
  "http://www.w3.org/Graphics/SVG/1.1/DTD/svg11.dtd">
<svg xmlns:xlink="http://www.w3.org/1999/xlink" width="432pt" height="288pt" viewBox="0 0 432 288" xmlns="http://www.w3.org/2000/svg" version="1.1">
 <metadata>
  <rdf:RDF xmlns:dc="http://purl.org/dc/elements/1.1/" xmlns:cc="http://creativecommons.org/ns#" xmlns:rdf="http://www.w3.org/1999/02/22-rdf-syntax-ns#">
   <cc:Work>
    <dc:type rdf:resource="http://purl.org/dc/dcmitype/StillImage"/>
    <dc:date>2024-10-07T10:57:15.901865</dc:date>
    <dc:format>image/svg+xml</dc:format>
    <dc:creator>
     <cc:Agent>
      <dc:title>Matplotlib v3.9.1, https://matplotlib.org/</dc:title>
     </cc:Agent>
    </dc:creator>
   </cc:Work>
  </rdf:RDF>
 </metadata>
 <defs>
  <style type="text/css">*{stroke-linejoin: round; stroke-linecap: butt}</style>
 </defs>
 <g id="figure_1">
  <g id="patch_1">
   <path d="M 0 288 
L 432 288 
L 432 0 
L 0 0 
z
" style="fill: #ffffff"/>
  </g>
  <g id="axes_1">
   <g id="patch_2">
    <path d="M 54 252 
L 388.8 252 
L 388.8 34.56 
L 54 34.56 
z
" style="fill: #ffffff"/>
   </g>
   <g id="matplotlib.axis_1">
    <g id="xtick_1">
     <g id="line2d_1">
      <defs>
       <path id="m671105ae02" d="M 0 0 
L 0 3.5 
" style="stroke: #000000; stroke-width: 0.8"/>
      </defs>
      <g>
       <use xlink:href="#m671105ae02" x="69.218182" y="252" style="stroke: #000000; stroke-width: 0.8"/>
      </g>
     </g>
     <g id="text_1">
      <!-- 0 -->
      <g transform="translate(66.036932 266.598437) scale(0.1 -0.1)">
       <defs>
        <path id="DejaVuSans-30" d="M 2034 4250 
Q 1547 4250 1301 3770 
Q 1056 3291 1056 2328 
Q 1056 1369 1301 889 
Q 1547 409 2034 409 
Q 2525 409 2770 889 
Q 3016 1369 3016 2328 
Q 3016 3291 2770 3770 
Q 2525 4250 2034 4250 
z
M 2034 4750 
Q 2819 4750 3233 4129 
Q 3647 3509 3647 2328 
Q 3647 1150 3233 529 
Q 2819 -91 2034 -91 
Q 1250 -91 836 529 
Q 422 1150 422 2328 
Q 422 3509 836 4129 
Q 1250 4750 2034 4750 
z
" transform="scale(0.015625)"/>
       </defs>
       <use xlink:href="#DejaVuSans-30"/>
      </g>
     </g>
    </g>
    <g id="xtick_2">
     <g id="line2d_2">
      <g>
       <use xlink:href="#m671105ae02" x="111.490909" y="252" style="stroke: #000000; stroke-width: 0.8"/>
      </g>
     </g>
     <g id="text_2">
      <!-- 2000 -->
      <g transform="translate(98.765909 266.598437) scale(0.1 -0.1)">
       <defs>
        <path id="DejaVuSans-32" d="M 1228 531 
L 3431 531 
L 3431 0 
L 469 0 
L 469 531 
Q 828 903 1448 1529 
Q 2069 2156 2228 2338 
Q 2531 2678 2651 2914 
Q 2772 3150 2772 3378 
Q 2772 3750 2511 3984 
Q 2250 4219 1831 4219 
Q 1534 4219 1204 4116 
Q 875 4013 500 3803 
L 500 4441 
Q 881 4594 1212 4672 
Q 1544 4750 1819 4750 
Q 2544 4750 2975 4387 
Q 3406 4025 3406 3419 
Q 3406 3131 3298 2873 
Q 3191 2616 2906 2266 
Q 2828 2175 2409 1742 
Q 1991 1309 1228 531 
z
" transform="scale(0.015625)"/>
       </defs>
       <use xlink:href="#DejaVuSans-32"/>
       <use xlink:href="#DejaVuSans-30" x="63.623047"/>
       <use xlink:href="#DejaVuSans-30" x="127.246094"/>
       <use xlink:href="#DejaVuSans-30" x="190.869141"/>
      </g>
     </g>
    </g>
    <g id="xtick_3">
     <g id="line2d_3">
      <g>
       <use xlink:href="#m671105ae02" x="153.763636" y="252" style="stroke: #000000; stroke-width: 0.8"/>
      </g>
     </g>
     <g id="text_3">
      <!-- 4000 -->
      <g transform="translate(141.038636 266.598437) scale(0.1 -0.1)">
       <defs>
        <path id="DejaVuSans-34" d="M 2419 4116 
L 825 1625 
L 2419 1625 
L 2419 4116 
z
M 2253 4666 
L 3047 4666 
L 3047 1625 
L 3713 1625 
L 3713 1100 
L 3047 1100 
L 3047 0 
L 2419 0 
L 2419 1100 
L 313 1100 
L 313 1709 
L 2253 4666 
z
" transform="scale(0.015625)"/>
       </defs>
       <use xlink:href="#DejaVuSans-34"/>
       <use xlink:href="#DejaVuSans-30" x="63.623047"/>
       <use xlink:href="#DejaVuSans-30" x="127.246094"/>
       <use xlink:href="#DejaVuSans-30" x="190.869141"/>
      </g>
     </g>
    </g>
    <g id="xtick_4">
     <g id="line2d_4">
      <g>
       <use xlink:href="#m671105ae02" x="196.036364" y="252" style="stroke: #000000; stroke-width: 0.8"/>
      </g>
     </g>
     <g id="text_4">
      <!-- 6000 -->
      <g transform="translate(183.311364 266.598437) scale(0.1 -0.1)">
       <defs>
        <path id="DejaVuSans-36" d="M 2113 2584 
Q 1688 2584 1439 2293 
Q 1191 2003 1191 1497 
Q 1191 994 1439 701 
Q 1688 409 2113 409 
Q 2538 409 2786 701 
Q 3034 994 3034 1497 
Q 3034 2003 2786 2293 
Q 2538 2584 2113 2584 
z
M 3366 4563 
L 3366 3988 
Q 3128 4100 2886 4159 
Q 2644 4219 2406 4219 
Q 1781 4219 1451 3797 
Q 1122 3375 1075 2522 
Q 1259 2794 1537 2939 
Q 1816 3084 2150 3084 
Q 2853 3084 3261 2657 
Q 3669 2231 3669 1497 
Q 3669 778 3244 343 
Q 2819 -91 2113 -91 
Q 1303 -91 875 529 
Q 447 1150 447 2328 
Q 447 3434 972 4092 
Q 1497 4750 2381 4750 
Q 2619 4750 2861 4703 
Q 3103 4656 3366 4563 
z
" transform="scale(0.015625)"/>
       </defs>
       <use xlink:href="#DejaVuSans-36"/>
       <use xlink:href="#DejaVuSans-30" x="63.623047"/>
       <use xlink:href="#DejaVuSans-30" x="127.246094"/>
       <use xlink:href="#DejaVuSans-30" x="190.869141"/>
      </g>
     </g>
    </g>
    <g id="xtick_5">
     <g id="line2d_5">
      <g>
       <use xlink:href="#m671105ae02" x="238.309091" y="252" style="stroke: #000000; stroke-width: 0.8"/>
      </g>
     </g>
     <g id="text_5">
      <!-- 8000 -->
      <g transform="translate(225.584091 266.598437) scale(0.1 -0.1)">
       <defs>
        <path id="DejaVuSans-38" d="M 2034 2216 
Q 1584 2216 1326 1975 
Q 1069 1734 1069 1313 
Q 1069 891 1326 650 
Q 1584 409 2034 409 
Q 2484 409 2743 651 
Q 3003 894 3003 1313 
Q 3003 1734 2745 1975 
Q 2488 2216 2034 2216 
z
M 1403 2484 
Q 997 2584 770 2862 
Q 544 3141 544 3541 
Q 544 4100 942 4425 
Q 1341 4750 2034 4750 
Q 2731 4750 3128 4425 
Q 3525 4100 3525 3541 
Q 3525 3141 3298 2862 
Q 3072 2584 2669 2484 
Q 3125 2378 3379 2068 
Q 3634 1759 3634 1313 
Q 3634 634 3220 271 
Q 2806 -91 2034 -91 
Q 1263 -91 848 271 
Q 434 634 434 1313 
Q 434 1759 690 2068 
Q 947 2378 1403 2484 
z
M 1172 3481 
Q 1172 3119 1398 2916 
Q 1625 2713 2034 2713 
Q 2441 2713 2670 2916 
Q 2900 3119 2900 3481 
Q 2900 3844 2670 4047 
Q 2441 4250 2034 4250 
Q 1625 4250 1398 4047 
Q 1172 3844 1172 3481 
z
" transform="scale(0.015625)"/>
       </defs>
       <use xlink:href="#DejaVuSans-38"/>
       <use xlink:href="#DejaVuSans-30" x="63.623047"/>
       <use xlink:href="#DejaVuSans-30" x="127.246094"/>
       <use xlink:href="#DejaVuSans-30" x="190.869141"/>
      </g>
     </g>
    </g>
    <g id="xtick_6">
     <g id="line2d_6">
      <g>
       <use xlink:href="#m671105ae02" x="280.581818" y="252" style="stroke: #000000; stroke-width: 0.8"/>
      </g>
     </g>
     <g id="text_6">
      <!-- 10000 -->
      <g transform="translate(264.675568 266.598437) scale(0.1 -0.1)">
       <defs>
        <path id="DejaVuSans-31" d="M 794 531 
L 1825 531 
L 1825 4091 
L 703 3866 
L 703 4441 
L 1819 4666 
L 2450 4666 
L 2450 531 
L 3481 531 
L 3481 0 
L 794 0 
L 794 531 
z
" transform="scale(0.015625)"/>
       </defs>
       <use xlink:href="#DejaVuSans-31"/>
       <use xlink:href="#DejaVuSans-30" x="63.623047"/>
       <use xlink:href="#DejaVuSans-30" x="127.246094"/>
       <use xlink:href="#DejaVuSans-30" x="190.869141"/>
       <use xlink:href="#DejaVuSans-30" x="254.492188"/>
      </g>
     </g>
    </g>
    <g id="xtick_7">
     <g id="line2d_7">
      <g>
       <use xlink:href="#m671105ae02" x="322.854545" y="252" style="stroke: #000000; stroke-width: 0.8"/>
      </g>
     </g>
     <g id="text_7">
      <!-- 12000 -->
      <g transform="translate(306.948295 266.598437) scale(0.1 -0.1)">
       <use xlink:href="#DejaVuSans-31"/>
       <use xlink:href="#DejaVuSans-32" x="63.623047"/>
       <use xlink:href="#DejaVuSans-30" x="127.246094"/>
       <use xlink:href="#DejaVuSans-30" x="190.869141"/>
       <use xlink:href="#DejaVuSans-30" x="254.492188"/>
      </g>
     </g>
    </g>
    <g id="xtick_8">
     <g id="line2d_8">
      <g>
       <use xlink:href="#m671105ae02" x="365.127273" y="252" style="stroke: #000000; stroke-width: 0.8"/>
      </g>
     </g>
     <g id="text_8">
      <!-- 14000 -->
      <g transform="translate(349.221023 266.598437) scale(0.1 -0.1)">
       <use xlink:href="#DejaVuSans-31"/>
       <use xlink:href="#DejaVuSans-34" x="63.623047"/>
       <use xlink:href="#DejaVuSans-30" x="127.246094"/>
       <use xlink:href="#DejaVuSans-30" x="190.869141"/>
       <use xlink:href="#DejaVuSans-30" x="254.492188"/>
      </g>
     </g>
    </g>
    <g id="text_9">
     <!-- Time / s -->
     <g transform="translate(201.699219 280.276563) scale(0.1 -0.1)">
      <defs>
       <path id="DejaVuSans-54" d="M -19 4666 
L 3928 4666 
L 3928 4134 
L 2272 4134 
L 2272 0 
L 1638 0 
L 1638 4134 
L -19 4134 
L -19 4666 
z
" transform="scale(0.015625)"/>
       <path id="DejaVuSans-69" d="M 603 3500 
L 1178 3500 
L 1178 0 
L 603 0 
L 603 3500 
z
M 603 4863 
L 1178 4863 
L 1178 4134 
L 603 4134 
L 603 4863 
z
" transform="scale(0.015625)"/>
       <path id="DejaVuSans-6d" d="M 3328 2828 
Q 3544 3216 3844 3400 
Q 4144 3584 4550 3584 
Q 5097 3584 5394 3201 
Q 5691 2819 5691 2113 
L 5691 0 
L 5113 0 
L 5113 2094 
Q 5113 2597 4934 2840 
Q 4756 3084 4391 3084 
Q 3944 3084 3684 2787 
Q 3425 2491 3425 1978 
L 3425 0 
L 2847 0 
L 2847 2094 
Q 2847 2600 2669 2842 
Q 2491 3084 2119 3084 
Q 1678 3084 1418 2786 
Q 1159 2488 1159 1978 
L 1159 0 
L 581 0 
L 581 3500 
L 1159 3500 
L 1159 2956 
Q 1356 3278 1631 3431 
Q 1906 3584 2284 3584 
Q 2666 3584 2933 3390 
Q 3200 3197 3328 2828 
z
" transform="scale(0.015625)"/>
       <path id="DejaVuSans-65" d="M 3597 1894 
L 3597 1613 
L 953 1613 
Q 991 1019 1311 708 
Q 1631 397 2203 397 
Q 2534 397 2845 478 
Q 3156 559 3463 722 
L 3463 178 
Q 3153 47 2828 -22 
Q 2503 -91 2169 -91 
Q 1331 -91 842 396 
Q 353 884 353 1716 
Q 353 2575 817 3079 
Q 1281 3584 2069 3584 
Q 2775 3584 3186 3129 
Q 3597 2675 3597 1894 
z
M 3022 2063 
Q 3016 2534 2758 2815 
Q 2500 3097 2075 3097 
Q 1594 3097 1305 2825 
Q 1016 2553 972 2059 
L 3022 2063 
z
" transform="scale(0.015625)"/>
       <path id="DejaVuSans-20" transform="scale(0.015625)"/>
       <path id="DejaVuSans-2f" d="M 1625 4666 
L 2156 4666 
L 531 -594 
L 0 -594 
L 1625 4666 
z
" transform="scale(0.015625)"/>
       <path id="DejaVuSans-73" d="M 2834 3397 
L 2834 2853 
Q 2591 2978 2328 3040 
Q 2066 3103 1784 3103 
Q 1356 3103 1142 2972 
Q 928 2841 928 2578 
Q 928 2378 1081 2264 
Q 1234 2150 1697 2047 
L 1894 2003 
Q 2506 1872 2764 1633 
Q 3022 1394 3022 966 
Q 3022 478 2636 193 
Q 2250 -91 1575 -91 
Q 1294 -91 989 -36 
Q 684 19 347 128 
L 347 722 
Q 666 556 975 473 
Q 1284 391 1588 391 
Q 1994 391 2212 530 
Q 2431 669 2431 922 
Q 2431 1156 2273 1281 
Q 2116 1406 1581 1522 
L 1381 1569 
Q 847 1681 609 1914 
Q 372 2147 372 2553 
Q 372 3047 722 3315 
Q 1072 3584 1716 3584 
Q 2034 3584 2315 3537 
Q 2597 3491 2834 3397 
z
" transform="scale(0.015625)"/>
      </defs>
      <use xlink:href="#DejaVuSans-54"/>
      <use xlink:href="#DejaVuSans-69" x="57.958984"/>
      <use xlink:href="#DejaVuSans-6d" x="85.742188"/>
      <use xlink:href="#DejaVuSans-65" x="183.154297"/>
      <use xlink:href="#DejaVuSans-20" x="244.677734"/>
      <use xlink:href="#DejaVuSans-2f" x="276.464844"/>
      <use xlink:href="#DejaVuSans-20" x="310.15625"/>
      <use xlink:href="#DejaVuSans-73" x="341.943359"/>
     </g>
    </g>
   </g>
   <g id="matplotlib.axis_2">
    <g id="ytick_1">
     <g id="line2d_9">
      <defs>
       <path id="m3d0049b651" d="M 0 0 
L -3.5 0 
" style="stroke: #000000; stroke-width: 0.8"/>
      </defs>
      <g>
       <use xlink:href="#m3d0049b651" x="54" y="242.116364" style="stroke: #000000; stroke-width: 0.8"/>
      </g>
     </g>
     <g id="text_10">
      <!-- 0.0 -->
      <g transform="translate(31.096875 245.915582) scale(0.1 -0.1)">
       <defs>
        <path id="DejaVuSans-2e" d="M 684 794 
L 1344 794 
L 1344 0 
L 684 0 
L 684 794 
z
" transform="scale(0.015625)"/>
       </defs>
       <use xlink:href="#DejaVuSans-30"/>
       <use xlink:href="#DejaVuSans-2e" x="63.623047"/>
       <use xlink:href="#DejaVuSans-30" x="95.410156"/>
      </g>
     </g>
    </g>
    <g id="ytick_2">
     <g id="line2d_10">
      <g>
       <use xlink:href="#m3d0049b651" x="54" y="211.537357" style="stroke: #000000; stroke-width: 0.8"/>
      </g>
     </g>
     <g id="text_11">
      <!-- 0.1 -->
      <g transform="translate(31.096875 215.336576) scale(0.1 -0.1)">
       <use xlink:href="#DejaVuSans-30"/>
       <use xlink:href="#DejaVuSans-2e" x="63.623047"/>
       <use xlink:href="#DejaVuSans-31" x="95.410156"/>
      </g>
     </g>
    </g>
    <g id="ytick_3">
     <g id="line2d_11">
      <g>
       <use xlink:href="#m3d0049b651" x="54" y="180.958351" style="stroke: #000000; stroke-width: 0.8"/>
      </g>
     </g>
     <g id="text_12">
      <!-- 0.2 -->
      <g transform="translate(31.096875 184.75757) scale(0.1 -0.1)">
       <use xlink:href="#DejaVuSans-30"/>
       <use xlink:href="#DejaVuSans-2e" x="63.623047"/>
       <use xlink:href="#DejaVuSans-32" x="95.410156"/>
      </g>
     </g>
    </g>
    <g id="ytick_4">
     <g id="line2d_12">
      <g>
       <use xlink:href="#m3d0049b651" x="54" y="150.379345" style="stroke: #000000; stroke-width: 0.8"/>
      </g>
     </g>
     <g id="text_13">
      <!-- 0.3 -->
      <g transform="translate(31.096875 154.178564) scale(0.1 -0.1)">
       <defs>
        <path id="DejaVuSans-33" d="M 2597 2516 
Q 3050 2419 3304 2112 
Q 3559 1806 3559 1356 
Q 3559 666 3084 287 
Q 2609 -91 1734 -91 
Q 1441 -91 1130 -33 
Q 819 25 488 141 
L 488 750 
Q 750 597 1062 519 
Q 1375 441 1716 441 
Q 2309 441 2620 675 
Q 2931 909 2931 1356 
Q 2931 1769 2642 2001 
Q 2353 2234 1838 2234 
L 1294 2234 
L 1294 2753 
L 1863 2753 
Q 2328 2753 2575 2939 
Q 2822 3125 2822 3475 
Q 2822 3834 2567 4026 
Q 2313 4219 1838 4219 
Q 1578 4219 1281 4162 
Q 984 4106 628 3988 
L 628 4550 
Q 988 4650 1302 4700 
Q 1616 4750 1894 4750 
Q 2613 4750 3031 4423 
Q 3450 4097 3450 3541 
Q 3450 3153 3228 2886 
Q 3006 2619 2597 2516 
z
" transform="scale(0.015625)"/>
       </defs>
       <use xlink:href="#DejaVuSans-30"/>
       <use xlink:href="#DejaVuSans-2e" x="63.623047"/>
       <use xlink:href="#DejaVuSans-33" x="95.410156"/>
      </g>
     </g>
    </g>
    <g id="ytick_5">
     <g id="line2d_13">
      <g>
       <use xlink:href="#m3d0049b651" x="54" y="119.800339" style="stroke: #000000; stroke-width: 0.8"/>
      </g>
     </g>
     <g id="text_14">
      <!-- 0.4 -->
      <g transform="translate(31.096875 123.599557) scale(0.1 -0.1)">
       <use xlink:href="#DejaVuSans-30"/>
       <use xlink:href="#DejaVuSans-2e" x="63.623047"/>
       <use xlink:href="#DejaVuSans-34" x="95.410156"/>
      </g>
     </g>
    </g>
    <g id="ytick_6">
     <g id="line2d_14">
      <g>
       <use xlink:href="#m3d0049b651" x="54" y="89.221332" style="stroke: #000000; stroke-width: 0.8"/>
      </g>
     </g>
     <g id="text_15">
      <!-- 0.5 -->
      <g transform="translate(31.096875 93.020551) scale(0.1 -0.1)">
       <defs>
        <path id="DejaVuSans-35" d="M 691 4666 
L 3169 4666 
L 3169 4134 
L 1269 4134 
L 1269 2991 
Q 1406 3038 1543 3061 
Q 1681 3084 1819 3084 
Q 2600 3084 3056 2656 
Q 3513 2228 3513 1497 
Q 3513 744 3044 326 
Q 2575 -91 1722 -91 
Q 1428 -91 1123 -41 
Q 819 9 494 109 
L 494 744 
Q 775 591 1075 516 
Q 1375 441 1709 441 
Q 2250 441 2565 725 
Q 2881 1009 2881 1497 
Q 2881 1984 2565 2268 
Q 2250 2553 1709 2553 
Q 1456 2553 1204 2497 
Q 953 2441 691 2322 
L 691 4666 
z
" transform="scale(0.015625)"/>
       </defs>
       <use xlink:href="#DejaVuSans-30"/>
       <use xlink:href="#DejaVuSans-2e" x="63.623047"/>
       <use xlink:href="#DejaVuSans-35" x="95.410156"/>
      </g>
     </g>
    </g>
    <g id="ytick_7">
     <g id="line2d_15">
      <g>
       <use xlink:href="#m3d0049b651" x="54" y="58.642326" style="stroke: #000000; stroke-width: 0.8"/>
      </g>
     </g>
     <g id="text_16">
      <!-- 0.6 -->
      <g transform="translate(31.096875 62.441545) scale(0.1 -0.1)">
       <use xlink:href="#DejaVuSans-30"/>
       <use xlink:href="#DejaVuSans-2e" x="63.623047"/>
       <use xlink:href="#DejaVuSans-36" x="95.410156"/>
      </g>
     </g>
    </g>
    <g id="text_17">
     <!-- Concentration / mM -->
     <g transform="translate(25.017187 192.697969) rotate(-90) scale(0.1 -0.1)">
      <defs>
       <path id="DejaVuSans-43" d="M 4122 4306 
L 4122 3641 
Q 3803 3938 3442 4084 
Q 3081 4231 2675 4231 
Q 1875 4231 1450 3742 
Q 1025 3253 1025 2328 
Q 1025 1406 1450 917 
Q 1875 428 2675 428 
Q 3081 428 3442 575 
Q 3803 722 4122 1019 
L 4122 359 
Q 3791 134 3420 21 
Q 3050 -91 2638 -91 
Q 1578 -91 968 557 
Q 359 1206 359 2328 
Q 359 3453 968 4101 
Q 1578 4750 2638 4750 
Q 3056 4750 3426 4639 
Q 3797 4528 4122 4306 
z
" transform="scale(0.015625)"/>
       <path id="DejaVuSans-6f" d="M 1959 3097 
Q 1497 3097 1228 2736 
Q 959 2375 959 1747 
Q 959 1119 1226 758 
Q 1494 397 1959 397 
Q 2419 397 2687 759 
Q 2956 1122 2956 1747 
Q 2956 2369 2687 2733 
Q 2419 3097 1959 3097 
z
M 1959 3584 
Q 2709 3584 3137 3096 
Q 3566 2609 3566 1747 
Q 3566 888 3137 398 
Q 2709 -91 1959 -91 
Q 1206 -91 779 398 
Q 353 888 353 1747 
Q 353 2609 779 3096 
Q 1206 3584 1959 3584 
z
" transform="scale(0.015625)"/>
       <path id="DejaVuSans-6e" d="M 3513 2113 
L 3513 0 
L 2938 0 
L 2938 2094 
Q 2938 2591 2744 2837 
Q 2550 3084 2163 3084 
Q 1697 3084 1428 2787 
Q 1159 2491 1159 1978 
L 1159 0 
L 581 0 
L 581 3500 
L 1159 3500 
L 1159 2956 
Q 1366 3272 1645 3428 
Q 1925 3584 2291 3584 
Q 2894 3584 3203 3211 
Q 3513 2838 3513 2113 
z
" transform="scale(0.015625)"/>
       <path id="DejaVuSans-63" d="M 3122 3366 
L 3122 2828 
Q 2878 2963 2633 3030 
Q 2388 3097 2138 3097 
Q 1578 3097 1268 2742 
Q 959 2388 959 1747 
Q 959 1106 1268 751 
Q 1578 397 2138 397 
Q 2388 397 2633 464 
Q 2878 531 3122 666 
L 3122 134 
Q 2881 22 2623 -34 
Q 2366 -91 2075 -91 
Q 1284 -91 818 406 
Q 353 903 353 1747 
Q 353 2603 823 3093 
Q 1294 3584 2113 3584 
Q 2378 3584 2631 3529 
Q 2884 3475 3122 3366 
z
" transform="scale(0.015625)"/>
       <path id="DejaVuSans-74" d="M 1172 4494 
L 1172 3500 
L 2356 3500 
L 2356 3053 
L 1172 3053 
L 1172 1153 
Q 1172 725 1289 603 
Q 1406 481 1766 481 
L 2356 481 
L 2356 0 
L 1766 0 
Q 1100 0 847 248 
Q 594 497 594 1153 
L 594 3053 
L 172 3053 
L 172 3500 
L 594 3500 
L 594 4494 
L 1172 4494 
z
" transform="scale(0.015625)"/>
       <path id="DejaVuSans-72" d="M 2631 2963 
Q 2534 3019 2420 3045 
Q 2306 3072 2169 3072 
Q 1681 3072 1420 2755 
Q 1159 2438 1159 1844 
L 1159 0 
L 581 0 
L 581 3500 
L 1159 3500 
L 1159 2956 
Q 1341 3275 1631 3429 
Q 1922 3584 2338 3584 
Q 2397 3584 2469 3576 
Q 2541 3569 2628 3553 
L 2631 2963 
z
" transform="scale(0.015625)"/>
       <path id="DejaVuSans-61" d="M 2194 1759 
Q 1497 1759 1228 1600 
Q 959 1441 959 1056 
Q 959 750 1161 570 
Q 1363 391 1709 391 
Q 2188 391 2477 730 
Q 2766 1069 2766 1631 
L 2766 1759 
L 2194 1759 
z
M 3341 1997 
L 3341 0 
L 2766 0 
L 2766 531 
Q 2569 213 2275 61 
Q 1981 -91 1556 -91 
Q 1019 -91 701 211 
Q 384 513 384 1019 
Q 384 1609 779 1909 
Q 1175 2209 1959 2209 
L 2766 2209 
L 2766 2266 
Q 2766 2663 2505 2880 
Q 2244 3097 1772 3097 
Q 1472 3097 1187 3025 
Q 903 2953 641 2809 
L 641 3341 
Q 956 3463 1253 3523 
Q 1550 3584 1831 3584 
Q 2591 3584 2966 3190 
Q 3341 2797 3341 1997 
z
" transform="scale(0.015625)"/>
       <path id="DejaVuSans-4d" d="M 628 4666 
L 1569 4666 
L 2759 1491 
L 3956 4666 
L 4897 4666 
L 4897 0 
L 4281 0 
L 4281 4097 
L 3078 897 
L 2444 897 
L 1241 4097 
L 1241 0 
L 628 0 
L 628 4666 
z
" transform="scale(0.015625)"/>
      </defs>
      <use xlink:href="#DejaVuSans-43"/>
      <use xlink:href="#DejaVuSans-6f" x="69.824219"/>
      <use xlink:href="#DejaVuSans-6e" x="131.005859"/>
      <use xlink:href="#DejaVuSans-63" x="194.384766"/>
      <use xlink:href="#DejaVuSans-65" x="249.365234"/>
      <use xlink:href="#DejaVuSans-6e" x="310.888672"/>
      <use xlink:href="#DejaVuSans-74" x="374.267578"/>
      <use xlink:href="#DejaVuSans-72" x="413.476562"/>
      <use xlink:href="#DejaVuSans-61" x="454.589844"/>
      <use xlink:href="#DejaVuSans-74" x="515.869141"/>
      <use xlink:href="#DejaVuSans-69" x="555.078125"/>
      <use xlink:href="#DejaVuSans-6f" x="582.861328"/>
      <use xlink:href="#DejaVuSans-6e" x="644.042969"/>
      <use xlink:href="#DejaVuSans-20" x="707.421875"/>
      <use xlink:href="#DejaVuSans-2f" x="739.208984"/>
      <use xlink:href="#DejaVuSans-20" x="772.900391"/>
      <use xlink:href="#DejaVuSans-6d" x="804.6875"/>
      <use xlink:href="#DejaVuSans-4d" x="902.099609"/>
     </g>
    </g>
   </g>
   <g id="line2d_16">
    <path d="M 69.218182 242.116364 
L 70.410273 242.006018 
L 70.7865 241.703782 
L 71.150045 241.101479 
L 71.543182 239.976622 
L 71.980705 237.986982 
L 72.475295 234.611214 
L 73.022727 229.290751 
L 73.062886 242.116354 
L 73.13475 242.116334 
L 74.071091 242.005033 
L 74.405045 241.704822 
L 74.734773 241.075586 
L 75.102545 239.839 
L 75.523159 237.568861 
L 75.986045 233.74885 
L 76.491205 227.570573 
L 76.827273 222.115803 
L 76.829386 242.116351 
L 76.939295 242.116295 
L 77.816455 242.005144 
L 78.139841 241.704085 
L 78.456886 241.068169 
L 78.80775 239.810237 
L 79.207227 237.469242 
L 79.646864 233.465475 
L 80.124545 226.904902 
L 80.631818 216.880299 
L 80.633932 242.116345 
L 80.743841 242.116269 
L 81.585068 242.004997 
L 81.9 241.704581 
L 82.208591 241.065729 
L 82.548886 239.793177 
L 82.935682 237.397454 
L 83.36475 233.217726 
L 83.82975 226.318938 
L 84.347591 215.049748 
L 84.436364 212.700032 
L 84.438477 204.866112 
L 84.548386 207.2043 
L 85.002818 211.937409 
L 85.571386 216.309707 
L 86.063864 218.384945 
L 86.374568 218.957315 
L 86.543659 218.929049 
L 86.716977 218.603469 
L 86.951591 217.609872 
L 87.253841 215.229149 
L 87.625841 210.327091 
L 88.078159 201.124448 
L 88.240909 196.900913 
L 88.243023 177.500005 
L 88.352932 180.375613 
L 88.896136 187.950082 
L 89.384386 192.829053 
L 89.885318 195.537471 
L 90.208705 196.356068 
L 90.373568 196.364119 
L 90.527864 196.071427 
L 90.745568 195.0873 
L 91.030909 192.617715 
L 91.394455 187.289884 
L 91.855227 176.911399 
L 92.045455 171.477557 
L 92.047568 158.844317 
L 92.157477 162.048859 
L 92.719705 171.036076 
L 93.159341 175.814002 
L 93.565159 177.899589 
L 93.858955 178.52937 
L 94.002682 178.482746 
L 94.163318 178.104731 
L 94.391591 176.898403 
L 94.685386 173.990013 
L 95.055273 167.829506 
L 95.535068 155.673136 
L 95.85 145.466337 
L 95.902841 147.950479 
L 96.205091 153.970037 
L 96.856091 163.351894 
L 97.185818 165.160824 
L 97.456364 165.670233 
L 97.591636 165.599548 
L 97.754386 165.167695 
L 97.989 163.79857 
L 98.293364 160.534879 
L 98.665364 153.87903 
L 99.143045 140.85341 
L 99.654545 122.529011 
L 99.766568 140.709559 
L 100.294977 150.639787 
L 100.694455 155.403065 
L 100.969227 156.501731 
L 101.142545 156.604405 
L 101.151 156.599043 
L 101.288386 156.366413 
L 101.484955 155.505302 
L 101.7555 153.171178 
L 102.102136 148.021705 
L 102.52275 138.085423 
L 103.089205 118.722481 
L 103.459091 103.744308 
L 103.571114 134.377668 
L 104.078386 144.426089 
L 104.469409 149.253881 
L 104.716705 150.147545 
L 104.837182 150.150079 
L 104.854091 150.131493 
L 105.002045 149.770885 
L 105.217636 148.555106 
L 105.507205 145.461853 
L 105.879205 138.821789 
L 106.331523 126.345761 
L 106.978295 101.393773 
L 107.263636 89.102114 
L 107.375659 129.586078 
L 107.866023 139.745704 
L 108.252818 144.663213 
L 108.481091 145.435304 
L 108.593114 145.372343 
L 108.745295 144.908729 
L 108.973568 143.379455 
L 109.275818 139.631797 
L 109.666841 131.684134 
L 110.146636 116.925612 
L 110.896977 85.62337 
L 111.068182 78.037694 
L 111.180205 125.788115 
L 111.657886 136.077875 
L 112.042568 141.09825 
L 112.260273 141.802171 
L 112.359614 141.711448 
L 112.516023 141.14709 
L 112.75275 139.328373 
L 113.065568 134.967059 
L 113.471386 125.842432 
L 113.976545 108.957459 
L 114.872727 69.792083 
L 114.98475 122.710233 
L 115.451864 133.108931 
L 115.834432 138.23751 
L 116.047909 138.916434 
L 116.143023 138.801634 
L 116.303659 138.137965 
L 116.548841 136.029531 
L 116.872227 131.058658 
L 117.292841 120.777391 
L 117.823364 101.805723 
L 118.677273 63.645936 
L 118.789295 120.21981 
L 119.250068 130.743912 
L 119.630523 135.941068 
L 119.839773 136.600446 
L 119.930659 136.474709 
L 120.091295 135.760905 
L 120.338591 133.501815 
L 120.666205 128.198187 
L 121.095273 117.229407 
L 121.642705 96.94099 
L 122.481818 59.031849 
L 122.593841 118.229394 
L 123.050386 128.862557 
L 123.430841 134.117582 
L 123.631636 134.749912 
L 123.635864 134.748908 
L 123.72675 134.60537 
L 123.891614 133.809883 
L 124.14525 131.323715 
L 124.481318 125.540143 
L 124.923068 113.645886 
L 125.49375 91.621166 
L 126.286364 55.540946 
L 126.398386 116.661126 
L 126.850705 127.356074 
L 127.229045 132.652652 
L 127.425614 133.286046 
L 127.431955 133.284477 
L 127.522841 133.132404 
L 127.687705 132.302584 
L 127.943455 129.704477 
L 128.281636 123.706799 
L 128.727614 111.404372 
L 129.310977 88.484069 
L 130.090909 52.885879 
L 130.202932 115.440641 
L 130.651023 126.160092 
L 131.029364 131.510935 
L 131.221705 132.140633 
L 131.232273 132.137642 
L 131.323159 131.973002 
L 131.49225 131.07595 
L 131.752227 128.312156 
L 132.09675 121.960104 
L 132.553295 108.944499 
L 133.155682 84.685052 
L 133.895455 50.861809 
L 134.007477 114.499753 
L 134.453455 125.257827 
L 134.831795 130.634269 
L 135.022023 131.252652 
L 135.032591 131.249148 
L 135.123477 131.077248 
L 135.292568 130.155326 
L 135.554659 127.30425 
L 135.901295 120.786019 
L 136.362068 107.438198 
L 136.975023 82.470595 
L 137.7 49.318451 
L 137.812023 113.779307 
L 138.258 124.597881 
L 138.634227 129.956772 
L 138.822341 130.569799 
L 138.832909 130.566233 
L 138.923795 130.391379 
L 139.092886 129.454483 
L 139.354977 126.565246 
L 139.703727 119.930365 
L 140.166614 106.389276 
L 140.788023 80.900148 
L 141.504545 48.142763 
L 141.616568 113.230188 
L 142.060432 124.05134 
L 142.436659 129.435248 
L 142.622659 130.04765 
L 142.635341 130.043288 
L 142.726227 129.863033 
L 142.895318 128.909575 
L 143.157409 125.983395 
L 143.506159 119.286596 
L 143.971159 105.585517 
L 144.596795 79.800828 
L 145.309091 47.248411 
L 145.421114 112.812895 
L 145.864977 123.667992 
L 146.241205 129.049198 
L 146.425091 129.64966 
L 146.437773 129.645104 
L 146.528659 129.46209 
L 146.699864 128.481368 
L 146.964068 125.48471 
L 147.314932 118.655361 
L 147.784159 104.673876 
L 148.41825 78.333067 
L 149.113636 46.569029 
L 149.225659 112.496351 
L 149.667409 123.334039 
L 150.043636 128.741168 
L 150.227523 129.347283 
L 150.242318 129.341521 
L 150.333205 129.151831 
L 150.504409 128.155564 
L 150.770727 125.096979 
L 151.123705 118.148816 
L 151.595045 103.980295 
L 152.237591 77.124802 
L 152.918182 46.053567 
L 153.030205 112.256475 
L 153.471955 123.11338 
L 153.848182 128.518659 
L 154.029955 129.11793 
L 154.04475 129.112484 
L 154.135636 128.923701 
L 154.306841 127.925302 
L 154.573159 124.857993 
L 154.926136 117.892918 
L 155.397477 103.699415 
L 156.042136 76.725345 
L 156.722727 45.662832 
L 156.83475 112.074786 
L 157.2765 122.946204 
L 157.652727 128.349999 
L 157.8345 128.943874 
L 157.849295 128.93786 
L 157.940182 128.745196 
L 158.111386 127.737768 
L 158.377705 124.652712 
L 158.732795 117.608047 
L 159.20625 103.277936 
L 159.855136 76.031241 
L 160.527273 45.366829 
L 160.639295 111.937194 
L 161.081045 122.819587 
L 161.457273 128.222218 
L 161.639045 128.811981 
L 161.653841 128.805536 
L 161.746841 128.602345 
L 161.922273 127.54317 
L 162.190705 124.36813 
L 162.547909 117.170137 
L 163.025591 102.539431 
L 163.685045 74.625082 
L 164.331818 45.142678 
L 164.443841 111.832997 
L 164.883477 122.680549 
L 165.259705 128.110731 
L 165.441477 128.712419 
L 165.456273 128.706717 
L 165.547159 128.514929 
L 165.718364 127.505255 
L 165.984682 124.411191 
L 166.339773 117.349056 
L 166.813227 102.993345 
L 167.462114 75.725508 
L 168.136364 44.97297 
L 168.248386 111.754084 
L 168.688023 122.607914 
L 169.06425 128.037438 
L 169.246023 128.63677 
L 169.260818 128.63082 
L 169.351705 128.437338 
L 169.522909 127.423723 
L 169.789227 124.321917 
L 170.144318 117.247568 
L 170.617773 102.875687 
L 171.268773 75.495848 
L 171.940909 44.844489 
L 172.052932 111.694313 
L 172.492568 122.552899 
L 172.868795 127.981922 
L 173.050568 128.579466 
L 173.065364 128.573329 
L 173.15625 128.378562 
L 173.329568 127.344538 
L 173.598 124.189871 
L 173.955205 117.014063 
L 174.432886 102.405551 
L 175.092341 74.513474 
L 175.745455 44.747218 
L 175.857477 111.649036 
L 176.297114 122.511225 
L 176.673341 127.939868 
L 176.855114 128.536058 
L 176.869909 128.529778 
L 176.960795 128.334038 
L 177.134114 127.29772 
L 177.402545 124.138562 
L 177.75975 116.955694 
L 178.237432 102.337859 
L 178.896886 74.437812 
L 179.55 44.673569 
L 179.662023 111.614736 
L 180.101659 122.479655 
L 180.477886 127.908009 
L 180.659659 128.503174 
L 180.674455 128.496786 
L 180.765341 128.300308 
L 180.938659 127.262252 
L 181.207091 124.099693 
L 181.564295 116.911478 
L 182.041977 102.286585 
L 182.701432 74.38051 
L 183.354545 44.6178 
L 183.466568 111.588749 
L 183.906205 122.455737 
L 184.282432 127.883873 
L 184.462091 128.478566 
L 184.479 128.471791 
L 184.572 128.267124 
L 184.747432 127.200045 
L 185.017977 123.972445 
L 185.377295 116.667159 
L 185.857091 101.863788 
L 186.525 73.452497 
L 187.159091 44.575566 
L 187.271114 111.569059 
L 187.71075 122.437616 
L 188.086977 127.865587 
L 188.266636 128.459699 
L 188.283545 128.452854 
L 188.376545 128.247753 
L 188.551977 127.17966 
L 188.822523 123.950084 
L 189.181841 116.641707 
L 189.661636 101.834284 
L 190.329545 73.419583 
L 190.963636 44.543579 
L 191.075659 111.554141 
L 191.515295 122.423886 
L 191.891523 127.851732 
L 192.071182 128.445405 
L 192.088091 128.438506 
L 192.181091 128.233076 
L 192.356523 127.164215 
L 192.627068 123.933143 
L 192.986386 116.622424 
L 193.466182 101.811932 
L 194.134091 73.394651 
L 194.768182 44.519351 
L 194.880205 111.542838 
L 195.319841 122.413483 
L 195.696068 127.841234 
L 195.875727 128.434574 
L 195.892636 128.427635 
L 195.985636 128.221955 
L 196.161068 127.152513 
L 196.431614 123.920307 
L 196.790932 116.607815 
L 197.270727 101.794998 
L 197.938636 73.375763 
L 198.572727 44.500998 
L 198.68475 111.534273 
L 199.124386 122.405601 
L 199.500614 127.83328 
L 199.680273 128.426368 
L 199.697182 128.419398 
L 199.790182 128.21353 
L 199.965614 127.143646 
L 200.236159 123.910581 
L 200.595477 116.596746 
L 201.075273 101.782169 
L 201.743182 73.361454 
L 202.377273 44.487094 
L 202.489295 111.527784 
L 202.928932 122.399628 
L 203.305159 127.827253 
L 203.484818 128.42015 
L 203.501727 128.413156 
L 203.594727 128.207146 
L 203.770159 127.136928 
L 204.040705 123.903213 
L 204.400023 116.588359 
L 204.879818 101.772449 
L 205.547727 73.350614 
L 206.181818 44.476561 
L 206.293841 111.522867 
L 206.733477 122.395103 
L 207.109705 127.822687 
L 207.289364 128.415439 
L 207.306273 128.408428 
L 207.399273 128.202309 
L 207.574705 127.131838 
L 207.84525 123.897629 
L 208.204568 116.582005 
L 208.684364 101.765084 
L 209.352273 73.342401 
L 209.986364 44.468582 
L 210.098386 111.519142 
L 210.538023 122.391674 
L 210.91425 127.819227 
L 211.093909 128.411869 
L 211.110818 128.404845 
L 211.203818 128.198644 
L 211.37925 127.127981 
L 211.649795 123.893399 
L 212.009114 116.57719 
L 212.488909 101.759504 
L 213.156818 73.336178 
L 213.790909 44.462536 
L 213.902932 111.516319 
L 214.342568 122.389076 
L 214.718795 127.816605 
L 214.898455 128.409164 
L 214.915364 128.40213 
L 215.008364 128.195867 
L 215.183795 127.125059 
L 215.454341 123.890194 
L 215.813659 116.573543 
L 216.293455 101.755277 
L 216.961364 73.331464 
L 217.595455 44.457956 
L 217.707477 111.514181 
L 218.147114 122.387108 
L 218.523341 127.814619 
L 218.703 128.407115 
L 218.719909 128.400073 
L 218.812909 128.193763 
L 218.988341 127.122845 
L 219.258886 123.887765 
L 219.618205 116.570779 
L 220.098 101.752074 
L 220.765909 73.327892 
L 221.4 44.454486 
L 221.512023 111.51256 
L 221.951659 122.385617 
L 222.327886 127.813114 
L 222.507545 128.405562 
L 222.524455 128.398514 
L 222.617455 128.192168 
L 222.792886 127.121167 
L 223.063432 123.885925 
L 223.42275 116.568685 
L 223.902545 101.749647 
L 224.570455 73.325185 
L 225.204545 44.451856 
L 225.316568 111.511332 
L 225.756205 122.384487 
L 226.132432 127.811974 
L 226.312091 128.404386 
L 226.329 128.397334 
L 226.422 128.190961 
L 226.597432 127.119896 
L 226.867977 123.884531 
L 227.227295 116.567098 
L 227.707091 101.747808 
L 228.375 73.323135 
L 229.009091 44.449864 
L 229.121114 111.510402 
L 229.56075 122.383631 
L 229.936977 127.81111 
L 230.116636 128.403495 
L 230.133545 128.396439 
L 230.226545 128.190045 
L 230.401977 127.118933 
L 230.672523 123.883475 
L 231.031841 116.565896 
L 231.511636 101.746415 
L 232.179545 73.321581 
L 232.813636 44.448355 
L 232.925659 111.509697 
L 233.365295 122.382982 
L 233.741523 127.810455 
L 233.921182 128.402819 
L 233.938091 128.395761 
L 234.031091 128.189352 
L 234.206523 127.118203 
L 234.477068 123.882675 
L 234.836386 116.564985 
L 235.316182 101.745359 
L 235.984091 73.320404 
L 236.618182 44.447211 
L 236.730205 111.509163 
L 237.169841 122.38249 
L 237.546068 127.809959 
L 237.725727 128.402308 
L 237.742636 128.395247 
L 237.835636 128.188827 
L 238.011068 127.117651 
L 238.281614 123.882068 
L 238.640932 116.564295 
L 239.120727 101.744559 
L 239.788636 73.319512 
L 240.422727 44.446345 
L 240.53475 111.508759 
L 240.974386 122.382118 
L 241.350614 127.809584 
L 241.530273 128.40192 
L 241.547182 128.394858 
L 241.640182 128.188429 
L 241.815614 127.117232 
L 242.086159 123.881609 
L 242.445477 116.563772 
L 242.925273 101.743953 
L 243.593182 73.318837 
L 244.227273 44.445689 
L 244.339295 111.508452 
L 244.778932 122.381836 
L 245.155159 127.809299 
L 245.334818 128.401626 
L 245.351727 128.394564 
L 245.444727 128.188127 
L 245.620159 127.116914 
L 245.890705 123.881261 
L 246.250023 116.563376 
L 246.729818 101.743494 
L 247.397727 73.318325 
L 248.031818 44.445191 
L 248.143841 111.50822 
L 248.583477 122.381622 
L 248.959705 127.809083 
L 249.139364 128.401404 
L 249.156273 128.39434 
L 249.249273 128.187898 
L 249.424705 127.116674 
L 249.69525 123.880997 
L 250.054568 116.563076 
L 250.534364 101.743146 
L 251.202273 73.317937 
L 251.836364 44.444814 
L 251.948386 111.508044 
L 252.388023 122.38146 
L 252.76425 127.80892 
L 252.943909 128.401235 
L 252.960818 128.394171 
L 253.053818 128.187725 
L 253.22925 127.116492 
L 253.499795 123.880797 
L 253.859114 116.562848 
L 254.338909 101.742883 
L 255.006818 73.317643 
L 255.640909 44.444529 
L 255.752932 111.507911 
L 256.192568 122.381338 
L 256.568795 127.808796 
L 256.748455 128.401107 
L 256.765364 128.394043 
L 256.858364 128.187594 
L 257.033795 127.116354 
L 257.304341 123.880646 
L 257.663659 116.562676 
L 258.143455 101.742683 
L 258.811364 73.31742 
L 259.445455 44.444313 
L 259.557477 111.50781 
L 259.997114 122.381245 
L 260.373341 127.808702 
L 260.553 128.40101 
L 260.569909 128.393945 
L 260.662909 128.187495 
L 260.838341 127.116249 
L 261.108886 123.880531 
L 261.468205 116.562545 
L 261.948 101.742532 
L 262.615909 73.317251 
L 263.25 44.444149 
L 263.362023 111.507733 
L 263.801659 122.381174 
L 264.177886 127.808631 
L 264.357545 128.400937 
L 264.374455 128.393872 
L 264.467455 128.187419 
L 264.642886 127.11617 
L 264.913432 123.880444 
L 265.27275 116.562446 
L 265.752545 101.742417 
L 266.420455 73.317124 
L 267.054545 44.444024 
L 267.166568 111.507675 
L 267.606205 122.381121 
L 267.982432 127.808577 
L 268.162091 128.400881 
L 268.179 128.393816 
L 268.272 128.187362 
L 268.447432 127.11611 
L 268.717977 123.880378 
L 269.077295 116.562371 
L 269.557091 101.74233 
L 270.225 73.317027 
L 270.859091 44.44393 
L 270.971114 111.507631 
L 271.41075 122.38108 
L 271.786977 127.808536 
L 271.966636 128.400839 
L 271.983545 128.393774 
L 272.076545 128.187319 
L 272.251977 127.116064 
L 272.522523 123.880328 
L 272.881841 116.562315 
L 273.361636 101.742265 
L 274.029545 73.316953 
L 274.663636 44.443859 
L 274.775659 111.507598 
L 275.215295 122.38105 
L 275.591523 127.808505 
L 275.771182 128.400807 
L 275.788091 128.393742 
L 275.881091 128.187286 
L 276.056523 127.11603 
L 276.327068 123.880291 
L 276.686386 116.562272 
L 277.166182 101.742215 
L 277.834091 73.316898 
L 278.468182 44.443805 
L 278.580205 111.507573 
L 279.019841 122.381026 
L 279.396068 127.808482 
L 279.575727 128.400783 
L 279.592636 128.393718 
L 279.685636 128.187262 
L 279.861068 127.116004 
L 280.131614 123.880262 
L 280.490932 116.562239 
L 280.970727 101.742177 
L 281.638636 73.316856 
L 282.272727 44.443764 
L 282.38475 111.507554 
L 282.824386 122.381009 
L 283.200614 127.808464 
L 283.380273 128.400765 
L 283.397182 128.393699 
L 283.490182 128.187243 
L 283.665614 127.115984 
L 283.936159 123.88024 
L 284.295477 116.562214 
L 284.775273 101.742148 
L 285.443182 73.316824 
L 286.077273 44.443733 
L 286.189295 111.507539 
L 286.628932 122.380996 
L 287.005159 127.808451 
L 287.184818 128.400751 
L 287.201727 128.393685 
L 287.294727 128.187229 
L 287.470159 127.115969 
L 287.740705 123.880224 
L 288.100023 116.562196 
L 288.579818 101.742127 
L 289.247727 73.3168 
L 289.881818 44.44371 
L 289.993841 111.507528 
L 290.433477 122.380985 
L 290.809705 127.808441 
L 290.989364 128.400741 
L 291.006273 128.393675 
L 291.099273 128.187218 
L 291.274705 127.115958 
L 291.54525 123.880211 
L 291.904568 116.562181 
L 292.384364 101.74211 
L 293.052273 73.316781 
L 293.686364 44.443692 
L 293.798386 111.50752 
L 294.238023 122.380978 
L 294.61425 127.808433 
L 294.793909 128.400733 
L 294.810818 128.393667 
L 294.903818 128.18721 
L 295.07925 127.115949 
L 295.349795 123.880202 
L 295.709114 116.562171 
L 296.188909 101.742098 
L 296.856818 73.316767 
L 297.490909 44.443678 
L 297.602932 111.507514 
L 298.042568 122.380972 
L 298.418795 127.808427 
L 298.598455 128.400727 
L 298.615364 128.393661 
L 298.708364 128.187203 
L 298.883795 127.115943 
L 299.154341 123.880195 
L 299.513659 116.562163 
L 299.993455 101.742088 
L 300.661364 73.316757 
L 301.295455 44.443668 
L 301.407477 111.507509 
L 301.847114 122.380968 
L 302.223341 127.808423 
L 302.403 128.400722 
L 302.419909 128.393656 
L 302.512909 128.187199 
L 302.688341 127.115938 
L 302.958886 123.880189 
L 303.318205 116.562156 
L 303.798 101.742081 
L 304.465909 73.316749 
L 305.1 44.44366 
L 305.212023 111.507505 
L 305.651659 122.380964 
L 306.027886 127.808419 
L 306.207545 128.400719 
L 306.224455 128.393653 
L 306.317455 128.187195 
L 306.492886 127.115934 
L 306.763432 123.880185 
L 307.12275 116.562152 
L 307.602545 101.742076 
L 308.270455 73.316743 
L 308.904545 44.443655 
L 309.016568 111.507502 
L 309.456205 122.380962 
L 309.832432 127.808417 
L 310.012091 128.400716 
L 310.029 128.39365 
L 310.122 128.187192 
L 310.297432 127.115931 
L 310.567977 123.880182 
L 310.927295 116.562148 
L 311.407091 101.742072 
L 312.075 73.316738 
L 312.709091 44.44365 
L 312.821114 111.5075 
L 313.26075 122.38096 
L 313.636977 127.808415 
L 313.816636 128.400714 
L 313.833545 128.393648 
L 313.926545 128.18719 
L 314.101977 127.115929 
L 314.372523 123.88018 
L 314.731841 116.562146 
L 315.211636 101.742069 
L 315.879545 73.316735 
L 316.513636 44.443647 
L 316.625659 111.507499 
L 317.065295 122.380958 
L 317.441523 127.808413 
L 317.621182 128.400712 
L 317.638091 128.393646 
L 317.731091 128.187189 
L 317.906523 127.115927 
L 318.177068 123.880178 
L 318.536386 116.562143 
L 319.016182 101.742066 
L 319.684091 73.316732 
L 320.318182 44.443644 
L 320.430205 111.507498 
L 320.869841 122.380957 
L 321.246068 127.808412 
L 321.425727 128.400711 
L 321.442636 128.393645 
L 321.535636 128.187188 
L 321.711068 127.115926 
L 321.981614 123.880177 
L 322.340932 116.562142 
L 322.820727 101.742064 
L 323.488636 73.31673 
L 324.122727 44.443642 
L 324.23475 111.507497 
L 324.674386 122.380956 
L 325.050614 127.808411 
L 325.230273 128.40071 
L 325.247182 128.393644 
L 325.340182 128.187187 
L 325.515614 127.115925 
L 325.786159 123.880176 
L 326.145477 116.562141 
L 326.625273 101.742063 
L 327.293182 73.316729 
L 327.927273 44.443641 
L 328.039295 111.507496 
L 328.478932 122.380956 
L 328.855159 127.808411 
L 329.034818 128.40071 
L 329.051727 128.393644 
L 329.144727 128.187186 
L 329.320159 127.115924 
L 329.590705 123.880175 
L 329.950023 116.56214 
L 330.429818 101.742062 
L 331.097727 73.316728 
L 331.731818 44.44364 
L 331.843841 111.507495 
L 332.283477 122.380955 
L 332.659705 127.80841 
L 332.839364 128.400709 
L 332.856273 128.393643 
L 332.949273 128.187186 
L 333.124705 127.115924 
L 333.39525 123.880174 
L 333.754568 116.562139 
L 334.234364 101.742061 
L 334.902273 73.316727 
L 335.536364 44.443639 
L 335.648386 111.507495 
L 336.088023 122.380955 
L 336.46425 127.80841 
L 336.643909 128.400709 
L 336.660818 128.393643 
L 336.753818 128.187185 
L 336.92925 127.115923 
L 337.199795 123.880174 
L 337.559114 116.562139 
L 338.038909 101.742061 
L 338.706818 73.316726 
L 339.340909 44.443638 
L 339.452932 111.507495 
L 339.892568 122.380955 
L 340.268795 127.80841 
L 340.448455 128.400709 
L 340.465364 128.393643 
L 340.558364 128.187185 
L 340.733795 127.115923 
L 341.004341 123.880173 
L 341.363659 116.562138 
L 341.843455 101.74206 
L 342.511364 73.316725 
L 343.145455 44.443638 
L 343.257477 111.507495 
L 343.697114 122.380955 
L 344.073341 127.808409 
L 344.253 128.400708 
L 344.269909 128.393642 
L 344.362909 128.187185 
L 344.538341 127.115923 
L 344.808886 123.880173 
L 345.168205 116.562138 
L 345.648 101.74206 
L 346.315909 73.316725 
L 346.95 44.443637 
L 347.062023 111.507494 
L 347.501659 122.380954 
L 347.877886 127.808409 
L 348.057545 128.400708 
L 348.074455 128.393642 
L 348.167455 128.187185 
L 348.342886 127.115923 
L 348.613432 123.880173 
L 348.97275 116.562138 
L 349.452545 101.74206 
L 350.120455 73.316725 
L 350.754545 44.443637 
L 350.866568 111.507494 
L 351.306205 122.380954 
L 351.682432 127.808409 
L 351.862091 128.400708 
L 351.879 128.393642 
L 351.972 128.187184 
L 352.147432 127.115923 
L 352.417977 123.880173 
L 352.777295 116.562138 
L 353.257091 101.742059 
L 353.925 73.316725 
L 354.559091 44.443637 
L 354.671114 111.507494 
L 355.11075 122.380954 
L 355.486977 127.808409 
L 355.666636 128.400708 
L 355.683545 128.393642 
L 355.776545 128.187184 
L 355.951977 127.115922 
L 356.222523 123.880173 
L 356.581841 116.562138 
L 357.061636 101.742059 
L 357.729545 73.316724 
L 358.363636 44.443637 
L 358.475659 111.507494 
L 358.915295 122.380954 
L 359.291523 127.808409 
L 359.471182 128.400708 
L 359.488091 128.393642 
L 359.581091 128.187184 
L 359.756523 127.115922 
L 360.027068 123.880173 
L 360.386386 116.562137 
L 360.866182 101.742059 
L 361.534091 73.316724 
L 362.168182 44.443637 
L 362.280205 111.507494 
L 362.719841 122.380954 
L 363.096068 127.808409 
L 363.275727 128.400708 
L 363.292636 128.393642 
L 363.385636 128.187184 
L 363.561068 127.115922 
L 363.831614 123.880173 
L 364.190932 116.562137 
L 364.670727 101.742059 
L 365.338636 73.316724 
L 365.972727 44.443636 
L 366.08475 111.507494 
L 366.524386 122.380954 
L 366.900614 127.808409 
L 367.080273 128.400708 
L 367.097182 128.393642 
L 367.190182 128.187184 
L 367.365614 127.115922 
L 367.636159 123.880173 
L 367.995477 116.562137 
L 368.475273 101.742059 
L 369.143182 73.316724 
L 369.777273 44.443636 
L 369.889295 111.507494 
L 370.328932 122.380954 
L 370.705159 127.808409 
L 370.884818 128.400708 
L 370.901727 128.393642 
L 370.994727 128.187184 
L 371.170159 127.115922 
L 371.440705 123.880172 
L 371.800023 116.562137 
L 372.279818 101.742059 
L 372.947727 73.316724 
L 373.581818 44.443636 
L 373.581818 44.443636 
" clip-path="url(#p30af568d82)" style="fill: none; stroke: #1f77b4; stroke-width: 1.5; stroke-linecap: square"/>
   </g>
   <g id="line2d_17">
    <path d="M 69.218182 242.116364 
L 69.845932 242.008488 
L 69.968523 241.558926 
L 70.127045 239.936423 
L 70.338409 235.05571 
L 70.644886 221.883068 
L 72.124432 149.257264 
L 72.53025 142.362965 
L 72.898023 139.426407 
L 73.022727 138.882488 
L 73.024841 240.822678 
L 73.13475 239.165724 
L 73.360909 232.720295 
L 73.699091 215.512815 
L 74.151409 180.238751 
L 75.149045 99.336756 
L 75.516818 86.442722 
L 75.781023 83.260882 
L 75.857114 83.126202 
L 75.907841 83.208507 
L 76.028318 83.913122 
L 76.246023 86.767751 
L 76.62225 95.143531 
L 76.827273 100.709479 
L 76.829386 231.467856 
L 76.939295 224.374478 
L 77.368364 186.376554 
L 78.437864 92.201761 
L 78.858477 73.354687 
L 79.158614 67.87482 
L 79.302341 67.304323 
L 79.334045 67.336309 
L 79.431273 67.762129 
L 79.615159 69.796315 
L 79.915295 75.992849 
L 80.437364 92.237762 
L 80.631818 98.9177 
L 80.633932 214.827175 
L 80.743841 203.466446 
L 81.826023 102.308977 
L 82.3185 76.218916 
L 82.694727 66.277267 
L 82.944136 64.13943 
L 82.99275 64.107385 
L 83.041364 64.193203 
L 83.163955 64.90876 
L 83.379545 67.75176 
L 83.717727 75.612148 
L 84.358159 96.906256 
L 84.436364 99.597123 
L 84.438477 195.542598 
L 84.548386 182.542658 
L 85.22475 117.885369 
L 85.808114 84.737709 
L 86.266773 69.531844 
L 86.592273 64.65109 
L 86.748682 64.106684 
L 86.776159 64.129123 
L 86.871273 64.46991 
L 87.046705 66.116809 
L 87.327818 71.20769 
L 87.778023 84.052697 
L 88.240909 99.514908 
L 88.243023 179.017229 
L 88.352932 165.692071 
L 88.910932 114.626019 
L 89.439341 87.440742 
L 89.961409 70.130622 
L 90.322841 64.169771 
L 90.517295 63.33606 
L 90.529977 63.341234 
L 90.608182 63.531531 
L 90.75825 64.637339 
L 91.005545 68.408786 
L 91.394455 78.269667 
L 92.045455 99.221973 
L 92.047568 166.986333 
L 92.157477 153.761343 
L 92.666864 109.275237 
L 93.146659 86.880072 
L 93.730023 68.553227 
L 94.099909 62.582212 
L 94.29225 61.767191 
L 94.304932 61.772393 
L 94.383136 61.964556 
L 94.533205 63.085523 
L 94.7805 66.915793 
L 95.173636 77.008123 
L 95.85 98.632803 
L 95.852114 158.765097 
L 95.962023 145.669335 
L 96.446045 104.72881 
L 96.894136 85.152141 
L 97.526114 66.331229 
L 97.893886 60.708216 
L 98.069318 60.030119 
L 98.090455 60.04368 
L 98.177114 60.313176 
L 98.339864 61.723883 
L 98.604068 66.292487 
L 99.037364 78.298264 
L 99.654545 98.16098 
L 99.656659 153.176353 
L 99.766568 140.129515 
L 100.235795 101.124512 
L 100.66275 83.276885 
L 101.326432 64.442295 
L 101.687864 59.203833 
L 101.8485 58.633112 
L 101.875977 58.655021 
L 101.968977 58.989133 
L 102.140182 60.625388 
L 102.417068 65.784123 
L 102.884182 79.403366 
L 103.459091 97.95076 
L 103.461205 149.258945 
L 103.571114 136.212671 
L 104.029773 98.458435 
L 104.439818 81.835367 
L 105.12675 63.115733 
L 105.483955 58.164805 
L 105.631909 57.67324 
L 105.663614 57.700247 
L 105.758727 58.063607 
L 105.932045 59.787495 
L 106.213159 65.191477 
L 106.695068 79.556816 
L 107.263636 97.898608 
L 107.26575 146.465278 
L 107.375659 133.417408 
L 107.827977 96.481799 
L 108.227455 80.693375 
L 108.929182 62.203132 
L 109.282159 57.482229 
L 109.423773 57.044941 
L 109.457591 57.078767 
L 109.556932 57.48944 
L 109.736591 59.382062 
L 110.026159 65.198344 
L 110.535545 80.794759 
L 111.068182 97.90004 
L 111.070295 144.47239 
L 111.180205 131.429118 
L 111.628295 95.071447 
L 112.019318 79.907491 
L 112.733727 61.56495 
L 113.084591 57.019696 
L 113.21775 56.633577 
L 113.253682 56.671266 
L 113.355136 57.10693 
L 113.536909 59.073737 
L 113.830705 65.098673 
L 114.357 81.42252 
L 114.872727 97.911071 
L 114.874841 143.0479 
L 114.98475 130.011452 
L 115.428614 94.137928 
L 115.815409 79.335662 
L 116.540386 61.096557 
L 116.887023 56.718772 
L 117.013841 56.36402 
L 117.054 56.408492 
L 117.159682 56.890447 
L 117.347795 59.022728 
L 117.647932 65.385746 
L 118.205932 82.986969 
L 118.677273 97.925346 
L 118.679386 142.020493 
L 118.789295 128.990005 
L 119.231045 93.418081 
L 119.613614 78.937423 
L 120.347045 60.769864 
L 120.691568 56.51451 
L 120.814159 56.190674 
L 120.854318 56.237615 
L 120.96 56.726687 
L 121.148114 58.874577 
L 121.450364 65.323617 
L 122.014705 83.189913 
L 122.481818 97.943619 
L 122.483932 141.270191 
L 122.593841 128.244456 
L 123.033477 92.926206 
L 123.411818 78.70338 
L 124.151591 60.576961 
L 124.494 56.394137 
L 124.614477 56.08075 
L 124.654636 56.12738 
L 124.760318 56.616056 
L 124.948432 58.765742 
L 125.250682 65.223991 
L 125.817136 83.174642 
L 126.286364 97.96424 
L 126.288477 140.716833 
L 126.398386 127.6951 
L 126.835909 92.596086 
L 127.212136 78.523535 
L 127.956136 60.446648 
L 128.296432 56.319998 
L 128.414795 56.01114 
L 128.457068 56.059899 
L 128.56275 56.553352 
L 128.750864 58.712832 
L 129.053114 65.188374 
L 129.621682 83.22488 
L 130.090909 97.984668 
L 130.093023 140.306306 
L 130.202932 127.287976 
L 130.640455 92.270311 
L 131.014568 78.364996 
L 131.762795 60.319523 
L 132.100977 56.263772 
L 132.217227 55.966726 
L 132.2595 56.015741 
L 132.365182 56.510048 
L 132.553295 58.672215 
L 132.855545 65.154485 
L 133.426227 83.267659 
L 133.895455 98.003218 
L 133.897568 140.000609 
L 134.007477 126.985073 
L 134.442886 92.140748 
L 134.817 78.264534 
L 135.567341 60.257086 
L 135.905523 56.225992 
L 136.021773 55.937969 
L 136.064045 55.990357 
L 136.171841 56.508717 
L 136.362068 58.737767 
L 136.668545 65.401267 
L 137.25825 84.230393 
L 137.7 98.019223 
L 137.702114 139.772323 
L 137.812023 126.758995 
L 138.247432 91.96112 
L 138.619432 78.205606 
L 139.371886 60.212659 
L 139.710068 56.200068 
L 139.824205 55.918318 
L 139.866477 55.969004 
L 139.974273 56.483146 
L 140.1645 58.705843 
L 140.470977 65.362944 
L 141.060682 84.187267 
L 141.504545 98.032591 
L 141.506659 139.601436 
L 141.616568 126.589818 
L 142.051977 91.827016 
L 142.423977 78.117749 
L 143.178545 60.143442 
L 143.514614 56.181958 
L 143.62875 55.90524 
L 143.671023 55.957842 
L 143.778818 56.476968 
L 143.969045 58.70852 
L 144.275523 65.378203 
L 144.867341 84.280739 
L 145.309091 98.043492 
L 145.311205 139.473279 
L 145.421114 126.462972 
L 145.856523 91.726638 
L 146.228523 78.052336 
L 146.985205 60.083185 
L 147.321273 56.15862 
L 147.431182 55.895715 
L 147.475568 55.950241 
L 147.585477 56.488892 
L 147.777818 58.779251 
L 148.086409 65.561642 
L 148.693023 85.008338 
L 149.113636 98.052217 
L 149.11575 139.377036 
L 149.225659 126.36773 
L 149.661068 91.651364 
L 150.030955 78.062225 
L 150.787636 60.103107 
L 151.123705 56.159883 
L 151.235727 55.889297 
L 151.280114 55.944971 
L 151.390023 56.48652 
L 151.582364 58.781981 
L 151.890955 65.571529 
L 152.499682 85.092594 
L 152.918182 98.059104 
L 152.920295 139.304682 
L 153.030205 126.296138 
L 153.4635 91.705883 
L 153.833386 78.084259 
L 154.592182 60.090493 
L 154.92825 56.153182 
L 155.040273 55.884719 
L 155.084659 55.941259 
L 155.194568 56.484998 
L 155.386909 58.784312 
L 155.697614 65.63662 
L 156.312682 85.385989 
L 156.722727 98.064486 
L 156.724841 139.250239 
L 156.83475 126.242274 
L 157.268045 91.663302 
L 157.637932 78.056661 
L 158.396727 60.081133 
L 158.732795 56.148278 
L 158.844818 55.881419 
L 158.887091 55.933763 
L 158.994886 56.452431 
L 159.185114 58.684303 
L 159.491591 65.356976 
L 160.085523 84.330307 
L 160.527273 98.068664 
L 160.529386 139.20924 
L 160.639295 126.201713 
L 161.072591 91.631256 
L 161.442477 78.03593 
L 162.201273 60.074163 
L 162.537341 56.14467 
L 162.649364 55.879021 
L 162.691636 55.931836 
L 162.799432 56.451728 
L 162.989659 58.685777 
L 163.296136 65.361531 
L 163.890068 84.336473 
L 164.331818 98.071891 
L 164.333932 139.178341 
L 164.443841 126.171146 
L 164.877136 91.607118 
L 165.247023 78.020341 
L 166.005818 60.06896 
L 166.341886 56.142004 
L 166.453909 55.877268 
L 166.496182 55.930439 
L 166.603977 56.451256 
L 166.794205 58.68695 
L 167.100682 65.365033 
L 167.694614 84.341185 
L 168.136364 98.074374 
L 168.138477 139.15504 
L 168.248386 126.148096 
L 168.681682 91.588923 
L 169.051568 78.008608 
L 169.810364 60.065069 
L 170.146432 56.140027 
L 170.256341 55.875536 
L 170.300727 55.929421 
L 170.408523 56.450937 
L 170.59875 58.687874 
L 170.905227 65.367716 
L 171.499159 84.344781 
L 171.940909 98.076281 
L 171.943023 139.137457 
L 172.052932 126.130704 
L 172.486227 91.5752 
L 172.856114 77.999768 
L 173.617023 60.025329 
L 173.950977 56.138557 
L 174.060886 55.874578 
L 174.105273 55.928675 
L 174.213068 56.45072 
L 174.403295 58.688597 
L 174.709773 65.36977 
L 175.305818 84.41859 
L 175.745455 98.077742 
L 175.747568 139.124182 
L 175.857477 126.117573 
L 176.290773 91.564843 
L 176.660659 77.993104 
L 177.421568 60.023149 
L 177.755523 56.137462 
L 177.865432 55.87387 
L 177.909818 55.928128 
L 178.017614 56.450572 
L 178.207841 58.68916 
L 178.514318 65.371338 
L 179.110364 84.420675 
L 179.55 98.07886 
L 179.552114 139.114155 
L 179.662023 126.107655 
L 180.095318 91.557022 
L 180.465205 77.988077 
L 181.226114 60.021511 
L 181.560068 56.136644 
L 181.669977 55.873344 
L 181.714364 55.927724 
L 181.822159 56.45047 
L 182.012386 58.689595 
L 182.318864 65.372535 
L 182.914909 84.422263 
L 183.354545 98.079713 
L 183.356659 139.106577 
L 183.466568 126.10016 
L 183.899864 91.551114 
L 184.26975 77.984283 
L 185.030659 60.02028 
L 185.364614 56.136033 
L 185.474523 55.872954 
L 185.518909 55.927426 
L 185.626705 56.4504 
L 185.816932 58.689932 
L 186.123409 65.373448 
L 186.719455 84.42347 
L 187.159091 98.080365 
L 187.161205 139.100848 
L 187.271114 126.094494 
L 187.704409 91.546649 
L 188.074295 77.981417 
L 188.835205 60.019354 
L 189.169159 56.135575 
L 189.279068 55.872663 
L 189.323455 55.927204 
L 189.433364 56.466123 
L 189.625705 58.758129 
L 189.934295 65.545359 
L 190.543023 85.062788 
L 190.963636 98.080862 
L 190.96575 139.096516 
L 191.075659 126.090209 
L 191.508955 91.543273 
L 191.878841 77.979252 
L 192.63975 60.018656 
L 192.973705 56.135231 
L 193.083614 55.872445 
L 193.128 55.92704 
L 193.237909 56.466092 
L 193.43025 58.758333 
L 193.738841 65.545894 
L 194.347568 85.063478 
L 194.768182 98.081241 
L 194.770295 139.093239 
L 194.880205 126.086968 
L 195.3135 91.540719 
L 195.683386 77.977616 
L 196.444295 60.018129 
L 196.77825 56.134973 
L 196.888159 55.872283 
L 196.932545 55.926917 
L 197.042455 56.46607 
L 197.234795 58.75849 
L 197.543386 65.5463 
L 198.152114 85.064003 
L 198.572727 98.081529 
L 198.574841 139.090759 
L 198.68475 126.084515 
L 199.118045 91.538788 
L 199.487932 77.976378 
L 200.248841 60.017732 
L 200.582795 56.134779 
L 200.692705 55.872161 
L 200.737091 55.926826 
L 200.847 56.466055 
L 201.039341 58.75861 
L 201.347932 65.54661 
L 201.956659 85.064401 
L 202.377273 98.081749 
L 202.379386 139.088883 
L 202.489295 126.082659 
L 202.922591 91.537326 
L 203.292477 77.975442 
L 204.053386 60.017433 
L 204.387341 56.134632 
L 204.49725 55.87207 
L 204.541636 55.926757 
L 204.651545 56.466045 
L 204.843886 58.758701 
L 205.152477 65.546845 
L 205.761205 85.064704 
L 206.181818 98.081915 
L 206.183932 139.087462 
L 206.293841 126.081255 
L 206.727136 91.53622 
L 207.097023 77.974734 
L 207.857932 60.017206 
L 208.191886 56.134522 
L 208.301795 55.872001 
L 208.346182 55.926706 
L 208.456091 56.466037 
L 208.648432 58.758771 
L 208.957023 65.547023 
L 209.56575 85.064933 
L 209.986364 98.082042 
L 209.988477 139.086387 
L 210.098386 126.080191 
L 210.531682 91.535383 
L 210.901568 77.974198 
L 211.662477 60.017035 
L 211.996432 56.134439 
L 212.106341 55.87195 
L 212.150727 55.926668 
L 212.260636 56.466032 
L 212.452977 58.758824 
L 212.761568 65.547159 
L 213.370295 85.065107 
L 213.790909 98.082139 
L 213.793023 139.085572 
L 213.902932 126.079386 
L 214.336227 91.534749 
L 214.706114 77.973793 
L 215.467023 60.016906 
L 215.800977 56.134376 
L 215.910886 55.871911 
L 215.955273 55.926639 
L 216.065182 56.466028 
L 216.257523 58.758865 
L 216.566114 65.547262 
L 217.174841 85.06524 
L 217.595455 98.082212 
L 217.597568 139.084956 
L 217.707477 126.078776 
L 218.140773 91.534269 
L 218.510659 77.973486 
L 219.271568 60.016808 
L 219.605523 56.134329 
L 219.715432 55.871882 
L 219.759818 55.926617 
L 219.869727 56.466025 
L 220.062068 58.758896 
L 220.370659 65.54734 
L 220.979386 85.06534 
L 221.4 98.082267 
L 221.402114 139.084489 
L 221.512023 126.078314 
L 221.945318 91.533905 
L 222.315205 77.973253 
L 223.076114 60.016734 
L 223.410068 56.134293 
L 223.519977 55.871859 
L 223.564364 55.9266 
L 223.674273 56.466023 
L 223.866614 58.758919 
L 224.175205 65.547399 
L 224.783932 85.065416 
L 225.204545 98.082309 
L 225.206659 139.084135 
L 225.316568 126.077964 
L 225.749864 91.53363 
L 226.11975 77.973077 
L 226.880659 60.016678 
L 227.214614 56.134266 
L 227.324523 55.871843 
L 227.368909 55.926588 
L 227.478818 56.466022 
L 227.671159 58.758937 
L 227.97975 65.547444 
L 228.588477 85.065473 
L 229.009091 98.082341 
L 229.011205 139.083867 
L 229.121114 126.077699 
L 229.554409 91.533421 
L 229.924295 77.972944 
L 230.685205 60.016636 
L 231.019159 56.134246 
L 231.129068 55.87183 
L 231.173455 55.926579 
L 231.283364 56.466021 
L 231.475705 58.758951 
L 231.784295 65.547478 
L 232.393023 85.065517 
L 232.813636 98.082366 
L 232.81575 139.083664 
L 232.925659 126.077499 
L 233.358955 91.533263 
L 233.728841 77.972843 
L 234.48975 60.016604 
L 234.823705 56.13423 
L 234.933614 55.871821 
L 234.978 55.926572 
L 235.087909 56.46602 
L 235.28025 58.758961 
L 235.588841 65.547504 
L 236.197568 85.06555 
L 236.618182 98.082384 
L 236.620295 139.083511 
L 236.730205 126.077347 
L 237.1635 91.533144 
L 237.533386 77.972766 
L 238.294295 60.016579 
L 238.62825 56.134219 
L 238.738159 55.871813 
L 238.782545 55.926566 
L 238.892455 56.46602 
L 239.084795 58.758969 
L 239.393386 65.547524 
L 240.002114 85.065575 
L 240.422727 98.082398 
L 240.424841 139.083394 
L 240.53475 126.077232 
L 240.968045 91.533053 
L 241.337932 77.972708 
L 242.098841 60.016561 
L 242.432795 56.13421 
L 242.542705 55.871808 
L 242.587091 55.926562 
L 242.697 56.466019 
L 242.889341 58.758975 
L 243.197932 65.547539 
L 243.806659 85.065594 
L 244.227273 98.082409 
L 244.229386 139.083306 
L 244.339295 126.077144 
L 244.772591 91.532984 
L 245.142477 77.972664 
L 245.903386 60.016547 
L 246.237341 56.134203 
L 246.34725 55.871804 
L 246.391636 55.926559 
L 246.501545 56.466019 
L 246.693886 58.758979 
L 247.002477 65.54755 
L 247.611205 85.065609 
L 248.031818 98.082417 
L 248.033932 139.083239 
L 248.143841 126.077078 
L 248.577136 91.532932 
L 248.947023 77.972631 
L 249.707932 60.016536 
L 250.041886 56.134198 
L 250.151795 55.871801 
L 250.196182 55.926557 
L 250.306091 56.466019 
L 250.498432 58.758983 
L 250.807023 65.547558 
L 251.41575 85.06562 
L 251.836364 98.082423 
L 251.838477 139.083189 
L 251.948386 126.077028 
L 252.381682 91.532893 
L 252.751568 77.972606 
L 253.512477 60.016528 
L 253.846432 56.134194 
L 253.956341 55.871798 
L 254.000727 55.926555 
L 254.110636 56.466018 
L 254.302977 58.758985 
L 254.611568 65.547565 
L 255.220295 85.065628 
L 255.640909 98.082427 
L 255.643023 139.08315 
L 255.752932 126.07699 
L 256.186227 91.532863 
L 256.556114 77.972587 
L 257.317023 60.016522 
L 257.650977 56.134191 
L 257.760886 55.871797 
L 257.805273 55.926554 
L 257.915182 56.466018 
L 258.107523 58.758987 
L 258.416114 65.54757 
L 259.024841 85.065634 
L 259.445455 98.082431 
L 259.447568 139.083121 
L 259.557477 126.076962 
L 259.990773 91.532841 
L 260.360659 77.972573 
L 261.121568 60.016518 
L 261.455523 56.134189 
L 261.565432 55.871795 
L 261.609818 55.926553 
L 261.719727 56.466018 
L 261.912068 58.758989 
L 262.220659 65.547573 
L 262.829386 85.065639 
L 263.25 98.082434 
L 263.252114 139.083099 
L 263.362023 126.07694 
L 263.795318 91.532823 
L 264.165205 77.972562 
L 264.926114 60.016514 
L 265.260068 56.134187 
L 265.369977 55.871794 
L 265.414364 55.926552 
L 265.524273 56.466018 
L 265.716614 58.75899 
L 266.025205 65.547576 
L 266.633932 85.065643 
L 267.054545 98.082436 
L 267.056659 139.083083 
L 267.166568 126.076923 
L 267.599864 91.532811 
L 267.96975 77.972553 
L 268.730659 60.016512 
L 269.064614 56.134186 
L 269.174523 55.871793 
L 269.218909 55.926552 
L 269.328818 56.466018 
L 269.521159 58.758991 
L 269.82975 65.547578 
L 270.438477 85.065646 
L 270.859091 98.082437 
L 270.861205 139.08307 
L 270.971114 126.076911 
L 271.404409 91.532801 
L 271.774295 77.972547 
L 272.535205 60.01651 
L 272.869159 56.134185 
L 272.979068 55.871793 
L 273.023455 55.926551 
L 273.133364 56.466018 
L 273.325705 58.758991 
L 273.634295 65.54758 
L 274.243023 85.065648 
L 274.663636 98.082438 
L 274.66575 139.08306 
L 274.775659 126.076902 
L 275.208955 91.532793 
L 275.578841 77.972542 
L 276.33975 60.016508 
L 276.673705 56.134184 
L 276.783614 55.871792 
L 276.828 55.926551 
L 276.937909 56.466018 
L 277.13025 58.758992 
L 277.438841 65.547581 
L 278.047568 85.065649 
L 278.468182 98.082439 
L 278.470295 139.083053 
L 278.580205 126.076894 
L 279.0135 91.532788 
L 279.383386 77.972539 
L 280.144295 60.016507 
L 280.47825 56.134184 
L 280.588159 55.871792 
L 280.632545 55.926551 
L 280.742455 56.466018 
L 280.934795 58.758992 
L 281.243386 65.547582 
L 281.852114 85.06565 
L 282.272727 98.08244 
L 282.274841 139.083048 
L 282.38475 126.076889 
L 282.818045 91.532783 
L 283.187932 77.972536 
L 283.948841 60.016506 
L 284.282795 56.134183 
L 284.392705 55.871792 
L 284.437091 55.92655 
L 284.547 56.466018 
L 284.739341 58.758993 
L 285.047932 65.547583 
L 285.656659 85.065651 
L 286.077273 98.08244 
L 286.079386 139.083043 
L 286.189295 126.076885 
L 286.622591 91.53278 
L 286.992477 77.972534 
L 287.753386 60.016506 
L 288.087341 56.134183 
L 288.19725 55.871792 
L 288.241636 55.92655 
L 288.351545 56.466018 
L 288.543886 58.758993 
L 288.852477 65.547583 
L 289.461205 85.065652 
L 289.881818 98.082441 
L 289.883932 139.08304 
L 289.993841 126.076882 
L 290.427136 91.532778 
L 290.797023 77.972532 
L 291.557932 60.016505 
L 291.891886 56.134183 
L 292.001795 55.871791 
L 292.046182 55.92655 
L 292.156091 56.466018 
L 292.348432 58.758993 
L 292.657023 65.547584 
L 293.26575 85.065652 
L 293.686364 98.082441 
L 293.688477 139.083038 
L 293.798386 126.076879 
L 294.231682 91.532776 
L 294.601568 77.972531 
L 295.362477 60.016505 
L 295.696432 56.134183 
L 295.806341 55.871791 
L 295.850727 55.92655 
L 295.960636 56.466018 
L 296.152977 58.758993 
L 296.461568 65.547584 
L 297.070295 85.065653 
L 297.490909 98.082441 
L 297.493023 139.083036 
L 297.602932 126.076878 
L 298.036227 91.532774 
L 298.406114 77.97253 
L 299.167023 60.016504 
L 299.500977 56.134182 
L 299.610886 55.871791 
L 299.655273 55.92655 
L 299.765182 56.466018 
L 299.957523 58.758993 
L 300.266114 65.547584 
L 300.874841 85.065653 
L 301.295455 98.082441 
L 301.297568 139.083035 
L 301.407477 126.076876 
L 301.840773 91.532773 
L 302.210659 77.97253 
L 302.971568 60.016504 
L 303.305523 56.134182 
L 303.415432 55.871791 
L 303.459818 55.92655 
L 303.569727 56.466018 
L 303.762068 58.758993 
L 304.070659 65.547584 
L 304.679386 85.065653 
L 305.1 98.082441 
L 305.102114 139.083034 
L 305.212023 126.076875 
L 305.645318 91.532772 
L 306.015205 77.972529 
L 306.776114 60.016504 
L 307.110068 56.134182 
L 307.219977 55.871791 
L 307.264364 55.92655 
L 307.374273 56.466018 
L 307.566614 58.758993 
L 307.875205 65.547585 
L 308.483932 85.065654 
L 308.904545 98.082442 
L 308.906659 139.083033 
L 309.016568 126.076874 
L 309.449864 91.532772 
L 309.81975 77.972529 
L 310.580659 60.016504 
L 310.914614 56.134182 
L 311.024523 55.871791 
L 311.068909 55.92655 
L 311.178818 56.466018 
L 311.371159 58.758993 
L 311.67975 65.547585 
L 312.288477 85.065654 
L 312.709091 98.082442 
L 312.711205 139.083032 
L 312.821114 126.076874 
L 313.254409 91.532771 
L 313.624295 77.972528 
L 314.385205 60.016504 
L 314.719159 56.134182 
L 314.829068 55.871791 
L 314.873455 55.92655 
L 314.983364 56.466018 
L 315.175705 58.758993 
L 315.484295 65.547585 
L 316.093023 85.065654 
L 316.513636 98.082442 
L 316.51575 139.083032 
L 316.625659 126.076873 
L 317.058955 91.532771 
L 317.428841 77.972528 
L 318.18975 60.016504 
L 318.523705 56.134182 
L 318.633614 55.871791 
L 318.678 55.92655 
L 318.787909 56.466018 
L 318.98025 58.758993 
L 319.288841 65.547585 
L 319.897568 85.065654 
L 320.318182 98.082442 
L 320.320295 139.083031 
L 320.430205 126.076873 
L 320.8635 91.532771 
L 321.233386 77.972528 
L 321.994295 60.016504 
L 322.32825 56.134182 
L 322.438159 55.871791 
L 322.482545 55.92655 
L 322.592455 56.466018 
L 322.784795 58.758993 
L 323.093386 65.547585 
L 323.702114 85.065654 
L 324.122727 98.082442 
L 324.124841 139.083031 
L 324.23475 126.076873 
L 324.668045 91.532771 
L 325.037932 77.972528 
L 325.798841 60.016504 
L 326.132795 56.134182 
L 326.242705 55.871791 
L 326.287091 55.92655 
L 326.397 56.466018 
L 326.589341 58.758993 
L 326.897932 65.547585 
L 327.506659 85.065654 
L 327.927273 98.082442 
L 327.929386 139.083031 
L 328.039295 126.076873 
L 328.472591 91.53277 
L 328.842477 77.972528 
L 329.603386 60.016504 
L 329.937341 56.134182 
L 330.04725 55.871791 
L 330.091636 55.92655 
L 330.201545 56.466018 
L 330.393886 58.758993 
L 330.702477 65.547585 
L 331.311205 85.065654 
L 331.731818 98.082442 
L 331.733932 139.083031 
L 331.843841 126.076872 
L 332.277136 91.53277 
L 332.647023 77.972528 
L 333.407932 60.016504 
L 333.741886 56.134182 
L 333.851795 55.871791 
L 333.896182 55.92655 
L 334.006091 56.466018 
L 334.198432 58.758993 
L 334.507023 65.547585 
L 335.11575 85.065654 
L 335.536364 98.082442 
L 335.538477 139.083031 
L 335.648386 126.076872 
L 336.081682 91.53277 
L 336.451568 77.972528 
L 337.212477 60.016504 
L 337.546432 56.134182 
L 337.656341 55.871791 
L 337.700727 55.92655 
L 337.810636 56.466018 
L 338.002977 58.758993 
L 338.311568 65.547585 
L 338.920295 85.065654 
L 339.340909 98.082442 
L 339.343023 139.083031 
L 339.452932 126.076872 
L 339.886227 91.53277 
L 340.256114 77.972528 
L 341.017023 60.016504 
L 341.350977 56.134182 
L 341.460886 55.871791 
L 341.505273 55.92655 
L 341.615182 56.466018 
L 341.807523 58.758993 
L 342.116114 65.547585 
L 342.724841 85.065654 
L 343.145455 98.082442 
L 343.147568 139.083031 
L 343.257477 126.076872 
L 343.690773 91.53277 
L 344.060659 77.972527 
L 344.821568 60.016503 
L 345.155523 56.134182 
L 345.265432 55.871791 
L 345.309818 55.92655 
L 345.419727 56.466018 
L 345.612068 58.758993 
L 345.920659 65.547585 
L 346.529386 85.065654 
L 346.95 98.082442 
L 346.952114 139.083031 
L 347.062023 126.076872 
L 347.495318 91.53277 
L 347.865205 77.972527 
L 348.626114 60.016503 
L 348.960068 56.134182 
L 349.069977 55.871791 
L 349.114364 55.92655 
L 349.224273 56.466018 
L 349.416614 58.758993 
L 349.725205 65.547585 
L 350.333932 85.065654 
L 350.754545 98.082442 
L 350.756659 139.083031 
L 350.866568 126.076872 
L 351.299864 91.53277 
L 351.66975 77.972527 
L 352.430659 60.016503 
L 352.764614 56.134182 
L 352.874523 55.871791 
L 352.918909 55.92655 
L 353.028818 56.466018 
L 353.221159 58.758993 
L 353.52975 65.547585 
L 354.138477 85.065654 
L 354.559091 98.082442 
L 354.561205 139.08303 
L 354.671114 126.076872 
L 355.104409 91.53277 
L 355.474295 77.972527 
L 356.235205 60.016503 
L 356.569159 56.134182 
L 356.679068 55.871791 
L 356.723455 55.92655 
L 356.833364 56.466018 
L 357.025705 58.758993 
L 357.334295 65.547585 
L 357.943023 85.065654 
L 358.363636 98.082442 
L 358.36575 139.08303 
L 358.475659 126.076872 
L 358.908955 91.53277 
L 359.278841 77.972527 
L 360.03975 60.016503 
L 360.373705 56.134182 
L 360.483614 55.871791 
L 360.528 55.92655 
L 360.637909 56.466018 
L 360.83025 58.758993 
L 361.138841 65.547585 
L 361.747568 85.065654 
L 362.168182 98.082442 
L 362.170295 139.08303 
L 362.280205 126.076872 
L 362.7135 91.53277 
L 363.083386 77.972527 
L 363.844295 60.016503 
L 364.17825 56.134182 
L 364.288159 55.871791 
L 364.332545 55.92655 
L 364.442455 56.466018 
L 364.634795 58.758993 
L 364.943386 65.547585 
L 365.552114 85.065654 
L 365.972727 98.082442 
L 365.974841 139.08303 
L 366.08475 126.076872 
L 366.518045 91.53277 
L 366.887932 77.972527 
L 367.648841 60.016503 
L 367.982795 56.134182 
L 368.092705 55.871791 
L 368.137091 55.92655 
L 368.247 56.466018 
L 368.439341 58.758993 
L 368.747932 65.547585 
L 369.356659 85.065654 
L 369.777273 98.082442 
L 369.779386 139.08303 
L 369.889295 126.076872 
L 370.322591 91.53277 
L 370.692477 77.972527 
L 371.453386 60.016503 
L 371.787341 56.134182 
L 371.89725 55.871791 
L 371.941636 55.92655 
L 372.051545 56.466018 
L 372.243886 58.758993 
L 372.552477 65.547585 
L 373.161205 85.065654 
L 373.581818 98.082442 
L 373.581818 98.082442 
" clip-path="url(#p30af568d82)" style="fill: none; stroke: #ff7f0e; stroke-width: 1.5; stroke-linecap: square"/>
   </g>
   <g id="line2d_18">
    <path d="M 69.218182 242.116364 
L 69.803659 242.009913 
L 69.909341 241.503868 
L 70.050955 239.443086 
L 70.249636 232.613318 
L 70.570909 212.260711 
L 71.388886 159.179842 
L 71.777795 147.854349 
L 72.126545 143.29357 
L 72.452045 141.542659 
L 72.760636 140.928063 
L 73.022727 140.764803 
L 73.024841 236.014437 
L 73.13475 230.6478 
L 73.510977 203.428651 
L 75.007432 90.886674 
L 75.292773 84.944106 
L 75.396341 84.533019 
L 75.442841 84.619231 
L 75.55275 85.430575 
L 75.762 88.979698 
L 76.155136 100.212741 
L 76.827273 121.255672 
L 76.829386 204.411709 
L 76.939295 190.205961 
L 77.535341 128.326375 
L 78.038386 101.834931 
L 78.590045 82.29787 
L 78.90075 77.515149 
L 79.006432 77.19487 
L 79.052932 77.269511 
L 79.162841 77.9577 
L 79.361523 80.900393 
L 79.697591 89.778981 
L 80.631818 119.844822 
L 80.633932 168.709193 
L 80.743841 153.842584 
L 81.170795 114.830074 
L 81.50475 101.988599 
L 82.586932 75.596411 
L 82.808864 74.267784 
L 82.810977 74.268049 
L 82.874386 74.391581 
L 83.001205 75.300921 
L 83.221023 78.809882 
L 83.603591 89.169566 
L 84.436364 113.60519 
L 84.438477 147.79847 
L 84.548386 134.969196 
L 84.943636 105.280877 
L 85.250114 96.255116 
L 85.863068 82.085851 
L 86.408386 70.221272 
L 86.626091 68.93968 
L 86.628205 68.939938 
L 86.691614 69.062512 
L 86.818432 69.961729 
L 87.040364 73.447136 
L 87.4335 83.806872 
L 88.240909 106.342508 
L 88.243023 137.368395 
L 88.352932 125.278693 
L 88.741841 97.979528 
L 89.041977 89.9212 
L 89.576727 78.594222 
L 90.202364 65.041602 
L 90.403159 63.956449 
L 90.413727 63.96026 
L 90.483477 64.139803 
L 90.622977 65.285199 
L 90.863932 69.474068 
L 91.307795 81.902717 
L 92.045455 102.430618 
L 92.047568 130.498053 
L 92.157477 118.389916 
L 92.537932 92.052727 
L 92.823273 84.862709 
L 93.351682 75.15913 
L 94.009023 61.959072 
L 94.178114 61.205974 
L 94.203477 61.226443 
L 94.290136 61.56196 
L 94.455 63.299787 
L 94.731886 69.002589 
L 95.355409 87.88413 
L 95.85 100.86036 
L 95.852114 125.365011 
L 95.962023 113.306321 
L 96.331909 88.252286 
L 96.604568 81.828496 
L 97.122409 73.66848 
L 97.836818 60.206009 
L 97.96575 59.778952 
L 98.003795 59.825303 
L 98.10525 60.335715 
L 98.289136 62.635797 
L 98.599841 69.814692 
L 99.654545 100.032895 
L 99.656659 122.001352 
L 99.766568 110.071735 
L 100.130114 85.974024 
L 100.396432 80.013806 
L 100.899477 72.891826 
L 101.664614 59.05883 
L 101.759727 58.831837 
L 101.808341 58.906934 
L 101.920364 59.573489 
L 102.119045 62.360597 
L 102.459341 70.849791 
L 103.459091 99.48639 
L 103.461205 119.93908 
L 103.569 108.292541 
L 103.930432 84.550078 
L 104.192523 78.828775 
L 104.695568 72.122584 
L 105.477614 58.327675 
L 105.555818 58.176429 
L 105.606545 58.258234 
L 105.720682 58.960815 
L 105.923591 61.887253 
L 106.270227 70.711843 
L 107.263636 99.182435 
L 107.26575 118.618458 
L 107.373545 107.010057 
L 107.732864 83.572183 
L 107.992841 78.010814 
L 108.491659 71.668811 
L 109.290614 57.869863 
L 109.356136 57.773324 
L 109.406864 57.861519 
L 109.523114 58.600314 
L 109.728136 61.623869 
L 110.081114 70.751762 
L 111.068182 99.041568 
L 111.070295 117.733986 
L 111.178091 106.150876 
L 111.535295 82.950947 
L 111.793159 77.495509 
L 112.291977 71.368801 
L 113.099386 57.608855 
L 113.156455 57.538506 
L 113.207182 57.62752 
L 113.323432 58.369724 
L 113.528455 61.405047 
L 113.881432 70.564718 
L 114.872727 98.976621 
L 114.874841 117.139744 
L 114.982636 105.577751 
L 115.339841 82.495592 
L 115.595591 77.162302 
L 116.092295 71.217606 
L 116.908159 57.450062 
L 116.958886 57.39894 
L 117.009614 57.490824 
L 117.127977 58.261226 
L 117.335114 61.37697 
L 117.692318 70.743535 
L 118.677273 98.946335 
L 118.679386 116.73974 
L 118.787182 105.193657 
L 119.142273 82.272554 
L 119.398023 76.953503 
L 119.894727 71.112273 
L 120.714818 57.356004 
L 120.763432 57.315694 
L 120.812045 57.406985 
L 120.930409 58.179215 
L 121.137545 61.301301 
L 121.49475 70.683839 
L 122.481818 98.936193 
L 122.483932 116.464898 
L 122.591727 104.930179 
L 122.946818 82.06835 
L 123.200455 76.821674 
L 123.699273 71.020283 
L 124.519364 57.303296 
L 124.565864 57.26611 
L 124.614477 57.356135 
L 124.730727 58.105523 
L 124.93575 61.162751 
L 125.288727 70.374457 
L 126.286364 98.93755 
L 126.288477 116.271952 
L 126.396273 104.745658 
L 126.751364 81.927566 
L 127.005 76.719672 
L 127.499591 71.043786 
L 128.328136 57.264619 
L 128.370409 57.238512 
L 128.416909 57.325029 
L 128.533159 58.069145 
L 128.738182 61.119857 
L 129.091159 70.329137 
L 130.090909 98.944076 
L 130.093023 116.134733 
L 130.200818 104.614828 
L 130.555909 81.829301 
L 130.809545 76.65046 
L 131.299909 71.087616 
L 132.139023 57.237001 
L 132.177068 57.224287 
L 132.221455 57.311741 
L 132.337705 58.062059 
L 132.542727 61.123982 
L 132.895705 70.34852 
L 133.895455 98.952245 
L 133.897568 116.036192 
L 134.005364 104.521091 
L 134.360455 81.759729 
L 134.614091 76.60261 
L 135.102341 71.103724 
L 135.945682 57.224082 
L 135.983727 57.217234 
L 136.023886 57.297878 
L 136.140136 58.039227 
L 136.345159 61.087972 
L 136.698136 70.300832 
L 137.7 98.960416 
L 137.702114 115.964727 
L 137.809909 104.453212 
L 138.162886 81.786708 
L 138.416523 76.588435 
L 138.911114 71.007665 
L 139.743886 57.226967 
L 139.784045 57.209013 
L 139.828432 57.294151 
L 139.944682 58.039005 
L 140.149705 61.094099 
L 140.502682 70.315533 
L 141.504545 98.967828 
L 141.506659 115.912453 
L 141.614455 104.403621 
L 141.967432 81.750396 
L 142.221068 76.564344 
L 142.713545 71.03709 
L 143.552659 57.217336 
L 143.590705 57.20783 
L 143.632977 57.292328 
L 143.749227 58.039827 
L 143.95425 61.099711 
L 144.307227 70.327599 
L 145.309091 98.974168 
L 145.311205 115.87397 
L 145.419 104.367151 
L 145.771977 81.723853 
L 146.025614 76.546983 
L 146.518091 71.02973 
L 147.357205 57.215247 
L 147.39525 57.206332 
L 147.437523 57.291515 
L 147.553773 58.04101 
L 147.758795 61.104512 
L 148.111773 70.337265 
L 149.113636 98.979393 
L 149.11575 115.8455 
L 149.223545 104.340192 
L 149.576523 81.704325 
L 149.830159 76.534356 
L 150.320523 71.064562 
L 151.163864 57.211406 
L 151.201909 57.207425 
L 151.239955 57.284553 
L 151.354091 58.001837 
L 151.557 60.9832 
L 151.90575 70.020356 
L 152.918182 98.983597 
L 152.920295 115.824349 
L 153.028091 104.320176 
L 153.381068 81.689879 
L 153.632591 76.544528 
L 154.131409 70.940628 
L 154.959955 57.222426 
L 155.000114 57.202006 
L 155.046614 57.291188 
L 155.162864 58.043328 
L 155.367886 61.11163 
L 155.720864 70.350829 
L 156.722727 98.986927 
L 156.724841 115.80858 
L 156.832636 104.30526 
L 157.185614 81.679146 
L 157.437136 76.537672 
L 157.935955 70.938034 
L 158.7645 57.221919 
L 158.804659 57.201766 
L 158.851159 57.29127 
L 158.967409 58.04427 
L 159.172432 61.114133 
L 159.527523 70.420579 
L 160.527273 98.989534 
L 160.529386 115.79679 
L 160.637182 104.294113 
L 160.990159 81.671144 
L 161.241682 76.532593 
L 161.738386 70.976382 
L 162.571159 57.218312 
L 162.611318 57.203094 
L 162.653591 57.284681 
L 162.767727 58.004559 
L 162.970636 60.990684 
L 163.319386 70.034307 
L 164.331818 98.991559 
L 164.333932 115.787955 
L 164.441727 104.285762 
L 164.794705 81.665162 
L 165.046227 76.528815 
L 165.542932 70.975015 
L 166.375705 57.218118 
L 166.415864 57.203052 
L 166.458136 57.284806 
L 166.572273 58.005165 
L 166.775182 60.992173 
L 167.123932 70.036996 
L 168.136364 98.993122 
L 168.138477 115.781321 
L 168.246273 104.279493 
L 168.59925 81.660679 
L 168.850773 76.525995 
L 169.347477 70.974013 
L 170.18025 57.217994 
L 170.220409 57.203043 
L 170.262682 57.284924 
L 170.378932 58.025784 
L 170.583955 61.076759 
L 170.936932 70.298665 
L 171.940909 98.994323 
L 171.943023 115.776331 
L 172.050818 104.274779 
L 172.403795 81.657312 
L 172.655318 76.523886 
L 173.152023 70.973274 
L 173.984795 57.217915 
L 174.024955 57.20305 
L 174.067227 57.285027 
L 174.183477 58.026167 
L 174.3885 61.077652 
L 174.741477 70.300245 
L 175.745455 98.995244 
L 175.747568 115.772573 
L 175.855364 104.271229 
L 176.208341 81.65478 
L 176.459864 76.522303 
L 176.956568 70.972727 
L 177.789341 57.217863 
L 177.8295 57.203064 
L 177.871773 57.285113 
L 177.988023 58.026466 
L 178.193045 61.078336 
L 178.546023 70.30145 
L 179.55 98.995948 
L 179.552114 115.76974 
L 179.659909 104.268554 
L 180.012886 81.652874 
L 180.264409 76.521115 
L 180.761114 70.972321 
L 181.593886 57.21783 
L 181.634045 57.20308 
L 181.676318 57.285184 
L 181.792568 58.026697 
L 181.997591 61.078859 
L 182.350568 70.302366 
L 183.354545 98.996485 
L 183.356659 115.767602 
L 183.464455 104.266535 
L 183.817432 81.651436 
L 184.068955 76.52022 
L 184.565659 70.972018 
L 185.398432 57.217807 
L 185.438591 57.203095 
L 185.480864 57.285241 
L 185.597114 58.026874 
L 185.802136 61.079258 
L 186.155114 70.303063 
L 187.159091 98.996894 
L 187.161205 115.765988 
L 187.269 104.26501 
L 187.621977 81.650351 
L 187.8735 76.519547 
L 188.370205 70.971791 
L 189.202977 57.217792 
L 189.243136 57.203109 
L 189.285409 57.285286 
L 189.401659 58.027011 
L 189.606682 61.079562 
L 189.959659 70.303592 
L 190.963636 98.997206 
L 190.96575 115.764767 
L 191.073545 104.263858 
L 191.426523 81.649532 
L 191.678045 76.519038 
L 192.17475 70.971621 
L 193.007523 57.217783 
L 193.047682 57.20312 
L 193.089955 57.285321 
L 193.206205 58.027116 
L 193.411227 61.079793 
L 193.764205 70.303994 
L 194.768182 98.997443 
L 194.770295 115.763845 
L 194.878091 104.262987 
L 195.231068 81.648913 
L 195.482591 76.518655 
L 195.979295 70.971493 
L 196.812068 57.217776 
L 196.852227 57.20313 
L 196.8945 57.285348 
L 197.01075 58.027196 
L 197.215773 61.079969 
L 197.56875 70.3043 
L 198.572727 98.997623 
L 198.574841 115.763147 
L 198.682636 104.262329 
L 199.035614 81.648445 
L 199.287136 76.518365 
L 199.783841 70.971397 
L 200.616614 57.217771 
L 200.656773 57.203138 
L 200.699045 57.28537 
L 200.815295 58.027257 
L 201.020318 61.080103 
L 201.373295 70.304531 
L 202.377273 98.99776 
L 202.379386 115.762619 
L 202.487182 104.26183 
L 202.840159 81.648091 
L 203.091682 76.518146 
L 203.588386 70.971325 
L 204.421159 57.217768 
L 204.461318 57.203144 
L 204.503591 57.285386 
L 204.619841 58.027304 
L 204.824864 61.080204 
L 205.177841 70.304707 
L 206.181818 98.997863 
L 206.183932 115.762219 
L 206.291727 104.261453 
L 206.644705 81.647823 
L 206.896227 76.51798 
L 207.392932 70.97127 
L 208.225705 57.217766 
L 208.265864 57.203148 
L 208.308136 57.285399 
L 208.424386 58.027339 
L 208.629409 61.080281 
L 208.982386 70.304841 
L 209.986364 98.997942 
L 209.988477 115.761917 
L 210.096273 104.261167 
L 210.44925 81.64762 
L 210.700773 76.517855 
L 211.197477 70.971229 
L 212.03025 57.217764 
L 212.070409 57.203152 
L 212.112682 57.285408 
L 212.228932 58.027366 
L 212.433955 61.08034 
L 212.786932 70.304942 
L 213.790909 98.998002 
L 213.793023 115.761688 
L 213.900818 104.260951 
L 214.253795 81.647467 
L 214.505318 76.51776 
L 215.002023 70.971198 
L 215.834795 57.217763 
L 215.874955 57.203155 
L 215.917227 57.285416 
L 216.033477 58.027386 
L 216.2385 61.080384 
L 216.591477 70.305018 
L 217.595455 98.998047 
L 217.597568 115.761514 
L 217.705364 104.260788 
L 218.058341 81.647351 
L 218.309864 76.517688 
L 218.806568 70.971174 
L 219.639341 57.217762 
L 219.6795 57.203157 
L 219.721773 57.285421 
L 219.838023 58.027402 
L 220.043045 61.080418 
L 220.396023 70.305076 
L 221.4 98.998082 
L 221.402114 115.761383 
L 221.509909 104.260664 
L 221.862886 81.647263 
L 222.114409 76.517634 
L 222.611114 70.971157 
L 223.443886 57.217761 
L 223.484045 57.203159 
L 223.526318 57.285426 
L 223.642568 58.027414 
L 223.847591 61.080444 
L 224.200568 70.30512 
L 225.204545 98.998108 
L 225.206659 115.761283 
L 225.314455 104.26057 
L 225.667432 81.647196 
L 225.918955 76.517593 
L 226.415659 70.971143 
L 227.248432 57.217761 
L 227.288591 57.20316 
L 227.330864 57.285429 
L 227.447114 58.027423 
L 227.652136 61.080463 
L 228.005114 70.305154 
L 229.009091 98.998128 
L 229.011205 115.761208 
L 229.119 104.260499 
L 229.471977 81.647145 
L 229.7235 76.517562 
L 230.220205 70.971133 
L 231.052977 57.217761 
L 231.093136 57.203161 
L 231.135409 57.285431 
L 231.251659 58.02743 
L 231.456682 61.080478 
L 231.809659 70.305179 
L 232.813636 98.998143 
L 232.81575 115.761151 
L 232.923545 104.260445 
L 233.276523 81.647107 
L 233.528045 76.517538 
L 234.02475 70.971125 
L 234.857523 57.21776 
L 234.897682 57.203162 
L 234.939955 57.285433 
L 235.056205 58.027435 
L 235.261227 61.080489 
L 235.614205 70.305198 
L 236.618182 98.998154 
L 236.620295 115.761108 
L 236.728091 104.260404 
L 237.081068 81.647078 
L 237.332591 76.51752 
L 237.829295 70.97112 
L 238.662068 57.21776 
L 238.702227 57.203163 
L 238.7445 57.285435 
L 238.86075 58.027439 
L 239.065773 61.080497 
L 239.41875 70.305213 
L 240.422727 98.998163 
L 240.424841 115.761075 
L 240.532636 104.260373 
L 240.885614 81.647056 
L 241.137136 76.517507 
L 241.633841 70.971115 
L 242.466614 57.21776 
L 242.506773 57.203163 
L 242.549045 57.285436 
L 242.665295 58.027442 
L 242.870318 61.080504 
L 243.223295 70.305224 
L 244.227273 98.998169 
L 244.229386 115.76105 
L 244.337182 104.26035 
L 244.690159 81.64704 
L 244.941682 76.517497 
L 245.438386 70.971112 
L 246.271159 57.21776 
L 246.311318 57.203163 
L 246.353591 57.285437 
L 246.469841 58.027444 
L 246.674864 61.080508 
L 247.027841 70.305232 
L 248.031818 98.998174 
L 248.033932 115.761031 
L 248.141727 104.260332 
L 248.494705 81.647027 
L 248.746227 76.517489 
L 249.242932 70.971109 
L 250.075705 57.21776 
L 250.115864 57.203164 
L 250.158136 57.285437 
L 250.274386 58.027446 
L 250.479409 61.080512 
L 250.832386 70.305238 
L 251.836364 98.998178 
L 251.838477 115.761017 
L 251.946273 104.260318 
L 252.29925 81.647018 
L 252.550773 76.517483 
L 253.047477 70.971107 
L 253.88025 57.21776 
L 253.920409 57.203164 
L 253.962682 57.285438 
L 254.078932 58.027447 
L 254.283955 61.080515 
L 254.636932 70.305243 
L 255.640909 98.998181 
L 255.643023 115.761006 
L 255.750818 104.260308 
L 256.103795 81.64701 
L 256.355318 76.517478 
L 256.852023 70.971106 
L 257.684795 57.21776 
L 257.724955 57.203164 
L 257.767227 57.285438 
L 257.883477 58.027448 
L 258.0885 61.080517 
L 258.441477 70.305247 
L 259.445455 98.998183 
L 259.447568 115.760998 
L 259.555364 104.2603 
L 259.908341 81.647005 
L 260.159864 76.517475 
L 260.656568 70.971105 
L 261.489341 57.21776 
L 261.5295 57.203164 
L 261.571773 57.285438 
L 261.688023 58.027449 
L 261.893045 61.080519 
L 262.246023 70.30525 
L 263.25 98.998184 
L 263.252114 115.760992 
L 263.359909 104.260295 
L 263.712886 81.647001 
L 263.964409 76.517472 
L 264.461114 70.971104 
L 265.293886 57.21776 
L 265.334045 57.203164 
L 265.376318 57.285438 
L 265.492568 58.027449 
L 265.697591 61.08052 
L 266.050568 70.305252 
L 267.054545 98.998186 
L 267.056659 115.760987 
L 267.164455 104.26029 
L 267.517432 81.646998 
L 267.768955 76.517471 
L 268.265659 70.971103 
L 269.098432 57.21776 
L 269.138591 57.203164 
L 269.180864 57.285439 
L 269.297114 58.02745 
L 269.502136 61.080521 
L 269.855114 70.305253 
L 270.859091 98.998187 
L 270.861205 115.760984 
L 270.969 104.260287 
L 271.321977 81.646995 
L 271.5735 76.517469 
L 272.070205 70.971103 
L 272.902977 57.21776 
L 272.943136 57.203164 
L 272.985409 57.285439 
L 273.101659 58.02745 
L 273.306682 61.080521 
L 273.659659 70.305254 
L 274.663636 98.998187 
L 274.66575 115.760981 
L 274.773545 104.260284 
L 275.126523 81.646993 
L 275.378045 76.517468 
L 275.87475 70.971102 
L 276.707523 57.21776 
L 276.747682 57.203164 
L 276.789955 57.285439 
L 276.906205 58.02745 
L 277.111227 61.080522 
L 277.464205 70.305255 
L 278.468182 98.998188 
L 278.470295 115.760979 
L 278.578091 104.260282 
L 278.931068 81.646992 
L 279.182591 76.517467 
L 279.679295 70.971102 
L 280.512068 57.21776 
L 280.552227 57.203164 
L 280.5945 57.285439 
L 280.71075 58.02745 
L 280.915773 61.080522 
L 281.26875 70.305256 
L 282.272727 98.998188 
L 282.274841 115.760977 
L 282.382636 104.260281 
L 282.735614 81.646991 
L 282.987136 76.517466 
L 283.483841 70.971102 
L 284.316614 57.21776 
L 284.356773 57.203164 
L 284.399045 57.285439 
L 284.515295 58.02745 
L 284.720318 61.080523 
L 285.073295 70.305257 
L 286.077273 98.998189 
L 286.079386 115.760976 
L 286.187182 104.26028 
L 286.540159 81.64699 
L 286.791682 76.517466 
L 287.288386 70.971102 
L 288.121159 57.21776 
L 288.161318 57.203164 
L 288.203591 57.285439 
L 288.319841 58.027451 
L 288.524864 61.080523 
L 288.877841 70.305257 
L 289.881818 98.998189 
L 289.883932 115.760975 
L 289.991727 104.260279 
L 290.344705 81.64699 
L 290.596227 76.517466 
L 291.092932 70.971102 
L 291.925705 57.21776 
L 291.965864 57.203164 
L 292.008136 57.285439 
L 292.124386 58.027451 
L 292.329409 61.080523 
L 292.682386 70.305257 
L 293.686364 98.998189 
L 293.688477 115.760975 
L 293.796273 104.260278 
L 294.14925 81.646989 
L 294.400773 76.517465 
L 294.897477 70.971102 
L 295.73025 57.21776 
L 295.770409 57.203164 
L 295.812682 57.285439 
L 295.928932 58.027451 
L 296.133955 61.080523 
L 296.486932 70.305258 
L 297.490909 98.998189 
L 297.493023 115.760974 
L 297.600818 104.260278 
L 297.953795 81.646989 
L 298.205318 76.517465 
L 298.702023 70.971102 
L 299.534795 57.21776 
L 299.574955 57.203164 
L 299.617227 57.285439 
L 299.733477 58.027451 
L 299.9385 61.080523 
L 300.291477 70.305258 
L 301.295455 98.998189 
L 301.297568 115.760974 
L 301.405364 104.260277 
L 301.758341 81.646988 
L 302.009864 76.517465 
L 302.506568 70.971101 
L 303.339341 57.21776 
L 303.3795 57.203164 
L 303.421773 57.285439 
L 303.538023 58.027451 
L 303.743045 61.080523 
L 304.096023 70.305258 
L 305.1 98.998189 
L 305.102114 115.760973 
L 305.209909 104.260277 
L 305.562886 81.646988 
L 305.814409 76.517465 
L 306.311114 70.971101 
L 307.143886 57.21776 
L 307.184045 57.203164 
L 307.226318 57.285439 
L 307.342568 58.027451 
L 307.547591 61.080523 
L 307.900568 70.305258 
L 308.904545 98.998189 
L 308.906659 115.760973 
L 309.014455 104.260277 
L 309.367432 81.646988 
L 309.618955 76.517465 
L 310.115659 70.971101 
L 310.948432 57.21776 
L 310.988591 57.203164 
L 311.030864 57.285439 
L 311.147114 58.027451 
L 311.352136 61.080523 
L 311.705114 70.305258 
L 312.709091 98.998189 
L 312.711205 115.760973 
L 312.819 104.260277 
L 313.171977 81.646988 
L 313.4235 76.517465 
L 313.920205 70.971101 
L 314.752977 57.21776 
L 314.793136 57.203164 
L 314.835409 57.285439 
L 314.951659 58.027451 
L 315.156682 61.080523 
L 315.509659 70.305258 
L 316.513636 98.998189 
L 316.51575 115.760973 
L 316.623545 104.260277 
L 316.976523 81.646988 
L 317.228045 76.517465 
L 317.72475 70.971101 
L 318.557523 57.21776 
L 318.597682 57.203164 
L 318.639955 57.285439 
L 318.756205 58.027451 
L 318.961227 61.080523 
L 319.314205 70.305258 
L 320.318182 98.998189 
L 320.320295 115.760973 
L 320.428091 104.260277 
L 320.781068 81.646988 
L 321.032591 76.517465 
L 321.529295 70.971101 
L 322.362068 57.21776 
L 322.402227 57.203164 
L 322.4445 57.285439 
L 322.56075 58.027451 
L 322.765773 61.080524 
L 323.11875 70.305258 
L 324.122727 98.998189 
L 324.124841 115.760973 
L 324.232636 104.260277 
L 324.585614 81.646988 
L 324.837136 76.517465 
L 325.333841 70.971101 
L 326.166614 57.21776 
L 326.206773 57.203164 
L 326.249045 57.285439 
L 326.365295 58.027451 
L 326.570318 61.080524 
L 326.923295 70.305258 
L 327.927273 98.998189 
L 327.929386 115.760973 
L 328.037182 104.260276 
L 328.390159 81.646988 
L 328.641682 76.517465 
L 329.138386 70.971101 
L 329.971159 57.21776 
L 330.011318 57.203164 
L 330.053591 57.285439 
L 330.169841 58.027451 
L 330.374864 61.080524 
L 330.727841 70.305258 
L 331.731818 98.998189 
L 331.733932 115.760973 
L 331.841727 104.260276 
L 332.194705 81.646988 
L 332.446227 76.517465 
L 332.942932 70.971101 
L 333.775705 57.21776 
L 333.815864 57.203164 
L 333.858136 57.285439 
L 333.974386 58.027451 
L 334.179409 61.080524 
L 334.532386 70.305258 
L 335.536364 98.998189 
L 335.538477 115.760973 
L 335.646273 104.260276 
L 335.99925 81.646988 
L 336.250773 76.517465 
L 336.747477 70.971101 
L 337.58025 57.21776 
L 337.620409 57.203164 
L 337.662682 57.285439 
L 337.778932 58.027451 
L 337.983955 61.080524 
L 338.336932 70.305258 
L 339.340909 98.998189 
L 339.343023 115.760973 
L 339.450818 104.260276 
L 339.803795 81.646988 
L 340.055318 76.517465 
L 340.552023 70.971101 
L 341.384795 57.21776 
L 341.424955 57.203164 
L 341.467227 57.285439 
L 341.583477 58.027451 
L 341.7885 61.080524 
L 342.141477 70.305258 
L 343.145455 98.998189 
L 343.147568 115.760973 
L 343.255364 104.260276 
L 343.608341 81.646988 
L 343.859864 76.517465 
L 344.356568 70.971101 
L 345.189341 57.21776 
L 345.2295 57.203164 
L 345.271773 57.285439 
L 345.388023 58.027451 
L 345.593045 61.080524 
L 345.946023 70.305258 
L 346.95 98.998189 
L 346.952114 115.760972 
L 347.059909 104.260276 
L 347.412886 81.646988 
L 347.664409 76.517465 
L 348.161114 70.971101 
L 348.993886 57.21776 
L 349.034045 57.203164 
L 349.076318 57.285439 
L 349.192568 58.027451 
L 349.397591 61.080524 
L 349.750568 70.305258 
L 350.754545 98.998189 
L 350.756659 115.760972 
L 350.864455 104.260276 
L 351.217432 81.646988 
L 351.468955 76.517465 
L 351.965659 70.971101 
L 352.798432 57.21776 
L 352.838591 57.203164 
L 352.880864 57.285439 
L 352.997114 58.027451 
L 353.202136 61.080524 
L 353.555114 70.305258 
L 354.559091 98.998189 
L 354.561205 115.760972 
L 354.669 104.260276 
L 355.021977 81.646988 
L 355.2735 76.517465 
L 355.770205 70.971101 
L 356.602977 57.21776 
L 356.643136 57.203164 
L 356.685409 57.285439 
L 356.801659 58.027451 
L 357.006682 61.080524 
L 357.359659 70.305258 
L 358.363636 98.998189 
L 358.36575 115.760972 
L 358.473545 104.260276 
L 358.826523 81.646988 
L 359.078045 76.517464 
L 359.57475 70.971101 
L 360.407523 57.21776 
L 360.447682 57.203164 
L 360.489955 57.285439 
L 360.606205 58.027451 
L 360.811227 61.080524 
L 361.164205 70.305258 
L 362.168182 98.998189 
L 362.170295 115.760972 
L 362.278091 104.260276 
L 362.631068 81.646988 
L 362.882591 76.517464 
L 363.379295 70.971101 
L 364.212068 57.21776 
L 364.252227 57.203164 
L 364.2945 57.285439 
L 364.41075 58.027451 
L 364.615773 61.080524 
L 364.96875 70.305258 
L 365.972727 98.998189 
L 365.974841 115.760972 
L 366.082636 104.260276 
L 366.435614 81.646988 
L 366.687136 76.517464 
L 367.183841 70.971101 
L 368.016614 57.21776 
L 368.056773 57.203164 
L 368.099045 57.285439 
L 368.215295 58.027451 
L 368.420318 61.080524 
L 368.773295 70.305258 
L 369.777273 98.998189 
L 369.779386 115.760972 
L 369.887182 104.260276 
L 370.240159 81.646988 
L 370.491682 76.517464 
L 370.988386 70.971101 
L 371.821159 57.21776 
L 371.861318 57.203164 
L 371.903591 57.285439 
L 372.019841 58.027451 
L 372.224864 61.080524 
L 372.577841 70.305258 
L 373.581818 98.998189 
L 373.581818 98.998189 
" clip-path="url(#p30af568d82)" style="fill: none; stroke: #2ca02c; stroke-width: 1.5; stroke-linecap: square"/>
   </g>
   <g id="patch_3">
    <path d="M 54 252 
L 54 34.56 
" style="fill: none; stroke: #000000; stroke-width: 0.8; stroke-linejoin: miter; stroke-linecap: square"/>
   </g>
   <g id="patch_4">
    <path d="M 388.8 252 
L 388.8 34.56 
" style="fill: none; stroke: #000000; stroke-width: 0.8; stroke-linejoin: miter; stroke-linecap: square"/>
   </g>
   <g id="patch_5">
    <path d="M 54 252 
L 388.8 252 
" style="fill: none; stroke: #000000; stroke-width: 0.8; stroke-linejoin: miter; stroke-linecap: square"/>
   </g>
   <g id="patch_6">
    <path d="M 54 34.56 
L 388.8 34.56 
" style="fill: none; stroke: #000000; stroke-width: 0.8; stroke-linejoin: miter; stroke-linecap: square"/>
   </g>
   <g id="legend_1">
    <g id="patch_7">
     <path d="M 342.817187 247 
L 381.8 247 
Q 383.8 247 383.8 245 
L 383.8 201.965625 
Q 383.8 199.965625 381.8 199.965625 
L 342.817187 199.965625 
Q 340.817187 199.965625 340.817187 201.965625 
L 340.817187 245 
Q 340.817187 247 342.817187 247 
z
" style="fill: #ffffff; opacity: 0.8; stroke: #cccccc; stroke-linejoin: miter"/>
    </g>
    <g id="line2d_19">
     <path d="M 344.817187 208.064063 
L 354.817187 208.064063 
L 364.817187 208.064063 
" style="fill: none; stroke: #1f77b4; stroke-width: 1.5; stroke-linecap: square"/>
    </g>
    <g id="text_18">
     <!-- A -->
     <g transform="translate(372.817187 211.564063) scale(0.1 -0.1)">
      <defs>
       <path id="DejaVuSans-41" d="M 2188 4044 
L 1331 1722 
L 3047 1722 
L 2188 4044 
z
M 1831 4666 
L 2547 4666 
L 4325 0 
L 3669 0 
L 3244 1197 
L 1141 1197 
L 716 0 
L 50 0 
L 1831 4666 
z
" transform="scale(0.015625)"/>
      </defs>
      <use xlink:href="#DejaVuSans-41"/>
     </g>
    </g>
    <g id="line2d_20">
     <path d="M 344.817187 222.742188 
L 354.817187 222.742188 
L 364.817187 222.742188 
" style="fill: none; stroke: #ff7f0e; stroke-width: 1.5; stroke-linecap: square"/>
    </g>
    <g id="text_19">
     <!-- B -->
     <g transform="translate(372.817187 226.242188) scale(0.1 -0.1)">
      <defs>
       <path id="DejaVuSans-42" d="M 1259 2228 
L 1259 519 
L 2272 519 
Q 2781 519 3026 730 
Q 3272 941 3272 1375 
Q 3272 1813 3026 2020 
Q 2781 2228 2272 2228 
L 1259 2228 
z
M 1259 4147 
L 1259 2741 
L 2194 2741 
Q 2656 2741 2882 2914 
Q 3109 3088 3109 3444 
Q 3109 3797 2882 3972 
Q 2656 4147 2194 4147 
L 1259 4147 
z
M 628 4666 
L 2241 4666 
Q 2963 4666 3353 4366 
Q 3744 4066 3744 3513 
Q 3744 3084 3544 2831 
Q 3344 2578 2956 2516 
Q 3422 2416 3680 2098 
Q 3938 1781 3938 1306 
Q 3938 681 3513 340 
Q 3088 0 2303 0 
L 628 0 
L 628 4666 
z
" transform="scale(0.015625)"/>
      </defs>
      <use xlink:href="#DejaVuSans-42"/>
     </g>
    </g>
    <g id="line2d_21">
     <path d="M 344.817187 237.420313 
L 354.817187 237.420313 
L 364.817187 237.420313 
" style="fill: none; stroke: #2ca02c; stroke-width: 1.5; stroke-linecap: square"/>
    </g>
    <g id="text_20">
     <!-- C -->
     <g transform="translate(372.817187 240.920313) scale(0.1 -0.1)">
      <use xlink:href="#DejaVuSans-43"/>
     </g>
    </g>
   </g>
  </g>
 </g>
 <defs>
  <clipPath id="p30af568d82">
   <rect x="54" y="34.56" width="334.8" height="217.44"/>
  </clipPath>
 </defs>
</svg>
