<?xml version="1.0" encoding="utf-8" standalone="no"?>
<!DOCTYPE svg PUBLIC "-//W3C//DTD SVG 1.1//EN"
  "http://www.w3.org/Graphics/SVG/1.1/DTD/svg11.dtd">
<svg xmlns:xlink="http://www.w3.org/1999/xlink" width="828pt" height="720pt" viewBox="0 0 828 720" xmlns="http://www.w3.org/2000/svg" version="1.1">
 <metadata>
  <rdf:RDF xmlns:dc="http://purl.org/dc/elements/1.1/" xmlns:cc="http://creativecommons.org/ns#" xmlns:rdf="http://www.w3.org/1999/02/22-rdf-syntax-ns#">
   <cc:Work>
    <dc:type rdf:resource="http://purl.org/dc/dcmitype/StillImage"/>
    <dc:date>2025-01-15T09:08:43.817136</dc:date>
    <dc:format>image/svg+xml</dc:format>
    <dc:creator>
     <cc:Agent>
      <dc:title>Matplotlib v3.9.1, https://matplotlib.org/</dc:title>
     </cc:Agent>
    </dc:creator>
   </cc:Work>
  </rdf:RDF>
 </metadata>
 <defs>
  <style type="text/css">*{stroke-linejoin: round; stroke-linecap: butt}</style>
 </defs>
 <g id="figure_1">
  <g id="patch_1">
   <path d="M 0 720 
L 828 720 
L 828 0 
L 0 0 
z
" style="fill: #ffffff"/>
  </g>
  <g id="axes_1">
   <g id="patch_2">
    <path d="M 103.5 446.4 
L 745.2 446.4 
L 745.2 86.4 
L 103.5 86.4 
z
" style="fill: #ffffff"/>
   </g>
   <g id="matplotlib.axis_1">
    <g id="xtick_1">
     <g id="line2d_1">
      <path d="M 396.688252 446.4 
L 396.688252 86.4 
" clip-path="url(#p9850f1d1b9)" style="fill: none; stroke-dasharray: 1.85,0.8; stroke-dashoffset: 0; stroke: #b0b0b0; stroke-width: 0.5"/>
     </g>
     <g id="line2d_2">
      <defs>
       <path id="mf0d033d441" d="M 0 0 
L 0 3.5 
" style="stroke: #000000; stroke-width: 0.8"/>
      </defs>
      <g>
       <use xlink:href="#mf0d033d441" x="396.688252" y="446.4" style="stroke: #000000; stroke-width: 0.8"/>
      </g>
     </g>
     <g id="text_1">
      <!-- $\mathdefault{10^{3}}$ -->
      <g transform="translate(377.328252 470.116562) scale(0.22 -0.22)">
       <defs>
        <path id="DejaVuSans-31" d="M 794 531 
L 1825 531 
L 1825 4091 
L 703 3866 
L 703 4441 
L 1819 4666 
L 2450 4666 
L 2450 531 
L 3481 531 
L 3481 0 
L 794 0 
L 794 531 
z
" transform="scale(0.015625)"/>
        <path id="DejaVuSans-30" d="M 2034 4250 
Q 1547 4250 1301 3770 
Q 1056 3291 1056 2328 
Q 1056 1369 1301 889 
Q 1547 409 2034 409 
Q 2525 409 2770 889 
Q 3016 1369 3016 2328 
Q 3016 3291 2770 3770 
Q 2525 4250 2034 4250 
z
M 2034 4750 
Q 2819 4750 3233 4129 
Q 3647 3509 3647 2328 
Q 3647 1150 3233 529 
Q 2819 -91 2034 -91 
Q 1250 -91 836 529 
Q 422 1150 422 2328 
Q 422 3509 836 4129 
Q 1250 4750 2034 4750 
z
" transform="scale(0.015625)"/>
        <path id="DejaVuSans-33" d="M 2597 2516 
Q 3050 2419 3304 2112 
Q 3559 1806 3559 1356 
Q 3559 666 3084 287 
Q 2609 -91 1734 -91 
Q 1441 -91 1130 -33 
Q 819 25 488 141 
L 488 750 
Q 750 597 1062 519 
Q 1375 441 1716 441 
Q 2309 441 2620 675 
Q 2931 909 2931 1356 
Q 2931 1769 2642 2001 
Q 2353 2234 1838 2234 
L 1294 2234 
L 1294 2753 
L 1863 2753 
Q 2328 2753 2575 2939 
Q 2822 3125 2822 3475 
Q 2822 3834 2567 4026 
Q 2313 4219 1838 4219 
Q 1578 4219 1281 4162 
Q 984 4106 628 3988 
L 628 4550 
Q 988 4650 1302 4700 
Q 1616 4750 1894 4750 
Q 2613 4750 3031 4423 
Q 3450 4097 3450 3541 
Q 3450 3153 3228 2886 
Q 3006 2619 2597 2516 
z
" transform="scale(0.015625)"/>
       </defs>
       <use xlink:href="#DejaVuSans-31" transform="translate(0 0.765625)"/>
       <use xlink:href="#DejaVuSans-30" transform="translate(63.623047 0.765625)"/>
       <use xlink:href="#DejaVuSans-33" transform="translate(128.203125 39.046875) scale(0.7)"/>
      </g>
     </g>
    </g>
    <g id="xtick_2">
     <g id="line2d_3">
      <path d="M 139.199169 446.4 
L 139.199169 86.4 
" clip-path="url(#p9850f1d1b9)" style="fill: none; stroke-dasharray: 1.85,0.8; stroke-dashoffset: 0; stroke: #b0b0b0; stroke-width: 0.5"/>
     </g>
     <g id="line2d_4">
      <defs>
       <path id="m4c2a41d1a2" d="M 0 0 
L 0 2 
" style="stroke: #000000; stroke-width: 0.6"/>
      </defs>
      <g>
       <use xlink:href="#m4c2a41d1a2" x="139.199169" y="446.4" style="stroke: #000000; stroke-width: 0.6"/>
      </g>
     </g>
    </g>
    <g id="xtick_3">
     <g id="line2d_5">
      <path d="M 204.0683 446.4 
L 204.0683 86.4 
" clip-path="url(#p9850f1d1b9)" style="fill: none; stroke-dasharray: 1.85,0.8; stroke-dashoffset: 0; stroke: #b0b0b0; stroke-width: 0.5"/>
     </g>
     <g id="line2d_6">
      <g>
       <use xlink:href="#m4c2a41d1a2" x="204.0683" y="446.4" style="stroke: #000000; stroke-width: 0.6"/>
      </g>
     </g>
    </g>
    <g id="xtick_4">
     <g id="line2d_7">
      <path d="M 250.093681 446.4 
L 250.093681 86.4 
" clip-path="url(#p9850f1d1b9)" style="fill: none; stroke-dasharray: 1.85,0.8; stroke-dashoffset: 0; stroke: #b0b0b0; stroke-width: 0.5"/>
     </g>
     <g id="line2d_8">
      <g>
       <use xlink:href="#m4c2a41d1a2" x="250.093681" y="446.4" style="stroke: #000000; stroke-width: 0.6"/>
      </g>
     </g>
    </g>
    <g id="xtick_5">
     <g id="line2d_9">
      <path d="M 285.79374 446.4 
L 285.79374 86.4 
" clip-path="url(#p9850f1d1b9)" style="fill: none; stroke-dasharray: 1.85,0.8; stroke-dashoffset: 0; stroke: #b0b0b0; stroke-width: 0.5"/>
     </g>
     <g id="line2d_10">
      <g>
       <use xlink:href="#m4c2a41d1a2" x="285.79374" y="446.4" style="stroke: #000000; stroke-width: 0.6"/>
      </g>
     </g>
    </g>
    <g id="xtick_6">
     <g id="line2d_11">
      <path d="M 314.962812 446.4 
L 314.962812 86.4 
" clip-path="url(#p9850f1d1b9)" style="fill: none; stroke-dasharray: 1.85,0.8; stroke-dashoffset: 0; stroke: #b0b0b0; stroke-width: 0.5"/>
     </g>
     <g id="line2d_12">
      <g>
       <use xlink:href="#m4c2a41d1a2" x="314.962812" y="446.4" style="stroke: #000000; stroke-width: 0.6"/>
      </g>
     </g>
    </g>
    <g id="xtick_7">
     <g id="line2d_13">
      <path d="M 339.624911 446.4 
L 339.624911 86.4 
" clip-path="url(#p9850f1d1b9)" style="fill: none; stroke-dasharray: 1.85,0.8; stroke-dashoffset: 0; stroke: #b0b0b0; stroke-width: 0.5"/>
     </g>
     <g id="line2d_14">
      <g>
       <use xlink:href="#m4c2a41d1a2" x="339.624911" y="446.4" style="stroke: #000000; stroke-width: 0.6"/>
      </g>
     </g>
    </g>
    <g id="xtick_8">
     <g id="line2d_15">
      <path d="M 360.988193 446.4 
L 360.988193 86.4 
" clip-path="url(#p9850f1d1b9)" style="fill: none; stroke-dasharray: 1.85,0.8; stroke-dashoffset: 0; stroke: #b0b0b0; stroke-width: 0.5"/>
     </g>
     <g id="line2d_16">
      <g>
       <use xlink:href="#m4c2a41d1a2" x="360.988193" y="446.4" style="stroke: #000000; stroke-width: 0.6"/>
      </g>
     </g>
    </g>
    <g id="xtick_9">
     <g id="line2d_17">
      <path d="M 379.831943 446.4 
L 379.831943 86.4 
" clip-path="url(#p9850f1d1b9)" style="fill: none; stroke-dasharray: 1.85,0.8; stroke-dashoffset: 0; stroke: #b0b0b0; stroke-width: 0.5"/>
     </g>
     <g id="line2d_18">
      <g>
       <use xlink:href="#m4c2a41d1a2" x="379.831943" y="446.4" style="stroke: #000000; stroke-width: 0.6"/>
      </g>
     </g>
    </g>
    <g id="xtick_10">
     <g id="line2d_19">
      <path d="M 507.582764 446.4 
L 507.582764 86.4 
" clip-path="url(#p9850f1d1b9)" style="fill: none; stroke-dasharray: 1.85,0.8; stroke-dashoffset: 0; stroke: #b0b0b0; stroke-width: 0.5"/>
     </g>
     <g id="line2d_20">
      <g>
       <use xlink:href="#m4c2a41d1a2" x="507.582764" y="446.4" style="stroke: #000000; stroke-width: 0.6"/>
      </g>
     </g>
    </g>
    <g id="xtick_11">
     <g id="line2d_21">
      <path d="M 572.451895 446.4 
L 572.451895 86.4 
" clip-path="url(#p9850f1d1b9)" style="fill: none; stroke-dasharray: 1.85,0.8; stroke-dashoffset: 0; stroke: #b0b0b0; stroke-width: 0.5"/>
     </g>
     <g id="line2d_22">
      <g>
       <use xlink:href="#m4c2a41d1a2" x="572.451895" y="446.4" style="stroke: #000000; stroke-width: 0.6"/>
      </g>
     </g>
    </g>
    <g id="xtick_12">
     <g id="line2d_23">
      <path d="M 618.477276 446.4 
L 618.477276 86.4 
" clip-path="url(#p9850f1d1b9)" style="fill: none; stroke-dasharray: 1.85,0.8; stroke-dashoffset: 0; stroke: #b0b0b0; stroke-width: 0.5"/>
     </g>
     <g id="line2d_24">
      <g>
       <use xlink:href="#m4c2a41d1a2" x="618.477276" y="446.4" style="stroke: #000000; stroke-width: 0.6"/>
      </g>
     </g>
    </g>
    <g id="xtick_13">
     <g id="line2d_25">
      <path d="M 654.177335 446.4 
L 654.177335 86.4 
" clip-path="url(#p9850f1d1b9)" style="fill: none; stroke-dasharray: 1.85,0.8; stroke-dashoffset: 0; stroke: #b0b0b0; stroke-width: 0.5"/>
     </g>
     <g id="line2d_26">
      <g>
       <use xlink:href="#m4c2a41d1a2" x="654.177335" y="446.4" style="stroke: #000000; stroke-width: 0.6"/>
      </g>
     </g>
    </g>
    <g id="xtick_14">
     <g id="line2d_27">
      <path d="M 683.346408 446.4 
L 683.346408 86.4 
" clip-path="url(#p9850f1d1b9)" style="fill: none; stroke-dasharray: 1.85,0.8; stroke-dashoffset: 0; stroke: #b0b0b0; stroke-width: 0.5"/>
     </g>
     <g id="line2d_28">
      <g>
       <use xlink:href="#m4c2a41d1a2" x="683.346408" y="446.4" style="stroke: #000000; stroke-width: 0.6"/>
      </g>
     </g>
    </g>
    <g id="xtick_15">
     <g id="line2d_29">
      <path d="M 708.008507 446.4 
L 708.008507 86.4 
" clip-path="url(#p9850f1d1b9)" style="fill: none; stroke-dasharray: 1.85,0.8; stroke-dashoffset: 0; stroke: #b0b0b0; stroke-width: 0.5"/>
     </g>
     <g id="line2d_30">
      <g>
       <use xlink:href="#m4c2a41d1a2" x="708.008507" y="446.4" style="stroke: #000000; stroke-width: 0.6"/>
      </g>
     </g>
    </g>
    <g id="xtick_16">
     <g id="line2d_31">
      <path d="M 729.371789 446.4 
L 729.371789 86.4 
" clip-path="url(#p9850f1d1b9)" style="fill: none; stroke-dasharray: 1.85,0.8; stroke-dashoffset: 0; stroke: #b0b0b0; stroke-width: 0.5"/>
     </g>
     <g id="line2d_32">
      <g>
       <use xlink:href="#m4c2a41d1a2" x="729.371789" y="446.4" style="stroke: #000000; stroke-width: 0.6"/>
      </g>
     </g>
    </g>
    <g id="text_2">
     <!-- Degrees of freedom -->
     <g transform="translate(299.951563 497.687969) scale(0.25 -0.25)">
      <defs>
       <path id="DejaVuSans-44" d="M 1259 4147 
L 1259 519 
L 2022 519 
Q 2988 519 3436 956 
Q 3884 1394 3884 2338 
Q 3884 3275 3436 3711 
Q 2988 4147 2022 4147 
L 1259 4147 
z
M 628 4666 
L 1925 4666 
Q 3281 4666 3915 4102 
Q 4550 3538 4550 2338 
Q 4550 1131 3912 565 
Q 3275 0 1925 0 
L 628 0 
L 628 4666 
z
" transform="scale(0.015625)"/>
       <path id="DejaVuSans-65" d="M 3597 1894 
L 3597 1613 
L 953 1613 
Q 991 1019 1311 708 
Q 1631 397 2203 397 
Q 2534 397 2845 478 
Q 3156 559 3463 722 
L 3463 178 
Q 3153 47 2828 -22 
Q 2503 -91 2169 -91 
Q 1331 -91 842 396 
Q 353 884 353 1716 
Q 353 2575 817 3079 
Q 1281 3584 2069 3584 
Q 2775 3584 3186 3129 
Q 3597 2675 3597 1894 
z
M 3022 2063 
Q 3016 2534 2758 2815 
Q 2500 3097 2075 3097 
Q 1594 3097 1305 2825 
Q 1016 2553 972 2059 
L 3022 2063 
z
" transform="scale(0.015625)"/>
       <path id="DejaVuSans-67" d="M 2906 1791 
Q 2906 2416 2648 2759 
Q 2391 3103 1925 3103 
Q 1463 3103 1205 2759 
Q 947 2416 947 1791 
Q 947 1169 1205 825 
Q 1463 481 1925 481 
Q 2391 481 2648 825 
Q 2906 1169 2906 1791 
z
M 3481 434 
Q 3481 -459 3084 -895 
Q 2688 -1331 1869 -1331 
Q 1566 -1331 1297 -1286 
Q 1028 -1241 775 -1147 
L 775 -588 
Q 1028 -725 1275 -790 
Q 1522 -856 1778 -856 
Q 2344 -856 2625 -561 
Q 2906 -266 2906 331 
L 2906 616 
Q 2728 306 2450 153 
Q 2172 0 1784 0 
Q 1141 0 747 490 
Q 353 981 353 1791 
Q 353 2603 747 3093 
Q 1141 3584 1784 3584 
Q 2172 3584 2450 3431 
Q 2728 3278 2906 2969 
L 2906 3500 
L 3481 3500 
L 3481 434 
z
" transform="scale(0.015625)"/>
       <path id="DejaVuSans-72" d="M 2631 2963 
Q 2534 3019 2420 3045 
Q 2306 3072 2169 3072 
Q 1681 3072 1420 2755 
Q 1159 2438 1159 1844 
L 1159 0 
L 581 0 
L 581 3500 
L 1159 3500 
L 1159 2956 
Q 1341 3275 1631 3429 
Q 1922 3584 2338 3584 
Q 2397 3584 2469 3576 
Q 2541 3569 2628 3553 
L 2631 2963 
z
" transform="scale(0.015625)"/>
       <path id="DejaVuSans-73" d="M 2834 3397 
L 2834 2853 
Q 2591 2978 2328 3040 
Q 2066 3103 1784 3103 
Q 1356 3103 1142 2972 
Q 928 2841 928 2578 
Q 928 2378 1081 2264 
Q 1234 2150 1697 2047 
L 1894 2003 
Q 2506 1872 2764 1633 
Q 3022 1394 3022 966 
Q 3022 478 2636 193 
Q 2250 -91 1575 -91 
Q 1294 -91 989 -36 
Q 684 19 347 128 
L 347 722 
Q 666 556 975 473 
Q 1284 391 1588 391 
Q 1994 391 2212 530 
Q 2431 669 2431 922 
Q 2431 1156 2273 1281 
Q 2116 1406 1581 1522 
L 1381 1569 
Q 847 1681 609 1914 
Q 372 2147 372 2553 
Q 372 3047 722 3315 
Q 1072 3584 1716 3584 
Q 2034 3584 2315 3537 
Q 2597 3491 2834 3397 
z
" transform="scale(0.015625)"/>
       <path id="DejaVuSans-20" transform="scale(0.015625)"/>
       <path id="DejaVuSans-6f" d="M 1959 3097 
Q 1497 3097 1228 2736 
Q 959 2375 959 1747 
Q 959 1119 1226 758 
Q 1494 397 1959 397 
Q 2419 397 2687 759 
Q 2956 1122 2956 1747 
Q 2956 2369 2687 2733 
Q 2419 3097 1959 3097 
z
M 1959 3584 
Q 2709 3584 3137 3096 
Q 3566 2609 3566 1747 
Q 3566 888 3137 398 
Q 2709 -91 1959 -91 
Q 1206 -91 779 398 
Q 353 888 353 1747 
Q 353 2609 779 3096 
Q 1206 3584 1959 3584 
z
" transform="scale(0.015625)"/>
       <path id="DejaVuSans-66" d="M 2375 4863 
L 2375 4384 
L 1825 4384 
Q 1516 4384 1395 4259 
Q 1275 4134 1275 3809 
L 1275 3500 
L 2222 3500 
L 2222 3053 
L 1275 3053 
L 1275 0 
L 697 0 
L 697 3053 
L 147 3053 
L 147 3500 
L 697 3500 
L 697 3744 
Q 697 4328 969 4595 
Q 1241 4863 1831 4863 
L 2375 4863 
z
" transform="scale(0.015625)"/>
       <path id="DejaVuSans-64" d="M 2906 2969 
L 2906 4863 
L 3481 4863 
L 3481 0 
L 2906 0 
L 2906 525 
Q 2725 213 2448 61 
Q 2172 -91 1784 -91 
Q 1150 -91 751 415 
Q 353 922 353 1747 
Q 353 2572 751 3078 
Q 1150 3584 1784 3584 
Q 2172 3584 2448 3432 
Q 2725 3281 2906 2969 
z
M 947 1747 
Q 947 1113 1208 752 
Q 1469 391 1925 391 
Q 2381 391 2643 752 
Q 2906 1113 2906 1747 
Q 2906 2381 2643 2742 
Q 2381 3103 1925 3103 
Q 1469 3103 1208 2742 
Q 947 2381 947 1747 
z
" transform="scale(0.015625)"/>
       <path id="DejaVuSans-6d" d="M 3328 2828 
Q 3544 3216 3844 3400 
Q 4144 3584 4550 3584 
Q 5097 3584 5394 3201 
Q 5691 2819 5691 2113 
L 5691 0 
L 5113 0 
L 5113 2094 
Q 5113 2597 4934 2840 
Q 4756 3084 4391 3084 
Q 3944 3084 3684 2787 
Q 3425 2491 3425 1978 
L 3425 0 
L 2847 0 
L 2847 2094 
Q 2847 2600 2669 2842 
Q 2491 3084 2119 3084 
Q 1678 3084 1418 2786 
Q 1159 2488 1159 1978 
L 1159 0 
L 581 0 
L 581 3500 
L 1159 3500 
L 1159 2956 
Q 1356 3278 1631 3431 
Q 1906 3584 2284 3584 
Q 2666 3584 2933 3390 
Q 3200 3197 3328 2828 
z
" transform="scale(0.015625)"/>
      </defs>
      <use xlink:href="#DejaVuSans-44"/>
      <use xlink:href="#DejaVuSans-65" x="77.001953"/>
      <use xlink:href="#DejaVuSans-67" x="138.525391"/>
      <use xlink:href="#DejaVuSans-72" x="202.001953"/>
      <use xlink:href="#DejaVuSans-65" x="240.865234"/>
      <use xlink:href="#DejaVuSans-65" x="302.388672"/>
      <use xlink:href="#DejaVuSans-73" x="363.912109"/>
      <use xlink:href="#DejaVuSans-20" x="416.011719"/>
      <use xlink:href="#DejaVuSans-6f" x="447.798828"/>
      <use xlink:href="#DejaVuSans-66" x="508.980469"/>
      <use xlink:href="#DejaVuSans-20" x="544.185547"/>
      <use xlink:href="#DejaVuSans-66" x="575.972656"/>
      <use xlink:href="#DejaVuSans-72" x="611.177734"/>
      <use xlink:href="#DejaVuSans-65" x="650.041016"/>
      <use xlink:href="#DejaVuSans-65" x="711.564453"/>
      <use xlink:href="#DejaVuSans-64" x="773.087891"/>
      <use xlink:href="#DejaVuSans-6f" x="836.564453"/>
      <use xlink:href="#DejaVuSans-6d" x="897.746094"/>
     </g>
    </g>
   </g>
   <g id="matplotlib.axis_2">
    <g id="ytick_1">
     <g id="line2d_33">
      <path d="M 103.5 288.534179 
L 745.2 288.534179 
" clip-path="url(#p9850f1d1b9)" style="fill: none; stroke-dasharray: 1.85,0.8; stroke-dashoffset: 0; stroke: #b0b0b0; stroke-width: 0.5"/>
     </g>
     <g id="line2d_34">
      <defs>
       <path id="m4225ec4e6b" d="M 0 0 
L -3.5 0 
" style="stroke: #000000; stroke-width: 0.8"/>
      </defs>
      <g>
       <use xlink:href="#m4225ec4e6b" x="103.5" y="288.534179" style="stroke: #000000; stroke-width: 0.8"/>
      </g>
     </g>
     <g id="text_3">
      <!-- $\mathdefault{10^{2}}$ -->
      <g transform="translate(57.78 296.89246) scale(0.22 -0.22)">
       <defs>
        <path id="DejaVuSans-32" d="M 1228 531 
L 3431 531 
L 3431 0 
L 469 0 
L 469 531 
Q 828 903 1448 1529 
Q 2069 2156 2228 2338 
Q 2531 2678 2651 2914 
Q 2772 3150 2772 3378 
Q 2772 3750 2511 3984 
Q 2250 4219 1831 4219 
Q 1534 4219 1204 4116 
Q 875 4013 500 3803 
L 500 4441 
Q 881 4594 1212 4672 
Q 1544 4750 1819 4750 
Q 2544 4750 2975 4387 
Q 3406 4025 3406 3419 
Q 3406 3131 3298 2873 
Q 3191 2616 2906 2266 
Q 2828 2175 2409 1742 
Q 1991 1309 1228 531 
z
" transform="scale(0.015625)"/>
       </defs>
       <use xlink:href="#DejaVuSans-31" transform="translate(0 0.765625)"/>
       <use xlink:href="#DejaVuSans-30" transform="translate(63.623047 0.765625)"/>
       <use xlink:href="#DejaVuSans-32" transform="translate(128.203125 39.046875) scale(0.7)"/>
      </g>
     </g>
    </g>
    <g id="ytick_2">
     <g id="line2d_35">
      <path d="M 103.5 95.199329 
L 745.2 95.199329 
" clip-path="url(#p9850f1d1b9)" style="fill: none; stroke-dasharray: 1.85,0.8; stroke-dashoffset: 0; stroke: #b0b0b0; stroke-width: 0.5"/>
     </g>
     <g id="line2d_36">
      <g>
       <use xlink:href="#m4225ec4e6b" x="103.5" y="95.199329" style="stroke: #000000; stroke-width: 0.8"/>
      </g>
     </g>
     <g id="text_4">
      <!-- $\mathdefault{10^{3}}$ -->
      <g transform="translate(57.78 103.557611) scale(0.22 -0.22)">
       <use xlink:href="#DejaVuSans-31" transform="translate(0 0.765625)"/>
       <use xlink:href="#DejaVuSans-30" transform="translate(63.623047 0.765625)"/>
       <use xlink:href="#DejaVuSans-33" transform="translate(128.203125 39.046875) scale(0.7)"/>
      </g>
     </g>
    </g>
    <g id="ytick_3">
     <g id="line2d_37">
      <path d="M 103.5 423.669439 
L 745.2 423.669439 
" clip-path="url(#p9850f1d1b9)" style="fill: none; stroke-dasharray: 1.85,0.8; stroke-dashoffset: 0; stroke: #b0b0b0; stroke-width: 0.5"/>
     </g>
     <g id="line2d_38">
      <defs>
       <path id="m4a0eaf40c1" d="M 0 0 
L -2 0 
" style="stroke: #000000; stroke-width: 0.6"/>
      </defs>
      <g>
       <use xlink:href="#m4a0eaf40c1" x="103.5" y="423.669439" style="stroke: #000000; stroke-width: 0.6"/>
      </g>
     </g>
    </g>
    <g id="ytick_4">
     <g id="line2d_39">
      <path d="M 103.5 389.624862 
L 745.2 389.624862 
" clip-path="url(#p9850f1d1b9)" style="fill: none; stroke-dasharray: 1.85,0.8; stroke-dashoffset: 0; stroke: #b0b0b0; stroke-width: 0.5"/>
     </g>
     <g id="line2d_40">
      <g>
       <use xlink:href="#m4a0eaf40c1" x="103.5" y="389.624862" style="stroke: #000000; stroke-width: 0.6"/>
      </g>
     </g>
    </g>
    <g id="ytick_5">
     <g id="line2d_41">
      <path d="M 103.5 365.46985 
L 745.2 365.46985 
" clip-path="url(#p9850f1d1b9)" style="fill: none; stroke-dasharray: 1.85,0.8; stroke-dashoffset: 0; stroke: #b0b0b0; stroke-width: 0.5"/>
     </g>
     <g id="line2d_42">
      <g>
       <use xlink:href="#m4a0eaf40c1" x="103.5" y="365.46985" style="stroke: #000000; stroke-width: 0.6"/>
      </g>
     </g>
    </g>
    <g id="ytick_6">
     <g id="line2d_43">
      <path d="M 103.5 346.733768 
L 745.2 346.733768 
" clip-path="url(#p9850f1d1b9)" style="fill: none; stroke-dasharray: 1.85,0.8; stroke-dashoffset: 0; stroke: #b0b0b0; stroke-width: 0.5"/>
     </g>
     <g id="line2d_44">
      <g>
       <use xlink:href="#m4a0eaf40c1" x="103.5" y="346.733768" style="stroke: #000000; stroke-width: 0.6"/>
      </g>
     </g>
    </g>
    <g id="ytick_7">
     <g id="line2d_45">
      <path d="M 103.5 331.425273 
L 745.2 331.425273 
" clip-path="url(#p9850f1d1b9)" style="fill: none; stroke-dasharray: 1.85,0.8; stroke-dashoffset: 0; stroke: #b0b0b0; stroke-width: 0.5"/>
     </g>
     <g id="line2d_46">
      <g>
       <use xlink:href="#m4a0eaf40c1" x="103.5" y="331.425273" style="stroke: #000000; stroke-width: 0.6"/>
      </g>
     </g>
    </g>
    <g id="ytick_8">
     <g id="line2d_47">
      <path d="M 103.5 318.482126 
L 745.2 318.482126 
" clip-path="url(#p9850f1d1b9)" style="fill: none; stroke-dasharray: 1.85,0.8; stroke-dashoffset: 0; stroke: #b0b0b0; stroke-width: 0.5"/>
     </g>
     <g id="line2d_48">
      <g>
       <use xlink:href="#m4a0eaf40c1" x="103.5" y="318.482126" style="stroke: #000000; stroke-width: 0.6"/>
      </g>
     </g>
    </g>
    <g id="ytick_9">
     <g id="line2d_49">
      <path d="M 103.5 307.270261 
L 745.2 307.270261 
" clip-path="url(#p9850f1d1b9)" style="fill: none; stroke-dasharray: 1.85,0.8; stroke-dashoffset: 0; stroke: #b0b0b0; stroke-width: 0.5"/>
     </g>
     <g id="line2d_50">
      <g>
       <use xlink:href="#m4a0eaf40c1" x="103.5" y="307.270261" style="stroke: #000000; stroke-width: 0.6"/>
      </g>
     </g>
    </g>
    <g id="ytick_10">
     <g id="line2d_51">
      <path d="M 103.5 297.380696 
L 745.2 297.380696 
" clip-path="url(#p9850f1d1b9)" style="fill: none; stroke-dasharray: 1.85,0.8; stroke-dashoffset: 0; stroke: #b0b0b0; stroke-width: 0.5"/>
     </g>
     <g id="line2d_52">
      <g>
       <use xlink:href="#m4a0eaf40c1" x="103.5" y="297.380696" style="stroke: #000000; stroke-width: 0.6"/>
      </g>
     </g>
    </g>
    <g id="ytick_11">
     <g id="line2d_53">
      <path d="M 103.5 230.33459 
L 745.2 230.33459 
" clip-path="url(#p9850f1d1b9)" style="fill: none; stroke-dasharray: 1.85,0.8; stroke-dashoffset: 0; stroke: #b0b0b0; stroke-width: 0.5"/>
     </g>
     <g id="line2d_54">
      <g>
       <use xlink:href="#m4a0eaf40c1" x="103.5" y="230.33459" style="stroke: #000000; stroke-width: 0.6"/>
      </g>
     </g>
    </g>
    <g id="ytick_12">
     <g id="line2d_55">
      <path d="M 103.5 196.290013 
L 745.2 196.290013 
" clip-path="url(#p9850f1d1b9)" style="fill: none; stroke-dasharray: 1.85,0.8; stroke-dashoffset: 0; stroke: #b0b0b0; stroke-width: 0.5"/>
     </g>
     <g id="line2d_56">
      <g>
       <use xlink:href="#m4a0eaf40c1" x="103.5" y="196.290013" style="stroke: #000000; stroke-width: 0.6"/>
      </g>
     </g>
    </g>
    <g id="ytick_13">
     <g id="line2d_57">
      <path d="M 103.5 172.135001 
L 745.2 172.135001 
" clip-path="url(#p9850f1d1b9)" style="fill: none; stroke-dasharray: 1.85,0.8; stroke-dashoffset: 0; stroke: #b0b0b0; stroke-width: 0.5"/>
     </g>
     <g id="line2d_58">
      <g>
       <use xlink:href="#m4a0eaf40c1" x="103.5" y="172.135001" style="stroke: #000000; stroke-width: 0.6"/>
      </g>
     </g>
    </g>
    <g id="ytick_14">
     <g id="line2d_59">
      <path d="M 103.5 153.398918 
L 745.2 153.398918 
" clip-path="url(#p9850f1d1b9)" style="fill: none; stroke-dasharray: 1.85,0.8; stroke-dashoffset: 0; stroke: #b0b0b0; stroke-width: 0.5"/>
     </g>
     <g id="line2d_60">
      <g>
       <use xlink:href="#m4a0eaf40c1" x="103.5" y="153.398918" style="stroke: #000000; stroke-width: 0.6"/>
      </g>
     </g>
    </g>
    <g id="ytick_15">
     <g id="line2d_61">
      <path d="M 103.5 138.090424 
L 745.2 138.090424 
" clip-path="url(#p9850f1d1b9)" style="fill: none; stroke-dasharray: 1.85,0.8; stroke-dashoffset: 0; stroke: #b0b0b0; stroke-width: 0.5"/>
     </g>
     <g id="line2d_62">
      <g>
       <use xlink:href="#m4a0eaf40c1" x="103.5" y="138.090424" style="stroke: #000000; stroke-width: 0.6"/>
      </g>
     </g>
    </g>
    <g id="ytick_16">
     <g id="line2d_63">
      <path d="M 103.5 125.147276 
L 745.2 125.147276 
" clip-path="url(#p9850f1d1b9)" style="fill: none; stroke-dasharray: 1.85,0.8; stroke-dashoffset: 0; stroke: #b0b0b0; stroke-width: 0.5"/>
     </g>
     <g id="line2d_64">
      <g>
       <use xlink:href="#m4a0eaf40c1" x="103.5" y="125.147276" style="stroke: #000000; stroke-width: 0.6"/>
      </g>
     </g>
    </g>
    <g id="ytick_17">
     <g id="line2d_65">
      <path d="M 103.5 113.935412 
L 745.2 113.935412 
" clip-path="url(#p9850f1d1b9)" style="fill: none; stroke-dasharray: 1.85,0.8; stroke-dashoffset: 0; stroke: #b0b0b0; stroke-width: 0.5"/>
     </g>
     <g id="line2d_66">
      <g>
       <use xlink:href="#m4a0eaf40c1" x="103.5" y="113.935412" style="stroke: #000000; stroke-width: 0.6"/>
      </g>
     </g>
    </g>
    <g id="ytick_18">
     <g id="line2d_67">
      <path d="M 103.5 104.045847 
L 745.2 104.045847 
" clip-path="url(#p9850f1d1b9)" style="fill: none; stroke-dasharray: 1.85,0.8; stroke-dashoffset: 0; stroke: #b0b0b0; stroke-width: 0.5"/>
     </g>
     <g id="line2d_68">
      <g>
       <use xlink:href="#m4a0eaf40c1" x="103.5" y="104.045847" style="stroke: #000000; stroke-width: 0.6"/>
      </g>
     </g>
    </g>
    <g id="text_5">
     <!-- Compute time / s -->
     <g transform="translate(48.580781 374.282812) rotate(-90) scale(0.25 -0.25)">
      <defs>
       <path id="DejaVuSans-43" d="M 4122 4306 
L 4122 3641 
Q 3803 3938 3442 4084 
Q 3081 4231 2675 4231 
Q 1875 4231 1450 3742 
Q 1025 3253 1025 2328 
Q 1025 1406 1450 917 
Q 1875 428 2675 428 
Q 3081 428 3442 575 
Q 3803 722 4122 1019 
L 4122 359 
Q 3791 134 3420 21 
Q 3050 -91 2638 -91 
Q 1578 -91 968 557 
Q 359 1206 359 2328 
Q 359 3453 968 4101 
Q 1578 4750 2638 4750 
Q 3056 4750 3426 4639 
Q 3797 4528 4122 4306 
z
" transform="scale(0.015625)"/>
       <path id="DejaVuSans-70" d="M 1159 525 
L 1159 -1331 
L 581 -1331 
L 581 3500 
L 1159 3500 
L 1159 2969 
Q 1341 3281 1617 3432 
Q 1894 3584 2278 3584 
Q 2916 3584 3314 3078 
Q 3713 2572 3713 1747 
Q 3713 922 3314 415 
Q 2916 -91 2278 -91 
Q 1894 -91 1617 61 
Q 1341 213 1159 525 
z
M 3116 1747 
Q 3116 2381 2855 2742 
Q 2594 3103 2138 3103 
Q 1681 3103 1420 2742 
Q 1159 2381 1159 1747 
Q 1159 1113 1420 752 
Q 1681 391 2138 391 
Q 2594 391 2855 752 
Q 3116 1113 3116 1747 
z
" transform="scale(0.015625)"/>
       <path id="DejaVuSans-75" d="M 544 1381 
L 544 3500 
L 1119 3500 
L 1119 1403 
Q 1119 906 1312 657 
Q 1506 409 1894 409 
Q 2359 409 2629 706 
Q 2900 1003 2900 1516 
L 2900 3500 
L 3475 3500 
L 3475 0 
L 2900 0 
L 2900 538 
Q 2691 219 2414 64 
Q 2138 -91 1772 -91 
Q 1169 -91 856 284 
Q 544 659 544 1381 
z
M 1991 3584 
L 1991 3584 
z
" transform="scale(0.015625)"/>
       <path id="DejaVuSans-74" d="M 1172 4494 
L 1172 3500 
L 2356 3500 
L 2356 3053 
L 1172 3053 
L 1172 1153 
Q 1172 725 1289 603 
Q 1406 481 1766 481 
L 2356 481 
L 2356 0 
L 1766 0 
Q 1100 0 847 248 
Q 594 497 594 1153 
L 594 3053 
L 172 3053 
L 172 3500 
L 594 3500 
L 594 4494 
L 1172 4494 
z
" transform="scale(0.015625)"/>
       <path id="DejaVuSans-69" d="M 603 3500 
L 1178 3500 
L 1178 0 
L 603 0 
L 603 3500 
z
M 603 4863 
L 1178 4863 
L 1178 4134 
L 603 4134 
L 603 4863 
z
" transform="scale(0.015625)"/>
       <path id="DejaVuSans-2f" d="M 1625 4666 
L 2156 4666 
L 531 -594 
L 0 -594 
L 1625 4666 
z
" transform="scale(0.015625)"/>
      </defs>
      <use xlink:href="#DejaVuSans-43"/>
      <use xlink:href="#DejaVuSans-6f" x="69.824219"/>
      <use xlink:href="#DejaVuSans-6d" x="131.005859"/>
      <use xlink:href="#DejaVuSans-70" x="228.417969"/>
      <use xlink:href="#DejaVuSans-75" x="291.894531"/>
      <use xlink:href="#DejaVuSans-74" x="355.273438"/>
      <use xlink:href="#DejaVuSans-65" x="394.482422"/>
      <use xlink:href="#DejaVuSans-20" x="456.005859"/>
      <use xlink:href="#DejaVuSans-74" x="487.792969"/>
      <use xlink:href="#DejaVuSans-69" x="527.001953"/>
      <use xlink:href="#DejaVuSans-6d" x="554.785156"/>
      <use xlink:href="#DejaVuSans-65" x="652.197266"/>
      <use xlink:href="#DejaVuSans-20" x="713.720703"/>
      <use xlink:href="#DejaVuSans-2f" x="745.507812"/>
      <use xlink:href="#DejaVuSans-20" x="779.199219"/>
      <use xlink:href="#DejaVuSans-73" x="810.986328"/>
     </g>
    </g>
   </g>
   <g id="line2d_69">
    <path d="M 132.668182 326.90324 
L 243.562694 214.794032 
L 354.457206 102.763636 
" clip-path="url(#p9850f1d1b9)" style="fill: none; stroke-dasharray: 2,3.3; stroke-dashoffset: 0; stroke: #ff1493; stroke-width: 2"/>
    <defs>
     <path id="m265ad4c85a" d="M 0 -7 
L -7 7 
L 7 7 
z
" style="stroke: #ff1493; stroke-linejoin: miter"/>
    </defs>
    <g clip-path="url(#p9850f1d1b9)">
     <use xlink:href="#m265ad4c85a" x="132.668182" y="326.90324" style="fill: #ff1493; stroke: #ff1493; stroke-linejoin: miter"/>
     <use xlink:href="#m265ad4c85a" x="243.562694" y="214.794032" style="fill: #ff1493; stroke: #ff1493; stroke-linejoin: miter"/>
     <use xlink:href="#m265ad4c85a" x="354.457206" y="102.763636" style="fill: #ff1493; stroke: #ff1493; stroke-linejoin: miter"/>
    </g>
   </g>
   <g id="line2d_70">
    <path d="M 376.236579 430.036364 
L 487.131091 356.271408 
L 598.025604 272.767143 
" clip-path="url(#p9850f1d1b9)" style="fill: none; stroke-dasharray: 7.4,3.2; stroke-dashoffset: 0; stroke: #3f007d; stroke-width: 2"/>
    <defs>
     <path id="me2a5f8cb3b" d="M 0 4.5 
C 1.193414 4.5 2.338109 4.025852 3.181981 3.181981 
C 4.025852 2.338109 4.5 1.193414 4.5 0 
C 4.5 -1.193414 4.025852 -2.338109 3.181981 -3.181981 
C 2.338109 -4.025852 1.193414 -4.5 0 -4.5 
C -1.193414 -4.5 -2.338109 -4.025852 -3.181981 -3.181981 
C -4.025852 -2.338109 -4.5 -1.193414 -4.5 0 
C -4.5 1.193414 -4.025852 2.338109 -3.181981 3.181981 
C -2.338109 4.025852 -1.193414 4.5 0 4.5 
z
" style="stroke: #3f007d"/>
    </defs>
    <g clip-path="url(#p9850f1d1b9)">
     <use xlink:href="#me2a5f8cb3b" x="376.236579" y="430.036364" style="fill: #3f007d; stroke: #3f007d"/>
     <use xlink:href="#me2a5f8cb3b" x="487.131091" y="356.271408" style="fill: #3f007d; stroke: #3f007d"/>
     <use xlink:href="#me2a5f8cb3b" x="598.025604" y="272.767143" style="fill: #3f007d; stroke: #3f007d"/>
    </g>
   </g>
   <g id="line2d_71">
    <path d="M 425.857324 414.952922 
L 536.751836 323.661509 
L 647.646349 233.549174 
" clip-path="url(#p9850f1d1b9)" style="fill: none; stroke-dasharray: 7.4,3.2; stroke-dashoffset: 0; stroke: #53258e; stroke-width: 2"/>
    <defs>
     <path id="m6fde43ab60" d="M 0 4.5 
C 1.193414 4.5 2.338109 4.025852 3.181981 3.181981 
C 4.025852 2.338109 4.5 1.193414 4.5 0 
C 4.5 -1.193414 4.025852 -2.338109 3.181981 -3.181981 
C 2.338109 -4.025852 1.193414 -4.5 0 -4.5 
C -1.193414 -4.5 -2.338109 -4.025852 -3.181981 -3.181981 
C -4.025852 -2.338109 -4.5 -1.193414 -4.5 0 
C -4.5 1.193414 -4.025852 2.338109 -3.181981 3.181981 
C -2.338109 4.025852 -1.193414 4.5 0 4.5 
z
" style="stroke: #53258e"/>
    </defs>
    <g clip-path="url(#p9850f1d1b9)">
     <use xlink:href="#m6fde43ab60" x="425.857324" y="414.952922" style="fill: #53258e; stroke: #53258e"/>
     <use xlink:href="#m6fde43ab60" x="536.751836" y="323.661509" style="fill: #53258e; stroke: #53258e"/>
     <use xlink:href="#m6fde43ab60" x="647.646349" y="233.549174" style="fill: #53258e; stroke: #53258e"/>
    </g>
   </g>
   <g id="line2d_72">
    <path d="M 463.676447 387.659666 
L 574.570959 292.476259 
L 685.465471 198.258409 
" clip-path="url(#p9850f1d1b9)" style="fill: none; stroke-dasharray: 7.4,3.2; stroke-dashoffset: 0; stroke: #674ca1; stroke-width: 2"/>
    <defs>
     <path id="m01bae72421" d="M 0 4.5 
C 1.193414 4.5 2.338109 4.025852 3.181981 3.181981 
C 4.025852 2.338109 4.5 1.193414 4.5 0 
C 4.5 -1.193414 4.025852 -2.338109 3.181981 -3.181981 
C 2.338109 -4.025852 1.193414 -4.5 0 -4.5 
C -1.193414 -4.5 -2.338109 -4.025852 -3.181981 -3.181981 
C -4.025852 -2.338109 -4.5 -1.193414 -4.5 0 
C -4.5 1.193414 -4.025852 2.338109 -3.181981 3.181981 
C -2.338109 4.025852 -1.193414 4.5 0 4.5 
z
" style="stroke: #674ca1"/>
    </defs>
    <g clip-path="url(#p9850f1d1b9)">
     <use xlink:href="#m01bae72421" x="463.676447" y="387.659666" style="fill: #674ca1; stroke: #674ca1"/>
     <use xlink:href="#m01bae72421" x="574.570959" y="292.476259" style="fill: #674ca1; stroke: #674ca1"/>
     <use xlink:href="#m01bae72421" x="685.465471" y="198.258409" style="fill: #674ca1; stroke: #674ca1"/>
    </g>
   </g>
   <g id="line2d_73">
    <path d="M 494.242794 360.789872 
L 605.137306 257.022129 
L 716.031818 163.456025 
" clip-path="url(#p9850f1d1b9)" style="fill: none; stroke-dasharray: 7.4,3.2; stroke-dashoffset: 0; stroke: #7c75b6; stroke-width: 2"/>
    <defs>
     <path id="m8239d8aae5" d="M 0 4.5 
C 1.193414 4.5 2.338109 4.025852 3.181981 3.181981 
C 4.025852 2.338109 4.5 1.193414 4.5 0 
C 4.5 -1.193414 4.025852 -2.338109 3.181981 -3.181981 
C 2.338109 -4.025852 1.193414 -4.5 0 -4.5 
C -1.193414 -4.5 -2.338109 -4.025852 -3.181981 -3.181981 
C -4.025852 -2.338109 -4.5 -1.193414 -4.5 0 
C -4.5 1.193414 -4.025852 2.338109 -3.181981 3.181981 
C -2.338109 4.025852 -1.193414 4.5 0 4.5 
z
" style="stroke: #7c75b6"/>
    </defs>
    <g clip-path="url(#p9850f1d1b9)">
     <use xlink:href="#m8239d8aae5" x="494.242794" y="360.789872" style="fill: #7c75b6; stroke: #7c75b6"/>
     <use xlink:href="#m8239d8aae5" x="605.137306" y="257.022129" style="fill: #7c75b6; stroke: #7c75b6"/>
     <use xlink:href="#m8239d8aae5" x="716.031818" y="163.456025" style="fill: #7c75b6; stroke: #7c75b6"/>
    </g>
   </g>
   <g id="line2d_74">
    <path d="M 376.236579 394.860882 
L 487.131091 353.638668 
L 598.025604 282.409055 
" clip-path="url(#p9850f1d1b9)" style="fill: none; stroke: #67000d; stroke-width: 2; stroke-linecap: square"/>
    <defs>
     <path id="ma2bc29b75f" d="M 0 -7 
L -1.571598 -2.163119 
L -6.657396 -2.163119 
L -2.542899 0.826238 
L -4.114497 5.663119 
L -0 2.673762 
L 4.114497 5.663119 
L 2.542899 0.826238 
L 6.657396 -2.163119 
L 1.571598 -2.163119 
z
" style="stroke: #67000d; stroke-linejoin: bevel"/>
    </defs>
    <g clip-path="url(#p9850f1d1b9)">
     <use xlink:href="#ma2bc29b75f" x="376.236579" y="394.860882" style="fill: #67000d; stroke: #67000d; stroke-linejoin: bevel"/>
     <use xlink:href="#ma2bc29b75f" x="487.131091" y="353.638668" style="fill: #67000d; stroke: #67000d; stroke-linejoin: bevel"/>
     <use xlink:href="#ma2bc29b75f" x="598.025604" y="282.409055" style="fill: #67000d; stroke: #67000d; stroke-linejoin: bevel"/>
    </g>
   </g>
   <g id="line2d_75">
    <path d="M 425.857324 363.328309 
L 536.751836 301.153844 
L 647.646349 258.763112 
" clip-path="url(#p9850f1d1b9)" style="fill: none; stroke: #af1117; stroke-width: 2; stroke-linecap: square"/>
    <defs>
     <path id="m29854b8c60" d="M 0 -7 
L -1.571598 -2.163119 
L -6.657396 -2.163119 
L -2.542899 0.826238 
L -4.114497 5.663119 
L -0 2.673762 
L 4.114497 5.663119 
L 2.542899 0.826238 
L 6.657396 -2.163119 
L 1.571598 -2.163119 
z
" style="stroke: #af1117; stroke-linejoin: bevel"/>
    </defs>
    <g clip-path="url(#p9850f1d1b9)">
     <use xlink:href="#m29854b8c60" x="425.857324" y="363.328309" style="fill: #af1117; stroke: #af1117; stroke-linejoin: bevel"/>
     <use xlink:href="#m29854b8c60" x="536.751836" y="301.153844" style="fill: #af1117; stroke: #af1117; stroke-linejoin: bevel"/>
     <use xlink:href="#m29854b8c60" x="647.646349" y="258.763112" style="fill: #af1117; stroke: #af1117; stroke-linejoin: bevel"/>
    </g>
   </g>
   <g id="line2d_76">
    <path d="M 463.676447 325.419173 
L 574.570959 286.164969 
L 685.465471 227.205741 
" clip-path="url(#p9850f1d1b9)" style="fill: none; stroke: #dd2a25; stroke-width: 2; stroke-linecap: square"/>
    <defs>
     <path id="mfe87a2a97e" d="M 0 -7 
L -1.571598 -2.163119 
L -6.657396 -2.163119 
L -2.542899 0.826238 
L -4.114497 5.663119 
L -0 2.673762 
L 4.114497 5.663119 
L 2.542899 0.826238 
L 6.657396 -2.163119 
L 1.571598 -2.163119 
z
" style="stroke: #dd2a25; stroke-linejoin: bevel"/>
    </defs>
    <g clip-path="url(#p9850f1d1b9)">
     <use xlink:href="#mfe87a2a97e" x="463.676447" y="325.419173" style="fill: #dd2a25; stroke: #dd2a25; stroke-linejoin: bevel"/>
     <use xlink:href="#mfe87a2a97e" x="574.570959" y="286.164969" style="fill: #dd2a25; stroke: #dd2a25; stroke-linejoin: bevel"/>
     <use xlink:href="#mfe87a2a97e" x="685.465471" y="227.205741" style="fill: #dd2a25; stroke: #dd2a25; stroke-linejoin: bevel"/>
    </g>
   </g>
   <g id="line2d_77">
    <path d="M 494.242794 316.22004 
L 605.137306 255.84037 
L 716.031818 173.255832 
" clip-path="url(#p9850f1d1b9)" style="fill: none; stroke: #f85f43; stroke-width: 2; stroke-linecap: square"/>
    <defs>
     <path id="m5d957ae8c3" d="M 0 -7 
L -1.571598 -2.163119 
L -6.657396 -2.163119 
L -2.542899 0.826238 
L -4.114497 5.663119 
L -0 2.673762 
L 4.114497 5.663119 
L 2.542899 0.826238 
L 6.657396 -2.163119 
L 1.571598 -2.163119 
z
" style="stroke: #f85f43; stroke-linejoin: bevel"/>
    </defs>
    <g clip-path="url(#p9850f1d1b9)">
     <use xlink:href="#m5d957ae8c3" x="494.242794" y="316.22004" style="fill: #f85f43; stroke: #f85f43; stroke-linejoin: bevel"/>
     <use xlink:href="#m5d957ae8c3" x="605.137306" y="255.84037" style="fill: #f85f43; stroke: #f85f43; stroke-linejoin: bevel"/>
     <use xlink:href="#m5d957ae8c3" x="716.031818" y="173.255832" style="fill: #f85f43; stroke: #f85f43; stroke-linejoin: bevel"/>
    </g>
   </g>
   <g id="patch_3">
    <path d="M 103.5 446.4 
L 103.5 86.4 
" style="fill: none; stroke: #000000; stroke-width: 0.8; stroke-linejoin: miter; stroke-linecap: square"/>
   </g>
   <g id="patch_4">
    <path d="M 745.2 446.4 
L 745.2 86.4 
" style="fill: none; stroke: #000000; stroke-width: 0.8; stroke-linejoin: miter; stroke-linecap: square"/>
   </g>
   <g id="patch_5">
    <path d="M 103.5 446.4 
L 745.2 446.4 
" style="fill: none; stroke: #000000; stroke-width: 0.8; stroke-linejoin: miter; stroke-linecap: square"/>
   </g>
   <g id="patch_6">
    <path d="M 103.5 86.4 
L 745.2 86.4 
" style="fill: none; stroke: #000000; stroke-width: 0.8; stroke-linejoin: miter; stroke-linecap: square"/>
   </g>
   <g id="legend_1">
    <g id="patch_7">
     <path d="M 180.75 686.759375 
L 667.95 686.759375 
Q 671.95 686.759375 671.95 682.759375 
L 671.95 514.4 
Q 671.95 510.4 667.95 510.4 
L 180.75 510.4 
Q 176.75 510.4 176.75 514.4 
L 176.75 682.759375 
Q 176.75 686.759375 180.75 686.759375 
z
" style="fill: #ffffff; stroke: #cccccc; stroke-linejoin: miter"/>
    </g>
    <g id="line2d_78">
     <path d="M 184.75 530 
L 204.75 530 
L 224.75 530 
" style="fill: none; stroke-dasharray: 2,3.3; stroke-dashoffset: 0; stroke: #ff1493; stroke-width: 2"/>
     <g>
      <use xlink:href="#m265ad4c85a" x="204.75" y="530" style="fill: #ff1493; stroke: #ff1493; stroke-linejoin: miter"/>
     </g>
    </g>
    <g id="text_6">
     <!-- FV-C++ -->
     <g transform="translate(240.75 537) scale(0.2 -0.2)">
      <defs>
       <path id="DejaVuSans-46" d="M 628 4666 
L 3309 4666 
L 3309 4134 
L 1259 4134 
L 1259 2759 
L 3109 2759 
L 3109 2228 
L 1259 2228 
L 1259 0 
L 628 0 
L 628 4666 
z
" transform="scale(0.015625)"/>
       <path id="DejaVuSans-56" d="M 1831 0 
L 50 4666 
L 709 4666 
L 2188 738 
L 3669 4666 
L 4325 4666 
L 2547 0 
L 1831 0 
z
" transform="scale(0.015625)"/>
       <path id="DejaVuSans-2d" d="M 313 2009 
L 1997 2009 
L 1997 1497 
L 313 1497 
L 313 2009 
z
" transform="scale(0.015625)"/>
       <path id="DejaVuSans-2b" d="M 2944 4013 
L 2944 2272 
L 4684 2272 
L 4684 1741 
L 2944 1741 
L 2944 0 
L 2419 0 
L 2419 1741 
L 678 1741 
L 678 2272 
L 2419 2272 
L 2419 4013 
L 2944 4013 
z
" transform="scale(0.015625)"/>
      </defs>
      <use xlink:href="#DejaVuSans-46"/>
      <use xlink:href="#DejaVuSans-56" x="57.519531"/>
      <use xlink:href="#DejaVuSans-2d" x="120.052734"/>
      <use xlink:href="#DejaVuSans-43" x="156.136719"/>
      <use xlink:href="#DejaVuSans-2b" x="225.960938"/>
      <use xlink:href="#DejaVuSans-2b" x="309.75"/>
     </g>
    </g>
    <g id="line2d_79">
     <path d="M 184.75 562.759375 
L 204.75 562.759375 
L 224.75 562.759375 
" style="fill: none; stroke-dasharray: 7.4,3.2; stroke-dashoffset: 0; stroke: #3f007d; stroke-width: 2"/>
     <g>
      <use xlink:href="#me2a5f8cb3b" x="204.75" y="562.759375" style="fill: #3f007d; stroke: #3f007d"/>
     </g>
    </g>
    <g id="text_7">
     <!-- DG-Julia, $N_d^p$=4 -->
     <g transform="translate(240.75 569.759375) scale(0.2 -0.2)">
      <defs>
       <path id="DejaVuSans-47" d="M 3809 666 
L 3809 1919 
L 2778 1919 
L 2778 2438 
L 4434 2438 
L 4434 434 
Q 4069 175 3628 42 
Q 3188 -91 2688 -91 
Q 1594 -91 976 548 
Q 359 1188 359 2328 
Q 359 3472 976 4111 
Q 1594 4750 2688 4750 
Q 3144 4750 3555 4637 
Q 3966 4525 4313 4306 
L 4313 3634 
Q 3963 3931 3569 4081 
Q 3175 4231 2741 4231 
Q 1884 4231 1454 3753 
Q 1025 3275 1025 2328 
Q 1025 1384 1454 906 
Q 1884 428 2741 428 
Q 3075 428 3337 486 
Q 3600 544 3809 666 
z
" transform="scale(0.015625)"/>
       <path id="DejaVuSans-4a" d="M 628 4666 
L 1259 4666 
L 1259 325 
Q 1259 -519 939 -900 
Q 619 -1281 -91 -1281 
L -331 -1281 
L -331 -750 
L -134 -750 
Q 284 -750 456 -515 
Q 628 -281 628 325 
L 628 4666 
z
" transform="scale(0.015625)"/>
       <path id="DejaVuSans-6c" d="M 603 4863 
L 1178 4863 
L 1178 0 
L 603 0 
L 603 4863 
z
" transform="scale(0.015625)"/>
       <path id="DejaVuSans-61" d="M 2194 1759 
Q 1497 1759 1228 1600 
Q 959 1441 959 1056 
Q 959 750 1161 570 
Q 1363 391 1709 391 
Q 2188 391 2477 730 
Q 2766 1069 2766 1631 
L 2766 1759 
L 2194 1759 
z
M 3341 1997 
L 3341 0 
L 2766 0 
L 2766 531 
Q 2569 213 2275 61 
Q 1981 -91 1556 -91 
Q 1019 -91 701 211 
Q 384 513 384 1019 
Q 384 1609 779 1909 
Q 1175 2209 1959 2209 
L 2766 2209 
L 2766 2266 
Q 2766 2663 2505 2880 
Q 2244 3097 1772 3097 
Q 1472 3097 1187 3025 
Q 903 2953 641 2809 
L 641 3341 
Q 956 3463 1253 3523 
Q 1550 3584 1831 3584 
Q 2591 3584 2966 3190 
Q 3341 2797 3341 1997 
z
" transform="scale(0.015625)"/>
       <path id="DejaVuSans-2c" d="M 750 794 
L 1409 794 
L 1409 256 
L 897 -744 
L 494 -744 
L 750 256 
L 750 794 
z
" transform="scale(0.015625)"/>
       <path id="DejaVuSans-Oblique-4e" d="M 1081 4666 
L 1931 4666 
L 3219 666 
L 4000 4666 
L 4616 4666 
L 3706 0 
L 2853 0 
L 1569 4025 
L 788 0 
L 172 0 
L 1081 4666 
z
" transform="scale(0.015625)"/>
       <path id="DejaVuSans-Oblique-70" d="M 3175 2156 
Q 3175 2616 2975 2859 
Q 2775 3103 2400 3103 
Q 2144 3103 1911 2972 
Q 1678 2841 1497 2591 
Q 1319 2344 1212 1994 
Q 1106 1644 1106 1300 
Q 1106 863 1306 627 
Q 1506 391 1875 391 
Q 2147 391 2380 519 
Q 2613 647 2778 891 
Q 2956 1147 3065 1494 
Q 3175 1841 3175 2156 
z
M 1394 2969 
Q 1625 3272 1939 3428 
Q 2253 3584 2638 3584 
Q 3175 3584 3472 3232 
Q 3769 2881 3769 2247 
Q 3769 1728 3584 1258 
Q 3400 788 3053 416 
Q 2822 169 2531 39 
Q 2241 -91 1919 -91 
Q 1547 -91 1294 64 
Q 1041 219 916 525 
L 556 -1331 
L -19 -1331 
L 922 3500 
L 1497 3500 
L 1394 2969 
z
" transform="scale(0.015625)"/>
       <path id="DejaVuSans-Oblique-64" d="M 2675 525 
Q 2444 222 2128 65 
Q 1813 -91 1428 -91 
Q 903 -91 598 267 
Q 294 625 294 1247 
Q 294 1766 478 2236 
Q 663 2706 1013 3078 
Q 1244 3325 1534 3454 
Q 1825 3584 2144 3584 
Q 2481 3584 2739 3421 
Q 2997 3259 3138 2956 
L 3513 4863 
L 4091 4863 
L 3144 0 
L 2566 0 
L 2675 525 
z
M 891 1350 
Q 891 897 1095 644 
Q 1300 391 1663 391 
Q 1931 391 2161 520 
Q 2391 650 2566 903 
Q 2750 1166 2856 1509 
Q 2963 1853 2963 2188 
Q 2963 2622 2758 2865 
Q 2553 3109 2194 3109 
Q 1922 3109 1687 2981 
Q 1453 2853 1288 2613 
Q 1106 2353 998 2009 
Q 891 1666 891 1350 
z
" transform="scale(0.015625)"/>
       <path id="DejaVuSans-3d" d="M 678 2906 
L 4684 2906 
L 4684 2381 
L 678 2381 
L 678 2906 
z
M 678 1631 
L 4684 1631 
L 4684 1100 
L 678 1100 
L 678 1631 
z
" transform="scale(0.015625)"/>
       <path id="DejaVuSans-34" d="M 2419 4116 
L 825 1625 
L 2419 1625 
L 2419 4116 
z
M 2253 4666 
L 3047 4666 
L 3047 1625 
L 3713 1625 
L 3713 1100 
L 3047 1100 
L 3047 0 
L 2419 0 
L 2419 1100 
L 313 1100 
L 313 1709 
L 2253 4666 
z
" transform="scale(0.015625)"/>
      </defs>
      <use xlink:href="#DejaVuSans-44" transform="translate(0 0.896875)"/>
      <use xlink:href="#DejaVuSans-47" transform="translate(77.001953 0.896875)"/>
      <use xlink:href="#DejaVuSans-2d" transform="translate(154.492188 0.896875)"/>
      <use xlink:href="#DejaVuSans-4a" transform="translate(190.576172 0.896875)"/>
      <use xlink:href="#DejaVuSans-75" transform="translate(220.068359 0.896875)"/>
      <use xlink:href="#DejaVuSans-6c" transform="translate(283.447266 0.896875)"/>
      <use xlink:href="#DejaVuSans-69" transform="translate(311.230469 0.896875)"/>
      <use xlink:href="#DejaVuSans-61" transform="translate(339.013672 0.896875)"/>
      <use xlink:href="#DejaVuSans-2c" transform="translate(400.292969 0.896875)"/>
      <use xlink:href="#DejaVuSans-20" transform="translate(432.080078 0.896875)"/>
      <use xlink:href="#DejaVuSans-Oblique-4e" transform="translate(463.867188 0.896875)"/>
      <use xlink:href="#DejaVuSans-Oblique-70" transform="translate(545.688646 53.8) scale(0.7)"/>
      <use xlink:href="#DejaVuSans-Oblique-64" transform="translate(538.671875 -26.446875) scale(0.7)"/>
      <use xlink:href="#DejaVuSans-3d" transform="translate(592.856615 0.896875)"/>
      <use xlink:href="#DejaVuSans-34" transform="translate(676.645677 0.896875)"/>
     </g>
    </g>
    <g id="line2d_80">
     <path d="M 184.75 597.159375 
L 204.75 597.159375 
L 224.75 597.159375 
" style="fill: none; stroke-dasharray: 7.4,3.2; stroke-dashoffset: 0; stroke: #53258e; stroke-width: 2"/>
     <g>
      <use xlink:href="#m6fde43ab60" x="204.75" y="597.159375" style="fill: #53258e; stroke: #53258e"/>
     </g>
    </g>
    <g id="text_8">
     <!-- DG-Julia, $N_d^p$=6 -->
     <g transform="translate(240.75 604.159375) scale(0.2 -0.2)">
      <defs>
       <path id="DejaVuSans-36" d="M 2113 2584 
Q 1688 2584 1439 2293 
Q 1191 2003 1191 1497 
Q 1191 994 1439 701 
Q 1688 409 2113 409 
Q 2538 409 2786 701 
Q 3034 994 3034 1497 
Q 3034 2003 2786 2293 
Q 2538 2584 2113 2584 
z
M 3366 4563 
L 3366 3988 
Q 3128 4100 2886 4159 
Q 2644 4219 2406 4219 
Q 1781 4219 1451 3797 
Q 1122 3375 1075 2522 
Q 1259 2794 1537 2939 
Q 1816 3084 2150 3084 
Q 2853 3084 3261 2657 
Q 3669 2231 3669 1497 
Q 3669 778 3244 343 
Q 2819 -91 2113 -91 
Q 1303 -91 875 529 
Q 447 1150 447 2328 
Q 447 3434 972 4092 
Q 1497 4750 2381 4750 
Q 2619 4750 2861 4703 
Q 3103 4656 3366 4563 
z
" transform="scale(0.015625)"/>
      </defs>
      <use xlink:href="#DejaVuSans-44" transform="translate(0 0.896875)"/>
      <use xlink:href="#DejaVuSans-47" transform="translate(77.001953 0.896875)"/>
      <use xlink:href="#DejaVuSans-2d" transform="translate(154.492188 0.896875)"/>
      <use xlink:href="#DejaVuSans-4a" transform="translate(190.576172 0.896875)"/>
      <use xlink:href="#DejaVuSans-75" transform="translate(220.068359 0.896875)"/>
      <use xlink:href="#DejaVuSans-6c" transform="translate(283.447266 0.896875)"/>
      <use xlink:href="#DejaVuSans-69" transform="translate(311.230469 0.896875)"/>
      <use xlink:href="#DejaVuSans-61" transform="translate(339.013672 0.896875)"/>
      <use xlink:href="#DejaVuSans-2c" transform="translate(400.292969 0.896875)"/>
      <use xlink:href="#DejaVuSans-20" transform="translate(432.080078 0.896875)"/>
      <use xlink:href="#DejaVuSans-Oblique-4e" transform="translate(463.867188 0.896875)"/>
      <use xlink:href="#DejaVuSans-Oblique-70" transform="translate(545.688646 53.8) scale(0.7)"/>
      <use xlink:href="#DejaVuSans-Oblique-64" transform="translate(538.671875 -26.446875) scale(0.7)"/>
      <use xlink:href="#DejaVuSans-3d" transform="translate(592.856615 0.896875)"/>
      <use xlink:href="#DejaVuSans-36" transform="translate(676.645677 0.896875)"/>
     </g>
    </g>
    <g id="line2d_81">
     <path d="M 184.75 631.559375 
L 204.75 631.559375 
L 224.75 631.559375 
" style="fill: none; stroke-dasharray: 7.4,3.2; stroke-dashoffset: 0; stroke: #674ca1; stroke-width: 2"/>
     <g>
      <use xlink:href="#m01bae72421" x="204.75" y="631.559375" style="fill: #674ca1; stroke: #674ca1"/>
     </g>
    </g>
    <g id="text_9">
     <!-- DG-Julia, $N_d^p$=8 -->
     <g transform="translate(240.75 638.559375) scale(0.2 -0.2)">
      <defs>
       <path id="DejaVuSans-38" d="M 2034 2216 
Q 1584 2216 1326 1975 
Q 1069 1734 1069 1313 
Q 1069 891 1326 650 
Q 1584 409 2034 409 
Q 2484 409 2743 651 
Q 3003 894 3003 1313 
Q 3003 1734 2745 1975 
Q 2488 2216 2034 2216 
z
M 1403 2484 
Q 997 2584 770 2862 
Q 544 3141 544 3541 
Q 544 4100 942 4425 
Q 1341 4750 2034 4750 
Q 2731 4750 3128 4425 
Q 3525 4100 3525 3541 
Q 3525 3141 3298 2862 
Q 3072 2584 2669 2484 
Q 3125 2378 3379 2068 
Q 3634 1759 3634 1313 
Q 3634 634 3220 271 
Q 2806 -91 2034 -91 
Q 1263 -91 848 271 
Q 434 634 434 1313 
Q 434 1759 690 2068 
Q 947 2378 1403 2484 
z
M 1172 3481 
Q 1172 3119 1398 2916 
Q 1625 2713 2034 2713 
Q 2441 2713 2670 2916 
Q 2900 3119 2900 3481 
Q 2900 3844 2670 4047 
Q 2441 4250 2034 4250 
Q 1625 4250 1398 4047 
Q 1172 3844 1172 3481 
z
" transform="scale(0.015625)"/>
      </defs>
      <use xlink:href="#DejaVuSans-44" transform="translate(0 0.896875)"/>
      <use xlink:href="#DejaVuSans-47" transform="translate(77.001953 0.896875)"/>
      <use xlink:href="#DejaVuSans-2d" transform="translate(154.492188 0.896875)"/>
      <use xlink:href="#DejaVuSans-4a" transform="translate(190.576172 0.896875)"/>
      <use xlink:href="#DejaVuSans-75" transform="translate(220.068359 0.896875)"/>
      <use xlink:href="#DejaVuSans-6c" transform="translate(283.447266 0.896875)"/>
      <use xlink:href="#DejaVuSans-69" transform="translate(311.230469 0.896875)"/>
      <use xlink:href="#DejaVuSans-61" transform="translate(339.013672 0.896875)"/>
      <use xlink:href="#DejaVuSans-2c" transform="translate(400.292969 0.896875)"/>
      <use xlink:href="#DejaVuSans-20" transform="translate(432.080078 0.896875)"/>
      <use xlink:href="#DejaVuSans-Oblique-4e" transform="translate(463.867188 0.896875)"/>
      <use xlink:href="#DejaVuSans-Oblique-70" transform="translate(545.688646 53.8) scale(0.7)"/>
      <use xlink:href="#DejaVuSans-Oblique-64" transform="translate(538.671875 -26.446875) scale(0.7)"/>
      <use xlink:href="#DejaVuSans-3d" transform="translate(592.856615 0.896875)"/>
      <use xlink:href="#DejaVuSans-38" transform="translate(676.645677 0.896875)"/>
     </g>
    </g>
    <g id="line2d_82">
     <path d="M 184.75 665.959375 
L 204.75 665.959375 
L 224.75 665.959375 
" style="fill: none; stroke-dasharray: 7.4,3.2; stroke-dashoffset: 0; stroke: #7c75b6; stroke-width: 2"/>
     <g>
      <use xlink:href="#m8239d8aae5" x="204.75" y="665.959375" style="fill: #7c75b6; stroke: #7c75b6"/>
     </g>
    </g>
    <g id="text_10">
     <!-- DG-Julia, $N_d^p$=10 -->
     <g transform="translate(240.75 672.959375) scale(0.2 -0.2)">
      <use xlink:href="#DejaVuSans-44" transform="translate(0 0.896875)"/>
      <use xlink:href="#DejaVuSans-47" transform="translate(77.001953 0.896875)"/>
      <use xlink:href="#DejaVuSans-2d" transform="translate(154.492188 0.896875)"/>
      <use xlink:href="#DejaVuSans-4a" transform="translate(190.576172 0.896875)"/>
      <use xlink:href="#DejaVuSans-75" transform="translate(220.068359 0.896875)"/>
      <use xlink:href="#DejaVuSans-6c" transform="translate(283.447266 0.896875)"/>
      <use xlink:href="#DejaVuSans-69" transform="translate(311.230469 0.896875)"/>
      <use xlink:href="#DejaVuSans-61" transform="translate(339.013672 0.896875)"/>
      <use xlink:href="#DejaVuSans-2c" transform="translate(400.292969 0.896875)"/>
      <use xlink:href="#DejaVuSans-20" transform="translate(432.080078 0.896875)"/>
      <use xlink:href="#DejaVuSans-Oblique-4e" transform="translate(463.867188 0.896875)"/>
      <use xlink:href="#DejaVuSans-Oblique-70" transform="translate(545.688646 53.8) scale(0.7)"/>
      <use xlink:href="#DejaVuSans-Oblique-64" transform="translate(538.671875 -26.446875) scale(0.7)"/>
      <use xlink:href="#DejaVuSans-3d" transform="translate(592.856615 0.896875)"/>
      <use xlink:href="#DejaVuSans-31" transform="translate(676.645677 0.896875)"/>
      <use xlink:href="#DejaVuSans-30" transform="translate(740.268724 0.896875)"/>
     </g>
    </g>
    <g id="line2d_83">
     <path d="M 441.55 530 
L 461.55 530 
L 481.55 530 
" style="fill: none; stroke: #67000d; stroke-width: 2; stroke-linecap: square"/>
     <g>
      <use xlink:href="#ma2bc29b75f" x="461.55" y="530" style="fill: #67000d; stroke: #67000d; stroke-linejoin: bevel"/>
     </g>
    </g>
    <g id="text_11">
     <!-- DG-C++, $N_d^p$=4 -->
     <g transform="translate(497.55 537) scale(0.2 -0.2)">
      <use xlink:href="#DejaVuSans-44" transform="translate(0 0.896875)"/>
      <use xlink:href="#DejaVuSans-47" transform="translate(77.001953 0.896875)"/>
      <use xlink:href="#DejaVuSans-2d" transform="translate(154.492188 0.896875)"/>
      <use xlink:href="#DejaVuSans-43" transform="translate(190.576172 0.896875)"/>
      <use xlink:href="#DejaVuSans-2b" transform="translate(260.400391 0.896875)"/>
      <use xlink:href="#DejaVuSans-2b" transform="translate(344.189453 0.896875)"/>
      <use xlink:href="#DejaVuSans-2c" transform="translate(427.978516 0.896875)"/>
      <use xlink:href="#DejaVuSans-20" transform="translate(459.765625 0.896875)"/>
      <use xlink:href="#DejaVuSans-Oblique-4e" transform="translate(491.552734 0.896875)"/>
      <use xlink:href="#DejaVuSans-Oblique-70" transform="translate(573.374193 53.8) scale(0.7)"/>
      <use xlink:href="#DejaVuSans-Oblique-64" transform="translate(566.357422 -26.446875) scale(0.7)"/>
      <use xlink:href="#DejaVuSans-3d" transform="translate(620.542161 0.896875)"/>
      <use xlink:href="#DejaVuSans-34" transform="translate(704.331224 0.896875)"/>
     </g>
    </g>
    <g id="line2d_84">
     <path d="M 441.55 564.4 
L 461.55 564.4 
L 481.55 564.4 
" style="fill: none; stroke: #af1117; stroke-width: 2; stroke-linecap: square"/>
     <g>
      <use xlink:href="#m29854b8c60" x="461.55" y="564.4" style="fill: #af1117; stroke: #af1117; stroke-linejoin: bevel"/>
     </g>
    </g>
    <g id="text_12">
     <!-- DG-C++, $N_d^p$=6 -->
     <g transform="translate(497.55 571.4) scale(0.2 -0.2)">
      <use xlink:href="#DejaVuSans-44" transform="translate(0 0.896875)"/>
      <use xlink:href="#DejaVuSans-47" transform="translate(77.001953 0.896875)"/>
      <use xlink:href="#DejaVuSans-2d" transform="translate(154.492188 0.896875)"/>
      <use xlink:href="#DejaVuSans-43" transform="translate(190.576172 0.896875)"/>
      <use xlink:href="#DejaVuSans-2b" transform="translate(260.400391 0.896875)"/>
      <use xlink:href="#DejaVuSans-2b" transform="translate(344.189453 0.896875)"/>
      <use xlink:href="#DejaVuSans-2c" transform="translate(427.978516 0.896875)"/>
      <use xlink:href="#DejaVuSans-20" transform="translate(459.765625 0.896875)"/>
      <use xlink:href="#DejaVuSans-Oblique-4e" transform="translate(491.552734 0.896875)"/>
      <use xlink:href="#DejaVuSans-Oblique-70" transform="translate(573.374193 53.8) scale(0.7)"/>
      <use xlink:href="#DejaVuSans-Oblique-64" transform="translate(566.357422 -26.446875) scale(0.7)"/>
      <use xlink:href="#DejaVuSans-3d" transform="translate(620.542161 0.896875)"/>
      <use xlink:href="#DejaVuSans-36" transform="translate(704.331224 0.896875)"/>
     </g>
    </g>
    <g id="line2d_85">
     <path d="M 441.55 598.8 
L 461.55 598.8 
L 481.55 598.8 
" style="fill: none; stroke: #dd2a25; stroke-width: 2; stroke-linecap: square"/>
     <g>
      <use xlink:href="#mfe87a2a97e" x="461.55" y="598.8" style="fill: #dd2a25; stroke: #dd2a25; stroke-linejoin: bevel"/>
     </g>
    </g>
    <g id="text_13">
     <!-- DG-C++, $N_d^p$=8 -->
     <g transform="translate(497.55 605.8) scale(0.2 -0.2)">
      <use xlink:href="#DejaVuSans-44" transform="translate(0 0.896875)"/>
      <use xlink:href="#DejaVuSans-47" transform="translate(77.001953 0.896875)"/>
      <use xlink:href="#DejaVuSans-2d" transform="translate(154.492188 0.896875)"/>
      <use xlink:href="#DejaVuSans-43" transform="translate(190.576172 0.896875)"/>
      <use xlink:href="#DejaVuSans-2b" transform="translate(260.400391 0.896875)"/>
      <use xlink:href="#DejaVuSans-2b" transform="translate(344.189453 0.896875)"/>
      <use xlink:href="#DejaVuSans-2c" transform="translate(427.978516 0.896875)"/>
      <use xlink:href="#DejaVuSans-20" transform="translate(459.765625 0.896875)"/>
      <use xlink:href="#DejaVuSans-Oblique-4e" transform="translate(491.552734 0.896875)"/>
      <use xlink:href="#DejaVuSans-Oblique-70" transform="translate(573.374193 53.8) scale(0.7)"/>
      <use xlink:href="#DejaVuSans-Oblique-64" transform="translate(566.357422 -26.446875) scale(0.7)"/>
      <use xlink:href="#DejaVuSans-3d" transform="translate(620.542161 0.896875)"/>
      <use xlink:href="#DejaVuSans-38" transform="translate(704.331224 0.896875)"/>
     </g>
    </g>
    <g id="line2d_86">
     <path d="M 441.55 633.2 
L 461.55 633.2 
L 481.55 633.2 
" style="fill: none; stroke: #f85f43; stroke-width: 2; stroke-linecap: square"/>
     <g>
      <use xlink:href="#m5d957ae8c3" x="461.55" y="633.2" style="fill: #f85f43; stroke: #f85f43; stroke-linejoin: bevel"/>
     </g>
    </g>
    <g id="text_14">
     <!-- DG-C++, $N_d^p$=10 -->
     <g transform="translate(497.55 640.2) scale(0.2 -0.2)">
      <use xlink:href="#DejaVuSans-44" transform="translate(0 0.896875)"/>
      <use xlink:href="#DejaVuSans-47" transform="translate(77.001953 0.896875)"/>
      <use xlink:href="#DejaVuSans-2d" transform="translate(154.492188 0.896875)"/>
      <use xlink:href="#DejaVuSans-43" transform="translate(190.576172 0.896875)"/>
      <use xlink:href="#DejaVuSans-2b" transform="translate(260.400391 0.896875)"/>
      <use xlink:href="#DejaVuSans-2b" transform="translate(344.189453 0.896875)"/>
      <use xlink:href="#DejaVuSans-2c" transform="translate(427.978516 0.896875)"/>
      <use xlink:href="#DejaVuSans-20" transform="translate(459.765625 0.896875)"/>
      <use xlink:href="#DejaVuSans-Oblique-4e" transform="translate(491.552734 0.896875)"/>
      <use xlink:href="#DejaVuSans-Oblique-70" transform="translate(573.374193 53.8) scale(0.7)"/>
      <use xlink:href="#DejaVuSans-Oblique-64" transform="translate(566.357422 -26.446875) scale(0.7)"/>
      <use xlink:href="#DejaVuSans-3d" transform="translate(620.542161 0.896875)"/>
      <use xlink:href="#DejaVuSans-31" transform="translate(704.331224 0.896875)"/>
      <use xlink:href="#DejaVuSans-30" transform="translate(767.954271 0.896875)"/>
     </g>
    </g>
   </g>
  </g>
 </g>
 <defs>
  <clipPath id="p9850f1d1b9">
   <rect x="103.5" y="86.4" width="641.7" height="360"/>
  </clipPath>
 </defs>
</svg>
