<?xml version="1.0" encoding="utf-8" standalone="no"?>
<!DOCTYPE svg PUBLIC "-//W3C//DTD SVG 1.1//EN"
  "http://www.w3.org/Graphics/SVG/1.1/DTD/svg11.dtd">
<svg xmlns:xlink="http://www.w3.org/1999/xlink" width="432pt" height="288pt" viewBox="0 0 432 288" xmlns="http://www.w3.org/2000/svg" version="1.1">
 <metadata>
  <rdf:RDF xmlns:dc="http://purl.org/dc/elements/1.1/" xmlns:cc="http://creativecommons.org/ns#" xmlns:rdf="http://www.w3.org/1999/02/22-rdf-syntax-ns#">
   <cc:Work>
    <dc:type rdf:resource="http://purl.org/dc/dcmitype/StillImage"/>
    <dc:date>2024-10-07T10:56:21.852190</dc:date>
    <dc:format>image/svg+xml</dc:format>
    <dc:creator>
     <cc:Agent>
      <dc:title>Matplotlib v3.9.1, https://matplotlib.org/</dc:title>
     </cc:Agent>
    </dc:creator>
   </cc:Work>
  </rdf:RDF>
 </metadata>
 <defs>
  <style type="text/css">*{stroke-linejoin: round; stroke-linecap: butt}</style>
 </defs>
 <g id="figure_1">
  <g id="patch_1">
   <path d="M 0 288 
L 432 288 
L 432 0 
L 0 0 
z
" style="fill: #ffffff"/>
  </g>
  <g id="axes_1">
   <g id="patch_2">
    <path d="M 54 252 
L 388.8 252 
L 388.8 34.56 
L 54 34.56 
z
" style="fill: #ffffff"/>
   </g>
   <g id="matplotlib.axis_1">
    <g id="xtick_1">
     <g id="line2d_1">
      <defs>
       <path id="m48a0786567" d="M 0 0 
L 0 3.5 
" style="stroke: #000000; stroke-width: 0.8"/>
      </defs>
      <g>
       <use xlink:href="#m48a0786567" x="69.218182" y="252" style="stroke: #000000; stroke-width: 0.8"/>
      </g>
     </g>
     <g id="text_1">
      <!-- 0 -->
      <g transform="translate(66.036932 266.598437) scale(0.1 -0.1)">
       <defs>
        <path id="DejaVuSans-30" d="M 2034 4250 
Q 1547 4250 1301 3770 
Q 1056 3291 1056 2328 
Q 1056 1369 1301 889 
Q 1547 409 2034 409 
Q 2525 409 2770 889 
Q 3016 1369 3016 2328 
Q 3016 3291 2770 3770 
Q 2525 4250 2034 4250 
z
M 2034 4750 
Q 2819 4750 3233 4129 
Q 3647 3509 3647 2328 
Q 3647 1150 3233 529 
Q 2819 -91 2034 -91 
Q 1250 -91 836 529 
Q 422 1150 422 2328 
Q 422 3509 836 4129 
Q 1250 4750 2034 4750 
z
" transform="scale(0.015625)"/>
       </defs>
       <use xlink:href="#DejaVuSans-30"/>
      </g>
     </g>
    </g>
    <g id="xtick_2">
     <g id="line2d_2">
      <g>
       <use xlink:href="#m48a0786567" x="111.490909" y="252" style="stroke: #000000; stroke-width: 0.8"/>
      </g>
     </g>
     <g id="text_2">
      <!-- 2000 -->
      <g transform="translate(98.765909 266.598437) scale(0.1 -0.1)">
       <defs>
        <path id="DejaVuSans-32" d="M 1228 531 
L 3431 531 
L 3431 0 
L 469 0 
L 469 531 
Q 828 903 1448 1529 
Q 2069 2156 2228 2338 
Q 2531 2678 2651 2914 
Q 2772 3150 2772 3378 
Q 2772 3750 2511 3984 
Q 2250 4219 1831 4219 
Q 1534 4219 1204 4116 
Q 875 4013 500 3803 
L 500 4441 
Q 881 4594 1212 4672 
Q 1544 4750 1819 4750 
Q 2544 4750 2975 4387 
Q 3406 4025 3406 3419 
Q 3406 3131 3298 2873 
Q 3191 2616 2906 2266 
Q 2828 2175 2409 1742 
Q 1991 1309 1228 531 
z
" transform="scale(0.015625)"/>
       </defs>
       <use xlink:href="#DejaVuSans-32"/>
       <use xlink:href="#DejaVuSans-30" x="63.623047"/>
       <use xlink:href="#DejaVuSans-30" x="127.246094"/>
       <use xlink:href="#DejaVuSans-30" x="190.869141"/>
      </g>
     </g>
    </g>
    <g id="xtick_3">
     <g id="line2d_3">
      <g>
       <use xlink:href="#m48a0786567" x="153.763636" y="252" style="stroke: #000000; stroke-width: 0.8"/>
      </g>
     </g>
     <g id="text_3">
      <!-- 4000 -->
      <g transform="translate(141.038636 266.598437) scale(0.1 -0.1)">
       <defs>
        <path id="DejaVuSans-34" d="M 2419 4116 
L 825 1625 
L 2419 1625 
L 2419 4116 
z
M 2253 4666 
L 3047 4666 
L 3047 1625 
L 3713 1625 
L 3713 1100 
L 3047 1100 
L 3047 0 
L 2419 0 
L 2419 1100 
L 313 1100 
L 313 1709 
L 2253 4666 
z
" transform="scale(0.015625)"/>
       </defs>
       <use xlink:href="#DejaVuSans-34"/>
       <use xlink:href="#DejaVuSans-30" x="63.623047"/>
       <use xlink:href="#DejaVuSans-30" x="127.246094"/>
       <use xlink:href="#DejaVuSans-30" x="190.869141"/>
      </g>
     </g>
    </g>
    <g id="xtick_4">
     <g id="line2d_4">
      <g>
       <use xlink:href="#m48a0786567" x="196.036364" y="252" style="stroke: #000000; stroke-width: 0.8"/>
      </g>
     </g>
     <g id="text_4">
      <!-- 6000 -->
      <g transform="translate(183.311364 266.598437) scale(0.1 -0.1)">
       <defs>
        <path id="DejaVuSans-36" d="M 2113 2584 
Q 1688 2584 1439 2293 
Q 1191 2003 1191 1497 
Q 1191 994 1439 701 
Q 1688 409 2113 409 
Q 2538 409 2786 701 
Q 3034 994 3034 1497 
Q 3034 2003 2786 2293 
Q 2538 2584 2113 2584 
z
M 3366 4563 
L 3366 3988 
Q 3128 4100 2886 4159 
Q 2644 4219 2406 4219 
Q 1781 4219 1451 3797 
Q 1122 3375 1075 2522 
Q 1259 2794 1537 2939 
Q 1816 3084 2150 3084 
Q 2853 3084 3261 2657 
Q 3669 2231 3669 1497 
Q 3669 778 3244 343 
Q 2819 -91 2113 -91 
Q 1303 -91 875 529 
Q 447 1150 447 2328 
Q 447 3434 972 4092 
Q 1497 4750 2381 4750 
Q 2619 4750 2861 4703 
Q 3103 4656 3366 4563 
z
" transform="scale(0.015625)"/>
       </defs>
       <use xlink:href="#DejaVuSans-36"/>
       <use xlink:href="#DejaVuSans-30" x="63.623047"/>
       <use xlink:href="#DejaVuSans-30" x="127.246094"/>
       <use xlink:href="#DejaVuSans-30" x="190.869141"/>
      </g>
     </g>
    </g>
    <g id="xtick_5">
     <g id="line2d_5">
      <g>
       <use xlink:href="#m48a0786567" x="238.309091" y="252" style="stroke: #000000; stroke-width: 0.8"/>
      </g>
     </g>
     <g id="text_5">
      <!-- 8000 -->
      <g transform="translate(225.584091 266.598437) scale(0.1 -0.1)">
       <defs>
        <path id="DejaVuSans-38" d="M 2034 2216 
Q 1584 2216 1326 1975 
Q 1069 1734 1069 1313 
Q 1069 891 1326 650 
Q 1584 409 2034 409 
Q 2484 409 2743 651 
Q 3003 894 3003 1313 
Q 3003 1734 2745 1975 
Q 2488 2216 2034 2216 
z
M 1403 2484 
Q 997 2584 770 2862 
Q 544 3141 544 3541 
Q 544 4100 942 4425 
Q 1341 4750 2034 4750 
Q 2731 4750 3128 4425 
Q 3525 4100 3525 3541 
Q 3525 3141 3298 2862 
Q 3072 2584 2669 2484 
Q 3125 2378 3379 2068 
Q 3634 1759 3634 1313 
Q 3634 634 3220 271 
Q 2806 -91 2034 -91 
Q 1263 -91 848 271 
Q 434 634 434 1313 
Q 434 1759 690 2068 
Q 947 2378 1403 2484 
z
M 1172 3481 
Q 1172 3119 1398 2916 
Q 1625 2713 2034 2713 
Q 2441 2713 2670 2916 
Q 2900 3119 2900 3481 
Q 2900 3844 2670 4047 
Q 2441 4250 2034 4250 
Q 1625 4250 1398 4047 
Q 1172 3844 1172 3481 
z
" transform="scale(0.015625)"/>
       </defs>
       <use xlink:href="#DejaVuSans-38"/>
       <use xlink:href="#DejaVuSans-30" x="63.623047"/>
       <use xlink:href="#DejaVuSans-30" x="127.246094"/>
       <use xlink:href="#DejaVuSans-30" x="190.869141"/>
      </g>
     </g>
    </g>
    <g id="xtick_6">
     <g id="line2d_6">
      <g>
       <use xlink:href="#m48a0786567" x="280.581818" y="252" style="stroke: #000000; stroke-width: 0.8"/>
      </g>
     </g>
     <g id="text_6">
      <!-- 10000 -->
      <g transform="translate(264.675568 266.598437) scale(0.1 -0.1)">
       <defs>
        <path id="DejaVuSans-31" d="M 794 531 
L 1825 531 
L 1825 4091 
L 703 3866 
L 703 4441 
L 1819 4666 
L 2450 4666 
L 2450 531 
L 3481 531 
L 3481 0 
L 794 0 
L 794 531 
z
" transform="scale(0.015625)"/>
       </defs>
       <use xlink:href="#DejaVuSans-31"/>
       <use xlink:href="#DejaVuSans-30" x="63.623047"/>
       <use xlink:href="#DejaVuSans-30" x="127.246094"/>
       <use xlink:href="#DejaVuSans-30" x="190.869141"/>
       <use xlink:href="#DejaVuSans-30" x="254.492188"/>
      </g>
     </g>
    </g>
    <g id="xtick_7">
     <g id="line2d_7">
      <g>
       <use xlink:href="#m48a0786567" x="322.854545" y="252" style="stroke: #000000; stroke-width: 0.8"/>
      </g>
     </g>
     <g id="text_7">
      <!-- 12000 -->
      <g transform="translate(306.948295 266.598437) scale(0.1 -0.1)">
       <use xlink:href="#DejaVuSans-31"/>
       <use xlink:href="#DejaVuSans-32" x="63.623047"/>
       <use xlink:href="#DejaVuSans-30" x="127.246094"/>
       <use xlink:href="#DejaVuSans-30" x="190.869141"/>
       <use xlink:href="#DejaVuSans-30" x="254.492188"/>
      </g>
     </g>
    </g>
    <g id="xtick_8">
     <g id="line2d_8">
      <g>
       <use xlink:href="#m48a0786567" x="365.127273" y="252" style="stroke: #000000; stroke-width: 0.8"/>
      </g>
     </g>
     <g id="text_8">
      <!-- 14000 -->
      <g transform="translate(349.221023 266.598437) scale(0.1 -0.1)">
       <use xlink:href="#DejaVuSans-31"/>
       <use xlink:href="#DejaVuSans-34" x="63.623047"/>
       <use xlink:href="#DejaVuSans-30" x="127.246094"/>
       <use xlink:href="#DejaVuSans-30" x="190.869141"/>
       <use xlink:href="#DejaVuSans-30" x="254.492188"/>
      </g>
     </g>
    </g>
    <g id="text_9">
     <!-- Time / s -->
     <g transform="translate(201.699219 280.276563) scale(0.1 -0.1)">
      <defs>
       <path id="DejaVuSans-54" d="M -19 4666 
L 3928 4666 
L 3928 4134 
L 2272 4134 
L 2272 0 
L 1638 0 
L 1638 4134 
L -19 4134 
L -19 4666 
z
" transform="scale(0.015625)"/>
       <path id="DejaVuSans-69" d="M 603 3500 
L 1178 3500 
L 1178 0 
L 603 0 
L 603 3500 
z
M 603 4863 
L 1178 4863 
L 1178 4134 
L 603 4134 
L 603 4863 
z
" transform="scale(0.015625)"/>
       <path id="DejaVuSans-6d" d="M 3328 2828 
Q 3544 3216 3844 3400 
Q 4144 3584 4550 3584 
Q 5097 3584 5394 3201 
Q 5691 2819 5691 2113 
L 5691 0 
L 5113 0 
L 5113 2094 
Q 5113 2597 4934 2840 
Q 4756 3084 4391 3084 
Q 3944 3084 3684 2787 
Q 3425 2491 3425 1978 
L 3425 0 
L 2847 0 
L 2847 2094 
Q 2847 2600 2669 2842 
Q 2491 3084 2119 3084 
Q 1678 3084 1418 2786 
Q 1159 2488 1159 1978 
L 1159 0 
L 581 0 
L 581 3500 
L 1159 3500 
L 1159 2956 
Q 1356 3278 1631 3431 
Q 1906 3584 2284 3584 
Q 2666 3584 2933 3390 
Q 3200 3197 3328 2828 
z
" transform="scale(0.015625)"/>
       <path id="DejaVuSans-65" d="M 3597 1894 
L 3597 1613 
L 953 1613 
Q 991 1019 1311 708 
Q 1631 397 2203 397 
Q 2534 397 2845 478 
Q 3156 559 3463 722 
L 3463 178 
Q 3153 47 2828 -22 
Q 2503 -91 2169 -91 
Q 1331 -91 842 396 
Q 353 884 353 1716 
Q 353 2575 817 3079 
Q 1281 3584 2069 3584 
Q 2775 3584 3186 3129 
Q 3597 2675 3597 1894 
z
M 3022 2063 
Q 3016 2534 2758 2815 
Q 2500 3097 2075 3097 
Q 1594 3097 1305 2825 
Q 1016 2553 972 2059 
L 3022 2063 
z
" transform="scale(0.015625)"/>
       <path id="DejaVuSans-20" transform="scale(0.015625)"/>
       <path id="DejaVuSans-2f" d="M 1625 4666 
L 2156 4666 
L 531 -594 
L 0 -594 
L 1625 4666 
z
" transform="scale(0.015625)"/>
       <path id="DejaVuSans-73" d="M 2834 3397 
L 2834 2853 
Q 2591 2978 2328 3040 
Q 2066 3103 1784 3103 
Q 1356 3103 1142 2972 
Q 928 2841 928 2578 
Q 928 2378 1081 2264 
Q 1234 2150 1697 2047 
L 1894 2003 
Q 2506 1872 2764 1633 
Q 3022 1394 3022 966 
Q 3022 478 2636 193 
Q 2250 -91 1575 -91 
Q 1294 -91 989 -36 
Q 684 19 347 128 
L 347 722 
Q 666 556 975 473 
Q 1284 391 1588 391 
Q 1994 391 2212 530 
Q 2431 669 2431 922 
Q 2431 1156 2273 1281 
Q 2116 1406 1581 1522 
L 1381 1569 
Q 847 1681 609 1914 
Q 372 2147 372 2553 
Q 372 3047 722 3315 
Q 1072 3584 1716 3584 
Q 2034 3584 2315 3537 
Q 2597 3491 2834 3397 
z
" transform="scale(0.015625)"/>
      </defs>
      <use xlink:href="#DejaVuSans-54"/>
      <use xlink:href="#DejaVuSans-69" x="57.958984"/>
      <use xlink:href="#DejaVuSans-6d" x="85.742188"/>
      <use xlink:href="#DejaVuSans-65" x="183.154297"/>
      <use xlink:href="#DejaVuSans-20" x="244.677734"/>
      <use xlink:href="#DejaVuSans-2f" x="276.464844"/>
      <use xlink:href="#DejaVuSans-20" x="310.15625"/>
      <use xlink:href="#DejaVuSans-73" x="341.943359"/>
     </g>
    </g>
   </g>
   <g id="matplotlib.axis_2">
    <g id="ytick_1">
     <g id="line2d_9">
      <defs>
       <path id="md06a9130c5" d="M 0 0 
L -3.5 0 
" style="stroke: #000000; stroke-width: 0.8"/>
      </defs>
      <g>
       <use xlink:href="#md06a9130c5" x="54" y="242.116364" style="stroke: #000000; stroke-width: 0.8"/>
      </g>
     </g>
     <g id="text_10">
      <!-- 0.0 -->
      <g transform="translate(31.096875 245.915582) scale(0.1 -0.1)">
       <defs>
        <path id="DejaVuSans-2e" d="M 684 794 
L 1344 794 
L 1344 0 
L 684 0 
L 684 794 
z
" transform="scale(0.015625)"/>
       </defs>
       <use xlink:href="#DejaVuSans-30"/>
       <use xlink:href="#DejaVuSans-2e" x="63.623047"/>
       <use xlink:href="#DejaVuSans-30" x="95.410156"/>
      </g>
     </g>
    </g>
    <g id="ytick_2">
     <g id="line2d_10">
      <g>
       <use xlink:href="#md06a9130c5" x="54" y="209.730742" style="stroke: #000000; stroke-width: 0.8"/>
      </g>
     </g>
     <g id="text_11">
      <!-- 0.1 -->
      <g transform="translate(31.096875 213.529961) scale(0.1 -0.1)">
       <use xlink:href="#DejaVuSans-30"/>
       <use xlink:href="#DejaVuSans-2e" x="63.623047"/>
       <use xlink:href="#DejaVuSans-31" x="95.410156"/>
      </g>
     </g>
    </g>
    <g id="ytick_3">
     <g id="line2d_11">
      <g>
       <use xlink:href="#md06a9130c5" x="54" y="177.345121" style="stroke: #000000; stroke-width: 0.8"/>
      </g>
     </g>
     <g id="text_12">
      <!-- 0.2 -->
      <g transform="translate(31.096875 181.144339) scale(0.1 -0.1)">
       <use xlink:href="#DejaVuSans-30"/>
       <use xlink:href="#DejaVuSans-2e" x="63.623047"/>
       <use xlink:href="#DejaVuSans-32" x="95.410156"/>
      </g>
     </g>
    </g>
    <g id="ytick_4">
     <g id="line2d_12">
      <g>
       <use xlink:href="#md06a9130c5" x="54" y="144.959499" style="stroke: #000000; stroke-width: 0.8"/>
      </g>
     </g>
     <g id="text_13">
      <!-- 0.3 -->
      <g transform="translate(31.096875 148.758718) scale(0.1 -0.1)">
       <defs>
        <path id="DejaVuSans-33" d="M 2597 2516 
Q 3050 2419 3304 2112 
Q 3559 1806 3559 1356 
Q 3559 666 3084 287 
Q 2609 -91 1734 -91 
Q 1441 -91 1130 -33 
Q 819 25 488 141 
L 488 750 
Q 750 597 1062 519 
Q 1375 441 1716 441 
Q 2309 441 2620 675 
Q 2931 909 2931 1356 
Q 2931 1769 2642 2001 
Q 2353 2234 1838 2234 
L 1294 2234 
L 1294 2753 
L 1863 2753 
Q 2328 2753 2575 2939 
Q 2822 3125 2822 3475 
Q 2822 3834 2567 4026 
Q 2313 4219 1838 4219 
Q 1578 4219 1281 4162 
Q 984 4106 628 3988 
L 628 4550 
Q 988 4650 1302 4700 
Q 1616 4750 1894 4750 
Q 2613 4750 3031 4423 
Q 3450 4097 3450 3541 
Q 3450 3153 3228 2886 
Q 3006 2619 2597 2516 
z
" transform="scale(0.015625)"/>
       </defs>
       <use xlink:href="#DejaVuSans-30"/>
       <use xlink:href="#DejaVuSans-2e" x="63.623047"/>
       <use xlink:href="#DejaVuSans-33" x="95.410156"/>
      </g>
     </g>
    </g>
    <g id="ytick_5">
     <g id="line2d_13">
      <g>
       <use xlink:href="#md06a9130c5" x="54" y="112.573878" style="stroke: #000000; stroke-width: 0.8"/>
      </g>
     </g>
     <g id="text_14">
      <!-- 0.4 -->
      <g transform="translate(31.096875 116.373097) scale(0.1 -0.1)">
       <use xlink:href="#DejaVuSans-30"/>
       <use xlink:href="#DejaVuSans-2e" x="63.623047"/>
       <use xlink:href="#DejaVuSans-34" x="95.410156"/>
      </g>
     </g>
    </g>
    <g id="ytick_6">
     <g id="line2d_14">
      <g>
       <use xlink:href="#md06a9130c5" x="54" y="80.188256" style="stroke: #000000; stroke-width: 0.8"/>
      </g>
     </g>
     <g id="text_15">
      <!-- 0.5 -->
      <g transform="translate(31.096875 83.987475) scale(0.1 -0.1)">
       <defs>
        <path id="DejaVuSans-35" d="M 691 4666 
L 3169 4666 
L 3169 4134 
L 1269 4134 
L 1269 2991 
Q 1406 3038 1543 3061 
Q 1681 3084 1819 3084 
Q 2600 3084 3056 2656 
Q 3513 2228 3513 1497 
Q 3513 744 3044 326 
Q 2575 -91 1722 -91 
Q 1428 -91 1123 -41 
Q 819 9 494 109 
L 494 744 
Q 775 591 1075 516 
Q 1375 441 1709 441 
Q 2250 441 2565 725 
Q 2881 1009 2881 1497 
Q 2881 1984 2565 2268 
Q 2250 2553 1709 2553 
Q 1456 2553 1204 2497 
Q 953 2441 691 2322 
L 691 4666 
z
" transform="scale(0.015625)"/>
       </defs>
       <use xlink:href="#DejaVuSans-30"/>
       <use xlink:href="#DejaVuSans-2e" x="63.623047"/>
       <use xlink:href="#DejaVuSans-35" x="95.410156"/>
      </g>
     </g>
    </g>
    <g id="ytick_7">
     <g id="line2d_15">
      <g>
       <use xlink:href="#md06a9130c5" x="54" y="47.802635" style="stroke: #000000; stroke-width: 0.8"/>
      </g>
     </g>
     <g id="text_16">
      <!-- 0.6 -->
      <g transform="translate(31.096875 51.601854) scale(0.1 -0.1)">
       <use xlink:href="#DejaVuSans-30"/>
       <use xlink:href="#DejaVuSans-2e" x="63.623047"/>
       <use xlink:href="#DejaVuSans-36" x="95.410156"/>
      </g>
     </g>
    </g>
    <g id="text_17">
     <!-- Concentration / mM -->
     <g transform="translate(25.017187 192.697969) rotate(-90) scale(0.1 -0.1)">
      <defs>
       <path id="DejaVuSans-43" d="M 4122 4306 
L 4122 3641 
Q 3803 3938 3442 4084 
Q 3081 4231 2675 4231 
Q 1875 4231 1450 3742 
Q 1025 3253 1025 2328 
Q 1025 1406 1450 917 
Q 1875 428 2675 428 
Q 3081 428 3442 575 
Q 3803 722 4122 1019 
L 4122 359 
Q 3791 134 3420 21 
Q 3050 -91 2638 -91 
Q 1578 -91 968 557 
Q 359 1206 359 2328 
Q 359 3453 968 4101 
Q 1578 4750 2638 4750 
Q 3056 4750 3426 4639 
Q 3797 4528 4122 4306 
z
" transform="scale(0.015625)"/>
       <path id="DejaVuSans-6f" d="M 1959 3097 
Q 1497 3097 1228 2736 
Q 959 2375 959 1747 
Q 959 1119 1226 758 
Q 1494 397 1959 397 
Q 2419 397 2687 759 
Q 2956 1122 2956 1747 
Q 2956 2369 2687 2733 
Q 2419 3097 1959 3097 
z
M 1959 3584 
Q 2709 3584 3137 3096 
Q 3566 2609 3566 1747 
Q 3566 888 3137 398 
Q 2709 -91 1959 -91 
Q 1206 -91 779 398 
Q 353 888 353 1747 
Q 353 2609 779 3096 
Q 1206 3584 1959 3584 
z
" transform="scale(0.015625)"/>
       <path id="DejaVuSans-6e" d="M 3513 2113 
L 3513 0 
L 2938 0 
L 2938 2094 
Q 2938 2591 2744 2837 
Q 2550 3084 2163 3084 
Q 1697 3084 1428 2787 
Q 1159 2491 1159 1978 
L 1159 0 
L 581 0 
L 581 3500 
L 1159 3500 
L 1159 2956 
Q 1366 3272 1645 3428 
Q 1925 3584 2291 3584 
Q 2894 3584 3203 3211 
Q 3513 2838 3513 2113 
z
" transform="scale(0.015625)"/>
       <path id="DejaVuSans-63" d="M 3122 3366 
L 3122 2828 
Q 2878 2963 2633 3030 
Q 2388 3097 2138 3097 
Q 1578 3097 1268 2742 
Q 959 2388 959 1747 
Q 959 1106 1268 751 
Q 1578 397 2138 397 
Q 2388 397 2633 464 
Q 2878 531 3122 666 
L 3122 134 
Q 2881 22 2623 -34 
Q 2366 -91 2075 -91 
Q 1284 -91 818 406 
Q 353 903 353 1747 
Q 353 2603 823 3093 
Q 1294 3584 2113 3584 
Q 2378 3584 2631 3529 
Q 2884 3475 3122 3366 
z
" transform="scale(0.015625)"/>
       <path id="DejaVuSans-74" d="M 1172 4494 
L 1172 3500 
L 2356 3500 
L 2356 3053 
L 1172 3053 
L 1172 1153 
Q 1172 725 1289 603 
Q 1406 481 1766 481 
L 2356 481 
L 2356 0 
L 1766 0 
Q 1100 0 847 248 
Q 594 497 594 1153 
L 594 3053 
L 172 3053 
L 172 3500 
L 594 3500 
L 594 4494 
L 1172 4494 
z
" transform="scale(0.015625)"/>
       <path id="DejaVuSans-72" d="M 2631 2963 
Q 2534 3019 2420 3045 
Q 2306 3072 2169 3072 
Q 1681 3072 1420 2755 
Q 1159 2438 1159 1844 
L 1159 0 
L 581 0 
L 581 3500 
L 1159 3500 
L 1159 2956 
Q 1341 3275 1631 3429 
Q 1922 3584 2338 3584 
Q 2397 3584 2469 3576 
Q 2541 3569 2628 3553 
L 2631 2963 
z
" transform="scale(0.015625)"/>
       <path id="DejaVuSans-61" d="M 2194 1759 
Q 1497 1759 1228 1600 
Q 959 1441 959 1056 
Q 959 750 1161 570 
Q 1363 391 1709 391 
Q 2188 391 2477 730 
Q 2766 1069 2766 1631 
L 2766 1759 
L 2194 1759 
z
M 3341 1997 
L 3341 0 
L 2766 0 
L 2766 531 
Q 2569 213 2275 61 
Q 1981 -91 1556 -91 
Q 1019 -91 701 211 
Q 384 513 384 1019 
Q 384 1609 779 1909 
Q 1175 2209 1959 2209 
L 2766 2209 
L 2766 2266 
Q 2766 2663 2505 2880 
Q 2244 3097 1772 3097 
Q 1472 3097 1187 3025 
Q 903 2953 641 2809 
L 641 3341 
Q 956 3463 1253 3523 
Q 1550 3584 1831 3584 
Q 2591 3584 2966 3190 
Q 3341 2797 3341 1997 
z
" transform="scale(0.015625)"/>
       <path id="DejaVuSans-4d" d="M 628 4666 
L 1569 4666 
L 2759 1491 
L 3956 4666 
L 4897 4666 
L 4897 0 
L 4281 0 
L 4281 4097 
L 3078 897 
L 2444 897 
L 1241 4097 
L 1241 0 
L 628 0 
L 628 4666 
z
" transform="scale(0.015625)"/>
      </defs>
      <use xlink:href="#DejaVuSans-43"/>
      <use xlink:href="#DejaVuSans-6f" x="69.824219"/>
      <use xlink:href="#DejaVuSans-6e" x="131.005859"/>
      <use xlink:href="#DejaVuSans-63" x="194.384766"/>
      <use xlink:href="#DejaVuSans-65" x="249.365234"/>
      <use xlink:href="#DejaVuSans-6e" x="310.888672"/>
      <use xlink:href="#DejaVuSans-74" x="374.267578"/>
      <use xlink:href="#DejaVuSans-72" x="413.476562"/>
      <use xlink:href="#DejaVuSans-61" x="454.589844"/>
      <use xlink:href="#DejaVuSans-74" x="515.869141"/>
      <use xlink:href="#DejaVuSans-69" x="555.078125"/>
      <use xlink:href="#DejaVuSans-6f" x="582.861328"/>
      <use xlink:href="#DejaVuSans-6e" x="644.042969"/>
      <use xlink:href="#DejaVuSans-20" x="707.421875"/>
      <use xlink:href="#DejaVuSans-2f" x="739.208984"/>
      <use xlink:href="#DejaVuSans-20" x="772.900391"/>
      <use xlink:href="#DejaVuSans-6d" x="804.6875"/>
      <use xlink:href="#DejaVuSans-4d" x="902.099609"/>
     </g>
    </g>
   </g>
   <g id="line2d_16">
    <path d="M 69.218182 242.116364 
L 69.626114 242.005589 
L 69.793091 241.574912 
L 70.034045 240.205665 
L 70.416614 236.520654 
L 71.160614 226.743864 
L 73.022727 201.738678 
L 73.024841 240.731488 
L 73.13475 240.57862 
L 73.409523 239.970793 
L 73.618773 238.768237 
L 73.923136 235.473457 
L 74.455773 226.831594 
L 76.827273 185.829989 
L 76.829386 239.671452 
L 76.939295 239.437656 
L 77.220409 238.526298 
L 77.450795 236.752438 
L 77.795318 232.039124 
L 78.463227 219.170454 
L 80.223886 184.996589 
L 80.631818 178.274864 
L 80.633932 239.066115 
L 80.743841 238.791479 
L 81.029182 237.712997 
L 81.268023 235.627409 
L 81.633682 230.095568 
L 82.390364 214.428072 
L 83.975591 182.231121 
L 84.436364 174.225474 
L 84.438477 219.426532 
L 84.548386 219.169009 
L 84.778773 218.194778 
L 85.013386 215.996905 
L 85.395955 209.885959 
L 86.585932 185.523521 
L 87.759 164.432428 
L 88.240909 157.051084 
L 88.243023 202.550818 
L 88.352932 202.22113 
L 88.57275 200.9878 
L 88.8285 197.975569 
L 89.297727 189.209352 
L 91.087977 154.124903 
L 92.045455 139.997249 
L 92.047568 190.914185 
L 92.157477 190.496737 
L 92.379409 188.93886 
L 92.656295 185.033645 
L 93.243886 172.73906 
L 94.522636 146.666151 
L 95.492795 131.484945 
L 95.85 126.799149 
L 95.852114 183.385309 
L 95.962023 182.893186 
L 96.188182 181.049175 
L 96.484091 176.336984 
L 97.228091 159.660056 
L 98.310273 137.48772 
L 99.252955 122.61972 
L 99.654545 117.377636 
L 99.656659 175.085983 
L 99.766568 174.55623 
L 99.990614 172.57283 
L 100.297091 167.369223 
L 101.341227 143.644765 
L 102.305045 125.248991 
L 103.222364 111.817498 
L 103.459091 108.898579 
L 103.461205 165.992721 
L 103.571114 165.43719 
L 103.790932 163.368793 
L 104.107977 157.736822 
L 106.342091 112.641068 
L 107.231932 100.978725 
L 107.263636 100.61975 
L 107.26575 157.356489 
L 107.375659 156.774199 
L 107.593364 154.603069 
L 107.923091 148.496777 
L 109.844386 108.91502 
L 110.717318 96.875568 
L 111.068182 92.919925 
L 111.070295 149.964229 
L 111.180205 149.353316 
L 111.395795 147.090922 
L 111.738205 140.523509 
L 113.437568 104.947441 
L 114.293591 92.698502 
L 114.872727 86.211315 
L 114.874841 143.675823 
L 114.98475 143.039367 
L 115.200341 140.673466 
L 115.555432 133.654388 
L 117.089932 101.150883 
L 117.933273 88.756428 
L 118.677273 80.484104 
L 118.679386 138.150078 
L 118.789295 137.493178 
L 119.004886 135.042047 
L 119.372659 127.602666 
L 120.784568 97.50322 
L 121.617341 85.058347 
L 122.437432 75.964415 
L 122.481818 75.54665 
L 122.483932 133.210091 
L 122.593841 132.536964 
L 122.809432 130.015405 
L 123.187773 122.23192 
L 124.508795 94.00869 
L 125.331 81.613024 
L 126.142636 72.570098 
L 126.286364 71.240063 
L 126.288477 128.827937 
L 126.398386 128.141273 
L 126.613977 125.560222 
L 127.002886 117.452577 
L 128.249932 90.80776 
L 129.063682 78.479098 
L 129.86475 69.539867 
L 130.090909 67.481908 
L 130.093023 124.995171 
L 130.202932 124.296838 
L 130.418523 121.664987 
L 130.818 113.247634 
L 132.005864 87.900171 
L 132.813273 75.644681 
L 133.608 66.793103 
L 133.895455 64.22194 
L 133.897568 121.670773 
L 134.007477 120.962396 
L 134.223068 118.287306 
L 134.631 109.621796 
L 135.776591 85.236997 
L 136.577659 73.091798 
L 137.366045 64.347658 
L 137.7 61.40932 
L 137.702114 118.793156 
L 137.812023 118.076259 
L 138.027614 115.364621 
L 138.444 106.461172 
L 139.551545 82.94329 
L 140.346273 70.901685 
L 141.128318 62.252777 
L 141.504545 58.988453 
L 141.506659 116.302414 
L 141.616568 115.578349 
L 141.832159 112.835917 
L 142.257 103.703067 
L 143.334955 80.885085 
L 144.125455 68.93768 
L 144.901159 60.398514 
L 145.309091 56.906026 
L 145.311205 114.148553 
L 145.421114 113.418452 
L 145.636705 110.65005 
L 146.067886 101.344486 
L 147.122591 79.08586 
L 147.908864 67.233823 
L 148.680341 58.780249 
L 149.113636 55.115533 
L 149.11575 112.289678 
L 149.225659 111.554473 
L 149.44125 108.764117 
L 149.878773 99.291117 
L 150.912341 77.53968 
L 151.694386 65.776358 
L 152.46375 57.379461 
L 152.918182 53.577404 
L 152.920295 110.688716 
L 153.030205 109.949182 
L 153.245795 107.140236 
L 153.689659 97.503906 
L 154.706318 76.171924 
L 155.48625 64.475828 
L 156.251386 56.162804 
L 156.722727 52.257503 
L 156.724841 109.312074 
L 156.83475 108.568865 
L 157.050341 105.744168 
L 157.498432 95.997466 
L 158.502409 74.986219 
L 159.280227 63.354719 
L 160.04325 55.100819 
L 160.527273 51.125947 
L 160.529386 108.12962 
L 160.639295 107.383294 
L 160.854886 104.545246 
L 161.309318 94.64098 
L 162.300614 73.952848 
L 163.074205 62.411713 
L 163.835114 54.205928 
L 164.331818 50.156548 
L 164.333932 107.114821 
L 164.443841 106.365848 
L 164.659432 103.516479 
L 165.115977 93.555947 
L 166.098818 73.082525 
L 166.872409 61.568792 
L 167.631205 53.416586 
L 168.136364 49.326511 
L 168.138477 106.244564 
L 168.248386 105.493344 
L 168.463977 102.634367 
L 168.92475 92.569444 
L 169.899136 72.315765 
L 170.670614 60.857998 
L 171.427295 52.751185 
L 171.940909 48.616119 
L 171.943023 105.498786 
L 172.052932 104.745657 
L 172.268523 101.878521 
L 172.731409 91.759957 
L 173.699455 71.669656 
L 174.468818 60.260719 
L 175.223386 52.192252 
L 175.745455 48.008369 
L 175.747568 104.860082 
L 175.857477 104.105328 
L 176.073068 101.231259 
L 176.540182 91.010449 
L 177.501886 71.09056 
L 178.269136 59.734424 
L 179.023705 51.686725 
L 179.55 47.48862 
L 179.552114 104.313366 
L 179.662023 103.55723 
L 179.877614 100.677266 
L 180.346841 90.404436 
L 181.304318 70.600427 
L 182.071568 59.265387 
L 182.824023 51.259739 
L 183.354545 47.044268 
L 183.356659 103.845595 
L 183.466568 103.088284 
L 183.682159 100.203305 
L 184.1535 89.879005 
L 185.10675 70.186544 
L 185.874 58.868131 
L 186.626455 50.881158 
L 187.159091 46.664476 
L 187.161205 103.445518 
L 187.271114 102.687205 
L 187.486705 99.797959 
L 187.960159 89.422628 
L 188.909182 69.837972 
L 189.674318 58.558657 
L 190.424659 50.597984 
L 190.963636 46.339934 
L 190.96575 103.103447 
L 191.075659 102.344281 
L 191.29125 99.451403 
L 191.764705 89.074758 
L 192.711614 69.545317 
L 193.47675 58.275445 
L 194.227091 50.326408 
L 194.768182 46.062657 
L 194.770295 102.811051 
L 194.880205 102.051159 
L 195.095795 99.155186 
L 195.571364 88.728117 
L 196.516159 69.264107 
L 197.281295 58.010986 
L 198.031636 50.078282 
L 198.572727 45.825801 
L 198.574841 102.561174 
L 198.68475 101.800664 
L 198.900341 98.902056 
L 199.375909 88.474119 
L 200.318591 69.060248 
L 201.081614 57.837564 
L 201.829841 49.922694 
L 202.377273 45.6235 
L 202.379386 102.347678 
L 202.489295 101.586639 
L 202.704886 98.685786 
L 203.182568 88.207819 
L 204.123136 68.855028 
L 204.886159 57.644563 
L 205.634386 49.741599 
L 206.181818 45.450734 
L 206.183932 102.165295 
L 206.293841 101.403807 
L 206.509432 98.50104 
L 206.987114 88.022492 
L 207.927682 68.679763 
L 208.690705 57.479745 
L 209.438932 49.586954 
L 209.986364 45.303205 
L 209.988477 102.009515 
L 210.098386 101.247643 
L 210.313977 98.343245 
L 210.793773 87.814929 
L 211.730114 68.56641 
L 212.493136 57.365192 
L 213.241364 49.473642 
L 213.790909 45.177238 
L 213.793023 101.876473 
L 213.902932 101.114274 
L 214.118523 98.208485 
L 214.598318 87.679776 
L 215.534659 68.438595 
L 216.297682 57.245005 
L 217.045909 49.360881 
L 217.595455 45.06969 
L 217.597568 101.762862 
L 217.707477 101.000385 
L 217.923068 98.09341 
L 218.402864 87.564372 
L 219.339205 68.329465 
L 220.102227 57.142394 
L 220.850455 49.264613 
L 221.4 44.977873 
L 221.402114 101.665854 
L 221.512023 100.903139 
L 221.727614 97.995153 
L 222.207409 87.465839 
L 223.14375 68.236297 
L 223.906773 57.054793 
L 224.655 49.182429 
L 225.204545 44.89949 
L 225.206659 101.583028 
L 225.316568 100.82011 
L 225.532159 97.911262 
L 226.011955 87.381716 
L 226.946182 68.19304 
L 227.709205 57.006152 
L 228.455318 49.149662 
L 229.009091 44.832579 
L 229.011205 101.512316 
L 229.121114 100.749225 
L 229.336705 97.839641 
L 229.818614 87.260656 
L 230.752841 68.088862 
L 231.51375 56.942304 
L 232.259864 49.089753 
L 232.813636 44.775463 
L 232.81575 101.451949 
L 232.925659 100.688711 
L 233.14125 97.778499 
L 233.623159 87.199354 
L 234.555273 68.067163 
L 235.316182 56.913948 
L 236.062295 49.057317 
L 236.618182 44.72671 
L 236.620295 101.400417 
L 236.730205 100.637052 
L 236.945795 97.726306 
L 237.427705 87.147026 
L 238.359818 68.017682 
L 239.120727 56.867419 
L 239.866841 49.01366 
L 240.422727 44.685096 
L 240.424841 101.356428 
L 240.53475 100.592956 
L 240.750341 97.681752 
L 241.23225 87.102358 
L 242.164364 67.975446 
L 242.925273 56.827704 
L 243.671386 48.976397 
L 244.227273 44.649577 
L 244.229386 101.318879 
L 244.339295 100.555316 
L 244.554886 97.643722 
L 245.036795 87.064231 
L 245.968909 67.939396 
L 246.729818 56.793806 
L 247.475932 48.944592 
L 248.031818 44.619261 
L 248.033932 101.286829 
L 248.143841 100.523187 
L 248.359432 97.611262 
L 248.841341 87.031689 
L 249.773455 67.908627 
L 250.534364 56.764874 
L 251.280477 48.917446 
L 251.836364 44.593386 
L 251.838477 101.259472 
L 251.948386 100.495764 
L 252.163977 97.583555 
L 252.645886 87.003912 
L 253.578 67.882365 
L 254.338909 56.74018 
L 255.085023 48.894277 
L 255.640909 44.571302 
L 255.643023 101.236123 
L 255.752932 100.472358 
L 255.968523 97.559907 
L 256.450432 86.980205 
L 257.382545 67.859951 
L 258.143455 56.719105 
L 258.889568 48.874503 
L 259.445455 44.552454 
L 259.447568 101.216194 
L 259.557477 100.45238 
L 259.773068 97.539723 
L 260.254977 86.959971 
L 261.187091 67.84082 
L 261.948 56.701117 
L 262.694114 48.857626 
L 263.25 44.536367 
L 263.252114 101.199185 
L 263.362023 100.43533 
L 263.577614 97.522496 
L 264.059523 86.942701 
L 264.991636 67.824493 
L 265.752545 56.685765 
L 266.498659 48.843222 
L 267.054545 44.522638 
L 267.056659 101.184668 
L 267.166568 100.420777 
L 267.382159 97.507793 
L 267.864068 86.927962 
L 268.796182 67.810558 
L 269.557091 56.672663 
L 270.303205 48.830929 
L 270.859091 44.51092 
L 270.861205 101.172278 
L 270.971114 100.408357 
L 271.186705 97.495245 
L 271.668614 86.915383 
L 272.600727 67.798666 
L 273.361636 56.66148 
L 274.10775 48.820437 
L 274.663636 44.50092 
L 274.66575 101.161704 
L 274.775659 100.397757 
L 274.99125 97.484535 
L 275.473159 86.904647 
L 276.405273 67.788516 
L 277.166182 56.651937 
L 277.912295 48.811484 
L 278.468182 44.492386 
L 278.470295 101.152679 
L 278.580205 100.38871 
L 278.795795 97.475395 
L 279.277705 86.895484 
L 280.209818 67.779853 
L 280.970727 56.643792 
L 281.716841 48.803842 
L 282.272727 44.485102 
L 282.274841 101.144977 
L 282.38475 100.380989 
L 282.600341 97.467594 
L 283.08225 86.887665 
L 284.014364 67.77246 
L 284.775273 56.636841 
L 285.521386 48.79732 
L 286.077273 44.478886 
L 286.079386 101.138403 
L 286.189295 100.3744 
L 286.404886 97.460936 
L 286.886795 86.880991 
L 287.818909 67.766151 
L 288.579818 56.630909 
L 289.325932 48.791754 
L 289.881818 44.473581 
L 289.883932 101.132793 
L 289.993841 100.368776 
L 290.209432 97.455255 
L 290.691341 86.875295 
L 291.623455 67.760766 
L 292.384364 56.625846 
L 293.130477 48.787004 
L 293.686364 44.469053 
L 293.688477 101.128005 
L 293.798386 100.363976 
L 294.013977 97.450406 
L 294.495886 86.870434 
L 295.428 67.756171 
L 296.188909 56.621525 
L 296.935023 48.78295 
L 297.490909 44.465189 
L 297.493023 101.123919 
L 297.602932 100.35988 
L 297.818523 97.446267 
L 298.300432 86.866286 
L 299.232545 67.752249 
L 299.993455 56.617838 
L 300.739568 48.779491 
L 301.295455 44.461891 
L 301.297568 101.120432 
L 301.407477 100.356385 
L 301.623068 97.442735 
L 302.104977 86.862746 
L 303.037091 67.748902 
L 303.798 56.614691 
L 304.544114 48.776538 
L 305.1 44.459077 
L 305.102114 101.117456 
L 305.212023 100.353401 
L 305.427614 97.439721 
L 305.909523 86.859724 
L 306.841636 67.746046 
L 307.602545 56.612005 
L 308.348659 48.774018 
L 308.904545 44.456675 
L 308.906659 101.114916 
L 309.016568 100.350855 
L 309.232159 97.437149 
L 309.714068 86.857145 
L 310.646182 67.743608 
L 311.407091 56.609713 
L 312.153205 48.771868 
L 312.709091 44.454625 
L 312.711205 101.112748 
L 312.821114 100.348682 
L 313.036705 97.434954 
L 313.518614 86.854945 
L 314.450727 67.741527 
L 315.211636 56.607757 
L 315.95775 48.770033 
L 316.513636 44.452876 
L 316.51575 101.110898 
L 316.625659 100.346828 
L 316.84125 97.43308 
L 317.323159 86.853067 
L 318.255273 67.739752 
L 319.016182 56.606087 
L 319.762295 48.768466 
L 320.318182 44.451383 
L 320.320295 101.10932 
L 320.430205 100.345245 
L 320.645795 97.431481 
L 321.127705 86.851464 
L 322.059818 67.738237 
L 322.820727 56.604663 
L 323.566841 48.76713 
L 324.122727 44.450109 
L 324.124841 101.107972 
L 324.23475 100.343895 
L 324.450341 97.430116 
L 324.93225 86.850096 
L 325.864364 67.736944 
L 326.625273 56.603447 
L 327.371386 48.765989 
L 327.927273 44.449022 
L 327.929386 101.106822 
L 328.039295 100.342742 
L 328.254886 97.428952 
L 328.736795 86.848929 
L 329.668909 67.73584 
L 330.429818 56.602409 
L 331.175932 48.765015 
L 331.731818 44.448094 
L 331.733932 101.105841 
L 331.843841 100.341758 
L 332.059432 97.427958 
L 332.541341 86.847932 
L 333.473455 67.734898 
L 334.234364 56.601524 
L 334.980477 48.764185 
L 335.536364 44.447302 
L 335.538477 101.105004 
L 335.648386 100.340919 
L 335.863977 97.42711 
L 336.345886 86.847082 
L 337.278 67.734094 
L 338.038909 56.600768 
L 338.785023 48.763475 
L 339.340909 44.446626 
L 339.343023 101.104289 
L 339.452932 100.340202 
L 339.668523 97.426386 
L 340.150432 86.846357 
L 341.082545 67.733408 
L 341.843455 56.600123 
L 342.589568 48.76287 
L 343.145455 44.446049 
L 343.147568 101.103679 
L 343.257477 100.339591 
L 343.473068 97.425768 
L 343.954977 86.845737 
L 344.887091 67.732823 
L 345.648 56.599572 
L 346.394114 48.762354 
L 346.95 44.445557 
L 346.952114 101.103158 
L 347.062023 100.339069 
L 347.277614 97.425241 
L 347.759523 86.845209 
L 348.691636 67.732323 
L 349.452545 56.599103 
L 350.198659 48.761913 
L 350.754545 44.445137 
L 350.756659 101.102714 
L 350.866568 100.338624 
L 351.082159 97.424791 
L 351.564068 86.844758 
L 352.496182 67.731897 
L 353.257091 56.598702 
L 354.003205 48.761537 
L 354.559091 44.444779 
L 354.561205 101.102335 
L 354.671114 100.338244 
L 354.886705 97.424407 
L 355.368614 86.844373 
L 356.300727 67.731533 
L 357.061636 56.59836 
L 357.80775 48.761216 
L 358.363636 44.444473 
L 358.36575 101.102012 
L 358.475659 100.337919 
L 358.69125 97.42408 
L 359.173159 86.844044 
L 360.105273 67.731223 
L 360.866182 56.598068 
L 361.612295 48.760942 
L 362.168182 44.444212 
L 362.170295 101.101735 
L 362.280205 100.337643 
L 362.495795 97.4238 
L 362.977705 86.843764 
L 363.909818 67.730958 
L 364.670727 56.597819 
L 365.416841 48.760708 
L 365.972727 44.443989 
L 365.974841 101.1015 
L 366.08475 100.337406 
L 366.300341 97.423561 
L 366.78225 86.843525 
L 367.714364 67.730731 
L 368.475273 56.597606 
L 369.221386 48.760509 
L 369.777273 44.443799 
L 369.779386 101.101299 
L 369.889295 100.337205 
L 370.104886 97.423358 
L 370.586795 86.843321 
L 371.518909 67.730538 
L 372.279818 56.597424 
L 373.025932 48.760339 
L 373.581818 44.443636 
L 373.581818 44.443636 
" clip-path="url(#pca811690fb)" style="fill: none; stroke: #1f77b4; stroke-width: 1.5; stroke-linecap: square"/>
   </g>
   <g id="line2d_17">
    <path d="M 69.218182 242.116364 
L 69.315409 242.00932 
L 69.3915 240.940038 
L 69.579614 234.153722 
L 70.752682 187.002772 
L 71.433273 169.71755 
L 72.101182 158.060396 
L 72.76275 150.162057 
L 73.022727 147.789619 
L 73.024841 211.361051 
L 73.13475 209.576246 
L 73.291159 202.733243 
L 74.417727 144.446469 
L 74.954591 130.097322 
L 75.457636 122.052098 
L 75.922636 117.808262 
L 76.341136 115.784353 
L 76.702568 114.977386 
L 76.827273 114.848279 
L 76.829386 186.350966 
L 76.939295 184.257565 
L 77.108386 176.23975 
L 78.06375 125.240552 
L 78.583705 110.327732 
L 79.061386 102.357174 
L 79.490455 98.476144 
L 79.856114 96.897839 
L 80.141455 96.465705 
L 80.348591 96.483088 
L 80.589545 96.772713 
L 80.631818 96.848157 
L 80.633932 170.094572 
L 80.743841 167.9022 
L 80.919273 159.4309 
L 81.811227 112.043651 
L 82.324841 97.183928 
L 82.794068 89.397222 
L 83.208341 85.771281 
L 83.55075 84.421294 
L 83.802273 84.132714 
L 83.986159 84.214481 
L 84.229227 84.621815 
L 84.436364 85.179953 
L 84.438477 154.817943 
L 84.548386 152.6233 
L 84.730159 143.770645 
L 85.537568 101.913395 
L 86.040614 87.530825 
L 86.497159 80.147026 
L 86.896636 76.819768 
L 87.220023 75.670683 
L 87.448295 75.483605 
L 87.623727 75.616505 
L 87.877364 76.146313 
L 88.240909 77.419459 
L 88.243023 142.424889 
L 88.352932 140.278436 
L 88.536818 131.461738 
L 89.295614 93.544063 
L 89.788091 79.972852 
L 90.234068 73.143057 
L 90.61875 70.207054 
L 90.921 69.292996 
L 91.123909 69.202065 
L 91.303568 69.400854 
L 91.576227 70.099908 
L 92.01375 71.929134 
L 92.045455 72.085656 
L 92.047568 133.124215 
L 92.157477 131.03626 
L 92.343477 122.302232 
L 93.072682 87.138999 
L 93.556705 74.310857 
L 93.992114 67.991593 
L 94.362 65.386407 
L 94.647341 64.644055 
L 94.829114 64.614366 
L 95.013 64.866638 
L 95.300455 65.711645 
L 95.763341 67.871044 
L 95.85 68.348542 
L 95.852114 126.360249 
L 95.962023 124.324182 
L 96.150136 115.658203 
L 96.858205 82.484864 
L 97.338 70.169763 
L 97.764955 64.246552 
L 98.124273 61.883124 
L 98.394818 61.266902 
L 98.563909 61.276395 
L 98.754136 61.580659 
L 99.054273 62.559746 
L 99.540409 65.022814 
L 99.654545 65.701783 
L 99.656659 121.538477 
L 99.766568 119.539831 
L 99.954682 111.007823 
L 100.650068 79.15846 
L 101.123523 67.312213 
L 101.544136 61.668494 
L 101.897114 59.466322 
L 102.157091 58.93714 
L 102.317727 58.972736 
L 102.512182 59.316801 
L 102.820773 60.39552 
L 103.323818 63.087499 
L 103.459091 63.933574 
L 103.461205 118.125793 
L 103.571114 116.154085 
L 103.761341 107.601389 
L 104.441932 76.956417 
L 104.913273 65.379299 
L 105.329659 59.9428 
L 105.676295 57.870341 
L 105.929932 57.400345 
L 106.086341 57.456747 
L 106.287136 57.843749 
L 106.606295 59.028304 
L 107.130477 61.96351 
L 107.263636 62.826849 
L 107.26575 115.717665 
L 107.375659 113.766406 
L 107.565886 105.282042 
L 108.238023 75.417732 
L 108.705136 64.112779 
L 109.119409 58.814525 
L 109.461818 56.837889 
L 109.709114 56.41404 
L 109.861295 56.482934 
L 110.064205 56.892871 
L 110.387591 58.132788 
L 110.922341 61.204288 
L 111.068182 62.17152 
L 111.070295 114.023696 
L 111.180205 112.088472 
L 111.372545 103.543758 
L 112.034114 74.439875 
L 112.499114 63.293246 
L 112.909159 58.114794 
L 113.247341 56.195545 
L 113.490409 55.793005 
L 113.640477 55.866724 
L 113.843386 56.285283 
L 114.168886 57.554068 
L 114.70575 60.681084 
L 114.872727 61.804814 
L 114.874841 112.844508 
L 114.98475 110.921599 
L 115.177091 102.415014 
L 115.834432 73.727347 
L 116.299432 62.703972 
L 116.707364 57.64051 
L 117.043432 55.787195 
L 117.282273 55.418125 
L 117.432341 55.504806 
L 117.641591 55.959617 
L 117.975545 57.309453 
L 118.531432 60.629123 
L 118.677273 61.625368 
L 118.679386 112.036279 
L 118.789295 110.122558 
L 118.981636 101.642754 
L 119.63475 73.298933 
L 120.097636 62.391448 
L 120.505568 57.375299 
L 120.839523 55.565882 
L 121.07625 55.216107 
L 121.226318 55.311382 
L 121.437682 55.784768 
L 121.775864 57.178902 
L 122.342318 60.608954 
L 122.481818 61.570692 
L 122.483932 111.49136 
L 122.593841 109.58442 
L 122.786182 101.122813 
L 123.437182 73.004579 
L 123.897955 62.210516 
L 124.303773 57.254247 
L 124.635614 55.47259 
L 124.870227 55.132182 
L 125.018182 55.227597 
L 125.229545 55.702491 
L 125.567727 57.101774 
L 126.134182 60.543868 
L 126.286364 61.59769 
L 126.288477 111.129841 
L 126.398386 109.227945 
L 126.592841 100.66873 
L 127.2375 72.912297 
L 127.698273 62.142597 
L 128.104091 57.211752 
L 128.435932 55.450795 
L 128.668432 55.124265 
L 128.816386 55.224729 
L 129.029864 55.713315 
L 129.370159 57.138197 
L 129.942955 60.645191 
L 130.090909 61.674295 
L 130.093023 110.894667 
L 130.202932 108.996571 
L 130.397386 100.445591 
L 131.039932 72.847032 
L 131.500705 62.113366 
L 131.904409 57.23015 
L 132.234136 55.486913 
L 132.466636 55.162757 
L 132.614591 55.2652 
L 132.828068 55.756998 
L 133.170477 57.198097 
L 133.7475 60.745622 
L 133.895455 61.777537 
L 133.897568 110.746164 
L 134.007477 108.850951 
L 134.201932 100.305301 
L 134.842364 72.843108 
L 135.301023 62.166878 
L 135.704727 57.285814 
L 136.034455 55.547386 
L 136.264841 55.227446 
L 136.412795 55.329513 
L 136.626273 55.821499 
L 136.968682 57.264003 
L 137.545705 60.814735 
L 137.7 61.892206 
L 137.702114 110.656808 
L 137.812023 108.763784 
L 138.006477 100.221433 
L 138.646909 72.81469 
L 139.105568 62.179522 
L 139.509273 57.329588 
L 139.836886 55.618307 
L 140.067273 55.305099 
L 140.215227 55.411151 
L 140.430818 55.915032 
L 140.775341 57.379514 
L 141.358705 60.988268 
L 141.504545 62.008847 
L 141.506659 110.60732 
L 141.616568 108.715963 
L 141.811023 100.175504 
L 142.449341 72.876734 
L 142.908 62.244889 
L 143.309591 57.418347 
L 143.637205 55.702442 
L 143.867591 55.387664 
L 144.015545 55.493208 
L 144.231136 55.99683 
L 144.575659 57.461587 
L 145.159023 61.071167 
L 145.309091 62.121786 
L 145.311205 110.584166 
L 145.421114 108.694086 
L 145.615568 100.154569 
L 146.253886 72.889926 
L 146.712545 62.284612 
L 147.114136 57.478291 
L 147.44175 55.77621 
L 147.670023 55.469644 
L 147.817977 55.576675 
L 148.033568 56.082336 
L 148.378091 57.549814 
L 148.963568 61.176528 
L 149.113636 62.227729 
L 149.11575 110.577934 
L 149.225659 108.688839 
L 149.420114 100.149647 
L 150.056318 72.976644 
L 150.514977 62.363309 
L 150.916568 57.555194 
L 151.244182 55.853571 
L 151.472455 55.547829 
L 151.620409 55.655491 
L 151.836 56.1621 
L 152.182636 57.641902 
L 152.770227 61.287958 
L 152.918182 62.324925 
L 152.920295 110.582183 
L 153.030205 108.693855 
L 153.224659 100.1546 
L 153.860864 73.003271 
L 154.319523 62.407563 
L 154.721114 57.613007 
L 155.048727 55.920658 
L 155.277 55.620332 
L 155.424955 55.731038 
L 155.642659 56.248221 
L 155.991409 57.747819 
L 156.585341 61.448623 
L 156.722727 62.412662 
L 156.724841 110.592575 
L 156.83475 108.70485 
L 157.029205 100.165299 
L 157.665409 73.031466 
L 158.124068 62.450252 
L 158.525659 57.666885 
L 158.853273 55.98219 
L 159.079432 55.686314 
L 159.227386 55.796439 
L 159.442977 56.306244 
L 159.789614 57.789999 
L 160.379318 61.453589 
L 160.527273 62.490909 
L 160.529386 110.60623 
L 160.639295 108.718982 
L 160.83375 100.179005 
L 161.467841 73.12384 
L 161.9265 62.524998 
L 162.328091 57.732611 
L 162.655705 56.043448 
L 162.883977 55.74551 
L 163.031932 55.857705 
L 163.249636 56.376876 
L 163.598386 57.878919 
L 164.192318 61.581204 
L 164.331818 62.56006 
L 164.333932 110.621266 
L 164.443841 108.734398 
L 164.638295 100.193936 
L 165.272386 73.150355 
L 165.731045 62.561462 
L 166.132636 57.776809 
L 166.46025 56.092938 
L 166.686409 55.798056 
L 166.834364 55.908885 
L 167.052068 56.426474 
L 167.400818 57.926752 
L 167.99475 61.627228 
L 168.136364 62.620748 
L 168.138477 110.636486 
L 168.248386 108.749923 
L 168.442841 100.20896 
L 169.076932 73.174909 
L 169.533477 62.629184 
L 169.935068 57.832675 
L 170.262682 56.142404 
L 170.490955 55.844341 
L 170.638909 55.956607 
L 170.856614 56.475976 
L 171.205364 57.978304 
L 171.799295 61.6802 
L 171.940909 62.673718 
L 171.943023 110.651156 
L 172.052932 108.764841 
L 172.247386 100.223388 
L 172.881477 73.197219 
L 173.338023 62.658404 
L 173.739614 57.867321 
L 174.067227 56.180765 
L 174.293386 55.884844 
L 174.441341 55.995223 
L 174.656932 56.505569 
L 175.003568 57.990082 
L 175.593273 61.653122 
L 175.745455 62.719751 
L 175.747568 110.664859 
L 175.857477 108.778747 
L 176.051932 100.236832 
L 176.686023 73.217212 
L 177.142568 62.684196 
L 177.544159 57.897676 
L 177.869659 56.219995 
L 178.097932 55.920121 
L 178.245886 56.031511 
L 178.463591 56.549894 
L 178.812341 58.051108 
L 179.406273 61.751503 
L 179.55 62.759618 
L 179.552114 110.677386 
L 179.662023 108.791439 
L 179.856477 100.2491 
L 180.490568 73.234944 
L 180.947114 62.706809 
L 181.348705 57.924135 
L 181.674205 56.249073 
L 181.902477 55.950728 
L 182.050432 56.062968 
L 182.268136 56.5824 
L 182.616886 58.084805 
L 183.212932 61.8006 
L 183.354545 62.794048 
L 183.356659 110.688662 
L 183.466568 108.802851 
L 183.661023 100.260128 
L 184.295114 73.250546 
L 184.751659 62.726528 
L 185.15325 57.947104 
L 185.47875 56.274254 
L 185.704909 55.977193 
L 185.852864 56.087061 
L 186.068455 56.596869 
L 186.415091 58.080758 
L 187.004795 61.74256 
L 187.159091 62.823716 
L 187.161205 110.698694 
L 187.271114 108.812997 
L 187.465568 100.269931 
L 188.099659 73.264192 
L 188.556205 62.743653 
L 188.957795 57.966977 
L 189.283295 56.296 
L 189.509455 56.000021 
L 189.657409 56.110496 
L 189.873 56.621045 
L 190.219636 58.105777 
L 190.809341 61.768107 
L 190.963636 62.849235 
L 190.96575 110.707544 
L 191.075659 108.821941 
L 191.270114 100.278573 
L 191.904205 73.276068 
L 192.36075 62.758475 
L 192.762341 57.984128 
L 193.087841 56.314737 
L 193.314 56.019676 
L 193.461955 56.130664 
L 193.679659 56.648638 
L 194.028409 58.149357 
L 194.622341 61.848518 
L 194.768182 62.871152 
L 194.770295 110.715298 
L 194.880205 108.829774 
L 195.074659 100.286139 
L 195.70875 73.286364 
L 196.165295 62.771268 
L 196.566886 57.998898 
L 196.892386 56.330853 
L 197.118545 56.036569 
L 197.2665 56.147994 
L 197.484205 56.666503 
L 197.832955 58.167823 
L 198.426886 61.867345 
L 198.572727 62.889954 
L 198.574841 110.722056 
L 198.68475 108.836598 
L 198.879205 100.292731 
L 199.511182 73.359633 
L 199.967727 62.81713 
L 200.369318 58.028107 
L 200.694818 56.35044 
L 200.923091 56.05107 
L 201.071045 56.162864 
L 201.28875 56.681828 
L 201.6375 58.183658 
L 202.233545 61.898113 
L 202.377273 62.906067 
L 202.379386 110.727922 
L 202.489295 108.84252 
L 202.68375 100.298451 
L 203.315727 73.367299 
L 203.772273 62.826597 
L 204.173864 58.039001 
L 204.499364 56.362307 
L 204.727636 56.063504 
L 204.875591 56.175613 
L 205.093295 56.694961 
L 205.442045 58.197223 
L 206.038091 61.911932 
L 206.181818 62.919865 
L 206.183932 110.732997 
L 206.293841 108.847642 
L 206.488295 100.303398 
L 207.120273 73.373896 
L 207.576818 62.834725 
L 207.978409 58.048344 
L 208.303909 56.372477 
L 208.532182 56.074156 
L 208.680136 56.186532 
L 208.897841 56.706208 
L 209.246591 58.208837 
L 209.842636 61.923758 
L 209.986364 62.931674 
L 209.988477 110.737376 
L 210.098386 108.85206 
L 210.292841 100.307665 
L 210.924818 73.379565 
L 211.381364 62.841696 
L 211.782955 58.056349 
L 212.108455 56.381186 
L 212.336727 56.083275 
L 212.484682 56.195878 
L 212.702386 56.715833 
L 213.051136 58.218773 
L 213.647182 61.933874 
L 213.790909 62.941774 
L 213.793023 110.741146 
L 213.902932 108.855864 
L 214.097386 100.311339 
L 214.729364 73.38443 
L 215.185909 62.847669 
L 215.5875 58.063202 
L 215.913 56.388639 
L 216.139159 56.091074 
L 216.287114 56.200779 
L 216.502705 56.710463 
L 216.849341 58.194157 
L 217.439045 61.854827 
L 217.595455 62.95041 
L 217.597568 110.744387 
L 217.707477 108.859133 
L 217.901932 100.314496 
L 218.533909 73.3886 
L 218.990455 62.852783 
L 219.392045 58.069066 
L 219.717545 56.395013 
L 219.943705 56.097743 
L 220.091659 56.207613 
L 220.30725 56.717498 
L 220.653886 58.201418 
L 221.243591 61.862219 
L 221.4 62.95779 
L 221.402114 110.747169 
L 221.512023 108.861939 
L 221.706477 100.317206 
L 222.338455 73.392171 
L 222.795 62.857159 
L 223.196591 58.07408 
L 223.522091 56.400463 
L 223.74825 56.103444 
L 223.896205 56.213455 
L 224.111795 56.72351 
L 224.458432 58.207622 
L 225.048136 61.868536 
L 225.204545 62.964096 
L 225.206659 110.749554 
L 225.316568 108.864345 
L 225.511023 100.31953 
L 226.143 73.395228 
L 226.599545 62.860901 
L 227.001136 58.078367 
L 227.326636 56.405121 
L 227.552795 56.108316 
L 227.70075 56.218447 
L 227.916341 56.728648 
L 228.262977 58.212923 
L 228.852682 61.873932 
L 229.009091 62.969483 
L 229.011205 110.751597 
L 229.121114 108.866405 
L 229.315568 100.32152 
L 229.947545 73.397843 
L 230.404091 62.8641 
L 230.805682 58.08203 
L 231.131182 56.409101 
L 231.357341 56.112478 
L 231.505295 56.222711 
L 231.720886 56.733036 
L 232.067523 58.217451 
L 232.659341 61.89314 
L 232.813636 62.974084 
L 232.81575 110.753346 
L 232.925659 108.868169 
L 233.120114 100.323223 
L 233.752091 73.400079 
L 234.208636 62.866834 
L 234.610227 58.08516 
L 234.935727 56.4125 
L 235.161886 56.116033 
L 235.309841 56.226353 
L 235.525432 56.736784 
L 235.872068 58.221318 
L 236.463886 61.897076 
L 236.618182 62.978012 
L 236.620295 110.754842 
L 236.730205 108.869678 
L 236.924659 100.32468 
L 237.556636 73.40199 
L 238.013182 62.86917 
L 238.414773 58.087834 
L 238.740273 56.415404 
L 238.966432 56.119069 
L 239.114386 56.229464 
L 239.329977 56.739985 
L 239.676614 58.22462 
L 240.268432 61.900436 
L 240.422727 62.981367 
L 240.424841 110.756122 
L 240.53475 108.870968 
L 240.729205 100.325926 
L 241.361182 73.403622 
L 241.817727 62.871165 
L 242.219318 58.090117 
L 242.544818 56.417883 
L 242.770977 56.121662 
L 242.918932 56.232119 
L 243.134523 56.742717 
L 243.481159 58.227439 
L 244.072977 61.903305 
L 244.227273 62.984231 
L 244.229386 110.757215 
L 244.339295 108.872071 
L 244.53375 100.326991 
L 245.165727 73.405017 
L 245.622273 62.872869 
L 246.023864 58.092066 
L 246.349364 56.42 
L 246.575523 56.123875 
L 246.723477 56.234387 
L 246.939068 56.745051 
L 247.285705 58.229846 
L 247.877523 61.905754 
L 248.031818 62.986676 
L 248.033932 110.75815 
L 248.143841 108.873013 
L 248.338295 100.327901 
L 248.970273 73.406209 
L 249.426818 62.874324 
L 249.828409 58.093731 
L 250.153909 56.421807 
L 250.380068 56.125765 
L 250.528023 56.236323 
L 250.743614 56.747042 
L 251.09025 58.2319 
L 251.682068 61.907845 
L 251.836364 62.988763 
L 251.838477 110.758948 
L 251.948386 108.873818 
L 252.142841 100.328678 
L 252.774818 73.407226 
L 253.231364 62.875566 
L 253.632955 58.095152 
L 253.958455 56.42335 
L 254.184614 56.127378 
L 254.332568 56.237975 
L 254.548159 56.748742 
L 254.894795 58.233654 
L 255.486614 61.909629 
L 255.640909 62.990544 
L 255.643023 110.75963 
L 255.752932 108.874506 
L 255.947386 100.329342 
L 256.579364 73.408095 
L 257.035909 62.876627 
L 257.4375 58.096365 
L 257.763 56.424667 
L 257.989159 56.128755 
L 258.137114 56.239386 
L 258.352705 56.750194 
L 258.699341 58.235151 
L 259.291159 61.911152 
L 259.445455 62.992065 
L 259.447568 110.760212 
L 259.557477 108.875093 
L 259.751932 100.329909 
L 260.383909 73.408836 
L 260.840455 62.877532 
L 261.242045 58.0974 
L 261.567545 56.425791 
L 261.793705 56.129931 
L 261.941659 56.240589 
L 262.15725 56.751432 
L 262.503886 58.236428 
L 263.095705 61.912452 
L 263.25 62.993362 
L 263.252114 110.760709 
L 263.362023 108.875594 
L 263.556477 100.330393 
L 264.188455 73.409469 
L 264.645 62.878305 
L 265.046591 58.098284 
L 265.372091 56.426751 
L 265.59825 56.130934 
L 265.746205 56.241617 
L 265.961795 56.75249 
L 266.308432 58.237519 
L 266.90025 61.913562 
L 267.054545 62.99447 
L 267.056659 110.761134 
L 267.166568 108.876022 
L 267.361023 100.330807 
L 267.993 73.41001 
L 268.449545 62.878965 
L 268.851136 58.099039 
L 269.176636 56.42757 
L 269.402795 56.13179 
L 269.55075 56.242494 
L 269.766341 56.753392 
L 270.112977 58.23845 
L 270.704795 61.914509 
L 270.859091 62.995415 
L 270.861205 110.761496 
L 270.971114 108.876387 
L 271.165568 100.331159 
L 271.797545 73.410471 
L 272.254091 62.879528 
L 272.655682 58.099682 
L 272.981182 56.428269 
L 273.207341 56.132521 
L 273.355295 56.243243 
L 273.570886 56.754162 
L 273.917523 58.239244 
L 274.509341 61.915317 
L 274.663636 62.996222 
L 274.66575 110.761805 
L 274.775659 108.876699 
L 274.970114 100.331461 
L 275.602091 73.410865 
L 276.058636 62.880008 
L 276.460227 58.100232 
L 276.785727 56.428865 
L 277.011886 56.133144 
L 277.159841 56.243882 
L 277.375432 56.754819 
L 277.722068 58.239922 
L 278.313886 61.916007 
L 278.468182 62.996911 
L 278.470295 110.762069 
L 278.580205 108.876965 
L 278.774659 100.331718 
L 279.406636 73.411201 
L 279.863182 62.880418 
L 280.264773 58.100701 
L 280.590273 56.429374 
L 280.816432 56.133677 
L 280.964386 56.244427 
L 281.179977 56.75538 
L 281.526614 58.240501 
L 282.118432 61.916596 
L 282.272727 62.997498 
L 282.274841 110.762295 
L 282.38475 108.877193 
L 282.579205 100.331937 
L 283.211182 73.411488 
L 283.667727 62.880768 
L 284.069318 58.101101 
L 284.394818 56.429809 
L 284.620977 56.134131 
L 284.768932 56.244892 
L 284.984523 56.755859 
L 285.331159 58.240994 
L 285.922977 61.917098 
L 286.077273 62.998 
L 286.079386 110.762487 
L 286.189295 108.877386 
L 286.38375 100.332124 
L 287.015727 73.411732 
L 287.472273 62.881067 
L 287.873864 58.101443 
L 288.199364 56.43018 
L 288.425523 56.134519 
L 288.573477 56.245289 
L 288.789068 56.756268 
L 289.135705 58.241416 
L 289.727523 61.917527 
L 289.881818 62.998428 
L 289.883932 110.762651 
L 289.993841 108.877552 
L 290.188295 100.332284 
L 290.820273 73.411941 
L 291.276818 62.881322 
L 291.678409 58.101734 
L 292.003909 56.430496 
L 292.230068 56.13485 
L 292.378023 56.245628 
L 292.593614 56.756616 
L 292.94025 58.241775 
L 293.532068 61.917893 
L 293.686364 62.998793 
L 293.688477 110.762791 
L 293.798386 108.877693 
L 293.992841 100.33242 
L 294.624818 73.41212 
L 295.081364 62.88154 
L 295.482955 58.101983 
L 295.808455 56.430766 
L 296.034614 56.135132 
L 296.182568 56.245917 
L 296.398159 56.756914 
L 296.744795 58.242082 
L 297.336614 61.918205 
L 297.490909 62.999105 
L 297.493023 110.762911 
L 297.602932 108.877814 
L 297.797386 100.332537 
L 298.429364 73.412272 
L 298.885909 62.881725 
L 299.2875 58.102196 
L 299.613 56.430997 
L 299.839159 56.135373 
L 299.987114 56.246164 
L 300.202705 56.757168 
L 300.549341 58.242344 
L 301.141159 61.918472 
L 301.295455 62.999371 
L 301.297568 110.763013 
L 301.407477 108.877917 
L 301.601932 100.332636 
L 302.233909 73.412402 
L 302.690455 62.881884 
L 303.092045 58.102377 
L 303.417545 56.431194 
L 303.643705 56.135579 
L 303.791659 56.246375 
L 304.00725 56.757384 
L 304.353886 58.242568 
L 304.945705 61.918699 
L 305.1 62.999598 
L 305.102114 110.7631 
L 305.212023 108.878004 
L 305.406477 100.332721 
L 306.038455 73.412512 
L 306.495 62.882019 
L 306.896591 58.102531 
L 307.222091 56.431362 
L 307.44825 56.135754 
L 307.596205 56.246555 
L 307.811795 56.75757 
L 308.158432 58.242759 
L 308.75025 61.918893 
L 308.904545 62.999792 
L 308.906659 110.763174 
L 309.016568 108.878079 
L 309.211023 100.332793 
L 309.843 73.412607 
L 310.299545 62.882134 
L 310.701136 58.102663 
L 311.026636 56.431505 
L 311.252795 56.135904 
L 311.40075 56.246708 
L 311.616341 56.757727 
L 311.962977 58.242921 
L 312.554795 61.919059 
L 312.709091 62.999957 
L 312.711205 110.763238 
L 312.821114 108.878143 
L 313.015568 100.332855 
L 313.647545 73.412688 
L 314.104091 62.882233 
L 314.505682 58.102776 
L 314.831182 56.431627 
L 315.057341 56.136032 
L 315.205295 56.246839 
L 315.420886 56.757862 
L 315.767523 58.24306 
L 316.359341 61.9192 
L 316.513636 63.000098 
L 316.51575 110.763292 
L 316.625659 108.878198 
L 316.820114 100.332908 
L 317.452091 73.412757 
L 317.908636 62.882317 
L 318.310227 58.102872 
L 318.635727 56.431731 
L 318.861886 56.136141 
L 319.009841 56.246951 
L 319.225432 56.757977 
L 319.572068 58.243179 
L 320.163886 61.919321 
L 320.318182 63.000219 
L 320.320295 110.763338 
L 320.430205 108.878244 
L 320.624659 100.332953 
L 321.256636 73.412815 
L 321.713182 62.882389 
L 322.114773 58.102954 
L 322.440273 56.43182 
L 322.666432 56.136234 
L 322.814386 56.247046 
L 323.029977 56.758075 
L 323.376614 58.24328 
L 323.968432 61.919424 
L 324.122727 63.000321 
L 324.124841 110.763377 
L 324.23475 108.878284 
L 324.429205 100.332991 
L 325.061182 73.412865 
L 325.517727 62.88245 
L 325.919318 58.103024 
L 326.244818 56.431896 
L 326.470977 56.136313 
L 326.618932 56.247127 
L 326.834523 56.758159 
L 327.181159 58.243367 
L 327.772977 61.919512 
L 327.927273 63.000409 
L 327.929386 110.763411 
L 328.039295 108.878318 
L 328.23375 100.333024 
L 328.865727 73.412908 
L 329.322273 62.882502 
L 329.723864 58.103084 
L 330.049364 56.431961 
L 330.275523 56.136381 
L 330.423477 56.247197 
L 330.639068 56.75823 
L 330.985705 58.24344 
L 331.577523 61.919587 
L 331.731818 63.000484 
L 331.733932 110.76344 
L 331.843841 108.878347 
L 332.038295 100.333052 
L 332.670273 73.412945 
L 333.126818 62.882547 
L 333.528409 58.103135 
L 333.853909 56.432017 
L 334.080068 56.136439 
L 334.228023 56.247256 
L 334.443614 56.758291 
L 334.79025 58.243503 
L 335.382068 61.919651 
L 335.536364 63.000548 
L 335.538477 110.763464 
L 335.648386 108.878372 
L 335.842841 100.333076 
L 336.474818 73.412976 
L 336.931364 62.882585 
L 337.332955 58.103179 
L 337.658455 56.432064 
L 337.884614 56.136488 
L 338.032568 56.247307 
L 338.250273 56.76514 
L 338.599023 58.265626 
L 339.192955 61.963543 
L 339.340909 63.000602 
L 339.343023 110.763485 
L 339.452932 108.878393 
L 339.647386 100.333096 
L 340.279364 73.413003 
L 340.735909 62.882617 
L 341.1375 58.103216 
L 341.463 56.432104 
L 341.689159 56.136531 
L 341.837114 56.24735 
L 342.052705 56.758388 
L 342.399341 58.243603 
L 342.991159 61.919752 
L 343.145455 63.000649 
L 343.147568 110.763503 
L 343.257477 108.878411 
L 343.451932 100.333113 
L 344.083909 73.413025 
L 344.540455 62.882645 
L 344.942045 58.103247 
L 345.267545 56.432139 
L 345.493705 56.136567 
L 345.641659 56.247387 
L 345.859364 56.765223 
L 346.208114 58.265711 
L 346.802045 61.963629 
L 346.95 63.000689 
L 346.952114 110.763518 
L 347.062023 108.878426 
L 347.256477 100.333128 
L 347.888455 73.413045 
L 348.345 62.882669 
L 348.746591 58.103274 
L 349.072091 56.432168 
L 349.29825 56.136597 
L 349.446205 56.247418 
L 349.661795 56.758458 
L 350.008432 58.243675 
L 350.60025 61.919826 
L 350.754545 63.000723 
L 350.756659 110.763531 
L 350.866568 108.878439 
L 351.061023 100.333141 
L 351.693 73.413061 
L 352.149545 62.882689 
L 352.551136 58.103297 
L 352.876636 56.432193 
L 353.102795 56.136623 
L 353.25075 56.247445 
L 353.468455 56.765282 
L 353.817205 58.265773 
L 354.411136 61.963692 
L 354.559091 63.000751 
L 354.561205 110.763542 
L 354.671114 108.87845 
L 354.865568 100.333152 
L 355.497545 73.413075 
L 355.954091 62.882706 
L 356.355682 58.103317 
L 356.681182 56.432214 
L 356.907341 56.136646 
L 357.055295 56.247468 
L 357.273 56.765306 
L 357.62175 58.265797 
L 358.215682 61.963717 
L 358.363636 63.000776 
L 358.36575 110.763552 
L 358.475659 108.87846 
L 358.670114 100.333161 
L 359.302091 73.413087 
L 359.758636 62.882721 
L 360.160227 58.103334 
L 360.485727 56.432233 
L 360.711886 56.136665 
L 360.859841 56.247488 
L 361.077545 56.765326 
L 361.426295 58.265818 
L 362.020227 61.963738 
L 362.168182 63.000797 
L 362.170295 110.76356 
L 362.280205 108.878468 
L 362.474659 100.333169 
L 363.106636 73.413098 
L 363.563182 62.882733 
L 363.964773 58.103348 
L 364.290273 56.432248 
L 364.516432 56.136681 
L 364.664386 56.247504 
L 364.882091 56.765343 
L 365.230841 58.265835 
L 365.824773 61.963756 
L 365.972727 63.000815 
L 365.974841 110.763567 
L 366.08475 108.878475 
L 366.279205 100.333176 
L 366.911182 73.413106 
L 367.367727 62.882744 
L 367.769318 58.103361 
L 368.094818 56.432262 
L 368.320977 56.136695 
L 368.468932 56.247518 
L 368.686636 56.765358 
L 369.035386 58.265851 
L 369.629318 61.963771 
L 369.777273 63.000831 
L 369.779386 110.763572 
L 369.889295 108.878481 
L 370.08375 100.333181 
L 370.715727 73.413114 
L 371.172273 62.882753 
L 371.573864 58.103371 
L 371.899364 56.432273 
L 372.125523 56.136707 
L 372.273477 56.247531 
L 372.491182 56.76537 
L 372.839932 58.265863 
L 373.433864 61.963785 
L 373.581818 63.000844 
L 373.581818 63.000844 
" clip-path="url(#pca811690fb)" style="fill: none; stroke: #ff7f0e; stroke-width: 1.5; stroke-linecap: square"/>
   </g>
   <g id="line2d_18">
    <path d="M 69.218182 242.116364 
L 69.296386 242.008153 
L 69.366136 240.689889 
L 69.564818 231.174907 
L 70.374341 191.92038 
L 70.997864 172.547062 
L 71.617159 159.771331 
L 72.238568 151.261034 
L 72.874773 145.429905 
L 73.022727 144.36476 
L 73.024841 202.253065 
L 73.13475 199.99864 
L 73.314409 189.545103 
L 74.028818 147.036222 
L 74.52975 130.300378 
L 74.998977 121.306832 
L 75.432273 116.793351 
L 75.819068 114.789037 
L 76.146682 114.079617 
L 76.408773 113.950686 
L 76.66875 114.081783 
L 76.827273 114.248686 
L 76.829386 172.70492 
L 76.939295 170.394551 
L 77.129523 159.680264 
L 77.793205 122.785959 
L 78.275114 107.914932 
L 78.716864 100.412237 
L 79.105773 97.087506 
L 79.427045 95.929209 
L 79.659545 95.728014 
L 79.843432 95.851041 
L 80.10975 96.356598 
L 80.559955 97.770557 
L 80.631818 98.034844 
L 80.633932 154.601262 
L 80.743841 152.340212 
L 80.938295 141.826507 
L 81.580841 108.007643 
L 82.054295 94.245482 
L 82.48125 87.547504 
L 82.851136 84.748103 
L 83.142818 83.918949 
L 83.335159 83.861628 
L 83.519045 84.086911 
L 83.808614 84.859792 
L 84.305318 86.926524 
L 84.436364 87.557006 
L 84.438477 140.717351 
L 84.548386 138.533395 
L 84.747068 128.171083 
L 85.366364 97.308517 
L 85.82925 84.645663 
L 86.245636 78.61523 
L 86.598614 76.251115 
L 86.864932 75.655045 
L 87.031909 75.674037 
L 87.226364 75.995142 
L 87.539182 77.020136 
L 88.082386 79.692579 
L 88.240909 80.579282 
L 88.243023 130.502259 
L 88.352932 128.398494 
L 88.553727 118.289153 
L 89.158227 89.568016 
L 89.614773 77.761868 
L 90.020591 72.308534 
L 90.358773 70.284996 
L 90.603955 69.851092 
L 90.756136 69.916843 
L 90.959045 70.320986 
L 91.288773 71.556895 
L 91.870023 74.747808 
L 92.045455 75.828226 
L 92.047568 123.22576 
L 92.157477 121.189145 
L 92.358273 111.384518 
L 92.954318 84.093527 
L 93.404523 72.945292 
L 93.801886 67.897105 
L 94.1295 66.099534 
L 94.359886 65.767341 
L 94.507841 65.868513 
L 94.721318 66.359383 
L 95.070068 67.8123 
L 95.697818 71.555425 
L 95.85 72.556135 
L 95.852114 118.115968 
L 95.962023 116.130503 
L 96.164932 106.437824 
L 96.752523 80.279202 
L 97.1985 69.579281 
L 97.591636 64.795794 
L 97.910795 63.163497 
L 98.130614 62.899465 
L 98.276455 63.026636 
L 98.498386 63.589005 
L 98.861932 65.218124 
L 99.527727 69.417763 
L 99.654545 70.288823 
L 99.656659 114.546822 
L 99.766568 112.597154 
L 99.969477 103.065194 
L 100.552841 77.618817 
L 100.996705 67.233444 
L 101.385614 62.66257 
L 101.698432 61.148981 
L 101.909795 60.931221 
L 102.05775 61.081709 
L 102.288136 61.711559 
L 102.664364 63.49405 
L 103.370318 68.131238 
L 103.459091 68.758739 
L 103.461205 112.055552 
L 103.571114 110.130967 
L 103.774023 100.710053 
L 104.353159 75.815799 
L 104.794909 65.657605 
L 105.179591 61.238248 
L 105.488182 59.797027 
L 105.693205 59.606352 
L 105.841159 59.768099 
L 106.073659 60.426698 
L 106.456227 62.290639 
L 107.179091 67.147341 
L 107.263636 67.75594 
L 107.26575 110.318865 
L 107.375659 108.412331 
L 107.580682 98.958111 
L 108.155591 74.547274 
L 108.595227 64.581873 
L 108.977795 60.272464 
L 109.282159 58.895313 
L 109.482955 58.725746 
L 109.633023 58.901514 
L 109.86975 59.597884 
L 110.258659 61.544362 
L 111.004773 66.651003 
L 111.068182 67.113099 
L 111.070295 109.111676 
L 111.180205 107.218373 
L 111.385227 97.820299 
L 111.955909 73.759976 
L 112.395545 63.873777 
L 112.776 59.640312 
L 113.07825 58.300254 
L 113.274818 58.144196 
L 113.424886 58.324969 
L 113.663727 59.039619 
L 114.05475 61.023463 
L 114.809318 66.242109 
L 114.872727 66.708018 
L 114.874841 108.277259 
L 114.98475 106.393577 
L 115.189773 97.035068 
L 115.760455 73.136528 
L 116.197977 63.386938 
L 116.576318 59.222447 
L 116.876455 57.913464 
L 117.070909 57.767585 
L 117.220977 57.953628 
L 117.461932 58.686062 
L 117.857182 60.716869 
L 118.626545 66.086021 
L 118.677273 66.460824 
L 118.679386 107.704285 
L 118.789295 105.827504 
L 118.994318 96.496428 
L 119.562886 72.779295 
L 120.000409 63.076675 
L 120.37875 58.948347 
L 120.676773 57.66885 
L 120.869114 57.531576 
L 121.021295 57.725865 
L 121.264364 58.478007 
L 121.663841 60.555974 
L 122.450114 66.084587 
L 122.481818 66.319672 
L 122.483932 107.313178 
L 122.593841 105.441326 
L 122.798864 96.129045 
L 123.365318 72.562067 
L 123.800727 62.920365 
L 124.179068 58.797125 
L 124.477091 57.524077 
L 124.669432 57.39158 
L 124.821614 57.589825 
L 125.066795 58.357001 
L 125.468386 60.462742 
L 126.267341 66.107809 
L 126.286364 66.249171 
L 126.288477 107.047614 
L 126.398386 105.179311 
L 126.605523 95.770861 
L 127.169864 72.378014 
L 127.605273 62.78097 
L 127.9815 58.704127 
L 128.279523 57.441708 
L 128.46975 57.31461 
L 128.621932 57.514335 
L 128.867114 58.284438 
L 129.270818 60.408803 
L 130.074 66.098421 
L 130.090909 66.224253 
L 130.093023 106.868419 
L 130.202932 105.002698 
L 130.410068 95.603133 
L 130.974409 72.259217 
L 131.409818 62.696693 
L 131.786045 58.644693 
L 132.081955 57.402594 
L 132.272182 57.279352 
L 132.424364 57.482077 
L 132.669545 58.256743 
L 133.07325 60.387623 
L 133.880659 66.117258 
L 133.895455 66.227454 
L 133.897568 106.748586 
L 134.007477 104.884758 
L 134.214614 95.49122 
L 134.776841 72.24677 
L 135.21225 62.681116 
L 135.588477 58.63055 
L 135.884386 57.390972 
L 136.074614 57.269664 
L 136.228909 57.478496 
L 136.476205 58.268773 
L 136.884136 60.43895 
L 137.7 66.247077 
L 137.702114 106.669466 
L 137.812023 104.807033 
L 138.019159 95.41754 
L 138.581386 72.201464 
L 139.016795 62.656978 
L 139.393023 58.621877 
L 139.688932 57.392431 
L 139.877045 57.275543 
L 140.031341 57.484956 
L 140.278636 58.276382 
L 140.686568 60.448613 
L 141.504545 66.275542 
L 141.506659 106.618123 
L 141.616568 104.756723 
L 141.823705 95.369905 
L 142.385932 72.175791 
L 142.821341 62.64811 
L 143.197568 58.625374 
L 143.493477 57.404035 
L 143.681591 57.291541 
L 143.835886 57.504123 
L 144.085295 58.30867 
L 144.495341 60.503727 
L 145.309091 66.308008 
L 145.311205 106.585581 
L 145.421114 104.724951 
L 145.62825 95.339872 
L 146.190477 72.162933 
L 146.623773 62.680881 
L 147 58.650049 
L 147.295909 57.42502 
L 147.484023 57.311037 
L 147.638318 57.52277 
L 147.887727 58.326477 
L 148.297773 60.521077 
L 149.113636 66.34142 
L 149.11575 106.565647 
L 149.225659 104.705598 
L 149.432795 95.321622 
L 149.995023 72.158252 
L 150.428318 62.687042 
L 150.802432 58.67846 
L 151.098341 57.448514 
L 151.286455 57.332374 
L 151.44075 57.542774 
L 151.688045 58.336152 
L 152.095977 60.511721 
L 152.918182 66.373905 
L 152.920295 106.554076 
L 153.030205 104.69447 
L 153.237341 95.311173 
L 153.799568 72.158623 
L 154.232864 62.696248 
L 154.606977 58.694282 
L 154.902886 57.468711 
L 155.091 57.354931 
L 155.245295 57.567019 
L 155.494705 58.371484 
L 155.90475 60.56736 
L 156.722727 66.404382 
L 156.724841 106.547982 
L 156.83475 104.688716 
L 157.041886 95.305816 
L 157.602 72.224042 
L 158.035295 62.738996 
L 158.409409 58.724482 
L 158.705318 57.492258 
L 158.893432 57.37538 
L 159.047727 57.585454 
L 159.295023 58.378657 
L 159.702955 60.554382 
L 160.527273 66.432299 
L 160.529386 106.545407 
L 160.639295 104.686406 
L 160.846432 95.303718 
L 161.406545 72.228974 
L 161.839841 62.749911 
L 162.213955 58.739918 
L 162.509864 57.51069 
L 162.697977 57.395423 
L 162.852273 57.606645 
L 163.099568 58.401368 
L 163.5075 60.57878 
L 164.331818 66.457444 
L 164.333932 106.545033 
L 164.443841 104.68624 
L 164.650977 95.303644 
L 165.211091 72.234645 
L 165.644386 62.760544 
L 166.0185 58.754317 
L 166.314409 57.527583 
L 166.502523 57.413657 
L 166.656818 57.625834 
L 166.906227 58.430656 
L 167.316273 60.627206 
L 168.136364 66.479818 
L 168.138477 106.545978 
L 168.248386 104.687351 
L 168.455523 95.304772 
L 169.015636 72.240498 
L 169.448932 62.770534 
L 169.823045 58.767456 
L 170.118955 57.542808 
L 170.307068 57.430001 
L 170.461364 57.642975 
L 170.710773 58.448853 
L 171.120818 60.646544 
L 171.940909 66.499547 
L 171.943023 106.547662 
L 172.052932 104.689167 
L 172.260068 95.30656 
L 172.820182 72.246196 
L 173.253477 62.779694 
L 173.627591 58.779257 
L 173.9235 57.55636 
L 174.111614 57.444493 
L 174.265909 57.658133 
L 174.515318 58.464893 
L 174.927477 60.676861 
L 175.745455 66.516823 
L 175.747568 106.549706 
L 175.857477 104.691318 
L 176.064614 95.308658 
L 176.624727 72.251545 
L 177.058023 62.78795 
L 177.432136 58.789736 
L 177.725932 57.572197 
L 177.914045 57.456077 
L 178.068341 57.666875 
L 178.315636 58.461249 
L 178.723568 60.638465 
L 179.55 66.53187 
L 179.552114 106.551872 
L 179.662023 104.693571 
L 179.869159 95.310844 
L 180.429273 72.256447 
L 180.862568 62.7953 
L 181.236682 58.798961 
L 181.530477 57.582657 
L 181.718591 57.467205 
L 181.872886 57.678476 
L 182.120182 58.473469 
L 182.528114 60.651348 
L 183.354545 66.544922 
L 183.356659 106.554011 
L 183.466568 104.695782 
L 183.673705 95.312985 
L 184.233818 72.260864 
L 184.667114 62.801783 
L 185.041227 58.807028 
L 185.335023 57.59177 
L 185.523136 57.476881 
L 185.677432 57.688552 
L 185.924727 58.484067 
L 186.334773 60.675791 
L 187.159091 66.556205 
L 187.161205 106.556039 
L 187.271114 104.697868 
L 187.47825 95.315001 
L 188.038364 72.264794 
L 188.471659 62.807461 
L 188.845773 58.814048 
L 189.139568 57.599674 
L 189.327682 57.485263 
L 189.481977 57.697272 
L 189.731386 58.502069 
L 190.141432 60.698728 
L 190.963636 66.565935 
L 190.96575 106.557908 
L 191.075659 104.699786 
L 191.282795 95.316853 
L 191.842909 72.26826 
L 192.276205 62.812407 
L 192.650318 58.820132 
L 192.944114 57.606508 
L 193.132227 57.492502 
L 193.286523 57.704798 
L 193.535932 58.509971 
L 193.945977 60.707026 
L 194.768182 66.574307 
L 194.770295 106.5596 
L 194.880205 104.701519 
L 195.087341 95.318525 
L 195.647455 72.271296 
L 196.08075 62.816698 
L 196.454864 58.825389 
L 196.748659 57.612402 
L 196.936773 57.49874 
L 197.091068 57.711278 
L 197.340477 58.516771 
L 197.750523 60.71416 
L 198.572727 66.5815 
L 198.574841 106.56111 
L 198.68475 104.703064 
L 198.891886 95.320014 
L 199.452 72.273939 
L 199.885295 62.820407 
L 200.259409 58.82992 
L 200.553205 57.617474 
L 200.741318 57.504103 
L 200.895614 57.716848 
L 201.145023 58.522612 
L 201.555068 60.720285 
L 202.377273 66.587671 
L 202.379386 106.562445 
L 202.489295 104.704427 
L 202.696432 95.321328 
L 203.256545 72.276232 
L 203.689841 62.823606 
L 204.063955 58.833817 
L 204.35775 57.621831 
L 204.545864 57.508709 
L 204.700159 57.72163 
L 204.949568 58.527624 
L 205.361727 60.738863 
L 206.181818 66.59296 
L 206.183932 106.563616 
L 206.293841 104.705622 
L 206.500977 95.322479 
L 207.061091 72.278214 
L 207.494386 62.826359 
L 207.8685 58.837164 
L 208.162295 57.62557 
L 208.350409 57.512659 
L 208.504705 57.725729 
L 208.754114 58.531919 
L 209.166273 60.743363 
L 209.986364 66.59749 
L 209.988477 106.564637 
L 210.098386 104.706664 
L 210.305523 95.323482 
L 210.865636 72.279923 
L 211.298932 62.828724 
L 211.673045 58.840035 
L 211.966841 57.628775 
L 212.154955 57.516044 
L 212.30925 57.729241 
L 212.558659 58.535597 
L 212.970818 60.747215 
L 213.790909 66.601366 
L 213.793023 106.565524 
L 213.902932 104.707568 
L 214.110068 95.324353 
L 214.670182 72.281393 
L 215.103477 62.830754 
L 215.477591 58.842495 
L 215.771386 57.631519 
L 215.9595 57.518941 
L 216.113795 57.732246 
L 216.363205 58.538745 
L 216.775364 60.750511 
L 217.595455 66.604681 
L 217.597568 106.566291 
L 217.707477 104.70835 
L 217.914614 95.325105 
L 218.474727 72.282656 
L 218.908023 62.832493 
L 219.282136 58.844602 
L 219.575932 57.633868 
L 219.764045 57.52142 
L 219.918341 57.734818 
L 220.16775 58.541437 
L 220.579909 60.753329 
L 221.4 66.607516 
L 221.402114 106.566952 
L 221.512023 104.709024 
L 221.719159 95.325754 
L 222.279273 72.28374 
L 222.712568 62.833982 
L 223.086682 58.846404 
L 223.380477 57.635877 
L 223.568591 57.52354 
L 223.722886 57.737017 
L 223.972295 58.543739 
L 224.384455 60.755738 
L 225.204545 66.609938 
L 225.206659 106.567522 
L 225.316568 104.709604 
L 225.523705 95.326313 
L 226.083818 72.284669 
L 226.517114 62.835257 
L 226.891227 58.847946 
L 227.185023 57.637594 
L 227.373136 57.525353 
L 227.527432 57.738896 
L 227.776841 58.545706 
L 228.189 60.757797 
L 229.009091 66.612008 
L 229.011205 106.568012 
L 229.121114 104.710103 
L 229.32825 95.326793 
L 229.888364 72.285465 
L 230.321659 62.836347 
L 230.695773 58.849264 
L 230.989568 57.639062 
L 231.177682 57.526901 
L 231.331977 57.740502 
L 231.581386 58.547386 
L 231.993545 60.759555 
L 232.813636 66.613776 
L 232.81575 106.568432 
L 232.925659 104.71053 
L 233.132795 95.327204 
L 233.692909 72.286145 
L 234.126205 62.837279 
L 234.500318 58.85039 
L 234.794114 57.640316 
L 234.982227 57.528224 
L 235.136523 57.741873 
L 235.385932 58.548822 
L 235.798091 60.761057 
L 236.618182 66.615285 
L 236.620295 106.568792 
L 236.730205 104.710897 
L 236.937341 95.327557 
L 237.497455 72.286727 
L 237.93075 62.838076 
L 238.304864 58.851352 
L 238.598659 57.641387 
L 238.786773 57.529354 
L 238.941068 57.743045 
L 239.190477 58.550048 
L 239.602636 60.76234 
L 240.422727 66.616575 
L 240.424841 106.5691 
L 240.53475 104.711211 
L 240.741886 95.327859 
L 241.302 72.287225 
L 241.735295 62.838757 
L 242.109409 58.852174 
L 242.403205 57.642302 
L 242.591318 57.53032 
L 242.745614 57.744046 
L 242.995023 58.551095 
L 243.407182 60.763435 
L 244.227273 66.617676 
L 244.229386 106.569364 
L 244.339295 104.71148 
L 244.546432 95.328118 
L 245.106545 72.287651 
L 245.539841 62.839338 
L 245.913955 58.852876 
L 246.20775 57.643083 
L 246.395864 57.531144 
L 246.550159 57.7449 
L 246.799568 58.551989 
L 247.211727 60.76437 
L 248.031818 66.618615 
L 248.033932 106.56959 
L 248.143841 104.711709 
L 248.350977 95.328339 
L 248.911091 72.288014 
L 249.344386 62.839835 
L 249.7185 58.853475 
L 250.012295 57.64375 
L 250.200409 57.531847 
L 250.354705 57.745629 
L 250.604114 58.552752 
L 251.016273 60.765169 
L 251.836364 66.619418 
L 251.838477 106.569783 
L 251.948386 104.711906 
L 252.155523 95.328528 
L 252.715636 72.288324 
L 253.148932 62.840259 
L 253.523045 58.853987 
L 253.816841 57.64432 
L 254.004955 57.532448 
L 254.15925 57.746252 
L 254.408659 58.553403 
L 254.820818 60.76585 
L 255.640909 66.620103 
L 255.643023 106.569948 
L 255.752932 104.712074 
L 255.960068 95.32869 
L 256.520182 72.28859 
L 256.953477 62.840621 
L 257.327591 58.854423 
L 257.621386 57.644806 
L 257.8095 57.532961 
L 257.963795 57.746784 
L 258.213205 58.55396 
L 258.625364 60.766432 
L 259.445455 66.620687 
L 259.447568 106.570089 
L 259.557477 104.712217 
L 259.764614 95.328828 
L 260.324727 72.288816 
L 260.758023 62.84093 
L 261.132136 58.854796 
L 261.425932 57.645221 
L 261.614045 57.533398 
L 261.768341 57.747237 
L 262.01775 58.554434 
L 262.429909 60.766928 
L 263.25 66.621186 
L 263.252114 106.570209 
L 263.362023 104.71234 
L 263.569159 95.328945 
L 264.129273 72.289009 
L 264.562568 62.841193 
L 264.936682 58.855115 
L 265.230477 57.645575 
L 265.418591 57.533772 
L 265.572886 57.747625 
L 265.822295 58.55484 
L 266.234455 60.767352 
L 267.054545 66.621612 
L 267.056659 106.570312 
L 267.166568 104.712444 
L 267.373705 95.329046 
L 267.933818 72.289174 
L 268.367114 62.841419 
L 268.741227 58.855386 
L 269.035023 57.645878 
L 269.223136 57.534091 
L 269.377432 57.747955 
L 269.626841 58.555185 
L 270.039 60.767714 
L 270.859091 66.621975 
L 270.861205 106.5704 
L 270.971114 104.712534 
L 271.17825 95.329132 
L 271.738364 72.289315 
L 272.171659 62.841611 
L 272.545773 58.855618 
L 272.839568 57.646136 
L 273.027682 57.534363 
L 273.181977 57.748237 
L 273.431386 58.555481 
L 273.843545 60.768023 
L 274.663636 66.622286 
L 274.66575 106.570475 
L 274.775659 104.71261 
L 274.982795 95.329206 
L 275.542909 72.289435 
L 275.976205 62.841775 
L 276.350318 58.855816 
L 276.644114 57.646356 
L 276.832227 57.534595 
L 276.986523 57.748478 
L 277.235932 58.555732 
L 277.648091 60.768286 
L 278.468182 66.62255 
L 278.470295 106.570539 
L 278.580205 104.712675 
L 278.787341 95.329268 
L 279.347455 72.289538 
L 279.78075 62.841915 
L 280.154864 58.855985 
L 280.448659 57.646544 
L 280.636773 57.534794 
L 280.791068 57.748684 
L 281.040477 58.555947 
L 281.452636 60.768511 
L 282.272727 66.622776 
L 282.274841 106.570594 
L 282.38475 104.712731 
L 282.591886 95.329322 
L 283.152 72.289626 
L 283.585295 62.842035 
L 283.959409 58.856129 
L 284.253205 57.646705 
L 284.441318 57.534963 
L 284.595614 57.748859 
L 284.845023 58.556131 
L 285.257182 60.768703 
L 286.077273 66.622969 
L 286.079386 106.57064 
L 286.189295 104.712778 
L 286.396432 95.329367 
L 286.956545 72.2897 
L 287.389841 62.842137 
L 287.763955 58.856252 
L 288.05775 57.646841 
L 288.245864 57.535107 
L 288.400159 57.749009 
L 288.649568 58.556288 
L 289.061727 60.768867 
L 289.881818 66.623134 
L 289.883932 106.57068 
L 289.993841 104.712819 
L 290.200977 95.329406 
L 290.761091 72.289764 
L 291.194386 62.842224 
L 291.5685 58.856357 
L 291.862295 57.646958 
L 292.050409 57.53523 
L 292.204705 57.749136 
L 292.454114 58.556421 
L 292.866273 60.769006 
L 293.686364 66.623274 
L 293.688477 106.570714 
L 293.798386 104.712853 
L 294.005523 95.32944 
L 294.565636 72.289819 
L 294.998932 62.842298 
L 295.373045 58.856447 
L 295.666841 57.647058 
L 295.854955 57.535336 
L 296.00925 57.749245 
L 296.258659 58.556535 
L 296.670818 60.769126 
L 297.490909 66.623394 
L 297.493023 106.570743 
L 297.602932 104.712883 
L 297.810068 95.329468 
L 298.370182 72.289865 
L 298.803477 62.842361 
L 299.177591 58.856524 
L 299.471386 57.647143 
L 299.6595 57.535425 
L 299.813795 57.749339 
L 300.063205 58.556632 
L 300.475364 60.769227 
L 301.295455 66.623496 
L 301.297568 106.570768 
L 301.407477 104.712908 
L 301.614614 95.329492 
L 302.174727 72.289905 
L 302.608023 62.842415 
L 302.982136 58.856589 
L 303.275932 57.647216 
L 303.464045 57.535502 
L 303.618341 57.749418 
L 303.86775 58.556716 
L 304.279909 60.769314 
L 305.1 66.623584 
L 305.102114 106.570789 
L 305.212023 104.71293 
L 305.419159 95.329513 
L 305.979273 72.289939 
L 306.412568 62.842462 
L 306.786682 58.856645 
L 307.080477 57.647278 
L 307.268591 57.535567 
L 307.422886 57.749486 
L 307.672295 58.556786 
L 308.084455 60.769388 
L 308.904545 66.623658 
L 308.906659 106.570807 
L 309.016568 104.712948 
L 309.223705 95.329531 
L 309.783818 72.289968 
L 310.217114 62.842501 
L 310.591227 58.856692 
L 310.885023 57.647331 
L 311.073136 57.535623 
L 311.227432 57.749543 
L 311.476841 58.556847 
L 311.889 60.769452 
L 312.709091 66.623722 
L 312.711205 106.570822 
L 312.821114 104.712964 
L 313.02825 95.329546 
L 313.588364 72.289992 
L 314.021659 62.842535 
L 314.395773 58.856733 
L 314.689568 57.647376 
L 314.877682 57.535671 
L 315.031977 57.749593 
L 315.281386 58.556899 
L 315.693545 60.769506 
L 316.513636 66.623776 
L 316.51575 106.570835 
L 316.625659 104.712977 
L 316.832795 95.329559 
L 317.392909 72.290013 
L 317.826205 62.842563 
L 318.200318 58.856767 
L 318.494114 57.647414 
L 318.682227 57.535711 
L 318.836523 57.749635 
L 319.085932 58.556943 
L 319.498091 60.769552 
L 320.318182 66.623822 
L 320.320295 106.570847 
L 320.430205 104.712988 
L 320.637341 95.32957 
L 321.197455 72.290031 
L 321.63075 62.842588 
L 322.004864 58.856797 
L 322.298659 57.647447 
L 322.486773 57.535746 
L 322.641068 57.749671 
L 322.890477 58.55698 
L 323.302636 60.769591 
L 324.122727 66.623862 
L 324.124841 106.570856 
L 324.23475 104.712998 
L 324.441886 95.329579 
L 325.002 72.290047 
L 325.435295 62.842609 
L 325.809409 58.856822 
L 326.103205 57.647475 
L 326.291318 57.535776 
L 326.445614 57.749702 
L 326.695023 58.557012 
L 327.107182 60.769625 
L 327.927273 66.623896 
L 327.929386 106.570864 
L 328.039295 104.713006 
L 328.246432 95.329587 
L 328.806545 72.29006 
L 329.239841 62.842627 
L 329.613955 58.856844 
L 329.90775 57.647499 
L 330.095864 57.535801 
L 330.250159 57.749728 
L 330.499568 58.55704 
L 330.911727 60.769653 
L 331.731818 66.623925 
L 331.733932 106.570871 
L 331.843841 104.713013 
L 332.050977 95.329594 
L 332.611091 72.290071 
L 333.044386 62.842642 
L 333.4185 58.856862 
L 333.712295 57.64752 
L 333.900409 57.535823 
L 334.054705 57.74975 
L 334.304114 58.557063 
L 334.716273 60.769678 
L 335.536364 66.623949 
L 335.538477 106.570877 
L 335.648386 104.71302 
L 335.855523 95.3296 
L 336.415636 72.29008 
L 336.848932 62.842655 
L 337.223045 58.856878 
L 337.516841 57.647537 
L 337.704955 57.535841 
L 337.85925 57.749769 
L 338.108659 58.557083 
L 338.520818 60.769699 
L 339.340909 66.62397 
L 339.343023 106.570882 
L 339.452932 104.713025 
L 339.660068 95.329605 
L 340.220182 72.290088 
L 340.653477 62.842666 
L 341.027591 58.856891 
L 341.321386 57.647552 
L 341.5095 57.535857 
L 341.663795 57.749785 
L 341.913205 58.5571 
L 342.325364 60.769717 
L 343.145455 66.623988 
L 343.147568 106.570887 
L 343.257477 104.713029 
L 343.464614 95.329609 
L 344.024727 72.290095 
L 344.458023 62.842675 
L 344.832136 58.856902 
L 345.125932 57.647565 
L 345.314045 57.53587 
L 345.468341 57.749799 
L 345.71775 58.557115 
L 346.129909 60.769732 
L 346.95 66.624003 
L 346.952114 106.57089 
L 347.062023 104.713033 
L 347.269159 95.329612 
L 347.829273 72.290101 
L 348.262568 62.842684 
L 348.636682 58.856912 
L 348.930477 57.647576 
L 349.118591 57.535881 
L 349.272886 57.749811 
L 349.522295 58.557127 
L 349.934455 60.769745 
L 350.754545 66.624016 
L 350.756659 106.570893 
L 350.866568 104.713036 
L 351.073705 95.329615 
L 351.633818 72.290106 
L 352.067114 62.84269 
L 352.441227 58.85692 
L 352.735023 57.647585 
L 352.923136 57.535891 
L 353.077432 57.749821 
L 353.326841 58.557138 
L 353.739 60.769756 
L 354.559091 66.624027 
L 354.561205 106.570896 
L 354.671114 104.713039 
L 354.87825 95.329618 
L 355.438364 72.290111 
L 355.871659 62.842696 
L 356.245773 58.856928 
L 356.539568 57.647593 
L 356.727682 57.5359 
L 356.881977 57.74983 
L 357.131386 58.557147 
L 357.543545 60.769765 
L 358.363636 66.624037 
L 358.36575 106.570898 
L 358.475659 104.713041 
L 358.682795 95.32962 
L 359.242909 72.290114 
L 359.676205 62.842701 
L 360.050318 58.856934 
L 360.344114 57.6476 
L 360.532227 57.535907 
L 360.686523 57.749837 
L 360.935932 58.557154 
L 361.348091 60.769773 
L 362.168182 66.624045 
L 362.170295 106.5709 
L 362.280205 104.713043 
L 362.487341 95.329622 
L 363.047455 72.290117 
L 363.48075 62.842706 
L 363.854864 58.856939 
L 364.148659 57.647605 
L 364.336773 57.535913 
L 364.491068 57.749844 
L 364.740477 58.557161 
L 365.152636 60.76978 
L 365.972727 66.624052 
L 365.974841 106.570902 
L 366.08475 104.713045 
L 366.291886 95.329624 
L 366.852 72.29012 
L 367.285295 62.842709 
L 367.659409 58.856943 
L 367.953205 57.64761 
L 368.141318 57.535918 
L 368.295614 57.749849 
L 368.545023 58.557167 
L 368.957182 60.769786 
L 369.777273 66.624058 
L 369.779386 106.570904 
L 369.889295 104.713046 
L 370.096432 95.329625 
L 370.656545 72.290122 
L 371.089841 62.842712 
L 371.463955 58.856947 
L 371.75775 57.647614 
L 371.945864 57.535922 
L 372.100159 57.749853 
L 372.349568 58.557171 
L 372.761727 60.769791 
L 373.581818 66.624063 
L 373.581818 66.624063 
" clip-path="url(#pca811690fb)" style="fill: none; stroke: #2ca02c; stroke-width: 1.5; stroke-linecap: square"/>
   </g>
   <g id="patch_3">
    <path d="M 54 252 
L 54 34.56 
" style="fill: none; stroke: #000000; stroke-width: 0.8; stroke-linejoin: miter; stroke-linecap: square"/>
   </g>
   <g id="patch_4">
    <path d="M 388.8 252 
L 388.8 34.56 
" style="fill: none; stroke: #000000; stroke-width: 0.8; stroke-linejoin: miter; stroke-linecap: square"/>
   </g>
   <g id="patch_5">
    <path d="M 54 252 
L 388.8 252 
" style="fill: none; stroke: #000000; stroke-width: 0.8; stroke-linejoin: miter; stroke-linecap: square"/>
   </g>
   <g id="patch_6">
    <path d="M 54 34.56 
L 388.8 34.56 
" style="fill: none; stroke: #000000; stroke-width: 0.8; stroke-linejoin: miter; stroke-linecap: square"/>
   </g>
   <g id="legend_1">
    <g id="patch_7">
     <path d="M 342.817187 247 
L 381.8 247 
Q 383.8 247 383.8 245 
L 383.8 201.965625 
Q 383.8 199.965625 381.8 199.965625 
L 342.817187 199.965625 
Q 340.817187 199.965625 340.817187 201.965625 
L 340.817187 245 
Q 340.817187 247 342.817187 247 
z
" style="fill: #ffffff; opacity: 0.8; stroke: #cccccc; stroke-linejoin: miter"/>
    </g>
    <g id="line2d_19">
     <path d="M 344.817187 208.064063 
L 354.817187 208.064063 
L 364.817187 208.064063 
" style="fill: none; stroke: #1f77b4; stroke-width: 1.5; stroke-linecap: square"/>
    </g>
    <g id="text_18">
     <!-- A -->
     <g transform="translate(372.817187 211.564063) scale(0.1 -0.1)">
      <defs>
       <path id="DejaVuSans-41" d="M 2188 4044 
L 1331 1722 
L 3047 1722 
L 2188 4044 
z
M 1831 4666 
L 2547 4666 
L 4325 0 
L 3669 0 
L 3244 1197 
L 1141 1197 
L 716 0 
L 50 0 
L 1831 4666 
z
" transform="scale(0.015625)"/>
      </defs>
      <use xlink:href="#DejaVuSans-41"/>
     </g>
    </g>
    <g id="line2d_20">
     <path d="M 344.817187 222.742188 
L 354.817187 222.742188 
L 364.817187 222.742188 
" style="fill: none; stroke: #ff7f0e; stroke-width: 1.5; stroke-linecap: square"/>
    </g>
    <g id="text_19">
     <!-- B -->
     <g transform="translate(372.817187 226.242188) scale(0.1 -0.1)">
      <defs>
       <path id="DejaVuSans-42" d="M 1259 2228 
L 1259 519 
L 2272 519 
Q 2781 519 3026 730 
Q 3272 941 3272 1375 
Q 3272 1813 3026 2020 
Q 2781 2228 2272 2228 
L 1259 2228 
z
M 1259 4147 
L 1259 2741 
L 2194 2741 
Q 2656 2741 2882 2914 
Q 3109 3088 3109 3444 
Q 3109 3797 2882 3972 
Q 2656 4147 2194 4147 
L 1259 4147 
z
M 628 4666 
L 2241 4666 
Q 2963 4666 3353 4366 
Q 3744 4066 3744 3513 
Q 3744 3084 3544 2831 
Q 3344 2578 2956 2516 
Q 3422 2416 3680 2098 
Q 3938 1781 3938 1306 
Q 3938 681 3513 340 
Q 3088 0 2303 0 
L 628 0 
L 628 4666 
z
" transform="scale(0.015625)"/>
      </defs>
      <use xlink:href="#DejaVuSans-42"/>
     </g>
    </g>
    <g id="line2d_21">
     <path d="M 344.817187 237.420313 
L 354.817187 237.420313 
L 364.817187 237.420313 
" style="fill: none; stroke: #2ca02c; stroke-width: 1.5; stroke-linecap: square"/>
    </g>
    <g id="text_20">
     <!-- C -->
     <g transform="translate(372.817187 240.920313) scale(0.1 -0.1)">
      <use xlink:href="#DejaVuSans-43"/>
     </g>
    </g>
   </g>
  </g>
 </g>
 <defs>
  <clipPath id="pca811690fb">
   <rect x="54" y="34.56" width="334.8" height="217.44"/>
  </clipPath>
 </defs>
</svg>
