<?xml version="1.0" encoding="utf-8" standalone="no"?>
<!DOCTYPE svg PUBLIC "-//W3C//DTD SVG 1.1//EN"
  "http://www.w3.org/Graphics/SVG/1.1/DTD/svg11.dtd">
<svg xmlns:xlink="http://www.w3.org/1999/xlink" width="432pt" height="288pt" viewBox="0 0 432 288" xmlns="http://www.w3.org/2000/svg" version="1.1">
 <metadata>
  <rdf:RDF xmlns:dc="http://purl.org/dc/elements/1.1/" xmlns:cc="http://creativecommons.org/ns#" xmlns:rdf="http://www.w3.org/1999/02/22-rdf-syntax-ns#">
   <cc:Work>
    <dc:type rdf:resource="http://purl.org/dc/dcmitype/StillImage"/>
    <dc:date>2024-10-07T10:56:21.108392</dc:date>
    <dc:format>image/svg+xml</dc:format>
    <dc:creator>
     <cc:Agent>
      <dc:title>Matplotlib v3.9.1, https://matplotlib.org/</dc:title>
     </cc:Agent>
    </dc:creator>
   </cc:Work>
  </rdf:RDF>
 </metadata>
 <defs>
  <style type="text/css">*{stroke-linejoin: round; stroke-linecap: butt}</style>
 </defs>
 <g id="figure_1">
  <g id="patch_1">
   <path d="M 0 288 
L 432 288 
L 432 0 
L 0 0 
z
" style="fill: #ffffff"/>
  </g>
  <g id="axes_1">
   <g id="patch_2">
    <path d="M 54 252 
L 388.8 252 
L 388.8 34.56 
L 54 34.56 
z
" style="fill: #ffffff"/>
   </g>
   <g id="matplotlib.axis_1">
    <g id="xtick_1">
     <g id="line2d_1">
      <defs>
       <path id="m5acc78bc66" d="M 0 0 
L 0 3.5 
" style="stroke: #000000; stroke-width: 0.8"/>
      </defs>
      <g>
       <use xlink:href="#m5acc78bc66" x="69.218182" y="252" style="stroke: #000000; stroke-width: 0.8"/>
      </g>
     </g>
     <g id="text_1">
      <!-- 0 -->
      <g transform="translate(66.036932 266.598437) scale(0.1 -0.1)">
       <defs>
        <path id="DejaVuSans-30" d="M 2034 4250 
Q 1547 4250 1301 3770 
Q 1056 3291 1056 2328 
Q 1056 1369 1301 889 
Q 1547 409 2034 409 
Q 2525 409 2770 889 
Q 3016 1369 3016 2328 
Q 3016 3291 2770 3770 
Q 2525 4250 2034 4250 
z
M 2034 4750 
Q 2819 4750 3233 4129 
Q 3647 3509 3647 2328 
Q 3647 1150 3233 529 
Q 2819 -91 2034 -91 
Q 1250 -91 836 529 
Q 422 1150 422 2328 
Q 422 3509 836 4129 
Q 1250 4750 2034 4750 
z
" transform="scale(0.015625)"/>
       </defs>
       <use xlink:href="#DejaVuSans-30"/>
      </g>
     </g>
    </g>
    <g id="xtick_2">
     <g id="line2d_2">
      <g>
       <use xlink:href="#m5acc78bc66" x="111.490909" y="252" style="stroke: #000000; stroke-width: 0.8"/>
      </g>
     </g>
     <g id="text_2">
      <!-- 2000 -->
      <g transform="translate(98.765909 266.598437) scale(0.1 -0.1)">
       <defs>
        <path id="DejaVuSans-32" d="M 1228 531 
L 3431 531 
L 3431 0 
L 469 0 
L 469 531 
Q 828 903 1448 1529 
Q 2069 2156 2228 2338 
Q 2531 2678 2651 2914 
Q 2772 3150 2772 3378 
Q 2772 3750 2511 3984 
Q 2250 4219 1831 4219 
Q 1534 4219 1204 4116 
Q 875 4013 500 3803 
L 500 4441 
Q 881 4594 1212 4672 
Q 1544 4750 1819 4750 
Q 2544 4750 2975 4387 
Q 3406 4025 3406 3419 
Q 3406 3131 3298 2873 
Q 3191 2616 2906 2266 
Q 2828 2175 2409 1742 
Q 1991 1309 1228 531 
z
" transform="scale(0.015625)"/>
       </defs>
       <use xlink:href="#DejaVuSans-32"/>
       <use xlink:href="#DejaVuSans-30" x="63.623047"/>
       <use xlink:href="#DejaVuSans-30" x="127.246094"/>
       <use xlink:href="#DejaVuSans-30" x="190.869141"/>
      </g>
     </g>
    </g>
    <g id="xtick_3">
     <g id="line2d_3">
      <g>
       <use xlink:href="#m5acc78bc66" x="153.763636" y="252" style="stroke: #000000; stroke-width: 0.8"/>
      </g>
     </g>
     <g id="text_3">
      <!-- 4000 -->
      <g transform="translate(141.038636 266.598437) scale(0.1 -0.1)">
       <defs>
        <path id="DejaVuSans-34" d="M 2419 4116 
L 825 1625 
L 2419 1625 
L 2419 4116 
z
M 2253 4666 
L 3047 4666 
L 3047 1625 
L 3713 1625 
L 3713 1100 
L 3047 1100 
L 3047 0 
L 2419 0 
L 2419 1100 
L 313 1100 
L 313 1709 
L 2253 4666 
z
" transform="scale(0.015625)"/>
       </defs>
       <use xlink:href="#DejaVuSans-34"/>
       <use xlink:href="#DejaVuSans-30" x="63.623047"/>
       <use xlink:href="#DejaVuSans-30" x="127.246094"/>
       <use xlink:href="#DejaVuSans-30" x="190.869141"/>
      </g>
     </g>
    </g>
    <g id="xtick_4">
     <g id="line2d_4">
      <g>
       <use xlink:href="#m5acc78bc66" x="196.036364" y="252" style="stroke: #000000; stroke-width: 0.8"/>
      </g>
     </g>
     <g id="text_4">
      <!-- 6000 -->
      <g transform="translate(183.311364 266.598437) scale(0.1 -0.1)">
       <defs>
        <path id="DejaVuSans-36" d="M 2113 2584 
Q 1688 2584 1439 2293 
Q 1191 2003 1191 1497 
Q 1191 994 1439 701 
Q 1688 409 2113 409 
Q 2538 409 2786 701 
Q 3034 994 3034 1497 
Q 3034 2003 2786 2293 
Q 2538 2584 2113 2584 
z
M 3366 4563 
L 3366 3988 
Q 3128 4100 2886 4159 
Q 2644 4219 2406 4219 
Q 1781 4219 1451 3797 
Q 1122 3375 1075 2522 
Q 1259 2794 1537 2939 
Q 1816 3084 2150 3084 
Q 2853 3084 3261 2657 
Q 3669 2231 3669 1497 
Q 3669 778 3244 343 
Q 2819 -91 2113 -91 
Q 1303 -91 875 529 
Q 447 1150 447 2328 
Q 447 3434 972 4092 
Q 1497 4750 2381 4750 
Q 2619 4750 2861 4703 
Q 3103 4656 3366 4563 
z
" transform="scale(0.015625)"/>
       </defs>
       <use xlink:href="#DejaVuSans-36"/>
       <use xlink:href="#DejaVuSans-30" x="63.623047"/>
       <use xlink:href="#DejaVuSans-30" x="127.246094"/>
       <use xlink:href="#DejaVuSans-30" x="190.869141"/>
      </g>
     </g>
    </g>
    <g id="xtick_5">
     <g id="line2d_5">
      <g>
       <use xlink:href="#m5acc78bc66" x="238.309091" y="252" style="stroke: #000000; stroke-width: 0.8"/>
      </g>
     </g>
     <g id="text_5">
      <!-- 8000 -->
      <g transform="translate(225.584091 266.598437) scale(0.1 -0.1)">
       <defs>
        <path id="DejaVuSans-38" d="M 2034 2216 
Q 1584 2216 1326 1975 
Q 1069 1734 1069 1313 
Q 1069 891 1326 650 
Q 1584 409 2034 409 
Q 2484 409 2743 651 
Q 3003 894 3003 1313 
Q 3003 1734 2745 1975 
Q 2488 2216 2034 2216 
z
M 1403 2484 
Q 997 2584 770 2862 
Q 544 3141 544 3541 
Q 544 4100 942 4425 
Q 1341 4750 2034 4750 
Q 2731 4750 3128 4425 
Q 3525 4100 3525 3541 
Q 3525 3141 3298 2862 
Q 3072 2584 2669 2484 
Q 3125 2378 3379 2068 
Q 3634 1759 3634 1313 
Q 3634 634 3220 271 
Q 2806 -91 2034 -91 
Q 1263 -91 848 271 
Q 434 634 434 1313 
Q 434 1759 690 2068 
Q 947 2378 1403 2484 
z
M 1172 3481 
Q 1172 3119 1398 2916 
Q 1625 2713 2034 2713 
Q 2441 2713 2670 2916 
Q 2900 3119 2900 3481 
Q 2900 3844 2670 4047 
Q 2441 4250 2034 4250 
Q 1625 4250 1398 4047 
Q 1172 3844 1172 3481 
z
" transform="scale(0.015625)"/>
       </defs>
       <use xlink:href="#DejaVuSans-38"/>
       <use xlink:href="#DejaVuSans-30" x="63.623047"/>
       <use xlink:href="#DejaVuSans-30" x="127.246094"/>
       <use xlink:href="#DejaVuSans-30" x="190.869141"/>
      </g>
     </g>
    </g>
    <g id="xtick_6">
     <g id="line2d_6">
      <g>
       <use xlink:href="#m5acc78bc66" x="280.581818" y="252" style="stroke: #000000; stroke-width: 0.8"/>
      </g>
     </g>
     <g id="text_6">
      <!-- 10000 -->
      <g transform="translate(264.675568 266.598437) scale(0.1 -0.1)">
       <defs>
        <path id="DejaVuSans-31" d="M 794 531 
L 1825 531 
L 1825 4091 
L 703 3866 
L 703 4441 
L 1819 4666 
L 2450 4666 
L 2450 531 
L 3481 531 
L 3481 0 
L 794 0 
L 794 531 
z
" transform="scale(0.015625)"/>
       </defs>
       <use xlink:href="#DejaVuSans-31"/>
       <use xlink:href="#DejaVuSans-30" x="63.623047"/>
       <use xlink:href="#DejaVuSans-30" x="127.246094"/>
       <use xlink:href="#DejaVuSans-30" x="190.869141"/>
       <use xlink:href="#DejaVuSans-30" x="254.492188"/>
      </g>
     </g>
    </g>
    <g id="xtick_7">
     <g id="line2d_7">
      <g>
       <use xlink:href="#m5acc78bc66" x="322.854545" y="252" style="stroke: #000000; stroke-width: 0.8"/>
      </g>
     </g>
     <g id="text_7">
      <!-- 12000 -->
      <g transform="translate(306.948295 266.598437) scale(0.1 -0.1)">
       <use xlink:href="#DejaVuSans-31"/>
       <use xlink:href="#DejaVuSans-32" x="63.623047"/>
       <use xlink:href="#DejaVuSans-30" x="127.246094"/>
       <use xlink:href="#DejaVuSans-30" x="190.869141"/>
       <use xlink:href="#DejaVuSans-30" x="254.492188"/>
      </g>
     </g>
    </g>
    <g id="xtick_8">
     <g id="line2d_8">
      <g>
       <use xlink:href="#m5acc78bc66" x="365.127273" y="252" style="stroke: #000000; stroke-width: 0.8"/>
      </g>
     </g>
     <g id="text_8">
      <!-- 14000 -->
      <g transform="translate(349.221023 266.598437) scale(0.1 -0.1)">
       <use xlink:href="#DejaVuSans-31"/>
       <use xlink:href="#DejaVuSans-34" x="63.623047"/>
       <use xlink:href="#DejaVuSans-30" x="127.246094"/>
       <use xlink:href="#DejaVuSans-30" x="190.869141"/>
       <use xlink:href="#DejaVuSans-30" x="254.492188"/>
      </g>
     </g>
    </g>
    <g id="text_9">
     <!-- Time / s -->
     <g transform="translate(201.699219 280.276563) scale(0.1 -0.1)">
      <defs>
       <path id="DejaVuSans-54" d="M -19 4666 
L 3928 4666 
L 3928 4134 
L 2272 4134 
L 2272 0 
L 1638 0 
L 1638 4134 
L -19 4134 
L -19 4666 
z
" transform="scale(0.015625)"/>
       <path id="DejaVuSans-69" d="M 603 3500 
L 1178 3500 
L 1178 0 
L 603 0 
L 603 3500 
z
M 603 4863 
L 1178 4863 
L 1178 4134 
L 603 4134 
L 603 4863 
z
" transform="scale(0.015625)"/>
       <path id="DejaVuSans-6d" d="M 3328 2828 
Q 3544 3216 3844 3400 
Q 4144 3584 4550 3584 
Q 5097 3584 5394 3201 
Q 5691 2819 5691 2113 
L 5691 0 
L 5113 0 
L 5113 2094 
Q 5113 2597 4934 2840 
Q 4756 3084 4391 3084 
Q 3944 3084 3684 2787 
Q 3425 2491 3425 1978 
L 3425 0 
L 2847 0 
L 2847 2094 
Q 2847 2600 2669 2842 
Q 2491 3084 2119 3084 
Q 1678 3084 1418 2786 
Q 1159 2488 1159 1978 
L 1159 0 
L 581 0 
L 581 3500 
L 1159 3500 
L 1159 2956 
Q 1356 3278 1631 3431 
Q 1906 3584 2284 3584 
Q 2666 3584 2933 3390 
Q 3200 3197 3328 2828 
z
" transform="scale(0.015625)"/>
       <path id="DejaVuSans-65" d="M 3597 1894 
L 3597 1613 
L 953 1613 
Q 991 1019 1311 708 
Q 1631 397 2203 397 
Q 2534 397 2845 478 
Q 3156 559 3463 722 
L 3463 178 
Q 3153 47 2828 -22 
Q 2503 -91 2169 -91 
Q 1331 -91 842 396 
Q 353 884 353 1716 
Q 353 2575 817 3079 
Q 1281 3584 2069 3584 
Q 2775 3584 3186 3129 
Q 3597 2675 3597 1894 
z
M 3022 2063 
Q 3016 2534 2758 2815 
Q 2500 3097 2075 3097 
Q 1594 3097 1305 2825 
Q 1016 2553 972 2059 
L 3022 2063 
z
" transform="scale(0.015625)"/>
       <path id="DejaVuSans-20" transform="scale(0.015625)"/>
       <path id="DejaVuSans-2f" d="M 1625 4666 
L 2156 4666 
L 531 -594 
L 0 -594 
L 1625 4666 
z
" transform="scale(0.015625)"/>
       <path id="DejaVuSans-73" d="M 2834 3397 
L 2834 2853 
Q 2591 2978 2328 3040 
Q 2066 3103 1784 3103 
Q 1356 3103 1142 2972 
Q 928 2841 928 2578 
Q 928 2378 1081 2264 
Q 1234 2150 1697 2047 
L 1894 2003 
Q 2506 1872 2764 1633 
Q 3022 1394 3022 966 
Q 3022 478 2636 193 
Q 2250 -91 1575 -91 
Q 1294 -91 989 -36 
Q 684 19 347 128 
L 347 722 
Q 666 556 975 473 
Q 1284 391 1588 391 
Q 1994 391 2212 530 
Q 2431 669 2431 922 
Q 2431 1156 2273 1281 
Q 2116 1406 1581 1522 
L 1381 1569 
Q 847 1681 609 1914 
Q 372 2147 372 2553 
Q 372 3047 722 3315 
Q 1072 3584 1716 3584 
Q 2034 3584 2315 3537 
Q 2597 3491 2834 3397 
z
" transform="scale(0.015625)"/>
      </defs>
      <use xlink:href="#DejaVuSans-54"/>
      <use xlink:href="#DejaVuSans-69" x="57.958984"/>
      <use xlink:href="#DejaVuSans-6d" x="85.742188"/>
      <use xlink:href="#DejaVuSans-65" x="183.154297"/>
      <use xlink:href="#DejaVuSans-20" x="244.677734"/>
      <use xlink:href="#DejaVuSans-2f" x="276.464844"/>
      <use xlink:href="#DejaVuSans-20" x="310.15625"/>
      <use xlink:href="#DejaVuSans-73" x="341.943359"/>
     </g>
    </g>
   </g>
   <g id="matplotlib.axis_2">
    <g id="ytick_1">
     <g id="line2d_9">
      <defs>
       <path id="m676eb2af1a" d="M 0 0 
L -3.5 0 
" style="stroke: #000000; stroke-width: 0.8"/>
      </defs>
      <g>
       <use xlink:href="#m676eb2af1a" x="54" y="242.116364" style="stroke: #000000; stroke-width: 0.8"/>
      </g>
     </g>
     <g id="text_10">
      <!-- 0.0 -->
      <g transform="translate(31.096875 245.915582) scale(0.1 -0.1)">
       <defs>
        <path id="DejaVuSans-2e" d="M 684 794 
L 1344 794 
L 1344 0 
L 684 0 
L 684 794 
z
" transform="scale(0.015625)"/>
       </defs>
       <use xlink:href="#DejaVuSans-30"/>
       <use xlink:href="#DejaVuSans-2e" x="63.623047"/>
       <use xlink:href="#DejaVuSans-30" x="95.410156"/>
      </g>
     </g>
    </g>
    <g id="ytick_2">
     <g id="line2d_10">
      <g>
       <use xlink:href="#m676eb2af1a" x="54" y="204.500631" style="stroke: #000000; stroke-width: 0.8"/>
      </g>
     </g>
     <g id="text_11">
      <!-- 0.1 -->
      <g transform="translate(31.096875 208.29985) scale(0.1 -0.1)">
       <use xlink:href="#DejaVuSans-30"/>
       <use xlink:href="#DejaVuSans-2e" x="63.623047"/>
       <use xlink:href="#DejaVuSans-31" x="95.410156"/>
      </g>
     </g>
    </g>
    <g id="ytick_3">
     <g id="line2d_11">
      <g>
       <use xlink:href="#m676eb2af1a" x="54" y="166.884899" style="stroke: #000000; stroke-width: 0.8"/>
      </g>
     </g>
     <g id="text_12">
      <!-- 0.2 -->
      <g transform="translate(31.096875 170.684118) scale(0.1 -0.1)">
       <use xlink:href="#DejaVuSans-30"/>
       <use xlink:href="#DejaVuSans-2e" x="63.623047"/>
       <use xlink:href="#DejaVuSans-32" x="95.410156"/>
      </g>
     </g>
    </g>
    <g id="ytick_4">
     <g id="line2d_12">
      <g>
       <use xlink:href="#m676eb2af1a" x="54" y="129.269167" style="stroke: #000000; stroke-width: 0.8"/>
      </g>
     </g>
     <g id="text_13">
      <!-- 0.3 -->
      <g transform="translate(31.096875 133.068386) scale(0.1 -0.1)">
       <defs>
        <path id="DejaVuSans-33" d="M 2597 2516 
Q 3050 2419 3304 2112 
Q 3559 1806 3559 1356 
Q 3559 666 3084 287 
Q 2609 -91 1734 -91 
Q 1441 -91 1130 -33 
Q 819 25 488 141 
L 488 750 
Q 750 597 1062 519 
Q 1375 441 1716 441 
Q 2309 441 2620 675 
Q 2931 909 2931 1356 
Q 2931 1769 2642 2001 
Q 2353 2234 1838 2234 
L 1294 2234 
L 1294 2753 
L 1863 2753 
Q 2328 2753 2575 2939 
Q 2822 3125 2822 3475 
Q 2822 3834 2567 4026 
Q 2313 4219 1838 4219 
Q 1578 4219 1281 4162 
Q 984 4106 628 3988 
L 628 4550 
Q 988 4650 1302 4700 
Q 1616 4750 1894 4750 
Q 2613 4750 3031 4423 
Q 3450 4097 3450 3541 
Q 3450 3153 3228 2886 
Q 3006 2619 2597 2516 
z
" transform="scale(0.015625)"/>
       </defs>
       <use xlink:href="#DejaVuSans-30"/>
       <use xlink:href="#DejaVuSans-2e" x="63.623047"/>
       <use xlink:href="#DejaVuSans-33" x="95.410156"/>
      </g>
     </g>
    </g>
    <g id="ytick_5">
     <g id="line2d_13">
      <g>
       <use xlink:href="#m676eb2af1a" x="54" y="91.653435" style="stroke: #000000; stroke-width: 0.8"/>
      </g>
     </g>
     <g id="text_14">
      <!-- 0.4 -->
      <g transform="translate(31.096875 95.452654) scale(0.1 -0.1)">
       <use xlink:href="#DejaVuSans-30"/>
       <use xlink:href="#DejaVuSans-2e" x="63.623047"/>
       <use xlink:href="#DejaVuSans-34" x="95.410156"/>
      </g>
     </g>
    </g>
    <g id="ytick_6">
     <g id="line2d_14">
      <g>
       <use xlink:href="#m676eb2af1a" x="54" y="54.037703" style="stroke: #000000; stroke-width: 0.8"/>
      </g>
     </g>
     <g id="text_15">
      <!-- 0.5 -->
      <g transform="translate(31.096875 57.836921) scale(0.1 -0.1)">
       <defs>
        <path id="DejaVuSans-35" d="M 691 4666 
L 3169 4666 
L 3169 4134 
L 1269 4134 
L 1269 2991 
Q 1406 3038 1543 3061 
Q 1681 3084 1819 3084 
Q 2600 3084 3056 2656 
Q 3513 2228 3513 1497 
Q 3513 744 3044 326 
Q 2575 -91 1722 -91 
Q 1428 -91 1123 -41 
Q 819 9 494 109 
L 494 744 
Q 775 591 1075 516 
Q 1375 441 1709 441 
Q 2250 441 2565 725 
Q 2881 1009 2881 1497 
Q 2881 1984 2565 2268 
Q 2250 2553 1709 2553 
Q 1456 2553 1204 2497 
Q 953 2441 691 2322 
L 691 4666 
z
" transform="scale(0.015625)"/>
       </defs>
       <use xlink:href="#DejaVuSans-30"/>
       <use xlink:href="#DejaVuSans-2e" x="63.623047"/>
       <use xlink:href="#DejaVuSans-35" x="95.410156"/>
      </g>
     </g>
    </g>
    <g id="text_16">
     <!-- Concentration / mM -->
     <g transform="translate(25.017187 192.697969) rotate(-90) scale(0.1 -0.1)">
      <defs>
       <path id="DejaVuSans-43" d="M 4122 4306 
L 4122 3641 
Q 3803 3938 3442 4084 
Q 3081 4231 2675 4231 
Q 1875 4231 1450 3742 
Q 1025 3253 1025 2328 
Q 1025 1406 1450 917 
Q 1875 428 2675 428 
Q 3081 428 3442 575 
Q 3803 722 4122 1019 
L 4122 359 
Q 3791 134 3420 21 
Q 3050 -91 2638 -91 
Q 1578 -91 968 557 
Q 359 1206 359 2328 
Q 359 3453 968 4101 
Q 1578 4750 2638 4750 
Q 3056 4750 3426 4639 
Q 3797 4528 4122 4306 
z
" transform="scale(0.015625)"/>
       <path id="DejaVuSans-6f" d="M 1959 3097 
Q 1497 3097 1228 2736 
Q 959 2375 959 1747 
Q 959 1119 1226 758 
Q 1494 397 1959 397 
Q 2419 397 2687 759 
Q 2956 1122 2956 1747 
Q 2956 2369 2687 2733 
Q 2419 3097 1959 3097 
z
M 1959 3584 
Q 2709 3584 3137 3096 
Q 3566 2609 3566 1747 
Q 3566 888 3137 398 
Q 2709 -91 1959 -91 
Q 1206 -91 779 398 
Q 353 888 353 1747 
Q 353 2609 779 3096 
Q 1206 3584 1959 3584 
z
" transform="scale(0.015625)"/>
       <path id="DejaVuSans-6e" d="M 3513 2113 
L 3513 0 
L 2938 0 
L 2938 2094 
Q 2938 2591 2744 2837 
Q 2550 3084 2163 3084 
Q 1697 3084 1428 2787 
Q 1159 2491 1159 1978 
L 1159 0 
L 581 0 
L 581 3500 
L 1159 3500 
L 1159 2956 
Q 1366 3272 1645 3428 
Q 1925 3584 2291 3584 
Q 2894 3584 3203 3211 
Q 3513 2838 3513 2113 
z
" transform="scale(0.015625)"/>
       <path id="DejaVuSans-63" d="M 3122 3366 
L 3122 2828 
Q 2878 2963 2633 3030 
Q 2388 3097 2138 3097 
Q 1578 3097 1268 2742 
Q 959 2388 959 1747 
Q 959 1106 1268 751 
Q 1578 397 2138 397 
Q 2388 397 2633 464 
Q 2878 531 3122 666 
L 3122 134 
Q 2881 22 2623 -34 
Q 2366 -91 2075 -91 
Q 1284 -91 818 406 
Q 353 903 353 1747 
Q 353 2603 823 3093 
Q 1294 3584 2113 3584 
Q 2378 3584 2631 3529 
Q 2884 3475 3122 3366 
z
" transform="scale(0.015625)"/>
       <path id="DejaVuSans-74" d="M 1172 4494 
L 1172 3500 
L 2356 3500 
L 2356 3053 
L 1172 3053 
L 1172 1153 
Q 1172 725 1289 603 
Q 1406 481 1766 481 
L 2356 481 
L 2356 0 
L 1766 0 
Q 1100 0 847 248 
Q 594 497 594 1153 
L 594 3053 
L 172 3053 
L 172 3500 
L 594 3500 
L 594 4494 
L 1172 4494 
z
" transform="scale(0.015625)"/>
       <path id="DejaVuSans-72" d="M 2631 2963 
Q 2534 3019 2420 3045 
Q 2306 3072 2169 3072 
Q 1681 3072 1420 2755 
Q 1159 2438 1159 1844 
L 1159 0 
L 581 0 
L 581 3500 
L 1159 3500 
L 1159 2956 
Q 1341 3275 1631 3429 
Q 1922 3584 2338 3584 
Q 2397 3584 2469 3576 
Q 2541 3569 2628 3553 
L 2631 2963 
z
" transform="scale(0.015625)"/>
       <path id="DejaVuSans-61" d="M 2194 1759 
Q 1497 1759 1228 1600 
Q 959 1441 959 1056 
Q 959 750 1161 570 
Q 1363 391 1709 391 
Q 2188 391 2477 730 
Q 2766 1069 2766 1631 
L 2766 1759 
L 2194 1759 
z
M 3341 1997 
L 3341 0 
L 2766 0 
L 2766 531 
Q 2569 213 2275 61 
Q 1981 -91 1556 -91 
Q 1019 -91 701 211 
Q 384 513 384 1019 
Q 384 1609 779 1909 
Q 1175 2209 1959 2209 
L 2766 2209 
L 2766 2266 
Q 2766 2663 2505 2880 
Q 2244 3097 1772 3097 
Q 1472 3097 1187 3025 
Q 903 2953 641 2809 
L 641 3341 
Q 956 3463 1253 3523 
Q 1550 3584 1831 3584 
Q 2591 3584 2966 3190 
Q 3341 2797 3341 1997 
z
" transform="scale(0.015625)"/>
       <path id="DejaVuSans-4d" d="M 628 4666 
L 1569 4666 
L 2759 1491 
L 3956 4666 
L 4897 4666 
L 4897 0 
L 4281 0 
L 4281 4097 
L 3078 897 
L 2444 897 
L 1241 4097 
L 1241 0 
L 628 0 
L 628 4666 
z
" transform="scale(0.015625)"/>
      </defs>
      <use xlink:href="#DejaVuSans-43"/>
      <use xlink:href="#DejaVuSans-6f" x="69.824219"/>
      <use xlink:href="#DejaVuSans-6e" x="131.005859"/>
      <use xlink:href="#DejaVuSans-63" x="194.384766"/>
      <use xlink:href="#DejaVuSans-65" x="249.365234"/>
      <use xlink:href="#DejaVuSans-6e" x="310.888672"/>
      <use xlink:href="#DejaVuSans-74" x="374.267578"/>
      <use xlink:href="#DejaVuSans-72" x="413.476562"/>
      <use xlink:href="#DejaVuSans-61" x="454.589844"/>
      <use xlink:href="#DejaVuSans-74" x="515.869141"/>
      <use xlink:href="#DejaVuSans-69" x="555.078125"/>
      <use xlink:href="#DejaVuSans-6f" x="582.861328"/>
      <use xlink:href="#DejaVuSans-6e" x="644.042969"/>
      <use xlink:href="#DejaVuSans-20" x="707.421875"/>
      <use xlink:href="#DejaVuSans-2f" x="739.208984"/>
      <use xlink:href="#DejaVuSans-20" x="772.900391"/>
      <use xlink:href="#DejaVuSans-6d" x="804.6875"/>
      <use xlink:href="#DejaVuSans-4d" x="902.099609"/>
     </g>
    </g>
   </g>
   <g id="line2d_15">
    <path d="M 69.218182 242.116364 
L 76.827273 242.075539 
L 76.829386 204.408597 
L 76.939295 204.838818 
L 78.279341 209.670247 
L 79.549636 213.365216 
L 80.631818 216.034718 
L 80.633932 183.74155 
L 80.743841 184.152121 
L 81.756273 188.490223 
L 83.096318 193.813515 
L 84.402545 198.095013 
L 84.436364 198.195578 
L 84.438477 172.091106 
L 84.548386 172.448572 
L 85.095818 174.723808 
L 87.025568 183.23867 
L 88.232455 187.377716 
L 88.240909 187.403846 
L 88.243023 165.399059 
L 88.352932 165.717171 
L 88.790455 167.445513 
L 91.259182 178.401551 
L 92.045455 180.996323 
L 92.047568 152.432489 
L 92.157477 152.870869 
L 92.61825 155.319795 
L 94.583932 166.678268 
L 95.668227 171.331182 
L 95.85 172.01369 
L 95.852114 137.968011 
L 95.962023 138.515217 
L 96.416455 141.527504 
L 98.246864 154.623746 
L 99.310023 160.301892 
L 99.654545 161.882923 
L 99.656659 125.262649 
L 99.766568 125.873719 
L 100.191409 129.064072 
L 102.072545 144.496516 
L 103.120909 150.833936 
L 103.459091 152.588079 
L 103.461205 115.237717 
L 103.571114 115.879413 
L 103.968477 119.073411 
L 105.944727 136.706243 
L 106.978295 143.378545 
L 107.263636 144.96444 
L 107.26575 106.667653 
L 107.375659 107.341681 
L 107.756114 110.594191 
L 109.77675 129.952024 
L 110.797636 136.938752 
L 111.068182 138.531716 
L 111.070295 98.795685 
L 111.180205 99.50948 
L 111.550091 102.880059 
L 113.577068 123.66886 
L 114.587386 131.018484 
L 114.872727 132.798013 
L 114.874841 91.561673 
L 114.98475 92.315366 
L 115.346182 95.807842 
L 117.371045 117.895743 
L 118.372909 125.610127 
L 118.677273 127.612093 
L 118.679386 85.136939 
L 118.789295 85.924687 
L 119.144386 89.528652 
L 121.167136 112.770243 
L 122.162659 120.812125 
L 122.481818 123.008015 
L 122.483932 79.557154 
L 122.593841 80.372956 
L 122.942591 84.054699 
L 124.971682 108.375431 
L 125.960864 116.674818 
L 126.286364 118.997049 
L 126.288477 74.729249 
L 126.398386 75.569062 
L 126.742909 79.329866 
L 128.772 104.534778 
L 129.756955 113.071306 
L 130.090909 115.527643 
L 130.093023 70.535656 
L 130.202932 71.396766 
L 130.543227 75.217679 
L 132.574432 101.221981 
L 133.555159 109.956509 
L 133.895455 112.524756 
L 133.897568 66.887962 
L 134.007477 67.767989 
L 134.345659 71.661872 
L 136.370523 98.279832 
L 137.349136 107.214082 
L 137.7 109.922764 
L 137.702114 63.723265 
L 137.812023 64.619849 
L 138.145977 68.542754 
L 140.179295 95.850292 
L 141.153682 104.912464 
L 141.504545 107.670931 
L 141.506659 60.987852 
L 141.616568 61.898758 
L 141.948409 65.867368 
L 143.979614 93.669954 
L 144.951886 102.872756 
L 145.309091 105.727188 
L 145.311205 58.629951 
L 145.421114 59.553202 
L 145.750841 63.556311 
L 147.782045 91.807504 
L 148.752205 101.1253 
L 149.113636 104.053325 
L 149.11575 56.600502 
L 149.225659 57.534401 
L 149.553273 61.562303 
L 151.586591 90.225354 
L 152.55675 99.653125 
L 152.918182 102.614083 
L 152.920295 54.855378 
L 153.030205 55.798462 
L 153.357818 59.874653 
L 155.382682 88.772135 
L 156.350727 98.29693 
L 156.722727 101.377772 
L 156.724841 53.356077 
L 156.83475 54.307078 
L 157.16025 58.392743 
L 159.189341 87.628114 
L 160.155273 97.210665 
L 160.527273 100.316614 
L 160.529386 52.069192 
L 160.639295 53.027004 
L 160.964795 57.148294 
L 162.987545 86.554942 
L 163.953477 96.223099 
L 164.331818 99.4065 
L 164.333932 50.965615 
L 164.443841 51.929276 
L 164.767227 56.048498 
L 166.798432 85.76828 
L 167.76225 95.461779 
L 168.136364 98.62651 
L 168.138477 50.019944 
L 168.248386 50.988624 
L 168.571773 55.133964 
L 170.596636 84.960498 
L 171.560455 94.721251 
L 171.940909 97.958471 
L 171.943023 49.210073 
L 172.052932 50.183056 
L 172.376318 54.350816 
L 174.396955 84.282092 
L 175.360773 94.097588 
L 175.745455 97.386621 
L 175.747568 48.516844 
L 175.857477 49.493515 
L 176.17875 53.647268 
L 178.209955 83.8407 
L 179.171659 93.653314 
L 179.55 96.897324 
L 179.552114 47.92371 
L 179.662023 48.903538 
L 179.983295 53.073636 
L 182.010273 83.330971 
L 182.971977 93.186533 
L 183.354545 96.478819 
L 183.356659 47.416406 
L 183.466568 48.398938 
L 183.787841 52.583037 
L 185.812705 82.912265 
L 186.774409 92.800787 
L 187.159091 96.120978 
L 187.161205 46.982652 
L 187.271114 47.967497 
L 187.592386 52.163583 
L 189.615136 82.550636 
L 190.576841 92.468168 
L 190.963636 95.815093 
L 190.96575 46.611887 
L 191.075659 47.59871 
L 191.396932 51.805054 
L 193.417568 82.237876 
L 194.379273 92.181032 
L 194.768182 95.553683 
L 194.770295 46.295038 
L 194.880205 47.283552 
L 195.201477 51.49867 
L 197.222114 81.991712 
L 198.183818 91.952105 
L 198.572727 95.330326 
L 198.574841 46.024318 
L 198.68475 47.014278 
L 199.003909 51.203131 
L 201.035114 81.880525 
L 201.996818 91.833694 
L 202.377273 95.139517 
L 202.379386 45.793051 
L 202.489295 46.784247 
L 202.808455 50.979459 
L 204.839659 81.701023 
L 205.801364 91.666741 
L 206.181818 94.976536 
L 206.183932 45.595516 
L 206.293841 46.587767 
L 206.613 50.788415 
L 208.642091 81.5229 
L 209.601682 91.48551 
L 209.986364 94.837343 
L 209.988477 45.426814 
L 210.098386 46.419966 
L 210.417545 50.625258 
L 212.446636 81.391959 
L 213.406227 91.363713 
L 213.790909 94.718478 
L 213.793023 45.282751 
L 213.902932 46.276674 
L 214.222091 50.485933 
L 216.249068 81.255275 
L 217.208659 91.240343 
L 217.595455 94.616982 
L 217.597568 45.15974 
L 217.707477 46.154321 
L 218.026636 50.36697 
L 220.053614 81.159792 
L 221.013205 91.151534 
L 221.4 94.530324 
L 221.402114 45.054713 
L 221.512023 46.049856 
L 221.831182 50.265399 
L 223.858159 81.078273 
L 224.81775 91.075714 
L 225.204545 94.45634 
L 225.206659 44.965047 
L 225.316568 45.960669 
L 225.635727 50.178684 
L 227.662705 81.00868 
L 228.622295 91.010985 
L 229.009091 94.393179 
L 229.011205 44.888499 
L 229.121114 45.88453 
L 229.440273 50.104656 
L 231.465136 80.924327 
L 232.424727 90.936308 
L 232.813636 94.339261 
L 232.81575 44.823153 
L 232.925659 45.819534 
L 233.244818 50.041462 
L 235.269682 80.873604 
L 236.229273 90.889133 
L 236.618182 94.293235 
L 236.620295 44.767372 
L 236.730205 45.764052 
L 237.049364 49.987519 
L 239.074227 80.830307 
L 240.033818 90.848865 
L 240.422727 94.253948 
L 240.424841 44.719759 
L 240.53475 45.716693 
L 240.853909 49.941474 
L 242.878773 80.793349 
L 243.838364 90.814493 
L 244.227273 94.220413 
L 244.229386 44.679117 
L 244.339295 45.676269 
L 244.658455 49.902171 
L 246.683318 80.761805 
L 247.642909 90.785156 
L 248.031818 94.19179 
L 248.033932 44.644428 
L 248.143841 45.641766 
L 248.463 49.868624 
L 250.487864 80.73488 
L 251.447455 90.760115 
L 251.836364 94.16736 
L 251.838477 44.614819 
L 251.948386 45.612316 
L 252.267545 49.839992 
L 254.292409 80.7119 
L 255.252 90.738742 
L 255.640909 94.146508 
L 255.643023 44.589548 
L 255.752932 45.58718 
L 256.072091 49.815554 
L 258.096955 80.692286 
L 259.056545 90.720501 
L 259.445455 94.128711 
L 259.447568 44.56798 
L 259.557477 45.565727 
L 259.876636 49.794696 
L 261.9015 80.675546 
L 262.861091 90.704932 
L 263.25 94.113521 
L 263.252114 44.549571 
L 263.362023 45.547417 
L 263.681182 49.776894 
L 265.706045 80.661259 
L 266.665636 90.691645 
L 267.054545 94.100557 
L 267.056659 44.53386 
L 267.166568 45.53179 
L 267.485727 49.7617 
L 269.510591 80.649065 
L 270.470182 90.680304 
L 270.859091 94.089493 
L 270.861205 44.520451 
L 270.971114 45.518453 
L 271.290273 49.748733 
L 273.315136 80.638658 
L 274.274727 90.670625 
L 274.663636 94.08005 
L 274.66575 44.509007 
L 274.775659 45.50707 
L 275.094818 49.737667 
L 277.117568 80.604766 
L 278.077159 90.642895 
L 278.468182 94.071991 
L 278.470295 44.49924 
L 278.580205 45.497355 
L 278.899364 49.728222 
L 280.922114 80.597184 
L 281.881705 90.635845 
L 282.272727 94.065113 
L 282.274841 44.490905 
L 282.38475 45.489064 
L 282.703909 49.720161 
L 284.726659 80.590714 
L 285.68625 90.629827 
L 286.077273 94.059243 
L 286.079386 44.483791 
L 286.189295 45.481989 
L 286.508455 49.713281 
L 288.531205 80.585192 
L 289.490795 90.624692 
L 289.881818 94.054234 
L 289.883932 44.47772 
L 289.993841 45.47595 
L 290.313 49.70741 
L 292.33575 80.580479 
L 293.295341 90.620309 
L 293.686364 94.049958 
L 293.688477 44.472538 
L 293.798386 45.470796 
L 294.117545 49.702399 
L 296.140295 80.576457 
L 297.099886 90.616569 
L 297.490909 94.04631 
L 297.493023 44.468116 
L 297.602932 45.466398 
L 297.922091 49.698123 
L 299.944841 80.573024 
L 300.904432 90.613376 
L 301.295455 94.043196 
L 301.297568 44.464342 
L 301.407477 45.462644 
L 301.726636 49.694474 
L 303.749386 80.570095 
L 304.708977 90.610652 
L 305.1 94.040538 
L 305.102114 44.461121 
L 305.212023 45.459441 
L 305.531182 49.691359 
L 307.553932 80.567595 
L 308.513523 90.608327 
L 308.904545 94.03827 
L 308.906659 44.458373 
L 309.016568 45.456707 
L 309.335727 49.688701 
L 311.358477 80.565461 
L 312.318068 90.606343 
L 312.709091 94.036334 
L 312.711205 44.456027 
L 312.821114 45.454373 
L 313.140273 49.686433 
L 315.163023 80.56364 
L 316.122614 90.60465 
L 316.513636 94.034683 
L 316.51575 44.454025 
L 316.625659 45.452382 
L 316.944818 49.684497 
L 318.967568 80.562087 
L 319.927159 90.603204 
L 320.318182 94.033273 
L 320.320295 44.452317 
L 320.430205 45.450683 
L 320.749364 49.682845 
L 322.772114 80.56076 
L 323.731705 90.601971 
L 324.122727 94.03207 
L 324.124841 44.450858 
L 324.23475 45.449232 
L 324.553909 49.681434 
L 326.576659 80.559629 
L 327.53625 90.600918 
L 327.927273 94.031043 
L 327.929386 44.449614 
L 328.039295 45.447995 
L 328.358455 49.680231 
L 330.381205 80.558663 
L 331.340795 90.60002 
L 331.731818 94.030167 
L 331.733932 44.448552 
L 331.843841 45.446939 
L 332.163 49.679204 
L 334.18575 80.557838 
L 335.145341 90.599254 
L 335.536364 94.029419 
L 335.538477 44.447646 
L 335.648386 45.446037 
L 335.967545 49.678328 
L 337.990295 80.557135 
L 338.949886 90.598599 
L 339.340909 94.028781 
L 339.343023 44.446872 
L 339.452932 45.445268 
L 339.772091 49.67758 
L 341.794841 80.556534 
L 342.754432 90.598041 
L 343.145455 94.028236 
L 343.147568 44.446212 
L 343.257477 45.444611 
L 343.576636 49.676942 
L 345.599386 80.556022 
L 346.558977 90.597565 
L 346.95 94.027771 
L 346.952114 44.445649 
L 347.062023 45.444051 
L 347.381182 49.676397 
L 349.403932 80.555585 
L 350.363523 90.597158 
L 350.754545 94.027374 
L 350.756659 44.445168 
L 350.866568 45.443573 
L 351.185727 49.675932 
L 353.208477 80.555212 
L 354.168068 90.596811 
L 354.559091 94.027036 
L 354.561205 44.444758 
L 354.671114 45.443165 
L 354.990273 49.675535 
L 357.013023 80.554893 
L 357.972614 90.596515 
L 358.363636 94.026747 
L 358.36575 44.444408 
L 358.475659 45.442816 
L 358.794818 49.675197 
L 360.817568 80.554621 
L 361.777159 90.596262 
L 362.168182 94.0265 
L 362.170295 44.444109 
L 362.280205 45.442519 
L 362.599364 49.674908 
L 364.622114 80.554389 
L 365.581705 90.596046 
L 365.972727 94.02629 
L 365.974841 44.443854 
L 366.08475 45.442266 
L 366.403909 49.674661 
L 368.426659 80.554192 
L 369.38625 90.595862 
L 369.777273 94.02611 
L 369.779386 44.443636 
L 369.889295 45.442049 
L 370.208455 49.67445 
L 372.231205 80.554023 
L 373.190795 90.595705 
L 373.581818 94.025957 
L 373.581818 94.025957 
" clip-path="url(#p07d665b992)" style="fill: none; stroke: #1f77b4; stroke-width: 1.5; stroke-linecap: square"/>
   </g>
   <g id="line2d_16">
    <path d="M 69.218182 242.116364 
L 70.543432 242.005342 
L 70.983068 241.699871 
L 71.424818 241.10083 
L 71.927864 240.00948 
L 72.526023 238.134367 
L 73.022727 236.133182 
L 73.024841 240.961642 
L 73.13475 240.816233 
L 73.770955 240.186992 
L 74.257091 239.480446 
L 74.726318 238.370703 
L 75.256841 236.493172 
L 75.9015 233.319687 
L 76.742727 227.953462 
L 76.827273 227.354548 
L 76.829386 209.3066 
L 76.939295 210.092161 
L 77.934818 216.48432 
L 78.376568 217.884068 
L 78.702068 218.303399 
L 78.936682 218.298446 
L 79.17975 218.038653 
L 79.50525 217.317521 
L 79.951227 215.721185 
L 80.564182 212.609968 
L 80.631818 212.214731 
L 80.633932 186.933366 
L 80.743841 188.054064 
L 82.026818 200.614533 
L 82.477023 202.565007 
L 82.821545 203.231627 
L 83.064614 203.314854 
L 83.284432 203.141242 
L 83.578227 202.578788 
L 83.988273 201.251876 
L 84.436364 199.223776 
L 84.438477 170.873196 
L 84.548386 172.151375 
L 86.021591 189.28706 
L 86.465455 191.331046 
L 86.809977 192.040399 
L 87.055159 192.137884 
L 87.272864 191.973576 
L 87.564545 191.42831 
L 87.976705 190.125226 
L 88.240909 189.023863 
L 88.243023 159.075895 
L 88.352932 160.442284 
L 88.862318 168.97011 
L 89.4795 177.03204 
L 89.999455 181.209198 
L 90.430636 183.102906 
L 90.764591 183.738385 
L 91.003432 183.810725 
L 91.227477 183.625871 
L 91.529727 183.040973 
L 91.960909 181.660613 
L 92.045455 181.327934 
L 92.047568 151.094197 
L 92.157477 152.507235 
L 92.590773 160.384578 
L 93.226977 169.82596 
L 93.759614 174.743611 
L 94.209818 177.084474 
L 94.569136 177.954237 
L 94.829114 178.116858 
L 95.044705 177.995673 
L 95.325818 177.537004 
L 95.727409 176.395291 
L 95.85 175.952921 
L 95.852114 145.742141 
L 95.962023 147.185464 
L 96.3615 154.83631 
L 97.004045 165.087076 
L 97.543023 170.451073 
L 98.001682 173.047693 
L 98.371568 174.051 
L 98.644227 174.269904 
L 98.859818 174.17595 
L 99.130364 173.77185 
L 99.517159 172.738149 
L 99.654545 172.264926 
L 99.656659 142.090181 
L 99.766568 143.554833 
L 100.149136 151.145318 
L 100.793795 161.901413 
L 101.332773 167.517932 
L 101.793545 170.269851 
L 102.169773 171.365514 
L 102.448773 171.62387 
L 102.664364 171.549312 
L 102.928568 171.179345 
L 103.304795 170.21624 
L 103.459091 169.700006 
L 103.461205 139.538953 
L 103.571114 141.018723 
L 103.943114 148.582483 
L 104.587773 159.67047 
L 105.128864 165.480275 
L 105.59175 168.33314 
L 105.970091 169.479995 
L 106.253318 169.763122 
L 106.468909 169.699694 
L 106.728886 169.349909 
L 107.100886 168.421857 
L 107.263636 167.886781 
L 107.26575 137.813693 
L 107.375659 139.302264 
L 107.739205 146.8167 
L 108.383864 158.13974 
L 108.924955 164.071328 
L 109.389955 167.000087 
L 109.770409 168.182765 
L 110.05575 168.480887 
L 110.271341 168.424292 
L 110.529205 168.085678 
L 110.896977 167.18313 
L 111.068182 166.626208 
L 111.070295 136.719284 
L 111.180205 138.211652 
L 111.539523 145.720011 
L 112.184182 157.183353 
L 112.723159 163.160779 
L 113.188159 166.126967 
L 113.568614 167.328254 
L 113.856068 167.63643 
L 114.071659 167.583119 
L 114.327409 167.251511 
L 114.693068 166.362108 
L 114.872727 165.780062 
L 114.874841 136.075564 
L 114.98475 137.56854 
L 115.339841 145.039572 
L 115.9845 156.597715 
L 116.523477 162.613737 
L 116.988477 165.594089 
L 117.368932 166.799036 
L 117.656386 167.107255 
L 117.871977 167.053143 
L 118.129841 166.716357 
L 118.497614 165.816307 
L 118.677273 165.231786 
L 118.679386 135.729568 
L 118.789295 137.221401 
L 119.142273 144.680156 
L 119.784818 156.257093 
L 120.323795 162.296413 
L 120.786682 165.272631 
L 121.167136 166.481549 
L 121.452477 166.789441 
L 121.668068 166.736799 
L 121.923818 166.404614 
L 122.291591 165.507179 
L 122.481818 164.886683 
L 122.483932 135.574137 
L 122.593841 137.063849 
L 122.944705 144.496519 
L 123.585136 156.072651 
L 124.122 162.108479 
L 124.584886 165.094076 
L 124.965341 166.304705 
L 125.250682 166.611627 
L 125.466273 166.557449 
L 125.722023 166.222925 
L 126.089795 165.321793 
L 126.286364 164.677173 
L 126.288477 135.540863 
L 126.398386 137.027876 
L 126.747136 144.425058 
L 127.387568 156.01779 
L 127.924432 162.051017 
L 128.387318 165.02727 
L 128.765659 166.223768 
L 129.051 166.526024 
L 129.266591 166.467975 
L 129.524455 166.124864 
L 129.894341 165.208296 
L 130.090909 164.558418 
L 130.093023 135.585281 
L 130.202932 137.069293 
L 130.549568 144.424676 
L 131.19 156.026093 
L 131.72475 162.036101 
L 132.185523 165.001206 
L 132.563864 166.198805 
L 132.847091 166.499526 
L 133.060568 166.443909 
L 133.316318 166.106969 
L 133.684091 165.200776 
L 133.895455 164.500503 
L 133.897568 135.676477 
L 134.007477 137.157411 
L 134.354114 144.513276 
L 134.992432 156.072371 
L 135.527182 162.076079 
L 135.987955 165.031495 
L 136.364182 166.215755 
L 136.647409 166.512655 
L 136.860886 166.453852 
L 137.11875 166.109032 
L 137.488636 165.188185 
L 137.7 164.482577 
L 137.702114 135.792572 
L 137.812023 137.270513 
L 138.158659 144.624378 
L 138.796977 156.168748 
L 139.331727 162.154192 
L 139.790386 165.082963 
L 140.166614 166.258882 
L 140.447727 166.548789 
L 140.661205 166.487368 
L 140.919068 166.139185 
L 141.291068 165.206932 
L 141.504545 164.489843 
L 141.506659 135.918718 
L 141.616568 137.393847 
L 141.961091 144.698001 
L 142.599409 156.24324 
L 143.132045 162.20552 
L 143.590705 165.135178 
L 143.966932 166.309484 
L 144.248045 166.597258 
L 144.461523 166.533865 
L 144.719386 166.183044 
L 145.091386 165.246768 
L 145.309091 164.512013 
L 145.311205 136.045462 
L 145.421114 137.51801 
L 145.765636 144.818057 
L 146.401841 156.318069 
L 146.934477 162.276303 
L 147.393136 165.199941 
L 147.76725 166.36446 
L 148.048364 166.651031 
L 148.261841 166.586333 
L 148.519705 166.233624 
L 148.891705 165.294267 
L 149.113636 164.54219 
L 149.11575 136.167149 
L 149.225659 137.637364 
L 149.570182 144.933037 
L 150.206386 156.41848 
L 150.739023 162.362048 
L 151.197682 165.272772 
L 151.571795 166.427169 
L 151.850795 166.706146 
L 152.064273 166.638578 
L 152.32425 166.278413 
L 152.698364 165.325174 
L 152.918182 164.575897 
L 152.920295 136.28061 
L 153.030205 137.748738 
L 153.374727 145.040057 
L 154.010932 156.511992 
L 154.543568 162.442384 
L 155.000114 165.332304 
L 155.374227 166.483278 
L 155.653227 166.759403 
L 155.866705 166.689573 
L 156.126682 166.326637 
L 156.502909 165.362888 
L 156.722727 164.610298 
L 156.724841 136.384262 
L 156.83475 137.850541 
L 157.179273 145.137703 
L 157.813364 156.567584 
L 158.343886 162.48062 
L 158.800432 165.377195 
L 159.174545 166.531369 
L 159.453545 166.808819 
L 159.664909 166.741261 
L 159.924886 166.38076 
L 160.299 165.425711 
L 160.527273 164.643647 
L 160.529386 136.477546 
L 160.639295 137.9422 
L 160.983818 145.225501 
L 161.617909 156.644389 
L 162.148432 162.547137 
L 162.604977 165.434904 
L 162.976977 166.578399 
L 163.255977 166.854478 
L 163.467341 166.785734 
L 163.727318 166.423663 
L 164.101432 165.466261 
L 164.331818 164.674926 
L 164.333932 136.560558 
L 164.443841 138.023791 
L 164.788364 145.303575 
L 165.422455 156.7127 
L 165.952977 162.606433 
L 166.409523 165.486526 
L 166.781523 166.6241 
L 167.058409 166.895614 
L 167.269773 166.826131 
L 167.52975 166.463001 
L 167.903864 165.503896 
L 168.136364 164.703605 
L 168.138477 136.633796 
L 168.248386 138.095793 
L 168.592909 145.372418 
L 169.227 156.772941 
L 169.757523 162.658816 
L 170.214068 165.532249 
L 170.586068 166.664695 
L 170.862955 166.932649 
L 171.074318 166.860624 
L 171.334295 166.494594 
L 171.710523 165.525118 
L 171.940909 164.729476 
L 171.943023 136.697982 
L 172.052932 138.158907 
L 172.397455 145.432726 
L 173.031545 156.825719 
L 173.562068 162.704771 
L 174.018614 165.572442 
L 174.390614 166.700458 
L 174.6675 166.965341 
L 174.878864 166.891122 
L 175.140955 166.518478 
L 175.519295 165.536497 
L 175.745455 164.752536 
L 175.747568 136.753945 
L 175.857477 138.213942 
L 176.202 145.485289 
L 176.836091 156.871721 
L 177.366614 162.744868 
L 177.821045 165.598321 
L 178.193045 166.728015 
L 178.469932 166.993627 
L 178.681295 166.919718 
L 178.943386 166.547211 
L 179.321727 165.565045 
L 179.55 164.772905 
L 179.552114 136.802536 
L 179.662023 138.261734 
L 180.006545 145.530915 
L 180.638523 156.882016 
L 181.169045 162.762118 
L 181.623477 165.619634 
L 181.995477 166.751541 
L 182.272364 167.018257 
L 182.483727 166.944924 
L 182.743705 166.576969 
L 183.119932 165.604307 
L 183.354545 164.790771 
L 183.356659 136.844588 
L 183.466568 138.303098 
L 183.811091 145.570393 
L 184.443068 156.916586 
L 184.973591 162.792297 
L 185.428023 165.646147 
L 185.800023 166.775232 
L 186.076909 167.039992 
L 186.288273 166.965264 
L 186.550364 166.591596 
L 186.928705 165.607581 
L 187.159091 164.806357 
L 187.161205 136.880884 
L 187.271114 138.338803 
L 187.615636 145.604461 
L 188.247614 156.946419 
L 188.778136 162.818355 
L 189.232568 165.669057 
L 189.604568 166.79572 
L 189.879341 167.058424 
L 190.090705 166.984701 
L 190.352795 166.611969 
L 190.731136 165.62879 
L 190.963636 164.819896 
L 190.96575 136.912146 
L 191.075659 138.369557 
L 191.418068 145.587788 
L 192.052159 156.972111 
L 192.582682 162.840805 
L 193.037114 165.688807 
L 193.407 166.809645 
L 193.683886 167.074672 
L 193.89525 166.999923 
L 194.157341 166.626012 
L 194.535682 165.641323 
L 194.768182 164.831616 
L 194.770295 136.939026 
L 194.880205 138.396001 
L 195.222614 145.613019 
L 195.856705 156.994198 
L 196.385114 162.842539 
L 196.839545 165.696559 
L 197.211545 166.82487 
L 197.486318 167.088283 
L 197.697682 167.01486 
L 197.957659 166.646368 
L 198.333886 165.672297 
L 198.572727 164.841733 
L 198.574841 136.962104 
L 198.68475 138.418707 
L 199.027159 145.634681 
L 199.66125 157.01316 
L 200.189659 162.859128 
L 200.644091 165.711167 
L 201.013977 166.834197 
L 201.290864 167.100323 
L 201.502227 167.026148 
L 201.764318 166.652676 
L 202.142659 165.668186 
L 202.377273 164.850448 
L 202.379386 136.981897 
L 202.489295 138.43818 
L 202.831705 145.653256 
L 203.465795 157.029421 
L 203.994205 162.873357 
L 204.448636 165.7237 
L 204.818523 166.845435 
L 205.095409 167.11066 
L 205.306773 167.035842 
L 205.568864 166.661631 
L 205.947205 165.676195 
L 206.181818 164.857942 
L 206.183932 136.998856 
L 206.293841 138.454866 
L 206.63625 145.669172 
L 207.268227 157.013743 
L 207.79875 162.88555 
L 208.253182 165.734444 
L 208.623068 166.855071 
L 208.897841 167.119139 
L 209.109205 167.045977 
L 209.369182 166.677565 
L 209.745409 165.703236 
L 209.986364 164.864376 
L 209.988477 137.013376 
L 210.098386 138.469153 
L 210.440795 145.682798 
L 211.072773 157.025677 
L 211.601182 162.878405 
L 212.055614 165.734397 
L 212.427614 166.863326 
L 212.702386 167.126739 
L 212.91375 167.053107 
L 213.173727 166.684159 
L 213.549955 165.709141 
L 213.790909 164.869895 
L 213.793023 137.025801 
L 213.902932 138.481378 
L 214.245341 145.694456 
L 214.877318 157.035888 
L 215.405727 162.887344 
L 215.860159 165.742276 
L 216.230045 166.866627 
L 216.506932 167.133247 
L 216.718295 167.059213 
L 216.978273 166.689807 
L 217.3545 165.7142 
L 217.595455 164.874623 
L 217.597568 137.036427 
L 217.707477 138.491833 
L 218.049886 145.704426 
L 218.681864 157.04462 
L 219.210273 162.894989 
L 219.664705 165.749016 
L 220.034591 166.872675 
L 220.311477 167.138814 
L 220.522841 167.064437 
L 220.784932 166.690513 
L 221.163273 165.705079 
L 221.4 164.878671 
L 221.402114 137.04551 
L 221.512023 138.50077 
L 221.854432 145.71295 
L 222.486409 157.052085 
L 223.014818 162.901525 
L 223.46925 165.754779 
L 223.839136 166.877848 
L 224.116023 167.143576 
L 224.327386 167.068906 
L 224.589477 166.694645 
L 224.967818 165.708779 
L 225.204545 164.882135 
L 225.206659 137.053273 
L 225.316568 138.508409 
L 225.658977 145.720233 
L 226.290955 157.058464 
L 226.819364 162.907111 
L 227.273795 165.759704 
L 227.643682 166.882269 
L 227.920568 167.147646 
L 228.131932 167.072726 
L 228.394023 166.698177 
L 228.772364 165.711944 
L 229.009091 164.885097 
L 229.011205 137.059906 
L 229.121114 138.514935 
L 229.463523 145.726456 
L 230.0955 157.063914 
L 230.623909 162.911883 
L 231.078341 165.763912 
L 231.448227 166.886047 
L 231.723 167.150734 
L 231.934364 167.077808 
L 232.194341 166.709447 
L 232.570568 165.734823 
L 232.813636 164.887629 
L 232.81575 137.065571 
L 232.925659 138.520509 
L 233.268068 145.731771 
L 233.900045 157.068569 
L 234.428455 162.91596 
L 234.882886 165.767507 
L 235.252773 166.889274 
L 235.527545 167.153708 
L 235.738909 167.080599 
L 235.998886 166.71203 
L 236.375114 165.737139 
L 236.618182 164.889793 
L 236.620295 137.070409 
L 236.730205 138.52527 
L 237.072614 145.736311 
L 237.704591 157.072545 
L 238.233 162.919441 
L 238.687432 165.770578 
L 239.057318 166.892031 
L 239.332091 167.156248 
L 239.543455 167.082984 
L 239.803432 166.714237 
L 240.179659 165.739117 
L 240.422727 164.891642 
L 240.424841 137.074541 
L 240.53475 138.529335 
L 240.877159 145.740187 
L 241.509136 157.075939 
L 242.037545 162.922414 
L 242.491977 165.7732 
L 242.861864 166.894385 
L 243.136636 167.158417 
L 243.348 167.08502 
L 243.607977 166.716121 
L 243.984205 165.740806 
L 244.227273 164.893221 
L 244.229386 137.078068 
L 244.339295 138.532806 
L 244.681705 145.743497 
L 245.313682 157.078838 
L 245.842091 162.924953 
L 246.296523 165.775438 
L 246.666409 166.896395 
L 246.941182 167.160269 
L 247.152545 167.086758 
L 247.412523 166.71773 
L 247.78875 165.742249 
L 248.031818 164.894569 
L 248.033932 137.08108 
L 248.143841 138.535769 
L 248.48625 145.746322 
L 249.118227 157.081312 
L 249.646636 162.92712 
L 250.101068 165.777349 
L 250.470955 166.898111 
L 250.745727 167.16185 
L 250.957091 167.088243 
L 251.217068 166.719104 
L 251.593295 165.743481 
L 251.836364 164.895721 
L 251.838477 137.08365 
L 251.948386 138.538299 
L 252.290795 145.748734 
L 252.922773 157.083425 
L 253.451182 162.92897 
L 253.905614 165.778981 
L 254.2755 166.899576 
L 254.550273 167.1632 
L 254.761636 167.08951 
L 255.021614 166.720277 
L 255.397841 165.744532 
L 255.640909 164.896704 
L 255.643023 137.085845 
L 255.752932 138.540458 
L 256.095341 145.750793 
L 256.727318 157.085228 
L 257.255727 162.930549 
L 257.710159 165.780374 
L 258.080045 166.900826 
L 258.354818 167.164353 
L 258.566182 167.090592 
L 258.826159 166.721279 
L 259.202386 165.74543 
L 259.445455 164.897543 
L 259.447568 137.087718 
L 259.557477 138.542301 
L 259.899886 145.75255 
L 260.531864 157.086767 
L 261.060273 162.931897 
L 261.514705 165.781563 
L 261.884591 166.901894 
L 262.159364 167.165336 
L 262.370727 167.091515 
L 262.630705 166.722133 
L 263.006932 165.746197 
L 263.25 164.898259 
L 263.252114 137.089317 
L 263.362023 138.543875 
L 263.704432 145.75405 
L 264.336409 157.08808 
L 264.864818 162.933047 
L 265.31925 165.782577 
L 265.689136 166.902805 
L 265.963909 167.166176 
L 266.175273 167.092303 
L 266.43525 166.722863 
L 266.811477 165.746851 
L 267.054545 164.898871 
L 267.056659 137.090681 
L 267.166568 138.545217 
L 267.508977 145.75533 
L 268.140955 157.089201 
L 268.669364 162.934029 
L 269.123795 165.783443 
L 269.493682 166.903583 
L 269.768455 167.166893 
L 269.979818 167.092976 
L 270.239795 166.723486 
L 270.616023 165.747409 
L 270.859091 164.899393 
L 270.861205 137.091846 
L 270.971114 138.546363 
L 271.313523 145.756423 
L 271.9455 157.090158 
L 272.473909 162.934867 
L 272.928341 165.784183 
L 273.298227 166.904246 
L 273.573 167.167504 
L 273.784364 167.09355 
L 274.044341 166.724017 
L 274.420568 165.747886 
L 274.663636 164.899838 
L 274.66575 137.09284 
L 274.775659 138.547341 
L 275.118068 145.757355 
L 275.750045 157.090975 
L 276.278455 162.935582 
L 276.732886 165.784813 
L 277.102773 166.904813 
L 277.377545 167.168026 
L 277.588909 167.09404 
L 277.848886 166.724471 
L 278.225114 165.748293 
L 278.468182 164.900219 
L 278.470295 137.093688 
L 278.580205 138.548176 
L 278.922614 145.758151 
L 279.554591 157.091672 
L 280.083 162.936193 
L 280.537432 165.785352 
L 280.907318 166.905296 
L 281.182091 167.168472 
L 281.393455 167.094459 
L 281.653432 166.724858 
L 282.029659 165.74864 
L 282.272727 164.900543 
L 282.274841 137.094412 
L 282.38475 138.548888 
L 282.727159 145.75883 
L 283.359136 157.092267 
L 283.887545 162.936714 
L 284.341977 165.785811 
L 284.711864 166.905709 
L 284.986636 167.168852 
L 285.198 167.094816 
L 285.457977 166.725188 
L 285.834205 165.748936 
L 286.077273 164.90082 
L 286.079386 137.09503 
L 286.189295 138.549496 
L 286.531705 145.75941 
L 287.163682 157.092774 
L 287.692091 162.937158 
L 288.146523 165.786203 
L 288.516409 166.906061 
L 288.791182 167.169177 
L 289.002545 167.09512 
L 289.262523 166.72547 
L 289.63875 165.749189 
L 289.881818 164.901057 
L 289.883932 137.095557 
L 289.993841 138.550015 
L 290.33625 145.759904 
L 290.968227 157.093208 
L 291.496636 162.937538 
L 291.951068 165.786538 
L 292.320955 166.906362 
L 292.595727 167.169454 
L 292.807091 167.09538 
L 293.067068 166.725711 
L 293.443295 165.749405 
L 293.686364 164.901258 
L 293.688477 137.096007 
L 293.798386 138.550458 
L 294.140795 145.760327 
L 294.772773 157.093577 
L 295.301182 162.937861 
L 295.755614 165.786824 
L 296.1255 166.906618 
L 296.400273 167.16969 
L 296.611636 167.095602 
L 296.871614 166.725916 
L 297.247841 165.749589 
L 297.490909 164.90143 
L 297.493023 137.096391 
L 297.602932 138.550836 
L 297.945341 145.760687 
L 298.577318 157.093893 
L 299.105727 162.938138 
L 299.560159 165.787067 
L 299.930045 166.906837 
L 300.204818 167.169892 
L 300.416182 167.095791 
L 300.676159 166.726092 
L 301.052386 165.749746 
L 301.295455 164.901577 
L 301.297568 137.096719 
L 301.407477 138.551158 
L 301.749886 145.760994 
L 302.381864 157.094162 
L 302.910273 162.938374 
L 303.364705 165.787276 
L 303.734591 166.907024 
L 304.009364 167.170064 
L 304.220727 167.095953 
L 304.480705 166.726241 
L 304.856932 165.74988 
L 305.1 164.901703 
L 305.102114 137.096999 
L 305.212023 138.551434 
L 305.554432 145.761257 
L 306.186409 157.094392 
L 306.714818 162.938575 
L 307.16925 165.787453 
L 307.539136 166.907183 
L 307.813909 167.170211 
L 308.025273 167.096091 
L 308.28525 166.726369 
L 308.661477 165.749995 
L 308.904545 164.90181 
L 308.906659 137.097238 
L 309.016568 138.551669 
L 309.358977 145.761481 
L 309.990955 157.094588 
L 310.519364 162.938747 
L 310.973795 165.787605 
L 311.343682 166.907319 
L 311.618455 167.170336 
L 311.829818 167.096209 
L 312.089795 166.726478 
L 312.466023 165.750092 
L 312.709091 164.901901 
L 312.711205 137.097441 
L 312.821114 138.551869 
L 313.163523 145.761672 
L 313.7955 157.094755 
L 314.323909 162.938893 
L 314.778341 165.787734 
L 315.148227 166.907435 
L 315.423 167.170443 
L 315.634364 167.096309 
L 315.894341 166.726571 
L 316.270568 165.750176 
L 316.513636 164.901979 
L 316.51575 137.097615 
L 316.625659 138.55204 
L 316.968068 145.761835 
L 317.600045 157.094898 
L 318.128455 162.939018 
L 318.582886 165.787844 
L 318.952773 166.907534 
L 319.227545 167.170534 
L 319.438909 167.096395 
L 319.698886 166.72665 
L 320.075114 165.750247 
L 320.318182 164.902045 
L 320.320295 137.097763 
L 320.430205 138.552186 
L 320.772614 145.761974 
L 321.404591 157.09502 
L 321.933 162.939125 
L 322.387432 165.787938 
L 322.757318 166.907619 
L 323.032091 167.170612 
L 323.243455 167.096468 
L 323.503432 166.726718 
L 323.879659 165.750308 
L 324.122727 164.902102 
L 324.124841 137.09789 
L 324.23475 138.552311 
L 324.577159 145.762093 
L 325.209136 157.095124 
L 325.737545 162.939216 
L 326.191977 165.788019 
L 326.561864 166.907691 
L 326.836636 167.170679 
L 327.048 167.09653 
L 327.307977 166.726776 
L 327.684205 165.750359 
L 327.927273 164.902151 
L 327.929386 137.097998 
L 328.039295 138.552417 
L 328.381705 145.762194 
L 329.013682 157.095213 
L 329.542091 162.939294 
L 329.996523 165.788087 
L 330.366409 166.907753 
L 330.641182 167.170735 
L 330.852545 167.096584 
L 331.112523 166.726825 
L 331.48875 165.750404 
L 331.731818 164.902192 
L 331.733932 137.09809 
L 331.843841 138.552508 
L 332.18625 145.762281 
L 332.818227 157.095289 
L 333.346636 162.93936 
L 333.801068 165.788146 
L 334.170955 166.907805 
L 334.445727 167.170784 
L 334.657091 167.096629 
L 334.917068 166.726867 
L 335.293295 165.750441 
L 335.536364 164.902227 
L 335.538477 137.098169 
L 335.648386 138.552585 
L 335.990795 145.762355 
L 336.622773 157.095353 
L 337.151182 162.939417 
L 337.605614 165.788196 
L 337.9755 166.90785 
L 338.250273 167.170825 
L 338.461636 167.096668 
L 338.721614 166.726903 
L 339.097841 165.750474 
L 339.340909 164.902257 
L 339.343023 137.098236 
L 339.452932 138.552651 
L 339.795341 145.762418 
L 340.427318 157.095409 
L 340.955727 162.939465 
L 341.410159 165.788238 
L 341.780045 166.907888 
L 342.054818 167.170861 
L 342.266182 167.096701 
L 342.526159 166.726934 
L 342.902386 165.750501 
L 343.145455 164.902283 
L 343.147568 137.098294 
L 343.257477 138.552708 
L 343.599886 145.762472 
L 344.231864 157.095456 
L 344.760273 162.939507 
L 345.214705 165.788275 
L 345.584591 166.907921 
L 345.859364 167.170891 
L 346.070727 167.096729 
L 346.330705 166.72696 
L 346.706932 165.750525 
L 346.95 164.902305 
L 346.952114 137.098343 
L 347.062023 138.552756 
L 347.404432 145.762517 
L 348.036409 157.095496 
L 348.564818 162.939542 
L 349.01925 165.788306 
L 349.389136 166.907949 
L 349.663909 167.170916 
L 349.875273 167.096753 
L 350.13525 166.726982 
L 350.511477 165.750545 
L 350.754545 164.902324 
L 350.756659 137.098384 
L 350.866568 138.552797 
L 351.208977 145.762557 
L 351.840955 157.09553 
L 352.369364 162.939572 
L 352.823795 165.788332 
L 353.193682 166.907973 
L 353.468455 167.170938 
L 353.679818 167.096774 
L 353.939795 166.727001 
L 354.316023 165.750562 
L 354.559091 164.90234 
L 354.561205 137.09842 
L 354.671114 138.552832 
L 355.013523 145.76259 
L 355.6455 157.095559 
L 356.173909 162.939597 
L 356.628341 165.788355 
L 356.998227 166.907993 
L 357.273 167.170957 
L 357.484364 167.096792 
L 357.744341 166.727017 
L 358.120568 165.750576 
L 358.363636 164.902353 
L 358.36575 137.09845 
L 358.475659 138.552862 
L 358.818068 145.762619 
L 359.450045 157.095584 
L 359.978455 162.939619 
L 360.432886 165.788374 
L 360.802773 166.90801 
L 361.077545 167.170973 
L 361.288909 167.096807 
L 361.548886 166.727031 
L 361.925114 165.750589 
L 362.168182 164.902365 
L 362.170295 137.098476 
L 362.280205 138.552887 
L 362.622614 145.762643 
L 363.254591 157.095606 
L 363.783 162.939638 
L 364.237432 165.788391 
L 364.607318 166.908025 
L 364.882091 167.170987 
L 365.093455 167.096819 
L 365.353432 166.727043 
L 365.729659 165.750599 
L 365.972727 164.902375 
L 365.974841 137.098498 
L 366.08475 138.552909 
L 366.427159 145.762664 
L 367.059136 157.095624 
L 367.587545 162.939654 
L 368.041977 165.788405 
L 368.411864 166.908038 
L 368.686636 167.170998 
L 368.898 167.09683 
L 369.157977 166.727053 
L 369.534205 165.750608 
L 369.777273 164.902383 
L 369.779386 137.098517 
L 369.889295 138.552928 
L 370.231705 145.762681 
L 370.863682 157.09564 
L 371.392091 162.939668 
L 371.846523 165.788417 
L 372.216409 166.908049 
L 372.491182 167.171008 
L 372.702545 167.09684 
L 372.962523 166.727062 
L 373.33875 165.750616 
L 373.581818 164.902391 
L 373.581818 164.902391 
" clip-path="url(#p07d665b992)" style="fill: none; stroke: #ff7f0e; stroke-width: 1.5; stroke-linecap: square"/>
   </g>
   <g id="line2d_17">
    <path d="M 69.218182 242.116364 
L 70.285568 242.005493 
L 70.651227 241.690865 
L 71.035909 241.036067 
L 71.490341 239.779765 
L 72.054682 237.501009 
L 72.783886 233.542618 
L 73.022727 232.047142 
L 73.024841 239.453184 
L 73.13475 239.169139 
L 73.559591 238.466021 
L 74.020364 237.49988 
L 74.470568 235.980896 
L 74.998977 233.335453 
L 75.677455 228.686022 
L 76.683545 220.048184 
L 76.827273 218.720878 
L 76.829386 209.631988 
L 76.939295 210.157252 
L 78.013023 215.327072 
L 78.277227 215.563409 
L 78.469568 215.466654 
L 78.710523 215.046176 
L 79.050818 213.939258 
L 79.5285 211.536093 
L 80.226 206.749637 
L 80.631818 203.532674 
L 80.633932 188.597979 
L 80.743841 189.430828 
L 81.263795 194.996991 
L 81.764727 198.707078 
L 82.149409 200.146737 
L 82.424182 200.494443 
L 82.614409 200.436814 
L 82.840568 200.083112 
L 83.166068 199.098613 
L 83.637409 196.872478 
L 84.351818 192.283646 
L 84.436364 191.678572 
L 84.438477 173.774456 
L 84.548386 174.771881 
L 84.949977 180.334947 
L 85.50375 186.305638 
L 85.943386 188.94256 
L 86.283682 189.85734 
L 86.518295 189.992189 
L 86.710636 189.837999 
L 86.974841 189.286269 
L 87.361636 187.888821 
L 87.936545 184.867025 
L 88.240909 182.963354 
L 88.243023 163.227591 
L 88.352932 164.329145 
L 88.718591 170.143304 
L 89.295614 177.559205 
L 89.7585 180.971768 
L 90.128386 182.298349 
L 90.394705 182.60157 
L 90.584932 182.530507 
L 90.821659 182.15155 
L 91.166182 181.116981 
L 91.677682 178.786012 
L 92.045455 176.711581 
L 92.047568 156.021555 
L 92.157477 157.188642 
L 92.504114 163.182187 
L 93.091705 171.558311 
L 93.567273 175.508272 
L 93.954068 177.133055 
L 94.241523 177.57163 
L 94.440205 177.549609 
L 94.662136 177.254456 
L 94.985523 176.394774 
L 95.465318 174.403187 
L 95.85 172.382379 
L 95.852114 151.134219 
L 95.962023 152.345114 
L 96.298091 158.480183 
L 96.892023 167.507914 
L 97.376045 171.821457 
L 97.773409 173.642847 
L 98.073545 174.171102 
L 98.278568 174.179738 
L 98.494159 173.925028 
L 98.806977 173.151802 
L 99.271977 171.325891 
L 99.654545 169.405268 
L 99.656659 147.79666 
L 99.766568 149.037391 
L 100.098409 155.319494 
L 100.694455 164.753676 
L 101.180591 169.287945 
L 101.584295 171.249337 
L 101.892886 171.844851 
L 102.10425 171.875886 
L 102.315614 171.646152 
L 102.619977 170.931233 
L 103.074409 169.215513 
L 103.459091 167.343345 
L 103.461205 145.492033 
L 103.571114 146.753163 
L 103.898727 153.108946 
L 104.496886 162.843708 
L 104.985136 167.536973 
L 105.390955 169.586484 
L 105.703773 170.231169 
L 105.919364 170.281938 
L 106.128614 170.070674 
L 106.426636 169.398593 
L 106.8705 167.774441 
L 107.263636 165.90465 
L 107.26575 143.921563 
L 107.375659 145.19588 
L 107.701159 151.616237 
L 108.299318 161.532427 
L 108.789682 166.340556 
L 109.199727 168.456988 
L 109.516773 169.128156 
L 109.734477 169.185836 
L 109.941614 168.982826 
L 110.237523 168.327767 
L 110.679273 166.734178 
L 111.068182 164.908496 
L 111.070295 142.879437 
L 111.180205 144.161729 
L 111.503591 150.611118 
L 112.103864 160.67984 
L 112.594227 165.543593 
L 113.004273 167.69201 
L 113.323432 168.384301 
L 113.54325 168.449391 
L 113.750386 168.251204 
L 114.044182 167.60912 
L 114.483818 166.039195 
L 114.872727 164.229091 
L 114.874841 142.20645 
L 114.98475 143.493232 
L 115.306023 149.947025 
L 115.906295 160.102339 
L 116.398773 165.026213 
L 116.808818 167.19194 
L 117.127977 167.893848 
L 117.349909 167.963584 
L 117.557045 167.767569 
L 117.850841 167.12868 
L 118.290477 165.564552 
L 118.677273 163.771701 
L 118.679386 141.781557 
L 118.789295 143.070628 
L 119.108455 149.512075 
L 119.708727 159.727679 
L 120.201205 164.681614 
L 120.613364 166.870673 
L 120.932523 167.576209 
L 121.154455 167.647744 
L 121.361591 167.453135 
L 121.655386 166.816114 
L 122.095023 165.255185 
L 122.481818 163.466069 
L 122.483932 141.520857 
L 122.593841 142.810827 
L 122.913 149.272883 
L 123.511159 159.487033 
L 124.003636 164.461588 
L 124.415795 166.66097 
L 124.734955 167.371662 
L 124.956886 167.445806 
L 125.161909 167.256253 
L 125.453591 166.630109 
L 125.889 165.095691 
L 126.286364 163.263284 
L 126.288477 141.369076 
L 126.398386 142.659054 
L 126.717545 149.134218 
L 127.315705 159.362819 
L 127.806068 164.324354 
L 128.218227 166.530574 
L 128.5395 167.246565 
L 128.761432 167.319094 
L 128.966455 167.128063 
L 129.258136 166.500024 
L 129.695659 164.954757 
L 130.090909 163.130483 
L 130.093023 141.289521 
L 130.202932 142.578955 
L 130.522091 149.062126 
L 131.12025 159.297521 
L 131.610614 164.257803 
L 132.022773 166.460609 
L 132.341932 167.171115 
L 132.563864 167.244316 
L 132.768886 167.053591 
L 133.060568 166.425661 
L 133.498091 164.880269 
L 133.895455 163.045454 
L 133.897568 141.256999 
L 134.007477 142.545575 
L 134.324523 148.988869 
L 134.922682 159.242942 
L 135.413045 164.211859 
L 135.825205 166.418315 
L 136.144364 167.130104 
L 136.366295 167.203649 
L 136.571318 167.012964 
L 136.863 166.384789 
L 137.300523 164.838736 
L 137.7 162.992819 
L 137.702114 141.254015 
L 137.812023 142.541585 
L 138.129068 148.987221 
L 138.727227 159.24017 
L 139.217591 164.204424 
L 139.627636 166.398497 
L 139.946795 167.111383 
L 140.168727 167.185191 
L 140.37375 166.994485 
L 140.665432 166.365981 
L 141.102955 164.819098 
L 141.504545 162.961829 
L 141.506659 141.268651 
L 141.616568 142.555175 
L 141.933614 149.001727 
L 142.531773 159.251805 
L 143.022136 164.210902 
L 143.432182 166.399918 
L 143.751341 167.10883 
L 143.973273 167.179986 
L 144.178295 166.986966 
L 144.472091 166.349556 
L 144.911727 164.787094 
L 145.309091 162.945047 
L 145.311205 141.293037 
L 145.421114 142.578537 
L 145.738159 149.025116 
L 146.336318 159.271419 
L 146.826682 164.225299 
L 147.236727 166.409453 
L 147.555886 167.114612 
L 147.777818 167.183278 
L 147.984955 166.984919 
L 148.27875 166.341912 
L 148.7205 164.764037 
L 149.113636 162.937419 
L 149.11575 141.322107 
L 149.225659 142.606642 
L 149.542705 149.052718 
L 150.13875 159.267224 
L 150.629114 164.228243 
L 151.039159 166.416041 
L 151.358318 167.122888 
L 151.58025 167.192262 
L 151.787386 166.994287 
L 152.081182 166.351464 
L 152.522932 164.773314 
L 152.918182 162.935554 
L 152.920295 141.352666 
L 153.030205 142.636313 
L 153.34725 149.081593 
L 153.943295 159.291936 
L 154.433659 164.248279 
L 154.843705 166.431946 
L 155.162864 167.13567 
L 155.382682 167.20379 
L 155.587705 167.009566 
L 155.8815 166.369962 
L 156.321136 164.803749 
L 156.722727 162.93719 
L 156.724841 141.382748 
L 156.83475 142.665591 
L 157.151795 149.109937 
L 157.747841 159.316279 
L 158.238205 164.268356 
L 158.64825 166.448314 
L 158.967409 167.14925 
L 159.187227 167.215557 
L 159.394364 167.016563 
L 159.688159 166.372109 
L 160.129909 164.791378 
L 160.527273 162.940831 
L 160.529386 141.411199 
L 160.639295 142.693327 
L 160.956341 149.136697 
L 161.552386 159.339315 
L 162.04275 164.287559 
L 162.452795 166.464222 
L 162.769841 167.160538 
L 162.989659 167.228208 
L 163.194682 167.033362 
L 163.488477 166.39263 
L 163.928114 164.824468 
L 164.331818 162.945497 
L 164.333932 141.437407 
L 164.443841 142.718901 
L 164.760886 149.161316 
L 165.356932 159.360539 
L 165.845182 164.289912 
L 166.255227 166.471855 
L 166.572273 167.171137 
L 166.792091 167.240372 
L 166.997114 167.046668 
L 167.290909 166.407114 
L 167.730545 164.839901 
L 168.136364 162.950557 
L 168.138477 141.461106 
L 168.248386 142.742046 
L 168.565432 149.18356 
L 169.161477 159.379736 
L 169.649727 164.306125 
L 170.059773 166.485531 
L 170.376818 167.182939 
L 170.596636 167.250951 
L 170.801659 167.056177 
L 171.095455 166.415225 
L 171.535091 164.846245 
L 171.940909 162.955623 
L 171.943023 141.482255 
L 172.052932 142.762711 
L 172.369977 149.203397 
L 172.966023 159.396869 
L 173.454273 164.320649 
L 173.864318 166.497846 
L 174.181364 167.193626 
L 174.401182 167.260578 
L 174.608318 167.061693 
L 174.902114 166.41675 
L 175.343864 164.834315 
L 175.745455 162.960463 
L 175.747568 141.500944 
L 175.857477 142.780979 
L 176.174523 149.220918 
L 176.770568 159.41201 
L 177.258818 164.333518 
L 177.668864 166.508802 
L 177.985909 167.203173 
L 178.205727 167.269207 
L 178.412864 167.069513 
L 178.708773 166.417536 
L 179.150523 164.830792 
L 179.55 162.964952 
L 179.552114 141.517335 
L 179.662023 142.797007 
L 179.979068 149.236279 
L 180.575114 159.425291 
L 181.063364 164.34483 
L 181.471295 166.511177 
L 181.788341 167.209451 
L 182.008159 167.277663 
L 182.213182 167.082838 
L 182.506977 166.441504 
L 182.946614 164.871492 
L 183.354545 162.969031 
L 183.356659 141.53163 
L 183.466568 142.810988 
L 183.783614 149.249671 
L 184.379659 159.436874 
L 184.867909 164.354711 
L 185.275841 166.51964 
L 185.592886 167.216867 
L 185.812705 167.284397 
L 186.017727 167.088977 
L 186.311523 166.446864 
L 186.751159 164.875864 
L 187.159091 162.972682 
L 187.161205 141.544041 
L 187.271114 142.823129 
L 187.588159 149.261296 
L 188.184205 159.446931 
L 188.672455 164.363301 
L 189.080386 166.527009 
L 189.397432 167.223336 
L 189.61725 167.290281 
L 189.822273 167.094349 
L 190.116068 166.451567 
L 190.555705 164.879719 
L 190.963636 162.975917 
L 190.96575 141.554778 
L 191.075659 142.833634 
L 191.392705 149.271352 
L 191.98875 159.455632 
L 192.477 164.37074 
L 192.884932 166.5334 
L 193.201977 167.228954 
L 193.421795 167.295397 
L 193.628932 167.095835 
L 193.922727 166.449699 
L 194.364477 164.865192 
L 194.768182 162.978759 
L 194.770295 141.564043 
L 194.880205 142.842699 
L 195.19725 149.280027 
L 195.793295 159.463139 
L 196.281545 164.377164 
L 196.689477 166.538924 
L 197.006523 167.233816 
L 197.226341 167.299828 
L 197.433477 167.099886 
L 197.729386 166.447267 
L 198.171136 164.859155 
L 198.572727 162.981241 
L 198.574841 141.572019 
L 198.68475 142.850504 
L 199.001795 149.287495 
L 199.597841 159.469602 
L 200.086091 164.382697 
L 200.494023 166.543687 
L 200.811068 167.238012 
L 201.030886 167.303655 
L 201.238023 167.103387 
L 201.533932 166.450344 
L 201.975682 164.861697 
L 202.377273 162.983398 
L 202.379386 141.578874 
L 202.489295 142.857213 
L 202.806341 149.293912 
L 203.402386 159.475157 
L 203.890636 164.387455 
L 204.298568 166.547785 
L 204.615614 167.241624 
L 204.835432 167.306951 
L 205.042568 167.106405 
L 205.338477 166.452999 
L 205.782341 164.854908 
L 206.181818 162.985266 
L 206.183932 141.584757 
L 206.293841 142.862971 
L 206.610886 149.299419 
L 207.206932 159.479924 
L 207.695182 164.39154 
L 208.103114 166.551305 
L 208.420159 167.244729 
L 208.639977 167.309786 
L 208.847114 167.109002 
L 209.143023 166.455285 
L 209.586886 164.8568 
L 209.986364 162.986878 
L 209.988477 141.5898 
L 210.098386 142.867907 
L 210.415432 149.30414 
L 211.011477 159.484011 
L 211.499727 164.395043 
L 211.907659 166.554325 
L 212.224705 167.247393 
L 212.444523 167.31222 
L 212.651659 167.111232 
L 212.947568 166.45725 
L 213.391432 164.858428 
L 213.790909 162.988267 
L 213.793023 141.59412 
L 213.902932 142.872135 
L 214.219977 149.308183 
L 214.816023 159.487512 
L 215.304273 164.398044 
L 215.712205 166.556913 
L 216.02925 167.249678 
L 216.249068 167.314307 
L 216.456205 167.113145 
L 216.752114 166.458937 
L 217.195977 164.859827 
L 217.595455 162.989461 
L 217.597568 141.597817 
L 217.707477 142.875754 
L 218.024523 149.311644 
L 218.620568 159.490508 
L 219.108818 164.400614 
L 219.51675 166.559129 
L 219.833795 167.251635 
L 220.053614 167.316095 
L 220.26075 167.114785 
L 220.556659 166.460383 
L 221.000523 164.861027 
L 221.4 162.990485 
L 221.402114 141.60098 
L 221.512023 142.87885 
L 221.829068 149.314604 
L 222.425114 159.49307 
L 222.913364 164.402812 
L 223.321295 166.561026 
L 223.638341 167.253309 
L 223.858159 167.317626 
L 224.065295 167.116188 
L 224.361205 166.461621 
L 224.805068 164.862055 
L 225.204545 162.991364 
L 225.206659 141.603684 
L 225.316568 142.881497 
L 225.633614 149.317135 
L 226.229659 159.495262 
L 226.717909 164.404691 
L 227.125841 166.562648 
L 227.442886 167.254742 
L 227.662705 167.318936 
L 227.869841 167.117389 
L 228.16575 166.462681 
L 228.609614 164.862935 
L 229.009091 162.992117 
L 229.011205 141.605995 
L 229.121114 142.883759 
L 229.438159 149.319298 
L 230.034205 159.497135 
L 230.522455 164.406298 
L 230.930386 166.564035 
L 231.247432 167.255967 
L 231.46725 167.320056 
L 231.674386 167.118417 
L 231.970295 166.463587 
L 232.414159 164.863689 
L 232.813636 162.992761 
L 232.81575 141.60797 
L 232.925659 142.885692 
L 233.242705 149.321146 
L 233.83875 159.498735 
L 234.327 164.407671 
L 234.734932 166.56522 
L 235.051977 167.257014 
L 235.271795 167.321013 
L 235.478932 167.119295 
L 235.774841 166.464363 
L 236.218705 164.864333 
L 236.618182 162.993312 
L 236.620295 141.609657 
L 236.730205 142.887344 
L 237.04725 149.322725 
L 237.643295 159.500102 
L 238.131545 164.408844 
L 238.539477 166.566232 
L 238.856523 167.257909 
L 239.076341 167.321831 
L 239.283477 167.120045 
L 239.579386 166.465025 
L 240.02325 164.864884 
L 240.422727 162.993784 
L 240.424841 141.611098 
L 240.53475 142.888754 
L 240.851795 149.324073 
L 241.447841 159.50127 
L 241.936091 164.409845 
L 242.344023 166.567097 
L 242.661068 167.258673 
L 242.880886 167.32253 
L 243.088023 167.120687 
L 243.383932 166.465591 
L 243.827795 164.865354 
L 244.227273 162.994187 
L 244.229386 141.612328 
L 244.339295 142.889959 
L 244.656341 149.325225 
L 245.252386 159.502267 
L 245.740636 164.410701 
L 246.148568 166.567836 
L 246.465614 167.259326 
L 246.685432 167.323127 
L 246.892568 167.121234 
L 247.188477 166.466075 
L 247.632341 164.865757 
L 248.031818 162.994531 
L 248.033932 141.613379 
L 248.143841 142.890987 
L 248.460886 149.326208 
L 249.054818 159.475563 
L 249.543068 164.396009 
L 249.951 166.561193 
L 250.268045 167.257732 
L 250.487864 167.324456 
L 250.692886 167.128107 
L 250.986682 166.484464 
L 251.426318 164.910965 
L 251.836364 162.994825 
L 251.838477 141.614276 
L 251.948386 142.891865 
L 252.265432 149.327047 
L 252.859364 159.47629 
L 253.347614 164.396633 
L 253.755545 166.561732 
L 254.072591 167.258209 
L 254.292409 167.324892 
L 254.497432 167.128507 
L 254.791227 166.484817 
L 255.230864 164.91126 
L 255.640909 162.995076 
L 255.643023 141.615042 
L 255.752932 142.892615 
L 256.069977 149.327764 
L 256.663909 159.476911 
L 257.152159 164.397166 
L 257.560091 166.562192 
L 257.877136 167.258615 
L 258.096955 167.325264 
L 258.301977 167.128849 
L 258.595773 166.485119 
L 259.035409 164.911511 
L 259.445455 162.995291 
L 259.447568 141.615695 
L 259.557477 142.893254 
L 259.874523 149.328376 
L 260.468455 159.477441 
L 260.956705 164.397621 
L 261.364636 166.562585 
L 261.681682 167.258962 
L 261.9015 167.325581 
L 262.106523 167.12914 
L 262.400318 166.485377 
L 262.839955 164.911726 
L 263.25 162.995474 
L 263.252114 141.616253 
L 263.362023 142.8938 
L 263.679068 149.328898 
L 264.273 159.477894 
L 264.76125 164.398009 
L 265.169182 166.56292 
L 265.486227 167.259259 
L 265.706045 167.325852 
L 265.911068 167.129389 
L 266.204864 166.485597 
L 266.6445 164.91191 
L 267.054545 162.99563 
L 267.056659 141.616729 
L 267.166568 142.894267 
L 267.483614 149.329343 
L 268.077545 159.47828 
L 268.565795 164.398341 
L 268.973727 166.563206 
L 269.290773 167.259512 
L 269.510591 167.326084 
L 269.715614 167.129602 
L 270.009409 166.485785 
L 270.449045 164.912066 
L 270.859091 162.995763 
L 270.861205 141.617136 
L 270.971114 142.894665 
L 271.288159 149.329724 
L 271.882091 159.478609 
L 272.370341 164.398623 
L 272.778273 166.563451 
L 273.095318 167.259728 
L 273.315136 167.326281 
L 273.520159 167.129783 
L 273.813955 166.485945 
L 274.253591 164.9122 
L 274.663636 162.995877 
L 274.66575 141.617483 
L 274.775659 142.895004 
L 275.092705 149.330048 
L 275.686636 159.47889 
L 276.174886 164.398865 
L 276.582818 166.563659 
L 276.899864 167.259912 
L 277.119682 167.32645 
L 277.326818 167.126745 
L 277.620614 166.480106 
L 278.062364 164.894399 
L 278.468182 162.995975 
L 278.470295 141.617779 
L 278.580205 142.895294 
L 278.89725 149.330325 
L 279.491182 159.479131 
L 279.979432 164.399071 
L 280.387364 166.563837 
L 280.704409 167.260069 
L 280.924227 167.326593 
L 281.131364 167.126877 
L 281.425159 166.480223 
L 281.866909 164.894496 
L 282.272727 162.996058 
L 282.274841 141.618031 
L 282.38475 142.895541 
L 282.701795 149.330562 
L 283.295727 159.479335 
L 283.783977 164.399247 
L 284.191909 166.563989 
L 284.508955 167.260203 
L 284.728773 167.326716 
L 284.935909 167.12699 
L 285.229705 166.480322 
L 285.671455 164.894579 
L 286.077273 162.996129 
L 286.079386 141.618247 
L 286.189295 142.895752 
L 286.506341 149.330764 
L 287.100273 159.47951 
L 287.588523 164.399397 
L 287.996455 166.564119 
L 288.3135 167.260318 
L 288.533318 167.326821 
L 288.740455 167.127086 
L 289.03425 166.480408 
L 289.476 164.89465 
L 289.881818 162.996189 
L 289.883932 141.618431 
L 289.993841 142.895933 
L 290.310886 149.330936 
L 290.904818 159.479659 
L 291.393068 164.399525 
L 291.801 166.564229 
L 292.118045 167.260416 
L 292.337864 167.32691 
L 292.545 167.127168 
L 292.838795 166.48048 
L 293.280545 164.89471 
L 293.686364 162.996241 
L 293.688477 141.618588 
L 293.798386 142.896086 
L 294.115432 149.331083 
L 294.709364 159.479787 
L 295.197614 164.399634 
L 295.605545 166.564324 
L 295.922591 167.260499 
L 296.142409 167.326987 
L 296.349545 167.127238 
L 296.643341 166.480542 
L 297.085091 164.894762 
L 297.490909 162.996285 
L 297.493023 141.618722 
L 297.602932 142.896218 
L 297.919977 149.331208 
L 298.513909 159.479896 
L 299.002159 164.399727 
L 299.410091 166.564404 
L 299.727136 167.26057 
L 299.946955 167.327052 
L 300.154091 167.127298 
L 300.447886 166.480595 
L 300.889636 164.894806 
L 301.295455 162.996322 
L 301.297568 141.618837 
L 301.407477 142.89633 
L 301.724523 149.331315 
L 302.318455 159.479988 
L 302.806705 164.399807 
L 303.214636 166.564473 
L 303.531682 167.260631 
L 303.7515 167.327107 
L 303.958636 167.127349 
L 304.252432 166.48064 
L 304.694182 164.894844 
L 305.1 162.996354 
L 305.102114 141.618934 
L 305.212023 142.896425 
L 305.529068 149.331407 
L 306.123 159.480067 
L 306.61125 164.399875 
L 307.019182 166.564532 
L 307.336227 167.260683 
L 307.556045 167.327155 
L 307.763182 167.127392 
L 308.056977 166.480678 
L 308.498727 164.894876 
L 308.904545 162.996382 
L 308.906659 141.619018 
L 309.016568 142.896507 
L 309.333614 149.331485 
L 309.927545 159.480135 
L 310.415795 164.399933 
L 310.823727 166.564582 
L 311.140773 167.260727 
L 311.360591 167.327195 
L 311.567727 167.12743 
L 311.861523 166.480711 
L 312.303273 164.894903 
L 312.709091 162.996405 
L 312.711205 141.619089 
L 312.821114 142.896576 
L 313.138159 149.331551 
L 313.732091 159.480193 
L 314.220341 164.399982 
L 314.628273 166.564624 
L 314.945318 167.260765 
L 315.165136 167.32723 
L 315.372273 167.127461 
L 315.666068 166.480739 
L 316.107818 164.894926 
L 316.513636 162.996425 
L 316.51575 141.619149 
L 316.625659 142.896636 
L 316.942705 149.331608 
L 317.536636 159.480242 
L 318.024886 164.400025 
L 318.432818 166.564661 
L 318.749864 167.260797 
L 318.969682 167.327259 
L 319.176818 167.127488 
L 319.470614 166.480763 
L 319.912364 164.894946 
L 320.318182 162.996442 
L 320.320295 141.619201 
L 320.430205 142.896686 
L 320.74725 149.331657 
L 321.341182 159.480284 
L 321.829432 164.400061 
L 322.237364 166.564692 
L 322.554409 167.260825 
L 322.774227 167.327285 
L 322.981364 167.127511 
L 323.275159 166.480784 
L 323.716909 164.894963 
L 324.122727 162.996457 
L 324.124841 141.619245 
L 324.23475 142.89673 
L 324.551795 149.331698 
L 325.145727 159.48032 
L 325.633977 164.400091 
L 326.041909 166.564719 
L 326.358955 167.260848 
L 326.578773 167.327306 
L 326.785909 167.127531 
L 327.079705 166.480801 
L 327.521455 164.894978 
L 327.927273 162.996469 
L 327.929386 141.619283 
L 328.039295 142.896767 
L 328.356341 149.331733 
L 328.950273 159.48035 
L 329.438523 164.400118 
L 329.846455 166.564741 
L 330.1635 167.260868 
L 330.383318 167.327324 
L 330.590455 167.127548 
L 330.88425 166.480816 
L 331.326 164.89499 
L 331.731818 162.996479 
L 331.733932 141.619315 
L 331.843841 142.896798 
L 332.160886 149.331763 
L 332.754818 159.480376 
L 333.243068 164.40014 
L 333.651 166.564761 
L 333.968045 167.260885 
L 334.187864 167.32734 
L 334.395 167.127562 
L 334.688795 166.480829 
L 335.130545 164.895001 
L 335.536364 162.996489 
L 335.538477 141.619343 
L 335.648386 142.896825 
L 335.965432 149.331789 
L 336.559364 159.480399 
L 337.047614 164.400159 
L 337.455545 166.564777 
L 337.772591 167.2609 
L 337.992409 167.327353 
L 338.199545 167.127575 
L 338.493341 166.480839 
L 338.935091 164.89501 
L 339.340909 162.996496 
L 339.343023 141.619366 
L 339.452932 142.896848 
L 339.769977 149.331811 
L 340.363909 159.480418 
L 340.852159 164.400176 
L 341.260091 166.564791 
L 341.577136 167.260912 
L 341.796955 167.327365 
L 342.004091 167.127585 
L 342.297886 166.480849 
L 342.739636 164.895017 
L 343.145455 162.996503 
L 343.147568 141.619386 
L 343.257477 142.896868 
L 343.574523 149.33183 
L 344.168455 159.480434 
L 344.656705 164.400189 
L 345.064636 166.564803 
L 345.381682 167.260923 
L 345.6015 167.327374 
L 345.808636 167.127594 
L 346.102432 166.480857 
L 346.544182 164.895024 
L 346.95 162.996508 
L 346.952114 141.619403 
L 347.062023 142.896884 
L 347.379068 149.331846 
L 347.973 159.480448 
L 348.46125 164.400201 
L 348.869182 166.564813 
L 349.186227 167.260932 
L 349.406045 167.327383 
L 349.613182 167.127602 
L 349.906977 166.480863 
L 350.348727 164.89503 
L 350.754545 162.996513 
L 350.756659 141.619418 
L 350.866568 142.896899 
L 351.183614 149.331859 
L 351.777545 159.48046 
L 352.265795 164.400212 
L 352.673727 166.564822 
L 352.990773 167.26094 
L 353.210591 167.32739 
L 353.417727 167.127608 
L 353.711523 166.480869 
L 354.153273 164.895034 
L 354.559091 162.996517 
L 354.561205 141.61943 
L 354.671114 142.896911 
L 354.988159 149.331871 
L 355.582091 159.48047 
L 356.070341 164.40022 
L 356.478273 166.56483 
L 356.795318 167.260947 
L 357.015136 167.327396 
L 357.222273 167.127614 
L 357.516068 166.480874 
L 357.957818 164.895038 
L 358.363636 162.996521 
L 358.36575 141.619441 
L 358.475659 142.896921 
L 358.792705 149.331881 
L 359.386636 159.480478 
L 359.874886 164.400228 
L 360.282818 166.564836 
L 360.599864 167.260952 
L 360.819682 167.327401 
L 361.026818 167.127618 
L 361.320614 166.480878 
L 361.762364 164.895042 
L 362.168182 162.996524 
L 362.170295 141.61945 
L 362.280205 142.89693 
L 362.59725 149.331889 
L 363.191182 159.480486 
L 363.679432 164.400234 
L 364.087364 166.564841 
L 364.404409 167.260957 
L 364.624227 167.327405 
L 364.831364 167.127622 
L 365.125159 166.480882 
L 365.566909 164.895045 
L 365.972727 162.996526 
L 365.974841 141.619458 
L 366.08475 142.896938 
L 366.401795 149.331897 
L 366.995727 159.480492 
L 367.483977 164.400239 
L 367.891909 166.564846 
L 368.208955 167.260961 
L 368.428773 167.327409 
L 368.635909 167.127626 
L 368.929705 166.480885 
L 369.371455 164.895047 
L 369.777273 162.996528 
L 369.779386 141.619464 
L 369.889295 142.896944 
L 370.206341 149.331903 
L 370.800273 159.480497 
L 371.288523 164.400244 
L 371.696455 166.56485 
L 372.0135 167.260965 
L 372.233318 167.327412 
L 372.440455 167.127629 
L 372.73425 166.480887 
L 373.176 164.89505 
L 373.581818 162.99653 
L 373.581818 162.99653 
" clip-path="url(#p07d665b992)" style="fill: none; stroke: #2ca02c; stroke-width: 1.5; stroke-linecap: square"/>
   </g>
   <g id="patch_3">
    <path d="M 54 252 
L 54 34.56 
" style="fill: none; stroke: #000000; stroke-width: 0.8; stroke-linejoin: miter; stroke-linecap: square"/>
   </g>
   <g id="patch_4">
    <path d="M 388.8 252 
L 388.8 34.56 
" style="fill: none; stroke: #000000; stroke-width: 0.8; stroke-linejoin: miter; stroke-linecap: square"/>
   </g>
   <g id="patch_5">
    <path d="M 54 252 
L 388.8 252 
" style="fill: none; stroke: #000000; stroke-width: 0.8; stroke-linejoin: miter; stroke-linecap: square"/>
   </g>
   <g id="patch_6">
    <path d="M 54 34.56 
L 388.8 34.56 
" style="fill: none; stroke: #000000; stroke-width: 0.8; stroke-linejoin: miter; stroke-linecap: square"/>
   </g>
   <g id="legend_1">
    <g id="patch_7">
     <path d="M 61 86.594375 
L 99.982812 86.594375 
Q 101.982812 86.594375 101.982812 84.594375 
L 101.982812 41.56 
Q 101.982812 39.56 99.982812 39.56 
L 61 39.56 
Q 59 39.56 59 41.56 
L 59 84.594375 
Q 59 86.594375 61 86.594375 
z
" style="fill: #ffffff; opacity: 0.8; stroke: #cccccc; stroke-linejoin: miter"/>
    </g>
    <g id="line2d_18">
     <path d="M 63 47.658438 
L 73 47.658438 
L 83 47.658438 
" style="fill: none; stroke: #1f77b4; stroke-width: 1.5; stroke-linecap: square"/>
    </g>
    <g id="text_17">
     <!-- A -->
     <g transform="translate(91 51.158438) scale(0.1 -0.1)">
      <defs>
       <path id="DejaVuSans-41" d="M 2188 4044 
L 1331 1722 
L 3047 1722 
L 2188 4044 
z
M 1831 4666 
L 2547 4666 
L 4325 0 
L 3669 0 
L 3244 1197 
L 1141 1197 
L 716 0 
L 50 0 
L 1831 4666 
z
" transform="scale(0.015625)"/>
      </defs>
      <use xlink:href="#DejaVuSans-41"/>
     </g>
    </g>
    <g id="line2d_19">
     <path d="M 63 62.336563 
L 73 62.336563 
L 83 62.336563 
" style="fill: none; stroke: #ff7f0e; stroke-width: 1.5; stroke-linecap: square"/>
    </g>
    <g id="text_18">
     <!-- B -->
     <g transform="translate(91 65.836563) scale(0.1 -0.1)">
      <defs>
       <path id="DejaVuSans-42" d="M 1259 2228 
L 1259 519 
L 2272 519 
Q 2781 519 3026 730 
Q 3272 941 3272 1375 
Q 3272 1813 3026 2020 
Q 2781 2228 2272 2228 
L 1259 2228 
z
M 1259 4147 
L 1259 2741 
L 2194 2741 
Q 2656 2741 2882 2914 
Q 3109 3088 3109 3444 
Q 3109 3797 2882 3972 
Q 2656 4147 2194 4147 
L 1259 4147 
z
M 628 4666 
L 2241 4666 
Q 2963 4666 3353 4366 
Q 3744 4066 3744 3513 
Q 3744 3084 3544 2831 
Q 3344 2578 2956 2516 
Q 3422 2416 3680 2098 
Q 3938 1781 3938 1306 
Q 3938 681 3513 340 
Q 3088 0 2303 0 
L 628 0 
L 628 4666 
z
" transform="scale(0.015625)"/>
      </defs>
      <use xlink:href="#DejaVuSans-42"/>
     </g>
    </g>
    <g id="line2d_20">
     <path d="M 63 77.014688 
L 73 77.014688 
L 83 77.014688 
" style="fill: none; stroke: #2ca02c; stroke-width: 1.5; stroke-linecap: square"/>
    </g>
    <g id="text_19">
     <!-- C -->
     <g transform="translate(91 80.514688) scale(0.1 -0.1)">
      <use xlink:href="#DejaVuSans-43"/>
     </g>
    </g>
   </g>
  </g>
 </g>
 <defs>
  <clipPath id="p07d665b992">
   <rect x="54" y="34.56" width="334.8" height="217.44"/>
  </clipPath>
 </defs>
</svg>
