<?xml version="1.0" encoding="utf-8" standalone="no"?>
<!DOCTYPE svg PUBLIC "-//W3C//DTD SVG 1.1//EN"
  "http://www.w3.org/Graphics/SVG/1.1/DTD/svg11.dtd">
<svg xmlns:xlink="http://www.w3.org/1999/xlink" width="665.195313pt" height="637.476pt" viewBox="0 0 665.195313 637.476" xmlns="http://www.w3.org/2000/svg" version="1.1">
 <metadata>
  <rdf:RDF xmlns:dc="http://purl.org/dc/elements/1.1/" xmlns:cc="http://creativecommons.org/ns#" xmlns:rdf="http://www.w3.org/1999/02/22-rdf-syntax-ns#">
   <cc:Work>
    <dc:type rdf:resource="http://purl.org/dc/dcmitype/StillImage"/>
    <dc:date>2025-01-15T09:08:47.082700</dc:date>
    <dc:format>image/svg+xml</dc:format>
    <dc:creator>
     <cc:Agent>
      <dc:title>Matplotlib v3.9.1, https://matplotlib.org/</dc:title>
     </cc:Agent>
    </dc:creator>
   </cc:Work>
  </rdf:RDF>
 </metadata>
 <defs>
  <style type="text/css">*{stroke-linejoin: round; stroke-linecap: butt}</style>
 </defs>
 <g id="figure_1">
  <g id="patch_1">
   <path d="M 0 637.476 
L 665.195313 637.476 
L 665.195313 0 
L 0 0 
z
" style="fill: #ffffff"/>
  </g>
  <g id="axes_1">
   <g id="patch_2">
    <path d="M 94.095313 415.44 
L 596.295313 415.44 
L 596.295313 7.2 
L 94.095313 7.2 
z
" style="fill: #ffffff"/>
   </g>
   <g id="matplotlib.axis_1">
    <g id="xtick_1">
     <g id="line2d_1">
      <path d="M 113.875738 415.44 
L 113.875738 7.2 
" clip-path="url(#p7edab640cc)" style="fill: none; stroke-dasharray: 1.85,0.8; stroke-dashoffset: 0; stroke: #b0b0b0; stroke-width: 0.5"/>
     </g>
     <g id="line2d_2">
      <defs>
       <path id="m7109c2eb59" d="M 0 0 
L 0 3.5 
" style="stroke: #000000; stroke-width: 0.8"/>
      </defs>
      <g>
       <use xlink:href="#m7109c2eb59" x="113.875738" y="415.44" style="stroke: #000000; stroke-width: 0.8"/>
      </g>
     </g>
     <g id="text_1">
      <!-- 0 -->
      <g transform="translate(106.876988 439.156562) scale(0.22 -0.22)">
       <defs>
        <path id="DejaVuSans-30" d="M 2034 4250 
Q 1547 4250 1301 3770 
Q 1056 3291 1056 2328 
Q 1056 1369 1301 889 
Q 1547 409 2034 409 
Q 2525 409 2770 889 
Q 3016 1369 3016 2328 
Q 3016 3291 2770 3770 
Q 2525 4250 2034 4250 
z
M 2034 4750 
Q 2819 4750 3233 4129 
Q 3647 3509 3647 2328 
Q 3647 1150 3233 529 
Q 2819 -91 2034 -91 
Q 1250 -91 836 529 
Q 422 1150 422 2328 
Q 422 3509 836 4129 
Q 1250 4750 2034 4750 
z
" transform="scale(0.015625)"/>
       </defs>
       <use xlink:href="#DejaVuSans-30"/>
      </g>
     </g>
    </g>
    <g id="xtick_2">
     <g id="line2d_3">
      <path d="M 197.488446 415.44 
L 197.488446 7.2 
" clip-path="url(#p7edab640cc)" style="fill: none; stroke-dasharray: 1.85,0.8; stroke-dashoffset: 0; stroke: #b0b0b0; stroke-width: 0.5"/>
     </g>
     <g id="line2d_4">
      <g>
       <use xlink:href="#m7109c2eb59" x="197.488446" y="415.44" style="stroke: #000000; stroke-width: 0.8"/>
      </g>
     </g>
     <g id="text_2">
      <!-- 50 -->
      <g transform="translate(183.490946 439.156562) scale(0.22 -0.22)">
       <defs>
        <path id="DejaVuSans-35" d="M 691 4666 
L 3169 4666 
L 3169 4134 
L 1269 4134 
L 1269 2991 
Q 1406 3038 1543 3061 
Q 1681 3084 1819 3084 
Q 2600 3084 3056 2656 
Q 3513 2228 3513 1497 
Q 3513 744 3044 326 
Q 2575 -91 1722 -91 
Q 1428 -91 1123 -41 
Q 819 9 494 109 
L 494 744 
Q 775 591 1075 516 
Q 1375 441 1709 441 
Q 2250 441 2565 725 
Q 2881 1009 2881 1497 
Q 2881 1984 2565 2268 
Q 2250 2553 1709 2553 
Q 1456 2553 1204 2497 
Q 953 2441 691 2322 
L 691 4666 
z
" transform="scale(0.015625)"/>
       </defs>
       <use xlink:href="#DejaVuSans-35"/>
       <use xlink:href="#DejaVuSans-30" x="63.623047"/>
      </g>
     </g>
    </g>
    <g id="xtick_3">
     <g id="line2d_5">
      <path d="M 281.101155 415.44 
L 281.101155 7.2 
" clip-path="url(#p7edab640cc)" style="fill: none; stroke-dasharray: 1.85,0.8; stroke-dashoffset: 0; stroke: #b0b0b0; stroke-width: 0.5"/>
     </g>
     <g id="line2d_6">
      <g>
       <use xlink:href="#m7109c2eb59" x="281.101155" y="415.44" style="stroke: #000000; stroke-width: 0.8"/>
      </g>
     </g>
     <g id="text_3">
      <!-- 100 -->
      <g transform="translate(260.104905 439.156562) scale(0.22 -0.22)">
       <defs>
        <path id="DejaVuSans-31" d="M 794 531 
L 1825 531 
L 1825 4091 
L 703 3866 
L 703 4441 
L 1819 4666 
L 2450 4666 
L 2450 531 
L 3481 531 
L 3481 0 
L 794 0 
L 794 531 
z
" transform="scale(0.015625)"/>
       </defs>
       <use xlink:href="#DejaVuSans-31"/>
       <use xlink:href="#DejaVuSans-30" x="63.623047"/>
       <use xlink:href="#DejaVuSans-30" x="127.246094"/>
      </g>
     </g>
    </g>
    <g id="xtick_4">
     <g id="line2d_7">
      <path d="M 364.713863 415.44 
L 364.713863 7.2 
" clip-path="url(#p7edab640cc)" style="fill: none; stroke-dasharray: 1.85,0.8; stroke-dashoffset: 0; stroke: #b0b0b0; stroke-width: 0.5"/>
     </g>
     <g id="line2d_8">
      <g>
       <use xlink:href="#m7109c2eb59" x="364.713863" y="415.44" style="stroke: #000000; stroke-width: 0.8"/>
      </g>
     </g>
     <g id="text_4">
      <!-- 150 -->
      <g transform="translate(343.717613 439.156562) scale(0.22 -0.22)">
       <use xlink:href="#DejaVuSans-31"/>
       <use xlink:href="#DejaVuSans-35" x="63.623047"/>
       <use xlink:href="#DejaVuSans-30" x="127.246094"/>
      </g>
     </g>
    </g>
    <g id="xtick_5">
     <g id="line2d_9">
      <path d="M 448.326571 415.44 
L 448.326571 7.2 
" clip-path="url(#p7edab640cc)" style="fill: none; stroke-dasharray: 1.85,0.8; stroke-dashoffset: 0; stroke: #b0b0b0; stroke-width: 0.5"/>
     </g>
     <g id="line2d_10">
      <g>
       <use xlink:href="#m7109c2eb59" x="448.326571" y="415.44" style="stroke: #000000; stroke-width: 0.8"/>
      </g>
     </g>
     <g id="text_5">
      <!-- 200 -->
      <g transform="translate(427.330321 439.156562) scale(0.22 -0.22)">
       <defs>
        <path id="DejaVuSans-32" d="M 1228 531 
L 3431 531 
L 3431 0 
L 469 0 
L 469 531 
Q 828 903 1448 1529 
Q 2069 2156 2228 2338 
Q 2531 2678 2651 2914 
Q 2772 3150 2772 3378 
Q 2772 3750 2511 3984 
Q 2250 4219 1831 4219 
Q 1534 4219 1204 4116 
Q 875 4013 500 3803 
L 500 4441 
Q 881 4594 1212 4672 
Q 1544 4750 1819 4750 
Q 2544 4750 2975 4387 
Q 3406 4025 3406 3419 
Q 3406 3131 3298 2873 
Q 3191 2616 2906 2266 
Q 2828 2175 2409 1742 
Q 1991 1309 1228 531 
z
" transform="scale(0.015625)"/>
       </defs>
       <use xlink:href="#DejaVuSans-32"/>
       <use xlink:href="#DejaVuSans-30" x="63.623047"/>
       <use xlink:href="#DejaVuSans-30" x="127.246094"/>
      </g>
     </g>
    </g>
    <g id="xtick_6">
     <g id="line2d_11">
      <path d="M 531.93928 415.44 
L 531.93928 7.2 
" clip-path="url(#p7edab640cc)" style="fill: none; stroke-dasharray: 1.85,0.8; stroke-dashoffset: 0; stroke: #b0b0b0; stroke-width: 0.5"/>
     </g>
     <g id="line2d_12">
      <g>
       <use xlink:href="#m7109c2eb59" x="531.93928" y="415.44" style="stroke: #000000; stroke-width: 0.8"/>
      </g>
     </g>
     <g id="text_6">
      <!-- 250 -->
      <g transform="translate(510.94303 439.156562) scale(0.22 -0.22)">
       <use xlink:href="#DejaVuSans-32"/>
       <use xlink:href="#DejaVuSans-35" x="63.623047"/>
       <use xlink:href="#DejaVuSans-30" x="127.246094"/>
      </g>
     </g>
    </g>
    <g id="xtick_7">
     <g id="line2d_13">
      <path d="M 97.153196 415.44 
L 97.153196 7.2 
" clip-path="url(#p7edab640cc)" style="fill: none; stroke-dasharray: 1.85,0.8; stroke-dashoffset: 0; stroke: #b0b0b0; stroke-width: 0.5"/>
     </g>
     <g id="line2d_14">
      <defs>
       <path id="mfd0fcdc71a" d="M 0 0 
L 0 2 
" style="stroke: #000000; stroke-width: 0.6"/>
      </defs>
      <g>
       <use xlink:href="#mfd0fcdc71a" x="97.153196" y="415.44" style="stroke: #000000; stroke-width: 0.6"/>
      </g>
     </g>
    </g>
    <g id="xtick_8">
     <g id="line2d_15">
      <path d="M 130.59828 415.44 
L 130.59828 7.2 
" clip-path="url(#p7edab640cc)" style="fill: none; stroke-dasharray: 1.85,0.8; stroke-dashoffset: 0; stroke: #b0b0b0; stroke-width: 0.5"/>
     </g>
     <g id="line2d_16">
      <g>
       <use xlink:href="#mfd0fcdc71a" x="130.59828" y="415.44" style="stroke: #000000; stroke-width: 0.6"/>
      </g>
     </g>
    </g>
    <g id="xtick_9">
     <g id="line2d_17">
      <path d="M 147.320821 415.44 
L 147.320821 7.2 
" clip-path="url(#p7edab640cc)" style="fill: none; stroke-dasharray: 1.85,0.8; stroke-dashoffset: 0; stroke: #b0b0b0; stroke-width: 0.5"/>
     </g>
     <g id="line2d_18">
      <g>
       <use xlink:href="#mfd0fcdc71a" x="147.320821" y="415.44" style="stroke: #000000; stroke-width: 0.6"/>
      </g>
     </g>
    </g>
    <g id="xtick_10">
     <g id="line2d_19">
      <path d="M 164.043363 415.44 
L 164.043363 7.2 
" clip-path="url(#p7edab640cc)" style="fill: none; stroke-dasharray: 1.85,0.8; stroke-dashoffset: 0; stroke: #b0b0b0; stroke-width: 0.5"/>
     </g>
     <g id="line2d_20">
      <g>
       <use xlink:href="#mfd0fcdc71a" x="164.043363" y="415.44" style="stroke: #000000; stroke-width: 0.6"/>
      </g>
     </g>
    </g>
    <g id="xtick_11">
     <g id="line2d_21">
      <path d="M 180.765905 415.44 
L 180.765905 7.2 
" clip-path="url(#p7edab640cc)" style="fill: none; stroke-dasharray: 1.85,0.8; stroke-dashoffset: 0; stroke: #b0b0b0; stroke-width: 0.5"/>
     </g>
     <g id="line2d_22">
      <g>
       <use xlink:href="#mfd0fcdc71a" x="180.765905" y="415.44" style="stroke: #000000; stroke-width: 0.6"/>
      </g>
     </g>
    </g>
    <g id="xtick_12">
     <g id="line2d_23">
      <path d="M 214.210988 415.44 
L 214.210988 7.2 
" clip-path="url(#p7edab640cc)" style="fill: none; stroke-dasharray: 1.85,0.8; stroke-dashoffset: 0; stroke: #b0b0b0; stroke-width: 0.5"/>
     </g>
     <g id="line2d_24">
      <g>
       <use xlink:href="#mfd0fcdc71a" x="214.210988" y="415.44" style="stroke: #000000; stroke-width: 0.6"/>
      </g>
     </g>
    </g>
    <g id="xtick_13">
     <g id="line2d_25">
      <path d="M 230.93353 415.44 
L 230.93353 7.2 
" clip-path="url(#p7edab640cc)" style="fill: none; stroke-dasharray: 1.85,0.8; stroke-dashoffset: 0; stroke: #b0b0b0; stroke-width: 0.5"/>
     </g>
     <g id="line2d_26">
      <g>
       <use xlink:href="#mfd0fcdc71a" x="230.93353" y="415.44" style="stroke: #000000; stroke-width: 0.6"/>
      </g>
     </g>
    </g>
    <g id="xtick_14">
     <g id="line2d_27">
      <path d="M 247.656071 415.44 
L 247.656071 7.2 
" clip-path="url(#p7edab640cc)" style="fill: none; stroke-dasharray: 1.85,0.8; stroke-dashoffset: 0; stroke: #b0b0b0; stroke-width: 0.5"/>
     </g>
     <g id="line2d_28">
      <g>
       <use xlink:href="#mfd0fcdc71a" x="247.656071" y="415.44" style="stroke: #000000; stroke-width: 0.6"/>
      </g>
     </g>
    </g>
    <g id="xtick_15">
     <g id="line2d_29">
      <path d="M 264.378613 415.44 
L 264.378613 7.2 
" clip-path="url(#p7edab640cc)" style="fill: none; stroke-dasharray: 1.85,0.8; stroke-dashoffset: 0; stroke: #b0b0b0; stroke-width: 0.5"/>
     </g>
     <g id="line2d_30">
      <g>
       <use xlink:href="#mfd0fcdc71a" x="264.378613" y="415.44" style="stroke: #000000; stroke-width: 0.6"/>
      </g>
     </g>
    </g>
    <g id="xtick_16">
     <g id="line2d_31">
      <path d="M 297.823696 415.44 
L 297.823696 7.2 
" clip-path="url(#p7edab640cc)" style="fill: none; stroke-dasharray: 1.85,0.8; stroke-dashoffset: 0; stroke: #b0b0b0; stroke-width: 0.5"/>
     </g>
     <g id="line2d_32">
      <g>
       <use xlink:href="#mfd0fcdc71a" x="297.823696" y="415.44" style="stroke: #000000; stroke-width: 0.6"/>
      </g>
     </g>
    </g>
    <g id="xtick_17">
     <g id="line2d_33">
      <path d="M 314.546238 415.44 
L 314.546238 7.2 
" clip-path="url(#p7edab640cc)" style="fill: none; stroke-dasharray: 1.85,0.8; stroke-dashoffset: 0; stroke: #b0b0b0; stroke-width: 0.5"/>
     </g>
     <g id="line2d_34">
      <g>
       <use xlink:href="#mfd0fcdc71a" x="314.546238" y="415.44" style="stroke: #000000; stroke-width: 0.6"/>
      </g>
     </g>
    </g>
    <g id="xtick_18">
     <g id="line2d_35">
      <path d="M 331.26878 415.44 
L 331.26878 7.2 
" clip-path="url(#p7edab640cc)" style="fill: none; stroke-dasharray: 1.85,0.8; stroke-dashoffset: 0; stroke: #b0b0b0; stroke-width: 0.5"/>
     </g>
     <g id="line2d_36">
      <g>
       <use xlink:href="#mfd0fcdc71a" x="331.26878" y="415.44" style="stroke: #000000; stroke-width: 0.6"/>
      </g>
     </g>
    </g>
    <g id="xtick_19">
     <g id="line2d_37">
      <path d="M 347.991321 415.44 
L 347.991321 7.2 
" clip-path="url(#p7edab640cc)" style="fill: none; stroke-dasharray: 1.85,0.8; stroke-dashoffset: 0; stroke: #b0b0b0; stroke-width: 0.5"/>
     </g>
     <g id="line2d_38">
      <g>
       <use xlink:href="#mfd0fcdc71a" x="347.991321" y="415.44" style="stroke: #000000; stroke-width: 0.6"/>
      </g>
     </g>
    </g>
    <g id="xtick_20">
     <g id="line2d_39">
      <path d="M 381.436405 415.44 
L 381.436405 7.2 
" clip-path="url(#p7edab640cc)" style="fill: none; stroke-dasharray: 1.85,0.8; stroke-dashoffset: 0; stroke: #b0b0b0; stroke-width: 0.5"/>
     </g>
     <g id="line2d_40">
      <g>
       <use xlink:href="#mfd0fcdc71a" x="381.436405" y="415.44" style="stroke: #000000; stroke-width: 0.6"/>
      </g>
     </g>
    </g>
    <g id="xtick_21">
     <g id="line2d_41">
      <path d="M 398.158946 415.44 
L 398.158946 7.2 
" clip-path="url(#p7edab640cc)" style="fill: none; stroke-dasharray: 1.85,0.8; stroke-dashoffset: 0; stroke: #b0b0b0; stroke-width: 0.5"/>
     </g>
     <g id="line2d_42">
      <g>
       <use xlink:href="#mfd0fcdc71a" x="398.158946" y="415.44" style="stroke: #000000; stroke-width: 0.6"/>
      </g>
     </g>
    </g>
    <g id="xtick_22">
     <g id="line2d_43">
      <path d="M 414.881488 415.44 
L 414.881488 7.2 
" clip-path="url(#p7edab640cc)" style="fill: none; stroke-dasharray: 1.85,0.8; stroke-dashoffset: 0; stroke: #b0b0b0; stroke-width: 0.5"/>
     </g>
     <g id="line2d_44">
      <g>
       <use xlink:href="#mfd0fcdc71a" x="414.881488" y="415.44" style="stroke: #000000; stroke-width: 0.6"/>
      </g>
     </g>
    </g>
    <g id="xtick_23">
     <g id="line2d_45">
      <path d="M 431.60403 415.44 
L 431.60403 7.2 
" clip-path="url(#p7edab640cc)" style="fill: none; stroke-dasharray: 1.85,0.8; stroke-dashoffset: 0; stroke: #b0b0b0; stroke-width: 0.5"/>
     </g>
     <g id="line2d_46">
      <g>
       <use xlink:href="#mfd0fcdc71a" x="431.60403" y="415.44" style="stroke: #000000; stroke-width: 0.6"/>
      </g>
     </g>
    </g>
    <g id="xtick_24">
     <g id="line2d_47">
      <path d="M 465.049113 415.44 
L 465.049113 7.2 
" clip-path="url(#p7edab640cc)" style="fill: none; stroke-dasharray: 1.85,0.8; stroke-dashoffset: 0; stroke: #b0b0b0; stroke-width: 0.5"/>
     </g>
     <g id="line2d_48">
      <g>
       <use xlink:href="#mfd0fcdc71a" x="465.049113" y="415.44" style="stroke: #000000; stroke-width: 0.6"/>
      </g>
     </g>
    </g>
    <g id="xtick_25">
     <g id="line2d_49">
      <path d="M 481.771655 415.44 
L 481.771655 7.2 
" clip-path="url(#p7edab640cc)" style="fill: none; stroke-dasharray: 1.85,0.8; stroke-dashoffset: 0; stroke: #b0b0b0; stroke-width: 0.5"/>
     </g>
     <g id="line2d_50">
      <g>
       <use xlink:href="#mfd0fcdc71a" x="481.771655" y="415.44" style="stroke: #000000; stroke-width: 0.6"/>
      </g>
     </g>
    </g>
    <g id="xtick_26">
     <g id="line2d_51">
      <path d="M 498.494196 415.44 
L 498.494196 7.2 
" clip-path="url(#p7edab640cc)" style="fill: none; stroke-dasharray: 1.85,0.8; stroke-dashoffset: 0; stroke: #b0b0b0; stroke-width: 0.5"/>
     </g>
     <g id="line2d_52">
      <g>
       <use xlink:href="#mfd0fcdc71a" x="498.494196" y="415.44" style="stroke: #000000; stroke-width: 0.6"/>
      </g>
     </g>
    </g>
    <g id="xtick_27">
     <g id="line2d_53">
      <path d="M 515.216738 415.44 
L 515.216738 7.2 
" clip-path="url(#p7edab640cc)" style="fill: none; stroke-dasharray: 1.85,0.8; stroke-dashoffset: 0; stroke: #b0b0b0; stroke-width: 0.5"/>
     </g>
     <g id="line2d_54">
      <g>
       <use xlink:href="#mfd0fcdc71a" x="515.216738" y="415.44" style="stroke: #000000; stroke-width: 0.6"/>
      </g>
     </g>
    </g>
    <g id="xtick_28">
     <g id="line2d_55">
      <path d="M 548.661821 415.44 
L 548.661821 7.2 
" clip-path="url(#p7edab640cc)" style="fill: none; stroke-dasharray: 1.85,0.8; stroke-dashoffset: 0; stroke: #b0b0b0; stroke-width: 0.5"/>
     </g>
     <g id="line2d_56">
      <g>
       <use xlink:href="#mfd0fcdc71a" x="548.661821" y="415.44" style="stroke: #000000; stroke-width: 0.6"/>
      </g>
     </g>
    </g>
    <g id="xtick_29">
     <g id="line2d_57">
      <path d="M 565.384363 415.44 
L 565.384363 7.2 
" clip-path="url(#p7edab640cc)" style="fill: none; stroke-dasharray: 1.85,0.8; stroke-dashoffset: 0; stroke: #b0b0b0; stroke-width: 0.5"/>
     </g>
     <g id="line2d_58">
      <g>
       <use xlink:href="#mfd0fcdc71a" x="565.384363" y="415.44" style="stroke: #000000; stroke-width: 0.6"/>
      </g>
     </g>
    </g>
    <g id="xtick_30">
     <g id="line2d_59">
      <path d="M 582.106905 415.44 
L 582.106905 7.2 
" clip-path="url(#p7edab640cc)" style="fill: none; stroke-dasharray: 1.85,0.8; stroke-dashoffset: 0; stroke: #b0b0b0; stroke-width: 0.5"/>
     </g>
     <g id="line2d_60">
      <g>
       <use xlink:href="#mfd0fcdc71a" x="582.106905" y="415.44" style="stroke: #000000; stroke-width: 0.6"/>
      </g>
     </g>
    </g>
    <g id="text_7">
     <!-- Compute time / s -->
     <g transform="translate(237.3125 466.727969) scale(0.25 -0.25)">
      <defs>
       <path id="DejaVuSans-43" d="M 4122 4306 
L 4122 3641 
Q 3803 3938 3442 4084 
Q 3081 4231 2675 4231 
Q 1875 4231 1450 3742 
Q 1025 3253 1025 2328 
Q 1025 1406 1450 917 
Q 1875 428 2675 428 
Q 3081 428 3442 575 
Q 3803 722 4122 1019 
L 4122 359 
Q 3791 134 3420 21 
Q 3050 -91 2638 -91 
Q 1578 -91 968 557 
Q 359 1206 359 2328 
Q 359 3453 968 4101 
Q 1578 4750 2638 4750 
Q 3056 4750 3426 4639 
Q 3797 4528 4122 4306 
z
" transform="scale(0.015625)"/>
       <path id="DejaVuSans-6f" d="M 1959 3097 
Q 1497 3097 1228 2736 
Q 959 2375 959 1747 
Q 959 1119 1226 758 
Q 1494 397 1959 397 
Q 2419 397 2687 759 
Q 2956 1122 2956 1747 
Q 2956 2369 2687 2733 
Q 2419 3097 1959 3097 
z
M 1959 3584 
Q 2709 3584 3137 3096 
Q 3566 2609 3566 1747 
Q 3566 888 3137 398 
Q 2709 -91 1959 -91 
Q 1206 -91 779 398 
Q 353 888 353 1747 
Q 353 2609 779 3096 
Q 1206 3584 1959 3584 
z
" transform="scale(0.015625)"/>
       <path id="DejaVuSans-6d" d="M 3328 2828 
Q 3544 3216 3844 3400 
Q 4144 3584 4550 3584 
Q 5097 3584 5394 3201 
Q 5691 2819 5691 2113 
L 5691 0 
L 5113 0 
L 5113 2094 
Q 5113 2597 4934 2840 
Q 4756 3084 4391 3084 
Q 3944 3084 3684 2787 
Q 3425 2491 3425 1978 
L 3425 0 
L 2847 0 
L 2847 2094 
Q 2847 2600 2669 2842 
Q 2491 3084 2119 3084 
Q 1678 3084 1418 2786 
Q 1159 2488 1159 1978 
L 1159 0 
L 581 0 
L 581 3500 
L 1159 3500 
L 1159 2956 
Q 1356 3278 1631 3431 
Q 1906 3584 2284 3584 
Q 2666 3584 2933 3390 
Q 3200 3197 3328 2828 
z
" transform="scale(0.015625)"/>
       <path id="DejaVuSans-70" d="M 1159 525 
L 1159 -1331 
L 581 -1331 
L 581 3500 
L 1159 3500 
L 1159 2969 
Q 1341 3281 1617 3432 
Q 1894 3584 2278 3584 
Q 2916 3584 3314 3078 
Q 3713 2572 3713 1747 
Q 3713 922 3314 415 
Q 2916 -91 2278 -91 
Q 1894 -91 1617 61 
Q 1341 213 1159 525 
z
M 3116 1747 
Q 3116 2381 2855 2742 
Q 2594 3103 2138 3103 
Q 1681 3103 1420 2742 
Q 1159 2381 1159 1747 
Q 1159 1113 1420 752 
Q 1681 391 2138 391 
Q 2594 391 2855 752 
Q 3116 1113 3116 1747 
z
" transform="scale(0.015625)"/>
       <path id="DejaVuSans-75" d="M 544 1381 
L 544 3500 
L 1119 3500 
L 1119 1403 
Q 1119 906 1312 657 
Q 1506 409 1894 409 
Q 2359 409 2629 706 
Q 2900 1003 2900 1516 
L 2900 3500 
L 3475 3500 
L 3475 0 
L 2900 0 
L 2900 538 
Q 2691 219 2414 64 
Q 2138 -91 1772 -91 
Q 1169 -91 856 284 
Q 544 659 544 1381 
z
M 1991 3584 
L 1991 3584 
z
" transform="scale(0.015625)"/>
       <path id="DejaVuSans-74" d="M 1172 4494 
L 1172 3500 
L 2356 3500 
L 2356 3053 
L 1172 3053 
L 1172 1153 
Q 1172 725 1289 603 
Q 1406 481 1766 481 
L 2356 481 
L 2356 0 
L 1766 0 
Q 1100 0 847 248 
Q 594 497 594 1153 
L 594 3053 
L 172 3053 
L 172 3500 
L 594 3500 
L 594 4494 
L 1172 4494 
z
" transform="scale(0.015625)"/>
       <path id="DejaVuSans-65" d="M 3597 1894 
L 3597 1613 
L 953 1613 
Q 991 1019 1311 708 
Q 1631 397 2203 397 
Q 2534 397 2845 478 
Q 3156 559 3463 722 
L 3463 178 
Q 3153 47 2828 -22 
Q 2503 -91 2169 -91 
Q 1331 -91 842 396 
Q 353 884 353 1716 
Q 353 2575 817 3079 
Q 1281 3584 2069 3584 
Q 2775 3584 3186 3129 
Q 3597 2675 3597 1894 
z
M 3022 2063 
Q 3016 2534 2758 2815 
Q 2500 3097 2075 3097 
Q 1594 3097 1305 2825 
Q 1016 2553 972 2059 
L 3022 2063 
z
" transform="scale(0.015625)"/>
       <path id="DejaVuSans-20" transform="scale(0.015625)"/>
       <path id="DejaVuSans-69" d="M 603 3500 
L 1178 3500 
L 1178 0 
L 603 0 
L 603 3500 
z
M 603 4863 
L 1178 4863 
L 1178 4134 
L 603 4134 
L 603 4863 
z
" transform="scale(0.015625)"/>
       <path id="DejaVuSans-2f" d="M 1625 4666 
L 2156 4666 
L 531 -594 
L 0 -594 
L 1625 4666 
z
" transform="scale(0.015625)"/>
       <path id="DejaVuSans-73" d="M 2834 3397 
L 2834 2853 
Q 2591 2978 2328 3040 
Q 2066 3103 1784 3103 
Q 1356 3103 1142 2972 
Q 928 2841 928 2578 
Q 928 2378 1081 2264 
Q 1234 2150 1697 2047 
L 1894 2003 
Q 2506 1872 2764 1633 
Q 3022 1394 3022 966 
Q 3022 478 2636 193 
Q 2250 -91 1575 -91 
Q 1294 -91 989 -36 
Q 684 19 347 128 
L 347 722 
Q 666 556 975 473 
Q 1284 391 1588 391 
Q 1994 391 2212 530 
Q 2431 669 2431 922 
Q 2431 1156 2273 1281 
Q 2116 1406 1581 1522 
L 1381 1569 
Q 847 1681 609 1914 
Q 372 2147 372 2553 
Q 372 3047 722 3315 
Q 1072 3584 1716 3584 
Q 2034 3584 2315 3537 
Q 2597 3491 2834 3397 
z
" transform="scale(0.015625)"/>
      </defs>
      <use xlink:href="#DejaVuSans-43"/>
      <use xlink:href="#DejaVuSans-6f" x="69.824219"/>
      <use xlink:href="#DejaVuSans-6d" x="131.005859"/>
      <use xlink:href="#DejaVuSans-70" x="228.417969"/>
      <use xlink:href="#DejaVuSans-75" x="291.894531"/>
      <use xlink:href="#DejaVuSans-74" x="355.273438"/>
      <use xlink:href="#DejaVuSans-65" x="394.482422"/>
      <use xlink:href="#DejaVuSans-20" x="456.005859"/>
      <use xlink:href="#DejaVuSans-74" x="487.792969"/>
      <use xlink:href="#DejaVuSans-69" x="527.001953"/>
      <use xlink:href="#DejaVuSans-6d" x="554.785156"/>
      <use xlink:href="#DejaVuSans-65" x="652.197266"/>
      <use xlink:href="#DejaVuSans-20" x="713.720703"/>
      <use xlink:href="#DejaVuSans-2f" x="745.507812"/>
      <use xlink:href="#DejaVuSans-20" x="779.199219"/>
      <use xlink:href="#DejaVuSans-73" x="810.986328"/>
     </g>
    </g>
   </g>
   <g id="matplotlib.axis_2">
    <g id="ytick_1">
     <g id="line2d_61">
      <path d="M 94.095313 361.842276 
L 596.295313 361.842276 
" clip-path="url(#p7edab640cc)" style="fill: none; stroke-dasharray: 1.85,0.8; stroke-dashoffset: 0; stroke: #b0b0b0; stroke-width: 0.5"/>
     </g>
     <g id="line2d_62">
      <defs>
       <path id="m723c4fd034" d="M 0 0 
L -3.5 0 
" style="stroke: #000000; stroke-width: 0.8"/>
      </defs>
      <g>
       <use xlink:href="#m723c4fd034" x="94.095313" y="361.842276" style="stroke: #000000; stroke-width: 0.8"/>
      </g>
     </g>
     <g id="text_8">
      <!-- $\mathdefault{10^{-5}}$ -->
      <g transform="translate(35.395313 370.200557) scale(0.22 -0.22)">
       <defs>
        <path id="DejaVuSans-2212" d="M 678 2272 
L 4684 2272 
L 4684 1741 
L 678 1741 
L 678 2272 
z
" transform="scale(0.015625)"/>
       </defs>
       <use xlink:href="#DejaVuSans-31" transform="translate(0 0.684375)"/>
       <use xlink:href="#DejaVuSans-30" transform="translate(63.623047 0.684375)"/>
       <use xlink:href="#DejaVuSans-2212" transform="translate(128.203125 38.965625) scale(0.7)"/>
       <use xlink:href="#DejaVuSans-35" transform="translate(186.855469 38.965625) scale(0.7)"/>
      </g>
     </g>
    </g>
    <g id="ytick_2">
     <g id="line2d_63">
      <path d="M 94.095313 288.615822 
L 596.295313 288.615822 
" clip-path="url(#p7edab640cc)" style="fill: none; stroke-dasharray: 1.85,0.8; stroke-dashoffset: 0; stroke: #b0b0b0; stroke-width: 0.5"/>
     </g>
     <g id="line2d_64">
      <g>
       <use xlink:href="#m723c4fd034" x="94.095313" y="288.615822" style="stroke: #000000; stroke-width: 0.8"/>
      </g>
     </g>
     <g id="text_9">
      <!-- $\mathdefault{10^{-3}}$ -->
      <g transform="translate(35.395313 296.974103) scale(0.22 -0.22)">
       <defs>
        <path id="DejaVuSans-33" d="M 2597 2516 
Q 3050 2419 3304 2112 
Q 3559 1806 3559 1356 
Q 3559 666 3084 287 
Q 2609 -91 1734 -91 
Q 1441 -91 1130 -33 
Q 819 25 488 141 
L 488 750 
Q 750 597 1062 519 
Q 1375 441 1716 441 
Q 2309 441 2620 675 
Q 2931 909 2931 1356 
Q 2931 1769 2642 2001 
Q 2353 2234 1838 2234 
L 1294 2234 
L 1294 2753 
L 1863 2753 
Q 2328 2753 2575 2939 
Q 2822 3125 2822 3475 
Q 2822 3834 2567 4026 
Q 2313 4219 1838 4219 
Q 1578 4219 1281 4162 
Q 984 4106 628 3988 
L 628 4550 
Q 988 4650 1302 4700 
Q 1616 4750 1894 4750 
Q 2613 4750 3031 4423 
Q 3450 4097 3450 3541 
Q 3450 3153 3228 2886 
Q 3006 2619 2597 2516 
z
" transform="scale(0.015625)"/>
       </defs>
       <use xlink:href="#DejaVuSans-31" transform="translate(0 0.765625)"/>
       <use xlink:href="#DejaVuSans-30" transform="translate(63.623047 0.765625)"/>
       <use xlink:href="#DejaVuSans-2212" transform="translate(128.203125 39.046875) scale(0.7)"/>
       <use xlink:href="#DejaVuSans-33" transform="translate(186.855469 39.046875) scale(0.7)"/>
      </g>
     </g>
    </g>
    <g id="ytick_3">
     <g id="line2d_65">
      <path d="M 94.095313 215.389368 
L 596.295313 215.389368 
" clip-path="url(#p7edab640cc)" style="fill: none; stroke-dasharray: 1.85,0.8; stroke-dashoffset: 0; stroke: #b0b0b0; stroke-width: 0.5"/>
     </g>
     <g id="line2d_66">
      <g>
       <use xlink:href="#m723c4fd034" x="94.095313" y="215.389368" style="stroke: #000000; stroke-width: 0.8"/>
      </g>
     </g>
     <g id="text_10">
      <!-- $\mathdefault{10^{-1}}$ -->
      <g transform="translate(35.395313 223.747649) scale(0.22 -0.22)">
       <use xlink:href="#DejaVuSans-31" transform="translate(0 0.684375)"/>
       <use xlink:href="#DejaVuSans-30" transform="translate(63.623047 0.684375)"/>
       <use xlink:href="#DejaVuSans-2212" transform="translate(128.203125 38.965625) scale(0.7)"/>
       <use xlink:href="#DejaVuSans-31" transform="translate(186.855469 38.965625) scale(0.7)"/>
      </g>
     </g>
    </g>
    <g id="ytick_4">
     <g id="line2d_67">
      <path d="M 94.095313 142.162913 
L 596.295313 142.162913 
" clip-path="url(#p7edab640cc)" style="fill: none; stroke-dasharray: 1.85,0.8; stroke-dashoffset: 0; stroke: #b0b0b0; stroke-width: 0.5"/>
     </g>
     <g id="line2d_68">
      <g>
       <use xlink:href="#m723c4fd034" x="94.095313" y="142.162913" style="stroke: #000000; stroke-width: 0.8"/>
      </g>
     </g>
     <g id="text_11">
      <!-- $\mathdefault{10^{1}}$ -->
      <g transform="translate(48.375313 150.521195) scale(0.22 -0.22)">
       <use xlink:href="#DejaVuSans-31" transform="translate(0 0.684375)"/>
       <use xlink:href="#DejaVuSans-30" transform="translate(63.623047 0.684375)"/>
       <use xlink:href="#DejaVuSans-31" transform="translate(128.203125 38.965625) scale(0.7)"/>
      </g>
     </g>
    </g>
    <g id="ytick_5">
     <g id="line2d_69">
      <path d="M 94.095313 68.936459 
L 596.295313 68.936459 
" clip-path="url(#p7edab640cc)" style="fill: none; stroke-dasharray: 1.85,0.8; stroke-dashoffset: 0; stroke: #b0b0b0; stroke-width: 0.5"/>
     </g>
     <g id="line2d_70">
      <g>
       <use xlink:href="#m723c4fd034" x="94.095313" y="68.936459" style="stroke: #000000; stroke-width: 0.8"/>
      </g>
     </g>
     <g id="text_12">
      <!-- $\mathdefault{10^{3}}$ -->
      <g transform="translate(48.375313 77.29474) scale(0.22 -0.22)">
       <use xlink:href="#DejaVuSans-31" transform="translate(0 0.765625)"/>
       <use xlink:href="#DejaVuSans-30" transform="translate(63.623047 0.765625)"/>
       <use xlink:href="#DejaVuSans-33" transform="translate(128.203125 39.046875) scale(0.7)"/>
      </g>
     </g>
    </g>
    <g id="text_13">
     <!-- $L_2$ Norm -->
     <g transform="translate(26.196094 262.57) rotate(-90) scale(0.25 -0.25)">
      <defs>
       <path id="DejaVuSans-Oblique-4c" d="M 1075 4666 
L 1709 4666 
L 909 525 
L 3181 525 
L 3078 0 
L 172 0 
L 1075 4666 
z
" transform="scale(0.015625)"/>
       <path id="DejaVuSans-4e" d="M 628 4666 
L 1478 4666 
L 3547 763 
L 3547 4666 
L 4159 4666 
L 4159 0 
L 3309 0 
L 1241 3903 
L 1241 0 
L 628 0 
L 628 4666 
z
" transform="scale(0.015625)"/>
       <path id="DejaVuSans-72" d="M 2631 2963 
Q 2534 3019 2420 3045 
Q 2306 3072 2169 3072 
Q 1681 3072 1420 2755 
Q 1159 2438 1159 1844 
L 1159 0 
L 581 0 
L 581 3500 
L 1159 3500 
L 1159 2956 
Q 1341 3275 1631 3429 
Q 1922 3584 2338 3584 
Q 2397 3584 2469 3576 
Q 2541 3569 2628 3553 
L 2631 2963 
z
" transform="scale(0.015625)"/>
      </defs>
      <use xlink:href="#DejaVuSans-Oblique-4c" transform="translate(0 0.09375)"/>
      <use xlink:href="#DejaVuSans-32" transform="translate(55.712891 -16.3125) scale(0.7)"/>
      <use xlink:href="#DejaVuSans-20" transform="translate(102.983398 0.09375)"/>
      <use xlink:href="#DejaVuSans-4e" transform="translate(134.770508 0.09375)"/>
      <use xlink:href="#DejaVuSans-6f" transform="translate(209.575195 0.09375)"/>
      <use xlink:href="#DejaVuSans-72" transform="translate(270.756836 0.09375)"/>
      <use xlink:href="#DejaVuSans-6d" transform="translate(311.870117 0.09375)"/>
     </g>
    </g>
   </g>
   <g id="line2d_71">
    <path d="M 119.175112 122.572131 
L 119.904214 134.471012 
L 120.61325 137.978524 
L 121.323958 134.595012 
L 122.038011 135.694062 
L 122.755408 136.178991 
L 123.466116 136.092204 
L 124.173479 137.351698 
L 124.887532 139.607325 
L 125.623324 142.069538 
L 126.344065 144.363058 
L 127.064807 146.528315 
L 127.788893 148.643678 
L 128.494584 150.711378 
L 129.215326 152.745771 
L 129.916 154.810579 
L 130.638414 156.973676 
L 131.337416 159.264381 
L 132.053141 161.672417 
L 132.765521 164.167123 
L 133.467868 166.71421 
L 134.196971 169.284559 
L 134.892629 171.857556 
L 135.596648 174.421748 
L 136.335784 176.973973 
L 137.034786 179.517304 
L 137.730444 182.058265 
L 138.461219 184.604064 
L 139.18196 187.160485 
L 139.907719 189.730766 
L 140.670267 192.315429 
L 141.446193 194.912785 
L 142.775635 197.519804 
L 143.999725 200.133029 
L 144.697055 202.749324 
L 145.396057 205.366351 
L 146.093387 207.982751 
L 146.799078 210.598079 
L 147.513131 213.212576 
L 148.237217 215.82687 
L 148.952942 218.44169 
L 149.668666 221.057646 
L 150.429542 223.675107 
L 151.168678 226.294164 
L 151.90447 228.914672 
L 152.670363 231.536325 
L 153.407827 234.158757 
L 154.170375 236.781616 
L 154.907839 239.40463 
L 155.646975 242.027623 
L 156.439623 244.650525 
L 157.198827 247.27334 
L 157.963047 249.896127 
L 158.727267 252.518958 
L 159.489815 255.141902 
L 160.254035 257.765004 
L 161.096851 260.388278 
L 162.361075 263.011718 
L 163.125296 265.635292 
L 163.889516 268.258961 
L 164.652064 270.882688 
L 165.416284 273.506441 
L 166.180504 276.130198 
L 166.969808 278.753945 
L 167.760784 281.377684 
L 168.550088 284.001423 
L 169.339392 286.62516 
L 170.128696 289.248917 
L 170.918 291.87268 
L 171.712321 294.496461 
L 172.469852 297.120274 
L 173.259156 299.744082 
L 174.04846 302.367926 
L 174.866192 304.991758 
L 175.734092 307.615598 
L 177.076912 310.239454 
L 178.316052 312.863285 
L 179.025088 315.487112 
L 179.789308 318.110976 
L 180.578612 320.734867 
L 181.342832 323.358685 
L 182.103708 325.982465 
L 182.867928 328.606327 
L 183.633821 331.230137 
L 184.384663 333.854064 
L 185.148883 336.477895 
L 185.913103 339.101706 
L 186.675651 341.725568 
L 187.413115 344.349543 
L 188.150579 346.973329 
L 188.913127 349.597161 
L 189.704103 352.221034 
L 190.51013 354.845006 
L 191.255955 357.468702 
L 192.072015 360.092833 
L 192.968343 362.716548 
L 193.81116 365.340389 
L 194.675715 367.963571 
L 195.465019 370.588395 
L 196.257667 373.212187 
L 197.036938 375.835755 
L 197.80283 378.458509 
L 198.573739 381.083275 
L 199.341304 383.707638 
L 200.110541 386.331657 
L 200.883122 388.954964 
L 201.635637 391.57831 
L 202.424941 394.200056 
L 203.266085 396.826577 
" clip-path="url(#p7edab640cc)" style="fill: none; stroke-dasharray: 7.4,3.2; stroke-dashoffset: 0; stroke: #ff7f0e; stroke-width: 2"/>
   </g>
   <g id="line2d_72">
    <path d="M 116.922585 25.75838 
L 117.486135 27.066876 
L 118.012895 34.913097 
L 118.549689 45.975691 
L 119.049693 52.011937 
L 119.524613 56.624617 
L 119.989499 63.094606 
L 120.434319 69.037987 
L 120.857399 74.781381 
L 121.277135 83.315418 
L 121.701888 90.34428 
L 122.09654 94.058405 
L 122.491192 101.148806 
L 122.914272 111.011756 
L 123.33568 115.418747 
L 123.782172 117.137323 
L 124.467796 122.067253 
L 125.111614 127.880855 
L 125.603257 132.883932 
L 126.078177 136.677823 
L 126.53303 139.78424 
L 127.108285 142.647346 
L 127.63839 145.14217 
L 128.116655 147.570551 
L 128.584886 150.272879 
L 129.046428 153.267121 
L 129.512987 156.41916 
L 130.00463 159.581583 
L 130.44276 162.668777 
L 130.867513 165.670198 
L 131.322366 168.610058 
L 131.775547 171.507396 
L 132.206988 174.368773 
L 132.636758 177.19853 
L 133.049804 180.005896 
L 133.497969 182.804035 
L 133.946133 185.605127 
L 134.367541 188.416236 
L 134.815705 191.23833 
L 135.237113 194.068092 
L 135.658521 196.900779 
L 136.106685 199.7324 
L 136.528093 202.560626 
L 136.974585 205.384692 
L 137.397665 208.204872 
L 137.844157 211.021978 
L 138.265565 213.837015 
L 138.686973 216.650958 
L 139.135137 219.464609 
L 139.556545 222.278499 
L 140.003037 225.092843 
L 140.451201 227.907631 
L 140.899365 230.722681 
L 141.345857 233.537746 
L 141.767265 236.352652 
L 142.215429 239.167252 
L 142.663594 241.981522 
L 143.111758 244.795511 
L 143.551561 247.609235 
L 143.986347 250.422804 
L 144.427822 253.236325 
L 144.860936 256.049783 
L 145.304083 258.863199 
L 145.737197 261.676744 
L 146.171983 264.490158 
L 146.595063 267.303648 
L 147.12684 270.11705 
L 147.598416 272.930498 
L 148.073336 275.743836 
L 148.57334 278.557071 
L 149.04826 281.370631 
L 149.499769 284.184058 
L 149.964655 286.997127 
L 150.407803 289.8103 
L 150.847606 292.623854 
L 151.299114 295.437162 
L 151.720522 298.250522 
L 152.167014 301.06371 
L 152.590094 303.876503 
L 153.038258 306.690447 
L 153.514851 309.503616 
L 153.964687 312.317197 
L 154.464691 315.128843 
L 154.939611 317.943959 
L 155.424565 320.756969 
L 155.862696 323.570398 
L 156.31086 326.380425 
L 156.762368 329.19569 
L 157.207188 332.011713 
L 157.655352 334.824057 
L 158.103516 337.628411 
L 158.576764 340.459726 
L 159.031617 343.258047 
L 159.488143 346.068224 
L 159.932962 348.887008 
L 160.386143 351.703877 
L 160.839324 354.514123 
L 161.292505 357.333509 
L 161.755719 360.15006 
L 162.205556 362.963285 
L 162.658737 365.768523 
L 163.108573 368.58662 
L 163.583493 371.400954 
L 164.053397 374.212327 
L 164.501561 377.014401 
L 164.949725 379.846279 
L 165.424645 382.641091 
L 165.872809 385.466603 
L 166.347729 388.267958 
L 166.874489 391.098759 
L 167.926337 393.87633 
L 168.904606 396.733243 
" clip-path="url(#p7edab640cc)" style="fill: none; stroke: #ff7f0e; stroke-width: 2; stroke-linecap: square"/>
   </g>
   <g id="line2d_73">
    <path d="M 130.405971 122.572784 
L 133.842453 134.465471 
L 136.300667 137.982299 
L 139.275607 134.597584 
L 141.631813 135.695696 
L 144.061598 136.180369 
L 146.972993 136.092845 
L 149.87937 137.352034 
L 152.310828 139.607593 
L 154.752319 142.069718 
L 157.335952 144.363097 
L 159.795838 146.528261 
L 162.411243 148.64359 
L 165.929666 150.711258 
L 168.282527 152.745584 
L 170.610305 154.810295 
L 173.61869 156.973289 
L 175.867872 159.263905 
L 178.192306 161.671875 
L 180.996676 164.166538 
L 183.215757 166.713606 
L 185.384671 169.28396 
L 188.187369 171.856977 
L 190.322837 174.421198 
L 193.120519 176.973456 
L 195.259332 179.516818 
L 197.481757 182.057804 
L 199.727595 184.603622 
L 201.968415 187.160057 
L 204.869776 189.730349 
L 207.070463 192.315021 
L 209.995235 194.912388 
L 212.301274 197.519422 
L 215.1023 200.132666 
L 217.321381 202.748983 
L 219.537118 205.366036 
L 221.781283 207.982463 
L 224.102372 210.597819 
L 226.900053 213.212345 
L 229.117462 215.826666 
L 231.968655 218.441511 
L 234.162653 221.057491 
L 236.537254 223.674975 
L 239.418547 226.294057 
L 241.602511 228.914587 
L 243.920256 231.536263 
L 246.741348 234.158719 
L 249.032337 236.781603 
L 251.403593 239.404642 
L 253.855118 242.027661 
L 256.350121 244.650588 
L 259.33175 247.27343 
L 261.733107 249.896241 
L 264.830122 252.519098 
L 267.351881 255.142067 
L 269.855246 257.765193 
L 272.771657 260.388494 
L 275.161308 263.011958 
L 278.151298 265.635556 
L 280.428909 268.259251 
L 282.800165 270.883004 
L 285.716576 273.506781 
L 287.980808 276.130563 
L 290.378821 278.754337 
L 293.22667 281.378101 
L 295.54107 284.001862 
L 297.910654 286.625625 
L 300.806998 289.249409 
L 303.021062 291.873189 
L 305.288639 294.497012 
L 308.139832 297.120839 
L 310.340519 299.74468 
L 312.636524 302.368535 
L 315.491062 304.992412 
L 317.658303 307.616269 
L 320.434245 310.240146 
L 322.583092 312.864018 
L 324.805517 315.487866 
L 327.655039 318.111753 
L 329.879137 320.735616 
L 332.646717 323.359455 
L 334.810614 325.983307 
L 337.633379 328.607141 
L 339.829049 331.231144 
L 342.079903 333.854992 
L 344.324068 336.478888 
L 347.126766 339.102808 
L 349.877624 341.726523 
L 352.128478 344.350481 
L 354.404416 346.974203 
L 356.75895 349.598287 
L 359.578371 352.22228 
L 362.426219 354.845773 
L 364.636939 357.469645 
L 367.45636 360.093834 
L 369.640324 362.717707 
L 372.431316 365.342239 
L 374.642036 367.965194 
L 377.449751 370.589462 
L 379.695588 373.212343 
L 382.799292 375.837285 
L 385.19396 378.461158 
L 388.247496 381.085273 
L 390.511728 383.708397 
L 393.755901 386.332867 
L 396.07699 388.957303 
L 399.050258 391.580548 
L 401.413153 394.202504 
L 404.463345 396.828618 
" clip-path="url(#p7edab640cc)" style="fill: none; stroke-dasharray: 7.4,3.2; stroke-dashoffset: 0; stroke: #d62728; stroke-width: 2"/>
   </g>
   <g id="line2d_74">
    <path d="M 119.009558 25.756446 
L 120.364084 27.066003 
L 121.628308 34.911999 
L 122.97949 45.973823 
L 124.208597 52.014344 
L 125.414292 56.628014 
L 126.568147 63.096304 
L 127.67518 69.042018 
L 128.787229 74.786152 
L 129.862488 83.317971 
L 130.889252 90.352478 
L 131.916016 94.068865 
L 132.967864 101.153788 
L 133.994628 111.014274 
L 135.048148 115.435889 
L 136.099996 117.148464 
L 137.155188 122.073045 
L 138.208709 127.884943 
L 139.263901 132.886709 
L 140.319093 136.680683 
L 141.375958 139.78727 
L 142.429478 142.650686 
L 143.457914 145.146515 
L 144.486351 147.574956 
L 145.518131 150.276518 
L 146.551585 153.269921 
L 147.57166 156.421454 
L 148.591735 159.583763 
L 149.621843 162.671049 
L 150.655296 165.672524 
L 151.68206 168.612305 
L 152.656985 171.509487 
L 153.633581 174.370719 
L 154.636933 177.200379 
L 155.611858 180.007684 
L 156.610193 182.80577 
L 157.593479 185.6068 
L 158.568403 188.41784 
L 159.570083 191.239867 
L 160.54668 194.069582 
L 161.524948 196.902242 
L 162.499873 199.733852 
L 163.503225 202.562078 
L 164.478149 205.38615 
L 165.454746 208.206337 
L 166.456426 211.023452 
L 167.43135 213.838499 
L 168.406274 216.652456 
L 169.382871 219.466121 
L 170.384551 222.280019 
L 171.361147 225.09438 
L 172.337744 227.909179 
L 173.341096 230.72425 
L 174.317693 233.539345 
L 175.294289 236.354261 
L 176.295969 239.16889 
L 177.270894 241.983192 
L 178.245818 244.797179 
L 179.222414 247.610941 
L 180.225767 250.424544 
L 181.205708 253.238048 
L 182.183976 256.051534 
L 183.359571 258.865027 
L 184.357907 261.678524 
L 185.361259 264.492037 
L 186.3412 267.305521 
L 187.34288 270.118977 
L 188.371317 272.932397 
L 189.372997 275.745825 
L 190.373005 278.559118 
L 191.347929 281.372597 
L 192.349609 284.186031 
L 193.378046 286.999294 
L 194.379726 289.812487 
L 195.381406 292.625741 
L 196.428237 295.439146 
L 197.449985 298.252378 
L 198.480093 301.065519 
L 199.510202 303.879247 
L 200.567066 306.692935 
L 201.622259 309.505522 
L 202.679123 312.318795 
L 203.735988 315.132766 
L 204.767769 317.945703 
L 205.821289 320.75874 
L 206.879826 323.571874 
L 207.935018 326.383675 
L 209.018639 329.197453 
L 210.10226 332.014792 
L 211.135713 334.826875 
L 212.189233 337.64033 
L 213.271181 340.452712 
L 214.328046 343.263708 
L 215.386583 346.077921 
L 216.465187 348.895024 
L 217.548807 351.703566 
L 218.630756 354.518178 
L 219.70936 357.324371 
L 220.791308 360.144653 
L 221.871584 362.947769 
L 222.976944 365.758848 
L 224.058893 368.593632 
L 225.139169 371.389897 
L 226.249546 374.245141 
L 227.361595 377.049496 
L 228.438527 379.833669 
L 229.547231 382.611911 
L 230.624163 385.425977 
L 231.729523 388.26448 
L 232.811471 391.112827 
L 233.89342 393.932943 
L 234.978713 396.747348 
" clip-path="url(#p7edab640cc)" style="fill: none; stroke: #d62728; stroke-width: 2; stroke-linecap: square"/>
   </g>
   <g id="line2d_75">
    <path d="M 123.693542 122.57214 
L 125.041379 134.471036 
L 126.257108 137.97849 
L 127.655112 134.594998 
L 129.058134 135.694063 
L 130.330719 136.178998 
L 131.568187 136.092211 
L 132.889268 137.351706 
L 134.130081 139.607334 
L 135.395977 142.069548 
L 136.661873 144.363068 
L 137.902686 146.528324 
L 139.120087 148.643688 
L 140.411067 150.711388 
L 141.65188 152.745782 
L 142.89102 154.81059 
L 144.185345 156.973687 
L 145.417796 159.264392 
L 146.687037 161.672429 
L 147.904438 164.167135 
L 149.146923 166.714221 
L 150.44292 169.284571 
L 151.688749 171.857568 
L 152.907823 174.42176 
L 154.20382 176.973985 
L 155.421221 179.517316 
L 156.663705 182.058277 
L 157.973081 184.604076 
L 159.228943 187.160497 
L 160.443 189.730778 
L 161.737325 192.315441 
L 162.979809 194.912796 
L 164.223967 197.519816 
L 165.521636 200.133041 
L 166.765793 202.749336 
L 168.036706 205.366363 
L 169.282535 207.982762 
L 170.528365 210.59809 
L 171.831051 213.212588 
L 173.058485 215.826882 
L 174.294281 218.441702 
L 175.590278 221.057657 
L 176.836108 223.675119 
L 178.063542 226.294176 
L 179.361211 228.914683 
L 180.632124 231.536337 
L 181.898021 234.158768 
L 183.274286 236.781628 
L 184.570283 239.404641 
L 185.891364 242.027635 
L 187.158932 244.650536 
L 188.453257 247.273352 
L 189.861295 249.896138 
L 191.157292 252.518969 
L 192.475028 255.141914 
L 193.852966 257.765015 
L 195.162341 260.388291 
L 196.51185 263.01173 
L 197.909855 265.635304 
L 199.244313 268.258972 
L 200.582117 270.8827 
L 201.983466 273.506453 
L 203.341336 276.13021 
L 204.684156 278.753953 
L 206.110589 281.377702 
L 207.453409 284.001449 
L 208.874825 286.625153 
L 210.217645 289.248919 
L 211.562138 291.872689 
L 212.985226 294.496484 
L 214.329718 297.120285 
L 215.649127 299.744088 
L 217.100643 302.367921 
L 218.443463 304.99179 
L 219.819729 307.615617 
L 221.316396 310.239468 
L 223.29969 312.863314 
L 225.109069 315.487114 
L 226.378309 318.110962 
L 227.640861 320.734823 
L 229.028832 323.358847 
L 230.371652 325.982267 
L 231.687716 328.606402 
L 233.032209 331.230201 
L 234.401785 333.854053 
L 235.666009 336.478003 
L 236.930233 339.10181 
L 238.273053 341.725667 
L 239.589117 344.349311 
L 240.826585 346.973533 
L 242.062381 349.597266 
L 243.406874 352.220803 
L 244.694509 354.844966 
L 245.957061 357.468299 
L 247.226302 360.09239 
L 248.435342 362.716264 
L 249.697894 365.340052 
L 250.935362 367.964943 
L 252.199586 370.588436 
L 253.51565 373.212482 
L 254.779874 375.836223 
L 255.992258 378.460177 
L 257.251466 381.089099 
L 258.529068 383.698006 
L 259.749814 386.333178 
L 261.009021 388.951914 
L 262.318396 391.578625 
L 263.595998 394.205454 
L 264.846844 396.821677 
" clip-path="url(#p7edab640cc)" style="fill: none; stroke-dasharray: 7.4,3.2; stroke-dashoffset: 0; stroke: #17becf; stroke-width: 2"/>
   </g>
   <g id="line2d_76">
    <path d="M 118.270422 25.758242 
L 119.076449 27.066883 
L 119.854047 34.913113 
L 120.611578 45.975694 
L 121.349042 52.011936 
L 122.038011 56.624617 
L 122.725307 63.0946 
L 123.374142 69.037984 
L 124.007926 74.781379 
L 124.628332 83.315411 
L 125.237033 90.344272 
L 125.837372 94.0584 
L 126.436039 101.148805 
L 127.043067 111.011756 
L 127.643407 115.418749 
L 128.312308 117.137323 
L 128.892581 122.067256 
L 129.563154 127.880863 
L 130.156805 132.883943 
L 130.834068 136.677833 
L 131.449457 139.78425 
L 132.145115 142.647356 
L 132.763849 145.142179 
L 133.461179 147.57056 
L 134.066535 150.272889 
L 134.777243 153.267131 
L 135.407683 156.41917 
L 136.145147 159.581594 
L 136.857527 162.668788 
L 137.543151 165.670209 
L 138.200347 168.610068 
L 138.859215 171.507406 
L 139.543167 174.368782 
L 140.228792 177.19854 
L 140.885987 180.005906 
L 141.569939 182.804044 
L 142.28232 185.605136 
L 142.912759 188.416246 
L 143.623468 191.238338 
L 144.25558 194.068101 
L 144.966288 196.900789 
L 145.596727 199.732409 
L 146.31078 202.560635 
L 146.964631 205.384698 
L 147.675339 208.204883 
L 148.359291 211.021989 
L 149.069999 213.837023 
L 149.752279 216.650968 
L 150.464659 219.464619 
L 151.121855 222.278505 
L 151.830891 225.092853 
L 152.5717 227.907639 
L 153.225551 230.722687 
L 153.963015 233.537756 
L 154.620211 236.352659 
L 155.384431 239.167264 
L 156.041627 241.981538 
L 156.779091 244.795509 
L 157.439631 247.609245 
L 158.172079 250.422824 
L 158.856031 253.236319 
L 159.565066 256.049775 
L 160.250691 258.863234 
L 160.959726 261.676704 
L 161.697191 264.490164 
L 162.381142 267.303642 
L 163.091851 270.117076 
L 163.749046 272.930492 
L 164.48651 275.743905 
L 165.143706 278.557245 
L 165.88117 281.370566 
L 166.565122 284.183931 
L 167.27583 286.997173 
L 167.959782 289.810487 
L 168.67049 292.623791 
L 169.382871 295.437039 
L 170.066823 298.250344 
L 170.777531 301.06363 
L 171.436399 303.87694 
L 172.147107 306.69018 
L 172.805975 309.503574 
L 173.516683 312.316714 
L 174.202307 315.130097 
L 174.886259 317.943136 
L 175.625395 320.756435 
L 176.282591 323.569794 
L 176.994972 326.383172 
L 177.652168 329.196264 
L 178.389632 332.00971 
L 179.0485 334.822765 
L 179.785964 337.636156 
L 180.45821 340.449339 
L 181.17059 343.262385 
L 181.893004 346.076038 
L 182.575284 348.888886 
L 183.29937 351.702809 
L 183.969944 354.515495 
L 184.687341 357.32902 
L 185.346209 360.142113 
L 186.055245 362.955519 
L 186.724146 365.769928 
L 187.485022 368.581985 
L 188.222486 371.395759 
L 188.879682 374.208552 
L 189.59039 377.021356 
L 190.249258 379.841439 
L 190.93321 382.641221 
L 191.590406 385.468425 
L 192.27603 388.276697 
L 192.959982 391.083328 
L 193.592094 393.919631 
L 194.250962 396.734921 
" clip-path="url(#p7edab640cc)" style="fill: none; stroke: #17becf; stroke-width: 2; stroke-linecap: square"/>
   </g>
   <g id="line2d_77">
    <path d="M 140.414412 122.572791 
L 144.10006 134.465495 
L 148.412803 137.982265 
L 152.03825 134.59757 
L 155.76905 135.695697 
L 159.53831 136.180376 
L 163.461419 136.092852 
L 168.389552 137.352041 
L 172.1053 139.607602 
L 176.397977 142.069728 
L 180.140482 144.363108 
L 184.409747 146.528271 
L 187.996732 148.643601 
L 191.948268 150.711269 
L 195.904822 152.745595 
L 200.055357 154.810306 
L 204.866432 156.973301 
L 208.734356 159.263916 
L 213.267837 161.671886 
L 217.27623 164.16655 
L 221.309707 166.713618 
L 225.324789 169.283972 
L 229.482013 171.856989 
L 234.04225 174.42121 
L 237.861679 176.973469 
L 242.132616 179.516831 
L 245.743013 182.057817 
L 250.090874 184.603634 
L 253.728026 187.160069 
L 257.351801 189.730361 
L 261.694645 192.315033 
L 265.28163 194.9124 
L 268.888683 197.519434 
L 273.21146 200.132678 
L 276.714832 202.748996 
L 280.34864 205.366048 
L 284.646334 207.982475 
L 288.124622 210.597832 
L 291.760103 213.212357 
L 296.026023 215.826678 
L 299.954148 218.441523 
L 303.934113 221.057503 
L 308.519434 223.674988 
L 312.501071 226.294068 
L 316.54291 228.914599 
L 321.139936 231.536276 
L 325.113212 234.158731 
L 329.588164 236.781616 
L 333.53134 239.404654 
L 337.90094 242.027674 
L 341.661839 244.650601 
L 345.317387 247.273441 
L 349.626786 249.896254 
L 353.193704 252.519109 
L 357.347584 255.14208 
L 361.056643 257.765204 
L 365.272396 260.388509 
L 368.872759 263.011969 
L 373.106907 265.635571 
L 376.800916 268.259263 
L 380.996602 270.883035 
L 384.583587 273.506768 
L 388.821079 276.130585 
L 392.302712 278.754378 
L 396.140536 281.37808 
L 400.438229 284.001892 
L 404.153978 286.625685 
L 408.423243 289.24934 
L 411.955043 291.873223 
L 415.933336 294.497096 
L 420.480195 297.120748 
L 424.34143 299.744719 
L 428.483604 302.368677 
L 433.037152 304.992223 
L 437.053906 307.616318 
L 441.10745 310.240351 
L 445.579058 312.863694 
L 449.446982 315.487991 
L 453.405207 318.112062 
L 457.801564 320.735081 
L 461.524001 323.359617 
L 465.296607 325.983857 
L 469.509015 328.606418 
L 473.157874 331.231306 
L 476.781648 333.855814 
L 480.907099 336.477538 
L 484.510807 339.103061 
L 488.181405 341.727898 
L 492.438964 344.348145 
L 496.049361 346.97497 
L 500.263441 349.600108 
L 503.918989 352.21784 
L 507.730056 354.846651 
L 511.638114 357.468137 
L 515.987647 360.093086 
L 519.736841 362.716282 
L 523.952594 365.345442 
L 527.562991 367.951627 
L 531.280412 370.591338 
L 535.670079 373.217237 
L 539.725295 375.834419 
L 544.203592 378.439527 
L 547.944424 381.088551 
L 552.502989 383.670844 
L 556.454526 386.328742 
L 560.491347 388.849202 
L 565.10008 391.578591 
L 569.018171 394.14015 
L 573.46804 396.596392 
" clip-path="url(#p7edab640cc)" style="fill: none; stroke-dasharray: 7.4,3.2; stroke-dashoffset: 0; stroke: #7f7f7f; stroke-width: 2"/>
   </g>
   <g id="line2d_78">
    <path d="M 121.735333 25.756364 
L 123.680164 27.066 
L 125.548072 34.911997 
L 127.420997 45.973819 
L 129.181881 52.014336 
L 130.86584 56.628008 
L 132.578229 63.096298 
L 134.128408 69.042014 
L 135.636782 74.786149 
L 137.101676 83.317968 
L 138.551521 90.352477 
L 139.949525 94.068865 
L 141.372613 101.153788 
L 142.82413 111.014271 
L 144.273974 115.435886 
L 145.758936 117.148464 
L 147.24557 122.073048 
L 148.842573 127.884951 
L 150.332551 132.886719 
L 151.827546 136.680692 
L 153.332575 139.78728 
L 154.949645 142.650698 
L 156.441296 145.146528 
L 157.976425 147.574969 
L 159.454698 150.276532 
L 160.953037 153.269936 
L 162.434655 156.42147 
L 163.941356 159.58378 
L 165.421301 162.671065 
L 166.954758 165.67254 
L 168.488215 168.612321 
L 170.0501 171.509503 
L 171.611985 174.370734 
L 173.168854 177.200394 
L 174.755823 180.007699 
L 176.342793 182.805785 
L 177.954846 185.606814 
L 179.563554 188.417855 
L 181.172263 191.239882 
L 182.782643 194.069597 
L 184.408074 196.902257 
L 186.025144 199.733867 
L 187.660609 202.562093 
L 189.326174 205.386165 
L 190.981706 208.206353 
L 192.642254 211.023468 
L 194.277718 213.838515 
L 195.938267 216.652469 
L 197.60216 219.46613 
L 199.261036 222.28003 
L 200.893156 225.094394 
L 202.553704 227.909195 
L 204.187497 230.724268 
L 205.848045 233.53936 
L 207.455081 236.354279 
L 209.06379 239.168904 
L 210.645742 241.983193 
L 212.408298 244.797185 
L 213.991923 247.61096 
L 215.548791 250.424571 
L 217.073887 253.238077 
L 218.607344 256.051575 
L 220.13244 258.865028 
L 221.659208 261.678536 
L 223.162565 264.492042 
L 224.640837 267.305504 
L 226.142522 270.118954 
L 227.620794 272.932367 
L 229.099067 275.745805 
L 230.57734 278.559315 
L 232.079024 281.372469 
L 233.555624 284.185897 
L 235.032225 286.999427 
L 236.538926 289.812343 
L 238.013854 292.62589 
L 239.497143 295.439605 
L 240.967055 298.25262 
L 242.470411 301.066015 
L 243.947012 303.879303 
L 245.45204 306.692611 
L 246.926969 309.505795 
L 248.430325 312.318486 
L 249.906926 315.131116 
L 251.385198 317.94536 
L 252.888555 320.760405 
L 254.365155 323.57185 
L 255.870184 326.383791 
L 257.346784 329.198159 
L 258.825057 332.015526 
L 260.298313 334.824895 
L 261.801669 337.638021 
L 263.331782 340.454494 
L 264.890323 343.267481 
L 266.443847 346.079479 
L 267.97396 348.892107 
L 269.55424 351.704824 
L 271.109436 354.511747 
L 272.851925 357.334291 
L 274.457289 360.148385 
L 276.198106 362.957225 
L 277.806814 365.754746 
L 279.388767 368.585044 
L 280.972391 371.418943 
L 282.577755 374.215737 
L 284.184791 377.01601 
L 285.831962 379.848059 
L 287.452376 382.66149 
L 289.112925 385.46481 
L 290.746717 388.245944 
L 292.382181 390.930997 
L 294.041058 393.85084 
L 295.706623 396.883636 
" clip-path="url(#p7edab640cc)" style="fill: none; stroke: #7f7f7f; stroke-width: 2; stroke-linecap: square"/>
   </g>
   <g id="patch_3">
    <path d="M 94.095313 415.44 
L 94.095313 7.2 
" style="fill: none; stroke: #000000; stroke-width: 0.8; stroke-linejoin: miter; stroke-linecap: square"/>
   </g>
   <g id="patch_4">
    <path d="M 596.295313 415.44 
L 596.295313 7.2 
" style="fill: none; stroke: #000000; stroke-width: 0.8; stroke-linejoin: miter; stroke-linecap: square"/>
   </g>
   <g id="patch_5">
    <path d="M 94.095313 415.44 
L 596.295313 415.44 
" style="fill: none; stroke: #000000; stroke-width: 0.8; stroke-linejoin: miter; stroke-linecap: square"/>
   </g>
   <g id="patch_6">
    <path d="M 94.095313 7.2 
L 596.295313 7.2 
" style="fill: none; stroke: #000000; stroke-width: 0.8; stroke-linejoin: miter; stroke-linecap: square"/>
   </g>
   <g id="legend_1">
    <g id="patch_7">
     <path d="M 36.395312 630.276 
L 653.995312 630.276 
Q 657.995312 630.276 657.995312 626.276 
L 657.995312 490.676 
Q 657.995312 486.676 653.995312 486.676 
L 36.395312 486.676 
Q 32.395312 486.676 32.395312 490.676 
L 32.395312 626.276 
Q 32.395312 630.276 36.395312 630.276 
z
" style="fill: #ffffff; stroke: #cccccc; stroke-linejoin: miter"/>
    </g>
    <g id="line2d_79">
     <path d="M 40.395312 506.276 
L 60.395312 506.276 
L 80.395312 506.276 
" style="fill: none; stroke-dasharray: 7.4,3.2; stroke-dashoffset: 0; stroke: #ff7f0e; stroke-width: 2"/>
    </g>
    <g id="text_14">
     <!-- DG-Julia, $N_e^b$ = 2, $N_d^p$=4 -->
     <g transform="translate(96.395312 513.276) scale(0.2 -0.2)">
      <defs>
       <path id="DejaVuSans-44" d="M 1259 4147 
L 1259 519 
L 2022 519 
Q 2988 519 3436 956 
Q 3884 1394 3884 2338 
Q 3884 3275 3436 3711 
Q 2988 4147 2022 4147 
L 1259 4147 
z
M 628 4666 
L 1925 4666 
Q 3281 4666 3915 4102 
Q 4550 3538 4550 2338 
Q 4550 1131 3912 565 
Q 3275 0 1925 0 
L 628 0 
L 628 4666 
z
" transform="scale(0.015625)"/>
       <path id="DejaVuSans-47" d="M 3809 666 
L 3809 1919 
L 2778 1919 
L 2778 2438 
L 4434 2438 
L 4434 434 
Q 4069 175 3628 42 
Q 3188 -91 2688 -91 
Q 1594 -91 976 548 
Q 359 1188 359 2328 
Q 359 3472 976 4111 
Q 1594 4750 2688 4750 
Q 3144 4750 3555 4637 
Q 3966 4525 4313 4306 
L 4313 3634 
Q 3963 3931 3569 4081 
Q 3175 4231 2741 4231 
Q 1884 4231 1454 3753 
Q 1025 3275 1025 2328 
Q 1025 1384 1454 906 
Q 1884 428 2741 428 
Q 3075 428 3337 486 
Q 3600 544 3809 666 
z
" transform="scale(0.015625)"/>
       <path id="DejaVuSans-2d" d="M 313 2009 
L 1997 2009 
L 1997 1497 
L 313 1497 
L 313 2009 
z
" transform="scale(0.015625)"/>
       <path id="DejaVuSans-4a" d="M 628 4666 
L 1259 4666 
L 1259 325 
Q 1259 -519 939 -900 
Q 619 -1281 -91 -1281 
L -331 -1281 
L -331 -750 
L -134 -750 
Q 284 -750 456 -515 
Q 628 -281 628 325 
L 628 4666 
z
" transform="scale(0.015625)"/>
       <path id="DejaVuSans-6c" d="M 603 4863 
L 1178 4863 
L 1178 0 
L 603 0 
L 603 4863 
z
" transform="scale(0.015625)"/>
       <path id="DejaVuSans-61" d="M 2194 1759 
Q 1497 1759 1228 1600 
Q 959 1441 959 1056 
Q 959 750 1161 570 
Q 1363 391 1709 391 
Q 2188 391 2477 730 
Q 2766 1069 2766 1631 
L 2766 1759 
L 2194 1759 
z
M 3341 1997 
L 3341 0 
L 2766 0 
L 2766 531 
Q 2569 213 2275 61 
Q 1981 -91 1556 -91 
Q 1019 -91 701 211 
Q 384 513 384 1019 
Q 384 1609 779 1909 
Q 1175 2209 1959 2209 
L 2766 2209 
L 2766 2266 
Q 2766 2663 2505 2880 
Q 2244 3097 1772 3097 
Q 1472 3097 1187 3025 
Q 903 2953 641 2809 
L 641 3341 
Q 956 3463 1253 3523 
Q 1550 3584 1831 3584 
Q 2591 3584 2966 3190 
Q 3341 2797 3341 1997 
z
" transform="scale(0.015625)"/>
       <path id="DejaVuSans-2c" d="M 750 794 
L 1409 794 
L 1409 256 
L 897 -744 
L 494 -744 
L 750 256 
L 750 794 
z
" transform="scale(0.015625)"/>
       <path id="DejaVuSans-Oblique-4e" d="M 1081 4666 
L 1931 4666 
L 3219 666 
L 4000 4666 
L 4616 4666 
L 3706 0 
L 2853 0 
L 1569 4025 
L 788 0 
L 172 0 
L 1081 4666 
z
" transform="scale(0.015625)"/>
       <path id="DejaVuSans-Oblique-62" d="M 3169 2138 
Q 3169 2591 2961 2847 
Q 2753 3103 2388 3103 
Q 2122 3103 1889 2973 
Q 1656 2844 1484 2597 
Q 1303 2338 1198 1995 
Q 1094 1653 1094 1313 
Q 1094 881 1298 636 
Q 1503 391 1863 391 
Q 2134 391 2365 517 
Q 2597 644 2772 891 
Q 2950 1147 3059 1487 
Q 3169 1828 3169 2138 
z
M 1381 2969 
Q 1594 3256 1914 3420 
Q 2234 3584 2584 3584 
Q 3122 3584 3439 3221 
Q 3756 2859 3756 2241 
Q 3756 1734 3570 1259 
Q 3384 784 3041 416 
Q 2816 172 2522 40 
Q 2228 -91 1906 -91 
Q 1566 -91 1316 65 
Q 1066 222 909 531 
L 806 0 
L 231 0 
L 1178 4863 
L 1753 4863 
L 1381 2969 
z
" transform="scale(0.015625)"/>
       <path id="DejaVuSans-Oblique-65" d="M 3078 2063 
Q 3088 2113 3092 2166 
Q 3097 2219 3097 2272 
Q 3097 2653 2873 2875 
Q 2650 3097 2266 3097 
Q 1838 3097 1509 2826 
Q 1181 2556 1013 2059 
L 3078 2063 
z
M 3578 1613 
L 903 1613 
Q 884 1494 878 1425 
Q 872 1356 872 1306 
Q 872 872 1139 634 
Q 1406 397 1894 397 
Q 2269 397 2603 481 
Q 2938 566 3225 728 
L 3116 159 
Q 2806 34 2476 -28 
Q 2147 -91 1806 -91 
Q 1078 -91 686 257 
Q 294 606 294 1247 
Q 294 1794 489 2264 
Q 684 2734 1063 3103 
Q 1306 3334 1642 3459 
Q 1978 3584 2356 3584 
Q 2950 3584 3301 3228 
Q 3653 2872 3653 2272 
Q 3653 2128 3634 1964 
Q 3616 1800 3578 1613 
z
" transform="scale(0.015625)"/>
       <path id="DejaVuSans-3d" d="M 678 2906 
L 4684 2906 
L 4684 2381 
L 678 2381 
L 678 2906 
z
M 678 1631 
L 4684 1631 
L 4684 1100 
L 678 1100 
L 678 1631 
z
" transform="scale(0.015625)"/>
       <path id="DejaVuSans-Oblique-70" d="M 3175 2156 
Q 3175 2616 2975 2859 
Q 2775 3103 2400 3103 
Q 2144 3103 1911 2972 
Q 1678 2841 1497 2591 
Q 1319 2344 1212 1994 
Q 1106 1644 1106 1300 
Q 1106 863 1306 627 
Q 1506 391 1875 391 
Q 2147 391 2380 519 
Q 2613 647 2778 891 
Q 2956 1147 3065 1494 
Q 3175 1841 3175 2156 
z
M 1394 2969 
Q 1625 3272 1939 3428 
Q 2253 3584 2638 3584 
Q 3175 3584 3472 3232 
Q 3769 2881 3769 2247 
Q 3769 1728 3584 1258 
Q 3400 788 3053 416 
Q 2822 169 2531 39 
Q 2241 -91 1919 -91 
Q 1547 -91 1294 64 
Q 1041 219 916 525 
L 556 -1331 
L -19 -1331 
L 922 3500 
L 1497 3500 
L 1394 2969 
z
" transform="scale(0.015625)"/>
       <path id="DejaVuSans-Oblique-64" d="M 2675 525 
Q 2444 222 2128 65 
Q 1813 -91 1428 -91 
Q 903 -91 598 267 
Q 294 625 294 1247 
Q 294 1766 478 2236 
Q 663 2706 1013 3078 
Q 1244 3325 1534 3454 
Q 1825 3584 2144 3584 
Q 2481 3584 2739 3421 
Q 2997 3259 3138 2956 
L 3513 4863 
L 4091 4863 
L 3144 0 
L 2566 0 
L 2675 525 
z
M 891 1350 
Q 891 897 1095 644 
Q 1300 391 1663 391 
Q 1931 391 2161 520 
Q 2391 650 2566 903 
Q 2750 1166 2856 1509 
Q 2963 1853 2963 2188 
Q 2963 2622 2758 2865 
Q 2553 3109 2194 3109 
Q 1922 3109 1687 2981 
Q 1453 2853 1288 2613 
Q 1106 2353 998 2009 
Q 891 1666 891 1350 
z
" transform="scale(0.015625)"/>
       <path id="DejaVuSans-34" d="M 2419 4116 
L 825 1625 
L 2419 1625 
L 2419 4116 
z
M 2253 4666 
L 3047 4666 
L 3047 1625 
L 3713 1625 
L 3713 1100 
L 3047 1100 
L 3047 0 
L 2419 0 
L 2419 1100 
L 313 1100 
L 313 1709 
L 2253 4666 
z
" transform="scale(0.015625)"/>
      </defs>
      <use xlink:href="#DejaVuSans-44" transform="translate(0 0.896875)"/>
      <use xlink:href="#DejaVuSans-47" transform="translate(77.001953 0.896875)"/>
      <use xlink:href="#DejaVuSans-2d" transform="translate(154.492188 0.896875)"/>
      <use xlink:href="#DejaVuSans-4a" transform="translate(190.576172 0.896875)"/>
      <use xlink:href="#DejaVuSans-75" transform="translate(220.068359 0.896875)"/>
      <use xlink:href="#DejaVuSans-6c" transform="translate(283.447266 0.896875)"/>
      <use xlink:href="#DejaVuSans-69" transform="translate(311.230469 0.896875)"/>
      <use xlink:href="#DejaVuSans-61" transform="translate(339.013672 0.896875)"/>
      <use xlink:href="#DejaVuSans-2c" transform="translate(400.292969 0.896875)"/>
      <use xlink:href="#DejaVuSans-20" transform="translate(432.080078 0.896875)"/>
      <use xlink:href="#DejaVuSans-Oblique-4e" transform="translate(463.867188 0.896875)"/>
      <use xlink:href="#DejaVuSans-Oblique-62" transform="translate(545.688646 39.178125) scale(0.7)"/>
      <use xlink:href="#DejaVuSans-Oblique-65" transform="translate(538.671875 -26.446875) scale(0.7)"/>
      <use xlink:href="#DejaVuSans-20" transform="translate(592.856615 0.896875)"/>
      <use xlink:href="#DejaVuSans-3d" transform="translate(624.643724 0.896875)"/>
      <use xlink:href="#DejaVuSans-20" transform="translate(708.432786 0.896875)"/>
      <use xlink:href="#DejaVuSans-32" transform="translate(740.219896 0.896875)"/>
      <use xlink:href="#DejaVuSans-2c" transform="translate(803.842943 0.896875)"/>
      <use xlink:href="#DejaVuSans-20" transform="translate(835.630052 0.896875)"/>
      <use xlink:href="#DejaVuSans-Oblique-4e" transform="translate(867.417161 0.896875)"/>
      <use xlink:href="#DejaVuSans-Oblique-70" transform="translate(949.23862 53.8) scale(0.7)"/>
      <use xlink:href="#DejaVuSans-Oblique-64" transform="translate(942.221849 -26.446875) scale(0.7)"/>
      <use xlink:href="#DejaVuSans-3d" transform="translate(996.406589 0.896875)"/>
      <use xlink:href="#DejaVuSans-34" transform="translate(1080.195651 0.896875)"/>
     </g>
    </g>
    <g id="line2d_80">
     <path d="M 40.395312 540.676 
L 60.395312 540.676 
L 80.395312 540.676 
" style="fill: none; stroke: #ff7f0e; stroke-width: 2; stroke-linecap: square"/>
    </g>
    <g id="text_15">
     <!-- OCA-FPI, $N_e^b$ = 2, $N_d^p$=4 -->
     <g transform="translate(96.395312 547.676) scale(0.2 -0.2)">
      <defs>
       <path id="DejaVuSans-4f" d="M 2522 4238 
Q 1834 4238 1429 3725 
Q 1025 3213 1025 2328 
Q 1025 1447 1429 934 
Q 1834 422 2522 422 
Q 3209 422 3611 934 
Q 4013 1447 4013 2328 
Q 4013 3213 3611 3725 
Q 3209 4238 2522 4238 
z
M 2522 4750 
Q 3503 4750 4090 4092 
Q 4678 3434 4678 2328 
Q 4678 1225 4090 567 
Q 3503 -91 2522 -91 
Q 1538 -91 948 565 
Q 359 1222 359 2328 
Q 359 3434 948 4092 
Q 1538 4750 2522 4750 
z
" transform="scale(0.015625)"/>
       <path id="DejaVuSans-41" d="M 2188 4044 
L 1331 1722 
L 3047 1722 
L 2188 4044 
z
M 1831 4666 
L 2547 4666 
L 4325 0 
L 3669 0 
L 3244 1197 
L 1141 1197 
L 716 0 
L 50 0 
L 1831 4666 
z
" transform="scale(0.015625)"/>
       <path id="DejaVuSans-46" d="M 628 4666 
L 3309 4666 
L 3309 4134 
L 1259 4134 
L 1259 2759 
L 3109 2759 
L 3109 2228 
L 1259 2228 
L 1259 0 
L 628 0 
L 628 4666 
z
" transform="scale(0.015625)"/>
       <path id="DejaVuSans-50" d="M 1259 4147 
L 1259 2394 
L 2053 2394 
Q 2494 2394 2734 2622 
Q 2975 2850 2975 3272 
Q 2975 3691 2734 3919 
Q 2494 4147 2053 4147 
L 1259 4147 
z
M 628 4666 
L 2053 4666 
Q 2838 4666 3239 4311 
Q 3641 3956 3641 3272 
Q 3641 2581 3239 2228 
Q 2838 1875 2053 1875 
L 1259 1875 
L 1259 0 
L 628 0 
L 628 4666 
z
" transform="scale(0.015625)"/>
       <path id="DejaVuSans-49" d="M 628 4666 
L 1259 4666 
L 1259 0 
L 628 0 
L 628 4666 
z
" transform="scale(0.015625)"/>
      </defs>
      <use xlink:href="#DejaVuSans-4f" transform="translate(0 0.896875)"/>
      <use xlink:href="#DejaVuSans-43" transform="translate(78.710938 0.896875)"/>
      <use xlink:href="#DejaVuSans-41" transform="translate(148.535156 0.896875)"/>
      <use xlink:href="#DejaVuSans-2d" transform="translate(216.943359 0.896875)"/>
      <use xlink:href="#DejaVuSans-46" transform="translate(253.027344 0.896875)"/>
      <use xlink:href="#DejaVuSans-50" transform="translate(310.546875 0.896875)"/>
      <use xlink:href="#DejaVuSans-49" transform="translate(370.849609 0.896875)"/>
      <use xlink:href="#DejaVuSans-2c" transform="translate(400.341797 0.896875)"/>
      <use xlink:href="#DejaVuSans-20" transform="translate(432.128906 0.896875)"/>
      <use xlink:href="#DejaVuSans-Oblique-4e" transform="translate(463.916016 0.896875)"/>
      <use xlink:href="#DejaVuSans-Oblique-62" transform="translate(545.737474 39.178125) scale(0.7)"/>
      <use xlink:href="#DejaVuSans-Oblique-65" transform="translate(538.720703 -26.446875) scale(0.7)"/>
      <use xlink:href="#DejaVuSans-20" transform="translate(592.905443 0.896875)"/>
      <use xlink:href="#DejaVuSans-3d" transform="translate(624.692552 0.896875)"/>
      <use xlink:href="#DejaVuSans-20" transform="translate(708.481615 0.896875)"/>
      <use xlink:href="#DejaVuSans-32" transform="translate(740.268724 0.896875)"/>
      <use xlink:href="#DejaVuSans-2c" transform="translate(803.891771 0.896875)"/>
      <use xlink:href="#DejaVuSans-20" transform="translate(835.67888 0.896875)"/>
      <use xlink:href="#DejaVuSans-Oblique-4e" transform="translate(867.46599 0.896875)"/>
      <use xlink:href="#DejaVuSans-Oblique-70" transform="translate(949.287448 53.8) scale(0.7)"/>
      <use xlink:href="#DejaVuSans-Oblique-64" transform="translate(942.270677 -26.446875) scale(0.7)"/>
      <use xlink:href="#DejaVuSans-3d" transform="translate(996.455417 0.896875)"/>
      <use xlink:href="#DejaVuSans-34" transform="translate(1080.244479 0.896875)"/>
     </g>
    </g>
    <g id="line2d_81">
     <path d="M 40.395312 575.076 
L 60.395312 575.076 
L 80.395312 575.076 
" style="fill: none; stroke-dasharray: 7.4,3.2; stroke-dashoffset: 0; stroke: #d62728; stroke-width: 2"/>
    </g>
    <g id="text_16">
     <!-- DG-Julia, $N_e^b$ = 4, $N_d^p$=4 -->
     <g transform="translate(96.395312 582.076) scale(0.2 -0.2)">
      <use xlink:href="#DejaVuSans-44" transform="translate(0 0.896875)"/>
      <use xlink:href="#DejaVuSans-47" transform="translate(77.001953 0.896875)"/>
      <use xlink:href="#DejaVuSans-2d" transform="translate(154.492188 0.896875)"/>
      <use xlink:href="#DejaVuSans-4a" transform="translate(190.576172 0.896875)"/>
      <use xlink:href="#DejaVuSans-75" transform="translate(220.068359 0.896875)"/>
      <use xlink:href="#DejaVuSans-6c" transform="translate(283.447266 0.896875)"/>
      <use xlink:href="#DejaVuSans-69" transform="translate(311.230469 0.896875)"/>
      <use xlink:href="#DejaVuSans-61" transform="translate(339.013672 0.896875)"/>
      <use xlink:href="#DejaVuSans-2c" transform="translate(400.292969 0.896875)"/>
      <use xlink:href="#DejaVuSans-20" transform="translate(432.080078 0.896875)"/>
      <use xlink:href="#DejaVuSans-Oblique-4e" transform="translate(463.867188 0.896875)"/>
      <use xlink:href="#DejaVuSans-Oblique-62" transform="translate(545.688646 39.178125) scale(0.7)"/>
      <use xlink:href="#DejaVuSans-Oblique-65" transform="translate(538.671875 -26.446875) scale(0.7)"/>
      <use xlink:href="#DejaVuSans-20" transform="translate(592.856615 0.896875)"/>
      <use xlink:href="#DejaVuSans-3d" transform="translate(624.643724 0.896875)"/>
      <use xlink:href="#DejaVuSans-20" transform="translate(708.432786 0.896875)"/>
      <use xlink:href="#DejaVuSans-34" transform="translate(740.219896 0.896875)"/>
      <use xlink:href="#DejaVuSans-2c" transform="translate(803.842943 0.896875)"/>
      <use xlink:href="#DejaVuSans-20" transform="translate(835.630052 0.896875)"/>
      <use xlink:href="#DejaVuSans-Oblique-4e" transform="translate(867.417161 0.896875)"/>
      <use xlink:href="#DejaVuSans-Oblique-70" transform="translate(949.23862 53.8) scale(0.7)"/>
      <use xlink:href="#DejaVuSans-Oblique-64" transform="translate(942.221849 -26.446875) scale(0.7)"/>
      <use xlink:href="#DejaVuSans-3d" transform="translate(996.406589 0.896875)"/>
      <use xlink:href="#DejaVuSans-34" transform="translate(1080.195651 0.896875)"/>
     </g>
    </g>
    <g id="line2d_82">
     <path d="M 40.395312 609.476 
L 60.395312 609.476 
L 80.395312 609.476 
" style="fill: none; stroke: #d62728; stroke-width: 2; stroke-linecap: square"/>
    </g>
    <g id="text_17">
     <!-- OCA-FPI, $N_e^b$ = 4, $N_d^p$=4 -->
     <g transform="translate(96.395312 616.476) scale(0.2 -0.2)">
      <use xlink:href="#DejaVuSans-4f" transform="translate(0 0.896875)"/>
      <use xlink:href="#DejaVuSans-43" transform="translate(78.710938 0.896875)"/>
      <use xlink:href="#DejaVuSans-41" transform="translate(148.535156 0.896875)"/>
      <use xlink:href="#DejaVuSans-2d" transform="translate(216.943359 0.896875)"/>
      <use xlink:href="#DejaVuSans-46" transform="translate(253.027344 0.896875)"/>
      <use xlink:href="#DejaVuSans-50" transform="translate(310.546875 0.896875)"/>
      <use xlink:href="#DejaVuSans-49" transform="translate(370.849609 0.896875)"/>
      <use xlink:href="#DejaVuSans-2c" transform="translate(400.341797 0.896875)"/>
      <use xlink:href="#DejaVuSans-20" transform="translate(432.128906 0.896875)"/>
      <use xlink:href="#DejaVuSans-Oblique-4e" transform="translate(463.916016 0.896875)"/>
      <use xlink:href="#DejaVuSans-Oblique-62" transform="translate(545.737474 39.178125) scale(0.7)"/>
      <use xlink:href="#DejaVuSans-Oblique-65" transform="translate(538.720703 -26.446875) scale(0.7)"/>
      <use xlink:href="#DejaVuSans-20" transform="translate(592.905443 0.896875)"/>
      <use xlink:href="#DejaVuSans-3d" transform="translate(624.692552 0.896875)"/>
      <use xlink:href="#DejaVuSans-20" transform="translate(708.481615 0.896875)"/>
      <use xlink:href="#DejaVuSans-34" transform="translate(740.268724 0.896875)"/>
      <use xlink:href="#DejaVuSans-2c" transform="translate(803.891771 0.896875)"/>
      <use xlink:href="#DejaVuSans-20" transform="translate(835.67888 0.896875)"/>
      <use xlink:href="#DejaVuSans-Oblique-4e" transform="translate(867.46599 0.896875)"/>
      <use xlink:href="#DejaVuSans-Oblique-70" transform="translate(949.287448 53.8) scale(0.7)"/>
      <use xlink:href="#DejaVuSans-Oblique-64" transform="translate(942.270677 -26.446875) scale(0.7)"/>
      <use xlink:href="#DejaVuSans-3d" transform="translate(996.455417 0.896875)"/>
      <use xlink:href="#DejaVuSans-34" transform="translate(1080.244479 0.896875)"/>
     </g>
    </g>
    <g id="line2d_83">
     <path d="M 365.195312 506.276 
L 385.195312 506.276 
L 405.195312 506.276 
" style="fill: none; stroke-dasharray: 7.4,3.2; stroke-dashoffset: 0; stroke: #17becf; stroke-width: 2"/>
    </g>
    <g id="text_18">
     <!-- DG-Julia, $N_e^b$ = 2, $N_d^p$=6 -->
     <g transform="translate(421.195312 513.276) scale(0.2 -0.2)">
      <defs>
       <path id="DejaVuSans-36" d="M 2113 2584 
Q 1688 2584 1439 2293 
Q 1191 2003 1191 1497 
Q 1191 994 1439 701 
Q 1688 409 2113 409 
Q 2538 409 2786 701 
Q 3034 994 3034 1497 
Q 3034 2003 2786 2293 
Q 2538 2584 2113 2584 
z
M 3366 4563 
L 3366 3988 
Q 3128 4100 2886 4159 
Q 2644 4219 2406 4219 
Q 1781 4219 1451 3797 
Q 1122 3375 1075 2522 
Q 1259 2794 1537 2939 
Q 1816 3084 2150 3084 
Q 2853 3084 3261 2657 
Q 3669 2231 3669 1497 
Q 3669 778 3244 343 
Q 2819 -91 2113 -91 
Q 1303 -91 875 529 
Q 447 1150 447 2328 
Q 447 3434 972 4092 
Q 1497 4750 2381 4750 
Q 2619 4750 2861 4703 
Q 3103 4656 3366 4563 
z
" transform="scale(0.015625)"/>
      </defs>
      <use xlink:href="#DejaVuSans-44" transform="translate(0 0.896875)"/>
      <use xlink:href="#DejaVuSans-47" transform="translate(77.001953 0.896875)"/>
      <use xlink:href="#DejaVuSans-2d" transform="translate(154.492188 0.896875)"/>
      <use xlink:href="#DejaVuSans-4a" transform="translate(190.576172 0.896875)"/>
      <use xlink:href="#DejaVuSans-75" transform="translate(220.068359 0.896875)"/>
      <use xlink:href="#DejaVuSans-6c" transform="translate(283.447266 0.896875)"/>
      <use xlink:href="#DejaVuSans-69" transform="translate(311.230469 0.896875)"/>
      <use xlink:href="#DejaVuSans-61" transform="translate(339.013672 0.896875)"/>
      <use xlink:href="#DejaVuSans-2c" transform="translate(400.292969 0.896875)"/>
      <use xlink:href="#DejaVuSans-20" transform="translate(432.080078 0.896875)"/>
      <use xlink:href="#DejaVuSans-Oblique-4e" transform="translate(463.867188 0.896875)"/>
      <use xlink:href="#DejaVuSans-Oblique-62" transform="translate(545.688646 39.178125) scale(0.7)"/>
      <use xlink:href="#DejaVuSans-Oblique-65" transform="translate(538.671875 -26.446875) scale(0.7)"/>
      <use xlink:href="#DejaVuSans-20" transform="translate(592.856615 0.896875)"/>
      <use xlink:href="#DejaVuSans-3d" transform="translate(624.643724 0.896875)"/>
      <use xlink:href="#DejaVuSans-20" transform="translate(708.432786 0.896875)"/>
      <use xlink:href="#DejaVuSans-32" transform="translate(740.219896 0.896875)"/>
      <use xlink:href="#DejaVuSans-2c" transform="translate(803.842943 0.896875)"/>
      <use xlink:href="#DejaVuSans-20" transform="translate(835.630052 0.896875)"/>
      <use xlink:href="#DejaVuSans-Oblique-4e" transform="translate(867.417161 0.896875)"/>
      <use xlink:href="#DejaVuSans-Oblique-70" transform="translate(949.23862 53.8) scale(0.7)"/>
      <use xlink:href="#DejaVuSans-Oblique-64" transform="translate(942.221849 -26.446875) scale(0.7)"/>
      <use xlink:href="#DejaVuSans-3d" transform="translate(996.406589 0.896875)"/>
      <use xlink:href="#DejaVuSans-36" transform="translate(1080.195651 0.896875)"/>
     </g>
    </g>
    <g id="line2d_84">
     <path d="M 365.195312 540.676 
L 385.195312 540.676 
L 405.195312 540.676 
" style="fill: none; stroke: #17becf; stroke-width: 2; stroke-linecap: square"/>
    </g>
    <g id="text_19">
     <!-- OCA-FPI, $N_e^b$ = 2, $N_d^p$=6 -->
     <g transform="translate(421.195312 547.676) scale(0.2 -0.2)">
      <use xlink:href="#DejaVuSans-4f" transform="translate(0 0.896875)"/>
      <use xlink:href="#DejaVuSans-43" transform="translate(78.710938 0.896875)"/>
      <use xlink:href="#DejaVuSans-41" transform="translate(148.535156 0.896875)"/>
      <use xlink:href="#DejaVuSans-2d" transform="translate(216.943359 0.896875)"/>
      <use xlink:href="#DejaVuSans-46" transform="translate(253.027344 0.896875)"/>
      <use xlink:href="#DejaVuSans-50" transform="translate(310.546875 0.896875)"/>
      <use xlink:href="#DejaVuSans-49" transform="translate(370.849609 0.896875)"/>
      <use xlink:href="#DejaVuSans-2c" transform="translate(400.341797 0.896875)"/>
      <use xlink:href="#DejaVuSans-20" transform="translate(432.128906 0.896875)"/>
      <use xlink:href="#DejaVuSans-Oblique-4e" transform="translate(463.916016 0.896875)"/>
      <use xlink:href="#DejaVuSans-Oblique-62" transform="translate(545.737474 39.178125) scale(0.7)"/>
      <use xlink:href="#DejaVuSans-Oblique-65" transform="translate(538.720703 -26.446875) scale(0.7)"/>
      <use xlink:href="#DejaVuSans-20" transform="translate(592.905443 0.896875)"/>
      <use xlink:href="#DejaVuSans-3d" transform="translate(624.692552 0.896875)"/>
      <use xlink:href="#DejaVuSans-20" transform="translate(708.481615 0.896875)"/>
      <use xlink:href="#DejaVuSans-32" transform="translate(740.268724 0.896875)"/>
      <use xlink:href="#DejaVuSans-2c" transform="translate(803.891771 0.896875)"/>
      <use xlink:href="#DejaVuSans-20" transform="translate(835.67888 0.896875)"/>
      <use xlink:href="#DejaVuSans-Oblique-4e" transform="translate(867.46599 0.896875)"/>
      <use xlink:href="#DejaVuSans-Oblique-70" transform="translate(949.287448 53.8) scale(0.7)"/>
      <use xlink:href="#DejaVuSans-Oblique-64" transform="translate(942.270677 -26.446875) scale(0.7)"/>
      <use xlink:href="#DejaVuSans-3d" transform="translate(996.455417 0.896875)"/>
      <use xlink:href="#DejaVuSans-36" transform="translate(1080.244479 0.896875)"/>
     </g>
    </g>
    <g id="line2d_85">
     <path d="M 365.195312 575.076 
L 385.195312 575.076 
L 405.195312 575.076 
" style="fill: none; stroke-dasharray: 7.4,3.2; stroke-dashoffset: 0; stroke: #7f7f7f; stroke-width: 2"/>
    </g>
    <g id="text_20">
     <!-- DG-Julia, $N_e^b$ = 4, $N_d^p$=6 -->
     <g transform="translate(421.195312 582.076) scale(0.2 -0.2)">
      <use xlink:href="#DejaVuSans-44" transform="translate(0 0.896875)"/>
      <use xlink:href="#DejaVuSans-47" transform="translate(77.001953 0.896875)"/>
      <use xlink:href="#DejaVuSans-2d" transform="translate(154.492188 0.896875)"/>
      <use xlink:href="#DejaVuSans-4a" transform="translate(190.576172 0.896875)"/>
      <use xlink:href="#DejaVuSans-75" transform="translate(220.068359 0.896875)"/>
      <use xlink:href="#DejaVuSans-6c" transform="translate(283.447266 0.896875)"/>
      <use xlink:href="#DejaVuSans-69" transform="translate(311.230469 0.896875)"/>
      <use xlink:href="#DejaVuSans-61" transform="translate(339.013672 0.896875)"/>
      <use xlink:href="#DejaVuSans-2c" transform="translate(400.292969 0.896875)"/>
      <use xlink:href="#DejaVuSans-20" transform="translate(432.080078 0.896875)"/>
      <use xlink:href="#DejaVuSans-Oblique-4e" transform="translate(463.867188 0.896875)"/>
      <use xlink:href="#DejaVuSans-Oblique-62" transform="translate(545.688646 39.178125) scale(0.7)"/>
      <use xlink:href="#DejaVuSans-Oblique-65" transform="translate(538.671875 -26.446875) scale(0.7)"/>
      <use xlink:href="#DejaVuSans-20" transform="translate(592.856615 0.896875)"/>
      <use xlink:href="#DejaVuSans-3d" transform="translate(624.643724 0.896875)"/>
      <use xlink:href="#DejaVuSans-20" transform="translate(708.432786 0.896875)"/>
      <use xlink:href="#DejaVuSans-34" transform="translate(740.219896 0.896875)"/>
      <use xlink:href="#DejaVuSans-2c" transform="translate(803.842943 0.896875)"/>
      <use xlink:href="#DejaVuSans-20" transform="translate(835.630052 0.896875)"/>
      <use xlink:href="#DejaVuSans-Oblique-4e" transform="translate(867.417161 0.896875)"/>
      <use xlink:href="#DejaVuSans-Oblique-70" transform="translate(949.23862 53.8) scale(0.7)"/>
      <use xlink:href="#DejaVuSans-Oblique-64" transform="translate(942.221849 -26.446875) scale(0.7)"/>
      <use xlink:href="#DejaVuSans-3d" transform="translate(996.406589 0.896875)"/>
      <use xlink:href="#DejaVuSans-36" transform="translate(1080.195651 0.896875)"/>
     </g>
    </g>
    <g id="line2d_86">
     <path d="M 365.195312 609.476 
L 385.195312 609.476 
L 405.195312 609.476 
" style="fill: none; stroke: #7f7f7f; stroke-width: 2; stroke-linecap: square"/>
    </g>
    <g id="text_21">
     <!-- OCA-FPI, $N_e^b$ = 4, $N_d^p$=6 -->
     <g transform="translate(421.195312 616.476) scale(0.2 -0.2)">
      <use xlink:href="#DejaVuSans-4f" transform="translate(0 0.896875)"/>
      <use xlink:href="#DejaVuSans-43" transform="translate(78.710938 0.896875)"/>
      <use xlink:href="#DejaVuSans-41" transform="translate(148.535156 0.896875)"/>
      <use xlink:href="#DejaVuSans-2d" transform="translate(216.943359 0.896875)"/>
      <use xlink:href="#DejaVuSans-46" transform="translate(253.027344 0.896875)"/>
      <use xlink:href="#DejaVuSans-50" transform="translate(310.546875 0.896875)"/>
      <use xlink:href="#DejaVuSans-49" transform="translate(370.849609 0.896875)"/>
      <use xlink:href="#DejaVuSans-2c" transform="translate(400.341797 0.896875)"/>
      <use xlink:href="#DejaVuSans-20" transform="translate(432.128906 0.896875)"/>
      <use xlink:href="#DejaVuSans-Oblique-4e" transform="translate(463.916016 0.896875)"/>
      <use xlink:href="#DejaVuSans-Oblique-62" transform="translate(545.737474 39.178125) scale(0.7)"/>
      <use xlink:href="#DejaVuSans-Oblique-65" transform="translate(538.720703 -26.446875) scale(0.7)"/>
      <use xlink:href="#DejaVuSans-20" transform="translate(592.905443 0.896875)"/>
      <use xlink:href="#DejaVuSans-3d" transform="translate(624.692552 0.896875)"/>
      <use xlink:href="#DejaVuSans-20" transform="translate(708.481615 0.896875)"/>
      <use xlink:href="#DejaVuSans-34" transform="translate(740.268724 0.896875)"/>
      <use xlink:href="#DejaVuSans-2c" transform="translate(803.891771 0.896875)"/>
      <use xlink:href="#DejaVuSans-20" transform="translate(835.67888 0.896875)"/>
      <use xlink:href="#DejaVuSans-Oblique-4e" transform="translate(867.46599 0.896875)"/>
      <use xlink:href="#DejaVuSans-Oblique-70" transform="translate(949.287448 53.8) scale(0.7)"/>
      <use xlink:href="#DejaVuSans-Oblique-64" transform="translate(942.270677 -26.446875) scale(0.7)"/>
      <use xlink:href="#DejaVuSans-3d" transform="translate(996.455417 0.896875)"/>
      <use xlink:href="#DejaVuSans-36" transform="translate(1080.244479 0.896875)"/>
     </g>
    </g>
   </g>
  </g>
 </g>
 <defs>
  <clipPath id="p7edab640cc">
   <rect x="94.095313" y="7.2" width="502.2" height="408.24"/>
  </clipPath>
 </defs>
</svg>
