<?xml version="1.0" encoding="utf-8" standalone="no"?>
<!DOCTYPE svg PUBLIC "-//W3C//DTD SVG 1.1//EN"
  "http://www.w3.org/Graphics/SVG/1.1/DTD/svg11.dtd">
<svg xmlns:xlink="http://www.w3.org/1999/xlink" width="720pt" height="504pt" viewBox="0 0 720 504" xmlns="http://www.w3.org/2000/svg" version="1.1">
 <metadata>
  <rdf:RDF xmlns:dc="http://purl.org/dc/elements/1.1/" xmlns:cc="http://creativecommons.org/ns#" xmlns:rdf="http://www.w3.org/1999/02/22-rdf-syntax-ns#">
   <cc:Work>
    <dc:type rdf:resource="http://purl.org/dc/dcmitype/StillImage"/>
    <dc:date>2024-10-07T10:57:18.887417</dc:date>
    <dc:format>image/svg+xml</dc:format>
    <dc:creator>
     <cc:Agent>
      <dc:title>Matplotlib v3.9.1, https://matplotlib.org/</dc:title>
     </cc:Agent>
    </dc:creator>
   </cc:Work>
  </rdf:RDF>
 </metadata>
 <defs>
  <style type="text/css">*{stroke-linejoin: round; stroke-linecap: butt}</style>
 </defs>
 <g id="figure_1">
  <g id="patch_1">
   <path d="M 0 504 
L 720 504 
L 720 0 
L 0 0 
z
" style="fill: #ffffff"/>
  </g>
  <g id="axes_1">
   <g id="patch_2">
    <path d="M 108 219.03 
L 648 219.03 
L 648 60.48 
L 108 60.48 
z
" style="fill: #ffffff"/>
   </g>
   <g id="matplotlib.axis_1">
    <g id="xtick_1">
     <g id="line2d_1">
      <defs>
       <path id="medc5309f86" d="M 0 0 
L 0 3.5 
" style="stroke: #000000; stroke-width: 0.8"/>
      </defs>
      <g>
       <use xlink:href="#medc5309f86" x="132.545455" y="219.03" style="stroke: #000000; stroke-width: 0.8"/>
      </g>
     </g>
     <g id="text_1">
      <!-- 0 -->
      <g transform="translate(126.182955 241.226875) scale(0.2 -0.2)">
       <defs>
        <path id="DejaVuSans-30" d="M 2034 4250 
Q 1547 4250 1301 3770 
Q 1056 3291 1056 2328 
Q 1056 1369 1301 889 
Q 1547 409 2034 409 
Q 2525 409 2770 889 
Q 3016 1369 3016 2328 
Q 3016 3291 2770 3770 
Q 2525 4250 2034 4250 
z
M 2034 4750 
Q 2819 4750 3233 4129 
Q 3647 3509 3647 2328 
Q 3647 1150 3233 529 
Q 2819 -91 2034 -91 
Q 1250 -91 836 529 
Q 422 1150 422 2328 
Q 422 3509 836 4129 
Q 1250 4750 2034 4750 
z
" transform="scale(0.015625)"/>
       </defs>
       <use xlink:href="#DejaVuSans-30"/>
      </g>
     </g>
    </g>
    <g id="xtick_2">
     <g id="line2d_2">
      <g>
       <use xlink:href="#medc5309f86" x="200.378685" y="219.03" style="stroke: #000000; stroke-width: 0.8"/>
      </g>
     </g>
     <g id="text_2">
      <!-- 100 -->
      <g transform="translate(181.291185 241.226875) scale(0.2 -0.2)">
       <defs>
        <path id="DejaVuSans-31" d="M 794 531 
L 1825 531 
L 1825 4091 
L 703 3866 
L 703 4441 
L 1819 4666 
L 2450 4666 
L 2450 531 
L 3481 531 
L 3481 0 
L 794 0 
L 794 531 
z
" transform="scale(0.015625)"/>
       </defs>
       <use xlink:href="#DejaVuSans-31"/>
       <use xlink:href="#DejaVuSans-30" x="63.623047"/>
       <use xlink:href="#DejaVuSans-30" x="127.246094"/>
      </g>
     </g>
    </g>
    <g id="xtick_3">
     <g id="line2d_3">
      <g>
       <use xlink:href="#medc5309f86" x="268.211916" y="219.03" style="stroke: #000000; stroke-width: 0.8"/>
      </g>
     </g>
     <g id="text_3">
      <!-- 200 -->
      <g transform="translate(249.124416 241.226875) scale(0.2 -0.2)">
       <defs>
        <path id="DejaVuSans-32" d="M 1228 531 
L 3431 531 
L 3431 0 
L 469 0 
L 469 531 
Q 828 903 1448 1529 
Q 2069 2156 2228 2338 
Q 2531 2678 2651 2914 
Q 2772 3150 2772 3378 
Q 2772 3750 2511 3984 
Q 2250 4219 1831 4219 
Q 1534 4219 1204 4116 
Q 875 4013 500 3803 
L 500 4441 
Q 881 4594 1212 4672 
Q 1544 4750 1819 4750 
Q 2544 4750 2975 4387 
Q 3406 4025 3406 3419 
Q 3406 3131 3298 2873 
Q 3191 2616 2906 2266 
Q 2828 2175 2409 1742 
Q 1991 1309 1228 531 
z
" transform="scale(0.015625)"/>
       </defs>
       <use xlink:href="#DejaVuSans-32"/>
       <use xlink:href="#DejaVuSans-30" x="63.623047"/>
       <use xlink:href="#DejaVuSans-30" x="127.246094"/>
      </g>
     </g>
    </g>
    <g id="xtick_4">
     <g id="line2d_4">
      <g>
       <use xlink:href="#medc5309f86" x="336.045147" y="219.03" style="stroke: #000000; stroke-width: 0.8"/>
      </g>
     </g>
     <g id="text_4">
      <!-- 300 -->
      <g transform="translate(316.957647 241.226875) scale(0.2 -0.2)">
       <defs>
        <path id="DejaVuSans-33" d="M 2597 2516 
Q 3050 2419 3304 2112 
Q 3559 1806 3559 1356 
Q 3559 666 3084 287 
Q 2609 -91 1734 -91 
Q 1441 -91 1130 -33 
Q 819 25 488 141 
L 488 750 
Q 750 597 1062 519 
Q 1375 441 1716 441 
Q 2309 441 2620 675 
Q 2931 909 2931 1356 
Q 2931 1769 2642 2001 
Q 2353 2234 1838 2234 
L 1294 2234 
L 1294 2753 
L 1863 2753 
Q 2328 2753 2575 2939 
Q 2822 3125 2822 3475 
Q 2822 3834 2567 4026 
Q 2313 4219 1838 4219 
Q 1578 4219 1281 4162 
Q 984 4106 628 3988 
L 628 4550 
Q 988 4650 1302 4700 
Q 1616 4750 1894 4750 
Q 2613 4750 3031 4423 
Q 3450 4097 3450 3541 
Q 3450 3153 3228 2886 
Q 3006 2619 2597 2516 
z
" transform="scale(0.015625)"/>
       </defs>
       <use xlink:href="#DejaVuSans-33"/>
       <use xlink:href="#DejaVuSans-30" x="63.623047"/>
       <use xlink:href="#DejaVuSans-30" x="127.246094"/>
      </g>
     </g>
    </g>
    <g id="xtick_5">
     <g id="line2d_5">
      <g>
       <use xlink:href="#medc5309f86" x="403.878378" y="219.03" style="stroke: #000000; stroke-width: 0.8"/>
      </g>
     </g>
     <g id="text_5">
      <!-- 400 -->
      <g transform="translate(384.790878 241.226875) scale(0.2 -0.2)">
       <defs>
        <path id="DejaVuSans-34" d="M 2419 4116 
L 825 1625 
L 2419 1625 
L 2419 4116 
z
M 2253 4666 
L 3047 4666 
L 3047 1625 
L 3713 1625 
L 3713 1100 
L 3047 1100 
L 3047 0 
L 2419 0 
L 2419 1100 
L 313 1100 
L 313 1709 
L 2253 4666 
z
" transform="scale(0.015625)"/>
       </defs>
       <use xlink:href="#DejaVuSans-34"/>
       <use xlink:href="#DejaVuSans-30" x="63.623047"/>
       <use xlink:href="#DejaVuSans-30" x="127.246094"/>
      </g>
     </g>
    </g>
    <g id="xtick_6">
     <g id="line2d_6">
      <g>
       <use xlink:href="#medc5309f86" x="471.711608" y="219.03" style="stroke: #000000; stroke-width: 0.8"/>
      </g>
     </g>
     <g id="text_6">
      <!-- 500 -->
      <g transform="translate(452.624108 241.226875) scale(0.2 -0.2)">
       <defs>
        <path id="DejaVuSans-35" d="M 691 4666 
L 3169 4666 
L 3169 4134 
L 1269 4134 
L 1269 2991 
Q 1406 3038 1543 3061 
Q 1681 3084 1819 3084 
Q 2600 3084 3056 2656 
Q 3513 2228 3513 1497 
Q 3513 744 3044 326 
Q 2575 -91 1722 -91 
Q 1428 -91 1123 -41 
Q 819 9 494 109 
L 494 744 
Q 775 591 1075 516 
Q 1375 441 1709 441 
Q 2250 441 2565 725 
Q 2881 1009 2881 1497 
Q 2881 1984 2565 2268 
Q 2250 2553 1709 2553 
Q 1456 2553 1204 2497 
Q 953 2441 691 2322 
L 691 4666 
z
" transform="scale(0.015625)"/>
       </defs>
       <use xlink:href="#DejaVuSans-35"/>
       <use xlink:href="#DejaVuSans-30" x="63.623047"/>
       <use xlink:href="#DejaVuSans-30" x="127.246094"/>
      </g>
     </g>
    </g>
    <g id="xtick_7">
     <g id="line2d_7">
      <g>
       <use xlink:href="#medc5309f86" x="539.544839" y="219.03" style="stroke: #000000; stroke-width: 0.8"/>
      </g>
     </g>
     <g id="text_7">
      <!-- 600 -->
      <g transform="translate(520.457339 241.226875) scale(0.2 -0.2)">
       <defs>
        <path id="DejaVuSans-36" d="M 2113 2584 
Q 1688 2584 1439 2293 
Q 1191 2003 1191 1497 
Q 1191 994 1439 701 
Q 1688 409 2113 409 
Q 2538 409 2786 701 
Q 3034 994 3034 1497 
Q 3034 2003 2786 2293 
Q 2538 2584 2113 2584 
z
M 3366 4563 
L 3366 3988 
Q 3128 4100 2886 4159 
Q 2644 4219 2406 4219 
Q 1781 4219 1451 3797 
Q 1122 3375 1075 2522 
Q 1259 2794 1537 2939 
Q 1816 3084 2150 3084 
Q 2853 3084 3261 2657 
Q 3669 2231 3669 1497 
Q 3669 778 3244 343 
Q 2819 -91 2113 -91 
Q 1303 -91 875 529 
Q 447 1150 447 2328 
Q 447 3434 972 4092 
Q 1497 4750 2381 4750 
Q 2619 4750 2861 4703 
Q 3103 4656 3366 4563 
z
" transform="scale(0.015625)"/>
       </defs>
       <use xlink:href="#DejaVuSans-36"/>
       <use xlink:href="#DejaVuSans-30" x="63.623047"/>
       <use xlink:href="#DejaVuSans-30" x="127.246094"/>
      </g>
     </g>
    </g>
    <g id="xtick_8">
     <g id="line2d_8">
      <g>
       <use xlink:href="#medc5309f86" x="607.37807" y="219.03" style="stroke: #000000; stroke-width: 0.8"/>
      </g>
     </g>
     <g id="text_8">
      <!-- 700 -->
      <g transform="translate(588.29057 241.226875) scale(0.2 -0.2)">
       <defs>
        <path id="DejaVuSans-37" d="M 525 4666 
L 3525 4666 
L 3525 4397 
L 1831 0 
L 1172 0 
L 2766 4134 
L 525 4134 
L 525 4666 
z
" transform="scale(0.015625)"/>
       </defs>
       <use xlink:href="#DejaVuSans-37"/>
       <use xlink:href="#DejaVuSans-30" x="63.623047"/>
       <use xlink:href="#DejaVuSans-30" x="127.246094"/>
      </g>
     </g>
    </g>
   </g>
   <g id="matplotlib.axis_2">
    <g id="ytick_1">
     <g id="line2d_9">
      <defs>
       <path id="mf6cdde20ae" d="M 0 0 
L -3.5 0 
" style="stroke: #000000; stroke-width: 0.8"/>
      </defs>
      <g>
       <use xlink:href="#mf6cdde20ae" x="108" y="214.184899" style="stroke: #000000; stroke-width: 0.8"/>
      </g>
     </g>
     <g id="text_9">
      <!-- 0.0 -->
      <g transform="translate(69.19375 221.783337) scale(0.2 -0.2)">
       <defs>
        <path id="DejaVuSans-2e" d="M 684 794 
L 1344 794 
L 1344 0 
L 684 0 
L 684 794 
z
" transform="scale(0.015625)"/>
       </defs>
       <use xlink:href="#DejaVuSans-30"/>
       <use xlink:href="#DejaVuSans-2e" x="63.623047"/>
       <use xlink:href="#DejaVuSans-30" x="95.410156"/>
      </g>
     </g>
    </g>
    <g id="ytick_2">
     <g id="line2d_10">
      <g>
       <use xlink:href="#mf6cdde20ae" x="108" y="115.902516" style="stroke: #000000; stroke-width: 0.8"/>
      </g>
     </g>
     <g id="text_10">
      <!-- 0.5 -->
      <g transform="translate(69.19375 123.500953) scale(0.2 -0.2)">
       <use xlink:href="#DejaVuSans-30"/>
       <use xlink:href="#DejaVuSans-2e" x="63.623047"/>
       <use xlink:href="#DejaVuSans-35" x="95.410156"/>
      </g>
     </g>
    </g>
   </g>
   <g id="line2d_11">
    <path d="M 132.545455 85.325342 
L 132.613288 85.350144 
L 132.748954 68.417526 
L 136.072783 68.307776 
L 150.656927 67.889903 
L 164.834072 67.687938 
L 172.838394 67.780052 
L 179.214717 68.075351 
L 185.591041 68.598756 
L 192.71353 69.413262 
L 200.785685 70.562777 
L 208.654339 71.904496 
L 215.844662 73.354282 
L 222.695818 74.961563 
L 229.614808 76.81547 
L 236.872963 78.994819 
L 244.945118 81.658614 
L 254.780936 85.151912 
L 255.323602 85.350138 
L 255.459269 68.41752 
L 258.783097 68.307771 
L 273.367242 67.889897 
L 287.544387 67.687933 
L 295.548708 67.780046 
L 301.925032 68.075345 
L 308.301355 68.59875 
L 315.423845 69.413257 
L 323.495999 70.562772 
L 331.364654 71.90449 
L 338.554976 73.354277 
L 345.406133 74.961557 
L 352.325122 76.815464 
L 359.583278 78.994813 
L 367.655432 81.658609 
L 377.491251 85.151907 
L 378.033917 85.350134 
L 378.169583 68.417515 
L 381.493411 68.307766 
L 396.077556 67.889893 
L 410.254701 67.687928 
L 418.259022 67.780041 
L 424.635346 68.07534 
L 431.01167 68.598745 
L 438.134159 69.413252 
L 446.206314 70.562767 
L 454.074968 71.904485 
L 461.265291 73.354272 
L 468.116447 74.961552 
L 475.035437 76.81546 
L 482.293592 78.994809 
L 490.365747 81.658605 
L 500.201565 85.151903 
L 500.744231 85.35013 
L 500.879897 68.417511 
L 504.203726 68.307762 
L 518.78787 67.889889 
L 532.965016 67.687924 
L 540.969337 67.780037 
L 547.345661 68.075336 
L 553.721984 68.598741 
L 560.844473 69.413248 
L 568.916628 70.562763 
L 576.785283 71.904481 
L 583.975605 73.354268 
L 590.826761 74.961549 
L 597.745751 76.815456 
L 605.003907 78.994805 
L 613.076061 81.658602 
L 622.91188 85.1519 
L 623.454545 85.350126 
L 623.454545 85.350126 
" clip-path="url(#pe020280f78)" style="fill: none; stroke: #1f77b4; stroke-width: 1.5; stroke-linecap: square"/>
   </g>
   <g id="line2d_12">
    <path d="M 132.545455 211.010605 
L 132.613288 211.00736 
L 132.748954 207.942524 
L 133.630786 208.039079 
L 137.90428 208.929269 
L 142.720439 209.700139 
L 148.147098 210.338026 
L 154.455588 210.847866 
L 161.985077 211.224147 
L 171.820895 211.47768 
L 190.339367 211.682388 
L 218.829324 211.817642 
L 234.4988 211.660948 
L 247.997613 211.30971 
L 255.323602 211.00736 
L 255.459269 207.942524 
L 256.341101 208.039079 
L 260.614594 208.929269 
L 265.430754 209.700139 
L 270.857412 210.338026 
L 277.165902 210.847866 
L 284.695391 211.224147 
L 294.53121 211.47768 
L 313.049682 211.682388 
L 341.539638 211.817642 
L 357.209115 211.660948 
L 370.707928 211.30971 
L 378.033917 211.00736 
L 378.169583 207.942524 
L 379.051415 208.039079 
L 383.324909 208.929269 
L 388.141068 209.700139 
L 393.567726 210.338026 
L 399.876217 210.847866 
L 407.405706 211.224147 
L 417.241524 211.477679 
L 435.759996 211.682388 
L 464.249953 211.817642 
L 479.919429 211.660948 
L 493.418242 211.309709 
L 500.744231 211.00736 
L 500.879897 207.942524 
L 501.761729 208.039079 
L 506.035223 208.929269 
L 510.851382 209.700139 
L 516.278041 210.338026 
L 522.586531 210.847866 
L 530.11602 211.224146 
L 539.951838 211.477679 
L 558.47031 211.682388 
L 586.960267 211.817642 
L 602.629744 211.660948 
L 616.128557 211.309709 
L 623.454545 211.00736 
L 623.454545 211.00736 
" clip-path="url(#pe020280f78)" style="fill: none; stroke: #ff7f0e; stroke-width: 1.5; stroke-linecap: square"/>
   </g>
   <g id="line2d_13">
    <path d="M 132.545455 205.459777 
L 132.613288 205.451699 
L 132.748954 205.981259 
L 134.105619 206.085723 
L 139.667944 206.613736 
L 146.3156 207.016455 
L 154.319922 207.27129 
L 163.95224 207.346505 
L 191.153366 207.417951 
L 215.030663 207.72233 
L 224.798648 207.570659 
L 234.159634 207.202866 
L 243.181454 206.627355 
L 251.524941 205.875909 
L 255.323602 205.451699 
L 255.459269 205.981259 
L 256.815933 206.085722 
L 262.378258 206.613736 
L 269.025915 207.016455 
L 277.030236 207.27129 
L 286.662555 207.346505 
L 313.86368 207.417951 
L 337.740978 207.72233 
L 347.508963 207.570658 
L 356.869949 207.202866 
L 365.891768 206.627355 
L 374.235256 205.875908 
L 378.033917 205.451699 
L 378.169583 205.981259 
L 379.526248 206.085722 
L 385.088573 206.613736 
L 391.736229 207.016455 
L 399.74055 207.27129 
L 409.372869 207.346505 
L 436.573995 207.417951 
L 460.451292 207.72233 
L 470.219277 207.570658 
L 479.580263 207.202866 
L 488.602083 206.627355 
L 496.94557 205.875908 
L 500.744231 205.451699 
L 500.879897 205.981259 
L 502.236562 206.085722 
L 507.798887 206.613736 
L 514.446544 207.016455 
L 522.450865 207.27129 
L 532.083184 207.346505 
L 559.284309 207.417951 
L 583.161606 207.72233 
L 592.929592 207.570658 
L 602.290577 207.202866 
L 611.312397 206.627355 
L 619.655885 205.875908 
L 623.454545 205.451699 
L 623.454545 205.451699 
" clip-path="url(#pe020280f78)" style="fill: none; stroke: #2ca02c; stroke-width: 1.5; stroke-linecap: square"/>
   </g>
   <g id="patch_3">
    <path d="M 108 219.03 
L 108 60.48 
" style="fill: none; stroke: #000000; stroke-width: 0.8; stroke-linejoin: miter; stroke-linecap: square"/>
   </g>
   <g id="patch_4">
    <path d="M 648 219.03 
L 648 60.48 
" style="fill: none; stroke: #000000; stroke-width: 0.8; stroke-linejoin: miter; stroke-linecap: square"/>
   </g>
   <g id="patch_5">
    <path d="M 108 219.03 
L 648 219.03 
" style="fill: none; stroke: #000000; stroke-width: 0.8; stroke-linejoin: miter; stroke-linecap: square"/>
   </g>
   <g id="patch_6">
    <path d="M 108 60.48 
L 648 60.48 
" style="fill: none; stroke: #000000; stroke-width: 0.8; stroke-linejoin: miter; stroke-linecap: square"/>
   </g>
   <g id="text_11">
    <!-- Extract -->
    <g transform="translate(342.184375 54.48) scale(0.2 -0.2)">
     <defs>
      <path id="DejaVuSans-45" d="M 628 4666 
L 3578 4666 
L 3578 4134 
L 1259 4134 
L 1259 2753 
L 3481 2753 
L 3481 2222 
L 1259 2222 
L 1259 531 
L 3634 531 
L 3634 0 
L 628 0 
L 628 4666 
z
" transform="scale(0.015625)"/>
      <path id="DejaVuSans-78" d="M 3513 3500 
L 2247 1797 
L 3578 0 
L 2900 0 
L 1881 1375 
L 863 0 
L 184 0 
L 1544 1831 
L 300 3500 
L 978 3500 
L 1906 2253 
L 2834 3500 
L 3513 3500 
z
" transform="scale(0.015625)"/>
      <path id="DejaVuSans-74" d="M 1172 4494 
L 1172 3500 
L 2356 3500 
L 2356 3053 
L 1172 3053 
L 1172 1153 
Q 1172 725 1289 603 
Q 1406 481 1766 481 
L 2356 481 
L 2356 0 
L 1766 0 
Q 1100 0 847 248 
Q 594 497 594 1153 
L 594 3053 
L 172 3053 
L 172 3500 
L 594 3500 
L 594 4494 
L 1172 4494 
z
" transform="scale(0.015625)"/>
      <path id="DejaVuSans-72" d="M 2631 2963 
Q 2534 3019 2420 3045 
Q 2306 3072 2169 3072 
Q 1681 3072 1420 2755 
Q 1159 2438 1159 1844 
L 1159 0 
L 581 0 
L 581 3500 
L 1159 3500 
L 1159 2956 
Q 1341 3275 1631 3429 
Q 1922 3584 2338 3584 
Q 2397 3584 2469 3576 
Q 2541 3569 2628 3553 
L 2631 2963 
z
" transform="scale(0.015625)"/>
      <path id="DejaVuSans-61" d="M 2194 1759 
Q 1497 1759 1228 1600 
Q 959 1441 959 1056 
Q 959 750 1161 570 
Q 1363 391 1709 391 
Q 2188 391 2477 730 
Q 2766 1069 2766 1631 
L 2766 1759 
L 2194 1759 
z
M 3341 1997 
L 3341 0 
L 2766 0 
L 2766 531 
Q 2569 213 2275 61 
Q 1981 -91 1556 -91 
Q 1019 -91 701 211 
Q 384 513 384 1019 
Q 384 1609 779 1909 
Q 1175 2209 1959 2209 
L 2766 2209 
L 2766 2266 
Q 2766 2663 2505 2880 
Q 2244 3097 1772 3097 
Q 1472 3097 1187 3025 
Q 903 2953 641 2809 
L 641 3341 
Q 956 3463 1253 3523 
Q 1550 3584 1831 3584 
Q 2591 3584 2966 3190 
Q 3341 2797 3341 1997 
z
" transform="scale(0.015625)"/>
      <path id="DejaVuSans-63" d="M 3122 3366 
L 3122 2828 
Q 2878 2963 2633 3030 
Q 2388 3097 2138 3097 
Q 1578 3097 1268 2742 
Q 959 2388 959 1747 
Q 959 1106 1268 751 
Q 1578 397 2138 397 
Q 2388 397 2633 464 
Q 2878 531 3122 666 
L 3122 134 
Q 2881 22 2623 -34 
Q 2366 -91 2075 -91 
Q 1284 -91 818 406 
Q 353 903 353 1747 
Q 353 2603 823 3093 
Q 1294 3584 2113 3584 
Q 2378 3584 2631 3529 
Q 2884 3475 3122 3366 
z
" transform="scale(0.015625)"/>
     </defs>
     <use xlink:href="#DejaVuSans-45"/>
     <use xlink:href="#DejaVuSans-78" x="63.183594"/>
     <use xlink:href="#DejaVuSans-74" x="122.363281"/>
     <use xlink:href="#DejaVuSans-72" x="161.572266"/>
     <use xlink:href="#DejaVuSans-61" x="202.685547"/>
     <use xlink:href="#DejaVuSans-63" x="263.964844"/>
     <use xlink:href="#DejaVuSans-74" x="318.945312"/>
    </g>
   </g>
   <g id="legend_1">
    <g id="patch_7">
     <path d="M 556.034375 186.789375 
L 634 186.789375 
Q 638 186.789375 638 182.789375 
L 638 96.720625 
Q 638 92.720625 634 92.720625 
L 556.034375 92.720625 
Q 552.034375 92.720625 552.034375 96.720625 
L 552.034375 182.789375 
Q 552.034375 186.789375 556.034375 186.789375 
z
" style="fill: #ffffff; opacity: 0.8; stroke: #cccccc; stroke-linejoin: miter"/>
    </g>
    <g id="line2d_14">
     <path d="M 560.034375 108.9175 
L 580.034375 108.9175 
L 600.034375 108.9175 
" style="fill: none; stroke: #1f77b4; stroke-width: 1.5; stroke-linecap: square"/>
    </g>
    <g id="text_12">
     <!-- A -->
     <g transform="translate(616.034375 115.9175) scale(0.2 -0.2)">
      <defs>
       <path id="DejaVuSans-41" d="M 2188 4044 
L 1331 1722 
L 3047 1722 
L 2188 4044 
z
M 1831 4666 
L 2547 4666 
L 4325 0 
L 3669 0 
L 3244 1197 
L 1141 1197 
L 716 0 
L 50 0 
L 1831 4666 
z
" transform="scale(0.015625)"/>
      </defs>
      <use xlink:href="#DejaVuSans-41"/>
     </g>
    </g>
    <g id="line2d_15">
     <path d="M 560.034375 138.27375 
L 580.034375 138.27375 
L 600.034375 138.27375 
" style="fill: none; stroke: #ff7f0e; stroke-width: 1.5; stroke-linecap: square"/>
    </g>
    <g id="text_13">
     <!-- B -->
     <g transform="translate(616.034375 145.27375) scale(0.2 -0.2)">
      <defs>
       <path id="DejaVuSans-42" d="M 1259 2228 
L 1259 519 
L 2272 519 
Q 2781 519 3026 730 
Q 3272 941 3272 1375 
Q 3272 1813 3026 2020 
Q 2781 2228 2272 2228 
L 1259 2228 
z
M 1259 4147 
L 1259 2741 
L 2194 2741 
Q 2656 2741 2882 2914 
Q 3109 3088 3109 3444 
Q 3109 3797 2882 3972 
Q 2656 4147 2194 4147 
L 1259 4147 
z
M 628 4666 
L 2241 4666 
Q 2963 4666 3353 4366 
Q 3744 4066 3744 3513 
Q 3744 3084 3544 2831 
Q 3344 2578 2956 2516 
Q 3422 2416 3680 2098 
Q 3938 1781 3938 1306 
Q 3938 681 3513 340 
Q 3088 0 2303 0 
L 628 0 
L 628 4666 
z
" transform="scale(0.015625)"/>
      </defs>
      <use xlink:href="#DejaVuSans-42"/>
     </g>
    </g>
    <g id="line2d_16">
     <path d="M 560.034375 167.63 
L 580.034375 167.63 
L 600.034375 167.63 
" style="fill: none; stroke: #2ca02c; stroke-width: 1.5; stroke-linecap: square"/>
    </g>
    <g id="text_14">
     <!-- C -->
     <g transform="translate(616.034375 174.63) scale(0.2 -0.2)">
      <defs>
       <path id="DejaVuSans-43" d="M 4122 4306 
L 4122 3641 
Q 3803 3938 3442 4084 
Q 3081 4231 2675 4231 
Q 1875 4231 1450 3742 
Q 1025 3253 1025 2328 
Q 1025 1406 1450 917 
Q 1875 428 2675 428 
Q 3081 428 3442 575 
Q 3803 722 4122 1019 
L 4122 359 
Q 3791 134 3420 21 
Q 3050 -91 2638 -91 
Q 1578 -91 968 557 
Q 359 1206 359 2328 
Q 359 3453 968 4101 
Q 1578 4750 2638 4750 
Q 3056 4750 3426 4639 
Q 3797 4528 4122 4306 
z
" transform="scale(0.015625)"/>
      </defs>
      <use xlink:href="#DejaVuSans-43"/>
     </g>
    </g>
   </g>
  </g>
  <g id="axes_2">
   <g id="patch_8">
    <path d="M 108 441 
L 648 441 
L 648 282.45 
L 108 282.45 
z
" style="fill: #ffffff"/>
   </g>
   <g id="matplotlib.axis_3">
    <g id="xtick_9">
     <g id="line2d_17">
      <g>
       <use xlink:href="#medc5309f86" x="132.545455" y="441" style="stroke: #000000; stroke-width: 0.8"/>
      </g>
     </g>
     <g id="text_15">
      <!-- 0 -->
      <g transform="translate(126.182955 463.196875) scale(0.2 -0.2)">
       <use xlink:href="#DejaVuSans-30"/>
      </g>
     </g>
    </g>
    <g id="xtick_10">
     <g id="line2d_18">
      <g>
       <use xlink:href="#medc5309f86" x="200.378685" y="441" style="stroke: #000000; stroke-width: 0.8"/>
      </g>
     </g>
     <g id="text_16">
      <!-- 100 -->
      <g transform="translate(181.291185 463.196875) scale(0.2 -0.2)">
       <use xlink:href="#DejaVuSans-31"/>
       <use xlink:href="#DejaVuSans-30" x="63.623047"/>
       <use xlink:href="#DejaVuSans-30" x="127.246094"/>
      </g>
     </g>
    </g>
    <g id="xtick_11">
     <g id="line2d_19">
      <g>
       <use xlink:href="#medc5309f86" x="268.211916" y="441" style="stroke: #000000; stroke-width: 0.8"/>
      </g>
     </g>
     <g id="text_17">
      <!-- 200 -->
      <g transform="translate(249.124416 463.196875) scale(0.2 -0.2)">
       <use xlink:href="#DejaVuSans-32"/>
       <use xlink:href="#DejaVuSans-30" x="63.623047"/>
       <use xlink:href="#DejaVuSans-30" x="127.246094"/>
      </g>
     </g>
    </g>
    <g id="xtick_12">
     <g id="line2d_20">
      <g>
       <use xlink:href="#medc5309f86" x="336.045147" y="441" style="stroke: #000000; stroke-width: 0.8"/>
      </g>
     </g>
     <g id="text_18">
      <!-- 300 -->
      <g transform="translate(316.957647 463.196875) scale(0.2 -0.2)">
       <use xlink:href="#DejaVuSans-33"/>
       <use xlink:href="#DejaVuSans-30" x="63.623047"/>
       <use xlink:href="#DejaVuSans-30" x="127.246094"/>
      </g>
     </g>
    </g>
    <g id="xtick_13">
     <g id="line2d_21">
      <g>
       <use xlink:href="#medc5309f86" x="403.878378" y="441" style="stroke: #000000; stroke-width: 0.8"/>
      </g>
     </g>
     <g id="text_19">
      <!-- 400 -->
      <g transform="translate(384.790878 463.196875) scale(0.2 -0.2)">
       <use xlink:href="#DejaVuSans-34"/>
       <use xlink:href="#DejaVuSans-30" x="63.623047"/>
       <use xlink:href="#DejaVuSans-30" x="127.246094"/>
      </g>
     </g>
    </g>
    <g id="xtick_14">
     <g id="line2d_22">
      <g>
       <use xlink:href="#medc5309f86" x="471.711608" y="441" style="stroke: #000000; stroke-width: 0.8"/>
      </g>
     </g>
     <g id="text_20">
      <!-- 500 -->
      <g transform="translate(452.624108 463.196875) scale(0.2 -0.2)">
       <use xlink:href="#DejaVuSans-35"/>
       <use xlink:href="#DejaVuSans-30" x="63.623047"/>
       <use xlink:href="#DejaVuSans-30" x="127.246094"/>
      </g>
     </g>
    </g>
    <g id="xtick_15">
     <g id="line2d_23">
      <g>
       <use xlink:href="#medc5309f86" x="539.544839" y="441" style="stroke: #000000; stroke-width: 0.8"/>
      </g>
     </g>
     <g id="text_21">
      <!-- 600 -->
      <g transform="translate(520.457339 463.196875) scale(0.2 -0.2)">
       <use xlink:href="#DejaVuSans-36"/>
       <use xlink:href="#DejaVuSans-30" x="63.623047"/>
       <use xlink:href="#DejaVuSans-30" x="127.246094"/>
      </g>
     </g>
    </g>
    <g id="xtick_16">
     <g id="line2d_24">
      <g>
       <use xlink:href="#medc5309f86" x="607.37807" y="441" style="stroke: #000000; stroke-width: 0.8"/>
      </g>
     </g>
     <g id="text_22">
      <!-- 700 -->
      <g transform="translate(588.29057 463.196875) scale(0.2 -0.2)">
       <use xlink:href="#DejaVuSans-37"/>
       <use xlink:href="#DejaVuSans-30" x="63.623047"/>
       <use xlink:href="#DejaVuSans-30" x="127.246094"/>
      </g>
     </g>
    </g>
    <g id="text_23">
     <!-- Time / s -->
     <g transform="translate(338.598437 486.553125) scale(0.2 -0.2)">
      <defs>
       <path id="DejaVuSans-54" d="M -19 4666 
L 3928 4666 
L 3928 4134 
L 2272 4134 
L 2272 0 
L 1638 0 
L 1638 4134 
L -19 4134 
L -19 4666 
z
" transform="scale(0.015625)"/>
       <path id="DejaVuSans-69" d="M 603 3500 
L 1178 3500 
L 1178 0 
L 603 0 
L 603 3500 
z
M 603 4863 
L 1178 4863 
L 1178 4134 
L 603 4134 
L 603 4863 
z
" transform="scale(0.015625)"/>
       <path id="DejaVuSans-6d" d="M 3328 2828 
Q 3544 3216 3844 3400 
Q 4144 3584 4550 3584 
Q 5097 3584 5394 3201 
Q 5691 2819 5691 2113 
L 5691 0 
L 5113 0 
L 5113 2094 
Q 5113 2597 4934 2840 
Q 4756 3084 4391 3084 
Q 3944 3084 3684 2787 
Q 3425 2491 3425 1978 
L 3425 0 
L 2847 0 
L 2847 2094 
Q 2847 2600 2669 2842 
Q 2491 3084 2119 3084 
Q 1678 3084 1418 2786 
Q 1159 2488 1159 1978 
L 1159 0 
L 581 0 
L 581 3500 
L 1159 3500 
L 1159 2956 
Q 1356 3278 1631 3431 
Q 1906 3584 2284 3584 
Q 2666 3584 2933 3390 
Q 3200 3197 3328 2828 
z
" transform="scale(0.015625)"/>
       <path id="DejaVuSans-65" d="M 3597 1894 
L 3597 1613 
L 953 1613 
Q 991 1019 1311 708 
Q 1631 397 2203 397 
Q 2534 397 2845 478 
Q 3156 559 3463 722 
L 3463 178 
Q 3153 47 2828 -22 
Q 2503 -91 2169 -91 
Q 1331 -91 842 396 
Q 353 884 353 1716 
Q 353 2575 817 3079 
Q 1281 3584 2069 3584 
Q 2775 3584 3186 3129 
Q 3597 2675 3597 1894 
z
M 3022 2063 
Q 3016 2534 2758 2815 
Q 2500 3097 2075 3097 
Q 1594 3097 1305 2825 
Q 1016 2553 972 2059 
L 3022 2063 
z
" transform="scale(0.015625)"/>
       <path id="DejaVuSans-20" transform="scale(0.015625)"/>
       <path id="DejaVuSans-2f" d="M 1625 4666 
L 2156 4666 
L 531 -594 
L 0 -594 
L 1625 4666 
z
" transform="scale(0.015625)"/>
       <path id="DejaVuSans-73" d="M 2834 3397 
L 2834 2853 
Q 2591 2978 2328 3040 
Q 2066 3103 1784 3103 
Q 1356 3103 1142 2972 
Q 928 2841 928 2578 
Q 928 2378 1081 2264 
Q 1234 2150 1697 2047 
L 1894 2003 
Q 2506 1872 2764 1633 
Q 3022 1394 3022 966 
Q 3022 478 2636 193 
Q 2250 -91 1575 -91 
Q 1294 -91 989 -36 
Q 684 19 347 128 
L 347 722 
Q 666 556 975 473 
Q 1284 391 1588 391 
Q 1994 391 2212 530 
Q 2431 669 2431 922 
Q 2431 1156 2273 1281 
Q 2116 1406 1581 1522 
L 1381 1569 
Q 847 1681 609 1914 
Q 372 2147 372 2553 
Q 372 3047 722 3315 
Q 1072 3584 1716 3584 
Q 2034 3584 2315 3537 
Q 2597 3491 2834 3397 
z
" transform="scale(0.015625)"/>
      </defs>
      <use xlink:href="#DejaVuSans-54"/>
      <use xlink:href="#DejaVuSans-69" x="57.958984"/>
      <use xlink:href="#DejaVuSans-6d" x="85.742188"/>
      <use xlink:href="#DejaVuSans-65" x="183.154297"/>
      <use xlink:href="#DejaVuSans-20" x="244.677734"/>
      <use xlink:href="#DejaVuSans-2f" x="276.464844"/>
      <use xlink:href="#DejaVuSans-20" x="310.15625"/>
      <use xlink:href="#DejaVuSans-73" x="341.943359"/>
     </g>
    </g>
   </g>
   <g id="matplotlib.axis_4">
    <g id="ytick_3">
     <g id="line2d_25">
      <g>
       <use xlink:href="#mf6cdde20ae" x="108" y="430.159061" style="stroke: #000000; stroke-width: 0.8"/>
      </g>
     </g>
     <g id="text_24">
      <!-- 0.2 -->
      <g transform="translate(69.19375 437.757499) scale(0.2 -0.2)">
       <use xlink:href="#DejaVuSans-30"/>
       <use xlink:href="#DejaVuSans-2e" x="63.623047"/>
       <use xlink:href="#DejaVuSans-32" x="95.410156"/>
      </g>
     </g>
    </g>
    <g id="ytick_4">
     <g id="line2d_26">
      <g>
       <use xlink:href="#mf6cdde20ae" x="108" y="367.576479" style="stroke: #000000; stroke-width: 0.8"/>
      </g>
     </g>
     <g id="text_25">
      <!-- 0.4 -->
      <g transform="translate(69.19375 375.174916) scale(0.2 -0.2)">
       <use xlink:href="#DejaVuSans-30"/>
       <use xlink:href="#DejaVuSans-2e" x="63.623047"/>
       <use xlink:href="#DejaVuSans-34" x="95.410156"/>
      </g>
     </g>
    </g>
    <g id="ytick_5">
     <g id="line2d_27">
      <g>
       <use xlink:href="#mf6cdde20ae" x="108" y="304.993896" style="stroke: #000000; stroke-width: 0.8"/>
      </g>
     </g>
     <g id="text_26">
      <!-- 0.6 -->
      <g transform="translate(69.19375 312.592333) scale(0.2 -0.2)">
       <use xlink:href="#DejaVuSans-30"/>
       <use xlink:href="#DejaVuSans-2e" x="63.623047"/>
       <use xlink:href="#DejaVuSans-36" x="95.410156"/>
      </g>
     </g>
    </g>
   </g>
   <g id="line2d_28">
    <path d="M 132.545455 289.71564 
L 132.613288 289.656851 
L 132.748954 321.124942 
L 133.29162 321.186483 
L 133.834286 322.157287 
L 134.851784 323.838545 
L 135.937116 325.179864 
L 137.361614 326.576224 
L 139.328778 328.183633 
L 142.10994 330.151673 
L 145.908601 332.550431 
L 151.199593 335.612309 
L 155.744419 338.014611 
L 158.932581 339.461805 
L 161.645911 340.453717 
L 164.15574 341.13487 
L 166.597736 341.568752 
L 169.107566 341.789662 
L 171.820895 341.800161 
L 174.805557 341.581165 
L 178.061552 341.11563 
L 181.58888 340.383272 
L 185.184042 339.408292 
L 188.71137 338.224364 
L 192.238698 336.806905 
L 195.833859 335.118275 
L 199.564687 333.112877 
L 203.499014 330.741768 
L 207.908174 327.818359 
L 213.131333 324.078117 
L 220.050322 318.830269 
L 229.750474 311.176994 
L 239.247127 303.415825 
L 248.608112 295.470353 
L 255.323602 289.65684 
L 255.459269 321.124935 
L 256.001935 321.186476 
L 256.5446 322.15728 
L 257.562099 323.838538 
L 258.647431 325.179857 
L 260.071928 326.576217 
L 262.039092 328.183626 
L 264.820255 330.151666 
L 268.618915 332.550424 
L 273.909907 335.612303 
L 278.454734 338.014605 
L 281.642896 339.461799 
L 284.356225 340.45371 
L 286.866054 341.134864 
L 289.308051 341.568746 
L 291.81788 341.789656 
L 294.53121 341.800154 
L 297.515872 341.581158 
L 300.771867 341.115623 
L 304.299195 340.383265 
L 307.894356 339.408285 
L 311.421684 338.224357 
L 314.949012 336.806898 
L 318.544173 335.118268 
L 322.275001 333.112869 
L 326.209328 330.74176 
L 330.618488 327.81835 
L 335.841647 324.078109 
L 342.760637 318.830261 
L 352.460789 311.176985 
L 361.957441 303.415816 
L 371.318427 295.470345 
L 378.033917 289.656832 
L 378.169583 321.124929 
L 378.712249 321.18647 
L 379.254915 322.157274 
L 380.272413 323.838532 
L 381.357745 325.179851 
L 382.782243 326.576211 
L 384.749406 328.183621 
L 387.530569 330.151661 
L 391.32923 332.550419 
L 396.620222 335.612298 
L 401.165048 338.0146 
L 404.35321 339.461793 
L 407.066539 340.453705 
L 409.576369 341.134858 
L 412.018365 341.56874 
L 414.528195 341.78965 
L 417.241524 341.800149 
L 420.226186 341.581153 
L 423.482181 341.115618 
L 427.009509 340.383259 
L 430.60467 339.408279 
L 434.131998 338.224351 
L 437.659326 336.806892 
L 441.254488 335.118261 
L 444.985315 333.112863 
L 448.919643 330.741753 
L 453.328803 327.818344 
L 458.551962 324.078102 
L 465.470951 318.830254 
L 475.171103 311.176978 
L 484.667755 303.415809 
L 494.028741 295.470337 
L 500.744231 289.656824 
L 500.879897 321.124924 
L 501.422563 321.186465 
L 501.965229 322.157269 
L 502.982728 323.838527 
L 504.068059 325.179846 
L 505.492557 326.576207 
L 507.459721 328.183616 
L 510.240883 330.151656 
L 514.039544 332.550414 
L 519.330536 335.612293 
L 523.875363 338.014595 
L 527.063525 339.461789 
L 529.776854 340.4537 
L 532.286683 341.134854 
L 534.72868 341.568736 
L 537.238509 341.789646 
L 539.951838 341.800144 
L 542.936501 341.581148 
L 546.192496 341.115613 
L 549.719824 340.383254 
L 553.314985 339.408274 
L 556.842313 338.224345 
L 560.369641 336.806886 
L 563.964802 335.118256 
L 567.69563 333.112857 
L 571.629957 330.741747 
L 576.039117 327.818338 
L 581.262276 324.078096 
L 588.181265 318.830248 
L 597.881417 311.176972 
L 607.37807 303.415803 
L 616.739056 295.470331 
L 623.454545 289.656818 
L 623.454545 289.656818 
" clip-path="url(#pcf36c4d09e)" style="fill: none; stroke: #1f77b4; stroke-width: 1.5; stroke-linecap: square"/>
   </g>
   <g id="line2d_29">
    <path d="M 132.545455 337.552085 
L 132.613288 337.632321 
L 132.748954 433.793182 
L 133.223787 433.792104 
L 133.49512 432.731367 
L 134.987451 424.970086 
L 137.632947 412.024532 
L 141.431608 394.55241 
L 144.755436 380.241243 
L 147.468765 369.493067 
L 149.910762 360.712756 
L 152.149258 353.473431 
L 154.319922 347.180859 
L 156.490585 341.544307 
L 158.729082 336.329132 
L 161.103245 331.352253 
L 163.613074 326.598185 
L 166.326403 321.939752 
L 169.107566 317.608615 
L 171.888728 313.687577 
L 174.602058 310.243647 
L 177.247554 307.245283 
L 179.757383 304.72687 
L 182.267213 302.522035 
L 184.709209 300.671362 
L 187.083372 299.14276 
L 189.457535 297.872327 
L 191.831698 296.851171 
L 194.205861 296.070706 
L 196.580024 295.523067 
L 198.954187 295.201353 
L 201.328351 295.099715 
L 203.770347 295.219655 
L 206.212343 295.56285 
L 208.722173 296.144083 
L 211.232002 296.952748 
L 213.809665 298.014986 
L 216.522994 299.379875 
L 219.304157 301.031886 
L 222.220986 303.026004 
L 225.341314 305.436044 
L 228.665143 308.290509 
L 232.328137 311.740063 
L 236.398131 315.890013 
L 241.078624 320.990158 
L 246.980115 327.766964 
L 255.323602 337.632322 
L 255.459269 433.79318 
L 255.934101 433.792102 
L 256.205434 432.731365 
L 257.697765 424.970084 
L 260.343261 412.024531 
L 264.141922 394.552408 
L 267.46575 380.241242 
L 270.17908 369.493065 
L 272.621076 360.712754 
L 274.859573 353.47343 
L 277.030236 347.180858 
L 279.200899 341.544306 
L 281.439396 336.329131 
L 283.813559 331.352252 
L 286.323389 326.598184 
L 289.036718 321.939751 
L 291.81788 317.608614 
L 294.599043 313.687577 
L 297.312372 310.243647 
L 299.957868 307.245283 
L 302.467698 304.72687 
L 304.977527 302.522036 
L 307.419523 300.671362 
L 309.793686 299.14276 
L 312.16785 297.872327 
L 314.542013 296.851171 
L 316.916176 296.070707 
L 319.290339 295.523068 
L 321.664502 295.201354 
L 324.038665 295.099716 
L 326.480661 295.219656 
L 328.922658 295.562851 
L 331.432487 296.144084 
L 333.942317 296.952749 
L 336.519979 298.014987 
L 339.233309 299.379875 
L 342.014471 301.031886 
L 344.9313 303.026005 
L 348.051629 305.436045 
L 351.375457 308.29051 
L 355.038451 311.740064 
L 359.108445 315.890013 
L 363.788938 320.990159 
L 369.690429 327.766965 
L 378.033917 337.632323 
L 378.169583 433.793179 
L 378.644416 433.792101 
L 378.915749 432.731364 
L 380.40808 424.970083 
L 383.053576 412.024529 
L 386.852237 394.552407 
L 390.176065 380.241241 
L 392.889394 369.493064 
L 395.33139 360.712753 
L 397.569887 353.473429 
L 399.74055 347.180857 
L 401.911214 341.544306 
L 404.14971 336.329131 
L 406.523874 331.352252 
L 409.033703 326.598184 
L 411.747032 321.939751 
L 414.528195 317.608614 
L 417.309357 313.687577 
L 420.022686 310.243647 
L 422.668182 307.245283 
L 425.178012 304.72687 
L 427.687842 302.522036 
L 430.129838 300.671362 
L 432.504001 299.14276 
L 434.878164 297.872327 
L 437.252327 296.851172 
L 439.62649 296.070707 
L 442.000653 295.523068 
L 444.374816 295.201354 
L 446.748979 295.099716 
L 449.190976 295.219656 
L 451.632972 295.562851 
L 454.142802 296.144085 
L 456.652631 296.95275 
L 459.230294 298.014987 
L 461.943623 299.379876 
L 464.724786 301.031887 
L 467.641614 303.026005 
L 470.761943 305.436046 
L 474.085771 308.29051 
L 477.748766 311.740065 
L 481.81876 315.890014 
L 486.499253 320.990159 
L 492.400744 327.766966 
L 500.744231 337.632323 
L 500.879897 433.793178 
L 501.35473 433.7921 
L 501.626063 432.731362 
L 503.118394 424.970082 
L 505.76389 412.024528 
L 509.562551 394.552405 
L 512.886379 380.241239 
L 515.599709 369.493063 
L 518.041705 360.712752 
L 520.280201 353.473428 
L 522.450865 347.180856 
L 524.621528 341.544305 
L 526.860025 336.32913 
L 529.234188 331.352251 
L 531.744017 326.598183 
L 534.457347 321.939751 
L 537.238509 317.608614 
L 540.019672 313.687577 
L 542.733001 310.243647 
L 545.378497 307.245283 
L 547.888326 304.72687 
L 550.398156 302.522036 
L 552.840152 300.671362 
L 555.214315 299.142761 
L 557.588478 297.872328 
L 559.962641 296.851172 
L 562.336805 296.070708 
L 564.710968 295.523069 
L 567.085131 295.201355 
L 569.459294 295.099717 
L 571.90129 295.219657 
L 574.343286 295.562851 
L 576.853116 296.144085 
L 579.362945 296.95275 
L 581.940608 298.014988 
L 584.653937 299.379876 
L 587.4351 301.031887 
L 590.351929 303.026006 
L 593.472257 305.436046 
L 596.796086 308.290511 
L 600.45908 311.740065 
L 604.529074 315.890014 
L 609.209567 320.99016 
L 615.111058 327.766966 
L 623.454545 337.632324 
L 623.454545 337.632324 
" clip-path="url(#pcf36c4d09e)" style="fill: none; stroke: #ff7f0e; stroke-width: 1.5; stroke-linecap: square"/>
   </g>
   <g id="line2d_30">
    <path d="M 132.545455 348.543475 
L 132.613288 348.619596 
L 132.748954 398.134797 
L 133.223787 398.133614 
L 133.49512 397.010339 
L 137.361614 377.888929 
L 139.600111 368.602123 
L 141.90644 359.979584 
L 144.077104 352.703773 
L 146.112101 346.646356 
L 148.011431 341.685416 
L 149.775095 337.685407 
L 151.470926 334.372982 
L 153.166757 331.542061 
L 154.862587 329.13209 
L 156.694085 326.920389 
L 158.661248 324.895375 
L 160.967578 322.846338 
L 164.020074 320.453967 
L 169.107566 316.791541 
L 175.619556 312.349938 
L 179.621717 309.877654 
L 182.945545 308.082498 
L 185.930207 306.721551 
L 188.71137 305.693013 
L 191.424699 304.925275 
L 194.070195 304.4064 
L 196.715691 304.115815 
L 199.361187 304.053192 
L 202.006683 304.217896 
L 204.652179 304.609947 
L 207.297675 305.230384 
L 209.943171 306.08106 
L 212.588667 307.163984 
L 215.301996 308.517215 
L 218.083159 310.158475 
L 220.932154 312.102373 
L 223.916816 314.414096 
L 227.037145 317.114219 
L 230.428807 320.346945 
L 234.227467 324.283119 
L 238.772294 329.330731 
L 245.284284 336.935782 
L 254.984436 348.238417 
L 255.323602 348.619596 
L 255.459269 398.134797 
L 255.934101 398.133613 
L 256.205434 397.010338 
L 260.071928 377.888929 
L 262.310425 368.602122 
L 264.616755 359.979583 
L 266.787418 352.703773 
L 268.822415 346.646356 
L 270.721746 341.685416 
L 272.48541 337.685406 
L 274.18124 334.372981 
L 275.877071 331.542061 
L 277.572902 329.13209 
L 279.404399 326.920389 
L 281.371563 324.895375 
L 283.677893 322.846338 
L 286.730388 320.453967 
L 291.81788 316.791541 
L 298.32987 312.349938 
L 302.332031 309.877654 
L 305.655859 308.082498 
L 308.640522 306.721551 
L 311.421684 305.693013 
L 314.135013 304.925275 
L 316.780509 304.4064 
L 319.426005 304.115815 
L 322.071501 304.053192 
L 324.716997 304.217896 
L 327.362493 304.609947 
L 330.007989 305.230384 
L 332.653485 306.08106 
L 335.298981 307.163984 
L 338.01231 308.517216 
L 340.793473 310.158475 
L 343.642469 312.102374 
L 346.627131 314.414096 
L 349.747459 317.114219 
L 353.139121 320.346945 
L 356.937782 324.283119 
L 361.482608 329.330731 
L 367.994598 336.935782 
L 377.69475 348.238417 
L 378.033917 348.619597 
L 378.169583 398.134796 
L 378.644416 398.133613 
L 378.915749 397.010338 
L 382.782243 377.888928 
L 385.020739 368.602122 
L 387.327069 359.979583 
L 389.497733 352.703772 
L 391.53273 346.646355 
L 393.43206 341.685415 
L 395.195724 337.685406 
L 396.891555 334.372981 
L 398.587386 331.542061 
L 400.283216 329.13209 
L 402.114714 326.920389 
L 404.081877 324.895375 
L 406.388207 322.846338 
L 409.440702 320.453967 
L 414.528195 316.791541 
L 421.040185 312.349938 
L 425.042346 309.877654 
L 428.366174 308.082499 
L 431.350836 306.721551 
L 434.131998 305.693013 
L 436.845328 304.925275 
L 439.490824 304.4064 
L 442.13632 304.115815 
L 444.781816 304.053192 
L 447.427312 304.217896 
L 450.072808 304.609947 
L 452.718304 305.230384 
L 455.3638 306.08106 
L 458.009296 307.163984 
L 460.722625 308.517216 
L 463.503787 310.158475 
L 466.352783 312.102374 
L 469.337445 314.414096 
L 472.457774 317.114219 
L 475.849435 320.346945 
L 479.648096 324.283119 
L 484.192923 329.330731 
L 490.704913 336.935782 
L 500.405065 348.238417 
L 500.744231 348.619597 
L 500.879897 398.134795 
L 501.35473 398.133612 
L 501.626063 397.010337 
L 505.492557 377.888928 
L 507.731054 368.602121 
L 510.037384 359.979582 
L 512.208047 352.703772 
L 514.243044 346.646355 
L 516.142374 341.685415 
L 517.906038 337.685406 
L 519.601869 334.372981 
L 521.2977 331.54206 
L 522.993531 329.132089 
L 524.825028 326.920389 
L 526.792192 324.895374 
L 529.098521 322.846338 
L 532.151017 320.453967 
L 537.238509 316.791541 
L 543.750499 312.349938 
L 547.75266 309.877654 
L 551.076488 308.082499 
L 554.06115 306.721551 
L 556.842313 305.693013 
L 559.555642 304.925275 
L 562.201138 304.4064 
L 564.846634 304.115815 
L 567.49213 304.053192 
L 570.137626 304.217896 
L 572.783122 304.609947 
L 575.428618 305.230384 
L 578.074114 306.08106 
L 580.71961 307.163985 
L 583.432939 308.517216 
L 586.214102 310.158475 
L 589.063097 312.102374 
L 592.04776 314.414096 
L 595.168088 317.114219 
L 598.55975 320.346945 
L 602.358411 324.283119 
L 606.903237 329.330732 
L 613.415227 336.935782 
L 623.115379 348.238417 
L 623.454545 348.619597 
L 623.454545 348.619597 
" clip-path="url(#pcf36c4d09e)" style="fill: none; stroke: #2ca02c; stroke-width: 1.5; stroke-linecap: square"/>
   </g>
   <g id="patch_9">
    <path d="M 108 441 
L 108 282.45 
" style="fill: none; stroke: #000000; stroke-width: 0.8; stroke-linejoin: miter; stroke-linecap: square"/>
   </g>
   <g id="patch_10">
    <path d="M 648 441 
L 648 282.45 
" style="fill: none; stroke: #000000; stroke-width: 0.8; stroke-linejoin: miter; stroke-linecap: square"/>
   </g>
   <g id="patch_11">
    <path d="M 108 441 
L 648 441 
" style="fill: none; stroke: #000000; stroke-width: 0.8; stroke-linejoin: miter; stroke-linecap: square"/>
   </g>
   <g id="patch_12">
    <path d="M 108 282.45 
L 648 282.45 
" style="fill: none; stroke: #000000; stroke-width: 0.8; stroke-linejoin: miter; stroke-linecap: square"/>
   </g>
   <g id="text_27">
    <!-- Raffinate -->
    <g transform="translate(332.790625 276.45) scale(0.2 -0.2)">
     <defs>
      <path id="DejaVuSans-52" d="M 2841 2188 
Q 3044 2119 3236 1894 
Q 3428 1669 3622 1275 
L 4263 0 
L 3584 0 
L 2988 1197 
Q 2756 1666 2539 1819 
Q 2322 1972 1947 1972 
L 1259 1972 
L 1259 0 
L 628 0 
L 628 4666 
L 2053 4666 
Q 2853 4666 3247 4331 
Q 3641 3997 3641 3322 
Q 3641 2881 3436 2590 
Q 3231 2300 2841 2188 
z
M 1259 4147 
L 1259 2491 
L 2053 2491 
Q 2509 2491 2742 2702 
Q 2975 2913 2975 3322 
Q 2975 3731 2742 3939 
Q 2509 4147 2053 4147 
L 1259 4147 
z
" transform="scale(0.015625)"/>
      <path id="DejaVuSans-66" d="M 2375 4863 
L 2375 4384 
L 1825 4384 
Q 1516 4384 1395 4259 
Q 1275 4134 1275 3809 
L 1275 3500 
L 2222 3500 
L 2222 3053 
L 1275 3053 
L 1275 0 
L 697 0 
L 697 3053 
L 147 3053 
L 147 3500 
L 697 3500 
L 697 3744 
Q 697 4328 969 4595 
Q 1241 4863 1831 4863 
L 2375 4863 
z
" transform="scale(0.015625)"/>
      <path id="DejaVuSans-6e" d="M 3513 2113 
L 3513 0 
L 2938 0 
L 2938 2094 
Q 2938 2591 2744 2837 
Q 2550 3084 2163 3084 
Q 1697 3084 1428 2787 
Q 1159 2491 1159 1978 
L 1159 0 
L 581 0 
L 581 3500 
L 1159 3500 
L 1159 2956 
Q 1366 3272 1645 3428 
Q 1925 3584 2291 3584 
Q 2894 3584 3203 3211 
Q 3513 2838 3513 2113 
z
" transform="scale(0.015625)"/>
     </defs>
     <use xlink:href="#DejaVuSans-52"/>
     <use xlink:href="#DejaVuSans-61" x="67.232422"/>
     <use xlink:href="#DejaVuSans-66" x="128.511719"/>
     <use xlink:href="#DejaVuSans-66" x="163.716797"/>
     <use xlink:href="#DejaVuSans-69" x="198.921875"/>
     <use xlink:href="#DejaVuSans-6e" x="226.705078"/>
     <use xlink:href="#DejaVuSans-61" x="290.083984"/>
     <use xlink:href="#DejaVuSans-74" x="351.363281"/>
     <use xlink:href="#DejaVuSans-65" x="390.572266"/>
    </g>
   </g>
  </g>
  <g id="text_28">
   <!-- Concentration / mM -->
   <g transform="translate(59.51875 350.835938) rotate(-90) scale(0.2 -0.2)">
    <defs>
     <path id="DejaVuSans-6f" d="M 1959 3097 
Q 1497 3097 1228 2736 
Q 959 2375 959 1747 
Q 959 1119 1226 758 
Q 1494 397 1959 397 
Q 2419 397 2687 759 
Q 2956 1122 2956 1747 
Q 2956 2369 2687 2733 
Q 2419 3097 1959 3097 
z
M 1959 3584 
Q 2709 3584 3137 3096 
Q 3566 2609 3566 1747 
Q 3566 888 3137 398 
Q 2709 -91 1959 -91 
Q 1206 -91 779 398 
Q 353 888 353 1747 
Q 353 2609 779 3096 
Q 1206 3584 1959 3584 
z
" transform="scale(0.015625)"/>
     <path id="DejaVuSans-4d" d="M 628 4666 
L 1569 4666 
L 2759 1491 
L 3956 4666 
L 4897 4666 
L 4897 0 
L 4281 0 
L 4281 4097 
L 3078 897 
L 2444 897 
L 1241 4097 
L 1241 0 
L 628 0 
L 628 4666 
z
" transform="scale(0.015625)"/>
    </defs>
    <use xlink:href="#DejaVuSans-43"/>
    <use xlink:href="#DejaVuSans-6f" x="69.824219"/>
    <use xlink:href="#DejaVuSans-6e" x="131.005859"/>
    <use xlink:href="#DejaVuSans-63" x="194.384766"/>
    <use xlink:href="#DejaVuSans-65" x="249.365234"/>
    <use xlink:href="#DejaVuSans-6e" x="310.888672"/>
    <use xlink:href="#DejaVuSans-74" x="374.267578"/>
    <use xlink:href="#DejaVuSans-72" x="413.476562"/>
    <use xlink:href="#DejaVuSans-61" x="454.589844"/>
    <use xlink:href="#DejaVuSans-74" x="515.869141"/>
    <use xlink:href="#DejaVuSans-69" x="555.078125"/>
    <use xlink:href="#DejaVuSans-6f" x="582.861328"/>
    <use xlink:href="#DejaVuSans-6e" x="644.042969"/>
    <use xlink:href="#DejaVuSans-20" x="707.421875"/>
    <use xlink:href="#DejaVuSans-2f" x="739.208984"/>
    <use xlink:href="#DejaVuSans-20" x="772.900391"/>
    <use xlink:href="#DejaVuSans-6d" x="804.6875"/>
    <use xlink:href="#DejaVuSans-4d" x="902.099609"/>
   </g>
  </g>
 </g>
 <defs>
  <clipPath id="pe020280f78">
   <rect x="108" y="60.48" width="540" height="158.55"/>
  </clipPath>
  <clipPath id="pcf36c4d09e">
   <rect x="108" y="282.45" width="540" height="158.55"/>
  </clipPath>
 </defs>
</svg>
