<?xml version="1.0" encoding="utf-8" standalone="no"?>
<!DOCTYPE svg PUBLIC "-//W3C//DTD SVG 1.1//EN"
  "http://www.w3.org/Graphics/SVG/1.1/DTD/svg11.dtd">
<svg xmlns:xlink="http://www.w3.org/1999/xlink" width="655.487813pt" height="637.476pt" viewBox="0 0 655.487813 637.476" xmlns="http://www.w3.org/2000/svg" version="1.1">
 <metadata>
  <rdf:RDF xmlns:dc="http://purl.org/dc/elements/1.1/" xmlns:cc="http://creativecommons.org/ns#" xmlns:rdf="http://www.w3.org/1999/02/22-rdf-syntax-ns#">
   <cc:Work>
    <dc:type rdf:resource="http://purl.org/dc/dcmitype/StillImage"/>
    <dc:date>2025-01-15T09:08:49.375774</dc:date>
    <dc:format>image/svg+xml</dc:format>
    <dc:creator>
     <cc:Agent>
      <dc:title>Matplotlib v3.9.1, https://matplotlib.org/</dc:title>
     </cc:Agent>
    </dc:creator>
   </cc:Work>
  </rdf:RDF>
 </metadata>
 <defs>
  <style type="text/css">*{stroke-linejoin: round; stroke-linecap: butt}</style>
 </defs>
 <g id="figure_1">
  <g id="patch_1">
   <path d="M 0 637.476 
L 655.487813 637.476 
L 655.487813 0 
L 0 0 
z
" style="fill: #ffffff"/>
  </g>
  <g id="axes_1">
   <g id="patch_2">
    <path d="M 84.387813 415.44 
L 586.587813 415.44 
L 586.587813 7.2 
L 84.387813 7.2 
z
" style="fill: #ffffff"/>
   </g>
   <g id="matplotlib.axis_1">
    <g id="xtick_1">
     <g id="line2d_1">
      <path d="M 103.102063 415.44 
L 103.102063 7.2 
" clip-path="url(#pbcd7bc4d33)" style="fill: none; stroke-dasharray: 1.85,0.8; stroke-dashoffset: 0; stroke: #b0b0b0; stroke-width: 0.5"/>
     </g>
     <g id="line2d_2">
      <defs>
       <path id="m5e86e043e9" d="M 0 0 
L 0 3.5 
" style="stroke: #000000; stroke-width: 0.8"/>
      </defs>
      <g>
       <use xlink:href="#m5e86e043e9" x="103.102063" y="415.44" style="stroke: #000000; stroke-width: 0.8"/>
      </g>
     </g>
     <g id="text_1">
      <!-- 0 -->
      <g transform="translate(96.103313 439.156562) scale(0.22 -0.22)">
       <defs>
        <path id="DejaVuSans-30" d="M 2034 4250 
Q 1547 4250 1301 3770 
Q 1056 3291 1056 2328 
Q 1056 1369 1301 889 
Q 1547 409 2034 409 
Q 2525 409 2770 889 
Q 3016 1369 3016 2328 
Q 3016 3291 2770 3770 
Q 2525 4250 2034 4250 
z
M 2034 4750 
Q 2819 4750 3233 4129 
Q 3647 3509 3647 2328 
Q 3647 1150 3233 529 
Q 2819 -91 2034 -91 
Q 1250 -91 836 529 
Q 422 1150 422 2328 
Q 422 3509 836 4129 
Q 1250 4750 2034 4750 
z
" transform="scale(0.015625)"/>
       </defs>
       <use xlink:href="#DejaVuSans-30"/>
      </g>
     </g>
    </g>
    <g id="xtick_2">
     <g id="line2d_3">
      <path d="M 185.362505 415.44 
L 185.362505 7.2 
" clip-path="url(#pbcd7bc4d33)" style="fill: none; stroke-dasharray: 1.85,0.8; stroke-dashoffset: 0; stroke: #b0b0b0; stroke-width: 0.5"/>
     </g>
     <g id="line2d_4">
      <g>
       <use xlink:href="#m5e86e043e9" x="185.362505" y="415.44" style="stroke: #000000; stroke-width: 0.8"/>
      </g>
     </g>
     <g id="text_2">
      <!-- 20 -->
      <g transform="translate(171.365005 439.156562) scale(0.22 -0.22)">
       <defs>
        <path id="DejaVuSans-32" d="M 1228 531 
L 3431 531 
L 3431 0 
L 469 0 
L 469 531 
Q 828 903 1448 1529 
Q 2069 2156 2228 2338 
Q 2531 2678 2651 2914 
Q 2772 3150 2772 3378 
Q 2772 3750 2511 3984 
Q 2250 4219 1831 4219 
Q 1534 4219 1204 4116 
Q 875 4013 500 3803 
L 500 4441 
Q 881 4594 1212 4672 
Q 1544 4750 1819 4750 
Q 2544 4750 2975 4387 
Q 3406 4025 3406 3419 
Q 3406 3131 3298 2873 
Q 3191 2616 2906 2266 
Q 2828 2175 2409 1742 
Q 1991 1309 1228 531 
z
" transform="scale(0.015625)"/>
       </defs>
       <use xlink:href="#DejaVuSans-32"/>
       <use xlink:href="#DejaVuSans-30" x="63.623047"/>
      </g>
     </g>
    </g>
    <g id="xtick_3">
     <g id="line2d_5">
      <path d="M 267.622948 415.44 
L 267.622948 7.2 
" clip-path="url(#pbcd7bc4d33)" style="fill: none; stroke-dasharray: 1.85,0.8; stroke-dashoffset: 0; stroke: #b0b0b0; stroke-width: 0.5"/>
     </g>
     <g id="line2d_6">
      <g>
       <use xlink:href="#m5e86e043e9" x="267.622948" y="415.44" style="stroke: #000000; stroke-width: 0.8"/>
      </g>
     </g>
     <g id="text_3">
      <!-- 40 -->
      <g transform="translate(253.625448 439.156562) scale(0.22 -0.22)">
       <defs>
        <path id="DejaVuSans-34" d="M 2419 4116 
L 825 1625 
L 2419 1625 
L 2419 4116 
z
M 2253 4666 
L 3047 4666 
L 3047 1625 
L 3713 1625 
L 3713 1100 
L 3047 1100 
L 3047 0 
L 2419 0 
L 2419 1100 
L 313 1100 
L 313 1709 
L 2253 4666 
z
" transform="scale(0.015625)"/>
       </defs>
       <use xlink:href="#DejaVuSans-34"/>
       <use xlink:href="#DejaVuSans-30" x="63.623047"/>
      </g>
     </g>
    </g>
    <g id="xtick_4">
     <g id="line2d_7">
      <path d="M 349.88339 415.44 
L 349.88339 7.2 
" clip-path="url(#pbcd7bc4d33)" style="fill: none; stroke-dasharray: 1.85,0.8; stroke-dashoffset: 0; stroke: #b0b0b0; stroke-width: 0.5"/>
     </g>
     <g id="line2d_8">
      <g>
       <use xlink:href="#m5e86e043e9" x="349.88339" y="415.44" style="stroke: #000000; stroke-width: 0.8"/>
      </g>
     </g>
     <g id="text_4">
      <!-- 60 -->
      <g transform="translate(335.88589 439.156562) scale(0.22 -0.22)">
       <defs>
        <path id="DejaVuSans-36" d="M 2113 2584 
Q 1688 2584 1439 2293 
Q 1191 2003 1191 1497 
Q 1191 994 1439 701 
Q 1688 409 2113 409 
Q 2538 409 2786 701 
Q 3034 994 3034 1497 
Q 3034 2003 2786 2293 
Q 2538 2584 2113 2584 
z
M 3366 4563 
L 3366 3988 
Q 3128 4100 2886 4159 
Q 2644 4219 2406 4219 
Q 1781 4219 1451 3797 
Q 1122 3375 1075 2522 
Q 1259 2794 1537 2939 
Q 1816 3084 2150 3084 
Q 2853 3084 3261 2657 
Q 3669 2231 3669 1497 
Q 3669 778 3244 343 
Q 2819 -91 2113 -91 
Q 1303 -91 875 529 
Q 447 1150 447 2328 
Q 447 3434 972 4092 
Q 1497 4750 2381 4750 
Q 2619 4750 2861 4703 
Q 3103 4656 3366 4563 
z
" transform="scale(0.015625)"/>
       </defs>
       <use xlink:href="#DejaVuSans-36"/>
       <use xlink:href="#DejaVuSans-30" x="63.623047"/>
      </g>
     </g>
    </g>
    <g id="xtick_5">
     <g id="line2d_9">
      <path d="M 432.143832 415.44 
L 432.143832 7.2 
" clip-path="url(#pbcd7bc4d33)" style="fill: none; stroke-dasharray: 1.85,0.8; stroke-dashoffset: 0; stroke: #b0b0b0; stroke-width: 0.5"/>
     </g>
     <g id="line2d_10">
      <g>
       <use xlink:href="#m5e86e043e9" x="432.143832" y="415.44" style="stroke: #000000; stroke-width: 0.8"/>
      </g>
     </g>
     <g id="text_5">
      <!-- 80 -->
      <g transform="translate(418.146332 439.156562) scale(0.22 -0.22)">
       <defs>
        <path id="DejaVuSans-38" d="M 2034 2216 
Q 1584 2216 1326 1975 
Q 1069 1734 1069 1313 
Q 1069 891 1326 650 
Q 1584 409 2034 409 
Q 2484 409 2743 651 
Q 3003 894 3003 1313 
Q 3003 1734 2745 1975 
Q 2488 2216 2034 2216 
z
M 1403 2484 
Q 997 2584 770 2862 
Q 544 3141 544 3541 
Q 544 4100 942 4425 
Q 1341 4750 2034 4750 
Q 2731 4750 3128 4425 
Q 3525 4100 3525 3541 
Q 3525 3141 3298 2862 
Q 3072 2584 2669 2484 
Q 3125 2378 3379 2068 
Q 3634 1759 3634 1313 
Q 3634 634 3220 271 
Q 2806 -91 2034 -91 
Q 1263 -91 848 271 
Q 434 634 434 1313 
Q 434 1759 690 2068 
Q 947 2378 1403 2484 
z
M 1172 3481 
Q 1172 3119 1398 2916 
Q 1625 2713 2034 2713 
Q 2441 2713 2670 2916 
Q 2900 3119 2900 3481 
Q 2900 3844 2670 4047 
Q 2441 4250 2034 4250 
Q 1625 4250 1398 4047 
Q 1172 3844 1172 3481 
z
" transform="scale(0.015625)"/>
       </defs>
       <use xlink:href="#DejaVuSans-38"/>
       <use xlink:href="#DejaVuSans-30" x="63.623047"/>
      </g>
     </g>
    </g>
    <g id="xtick_6">
     <g id="line2d_11">
      <path d="M 514.404274 415.44 
L 514.404274 7.2 
" clip-path="url(#pbcd7bc4d33)" style="fill: none; stroke-dasharray: 1.85,0.8; stroke-dashoffset: 0; stroke: #b0b0b0; stroke-width: 0.5"/>
     </g>
     <g id="line2d_12">
      <g>
       <use xlink:href="#m5e86e043e9" x="514.404274" y="415.44" style="stroke: #000000; stroke-width: 0.8"/>
      </g>
     </g>
     <g id="text_6">
      <!-- 100 -->
      <g transform="translate(493.408024 439.156562) scale(0.22 -0.22)">
       <defs>
        <path id="DejaVuSans-31" d="M 794 531 
L 1825 531 
L 1825 4091 
L 703 3866 
L 703 4441 
L 1819 4666 
L 2450 4666 
L 2450 531 
L 3481 531 
L 3481 0 
L 794 0 
L 794 531 
z
" transform="scale(0.015625)"/>
       </defs>
       <use xlink:href="#DejaVuSans-31"/>
       <use xlink:href="#DejaVuSans-30" x="63.623047"/>
       <use xlink:href="#DejaVuSans-30" x="127.246094"/>
      </g>
     </g>
    </g>
    <g id="text_7">
     <!-- Iteration -->
     <g transform="translate(282.466328 466.727969) scale(0.25 -0.25)">
      <defs>
       <path id="DejaVuSans-49" d="M 628 4666 
L 1259 4666 
L 1259 0 
L 628 0 
L 628 4666 
z
" transform="scale(0.015625)"/>
       <path id="DejaVuSans-74" d="M 1172 4494 
L 1172 3500 
L 2356 3500 
L 2356 3053 
L 1172 3053 
L 1172 1153 
Q 1172 725 1289 603 
Q 1406 481 1766 481 
L 2356 481 
L 2356 0 
L 1766 0 
Q 1100 0 847 248 
Q 594 497 594 1153 
L 594 3053 
L 172 3053 
L 172 3500 
L 594 3500 
L 594 4494 
L 1172 4494 
z
" transform="scale(0.015625)"/>
       <path id="DejaVuSans-65" d="M 3597 1894 
L 3597 1613 
L 953 1613 
Q 991 1019 1311 708 
Q 1631 397 2203 397 
Q 2534 397 2845 478 
Q 3156 559 3463 722 
L 3463 178 
Q 3153 47 2828 -22 
Q 2503 -91 2169 -91 
Q 1331 -91 842 396 
Q 353 884 353 1716 
Q 353 2575 817 3079 
Q 1281 3584 2069 3584 
Q 2775 3584 3186 3129 
Q 3597 2675 3597 1894 
z
M 3022 2063 
Q 3016 2534 2758 2815 
Q 2500 3097 2075 3097 
Q 1594 3097 1305 2825 
Q 1016 2553 972 2059 
L 3022 2063 
z
" transform="scale(0.015625)"/>
       <path id="DejaVuSans-72" d="M 2631 2963 
Q 2534 3019 2420 3045 
Q 2306 3072 2169 3072 
Q 1681 3072 1420 2755 
Q 1159 2438 1159 1844 
L 1159 0 
L 581 0 
L 581 3500 
L 1159 3500 
L 1159 2956 
Q 1341 3275 1631 3429 
Q 1922 3584 2338 3584 
Q 2397 3584 2469 3576 
Q 2541 3569 2628 3553 
L 2631 2963 
z
" transform="scale(0.015625)"/>
       <path id="DejaVuSans-61" d="M 2194 1759 
Q 1497 1759 1228 1600 
Q 959 1441 959 1056 
Q 959 750 1161 570 
Q 1363 391 1709 391 
Q 2188 391 2477 730 
Q 2766 1069 2766 1631 
L 2766 1759 
L 2194 1759 
z
M 3341 1997 
L 3341 0 
L 2766 0 
L 2766 531 
Q 2569 213 2275 61 
Q 1981 -91 1556 -91 
Q 1019 -91 701 211 
Q 384 513 384 1019 
Q 384 1609 779 1909 
Q 1175 2209 1959 2209 
L 2766 2209 
L 2766 2266 
Q 2766 2663 2505 2880 
Q 2244 3097 1772 3097 
Q 1472 3097 1187 3025 
Q 903 2953 641 2809 
L 641 3341 
Q 956 3463 1253 3523 
Q 1550 3584 1831 3584 
Q 2591 3584 2966 3190 
Q 3341 2797 3341 1997 
z
" transform="scale(0.015625)"/>
       <path id="DejaVuSans-69" d="M 603 3500 
L 1178 3500 
L 1178 0 
L 603 0 
L 603 3500 
z
M 603 4863 
L 1178 4863 
L 1178 4134 
L 603 4134 
L 603 4863 
z
" transform="scale(0.015625)"/>
       <path id="DejaVuSans-6f" d="M 1959 3097 
Q 1497 3097 1228 2736 
Q 959 2375 959 1747 
Q 959 1119 1226 758 
Q 1494 397 1959 397 
Q 2419 397 2687 759 
Q 2956 1122 2956 1747 
Q 2956 2369 2687 2733 
Q 2419 3097 1959 3097 
z
M 1959 3584 
Q 2709 3584 3137 3096 
Q 3566 2609 3566 1747 
Q 3566 888 3137 398 
Q 2709 -91 1959 -91 
Q 1206 -91 779 398 
Q 353 888 353 1747 
Q 353 2609 779 3096 
Q 1206 3584 1959 3584 
z
" transform="scale(0.015625)"/>
       <path id="DejaVuSans-6e" d="M 3513 2113 
L 3513 0 
L 2938 0 
L 2938 2094 
Q 2938 2591 2744 2837 
Q 2550 3084 2163 3084 
Q 1697 3084 1428 2787 
Q 1159 2491 1159 1978 
L 1159 0 
L 581 0 
L 581 3500 
L 1159 3500 
L 1159 2956 
Q 1366 3272 1645 3428 
Q 1925 3584 2291 3584 
Q 2894 3584 3203 3211 
Q 3513 2838 3513 2113 
z
" transform="scale(0.015625)"/>
      </defs>
      <use xlink:href="#DejaVuSans-49"/>
      <use xlink:href="#DejaVuSans-74" x="29.492188"/>
      <use xlink:href="#DejaVuSans-65" x="68.701172"/>
      <use xlink:href="#DejaVuSans-72" x="130.224609"/>
      <use xlink:href="#DejaVuSans-61" x="171.337891"/>
      <use xlink:href="#DejaVuSans-74" x="232.617188"/>
      <use xlink:href="#DejaVuSans-69" x="271.826172"/>
      <use xlink:href="#DejaVuSans-6f" x="299.609375"/>
      <use xlink:href="#DejaVuSans-6e" x="360.791016"/>
     </g>
    </g>
   </g>
   <g id="matplotlib.axis_2">
    <g id="ytick_1">
     <g id="line2d_13">
      <path d="M 84.387813 399.360428 
L 586.587813 399.360428 
" clip-path="url(#pbcd7bc4d33)" style="fill: none; stroke-dasharray: 1.85,0.8; stroke-dashoffset: 0; stroke: #b0b0b0; stroke-width: 0.5"/>
     </g>
     <g id="line2d_14">
      <defs>
       <path id="m6a769aae5a" d="M 0 0 
L -3.5 0 
" style="stroke: #000000; stroke-width: 0.8"/>
      </defs>
      <g>
       <use xlink:href="#m6a769aae5a" x="84.387813" y="399.360428" style="stroke: #000000; stroke-width: 0.8"/>
      </g>
     </g>
     <g id="text_8">
      <!-- 0 -->
      <g transform="translate(63.390313 407.718709) scale(0.22 -0.22)">
       <use xlink:href="#DejaVuSans-30"/>
      </g>
     </g>
    </g>
    <g id="ytick_2">
     <g id="line2d_15">
      <path d="M 84.387813 331.391388 
L 586.587813 331.391388 
" clip-path="url(#pbcd7bc4d33)" style="fill: none; stroke-dasharray: 1.85,0.8; stroke-dashoffset: 0; stroke: #b0b0b0; stroke-width: 0.5"/>
     </g>
     <g id="line2d_16">
      <g>
       <use xlink:href="#m6a769aae5a" x="84.387813" y="331.391388" style="stroke: #000000; stroke-width: 0.8"/>
      </g>
     </g>
     <g id="text_9">
      <!-- 50 -->
      <g transform="translate(49.392813 339.749669) scale(0.22 -0.22)">
       <defs>
        <path id="DejaVuSans-35" d="M 691 4666 
L 3169 4666 
L 3169 4134 
L 1269 4134 
L 1269 2991 
Q 1406 3038 1543 3061 
Q 1681 3084 1819 3084 
Q 2600 3084 3056 2656 
Q 3513 2228 3513 1497 
Q 3513 744 3044 326 
Q 2575 -91 1722 -91 
Q 1428 -91 1123 -41 
Q 819 9 494 109 
L 494 744 
Q 775 591 1075 516 
Q 1375 441 1709 441 
Q 2250 441 2565 725 
Q 2881 1009 2881 1497 
Q 2881 1984 2565 2268 
Q 2250 2553 1709 2553 
Q 1456 2553 1204 2497 
Q 953 2441 691 2322 
L 691 4666 
z
" transform="scale(0.015625)"/>
       </defs>
       <use xlink:href="#DejaVuSans-35"/>
       <use xlink:href="#DejaVuSans-30" x="63.623047"/>
      </g>
     </g>
    </g>
    <g id="ytick_3">
     <g id="line2d_17">
      <path d="M 84.387813 263.422348 
L 586.587813 263.422348 
" clip-path="url(#pbcd7bc4d33)" style="fill: none; stroke-dasharray: 1.85,0.8; stroke-dashoffset: 0; stroke: #b0b0b0; stroke-width: 0.5"/>
     </g>
     <g id="line2d_18">
      <g>
       <use xlink:href="#m6a769aae5a" x="84.387813" y="263.422348" style="stroke: #000000; stroke-width: 0.8"/>
      </g>
     </g>
     <g id="text_10">
      <!-- 100 -->
      <g transform="translate(35.395313 271.780629) scale(0.22 -0.22)">
       <use xlink:href="#DejaVuSans-31"/>
       <use xlink:href="#DejaVuSans-30" x="63.623047"/>
       <use xlink:href="#DejaVuSans-30" x="127.246094"/>
      </g>
     </g>
    </g>
    <g id="ytick_4">
     <g id="line2d_19">
      <path d="M 84.387813 195.453307 
L 586.587813 195.453307 
" clip-path="url(#pbcd7bc4d33)" style="fill: none; stroke-dasharray: 1.85,0.8; stroke-dashoffset: 0; stroke: #b0b0b0; stroke-width: 0.5"/>
     </g>
     <g id="line2d_20">
      <g>
       <use xlink:href="#m6a769aae5a" x="84.387813" y="195.453307" style="stroke: #000000; stroke-width: 0.8"/>
      </g>
     </g>
     <g id="text_11">
      <!-- 150 -->
      <g transform="translate(35.395313 203.811588) scale(0.22 -0.22)">
       <use xlink:href="#DejaVuSans-31"/>
       <use xlink:href="#DejaVuSans-35" x="63.623047"/>
       <use xlink:href="#DejaVuSans-30" x="127.246094"/>
      </g>
     </g>
    </g>
    <g id="ytick_5">
     <g id="line2d_21">
      <path d="M 84.387813 127.484267 
L 586.587813 127.484267 
" clip-path="url(#pbcd7bc4d33)" style="fill: none; stroke-dasharray: 1.85,0.8; stroke-dashoffset: 0; stroke: #b0b0b0; stroke-width: 0.5"/>
     </g>
     <g id="line2d_22">
      <g>
       <use xlink:href="#m6a769aae5a" x="84.387813" y="127.484267" style="stroke: #000000; stroke-width: 0.8"/>
      </g>
     </g>
     <g id="text_12">
      <!-- 200 -->
      <g transform="translate(35.395313 135.842548) scale(0.22 -0.22)">
       <use xlink:href="#DejaVuSans-32"/>
       <use xlink:href="#DejaVuSans-30" x="63.623047"/>
       <use xlink:href="#DejaVuSans-30" x="127.246094"/>
      </g>
     </g>
    </g>
    <g id="ytick_6">
     <g id="line2d_23">
      <path d="M 84.387813 59.515227 
L 586.587813 59.515227 
" clip-path="url(#pbcd7bc4d33)" style="fill: none; stroke-dasharray: 1.85,0.8; stroke-dashoffset: 0; stroke: #b0b0b0; stroke-width: 0.5"/>
     </g>
     <g id="line2d_24">
      <g>
       <use xlink:href="#m6a769aae5a" x="84.387813" y="59.515227" style="stroke: #000000; stroke-width: 0.8"/>
      </g>
     </g>
     <g id="text_13">
      <!-- 250 -->
      <g transform="translate(35.395313 67.873508) scale(0.22 -0.22)">
       <use xlink:href="#DejaVuSans-32"/>
       <use xlink:href="#DejaVuSans-35" x="63.623047"/>
       <use xlink:href="#DejaVuSans-30" x="127.246094"/>
      </g>
     </g>
    </g>
    <g id="text_14">
     <!-- Cumulated runtime / s -->
     <g transform="translate(26.196094 351.591484) rotate(-90) scale(0.25 -0.25)">
      <defs>
       <path id="DejaVuSans-43" d="M 4122 4306 
L 4122 3641 
Q 3803 3938 3442 4084 
Q 3081 4231 2675 4231 
Q 1875 4231 1450 3742 
Q 1025 3253 1025 2328 
Q 1025 1406 1450 917 
Q 1875 428 2675 428 
Q 3081 428 3442 575 
Q 3803 722 4122 1019 
L 4122 359 
Q 3791 134 3420 21 
Q 3050 -91 2638 -91 
Q 1578 -91 968 557 
Q 359 1206 359 2328 
Q 359 3453 968 4101 
Q 1578 4750 2638 4750 
Q 3056 4750 3426 4639 
Q 3797 4528 4122 4306 
z
" transform="scale(0.015625)"/>
       <path id="DejaVuSans-75" d="M 544 1381 
L 544 3500 
L 1119 3500 
L 1119 1403 
Q 1119 906 1312 657 
Q 1506 409 1894 409 
Q 2359 409 2629 706 
Q 2900 1003 2900 1516 
L 2900 3500 
L 3475 3500 
L 3475 0 
L 2900 0 
L 2900 538 
Q 2691 219 2414 64 
Q 2138 -91 1772 -91 
Q 1169 -91 856 284 
Q 544 659 544 1381 
z
M 1991 3584 
L 1991 3584 
z
" transform="scale(0.015625)"/>
       <path id="DejaVuSans-6d" d="M 3328 2828 
Q 3544 3216 3844 3400 
Q 4144 3584 4550 3584 
Q 5097 3584 5394 3201 
Q 5691 2819 5691 2113 
L 5691 0 
L 5113 0 
L 5113 2094 
Q 5113 2597 4934 2840 
Q 4756 3084 4391 3084 
Q 3944 3084 3684 2787 
Q 3425 2491 3425 1978 
L 3425 0 
L 2847 0 
L 2847 2094 
Q 2847 2600 2669 2842 
Q 2491 3084 2119 3084 
Q 1678 3084 1418 2786 
Q 1159 2488 1159 1978 
L 1159 0 
L 581 0 
L 581 3500 
L 1159 3500 
L 1159 2956 
Q 1356 3278 1631 3431 
Q 1906 3584 2284 3584 
Q 2666 3584 2933 3390 
Q 3200 3197 3328 2828 
z
" transform="scale(0.015625)"/>
       <path id="DejaVuSans-6c" d="M 603 4863 
L 1178 4863 
L 1178 0 
L 603 0 
L 603 4863 
z
" transform="scale(0.015625)"/>
       <path id="DejaVuSans-64" d="M 2906 2969 
L 2906 4863 
L 3481 4863 
L 3481 0 
L 2906 0 
L 2906 525 
Q 2725 213 2448 61 
Q 2172 -91 1784 -91 
Q 1150 -91 751 415 
Q 353 922 353 1747 
Q 353 2572 751 3078 
Q 1150 3584 1784 3584 
Q 2172 3584 2448 3432 
Q 2725 3281 2906 2969 
z
M 947 1747 
Q 947 1113 1208 752 
Q 1469 391 1925 391 
Q 2381 391 2643 752 
Q 2906 1113 2906 1747 
Q 2906 2381 2643 2742 
Q 2381 3103 1925 3103 
Q 1469 3103 1208 2742 
Q 947 2381 947 1747 
z
" transform="scale(0.015625)"/>
       <path id="DejaVuSans-20" transform="scale(0.015625)"/>
       <path id="DejaVuSans-2f" d="M 1625 4666 
L 2156 4666 
L 531 -594 
L 0 -594 
L 1625 4666 
z
" transform="scale(0.015625)"/>
       <path id="DejaVuSans-73" d="M 2834 3397 
L 2834 2853 
Q 2591 2978 2328 3040 
Q 2066 3103 1784 3103 
Q 1356 3103 1142 2972 
Q 928 2841 928 2578 
Q 928 2378 1081 2264 
Q 1234 2150 1697 2047 
L 1894 2003 
Q 2506 1872 2764 1633 
Q 3022 1394 3022 966 
Q 3022 478 2636 193 
Q 2250 -91 1575 -91 
Q 1294 -91 989 -36 
Q 684 19 347 128 
L 347 722 
Q 666 556 975 473 
Q 1284 391 1588 391 
Q 1994 391 2212 530 
Q 2431 669 2431 922 
Q 2431 1156 2273 1281 
Q 2116 1406 1581 1522 
L 1381 1569 
Q 847 1681 609 1914 
Q 372 2147 372 2553 
Q 372 3047 722 3315 
Q 1072 3584 1716 3584 
Q 2034 3584 2315 3537 
Q 2597 3491 2834 3397 
z
" transform="scale(0.015625)"/>
      </defs>
      <use xlink:href="#DejaVuSans-43"/>
      <use xlink:href="#DejaVuSans-75" x="69.824219"/>
      <use xlink:href="#DejaVuSans-6d" x="133.203125"/>
      <use xlink:href="#DejaVuSans-75" x="230.615234"/>
      <use xlink:href="#DejaVuSans-6c" x="293.994141"/>
      <use xlink:href="#DejaVuSans-61" x="321.777344"/>
      <use xlink:href="#DejaVuSans-74" x="383.056641"/>
      <use xlink:href="#DejaVuSans-65" x="422.265625"/>
      <use xlink:href="#DejaVuSans-64" x="483.789062"/>
      <use xlink:href="#DejaVuSans-20" x="547.265625"/>
      <use xlink:href="#DejaVuSans-72" x="579.052734"/>
      <use xlink:href="#DejaVuSans-75" x="620.166016"/>
      <use xlink:href="#DejaVuSans-6e" x="683.544922"/>
      <use xlink:href="#DejaVuSans-74" x="746.923828"/>
      <use xlink:href="#DejaVuSans-69" x="786.132812"/>
      <use xlink:href="#DejaVuSans-6d" x="813.916016"/>
      <use xlink:href="#DejaVuSans-65" x="911.328125"/>
      <use xlink:href="#DejaVuSans-20" x="972.851562"/>
      <use xlink:href="#DejaVuSans-2f" x="1004.638672"/>
      <use xlink:href="#DejaVuSans-20" x="1038.330078"/>
      <use xlink:href="#DejaVuSans-73" x="1070.117188"/>
     </g>
    </g>
   </g>
   <g id="line2d_25">
    <path d="M 107.215085 395.05255 
L 111.328107 394.45986 
L 115.441129 393.883483 
L 119.554152 393.305746 
L 123.667174 392.72529 
L 127.780196 392.142116 
L 131.893218 391.564379 
L 136.00624 390.989361 
L 140.119262 390.408906 
L 144.232284 389.810778 
L 148.345306 389.224885 
L 152.458328 388.638992 
L 156.571351 388.05038 
L 160.684373 387.476721 
L 164.797395 386.890828 
L 168.910417 386.321247 
L 173.023439 385.733995 
L 177.136461 385.165774 
L 181.249483 384.583959 
L 185.362505 384.004863 
L 189.475527 383.433923 
L 193.58855 382.841233 
L 197.701572 382.27573 
L 201.814594 381.703431 
L 205.927616 381.102585 
L 210.040638 380.534363 
L 214.15366 379.968861 
L 218.266682 379.374812 
L 222.379704 378.788918 
L 226.492727 378.198947 
L 230.605749 377.57907 
L 234.718771 376.948317 
L 238.831793 375.867609 
L 242.944815 374.872542 
L 247.057837 374.305681 
L 251.170859 373.737459 
L 255.283881 373.170598 
L 259.396903 372.596939 
L 263.509926 372.016483 
L 267.622948 371.427871 
L 271.73597 370.846056 
L 275.848992 370.264241 
L 279.962014 369.645723 
L 284.075036 369.044877 
L 288.188058 368.446749 
L 292.30108 367.824153 
L 296.414102 367.224666 
L 300.527125 366.604788 
L 304.640147 366.005301 
L 308.753169 365.404455 
L 312.866191 364.760109 
L 316.979213 364.14295 
L 321.092235 363.521713 
L 325.205257 362.900476 
L 329.318279 362.280598 
L 333.431301 361.659361 
L 337.544324 360.974233 
L 341.657346 359.946541 
L 345.770368 359.325304 
L 349.88339 358.704067 
L 353.996412 358.084189 
L 358.109434 357.462952 
L 362.222456 356.841715 
L 366.335478 356.200088 
L 370.4485 355.5571 
L 374.561523 354.915473 
L 378.674545 354.273845 
L 382.787567 353.632217 
L 386.900589 352.99059 
L 391.013611 352.344884 
L 395.126633 351.729084 
L 399.239655 351.087456 
L 403.352677 350.445829 
L 407.465699 349.781091 
L 411.578722 349.075573 
L 415.691744 347.98399 
L 419.804766 346.976689 
L 423.917788 346.400311 
L 428.03081 345.779074 
L 432.143832 345.137447 
L 436.256854 344.51621 
L 440.369876 343.897691 
L 444.482898 343.276454 
L 448.595921 342.653858 
L 452.708943 342.043496 
L 456.821965 341.422259 
L 460.934987 340.801022 
L 465.048009 340.181144 
L 469.161031 339.581657 
L 473.274053 338.98217 
L 477.387075 338.362293 
L 481.500098 337.719306 
L 485.61312 337.064084 
L 489.726142 336.4578 
L 493.839164 335.794422 
L 497.952186 335.065794 
L 502.065208 334.380666 
L 506.17823 333.677866 
L 510.291252 333.036239 
L 514.404274 332.391892 
L 518.517297 331.758421 
L 522.630319 331.135824 
L 526.743341 330.50915 
L 530.856363 329.885194 
L 534.969385 329.259879 
L 539.082407 328.631845 
L 543.195429 328.020123 
L 547.308451 327.378496 
L 551.421473 326.694727 
" clip-path="url(#pbcd7bc4d33)" style="fill: none; stroke-dasharray: 7.4,3.2; stroke-dashoffset: 0; stroke: #ff7f0e; stroke-width: 2"/>
   </g>
   <g id="line2d_26">
    <path d="M 107.215085 396.883636 
L 111.328107 396.425525 
L 115.441129 395.99732 
L 119.554152 395.560959 
L 123.667174 395.154504 
L 127.780196 394.76844 
L 131.893218 394.390532 
L 136.00624 394.028937 
L 140.119262 393.685013 
L 144.232284 393.343809 
L 148.345306 392.998526 
L 152.458328 392.677712 
L 156.571351 392.356898 
L 160.684373 392.012975 
L 164.797395 391.670411 
L 168.910417 391.307456 
L 173.023439 390.75011 
L 177.136461 390.226749 
L 181.249483 389.827091 
L 185.362505 389.441026 
L 189.475527 389.071275 
L 193.58855 388.603648 
L 197.701572 388.172724 
L 201.814594 387.783941 
L 205.927616 387.403315 
L 210.040638 387.028126 
L 214.15366 386.648858 
L 218.266682 386.2492 
L 222.379704 385.893043 
L 226.492727 385.54776 
L 230.605749 385.178008 
L 234.718771 384.809616 
L 238.831793 384.458896 
L 242.944815 384.109535 
L 247.057837 383.773768 
L 251.170859 383.409454 
L 255.283881 383.04514 
L 259.396903 382.702576 
L 263.509926 382.338262 
L 267.622948 381.995698 
L 271.73597 381.653134 
L 275.848992 381.28882 
L 279.962014 380.946256 
L 284.075036 380.583301 
L 288.188058 380.239378 
L 292.30108 379.876423 
L 296.414102 379.533859 
L 300.527125 379.191295 
L 304.640147 378.826981 
L 308.753169 378.484417 
L 312.866191 378.121462 
L 316.979213 377.757148 
L 321.092235 377.392834 
L 325.205257 377.02988 
L 329.318279 376.687316 
L 333.431301 376.323002 
L 337.544324 375.958688 
L 341.657346 375.594374 
L 345.770368 375.236856 
L 349.88339 374.883417 
L 353.996412 374.524541 
L 358.109434 374.172461 
L 362.222456 373.812225 
L 366.335478 373.460146 
L 370.4485 373.106707 
L 374.561523 372.762783 
L 378.674545 372.3305 
L 382.787567 371.947155 
L 386.900589 371.561091 
L 391.013611 371.154636 
L 395.126633 370.768572 
L 399.239655 370.401539 
L 403.352677 370.023631 
L 407.465699 369.663395 
L 411.578722 369.305878 
L 415.691744 368.938845 
L 419.804766 368.596281 
L 423.917788 368.233326 
L 428.03081 367.889403 
L 432.143832 367.525089 
L 436.256854 367.137666 
L 440.369876 366.771992 
L 444.482898 366.365537 
L 448.595921 365.979473 
L 452.708943 365.585253 
L 456.821965 365.229095 
L 460.934987 364.864781 
L 465.048009 364.497748 
L 469.161031 364.136153 
L 473.274053 363.771839 
L 477.387075 363.407525 
L 481.500098 363.02282 
L 485.61312 362.653068 
L 489.726142 362.281957 
L 493.839164 361.920362 
L 497.952186 361.55197 
L 502.065208 361.183578 
L 506.17823 360.815185 
L 510.291252 360.438637 
L 514.404274 360.072964 
L 518.517297 359.704571 
L 522.630319 359.338898 
L 526.743341 358.952834 
L 530.856363 358.570848 
L 534.969385 358.206534 
L 539.082407 357.84222 
L 543.195429 357.456155 
L 547.308451 357.091841 
L 551.421473 356.705777 
L 555.534496 356.277572 
L 559.647518 355.422522 
L 563.76054 354.627284 
" clip-path="url(#pbcd7bc4d33)" style="fill: none; stroke: #ff7f0e; stroke-width: 2; stroke-linecap: square"/>
   </g>
   <g id="line2d_27">
    <path d="M 107.215085 385.922949 
L 111.328107 383.129421 
L 115.441129 381.131132 
L 119.554152 378.712793 
L 123.667174 376.797426 
L 127.780196 374.822245 
L 131.893218 372.455563 
L 136.00624 370.092959 
L 140.119262 368.11642 
L 144.232284 366.131724 
L 148.345306 364.03148 
L 152.458328 362.031831 
L 156.571351 359.90576 
L 160.684373 357.045622 
L 164.797395 355.132974 
L 168.910417 353.240716 
L 173.023439 350.79519 
L 177.136461 348.966822 
L 181.249483 347.077283 
L 185.362505 344.797601 
L 189.475527 342.993703 
L 193.58855 341.230586 
L 197.701572 338.952264 
L 201.814594 337.216335 
L 205.927616 334.942091 
L 210.040638 333.203442 
L 214.15366 331.396825 
L 218.266682 329.571177 
L 222.379704 327.749607 
L 226.492727 325.391081 
L 230.605749 323.602136 
L 234.718771 321.224579 
L 238.831793 319.349993 
L 242.944815 317.07303 
L 247.057837 315.269132 
L 251.170859 313.467952 
L 255.283881 311.643663 
L 259.396903 309.756842 
L 263.509926 307.482598 
L 267.622948 305.680059 
L 271.73597 303.362315 
L 275.848992 301.578807 
L 279.962014 299.648487 
L 284.075036 297.306274 
L 288.188058 295.530922 
L 292.30108 293.64682 
L 296.414102 291.353545 
L 300.527125 289.491193 
L 304.640147 287.563591 
L 308.753169 285.570739 
L 312.866191 283.542543 
L 316.979213 281.118767 
L 321.092235 279.166696 
L 325.205257 276.649123 
L 329.318279 274.599177 
L 333.431301 272.564183 
L 337.544324 270.193423 
L 341.657346 268.250868 
L 345.770368 265.820295 
L 349.88339 263.968819 
L 353.996412 262.041217 
L 358.109434 259.670457 
L 362.222456 257.829855 
L 366.335478 255.880503 
L 370.4485 253.565477 
L 374.561523 251.684094 
L 378.674545 249.757852 
L 382.787567 247.403404 
L 386.900589 245.603584 
L 391.013611 243.760264 
L 395.126633 241.442519 
L 399.239655 239.653574 
L 403.352677 237.787144 
L 407.465699 235.466681 
L 411.578722 233.704924 
L 415.691744 231.448352 
L 419.804766 229.701547 
L 423.917788 227.89493 
L 428.03081 225.578545 
L 432.143832 223.770569 
L 436.256854 221.520794 
L 440.369876 219.761755 
L 444.482898 217.46712 
L 448.595921 215.682253 
L 452.708943 213.852526 
L 456.821965 212.028237 
L 460.934987 209.749915 
L 465.048009 207.513734 
L 469.161031 205.684007 
L 473.274053 203.83389 
L 477.387075 201.919882 
L 481.500098 199.627966 
L 485.61312 197.31294 
L 489.726142 195.515839 
L 493.839164 193.223923 
L 497.952186 191.448571 
L 502.065208 189.179765 
L 506.17823 187.382663 
L 510.291252 185.100263 
L 514.404274 183.274615 
L 518.517297 180.751604 
L 522.630319 178.80497 
L 526.743341 176.322741 
L 530.856363 174.48214 
L 534.969385 171.844941 
L 539.082407 169.95812 
L 543.195429 167.541141 
L 547.308451 165.620336 
L 551.421473 163.140825 
" clip-path="url(#pbcd7bc4d33)" style="fill: none; stroke-dasharray: 7.4,3.2; stroke-dashoffset: 0; stroke: #d62728; stroke-width: 2"/>
   </g>
   <g id="line2d_28">
    <path d="M 107.215085 395.187129 
L 111.328107 394.086031 
L 115.441129 393.058339 
L 119.554152 391.959959 
L 123.667174 390.960814 
L 127.780196 389.980701 
L 131.893218 389.042728 
L 136.00624 388.142818 
L 140.119262 387.23883 
L 144.232284 386.364748 
L 148.345306 385.530088 
L 152.458328 384.695428 
L 156.571351 383.840378 
L 160.684373 383.005718 
L 164.797395 382.149308 
L 168.910417 381.294257 
L 173.023439 380.436488 
L 177.136461 379.580078 
L 181.249483 378.722309 
L 185.362505 377.86454 
L 189.475527 377.005411 
L 193.58855 376.149001 
L 197.701572 375.312982 
L 201.814594 374.476963 
L 205.927616 373.638225 
L 210.040638 372.798127 
L 214.15366 371.968905 
L 218.266682 371.139683 
L 222.379704 370.302304 
L 226.492727 369.462207 
L 230.605749 368.627547 
L 234.718771 367.835028 
L 238.831793 367.04115 
L 242.944815 366.225521 
L 247.057837 365.433002 
L 251.170859 364.621452 
L 255.283881 363.822136 
L 259.396903 363.029617 
L 263.509926 362.215348 
L 267.622948 361.421469 
L 271.73597 360.626231 
L 275.848992 359.833712 
L 279.962014 359.018084 
L 284.075036 358.225565 
L 288.188058 357.431687 
L 292.30108 356.617417 
L 296.414102 355.824898 
L 300.527125 355.032379 
L 304.640147 354.238501 
L 308.753169 353.424232 
L 312.866191 352.630354 
L 316.979213 351.836475 
L 321.092235 351.020847 
L 325.205257 350.226968 
L 329.318279 349.43309 
L 333.431301 348.618821 
L 337.544324 347.826302 
L 341.657346 347.033783 
L 345.770368 346.239904 
L 349.88339 345.424276 
L 353.996412 344.627679 
L 358.109434 343.832441 
L 362.222456 342.876796 
L 366.335478 342.065246 
L 370.4485 341.249617 
L 374.561523 340.45302 
L 378.674545 339.638751 
L 382.787567 338.802732 
L 386.900589 337.988463 
L 391.013611 337.175553 
L 395.126633 336.383034 
L 399.239655 335.568765 
L 403.352677 334.732746 
L 407.465699 333.918477 
L 411.578722 333.104208 
L 415.691744 332.253235 
L 419.804766 331.422654 
L 423.917788 330.585275 
L 428.03081 329.747896 
L 432.143832 328.888768 
L 436.256854 328.030999 
L 440.369876 327.17187 
L 444.482898 326.312741 
L 448.595921 325.474003 
L 452.708943 324.617593 
L 456.821965 323.757105 
L 460.934987 322.899336 
L 465.048009 322.018457 
L 469.161031 321.137578 
L 473.274053 320.297481 
L 477.387075 319.441071 
L 481.500098 318.561552 
L 485.61312 317.702423 
L 489.726142 316.841935 
L 493.839164 315.965134 
L 497.952186 315.084256 
L 502.065208 314.204736 
L 506.17823 313.327936 
L 510.291252 312.448416 
L 514.404274 311.570256 
L 518.517297 310.671706 
L 522.630319 309.792186 
L 526.743341 308.914026 
L 530.856363 308.011397 
L 534.969385 307.107409 
L 539.082407 306.231968 
L 543.195429 305.330698 
L 547.308451 304.455257 
L 551.421473 303.556706 
L 555.534496 302.677187 
L 559.647518 301.797668 
L 563.76054 300.91543 
" clip-path="url(#pbcd7bc4d33)" style="fill: none; stroke: #d62728; stroke-width: 2; stroke-linecap: square"/>
   </g>
   <g id="line2d_29">
    <path d="M 107.215085 391.379503 
L 111.328107 390.283843 
L 115.441129 389.295573 
L 119.554152 388.15913 
L 123.667174 387.01861 
L 127.780196 385.984121 
L 131.893218 384.978179 
L 136.00624 383.904268 
L 140.119262 382.895608 
L 144.232284 381.866557 
L 148.345306 380.837505 
L 152.458328 379.828845 
L 156.571351 378.839216 
L 160.684373 377.789774 
L 164.797395 376.781113 
L 168.910417 375.773812 
L 173.023439 374.721651 
L 177.136461 373.719787 
L 181.249483 372.688017 
L 185.362505 371.698388 
L 189.475527 370.688368 
L 193.58855 369.634848 
L 197.701572 368.622109 
L 201.814594 367.631121 
L 205.927616 366.577601 
L 210.040638 365.587971 
L 214.15366 364.577951 
L 218.266682 363.513556 
L 222.379704 362.492661 
L 226.492727 361.505751 
L 230.605749 360.45359 
L 234.718771 359.44357 
L 238.831793 358.432191 
L 242.944815 357.377311 
L 247.057837 356.365932 
L 251.170859 355.332803 
L 255.283881 354.320064 
L 259.396903 353.307325 
L 263.509926 352.248368 
L 267.622948 351.250582 
L 271.73597 350.246 
L 275.848992 349.19248 
L 279.962014 348.179741 
L 284.075036 347.181955 
L 288.188058 346.127076 
L 292.30108 345.093946 
L 296.414102 344.064895 
L 300.527125 342.946125 
L 304.640147 341.892605 
L 308.753169 340.818694 
L 312.866191 339.788283 
L 316.979213 338.736122 
L 321.092235 337.591524 
L 325.205257 336.538004 
L 329.318279 335.466812 
L 333.431301 334.346682 
L 337.544324 333.282287 
L 341.657346 332.185266 
L 345.770368 331.048824 
L 349.88339 329.964038 
L 353.996412 328.876533 
L 358.109434 327.737372 
L 362.222456 326.633555 
L 366.335478 325.541972 
L 370.4485 324.38242 
L 374.561523 323.290838 
L 378.674545 322.135364 
L 382.787567 321.043781 
L 386.900589 319.950839 
L 391.013611 318.794006 
L 395.126633 317.701064 
L 399.239655 316.628512 
L 403.352677 315.44857 
L 407.465699 314.356987 
L 411.578722 313.238217 
L 415.691744 312.021571 
L 419.804766 310.409345 
L 423.917788 308.938495 
L 428.03081 307.906725 
L 432.143832 306.880393 
L 436.256854 305.752106 
L 440.369876 304.660524 
L 444.482898 303.590691 
L 448.595921 302.497749 
L 452.708943 301.384416 
L 456.821965 300.356724 
L 460.934987 299.329032 
L 465.048009 298.237449 
L 469.161031 297.167617 
L 473.274053 296.161675 
L 477.387075 295.157092 
L 481.500098 294.06415 
L 485.61312 293.017427 
L 489.726142 291.991095 
L 493.839164 290.959325 
L 497.952186 289.976492 
L 502.065208 288.95016 
L 506.17823 287.944218 
L 510.291252 286.916526 
L 514.404274 285.846693 
L 518.517297 284.819001 
L 522.630319 283.83345 
L 526.743341 282.809837 
L 530.856363 281.77127 
L 534.969385 280.778922 
L 539.082407 279.755308 
L 543.195429 278.690913 
L 547.308451 277.652346 
L 551.421473 276.635529 
" clip-path="url(#pbcd7bc4d33)" style="fill: none; stroke-dasharray: 7.4,3.2; stroke-dashoffset: 0; stroke: #17becf; stroke-width: 2"/>
   </g>
   <g id="line2d_30">
    <path d="M 107.215085 395.787975 
L 111.328107 395.132754 
L 115.441129 394.500642 
L 119.554152 393.884842 
L 123.667174 393.285355 
L 127.780196 392.72529 
L 131.893218 392.166585 
L 136.00624 391.639145 
L 140.119262 391.12394 
L 144.232284 390.61961 
L 148.345306 390.124795 
L 152.458328 389.636777 
L 156.571351 389.150119 
L 160.684373 388.656664 
L 164.797395 388.168646 
L 168.910417 387.624894 
L 173.023439 387.153189 
L 177.136461 386.608077 
L 181.249483 386.125497 
L 185.362505 385.574947 
L 189.475527 385.074695 
L 193.58855 384.509193 
L 197.701572 384.006222 
L 201.814594 383.43936 
L 205.927616 382.947264 
L 210.040638 382.369527 
L 214.15366 381.857041 
L 218.266682 381.257554 
L 222.379704 380.678458 
L 226.492727 380.121112 
L 230.605749 379.586875 
L 234.718771 379.051279 
L 238.831793 378.495292 
L 242.944815 377.937946 
L 247.057837 377.403709 
L 251.170859 376.847723 
L 255.283881 376.268626 
L 259.396903 375.75614 
L 263.509926 375.178403 
L 267.622948 374.664557 
L 271.73597 374.08682 
L 275.848992 373.574334 
L 279.962014 372.993878 
L 284.075036 372.46236 
L 288.188058 371.884623 
L 292.30108 371.328637 
L 296.414102 370.7509 
L 300.527125 370.196272 
L 304.640147 369.617176 
L 308.753169 369.082939 
L 312.866191 368.506562 
L 316.979213 367.904356 
L 321.092235 367.372838 
L 325.205257 366.773352 
L 329.318279 366.239115 
L 333.431301 365.617878 
L 337.544324 365.083641 
L 341.657346 364.484154 
L 345.770368 363.947199 
L 349.88339 363.35179 
L 353.996412 362.795803 
L 358.109434 362.219426 
L 362.222456 361.66208 
L 366.335478 361.085702 
L 370.4485 360.486215 
L 374.561523 359.930229 
L 378.674545 359.352492 
L 382.787567 358.818255 
L 386.900589 358.218768 
L 391.013611 357.684531 
L 395.126633 357.085044 
L 399.239655 356.529058 
L 403.352677 355.951321 
L 407.465699 355.395334 
L 411.578722 354.817597 
L 415.691744 354.238501 
L 419.804766 353.682514 
L 423.917788 353.104777 
L 428.03081 352.569181 
L 432.143832 351.991445 
L 436.256854 351.455849 
L 440.369876 350.878112 
L 444.482898 350.320766 
L 448.595921 349.764779 
L 452.708943 349.163933 
L 456.821965 348.629696 
L 460.934987 348.0506 
L 465.048009 347.516363 
L 469.161031 346.916876 
L 473.274053 346.38128 
L 477.387075 345.781793 
L 481.500098 345.235322 
L 485.61312 344.656226 
L 489.726142 344.068973 
L 493.839164 343.514346 
L 497.952186 342.925734 
L 502.065208 342.380622 
L 506.17823 341.797448 
L 510.291252 341.261852 
L 514.404274 340.685474 
L 518.517297 340.141722 
L 522.630319 339.523204 
L 526.743341 338.923717 
L 530.856363 338.38948 
L 534.969385 337.811743 
L 539.082407 337.276147 
L 543.195429 336.720161 
L 547.308451 336.185924 
L 551.421473 335.628578 
L 555.534496 335.072591 
L 559.647518 334.558745 
L 563.76054 334.023149 
" clip-path="url(#pbcd7bc4d33)" style="fill: none; stroke: #17becf; stroke-width: 2; stroke-linecap: square"/>
   </g>
   <g id="line2d_31">
    <path d="M 107.215085 377.787055 
L 111.328107 374.790979 
L 115.441129 371.285136 
L 119.554152 368.337999 
L 123.667174 365.30522 
L 127.780196 362.241176 
L 131.893218 359.052069 
L 136.00624 355.045973 
L 140.119262 352.025429 
L 144.232284 348.535899 
L 148.345306 345.493604 
L 152.458328 342.023105 
L 156.571351 339.107233 
L 160.684373 335.895016 
L 164.797395 332.678721 
L 168.910417 329.304738 
L 173.023439 325.3938 
L 177.136461 322.249552 
L 181.249483 318.564271 
L 185.362505 315.305835 
L 189.475527 312.027008 
L 193.58855 308.763135 
L 197.701572 305.383714 
L 201.814594 301.676683 
L 205.927616 298.571857 
L 210.040638 295.099998 
L 214.15366 292.165095 
L 218.266682 288.630705 
L 222.379704 285.674052 
L 226.492727 282.728274 
L 230.605749 279.197962 
L 234.718771 276.28209 
L 238.831793 273.349906 
L 242.944815 269.835906 
L 247.057837 266.988003 
L 251.170859 264.034069 
L 255.283881 260.54046 
L 259.396903 257.712948 
L 263.509926 254.757654 
L 267.622948 251.289874 
L 271.73597 248.096688 
L 275.848992 244.861362 
L 279.962014 241.13394 
L 284.075036 237.897254 
L 288.188058 234.611631 
L 292.30108 230.874693 
L 296.414102 227.644804 
L 300.527125 224.007101 
L 304.640147 220.801681 
L 308.753169 217.249619 
L 312.866191 214.192372 
L 316.979213 211.220765 
L 321.092235 207.717641 
L 325.205257 204.818082 
L 329.318279 201.44138 
L 333.431301 198.426273 
L 337.544324 194.999274 
L 341.657346 192.072527 
L 345.770368 188.630575 
L 349.88339 185.627703 
L 353.996412 182.217016 
L 358.109434 179.301144 
L 362.222456 175.856474 
L 366.335478 173.026243 
L 370.4485 169.906464 
L 374.561523 166.412855 
L 378.674545 163.392311 
L 382.787567 159.921812 
L 386.900589 157.050799 
L 391.013611 153.816833 
L 395.126633 150.120676 
L 399.239655 146.981866 
L 403.352677 143.61468 
L 407.465699 139.913086 
L 411.578722 136.647853 
L 415.691744 133.352714 
L 419.804766 129.71773 
L 423.917788 126.573482 
L 428.03081 123.355827 
L 432.143832 119.782015 
L 436.256854 116.756034 
L 440.369876 113.68927 
L 444.482898 110.26499 
L 448.595921 107.298821 
L 452.708943 104.353043 
L 456.821965 100.999451 
L 460.934987 98.069985 
L 465.048009 95.086144 
L 469.161031 91.625161 
L 473.274053 88.690257 
L 477.387075 85.264618 
L 481.500098 82.293011 
L 485.61312 79.194983 
L 489.726142 76.01811 
L 493.839164 72.48236 
L 497.952186 69.434628 
L 502.065208 66.007629 
L 506.17823 63.072726 
L 510.291252 60.050823 
L 514.404274 56.482448 
L 518.517297 53.18595 
L 522.630319 49.545528 
L 526.743341 46.504593 
L 530.856363 42.798921 
L 534.969385 39.586704 
L 539.082407 36.305159 
L 543.195429 32.558705 
L 547.308451 29.373676 
L 551.421473 25.756364 
" clip-path="url(#pbcd7bc4d33)" style="fill: none; stroke-dasharray: 7.4,3.2; stroke-dashoffset: 0; stroke: #7f7f7f; stroke-width: 2"/>
   </g>
   <g id="line2d_32">
    <path d="M 107.215085 392.971338 
L 111.328107 391.390379 
L 115.441129 389.87195 
L 119.554152 388.349444 
L 123.667174 386.918016 
L 127.780196 385.549119 
L 131.893218 384.157113 
L 136.00624 382.896967 
L 140.119262 381.670806 
L 144.232284 380.479988 
L 148.345306 379.301405 
L 152.458328 378.164963 
L 156.571351 377.00813 
L 160.684373 375.828187 
L 164.797395 374.649604 
L 168.910417 373.442474 
L 173.023439 372.233984 
L 177.136461 370.935776 
L 181.249483 369.724567 
L 185.362505 368.509281 
L 189.475527 367.285838 
L 193.58855 365.971317 
L 197.701572 364.758749 
L 201.814594 363.510838 
L 205.927616 362.309145 
L 210.040638 361.09114 
L 214.15366 359.886728 
L 218.266682 358.661926 
L 222.379704 357.458874 
L 226.492727 356.212322 
L 230.605749 354.96577 
L 234.718771 353.696108 
L 238.831793 352.426446 
L 242.944815 351.160863 
L 247.057837 349.870811 
L 251.170859 348.580758 
L 255.283881 347.270315 
L 259.396903 345.962591 
L 263.509926 344.654866 
L 267.622948 343.345783 
L 271.73597 342.024465 
L 275.848992 340.709943 
L 279.962014 339.380469 
L 284.075036 338.026526 
L 288.188058 336.680739 
L 292.30108 335.330873 
L 296.414102 334.001399 
L 300.527125 332.651534 
L 304.640147 331.29895 
L 308.753169 329.950444 
L 312.866191 328.623689 
L 316.979213 327.273823 
L 321.092235 325.945708 
L 325.205257 324.595843 
L 329.318279 323.289478 
L 333.431301 321.981754 
L 337.544324 320.69578 
L 341.657346 319.262992 
L 345.770368 317.975659 
L 349.88339 316.710075 
L 353.996412 315.47032 
L 358.109434 314.223768 
L 362.222456 312.984012 
L 366.335478 311.742898 
L 370.4485 310.520814 
L 374.561523 309.319122 
L 378.674545 308.098398 
L 382.787567 306.896705 
L 386.900589 305.695012 
L 391.013611 304.49332 
L 395.126633 303.272596 
L 399.239655 302.072263 
L 403.352677 300.871929 
L 407.465699 299.647127 
L 411.578722 298.448153 
L 415.691744 297.242383 
L 419.804766 296.047487 
L 423.917788 294.825404 
L 428.03081 293.62507 
L 432.143832 292.401628 
L 436.256854 291.202654 
L 440.369876 289.98057 
L 444.482898 288.780237 
L 448.595921 287.578544 
L 452.708943 286.356461 
L 456.821965 285.156128 
L 460.934987 283.932685 
L 465.048009 282.732352 
L 469.161031 281.530659 
L 473.274053 280.333045 
L 477.387075 279.110961 
L 481.500098 277.867128 
L 485.61312 276.600185 
L 489.726142 275.33732 
L 493.839164 274.093487 
L 497.952186 272.808872 
L 502.065208 271.544648 
L 506.17823 270.128173 
L 510.291252 268.823167 
L 514.404274 267.408052 
L 518.517297 266.100328 
L 522.630319 264.814353 
L 526.743341 263.52702 
L 530.856363 262.222014 
L 534.969385 260.915649 
L 539.082407 259.576659 
L 543.195429 258.259419 
L 547.308451 256.909554 
L 551.421473 255.581439 
L 555.534496 254.251965 
L 559.647518 252.903459 
L 563.76054 251.549516 
" clip-path="url(#pbcd7bc4d33)" style="fill: none; stroke: #7f7f7f; stroke-width: 2; stroke-linecap: square"/>
   </g>
   <g id="patch_3">
    <path d="M 84.387813 415.44 
L 84.387813 7.2 
" style="fill: none; stroke: #000000; stroke-width: 0.8; stroke-linejoin: miter; stroke-linecap: square"/>
   </g>
   <g id="patch_4">
    <path d="M 586.587813 415.44 
L 586.587813 7.2 
" style="fill: none; stroke: #000000; stroke-width: 0.8; stroke-linejoin: miter; stroke-linecap: square"/>
   </g>
   <g id="patch_5">
    <path d="M 84.387813 415.44 
L 586.587813 415.44 
" style="fill: none; stroke: #000000; stroke-width: 0.8; stroke-linejoin: miter; stroke-linecap: square"/>
   </g>
   <g id="patch_6">
    <path d="M 84.387813 7.2 
L 586.587813 7.2 
" style="fill: none; stroke: #000000; stroke-width: 0.8; stroke-linejoin: miter; stroke-linecap: square"/>
   </g>
   <g id="legend_1">
    <g id="patch_7">
     <path d="M 26.687813 630.276 
L 644.287812 630.276 
Q 648.287812 630.276 648.287812 626.276 
L 648.287812 490.676 
Q 648.287812 486.676 644.287812 486.676 
L 26.687813 486.676 
Q 22.687813 486.676 22.687813 490.676 
L 22.687813 626.276 
Q 22.687813 630.276 26.687813 630.276 
z
" style="fill: #ffffff; stroke: #cccccc; stroke-linejoin: miter"/>
    </g>
    <g id="line2d_33">
     <path d="M 30.687813 506.276 
L 50.687813 506.276 
L 70.687813 506.276 
" style="fill: none; stroke-dasharray: 7.4,3.2; stroke-dashoffset: 0; stroke: #ff7f0e; stroke-width: 2"/>
    </g>
    <g id="text_15">
     <!-- DG-Julia, $N_e^b$ = 2, $N_d^p$=4 -->
     <g transform="translate(86.687813 513.276) scale(0.2 -0.2)">
      <defs>
       <path id="DejaVuSans-44" d="M 1259 4147 
L 1259 519 
L 2022 519 
Q 2988 519 3436 956 
Q 3884 1394 3884 2338 
Q 3884 3275 3436 3711 
Q 2988 4147 2022 4147 
L 1259 4147 
z
M 628 4666 
L 1925 4666 
Q 3281 4666 3915 4102 
Q 4550 3538 4550 2338 
Q 4550 1131 3912 565 
Q 3275 0 1925 0 
L 628 0 
L 628 4666 
z
" transform="scale(0.015625)"/>
       <path id="DejaVuSans-47" d="M 3809 666 
L 3809 1919 
L 2778 1919 
L 2778 2438 
L 4434 2438 
L 4434 434 
Q 4069 175 3628 42 
Q 3188 -91 2688 -91 
Q 1594 -91 976 548 
Q 359 1188 359 2328 
Q 359 3472 976 4111 
Q 1594 4750 2688 4750 
Q 3144 4750 3555 4637 
Q 3966 4525 4313 4306 
L 4313 3634 
Q 3963 3931 3569 4081 
Q 3175 4231 2741 4231 
Q 1884 4231 1454 3753 
Q 1025 3275 1025 2328 
Q 1025 1384 1454 906 
Q 1884 428 2741 428 
Q 3075 428 3337 486 
Q 3600 544 3809 666 
z
" transform="scale(0.015625)"/>
       <path id="DejaVuSans-2d" d="M 313 2009 
L 1997 2009 
L 1997 1497 
L 313 1497 
L 313 2009 
z
" transform="scale(0.015625)"/>
       <path id="DejaVuSans-4a" d="M 628 4666 
L 1259 4666 
L 1259 325 
Q 1259 -519 939 -900 
Q 619 -1281 -91 -1281 
L -331 -1281 
L -331 -750 
L -134 -750 
Q 284 -750 456 -515 
Q 628 -281 628 325 
L 628 4666 
z
" transform="scale(0.015625)"/>
       <path id="DejaVuSans-2c" d="M 750 794 
L 1409 794 
L 1409 256 
L 897 -744 
L 494 -744 
L 750 256 
L 750 794 
z
" transform="scale(0.015625)"/>
       <path id="DejaVuSans-Oblique-4e" d="M 1081 4666 
L 1931 4666 
L 3219 666 
L 4000 4666 
L 4616 4666 
L 3706 0 
L 2853 0 
L 1569 4025 
L 788 0 
L 172 0 
L 1081 4666 
z
" transform="scale(0.015625)"/>
       <path id="DejaVuSans-Oblique-62" d="M 3169 2138 
Q 3169 2591 2961 2847 
Q 2753 3103 2388 3103 
Q 2122 3103 1889 2973 
Q 1656 2844 1484 2597 
Q 1303 2338 1198 1995 
Q 1094 1653 1094 1313 
Q 1094 881 1298 636 
Q 1503 391 1863 391 
Q 2134 391 2365 517 
Q 2597 644 2772 891 
Q 2950 1147 3059 1487 
Q 3169 1828 3169 2138 
z
M 1381 2969 
Q 1594 3256 1914 3420 
Q 2234 3584 2584 3584 
Q 3122 3584 3439 3221 
Q 3756 2859 3756 2241 
Q 3756 1734 3570 1259 
Q 3384 784 3041 416 
Q 2816 172 2522 40 
Q 2228 -91 1906 -91 
Q 1566 -91 1316 65 
Q 1066 222 909 531 
L 806 0 
L 231 0 
L 1178 4863 
L 1753 4863 
L 1381 2969 
z
" transform="scale(0.015625)"/>
       <path id="DejaVuSans-Oblique-65" d="M 3078 2063 
Q 3088 2113 3092 2166 
Q 3097 2219 3097 2272 
Q 3097 2653 2873 2875 
Q 2650 3097 2266 3097 
Q 1838 3097 1509 2826 
Q 1181 2556 1013 2059 
L 3078 2063 
z
M 3578 1613 
L 903 1613 
Q 884 1494 878 1425 
Q 872 1356 872 1306 
Q 872 872 1139 634 
Q 1406 397 1894 397 
Q 2269 397 2603 481 
Q 2938 566 3225 728 
L 3116 159 
Q 2806 34 2476 -28 
Q 2147 -91 1806 -91 
Q 1078 -91 686 257 
Q 294 606 294 1247 
Q 294 1794 489 2264 
Q 684 2734 1063 3103 
Q 1306 3334 1642 3459 
Q 1978 3584 2356 3584 
Q 2950 3584 3301 3228 
Q 3653 2872 3653 2272 
Q 3653 2128 3634 1964 
Q 3616 1800 3578 1613 
z
" transform="scale(0.015625)"/>
       <path id="DejaVuSans-3d" d="M 678 2906 
L 4684 2906 
L 4684 2381 
L 678 2381 
L 678 2906 
z
M 678 1631 
L 4684 1631 
L 4684 1100 
L 678 1100 
L 678 1631 
z
" transform="scale(0.015625)"/>
       <path id="DejaVuSans-Oblique-70" d="M 3175 2156 
Q 3175 2616 2975 2859 
Q 2775 3103 2400 3103 
Q 2144 3103 1911 2972 
Q 1678 2841 1497 2591 
Q 1319 2344 1212 1994 
Q 1106 1644 1106 1300 
Q 1106 863 1306 627 
Q 1506 391 1875 391 
Q 2147 391 2380 519 
Q 2613 647 2778 891 
Q 2956 1147 3065 1494 
Q 3175 1841 3175 2156 
z
M 1394 2969 
Q 1625 3272 1939 3428 
Q 2253 3584 2638 3584 
Q 3175 3584 3472 3232 
Q 3769 2881 3769 2247 
Q 3769 1728 3584 1258 
Q 3400 788 3053 416 
Q 2822 169 2531 39 
Q 2241 -91 1919 -91 
Q 1547 -91 1294 64 
Q 1041 219 916 525 
L 556 -1331 
L -19 -1331 
L 922 3500 
L 1497 3500 
L 1394 2969 
z
" transform="scale(0.015625)"/>
       <path id="DejaVuSans-Oblique-64" d="M 2675 525 
Q 2444 222 2128 65 
Q 1813 -91 1428 -91 
Q 903 -91 598 267 
Q 294 625 294 1247 
Q 294 1766 478 2236 
Q 663 2706 1013 3078 
Q 1244 3325 1534 3454 
Q 1825 3584 2144 3584 
Q 2481 3584 2739 3421 
Q 2997 3259 3138 2956 
L 3513 4863 
L 4091 4863 
L 3144 0 
L 2566 0 
L 2675 525 
z
M 891 1350 
Q 891 897 1095 644 
Q 1300 391 1663 391 
Q 1931 391 2161 520 
Q 2391 650 2566 903 
Q 2750 1166 2856 1509 
Q 2963 1853 2963 2188 
Q 2963 2622 2758 2865 
Q 2553 3109 2194 3109 
Q 1922 3109 1687 2981 
Q 1453 2853 1288 2613 
Q 1106 2353 998 2009 
Q 891 1666 891 1350 
z
" transform="scale(0.015625)"/>
      </defs>
      <use xlink:href="#DejaVuSans-44" transform="translate(0 0.896875)"/>
      <use xlink:href="#DejaVuSans-47" transform="translate(77.001953 0.896875)"/>
      <use xlink:href="#DejaVuSans-2d" transform="translate(154.492188 0.896875)"/>
      <use xlink:href="#DejaVuSans-4a" transform="translate(190.576172 0.896875)"/>
      <use xlink:href="#DejaVuSans-75" transform="translate(220.068359 0.896875)"/>
      <use xlink:href="#DejaVuSans-6c" transform="translate(283.447266 0.896875)"/>
      <use xlink:href="#DejaVuSans-69" transform="translate(311.230469 0.896875)"/>
      <use xlink:href="#DejaVuSans-61" transform="translate(339.013672 0.896875)"/>
      <use xlink:href="#DejaVuSans-2c" transform="translate(400.292969 0.896875)"/>
      <use xlink:href="#DejaVuSans-20" transform="translate(432.080078 0.896875)"/>
      <use xlink:href="#DejaVuSans-Oblique-4e" transform="translate(463.867188 0.896875)"/>
      <use xlink:href="#DejaVuSans-Oblique-62" transform="translate(545.688646 39.178125) scale(0.7)"/>
      <use xlink:href="#DejaVuSans-Oblique-65" transform="translate(538.671875 -26.446875) scale(0.7)"/>
      <use xlink:href="#DejaVuSans-20" transform="translate(592.856615 0.896875)"/>
      <use xlink:href="#DejaVuSans-3d" transform="translate(624.643724 0.896875)"/>
      <use xlink:href="#DejaVuSans-20" transform="translate(708.432786 0.896875)"/>
      <use xlink:href="#DejaVuSans-32" transform="translate(740.219896 0.896875)"/>
      <use xlink:href="#DejaVuSans-2c" transform="translate(803.842943 0.896875)"/>
      <use xlink:href="#DejaVuSans-20" transform="translate(835.630052 0.896875)"/>
      <use xlink:href="#DejaVuSans-Oblique-4e" transform="translate(867.417161 0.896875)"/>
      <use xlink:href="#DejaVuSans-Oblique-70" transform="translate(949.23862 53.8) scale(0.7)"/>
      <use xlink:href="#DejaVuSans-Oblique-64" transform="translate(942.221849 -26.446875) scale(0.7)"/>
      <use xlink:href="#DejaVuSans-3d" transform="translate(996.406589 0.896875)"/>
      <use xlink:href="#DejaVuSans-34" transform="translate(1080.195651 0.896875)"/>
     </g>
    </g>
    <g id="line2d_34">
     <path d="M 30.687813 540.676 
L 50.687813 540.676 
L 70.687813 540.676 
" style="fill: none; stroke: #ff7f0e; stroke-width: 2; stroke-linecap: square"/>
    </g>
    <g id="text_16">
     <!-- OCA-FPI, $N_e^b$ = 2, $N_d^p$=4 -->
     <g transform="translate(86.687813 547.676) scale(0.2 -0.2)">
      <defs>
       <path id="DejaVuSans-4f" d="M 2522 4238 
Q 1834 4238 1429 3725 
Q 1025 3213 1025 2328 
Q 1025 1447 1429 934 
Q 1834 422 2522 422 
Q 3209 422 3611 934 
Q 4013 1447 4013 2328 
Q 4013 3213 3611 3725 
Q 3209 4238 2522 4238 
z
M 2522 4750 
Q 3503 4750 4090 4092 
Q 4678 3434 4678 2328 
Q 4678 1225 4090 567 
Q 3503 -91 2522 -91 
Q 1538 -91 948 565 
Q 359 1222 359 2328 
Q 359 3434 948 4092 
Q 1538 4750 2522 4750 
z
" transform="scale(0.015625)"/>
       <path id="DejaVuSans-41" d="M 2188 4044 
L 1331 1722 
L 3047 1722 
L 2188 4044 
z
M 1831 4666 
L 2547 4666 
L 4325 0 
L 3669 0 
L 3244 1197 
L 1141 1197 
L 716 0 
L 50 0 
L 1831 4666 
z
" transform="scale(0.015625)"/>
       <path id="DejaVuSans-46" d="M 628 4666 
L 3309 4666 
L 3309 4134 
L 1259 4134 
L 1259 2759 
L 3109 2759 
L 3109 2228 
L 1259 2228 
L 1259 0 
L 628 0 
L 628 4666 
z
" transform="scale(0.015625)"/>
       <path id="DejaVuSans-50" d="M 1259 4147 
L 1259 2394 
L 2053 2394 
Q 2494 2394 2734 2622 
Q 2975 2850 2975 3272 
Q 2975 3691 2734 3919 
Q 2494 4147 2053 4147 
L 1259 4147 
z
M 628 4666 
L 2053 4666 
Q 2838 4666 3239 4311 
Q 3641 3956 3641 3272 
Q 3641 2581 3239 2228 
Q 2838 1875 2053 1875 
L 1259 1875 
L 1259 0 
L 628 0 
L 628 4666 
z
" transform="scale(0.015625)"/>
      </defs>
      <use xlink:href="#DejaVuSans-4f" transform="translate(0 0.896875)"/>
      <use xlink:href="#DejaVuSans-43" transform="translate(78.710938 0.896875)"/>
      <use xlink:href="#DejaVuSans-41" transform="translate(148.535156 0.896875)"/>
      <use xlink:href="#DejaVuSans-2d" transform="translate(216.943359 0.896875)"/>
      <use xlink:href="#DejaVuSans-46" transform="translate(253.027344 0.896875)"/>
      <use xlink:href="#DejaVuSans-50" transform="translate(310.546875 0.896875)"/>
      <use xlink:href="#DejaVuSans-49" transform="translate(370.849609 0.896875)"/>
      <use xlink:href="#DejaVuSans-2c" transform="translate(400.341797 0.896875)"/>
      <use xlink:href="#DejaVuSans-20" transform="translate(432.128906 0.896875)"/>
      <use xlink:href="#DejaVuSans-Oblique-4e" transform="translate(463.916016 0.896875)"/>
      <use xlink:href="#DejaVuSans-Oblique-62" transform="translate(545.737474 39.178125) scale(0.7)"/>
      <use xlink:href="#DejaVuSans-Oblique-65" transform="translate(538.720703 -26.446875) scale(0.7)"/>
      <use xlink:href="#DejaVuSans-20" transform="translate(592.905443 0.896875)"/>
      <use xlink:href="#DejaVuSans-3d" transform="translate(624.692552 0.896875)"/>
      <use xlink:href="#DejaVuSans-20" transform="translate(708.481615 0.896875)"/>
      <use xlink:href="#DejaVuSans-32" transform="translate(740.268724 0.896875)"/>
      <use xlink:href="#DejaVuSans-2c" transform="translate(803.891771 0.896875)"/>
      <use xlink:href="#DejaVuSans-20" transform="translate(835.67888 0.896875)"/>
      <use xlink:href="#DejaVuSans-Oblique-4e" transform="translate(867.46599 0.896875)"/>
      <use xlink:href="#DejaVuSans-Oblique-70" transform="translate(949.287448 53.8) scale(0.7)"/>
      <use xlink:href="#DejaVuSans-Oblique-64" transform="translate(942.270677 -26.446875) scale(0.7)"/>
      <use xlink:href="#DejaVuSans-3d" transform="translate(996.455417 0.896875)"/>
      <use xlink:href="#DejaVuSans-34" transform="translate(1080.244479 0.896875)"/>
     </g>
    </g>
    <g id="line2d_35">
     <path d="M 30.687813 575.076 
L 50.687813 575.076 
L 70.687813 575.076 
" style="fill: none; stroke-dasharray: 7.4,3.2; stroke-dashoffset: 0; stroke: #d62728; stroke-width: 2"/>
    </g>
    <g id="text_17">
     <!-- DG-Julia, $N_e^b$ = 4, $N_d^p$=4 -->
     <g transform="translate(86.687813 582.076) scale(0.2 -0.2)">
      <use xlink:href="#DejaVuSans-44" transform="translate(0 0.896875)"/>
      <use xlink:href="#DejaVuSans-47" transform="translate(77.001953 0.896875)"/>
      <use xlink:href="#DejaVuSans-2d" transform="translate(154.492188 0.896875)"/>
      <use xlink:href="#DejaVuSans-4a" transform="translate(190.576172 0.896875)"/>
      <use xlink:href="#DejaVuSans-75" transform="translate(220.068359 0.896875)"/>
      <use xlink:href="#DejaVuSans-6c" transform="translate(283.447266 0.896875)"/>
      <use xlink:href="#DejaVuSans-69" transform="translate(311.230469 0.896875)"/>
      <use xlink:href="#DejaVuSans-61" transform="translate(339.013672 0.896875)"/>
      <use xlink:href="#DejaVuSans-2c" transform="translate(400.292969 0.896875)"/>
      <use xlink:href="#DejaVuSans-20" transform="translate(432.080078 0.896875)"/>
      <use xlink:href="#DejaVuSans-Oblique-4e" transform="translate(463.867188 0.896875)"/>
      <use xlink:href="#DejaVuSans-Oblique-62" transform="translate(545.688646 39.178125) scale(0.7)"/>
      <use xlink:href="#DejaVuSans-Oblique-65" transform="translate(538.671875 -26.446875) scale(0.7)"/>
      <use xlink:href="#DejaVuSans-20" transform="translate(592.856615 0.896875)"/>
      <use xlink:href="#DejaVuSans-3d" transform="translate(624.643724 0.896875)"/>
      <use xlink:href="#DejaVuSans-20" transform="translate(708.432786 0.896875)"/>
      <use xlink:href="#DejaVuSans-34" transform="translate(740.219896 0.896875)"/>
      <use xlink:href="#DejaVuSans-2c" transform="translate(803.842943 0.896875)"/>
      <use xlink:href="#DejaVuSans-20" transform="translate(835.630052 0.896875)"/>
      <use xlink:href="#DejaVuSans-Oblique-4e" transform="translate(867.417161 0.896875)"/>
      <use xlink:href="#DejaVuSans-Oblique-70" transform="translate(949.23862 53.8) scale(0.7)"/>
      <use xlink:href="#DejaVuSans-Oblique-64" transform="translate(942.221849 -26.446875) scale(0.7)"/>
      <use xlink:href="#DejaVuSans-3d" transform="translate(996.406589 0.896875)"/>
      <use xlink:href="#DejaVuSans-34" transform="translate(1080.195651 0.896875)"/>
     </g>
    </g>
    <g id="line2d_36">
     <path d="M 30.687813 609.476 
L 50.687813 609.476 
L 70.687813 609.476 
" style="fill: none; stroke: #d62728; stroke-width: 2; stroke-linecap: square"/>
    </g>
    <g id="text_18">
     <!-- OCA-FPI, $N_e^b$ = 4, $N_d^p$=4 -->
     <g transform="translate(86.687813 616.476) scale(0.2 -0.2)">
      <use xlink:href="#DejaVuSans-4f" transform="translate(0 0.896875)"/>
      <use xlink:href="#DejaVuSans-43" transform="translate(78.710938 0.896875)"/>
      <use xlink:href="#DejaVuSans-41" transform="translate(148.535156 0.896875)"/>
      <use xlink:href="#DejaVuSans-2d" transform="translate(216.943359 0.896875)"/>
      <use xlink:href="#DejaVuSans-46" transform="translate(253.027344 0.896875)"/>
      <use xlink:href="#DejaVuSans-50" transform="translate(310.546875 0.896875)"/>
      <use xlink:href="#DejaVuSans-49" transform="translate(370.849609 0.896875)"/>
      <use xlink:href="#DejaVuSans-2c" transform="translate(400.341797 0.896875)"/>
      <use xlink:href="#DejaVuSans-20" transform="translate(432.128906 0.896875)"/>
      <use xlink:href="#DejaVuSans-Oblique-4e" transform="translate(463.916016 0.896875)"/>
      <use xlink:href="#DejaVuSans-Oblique-62" transform="translate(545.737474 39.178125) scale(0.7)"/>
      <use xlink:href="#DejaVuSans-Oblique-65" transform="translate(538.720703 -26.446875) scale(0.7)"/>
      <use xlink:href="#DejaVuSans-20" transform="translate(592.905443 0.896875)"/>
      <use xlink:href="#DejaVuSans-3d" transform="translate(624.692552 0.896875)"/>
      <use xlink:href="#DejaVuSans-20" transform="translate(708.481615 0.896875)"/>
      <use xlink:href="#DejaVuSans-34" transform="translate(740.268724 0.896875)"/>
      <use xlink:href="#DejaVuSans-2c" transform="translate(803.891771 0.896875)"/>
      <use xlink:href="#DejaVuSans-20" transform="translate(835.67888 0.896875)"/>
      <use xlink:href="#DejaVuSans-Oblique-4e" transform="translate(867.46599 0.896875)"/>
      <use xlink:href="#DejaVuSans-Oblique-70" transform="translate(949.287448 53.8) scale(0.7)"/>
      <use xlink:href="#DejaVuSans-Oblique-64" transform="translate(942.270677 -26.446875) scale(0.7)"/>
      <use xlink:href="#DejaVuSans-3d" transform="translate(996.455417 0.896875)"/>
      <use xlink:href="#DejaVuSans-34" transform="translate(1080.244479 0.896875)"/>
     </g>
    </g>
    <g id="line2d_37">
     <path d="M 355.487813 506.276 
L 375.487813 506.276 
L 395.487813 506.276 
" style="fill: none; stroke-dasharray: 7.4,3.2; stroke-dashoffset: 0; stroke: #17becf; stroke-width: 2"/>
    </g>
    <g id="text_19">
     <!-- DG-Julia, $N_e^b$ = 2, $N_d^p$=6 -->
     <g transform="translate(411.487813 513.276) scale(0.2 -0.2)">
      <use xlink:href="#DejaVuSans-44" transform="translate(0 0.896875)"/>
      <use xlink:href="#DejaVuSans-47" transform="translate(77.001953 0.896875)"/>
      <use xlink:href="#DejaVuSans-2d" transform="translate(154.492188 0.896875)"/>
      <use xlink:href="#DejaVuSans-4a" transform="translate(190.576172 0.896875)"/>
      <use xlink:href="#DejaVuSans-75" transform="translate(220.068359 0.896875)"/>
      <use xlink:href="#DejaVuSans-6c" transform="translate(283.447266 0.896875)"/>
      <use xlink:href="#DejaVuSans-69" transform="translate(311.230469 0.896875)"/>
      <use xlink:href="#DejaVuSans-61" transform="translate(339.013672 0.896875)"/>
      <use xlink:href="#DejaVuSans-2c" transform="translate(400.292969 0.896875)"/>
      <use xlink:href="#DejaVuSans-20" transform="translate(432.080078 0.896875)"/>
      <use xlink:href="#DejaVuSans-Oblique-4e" transform="translate(463.867188 0.896875)"/>
      <use xlink:href="#DejaVuSans-Oblique-62" transform="translate(545.688646 39.178125) scale(0.7)"/>
      <use xlink:href="#DejaVuSans-Oblique-65" transform="translate(538.671875 -26.446875) scale(0.7)"/>
      <use xlink:href="#DejaVuSans-20" transform="translate(592.856615 0.896875)"/>
      <use xlink:href="#DejaVuSans-3d" transform="translate(624.643724 0.896875)"/>
      <use xlink:href="#DejaVuSans-20" transform="translate(708.432786 0.896875)"/>
      <use xlink:href="#DejaVuSans-32" transform="translate(740.219896 0.896875)"/>
      <use xlink:href="#DejaVuSans-2c" transform="translate(803.842943 0.896875)"/>
      <use xlink:href="#DejaVuSans-20" transform="translate(835.630052 0.896875)"/>
      <use xlink:href="#DejaVuSans-Oblique-4e" transform="translate(867.417161 0.896875)"/>
      <use xlink:href="#DejaVuSans-Oblique-70" transform="translate(949.23862 53.8) scale(0.7)"/>
      <use xlink:href="#DejaVuSans-Oblique-64" transform="translate(942.221849 -26.446875) scale(0.7)"/>
      <use xlink:href="#DejaVuSans-3d" transform="translate(996.406589 0.896875)"/>
      <use xlink:href="#DejaVuSans-36" transform="translate(1080.195651 0.896875)"/>
     </g>
    </g>
    <g id="line2d_38">
     <path d="M 355.487813 540.676 
L 375.487813 540.676 
L 395.487813 540.676 
" style="fill: none; stroke: #17becf; stroke-width: 2; stroke-linecap: square"/>
    </g>
    <g id="text_20">
     <!-- OCA-FPI, $N_e^b$ = 2, $N_d^p$=6 -->
     <g transform="translate(411.487813 547.676) scale(0.2 -0.2)">
      <use xlink:href="#DejaVuSans-4f" transform="translate(0 0.896875)"/>
      <use xlink:href="#DejaVuSans-43" transform="translate(78.710938 0.896875)"/>
      <use xlink:href="#DejaVuSans-41" transform="translate(148.535156 0.896875)"/>
      <use xlink:href="#DejaVuSans-2d" transform="translate(216.943359 0.896875)"/>
      <use xlink:href="#DejaVuSans-46" transform="translate(253.027344 0.896875)"/>
      <use xlink:href="#DejaVuSans-50" transform="translate(310.546875 0.896875)"/>
      <use xlink:href="#DejaVuSans-49" transform="translate(370.849609 0.896875)"/>
      <use xlink:href="#DejaVuSans-2c" transform="translate(400.341797 0.896875)"/>
      <use xlink:href="#DejaVuSans-20" transform="translate(432.128906 0.896875)"/>
      <use xlink:href="#DejaVuSans-Oblique-4e" transform="translate(463.916016 0.896875)"/>
      <use xlink:href="#DejaVuSans-Oblique-62" transform="translate(545.737474 39.178125) scale(0.7)"/>
      <use xlink:href="#DejaVuSans-Oblique-65" transform="translate(538.720703 -26.446875) scale(0.7)"/>
      <use xlink:href="#DejaVuSans-20" transform="translate(592.905443 0.896875)"/>
      <use xlink:href="#DejaVuSans-3d" transform="translate(624.692552 0.896875)"/>
      <use xlink:href="#DejaVuSans-20" transform="translate(708.481615 0.896875)"/>
      <use xlink:href="#DejaVuSans-32" transform="translate(740.268724 0.896875)"/>
      <use xlink:href="#DejaVuSans-2c" transform="translate(803.891771 0.896875)"/>
      <use xlink:href="#DejaVuSans-20" transform="translate(835.67888 0.896875)"/>
      <use xlink:href="#DejaVuSans-Oblique-4e" transform="translate(867.46599 0.896875)"/>
      <use xlink:href="#DejaVuSans-Oblique-70" transform="translate(949.287448 53.8) scale(0.7)"/>
      <use xlink:href="#DejaVuSans-Oblique-64" transform="translate(942.270677 -26.446875) scale(0.7)"/>
      <use xlink:href="#DejaVuSans-3d" transform="translate(996.455417 0.896875)"/>
      <use xlink:href="#DejaVuSans-36" transform="translate(1080.244479 0.896875)"/>
     </g>
    </g>
    <g id="line2d_39">
     <path d="M 355.487813 575.076 
L 375.487813 575.076 
L 395.487813 575.076 
" style="fill: none; stroke-dasharray: 7.4,3.2; stroke-dashoffset: 0; stroke: #7f7f7f; stroke-width: 2"/>
    </g>
    <g id="text_21">
     <!-- DG-Julia, $N_e^b$ = 4, $N_d^p$=6 -->
     <g transform="translate(411.487813 582.076) scale(0.2 -0.2)">
      <use xlink:href="#DejaVuSans-44" transform="translate(0 0.896875)"/>
      <use xlink:href="#DejaVuSans-47" transform="translate(77.001953 0.896875)"/>
      <use xlink:href="#DejaVuSans-2d" transform="translate(154.492188 0.896875)"/>
      <use xlink:href="#DejaVuSans-4a" transform="translate(190.576172 0.896875)"/>
      <use xlink:href="#DejaVuSans-75" transform="translate(220.068359 0.896875)"/>
      <use xlink:href="#DejaVuSans-6c" transform="translate(283.447266 0.896875)"/>
      <use xlink:href="#DejaVuSans-69" transform="translate(311.230469 0.896875)"/>
      <use xlink:href="#DejaVuSans-61" transform="translate(339.013672 0.896875)"/>
      <use xlink:href="#DejaVuSans-2c" transform="translate(400.292969 0.896875)"/>
      <use xlink:href="#DejaVuSans-20" transform="translate(432.080078 0.896875)"/>
      <use xlink:href="#DejaVuSans-Oblique-4e" transform="translate(463.867188 0.896875)"/>
      <use xlink:href="#DejaVuSans-Oblique-62" transform="translate(545.688646 39.178125) scale(0.7)"/>
      <use xlink:href="#DejaVuSans-Oblique-65" transform="translate(538.671875 -26.446875) scale(0.7)"/>
      <use xlink:href="#DejaVuSans-20" transform="translate(592.856615 0.896875)"/>
      <use xlink:href="#DejaVuSans-3d" transform="translate(624.643724 0.896875)"/>
      <use xlink:href="#DejaVuSans-20" transform="translate(708.432786 0.896875)"/>
      <use xlink:href="#DejaVuSans-34" transform="translate(740.219896 0.896875)"/>
      <use xlink:href="#DejaVuSans-2c" transform="translate(803.842943 0.896875)"/>
      <use xlink:href="#DejaVuSans-20" transform="translate(835.630052 0.896875)"/>
      <use xlink:href="#DejaVuSans-Oblique-4e" transform="translate(867.417161 0.896875)"/>
      <use xlink:href="#DejaVuSans-Oblique-70" transform="translate(949.23862 53.8) scale(0.7)"/>
      <use xlink:href="#DejaVuSans-Oblique-64" transform="translate(942.221849 -26.446875) scale(0.7)"/>
      <use xlink:href="#DejaVuSans-3d" transform="translate(996.406589 0.896875)"/>
      <use xlink:href="#DejaVuSans-36" transform="translate(1080.195651 0.896875)"/>
     </g>
    </g>
    <g id="line2d_40">
     <path d="M 355.487813 609.476 
L 375.487813 609.476 
L 395.487813 609.476 
" style="fill: none; stroke: #7f7f7f; stroke-width: 2; stroke-linecap: square"/>
    </g>
    <g id="text_22">
     <!-- OCA-FPI, $N_e^b$ = 4, $N_d^p$=6 -->
     <g transform="translate(411.487813 616.476) scale(0.2 -0.2)">
      <use xlink:href="#DejaVuSans-4f" transform="translate(0 0.896875)"/>
      <use xlink:href="#DejaVuSans-43" transform="translate(78.710938 0.896875)"/>
      <use xlink:href="#DejaVuSans-41" transform="translate(148.535156 0.896875)"/>
      <use xlink:href="#DejaVuSans-2d" transform="translate(216.943359 0.896875)"/>
      <use xlink:href="#DejaVuSans-46" transform="translate(253.027344 0.896875)"/>
      <use xlink:href="#DejaVuSans-50" transform="translate(310.546875 0.896875)"/>
      <use xlink:href="#DejaVuSans-49" transform="translate(370.849609 0.896875)"/>
      <use xlink:href="#DejaVuSans-2c" transform="translate(400.341797 0.896875)"/>
      <use xlink:href="#DejaVuSans-20" transform="translate(432.128906 0.896875)"/>
      <use xlink:href="#DejaVuSans-Oblique-4e" transform="translate(463.916016 0.896875)"/>
      <use xlink:href="#DejaVuSans-Oblique-62" transform="translate(545.737474 39.178125) scale(0.7)"/>
      <use xlink:href="#DejaVuSans-Oblique-65" transform="translate(538.720703 -26.446875) scale(0.7)"/>
      <use xlink:href="#DejaVuSans-20" transform="translate(592.905443 0.896875)"/>
      <use xlink:href="#DejaVuSans-3d" transform="translate(624.692552 0.896875)"/>
      <use xlink:href="#DejaVuSans-20" transform="translate(708.481615 0.896875)"/>
      <use xlink:href="#DejaVuSans-34" transform="translate(740.268724 0.896875)"/>
      <use xlink:href="#DejaVuSans-2c" transform="translate(803.891771 0.896875)"/>
      <use xlink:href="#DejaVuSans-20" transform="translate(835.67888 0.896875)"/>
      <use xlink:href="#DejaVuSans-Oblique-4e" transform="translate(867.46599 0.896875)"/>
      <use xlink:href="#DejaVuSans-Oblique-70" transform="translate(949.287448 53.8) scale(0.7)"/>
      <use xlink:href="#DejaVuSans-Oblique-64" transform="translate(942.270677 -26.446875) scale(0.7)"/>
      <use xlink:href="#DejaVuSans-3d" transform="translate(996.455417 0.896875)"/>
      <use xlink:href="#DejaVuSans-36" transform="translate(1080.244479 0.896875)"/>
     </g>
    </g>
   </g>
  </g>
 </g>
 <defs>
  <clipPath id="pbcd7bc4d33">
   <rect x="84.387813" y="7.2" width="502.2" height="408.24"/>
  </clipPath>
 </defs>
</svg>
