<?xml version="1.0" encoding="utf-8" standalone="no"?>
<!DOCTYPE svg PUBLIC "-//W3C//DTD SVG 1.1//EN"
  "http://www.w3.org/Graphics/SVG/1.1/DTD/svg11.dtd">
<svg xmlns:xlink="http://www.w3.org/1999/xlink" width="432pt" height="288pt" viewBox="0 0 432 288" xmlns="http://www.w3.org/2000/svg" version="1.1">
 <metadata>
  <rdf:RDF xmlns:dc="http://purl.org/dc/elements/1.1/" xmlns:cc="http://creativecommons.org/ns#" xmlns:rdf="http://www.w3.org/1999/02/22-rdf-syntax-ns#">
   <cc:Work>
    <dc:type rdf:resource="http://purl.org/dc/dcmitype/StillImage"/>
    <dc:date>2024-10-07T10:55:07.924312</dc:date>
    <dc:format>image/svg+xml</dc:format>
    <dc:creator>
     <cc:Agent>
      <dc:title>Matplotlib v3.9.1, https://matplotlib.org/</dc:title>
     </cc:Agent>
    </dc:creator>
   </cc:Work>
  </rdf:RDF>
 </metadata>
 <defs>
  <style type="text/css">*{stroke-linejoin: round; stroke-linecap: butt}</style>
 </defs>
 <g id="figure_1">
  <g id="patch_1">
   <path d="M 0 288 
L 432 288 
L 432 0 
L 0 0 
z
" style="fill: #ffffff"/>
  </g>
  <g id="axes_1">
   <g id="patch_2">
    <path d="M 54 252 
L 388.8 252 
L 388.8 34.56 
L 54 34.56 
z
" style="fill: #ffffff"/>
   </g>
   <g id="matplotlib.axis_1">
    <g id="xtick_1">
     <g id="line2d_1">
      <defs>
       <path id="m0f39ae62c6" d="M 0 0 
L 0 3.5 
" style="stroke: #000000; stroke-width: 0.8"/>
      </defs>
      <g>
       <use xlink:href="#m0f39ae62c6" x="69.218182" y="252" style="stroke: #000000; stroke-width: 0.8"/>
      </g>
     </g>
     <g id="text_1">
      <!-- 0 -->
      <g transform="translate(66.036932 266.598437) scale(0.1 -0.1)">
       <defs>
        <path id="DejaVuSans-30" d="M 2034 4250 
Q 1547 4250 1301 3770 
Q 1056 3291 1056 2328 
Q 1056 1369 1301 889 
Q 1547 409 2034 409 
Q 2525 409 2770 889 
Q 3016 1369 3016 2328 
Q 3016 3291 2770 3770 
Q 2525 4250 2034 4250 
z
M 2034 4750 
Q 2819 4750 3233 4129 
Q 3647 3509 3647 2328 
Q 3647 1150 3233 529 
Q 2819 -91 2034 -91 
Q 1250 -91 836 529 
Q 422 1150 422 2328 
Q 422 3509 836 4129 
Q 1250 4750 2034 4750 
z
" transform="scale(0.015625)"/>
       </defs>
       <use xlink:href="#DejaVuSans-30"/>
      </g>
     </g>
    </g>
    <g id="xtick_2">
     <g id="line2d_2">
      <g>
       <use xlink:href="#m0f39ae62c6" x="111.490909" y="252" style="stroke: #000000; stroke-width: 0.8"/>
      </g>
     </g>
     <g id="text_2">
      <!-- 2000 -->
      <g transform="translate(98.765909 266.598437) scale(0.1 -0.1)">
       <defs>
        <path id="DejaVuSans-32" d="M 1228 531 
L 3431 531 
L 3431 0 
L 469 0 
L 469 531 
Q 828 903 1448 1529 
Q 2069 2156 2228 2338 
Q 2531 2678 2651 2914 
Q 2772 3150 2772 3378 
Q 2772 3750 2511 3984 
Q 2250 4219 1831 4219 
Q 1534 4219 1204 4116 
Q 875 4013 500 3803 
L 500 4441 
Q 881 4594 1212 4672 
Q 1544 4750 1819 4750 
Q 2544 4750 2975 4387 
Q 3406 4025 3406 3419 
Q 3406 3131 3298 2873 
Q 3191 2616 2906 2266 
Q 2828 2175 2409 1742 
Q 1991 1309 1228 531 
z
" transform="scale(0.015625)"/>
       </defs>
       <use xlink:href="#DejaVuSans-32"/>
       <use xlink:href="#DejaVuSans-30" x="63.623047"/>
       <use xlink:href="#DejaVuSans-30" x="127.246094"/>
       <use xlink:href="#DejaVuSans-30" x="190.869141"/>
      </g>
     </g>
    </g>
    <g id="xtick_3">
     <g id="line2d_3">
      <g>
       <use xlink:href="#m0f39ae62c6" x="153.763636" y="252" style="stroke: #000000; stroke-width: 0.8"/>
      </g>
     </g>
     <g id="text_3">
      <!-- 4000 -->
      <g transform="translate(141.038636 266.598437) scale(0.1 -0.1)">
       <defs>
        <path id="DejaVuSans-34" d="M 2419 4116 
L 825 1625 
L 2419 1625 
L 2419 4116 
z
M 2253 4666 
L 3047 4666 
L 3047 1625 
L 3713 1625 
L 3713 1100 
L 3047 1100 
L 3047 0 
L 2419 0 
L 2419 1100 
L 313 1100 
L 313 1709 
L 2253 4666 
z
" transform="scale(0.015625)"/>
       </defs>
       <use xlink:href="#DejaVuSans-34"/>
       <use xlink:href="#DejaVuSans-30" x="63.623047"/>
       <use xlink:href="#DejaVuSans-30" x="127.246094"/>
       <use xlink:href="#DejaVuSans-30" x="190.869141"/>
      </g>
     </g>
    </g>
    <g id="xtick_4">
     <g id="line2d_4">
      <g>
       <use xlink:href="#m0f39ae62c6" x="196.036364" y="252" style="stroke: #000000; stroke-width: 0.8"/>
      </g>
     </g>
     <g id="text_4">
      <!-- 6000 -->
      <g transform="translate(183.311364 266.598437) scale(0.1 -0.1)">
       <defs>
        <path id="DejaVuSans-36" d="M 2113 2584 
Q 1688 2584 1439 2293 
Q 1191 2003 1191 1497 
Q 1191 994 1439 701 
Q 1688 409 2113 409 
Q 2538 409 2786 701 
Q 3034 994 3034 1497 
Q 3034 2003 2786 2293 
Q 2538 2584 2113 2584 
z
M 3366 4563 
L 3366 3988 
Q 3128 4100 2886 4159 
Q 2644 4219 2406 4219 
Q 1781 4219 1451 3797 
Q 1122 3375 1075 2522 
Q 1259 2794 1537 2939 
Q 1816 3084 2150 3084 
Q 2853 3084 3261 2657 
Q 3669 2231 3669 1497 
Q 3669 778 3244 343 
Q 2819 -91 2113 -91 
Q 1303 -91 875 529 
Q 447 1150 447 2328 
Q 447 3434 972 4092 
Q 1497 4750 2381 4750 
Q 2619 4750 2861 4703 
Q 3103 4656 3366 4563 
z
" transform="scale(0.015625)"/>
       </defs>
       <use xlink:href="#DejaVuSans-36"/>
       <use xlink:href="#DejaVuSans-30" x="63.623047"/>
       <use xlink:href="#DejaVuSans-30" x="127.246094"/>
       <use xlink:href="#DejaVuSans-30" x="190.869141"/>
      </g>
     </g>
    </g>
    <g id="xtick_5">
     <g id="line2d_5">
      <g>
       <use xlink:href="#m0f39ae62c6" x="238.309091" y="252" style="stroke: #000000; stroke-width: 0.8"/>
      </g>
     </g>
     <g id="text_5">
      <!-- 8000 -->
      <g transform="translate(225.584091 266.598437) scale(0.1 -0.1)">
       <defs>
        <path id="DejaVuSans-38" d="M 2034 2216 
Q 1584 2216 1326 1975 
Q 1069 1734 1069 1313 
Q 1069 891 1326 650 
Q 1584 409 2034 409 
Q 2484 409 2743 651 
Q 3003 894 3003 1313 
Q 3003 1734 2745 1975 
Q 2488 2216 2034 2216 
z
M 1403 2484 
Q 997 2584 770 2862 
Q 544 3141 544 3541 
Q 544 4100 942 4425 
Q 1341 4750 2034 4750 
Q 2731 4750 3128 4425 
Q 3525 4100 3525 3541 
Q 3525 3141 3298 2862 
Q 3072 2584 2669 2484 
Q 3125 2378 3379 2068 
Q 3634 1759 3634 1313 
Q 3634 634 3220 271 
Q 2806 -91 2034 -91 
Q 1263 -91 848 271 
Q 434 634 434 1313 
Q 434 1759 690 2068 
Q 947 2378 1403 2484 
z
M 1172 3481 
Q 1172 3119 1398 2916 
Q 1625 2713 2034 2713 
Q 2441 2713 2670 2916 
Q 2900 3119 2900 3481 
Q 2900 3844 2670 4047 
Q 2441 4250 2034 4250 
Q 1625 4250 1398 4047 
Q 1172 3844 1172 3481 
z
" transform="scale(0.015625)"/>
       </defs>
       <use xlink:href="#DejaVuSans-38"/>
       <use xlink:href="#DejaVuSans-30" x="63.623047"/>
       <use xlink:href="#DejaVuSans-30" x="127.246094"/>
       <use xlink:href="#DejaVuSans-30" x="190.869141"/>
      </g>
     </g>
    </g>
    <g id="xtick_6">
     <g id="line2d_6">
      <g>
       <use xlink:href="#m0f39ae62c6" x="280.581818" y="252" style="stroke: #000000; stroke-width: 0.8"/>
      </g>
     </g>
     <g id="text_6">
      <!-- 10000 -->
      <g transform="translate(264.675568 266.598437) scale(0.1 -0.1)">
       <defs>
        <path id="DejaVuSans-31" d="M 794 531 
L 1825 531 
L 1825 4091 
L 703 3866 
L 703 4441 
L 1819 4666 
L 2450 4666 
L 2450 531 
L 3481 531 
L 3481 0 
L 794 0 
L 794 531 
z
" transform="scale(0.015625)"/>
       </defs>
       <use xlink:href="#DejaVuSans-31"/>
       <use xlink:href="#DejaVuSans-30" x="63.623047"/>
       <use xlink:href="#DejaVuSans-30" x="127.246094"/>
       <use xlink:href="#DejaVuSans-30" x="190.869141"/>
       <use xlink:href="#DejaVuSans-30" x="254.492188"/>
      </g>
     </g>
    </g>
    <g id="xtick_7">
     <g id="line2d_7">
      <g>
       <use xlink:href="#m0f39ae62c6" x="322.854545" y="252" style="stroke: #000000; stroke-width: 0.8"/>
      </g>
     </g>
     <g id="text_7">
      <!-- 12000 -->
      <g transform="translate(306.948295 266.598437) scale(0.1 -0.1)">
       <use xlink:href="#DejaVuSans-31"/>
       <use xlink:href="#DejaVuSans-32" x="63.623047"/>
       <use xlink:href="#DejaVuSans-30" x="127.246094"/>
       <use xlink:href="#DejaVuSans-30" x="190.869141"/>
       <use xlink:href="#DejaVuSans-30" x="254.492188"/>
      </g>
     </g>
    </g>
    <g id="xtick_8">
     <g id="line2d_8">
      <g>
       <use xlink:href="#m0f39ae62c6" x="365.127273" y="252" style="stroke: #000000; stroke-width: 0.8"/>
      </g>
     </g>
     <g id="text_8">
      <!-- 14000 -->
      <g transform="translate(349.221023 266.598437) scale(0.1 -0.1)">
       <use xlink:href="#DejaVuSans-31"/>
       <use xlink:href="#DejaVuSans-34" x="63.623047"/>
       <use xlink:href="#DejaVuSans-30" x="127.246094"/>
       <use xlink:href="#DejaVuSans-30" x="190.869141"/>
       <use xlink:href="#DejaVuSans-30" x="254.492188"/>
      </g>
     </g>
    </g>
    <g id="text_9">
     <!-- Time / s -->
     <g transform="translate(201.699219 280.276563) scale(0.1 -0.1)">
      <defs>
       <path id="DejaVuSans-54" d="M -19 4666 
L 3928 4666 
L 3928 4134 
L 2272 4134 
L 2272 0 
L 1638 0 
L 1638 4134 
L -19 4134 
L -19 4666 
z
" transform="scale(0.015625)"/>
       <path id="DejaVuSans-69" d="M 603 3500 
L 1178 3500 
L 1178 0 
L 603 0 
L 603 3500 
z
M 603 4863 
L 1178 4863 
L 1178 4134 
L 603 4134 
L 603 4863 
z
" transform="scale(0.015625)"/>
       <path id="DejaVuSans-6d" d="M 3328 2828 
Q 3544 3216 3844 3400 
Q 4144 3584 4550 3584 
Q 5097 3584 5394 3201 
Q 5691 2819 5691 2113 
L 5691 0 
L 5113 0 
L 5113 2094 
Q 5113 2597 4934 2840 
Q 4756 3084 4391 3084 
Q 3944 3084 3684 2787 
Q 3425 2491 3425 1978 
L 3425 0 
L 2847 0 
L 2847 2094 
Q 2847 2600 2669 2842 
Q 2491 3084 2119 3084 
Q 1678 3084 1418 2786 
Q 1159 2488 1159 1978 
L 1159 0 
L 581 0 
L 581 3500 
L 1159 3500 
L 1159 2956 
Q 1356 3278 1631 3431 
Q 1906 3584 2284 3584 
Q 2666 3584 2933 3390 
Q 3200 3197 3328 2828 
z
" transform="scale(0.015625)"/>
       <path id="DejaVuSans-65" d="M 3597 1894 
L 3597 1613 
L 953 1613 
Q 991 1019 1311 708 
Q 1631 397 2203 397 
Q 2534 397 2845 478 
Q 3156 559 3463 722 
L 3463 178 
Q 3153 47 2828 -22 
Q 2503 -91 2169 -91 
Q 1331 -91 842 396 
Q 353 884 353 1716 
Q 353 2575 817 3079 
Q 1281 3584 2069 3584 
Q 2775 3584 3186 3129 
Q 3597 2675 3597 1894 
z
M 3022 2063 
Q 3016 2534 2758 2815 
Q 2500 3097 2075 3097 
Q 1594 3097 1305 2825 
Q 1016 2553 972 2059 
L 3022 2063 
z
" transform="scale(0.015625)"/>
       <path id="DejaVuSans-20" transform="scale(0.015625)"/>
       <path id="DejaVuSans-2f" d="M 1625 4666 
L 2156 4666 
L 531 -594 
L 0 -594 
L 1625 4666 
z
" transform="scale(0.015625)"/>
       <path id="DejaVuSans-73" d="M 2834 3397 
L 2834 2853 
Q 2591 2978 2328 3040 
Q 2066 3103 1784 3103 
Q 1356 3103 1142 2972 
Q 928 2841 928 2578 
Q 928 2378 1081 2264 
Q 1234 2150 1697 2047 
L 1894 2003 
Q 2506 1872 2764 1633 
Q 3022 1394 3022 966 
Q 3022 478 2636 193 
Q 2250 -91 1575 -91 
Q 1294 -91 989 -36 
Q 684 19 347 128 
L 347 722 
Q 666 556 975 473 
Q 1284 391 1588 391 
Q 1994 391 2212 530 
Q 2431 669 2431 922 
Q 2431 1156 2273 1281 
Q 2116 1406 1581 1522 
L 1381 1569 
Q 847 1681 609 1914 
Q 372 2147 372 2553 
Q 372 3047 722 3315 
Q 1072 3584 1716 3584 
Q 2034 3584 2315 3537 
Q 2597 3491 2834 3397 
z
" transform="scale(0.015625)"/>
      </defs>
      <use xlink:href="#DejaVuSans-54"/>
      <use xlink:href="#DejaVuSans-69" x="57.958984"/>
      <use xlink:href="#DejaVuSans-6d" x="85.742188"/>
      <use xlink:href="#DejaVuSans-65" x="183.154297"/>
      <use xlink:href="#DejaVuSans-20" x="244.677734"/>
      <use xlink:href="#DejaVuSans-2f" x="276.464844"/>
      <use xlink:href="#DejaVuSans-20" x="310.15625"/>
      <use xlink:href="#DejaVuSans-73" x="341.943359"/>
     </g>
    </g>
   </g>
   <g id="matplotlib.axis_2">
    <g id="ytick_1">
     <g id="line2d_9">
      <defs>
       <path id="md78ff88d6e" d="M 0 0 
L -3.5 0 
" style="stroke: #000000; stroke-width: 0.8"/>
      </defs>
      <g>
       <use xlink:href="#md78ff88d6e" x="54" y="242.116364" style="stroke: #000000; stroke-width: 0.8"/>
      </g>
     </g>
     <g id="text_10">
      <!-- 0 -->
      <g transform="translate(40.6375 245.915582) scale(0.1 -0.1)">
       <use xlink:href="#DejaVuSans-30"/>
      </g>
     </g>
    </g>
    <g id="ytick_2">
     <g id="line2d_10">
      <g>
       <use xlink:href="#md78ff88d6e" x="54" y="210.314174" style="stroke: #000000; stroke-width: 0.8"/>
      </g>
     </g>
     <g id="text_11">
      <!-- 1 -->
      <g transform="translate(40.6375 214.113393) scale(0.1 -0.1)">
       <use xlink:href="#DejaVuSans-31"/>
      </g>
     </g>
    </g>
    <g id="ytick_3">
     <g id="line2d_11">
      <g>
       <use xlink:href="#md78ff88d6e" x="54" y="178.511985" style="stroke: #000000; stroke-width: 0.8"/>
      </g>
     </g>
     <g id="text_12">
      <!-- 2 -->
      <g transform="translate(40.6375 182.311203) scale(0.1 -0.1)">
       <use xlink:href="#DejaVuSans-32"/>
      </g>
     </g>
    </g>
    <g id="ytick_4">
     <g id="line2d_12">
      <g>
       <use xlink:href="#md78ff88d6e" x="54" y="146.709795" style="stroke: #000000; stroke-width: 0.8"/>
      </g>
     </g>
     <g id="text_13">
      <!-- 3 -->
      <g transform="translate(40.6375 150.509014) scale(0.1 -0.1)">
       <defs>
        <path id="DejaVuSans-33" d="M 2597 2516 
Q 3050 2419 3304 2112 
Q 3559 1806 3559 1356 
Q 3559 666 3084 287 
Q 2609 -91 1734 -91 
Q 1441 -91 1130 -33 
Q 819 25 488 141 
L 488 750 
Q 750 597 1062 519 
Q 1375 441 1716 441 
Q 2309 441 2620 675 
Q 2931 909 2931 1356 
Q 2931 1769 2642 2001 
Q 2353 2234 1838 2234 
L 1294 2234 
L 1294 2753 
L 1863 2753 
Q 2328 2753 2575 2939 
Q 2822 3125 2822 3475 
Q 2822 3834 2567 4026 
Q 2313 4219 1838 4219 
Q 1578 4219 1281 4162 
Q 984 4106 628 3988 
L 628 4550 
Q 988 4650 1302 4700 
Q 1616 4750 1894 4750 
Q 2613 4750 3031 4423 
Q 3450 4097 3450 3541 
Q 3450 3153 3228 2886 
Q 3006 2619 2597 2516 
z
" transform="scale(0.015625)"/>
       </defs>
       <use xlink:href="#DejaVuSans-33"/>
      </g>
     </g>
    </g>
    <g id="ytick_5">
     <g id="line2d_13">
      <g>
       <use xlink:href="#md78ff88d6e" x="54" y="114.907606" style="stroke: #000000; stroke-width: 0.8"/>
      </g>
     </g>
     <g id="text_14">
      <!-- 4 -->
      <g transform="translate(40.6375 118.706824) scale(0.1 -0.1)">
       <use xlink:href="#DejaVuSans-34"/>
      </g>
     </g>
    </g>
    <g id="ytick_6">
     <g id="line2d_14">
      <g>
       <use xlink:href="#md78ff88d6e" x="54" y="83.105416" style="stroke: #000000; stroke-width: 0.8"/>
      </g>
     </g>
     <g id="text_15">
      <!-- 5 -->
      <g transform="translate(40.6375 86.904635) scale(0.1 -0.1)">
       <defs>
        <path id="DejaVuSans-35" d="M 691 4666 
L 3169 4666 
L 3169 4134 
L 1269 4134 
L 1269 2991 
Q 1406 3038 1543 3061 
Q 1681 3084 1819 3084 
Q 2600 3084 3056 2656 
Q 3513 2228 3513 1497 
Q 3513 744 3044 326 
Q 2575 -91 1722 -91 
Q 1428 -91 1123 -41 
Q 819 9 494 109 
L 494 744 
Q 775 591 1075 516 
Q 1375 441 1709 441 
Q 2250 441 2565 725 
Q 2881 1009 2881 1497 
Q 2881 1984 2565 2268 
Q 2250 2553 1709 2553 
Q 1456 2553 1204 2497 
Q 953 2441 691 2322 
L 691 4666 
z
" transform="scale(0.015625)"/>
       </defs>
       <use xlink:href="#DejaVuSans-35"/>
      </g>
     </g>
    </g>
    <g id="ytick_7">
     <g id="line2d_15">
      <g>
       <use xlink:href="#md78ff88d6e" x="54" y="51.303227" style="stroke: #000000; stroke-width: 0.8"/>
      </g>
     </g>
     <g id="text_16">
      <!-- 6 -->
      <g transform="translate(40.6375 55.102446) scale(0.1 -0.1)">
       <use xlink:href="#DejaVuSans-36"/>
      </g>
     </g>
    </g>
    <g id="text_17">
     <!-- Concentration / mM -->
     <g transform="translate(34.557812 192.697969) rotate(-90) scale(0.1 -0.1)">
      <defs>
       <path id="DejaVuSans-43" d="M 4122 4306 
L 4122 3641 
Q 3803 3938 3442 4084 
Q 3081 4231 2675 4231 
Q 1875 4231 1450 3742 
Q 1025 3253 1025 2328 
Q 1025 1406 1450 917 
Q 1875 428 2675 428 
Q 3081 428 3442 575 
Q 3803 722 4122 1019 
L 4122 359 
Q 3791 134 3420 21 
Q 3050 -91 2638 -91 
Q 1578 -91 968 557 
Q 359 1206 359 2328 
Q 359 3453 968 4101 
Q 1578 4750 2638 4750 
Q 3056 4750 3426 4639 
Q 3797 4528 4122 4306 
z
" transform="scale(0.015625)"/>
       <path id="DejaVuSans-6f" d="M 1959 3097 
Q 1497 3097 1228 2736 
Q 959 2375 959 1747 
Q 959 1119 1226 758 
Q 1494 397 1959 397 
Q 2419 397 2687 759 
Q 2956 1122 2956 1747 
Q 2956 2369 2687 2733 
Q 2419 3097 1959 3097 
z
M 1959 3584 
Q 2709 3584 3137 3096 
Q 3566 2609 3566 1747 
Q 3566 888 3137 398 
Q 2709 -91 1959 -91 
Q 1206 -91 779 398 
Q 353 888 353 1747 
Q 353 2609 779 3096 
Q 1206 3584 1959 3584 
z
" transform="scale(0.015625)"/>
       <path id="DejaVuSans-6e" d="M 3513 2113 
L 3513 0 
L 2938 0 
L 2938 2094 
Q 2938 2591 2744 2837 
Q 2550 3084 2163 3084 
Q 1697 3084 1428 2787 
Q 1159 2491 1159 1978 
L 1159 0 
L 581 0 
L 581 3500 
L 1159 3500 
L 1159 2956 
Q 1366 3272 1645 3428 
Q 1925 3584 2291 3584 
Q 2894 3584 3203 3211 
Q 3513 2838 3513 2113 
z
" transform="scale(0.015625)"/>
       <path id="DejaVuSans-63" d="M 3122 3366 
L 3122 2828 
Q 2878 2963 2633 3030 
Q 2388 3097 2138 3097 
Q 1578 3097 1268 2742 
Q 959 2388 959 1747 
Q 959 1106 1268 751 
Q 1578 397 2138 397 
Q 2388 397 2633 464 
Q 2878 531 3122 666 
L 3122 134 
Q 2881 22 2623 -34 
Q 2366 -91 2075 -91 
Q 1284 -91 818 406 
Q 353 903 353 1747 
Q 353 2603 823 3093 
Q 1294 3584 2113 3584 
Q 2378 3584 2631 3529 
Q 2884 3475 3122 3366 
z
" transform="scale(0.015625)"/>
       <path id="DejaVuSans-74" d="M 1172 4494 
L 1172 3500 
L 2356 3500 
L 2356 3053 
L 1172 3053 
L 1172 1153 
Q 1172 725 1289 603 
Q 1406 481 1766 481 
L 2356 481 
L 2356 0 
L 1766 0 
Q 1100 0 847 248 
Q 594 497 594 1153 
L 594 3053 
L 172 3053 
L 172 3500 
L 594 3500 
L 594 4494 
L 1172 4494 
z
" transform="scale(0.015625)"/>
       <path id="DejaVuSans-72" d="M 2631 2963 
Q 2534 3019 2420 3045 
Q 2306 3072 2169 3072 
Q 1681 3072 1420 2755 
Q 1159 2438 1159 1844 
L 1159 0 
L 581 0 
L 581 3500 
L 1159 3500 
L 1159 2956 
Q 1341 3275 1631 3429 
Q 1922 3584 2338 3584 
Q 2397 3584 2469 3576 
Q 2541 3569 2628 3553 
L 2631 2963 
z
" transform="scale(0.015625)"/>
       <path id="DejaVuSans-61" d="M 2194 1759 
Q 1497 1759 1228 1600 
Q 959 1441 959 1056 
Q 959 750 1161 570 
Q 1363 391 1709 391 
Q 2188 391 2477 730 
Q 2766 1069 2766 1631 
L 2766 1759 
L 2194 1759 
z
M 3341 1997 
L 3341 0 
L 2766 0 
L 2766 531 
Q 2569 213 2275 61 
Q 1981 -91 1556 -91 
Q 1019 -91 701 211 
Q 384 513 384 1019 
Q 384 1609 779 1909 
Q 1175 2209 1959 2209 
L 2766 2209 
L 2766 2266 
Q 2766 2663 2505 2880 
Q 2244 3097 1772 3097 
Q 1472 3097 1187 3025 
Q 903 2953 641 2809 
L 641 3341 
Q 956 3463 1253 3523 
Q 1550 3584 1831 3584 
Q 2591 3584 2966 3190 
Q 3341 2797 3341 1997 
z
" transform="scale(0.015625)"/>
       <path id="DejaVuSans-4d" d="M 628 4666 
L 1569 4666 
L 2759 1491 
L 3956 4666 
L 4897 4666 
L 4897 0 
L 4281 0 
L 4281 4097 
L 3078 897 
L 2444 897 
L 1241 4097 
L 1241 0 
L 628 0 
L 628 4666 
z
" transform="scale(0.015625)"/>
      </defs>
      <use xlink:href="#DejaVuSans-43"/>
      <use xlink:href="#DejaVuSans-6f" x="69.824219"/>
      <use xlink:href="#DejaVuSans-6e" x="131.005859"/>
      <use xlink:href="#DejaVuSans-63" x="194.384766"/>
      <use xlink:href="#DejaVuSans-65" x="249.365234"/>
      <use xlink:href="#DejaVuSans-6e" x="310.888672"/>
      <use xlink:href="#DejaVuSans-74" x="374.267578"/>
      <use xlink:href="#DejaVuSans-72" x="413.476562"/>
      <use xlink:href="#DejaVuSans-61" x="454.589844"/>
      <use xlink:href="#DejaVuSans-74" x="515.869141"/>
      <use xlink:href="#DejaVuSans-69" x="555.078125"/>
      <use xlink:href="#DejaVuSans-6f" x="582.861328"/>
      <use xlink:href="#DejaVuSans-6e" x="644.042969"/>
      <use xlink:href="#DejaVuSans-20" x="707.421875"/>
      <use xlink:href="#DejaVuSans-2f" x="739.208984"/>
      <use xlink:href="#DejaVuSans-20" x="772.900391"/>
      <use xlink:href="#DejaVuSans-6d" x="804.6875"/>
      <use xlink:href="#DejaVuSans-4d" x="902.099609"/>
     </g>
    </g>
   </g>
   <g id="line2d_16">
    <path d="M 69.218182 242.116364 
L 71.545295 242.006286 
L 71.748205 241.699525 
L 71.953227 240.91187 
L 72.196295 238.94903 
L 72.523909 234.1865 
L 73.022727 224.457536 
L 73.13475 242.116363 
L 74.772818 242.006104 
L 75.053932 241.73234 
L 75.282205 241.158801 
L 75.508364 239.899364 
L 75.755659 237.064809 
L 76.055795 230.653297 
L 76.558841 213.973037 
L 76.827273 204.917272 
L 76.829386 242.116306 
L 76.939295 242.116243 
L 78.186341 242.004336 
L 78.478023 241.73813 
L 78.718977 241.179857 
L 78.959932 239.979477 
L 79.209341 237.451201 
L 79.482 232.098751 
L 79.820182 220.387865 
L 80.631818 183.164383 
L 80.633932 242.115646 
L 80.743841 242.115074 
L 81.688636 241.997595 
L 81.982432 241.72768 
L 82.223386 241.164061 
L 82.464341 239.949683 
L 82.717977 237.376845 
L 82.99275 232.026952 
L 83.307682 220.962703 
L 83.779023 194.950203 
L 84.436364 160.499812 
L 84.438477 242.113036 
L 84.548386 242.110741 
L 85.254341 241.980475 
L 85.539682 241.691693 
L 85.776409 241.094366 
L 86.01525 239.797508 
L 86.268886 237.013986 
L 86.547886 231.166543 
L 86.867045 219.198786 
L 87.300341 193.166637 
L 88.143682 142.56784 
L 88.240909 138.958262 
L 88.243023 242.10557 
L 88.352932 242.098655 
L 88.870773 241.945469 
L 89.137091 241.621984 
L 89.371705 240.935172 
L 89.608432 239.455056 
L 89.862068 236.261919 
L 90.145295 229.480008 
L 90.477136 215.481921 
L 90.931568 185.402833 
L 91.78125 129.500816 
L 92.045455 120.093821 
L 92.047568 242.086324 
L 92.157477 242.068099 
L 92.533705 241.875548 
L 92.781 241.474252 
L 93.011386 240.614689 
L 93.250227 238.742001 
L 93.508091 234.715398 
L 93.799773 226.181714 
L 94.154864 208.358974 
L 94.702295 167.496494 
L 95.404023 119.604017 
L 95.811955 105.352404 
L 95.85 104.51236 
L 95.852114 242.039947 
L 95.962023 241.996188 
L 96.24525 241.728918 
L 96.47775 241.160672 
L 96.71025 239.911595 
L 96.955432 237.201888 
L 97.223864 231.440019 
L 97.536682 219.272458 
L 97.944614 193.466614 
L 99.286773 101.007033 
L 99.652432 92.137149 
L 99.654545 92.105751 
L 99.656659 241.938059 
L 99.766568 241.842291 
L 100.003295 241.418515 
L 100.231568 240.484092 
L 100.470409 238.425408 
L 100.728273 234.00441 
L 101.019955 224.666391 
L 101.377159 205.131572 
L 101.971091 157.738219 
L 102.712977 103.938829 
L 103.131477 87.955743 
L 103.459091 82.429215 
L 103.461205 241.738663 
L 103.571114 241.54896 
L 103.795159 240.806303 
L 104.027659 239.158858 
L 104.279182 235.55713 
L 104.558182 227.947386 
L 104.890023 211.996762 
L 105.361364 176.769087 
L 106.409727 97.015755 
L 106.830341 81.136563 
L 107.160068 75.691259 
L 107.263636 74.957902 
L 107.26575 241.392924 
L 107.375659 241.053385 
L 107.601818 239.762852 
L 107.847 236.88604 
L 108.117545 230.704609 
L 108.430364 217.741913 
L 108.836182 190.289339 
L 110.260773 84.706969 
L 110.651795 73.180957 
L 110.954045 69.627693 
L 111.068182 69.209142 
L 111.070295 240.858039 
L 111.180205 240.30577 
L 111.414818 238.18914 
L 111.672682 233.572332 
L 111.964364 223.840819 
L 112.321568 203.441627 
L 112.900705 154.777418 
L 113.678523 94.876992 
L 114.143523 74.25503 
L 114.500727 66.739872 
L 114.762818 64.867766 
L 114.857932 64.77377 
L 114.872727 64.782964 
L 114.874841 240.110045 
L 114.98475 239.285003 
L 115.229932 236.06147 
L 115.504705 229.102477 
L 115.825977 214.529001 
L 116.250818 183.62247 
L 117.523227 84.427057 
L 117.962864 68.061791 
L 118.301045 62.387367 
L 118.537773 61.223047 
L 118.607523 61.226656 
L 118.641341 61.277435 
L 118.677273 61.364358 
L 118.679386 239.150346 
L 118.789295 238.004001 
L 119.045045 233.440869 
L 119.336727 223.71724 
L 119.689705 203.54023 
L 120.23925 156.866852 
L 121.046659 92.585131 
L 121.539136 69.717546 
L 121.917477 60.904723 
L 122.198591 58.494555 
L 122.319068 58.311933 
L 122.357114 58.343287 
L 122.477591 58.692718 
L 122.481818 58.711403 
L 122.483932 238.004067 
L 122.593841 236.504286 
L 122.860159 230.420103 
L 123.170864 217.524386 
L 123.566114 190.545647 
L 125.100614 73.968536 
L 125.525455 60.903626 
L 125.846727 56.642314 
L 126.060205 55.953208 
L 126.151091 56.075528 
L 126.286364 56.640355 
L 126.288477 236.71276 
L 126.398386 234.844649 
L 126.675273 227.115443 
L 127.005 210.843458 
L 127.453091 176.036303 
L 128.581773 84.583519 
L 129.063682 64.293006 
L 129.442023 56.278049 
L 129.716795 54.167284 
L 129.824591 54.032216 
L 129.866864 54.070564 
L 129.993682 54.461669 
L 130.090909 55.012062 
L 130.093023 235.325446 
L 130.202932 233.089306 
L 130.488273 223.735238 
L 130.837023 204.057168 
L 131.359091 159.702548 
L 132.219341 89.220328 
L 132.718159 65.904207 
L 133.123977 55.825547 
L 133.426227 52.792318 
L 133.58475 52.45771 
L 133.610114 52.472481 
L 133.720023 52.731043 
L 133.895455 53.720977 
L 133.897568 233.890911 
L 134.007477 231.298797 
L 134.303386 220.214875 
L 134.673273 196.917135 
L 135.3285 137.985826 
L 135.998523 86.320206 
L 136.491 64.142792 
L 136.898932 54.380952 
L 137.199068 51.478164 
L 137.353364 51.163234 
L 137.380841 51.179221 
L 137.49075 51.438775 
L 137.689432 52.603017 
L 137.7 52.686829 
L 137.702114 232.452497 
L 137.812023 229.524529 
L 138.116386 216.829505 
L 138.509523 189.842523 
L 140.077841 69.542213 
L 140.523818 55.933432 
L 140.868341 51.04097 
L 141.100841 50.096282 
L 141.193841 50.162741 
L 141.195955 50.166886 
L 141.339682 50.699659 
L 141.504545 51.848524 
L 141.506659 231.0454 
L 141.616568 227.806474 
L 141.929386 213.54768 
L 142.345773 182.944078 
L 143.696386 75.13225 
L 144.165614 58.099678 
L 144.548182 51.065287 
L 144.818727 49.287854 
L 144.915955 49.200126 
L 144.958227 49.242135 
L 145.089273 49.652764 
L 145.309091 51.159756 
L 145.311205 229.695883 
L 145.421114 226.173053 
L 145.742386 210.408314 
L 146.182023 176.292628 
L 147.365659 79.403009 
L 147.843341 60.040721 
L 148.251273 51.266896 
L 148.549295 48.691509 
L 148.693023 48.444663 
L 148.722614 48.464448 
L 148.83675 48.745815 
L 149.041773 49.970044 
L 149.113636 50.585815 
L 149.11575 228.421722 
L 149.225659 224.642295 
L 149.555386 207.433449 
L 150.020386 169.731205 
L 151.070864 82.489775 
L 151.552773 61.492476 
L 151.977614 51.450584 
L 152.294659 48.225249 
L 152.476432 47.803446 
L 152.491227 47.8094 
L 152.592682 47.998855 
L 152.776568 48.936651 
L 152.918182 50.101165 
L 152.920295 227.233344 
L 153.030205 223.223585 
L 153.366273 204.776737 
L 153.85875 163.4645 
L 154.807773 84.2586 
L 155.289682 62.355989 
L 155.722977 51.541925 
L 156.054818 47.823171 
L 156.264068 47.253959 
L 156.266182 47.2544 
L 156.361295 47.391086 
L 156.528273 48.1363 
L 156.722727 49.687492 
L 156.724841 226.13523 
L 156.83475 221.919587 
L 157.177159 202.304091 
L 157.697114 157.496628 
L 158.565818 85.111451 
L 159.047727 62.713871 
L 159.487364 51.45526 
L 159.827659 47.450149 
L 160.047477 46.779362 
L 160.140477 46.887665 
L 160.299 47.536259 
L 160.527273 49.332023 
L 160.529386 225.12737 
L 160.639295 220.728073 
L 160.988045 200.006476 
L 161.539705 151.415714 
L 162.340773 85.197441 
L 162.822682 62.647502 
L 163.264432 51.252773 
L 163.608955 47.104488 
L 163.833 46.369838 
L 163.928114 46.465669 
L 164.082409 47.069445 
L 164.331818 49.026043 
L 164.333932 224.206607 
L 164.443841 219.643555 
L 164.798932 197.871398 
L 165.384409 145.413515 
L 166.130523 84.592143 
L 166.610318 62.274206 
L 167.052068 50.950047 
L 167.398705 46.770503 
L 167.624864 46.015482 
L 167.719977 46.105618 
L 167.872159 46.687097 
L 168.132136 48.721324 
L 168.136364 48.763603 
L 168.138477 223.367802 
L 168.248386 218.658635 
L 168.607705 196.047613 
L 169.231227 139.485495 
L 169.932955 83.405341 
L 170.410636 61.585472 
L 170.852386 50.500972 
L 171.199023 46.425776 
L 171.423068 45.709389 
L 171.518182 45.805895 
L 171.672477 46.405804 
L 171.934568 48.47645 
L 171.940909 48.540442 
L 171.943023 222.604791 
L 172.052932 217.765079 
L 172.416477 194.364741 
L 173.082273 133.433963 
L 173.743841 81.891023 
L 174.217295 60.796324 
L 174.656932 50.051716 
L 175.001455 46.121195 
L 175.223386 45.448099 
L 175.3185 45.553379 
L 175.477023 46.187675 
L 175.745455 48.353169 
L 175.747568 221.9111 
L 175.857477 216.954592 
L 176.22525 192.8085 
L 176.948114 126.309489 
L 177.569523 79.703011 
L 178.03875 59.640856 
L 178.474159 49.462635 
L 178.812341 45.815797 
L 179.027932 45.228151 
L 179.123045 45.349683 
L 179.285795 46.030805 
L 179.55 48.1987 
L 179.552114 221.280454 
L 179.662023 216.219346 
L 180.034023 191.366146 
L 180.854114 116.028763 
L 181.429023 75.917827 
L 181.894023 57.608293 
L 182.320977 48.507981 
L 182.644364 45.452941 
L 182.830364 45.045721 
L 182.843045 45.05058 
L 182.946614 45.234434 
L 183.128386 46.123996 
L 183.354545 48.073933 
L 183.356659 220.707081 
L 183.466568 215.552263 
L 183.842795 190.026611 
L 185.493545 63.844468 
L 185.941636 51.365084 
L 186.317864 46.110007 
L 186.573614 44.921998 
L 186.656045 44.910694 
L 186.689864 44.954208 
L 186.829364 45.409018 
L 187.068205 47.086679 
L 187.159091 47.975626 
L 187.161205 220.185858 
L 187.271114 214.947129 
L 187.649455 188.955259 
L 189.262159 64.730207 
L 189.712364 51.777823 
L 190.094932 46.174781 
L 190.359136 44.82043 
L 190.445795 44.782781 
L 190.485955 44.827904 
L 190.623341 45.260776 
L 190.860068 46.891435 
L 190.963636 47.9004 
L 190.96575 219.712328 
L 191.075659 214.398569 
L 191.458227 187.796044 
L 193.028659 65.796145 
L 193.480977 52.297778 
L 193.872 46.284525 
L 194.144659 44.750702 
L 194.241886 44.685612 
L 194.282045 44.726646 
L 194.415205 45.126774 
L 194.645591 46.662336 
L 194.768182 47.844837 
L 194.770295 219.282639 
L 194.880205 213.901942 
L 195.264886 186.892726 
L 196.805727 66.531925 
L 197.258045 52.692694 
L 197.655409 46.372532 
L 197.934409 44.700177 
L 198.040091 44.611472 
L 198.078136 44.646919 
L 198.209182 45.022943 
L 198.435341 46.490273 
L 198.572727 47.805592 
L 198.574841 218.893442 
L 198.68475 213.453201 
L 199.071545 186.063769 
L 200.584909 67.252791 
L 201.037227 53.086752 
L 201.438818 46.492321 
L 201.724159 44.672304 
L 201.838295 44.555563 
L 201.876341 44.588067 
L 202.003159 44.936372 
L 202.222977 46.317158 
L 202.377273 47.779513 
L 202.379386 218.541763 
L 202.489295 213.048737 
L 202.880318 185.123102 
L 204.364091 68.039078 
L 204.816409 53.522206 
L 205.224341 46.617777 
L 205.516023 44.658201 
L 205.638614 44.51535 
L 205.674545 44.543779 
L 205.79925 44.872557 
L 206.016955 46.210025 
L 206.181818 47.763737 
L 206.183932 218.224901 
L 206.293841 212.685253 
L 206.686977 184.424225 
L 208.1475 68.703847 
L 208.599818 53.89527 
L 209.011977 46.743239 
L 209.31 44.653429 
L 209.441045 44.487614 
L 209.474864 44.513606 
L 209.597455 44.82801 
L 209.810932 46.112827 
L 209.986364 47.755747 
L 209.988477 217.940329 
L 210.098386 212.359661 
L 210.493636 183.782799 
L 211.935136 69.232914 
L 212.389568 54.145517 
L 212.803841 46.839239 
L 213.106091 44.6541 
L 213.241364 44.468204 
L 213.275182 44.492283 
L 213.397773 44.799781 
L 213.609136 46.056675 
L 213.790909 47.753407 
L 213.793023 217.685634 
L 213.902932 212.069005 
L 214.300295 183.193727 
L 215.724886 69.708254 
L 216.179318 54.418149 
L 216.595705 46.949312 
L 216.900068 44.670771 
L 217.043795 44.456302 
L 217.073386 44.475485 
L 217.19175 44.753796 
L 217.398886 45.940234 
L 217.595455 47.754958 
L 217.597568 217.458476 
L 217.707477 211.81043 
L 218.104841 182.83506 
L 219.518864 70.027407 
L 219.973295 54.605827 
L 220.391795 47.020604 
L 220.700386 44.673379 
L 220.846227 44.449339 
L 220.875818 44.467933 
L 220.994182 44.743729 
L 221.199205 45.90954 
L 221.4 47.759006 
L 221.402114 217.256574 
L 221.512023 211.581161 
L 221.9115 182.336774 
L 223.310727 70.469133 
L 223.765159 54.860987 
L 224.185773 47.12567 
L 224.496477 44.695454 
L 224.650773 44.446416 
L 224.676136 44.461718 
L 224.792386 44.721331 
L 224.995295 45.849308 
L 225.204545 47.764479 
L 225.206659 217.077703 
L 225.316568 211.378513 
L 225.718159 181.876766 
L 227.104705 70.839216 
L 227.559136 55.076532 
L 227.981864 47.212039 
L 228.294682 44.714038 
L 228.453205 44.44516 
L 228.478568 44.459711 
L 228.592705 44.708524 
L 228.791386 45.791231 
L 229.009091 47.770593 
L 229.011205 216.919704 
L 229.121114 211.199896 
L 229.522705 181.635016 
L 230.902909 71.034597 
L 231.357341 55.195322 
L 231.780068 47.277308 
L 232.095 44.727334 
L 232.25775 44.445906 
L 232.278886 44.457334 
L 232.390909 44.689866 
L 232.587477 45.734725 
L 232.813636 47.776799 
L 232.81575 216.780506 
L 232.925659 211.042843 
L 233.329364 181.23968 
L 234.696886 71.44182 
L 235.151318 55.429981 
L 235.576159 47.37306 
L 235.895318 44.742277 
L 236.060182 44.446853 
L 236.081318 44.457516 
L 236.191227 44.679156 
L 236.383568 45.679401 
L 236.618182 47.782741 
L 236.620295 216.658141 
L 236.730205 210.905025 
L 237.133909 181.0556 
L 238.497205 71.568031 
L 238.951636 55.508899 
L 239.376477 47.418264 
L 239.695636 44.758366 
L 239.864727 44.448714 
L 239.88375 44.458058 
L 239.993659 44.675547 
L 240.186 45.669092 
L 240.422727 47.788211 
L 240.424841 216.550757 
L 240.53475 210.784271 
L 240.940568 180.710412 
L 242.295409 71.804056 
L 242.751955 55.592695 
L 243.178909 47.438283 
L 243.498068 44.766681 
L 243.669273 44.450653 
L 243.688295 44.460184 
L 243.798205 44.678595 
L 243.990545 45.673238 
L 244.227273 47.793114 
L 244.229386 216.456639 
L 244.339295 210.678577 
L 244.745114 180.570646 
L 246.095727 71.950272 
L 246.552273 55.680538 
L 246.979227 47.486798 
L 247.3005 44.775302 
L 247.471705 44.451963 
L 247.490727 44.460696 
L 247.600636 44.674626 
L 247.790864 45.64744 
L 248.031818 47.797429 
L 248.033932 216.374211 
L 248.143841 210.586118 
L 248.549659 180.448891 
L 249.898159 72.004373 
L 250.354705 55.716808 
L 250.781659 47.509168 
L 251.102932 44.7841 
L 251.27625 44.453639 
L 251.295273 44.462506 
L 251.405182 44.677092 
L 251.595409 45.650671 
L 251.836364 47.801188 
L 251.838477 216.302045 
L 251.948386 210.505245 
L 252.354205 180.34276 
L 253.698477 72.164716 
L 254.155023 55.810754 
L 254.581977 47.559842 
L 254.905364 44.793012 
L 255.080795 44.455131 
L 255.097705 44.462691 
L 255.2055 44.666001 
L 255.393614 45.609813 
L 255.640909 47.804451 
L 255.643023 216.238856 
L 255.752932 210.434488 
L 256.160864 180.064795 
L 257.498795 72.330915 
L 257.955341 55.907245 
L 258.384409 47.583766 
L 258.707795 44.802018 
L 258.885341 44.456448 
L 258.90225 44.464096 
L 259.010045 44.667882 
L 259.198159 45.612254 
L 259.445455 47.80729 
L 259.447568 216.183503 
L 259.557477 210.372544 
L 259.965409 179.983861 
L 261.301227 72.401435 
L 261.757773 55.950436 
L 262.186841 47.608277 
L 262.512341 44.802168 
L 262.689886 44.457621 
L 262.706795 44.465344 
L 262.814591 44.669542 
L 263.002705 45.614399 
L 263.25 47.809782 
L 263.252114 216.13498 
L 263.362023 210.318269 
L 263.769955 179.913075 
L 265.103659 72.475948 
L 265.560205 55.995303 
L 265.989273 47.63332 
L 266.314773 44.811284 
L 266.494432 44.458684 
L 266.509227 44.46513 
L 266.617023 44.664525 
L 266.805136 45.601898 
L 267.054545 47.811995 
L 267.056659 216.092402 
L 267.166568 210.270663 
L 267.5745 179.851081 
L 268.906091 72.553952 
L 269.362636 56.041654 
L 269.791705 47.658859 
L 270.117205 44.820536 
L 270.296864 44.45917 
L 270.313773 44.466169 
L 270.421568 44.665879 
L 270.609682 45.603622 
L 270.859091 47.813988 
L 270.861205 216.055003 
L 270.971114 210.228859 
L 271.379045 179.796717 
L 272.710636 72.533905 
L 273.167182 56.033591 
L 273.59625 47.656862 
L 273.92175 44.820786 
L 274.101409 44.460109 
L 274.118318 44.467158 
L 274.226114 44.667141 
L 274.414227 45.605207 
L 274.663636 47.815811 
L 274.66575 216.022116 
L 274.775659 210.19211 
L 275.183591 179.748986 
L 276.513068 72.617504 
L 276.969614 56.082339 
L 277.398682 47.683201 
L 277.724182 44.830249 
L 277.905955 44.461027 
L 277.92075 44.466863 
L 278.026432 44.655595 
L 278.210318 45.549827 
L 278.468182 47.817499 
L 278.470295 215.993167 
L 278.580205 210.159768 
L 278.99025 179.521226 
L 280.313386 72.805055 
L 280.769932 56.18815 
L 281.201114 47.709953 
L 281.528727 44.830629 
L 281.7105 44.461937 
L 281.725295 44.467807 
L 281.830977 44.656743 
L 282.014864 45.551218 
L 282.272727 47.819079 
L 282.274841 215.967658 
L 282.38475 210.131278 
L 282.794795 179.484302 
L 284.117932 72.791691 
L 284.574477 56.182949 
L 285.005659 47.708885 
L 285.333273 44.831079 
L 285.515045 44.462847 
L 285.529841 44.468746 
L 285.635523 44.657859 
L 285.819409 45.552543 
L 286.077273 47.820567 
L 286.079386 215.945163 
L 286.189295 210.10616 
L 286.599341 179.451801 
L 287.920364 72.881794 
L 288.376909 56.234616 
L 288.808091 47.736271 
L 289.135705 44.840833 
L 289.319591 44.463758 
L 289.334386 44.469681 
L 289.440068 44.658948 
L 289.623955 45.553811 
L 289.881818 47.821973 
L 289.883932 215.925311 
L 289.993841 210.084003 
L 290.403886 179.423182 
L 291.724909 72.871692 
L 292.181455 56.230838 
L 292.612636 47.735673 
L 292.94025 44.841391 
L 293.124136 44.464666 
L 293.138932 44.470611 
L 293.244614 44.660008 
L 293.4285 45.555024 
L 293.686364 47.823302 
L 293.688477 215.907785 
L 293.798386 210.064448 
L 294.208432 179.397975 
L 295.529455 72.862947 
L 295.986 56.22765 
L 296.417182 47.735267 
L 296.744795 44.841988 
L 296.928682 44.465564 
L 296.943477 44.471527 
L 297.049159 44.661036 
L 297.233045 45.556181 
L 297.490909 47.824555 
L 297.493023 215.892307 
L 297.602932 210.047185 
L 298.012977 179.375773 
L 299.331886 72.95726 
L 299.788432 56.281174 
L 300.219614 47.763315 
L 300.547227 44.851958 
L 300.733227 44.466444 
L 300.745909 44.471251 
L 300.851591 44.655784 
L 301.035477 45.54326 
L 301.295455 47.825734 
L 301.297568 215.878636 
L 301.407477 210.031945 
L 301.817523 179.35622 
L 303.136432 72.950708 
L 303.592977 56.278921 
L 304.024159 47.763191 
L 304.351773 44.852589 
L 304.537773 44.467298 
L 304.550455 44.472117 
L 304.656136 44.65673 
L 304.840023 45.544297 
L 305.1 47.826835 
L 305.102114 215.866561 
L 305.212023 210.018492 
L 305.622068 179.339003 
L 306.940977 72.945058 
L 307.397523 56.277044 
L 307.828705 47.763169 
L 308.156318 44.853219 
L 308.342318 44.468118 
L 308.355 44.472947 
L 308.460682 44.657628 
L 308.644568 45.545269 
L 308.904545 47.827859 
L 308.906659 215.855898 
L 309.016568 210.006617 
L 309.426614 179.323849 
L 310.745523 72.940189 
L 311.202068 56.275484 
L 311.63325 47.763226 
L 311.960864 44.853837 
L 312.146864 44.468898 
L 312.159545 44.473735 
L 312.265227 44.658472 
L 312.449114 45.546175 
L 312.709091 47.828805 
L 312.711205 215.846483 
L 312.821114 209.996139 
L 313.231159 179.310513 
L 314.550068 72.935997 
L 315.006614 56.274191 
L 315.437795 47.76334 
L 315.765409 44.854434 
L 315.951409 44.469632 
L 315.964091 44.474476 
L 316.069773 44.65926 
L 316.253659 45.547013 
L 316.513636 47.829673 
L 316.51575 215.838173 
L 316.625659 209.986896 
L 317.035705 179.298782 
L 318.3525 73.034425 
L 318.809045 56.329425 
L 319.240227 47.791888 
L 319.569955 44.855003 
L 319.755955 44.470317 
L 319.768636 44.475166 
L 319.874318 44.65999 
L 320.058205 45.547783 
L 320.318182 47.830467 
L 320.320295 215.830841 
L 320.430205 209.978745 
L 320.84025 179.288465 
L 322.157045 73.031303 
L 322.613591 56.328533 
L 323.044773 47.792063 
L 323.3745 44.855539 
L 323.5605 44.47095 
L 323.573182 44.475804 
L 323.678864 44.660661 
L 323.86275 45.548487 
L 324.122727 47.831188 
L 324.124841 215.824372 
L 324.23475 209.971558 
L 324.644795 179.279394 
L 325.961591 73.028613 
L 326.418136 56.327794 
L 326.849318 47.792253 
L 327.179045 44.856039 
L 327.365045 44.471532 
L 327.377727 44.47639 
L 327.483409 44.661274 
L 327.667295 45.549127 
L 327.927273 47.831839 
L 327.929386 215.818666 
L 328.039295 209.965223 
L 328.449341 179.271418 
L 329.766136 73.026293 
L 330.222682 56.327182 
L 330.653864 47.792448 
L 330.983591 44.8565 
L 331.169591 44.472064 
L 331.182273 44.476925 
L 331.287955 44.661831 
L 331.471841 45.549705 
L 331.731818 47.832426 
L 331.733932 215.813635 
L 331.843841 209.959639 
L 332.253886 179.264406 
L 333.570682 73.024291 
L 334.027227 56.326674 
L 334.458409 47.792643 
L 334.788136 44.856924 
L 334.974136 44.472547 
L 334.986818 44.477411 
L 335.0925 44.662335 
L 335.276386 45.550226 
L 335.536364 47.832953 
L 335.538477 215.809199 
L 335.648386 209.954718 
L 336.058432 179.25824 
L 337.375227 73.02256 
L 337.831773 56.326251 
L 338.262955 47.792832 
L 338.592682 44.857311 
L 338.778682 44.472984 
L 338.791364 44.47785 
L 338.897045 44.66279 
L 339.080932 45.550695 
L 339.340909 47.833425 
L 339.343023 215.805287 
L 339.452932 209.950381 
L 339.862977 179.252818 
L 341.179773 73.021062 
L 341.636318 56.325899 
L 342.0675 47.793013 
L 342.397227 44.857662 
L 342.583227 44.473378 
L 342.595909 44.478246 
L 342.701591 44.663199 
L 342.885477 45.551114 
L 343.145455 47.833847 
L 343.147568 215.801837 
L 343.257477 209.946558 
L 343.667523 179.248048 
L 344.984318 73.019764 
L 345.440864 56.325606 
L 345.872045 47.793184 
L 346.201773 44.857981 
L 346.387773 44.473733 
L 346.400455 44.478603 
L 346.506136 44.663566 
L 346.690023 45.55149 
L 346.95 47.834224 
L 346.952114 215.798795 
L 347.062023 209.943188 
L 347.472068 179.24385 
L 348.788864 73.018638 
L 349.245409 56.32536 
L 349.676591 47.793344 
L 350.006318 44.858268 
L 350.192318 44.474052 
L 350.205 44.478923 
L 350.310682 44.663895 
L 350.494568 45.551827 
L 350.754545 47.834561 
L 350.756659 215.79611 
L 350.866568 209.940215 
L 351.276614 179.240154 
L 352.593409 73.01766 
L 353.049955 56.325155 
L 353.481136 47.793493 
L 353.810864 44.858528 
L 353.996864 44.474338 
L 354.009545 44.479211 
L 354.115227 44.66419 
L 354.299114 45.552127 
L 354.559091 47.834861 
L 354.561205 215.793741 
L 354.671114 209.937592 
L 355.081159 179.236898 
L 356.397955 73.01681 
L 356.8545 56.324984 
L 357.285682 47.793631 
L 357.615409 44.858763 
L 357.801409 44.474595 
L 357.814091 44.479469 
L 357.919773 44.664455 
L 358.103659 45.552397 
L 358.363636 47.83513 
L 358.36575 215.79165 
L 358.475659 209.935277 
L 358.885705 179.234029 
L 360.2025 73.01607 
L 360.659045 56.324841 
L 361.090227 47.79376 
L 361.419955 44.858975 
L 361.605955 44.474827 
L 361.618636 44.479701 
L 361.724318 44.664693 
L 361.908205 45.552638 
L 362.168182 47.83537 
L 362.170295 215.789802 
L 362.280205 209.933233 
L 362.69025 179.231498 
L 364.007045 73.015427 
L 364.463591 56.324722 
L 364.894773 47.793878 
L 365.2245 44.859166 
L 365.4105 44.475035 
L 365.423182 44.47991 
L 365.528864 44.664906 
L 365.71275 45.552854 
L 365.972727 47.835585 
L 365.974841 215.78817 
L 366.08475 209.931427 
L 366.494795 179.229266 
L 367.811591 73.014866 
L 368.268136 56.324623 
L 368.699318 47.793988 
L 369.029045 44.85934 
L 369.215045 44.475223 
L 369.227727 44.480099 
L 369.333409 44.665098 
L 369.517295 45.553049 
L 369.777273 47.835778 
L 369.779386 215.786726 
L 369.889295 209.92983 
L 370.299341 179.227295 
L 371.616136 73.014378 
L 372.072682 56.324542 
L 372.503864 47.79409 
L 372.833591 44.859496 
L 373.019591 44.475392 
L 373.032273 44.480268 
L 373.137955 44.665271 
L 373.321841 45.553223 
L 373.581818 47.835952 
L 373.581818 47.835952 
" clip-path="url(#p74a8a1a914)" style="fill: none; stroke: #1f77b4; stroke-width: 1.5; stroke-linecap: square"/>
   </g>
   <g id="line2d_17">
    <path d="M 69.218182 242.116364 
L 71.183864 242.006727 
L 71.365636 241.684006 
L 71.557977 240.792109 
L 71.792591 238.457129 
L 72.124432 232.525429 
L 73.022727 215.241013 
L 73.024841 242.116307 
L 73.13475 242.116189 
L 74.001341 242.004667 
L 74.263432 241.720044 
L 74.504386 241.081916 
L 74.768591 239.659636 
L 75.060273 236.715011 
L 75.370977 231.052839 
L 75.753545 219.363933 
L 76.689886 189.264615 
L 76.827273 187.071377 
L 76.829386 242.083432 
L 76.939295 242.061444 
L 77.307068 241.852826 
L 77.573386 241.420835 
L 77.83125 240.524632 
L 78.106023 238.659426 
L 78.410386 234.877769 
L 78.765477 227.351104 
L 79.173409 213.517554 
L 80.557841 160.708962 
L 80.631818 159.821546 
L 80.633932 241.785772 
L 80.743841 241.641406 
L 81.008045 241.017918 
L 81.280705 239.727624 
L 81.572386 237.127764 
L 81.891545 232.037915 
L 82.257205 222.212339 
L 82.717977 203.080638 
L 84.123545 139.385331 
L 84.408886 136.59925 
L 84.436364 136.490864 
L 84.438477 240.821089 
L 84.548386 240.376353 
L 84.825273 238.539268 
L 85.127523 234.873467 
L 85.461477 227.805737 
L 85.846159 214.387717 
L 86.359773 187.533743 
L 87.492682 126.590539 
L 87.822409 120.082386 
L 88.050682 118.853456 
L 88.114091 118.870977 
L 88.141568 118.919032 
L 88.240909 119.275404 
L 88.243023 238.732198 
L 88.352932 237.746281 
L 88.653068 233.52291 
L 88.99125 225.262908 
L 89.382273 209.608573 
L 89.908568 178.233399 
L 90.899864 119.106639 
L 91.282432 108.130656 
L 91.546636 105.520127 
L 91.633295 105.391224 
L 91.681909 105.450324 
L 91.806614 105.97858 
L 92.041227 108.138425 
L 92.045455 108.188491 
L 92.047568 235.048514 
L 92.157477 233.235485 
L 92.482977 225.08991 
L 92.863432 209.379369 
L 93.360136 178.387883 
L 94.404273 111.495072 
L 94.812205 99.139696 
L 95.097545 95.839648 
L 95.209568 95.598236 
L 95.253955 95.645208 
L 95.370205 96.110356 
L 95.587909 98.090041 
L 95.85 101.852013 
L 95.852114 229.374193 
L 95.962023 226.45046 
L 96.317114 212.581323 
L 96.769432 185.101263 
L 98.067205 100.086571 
L 98.439205 91.304426 
L 98.711864 88.958192 
L 98.804864 88.8343 
L 98.851364 88.889375 
L 98.976068 89.393291 
L 99.198 91.40405 
L 99.576341 97.203597 
L 99.654545 98.659608 
L 99.656659 221.548976 
L 99.766568 217.310863 
L 100.159705 195.83998 
L 100.789568 146.866156 
L 101.446909 101.889719 
L 101.82525 89.307783 
L 102.138068 85.091311 
L 102.362114 84.293544 
L 102.453 84.390177 
L 102.600955 85.016756 
L 102.844023 87.189515 
L 103.228705 92.942631 
L 103.459091 97.339909 
L 103.461205 211.777679 
L 103.571114 206.170525 
L 104.021318 174.919667 
L 105.152114 92.619198 
L 105.490295 83.583314 
L 105.7545 81.270855 
L 105.898227 81.053029 
L 105.925705 81.069588 
L 106.048295 81.331969 
L 106.259659 82.41988 
L 106.566136 85.330376 
L 106.993091 91.810291 
L 107.263636 97.046419 
L 107.26575 200.617813 
L 107.375659 193.753775 
L 107.929432 148.890845 
L 108.66075 94.286857 
L 109.024295 81.527807 
L 109.286386 78.467178 
L 109.40475 78.236498 
L 109.444909 78.269115 
L 109.571727 78.638903 
L 109.8465 80.278722 
L 110.269227 84.196782 
L 110.721545 90.702901 
L 111.068182 97.267317 
L 111.070295 188.823367 
L 111.180205 180.940612 
L 112.602682 80.335792 
L 112.877455 76.133338 
L 112.997932 75.797786 
L 113.038091 75.837297 
L 113.154341 76.275833 
L 113.431227 78.422226 
L 114.204818 86.425999 
L 114.709977 94.530172 
L 114.872727 97.711943 
L 114.874841 177.141898 
L 114.98475 168.534283 
L 116.128227 82.842283 
L 116.443159 75.060452 
L 116.643955 73.907898 
L 116.648182 73.908679 
L 116.717932 74.044162 
L 116.870114 74.990052 
L 117.297068 79.565956 
L 118.362341 92.421594 
L 118.677273 98.223152 
L 118.679386 166.165078 
L 118.789295 157.117939 
L 119.742545 84.369798 
L 120.0765 74.371649 
L 120.300545 72.552374 
L 120.338591 72.552486 
L 120.376636 72.627612 
L 120.503455 73.341844 
L 120.786682 76.535787 
L 121.570841 85.351476 
L 122.073886 91.581388 
L 122.481818 98.719893 
L 122.483932 156.270132 
L 122.593841 147.020994 
L 123.416045 84.695522 
L 123.758455 73.719486 
L 123.988841 71.626636 
L 124.029 71.60952 
L 124.073386 71.691496 
L 124.198091 72.412788 
L 124.462295 75.544629 
L 125.240114 84.991981 
L 125.827705 91.460779 
L 126.286364 99.162462 
L 126.288477 147.63346 
L 126.398386 138.358054 
L 127.131818 84.075921 
L 127.474227 73.081777 
L 127.704614 71.01371 
L 127.742659 71.000934 
L 127.787045 71.085199 
L 127.913864 71.838387 
L 128.173841 75.02699 
L 128.974909 85.278897 
L 129.640705 92.12237 
L 130.090909 99.532461 
L 130.093023 140.279279 
L 130.202932 131.094438 
L 130.872955 83.118641 
L 131.211136 72.558601 
L 131.437295 70.643417 
L 131.473227 70.641088 
L 131.513386 70.721217 
L 131.638091 71.457752 
L 131.891727 74.578007 
L 132.751977 85.872284 
L 133.443136 92.538533 
L 133.895455 99.821772 
L 133.897568 134.133914 
L 134.007477 125.10839 
L 134.631 82.110208 
L 134.962841 72.176781 
L 135.182659 70.455963 
L 135.222818 70.472485 
L 135.252409 70.540036 
L 135.377114 71.277996 
L 135.63075 74.410746 
L 136.524818 86.332245 
L 137.256136 92.992439 
L 137.7 100.026933 
L 137.702114 129.070869 
L 137.812023 120.237945 
L 138.401727 81.148691 
L 138.727227 71.903602 
L 138.940705 70.400438 
L 139.006227 70.501832 
L 139.137273 71.317748 
L 139.401477 74.678044 
L 140.274409 86.511157 
L 141.111409 93.893128 
L 141.504545 100.146717 
L 141.506659 124.942591 
L 141.616568 116.311363 
L 142.178795 80.416081 
L 142.500068 71.74399 
L 142.705091 70.437145 
L 142.707205 70.437434 
L 142.772727 70.564886 
L 142.912227 71.499271 
L 143.195455 75.245748 
L 144.015545 86.523595 
L 145.008955 95.297706 
L 145.309091 100.18154 
L 145.311205 121.600291 
L 145.421114 113.164537 
L 145.962205 79.819114 
L 146.277136 71.699266 
L 146.471591 70.528483 
L 146.480045 70.53092 
L 146.549795 70.694785 
L 146.699864 71.787102 
L 147.008455 76.041225 
L 147.760909 86.458568 
L 148.282977 89.837156 
L 148.640182 93.086819 
L 149.06925 99.351795 
L 149.113636 100.133737 
L 149.11575 118.904945 
L 149.225659 110.649555 
L 149.751955 79.282488 
L 150.062659 71.667734 
L 150.246545 70.645398 
L 150.259227 70.651299 
L 150.335318 70.861539 
L 150.498068 72.149007 
L 150.840477 77.055223 
L 151.518955 86.384963 
L 151.948023 89.079873 
L 152.326364 91.82455 
L 152.706818 96.534959 
L 152.918182 100.008092 
L 152.920295 116.732509 
L 153.030205 108.637893 
L 153.543818 78.901404 
L 153.850295 71.688715 
L 154.025727 70.76382 
L 154.042636 70.773156 
L 154.122955 71.016599 
L 154.294159 72.434516 
L 154.661932 77.787601 
L 155.298136 86.38433 
L 155.701841 88.853669 
L 156.094977 91.421533 
L 156.458523 95.606793 
L 156.722727 99.812162 
L 156.724841 114.975704 
L 156.83475 107.020695 
L 157.337795 78.612743 
L 157.642159 71.703936 
L 157.81125 70.865098 
L 157.830273 70.877638 
L 157.914818 71.152959 
L 158.092364 72.673557 
L 158.4855 78.437717 
L 159.085773 86.357369 
L 159.474682 88.666365 
L 159.8805 91.117794 
L 160.233477 94.983905 
L 160.527273 99.556195 
L 160.529386 113.543936 
L 160.639295 105.707625 
L 161.133886 78.36731 
L 161.436136 71.711266 
L 161.598886 70.934742 
L 161.622136 70.951446 
L 161.710909 71.260582 
L 161.896909 72.908923 
L 162.323864 79.207022 
L 162.881864 86.311413 
L 163.260205 88.476073 
L 163.67025 90.796997 
L 164.012659 94.384559 
L 164.331818 99.252591 
L 164.333932 112.362309 
L 164.441727 104.773606 
L 164.932091 78.127571 
L 165.232227 71.691777 
L 165.39075 70.963895 
L 165.416114 70.983482 
L 165.507 71.310662 
L 165.697227 73.017053 
L 166.147432 79.627447 
L 166.682182 86.220834 
L 167.054182 88.265416 
L 167.462114 90.450121 
L 167.796068 93.81411 
L 168.136364 98.915018 
L 168.138477 111.370236 
L 168.246273 103.861415 
L 168.730295 77.936822 
L 169.028318 71.653591 
L 169.184727 70.947899 
L 169.212205 70.969901 
L 169.305205 71.313353 
L 169.499659 73.074732 
L 169.975227 80.01453 
L 170.488841 86.113277 
L 170.856614 88.041823 
L 171.256091 90.088006 
L 171.583705 93.279513 
L 171.940909 98.557365 
L 171.943023 110.5199 
L 172.050818 103.076092 
L 172.530614 77.702852 
L 172.826523 71.569783 
L 172.980818 70.88659 
L 173.008295 70.908058 
L 173.101295 71.24749 
L 173.29575 72.989929 
L 173.773432 79.875813 
L 174.284932 85.875027 
L 174.646364 87.734137 
L 175.052182 89.721903 
L 175.373455 92.763217 
L 175.745455 98.192732 
L 175.747568 109.774655 
L 175.855364 102.383354 
L 176.330932 77.48312 
L 176.626841 71.43939 
L 176.779023 70.783342 
L 176.8065 70.805149 
L 176.901614 71.155408 
L 177.100295 72.946139 
L 177.603341 80.149492 
L 178.095818 85.71038 
L 178.455136 87.478306 
L 178.848273 89.348195 
L 179.165318 92.274499 
L 179.55 97.832612 
L 179.552114 109.107403 
L 179.659909 101.758399 
L 180.133364 77.201056 
L 180.427159 71.28411 
L 180.579341 70.644244 
L 180.606818 70.667811 
L 180.701932 71.02141 
L 180.902727 72.830815 
L 181.422682 80.217641 
L 181.902477 85.491323 
L 182.259682 87.196502 
L 182.646477 88.991585 
L 182.959295 91.821284 
L 183.354545 97.486355 
L 183.356659 108.498977 
L 183.464455 101.184171 
L 183.933682 76.990742 
L 184.227477 71.108352 
L 184.377545 70.476479 
L 184.407136 70.500997 
L 184.504364 70.867151 
L 184.707273 72.705061 
L 185.250477 80.371064 
L 185.715477 85.304566 
L 186.072682 86.945198 
L 186.444682 88.646022 
L 186.755386 91.409795 
L 187.159091 97.160938 
L 187.161205 107.936559 
L 187.269 100.649713 
L 187.736114 76.716001 
L 188.029909 70.899647 
L 188.177864 70.288952 
L 188.207455 70.313401 
L 188.304682 70.677956 
L 188.507591 72.506117 
L 189.052909 80.151962 
L 189.517909 85.046204 
L 189.875114 86.666011 
L 190.245 88.331628 
L 190.553591 91.04444 
L 190.963636 96.860991 
L 190.96575 107.412189 
L 191.073545 100.148627 
L 191.538545 76.447378 
L 191.830227 70.70185 
L 191.980295 70.089958 
L 192.007773 70.113546 
L 192.105 70.475245 
L 192.307909 72.293595 
L 192.853227 79.900461 
L 193.320341 84.796462 
L 193.675432 86.395545 
L 194.047432 88.052316 
L 194.353909 90.7279 
L 194.768182 96.589026 
L 194.770295 106.921415 
L 194.878091 99.677715 
L 195.340977 76.188129 
L 195.632659 70.484551 
L 195.780614 69.886498 
L 195.810205 69.912416 
L 195.907432 70.279264 
L 196.112455 72.124822 
L 196.678909 79.998588 
L 197.133341 84.62922 
L 197.490545 86.194907 
L 197.849864 87.796909 
L 198.156341 90.461341 
L 198.570614 96.310198 
L 198.572727 96.345783 
L 198.574841 106.46213 
L 198.682636 99.235827 
L 199.145523 75.875672 
L 199.437205 70.254154 
L 199.580932 69.685269 
L 199.612636 69.713254 
L 199.711977 70.096929 
L 199.921227 72.007 
L 200.555318 80.754733 
L 200.975932 84.654923 
L 201.352159 86.174531 
L 201.669205 87.675371 
L 201.979909 90.458957 
L 202.377273 96.130621 
L 202.379386 106.033615 
L 202.487182 98.822937 
L 202.947955 75.645781 
L 203.237523 70.068783 
L 203.383364 69.491528 
L 203.412955 69.517609 
L 203.512295 69.896255 
L 203.719432 71.772526 
L 204.317591 80.040973 
L 204.757227 84.33049 
L 205.120773 85.859106 
L 205.458955 87.387036 
L 205.765432 90.053581 
L 206.179705 95.906312 
L 206.181818 95.941915 
L 206.183932 105.635815 
L 206.291727 98.43946 
L 206.750386 75.434674 
L 207.039955 69.878407 
L 207.183682 69.308462 
L 207.215386 69.336047 
L 207.314727 69.71801 
L 207.521864 71.597403 
L 208.126364 79.941881 
L 208.561773 84.164097 
L 208.925318 85.688798 
L 209.2635 87.217507 
L 209.569977 89.886184 
L 209.98425 95.741789 
L 209.986364 95.777405 
L 209.988477 105.268818 
L 210.096273 98.085775 
L 210.554932 75.178909 
L 210.8445 69.685702 
L 210.986114 69.138908 
L 211.017818 69.167518 
L 211.117159 69.552122 
L 211.326409 71.45896 
L 211.9605 80.182399 
L 212.383227 84.117195 
L 212.757341 85.632747 
L 213.078614 87.137447 
L 213.387205 89.882774 
L 213.790909 95.634497 
L 213.793023 104.932521 
L 213.900818 97.761942 
L 214.357364 75.010028 
L 214.646932 69.526864 
L 214.788545 68.983924 
L 214.82025 69.013256 
L 214.921705 69.412337 
L 215.133068 71.358383 
L 216.394909 84.931427 
L 216.916977 87.237575 
L 217.234023 90.249366 
L 217.595455 95.510496 
L 217.597568 104.626452 
L 217.705364 97.467561 
L 218.159795 74.862828 
L 218.449364 69.384697 
L 218.590977 68.843851 
L 218.622682 68.873587 
L 218.724136 69.273785 
L 218.9355 71.221228 
L 220.199455 84.817267 
L 220.721523 87.125536 
L 221.040682 90.164933 
L 221.4 95.402776 
L 221.402114 104.349707 
L 221.509909 97.201745 
L 221.964341 74.672056 
L 222.251795 69.258857 
L 222.393409 68.718342 
L 222.425114 68.74816 
L 222.526568 69.148616 
L 222.737932 71.096479 
L 224.004 84.717661 
L 224.526068 87.027947 
L 224.845227 90.069284 
L 225.204545 95.308901 
L 225.206659 104.100961 
L 225.314455 96.96316 
L 225.768886 74.501763 
L 226.056341 69.131418 
L 226.195841 68.606573 
L 226.229659 68.639859 
L 226.333227 69.061671 
L 226.548818 71.083332 
L 227.787409 84.552537 
L 228.35175 87.094862 
L 228.67725 90.322381 
L 229.009091 95.226689 
L 229.011205 103.878538 
L 229.119 96.75011 
L 229.571318 74.414563 
L 229.858773 69.035298 
L 229.998273 68.507415 
L 230.032091 68.540104 
L 230.135659 68.960411 
L 230.35125 70.980275 
L 231.594068 84.484089 
L 232.154182 87.004532 
L 232.477568 90.196364 
L 232.813636 95.154254 
L 232.81575 103.680504 
L 232.923545 96.560648 
L 233.375864 74.280289 
L 233.663318 68.935178 
L 233.800705 68.419589 
L 233.834523 68.451355 
L 233.935977 68.856443 
L 234.149455 70.836048 
L 235.409182 84.45595 
L 235.946045 86.846617 
L 236.267318 89.949443 
L 236.618182 95.090004 
L 236.620295 103.504764 
L 236.728091 96.392674 
L 237.180409 74.161559 
L 237.467864 68.846637 
L 237.60525 68.342008 
L 237.639068 68.376068 
L 237.742636 68.80005 
L 237.960341 70.850426 
L 239.194705 84.325057 
L 239.771727 86.942231 
L 240.099341 90.231989 
L 240.422727 95.032629 
L 240.424841 103.34916 
L 240.532636 96.244044 
L 240.982841 74.120335 
L 241.270295 68.784776 
L 241.407682 68.272829 
L 241.4415 68.305381 
L 241.545068 68.72546 
L 241.760659 70.745539 
L 243.007705 84.303533 
L 243.565705 86.81154 
L 243.889091 89.99526 
L 244.227273 94.981075 
L 244.229386 103.211554 
L 244.337182 96.112646 
L 244.787386 74.027242 
L 245.074841 68.714973 
L 245.212227 68.21144 
L 245.246045 68.24575 
L 245.349614 68.670448 
L 245.567318 70.722041 
L 246.803795 84.22363 
L 247.380818 86.842248 
L 247.708432 90.133227 
L 248.031818 94.934506 
L 248.033932 103.089892 
L 248.141727 95.996466 
L 248.591932 73.944669 
L 248.879386 68.652726 
L 249.014659 68.156166 
L 249.050591 68.192355 
L 249.156273 68.634279 
L 249.376091 70.728953 
L 250.595659 84.131472 
L 251.202273 86.927903 
L 251.534114 90.36054 
L 251.836364 94.89227 
L 251.838477 102.982258 
L 251.946273 95.893638 
L 252.396477 73.871206 
L 252.681818 68.613434 
L 252.819205 68.106684 
L 252.853023 68.140338 
L 252.956591 68.563361 
L 253.172182 70.587616 
L 254.419227 84.16469 
L 254.981455 86.697776 
L 255.304841 89.893597 
L 255.640909 94.85386 
L 255.643023 102.886899 
L 255.750818 95.802467 
L 256.201023 73.805617 
L 256.486364 68.56315 
L 256.621636 68.061668 
L 256.657568 68.096764 
L 256.76325 68.535994 
L 256.983068 70.627273 
L 258.206864 84.064252 
L 258.807136 86.820973 
L 259.136864 90.20527 
L 259.445455 94.818878 
L 259.447568 102.802246 
L 259.555364 95.721446 
L 260.005568 73.746841 
L 260.290909 68.51769 
L 260.426182 68.020975 
L 260.462114 68.057144 
L 260.567795 68.499066 
L 260.787614 70.593932 
L 262.009295 84.02319 
L 262.615909 86.821212 
L 262.94775 90.254921 
L 263.25 94.787013 
L 263.252114 102.726917 
L 263.359909 95.649256 
L 263.808 73.757272 
L 264.095455 68.47643 
L 264.230727 67.983872 
L 264.266659 68.020978 
L 264.372341 68.465252 
L 264.592159 70.563263 
L 265.813841 83.993144 
L 266.420455 86.791751 
L 266.752295 90.225793 
L 267.054545 94.758007 
L 267.056659 102.659714 
L 267.164455 95.584759 
L 267.612545 73.709492 
L 267.897886 68.455309 
L 268.035273 67.949943 
L 268.069091 67.983904 
L 268.172659 68.407784 
L 268.390364 70.458707 
L 269.631068 84.014405 
L 270.208091 86.636277 
L 270.535705 89.929475 
L 270.859091 94.731646 
L 270.861205 102.599606 
L 270.969 95.526984 
L 271.417091 73.666265 
L 271.702432 68.420968 
L 271.839818 67.918856 
L 271.873636 67.953499 
L 271.977205 68.37918 
L 272.194909 70.432589 
L 273.435614 83.989337 
L 274.012636 86.611858 
L 274.34025 89.905401 
L 274.663636 94.707738 
L 274.66575 102.545717 
L 274.773545 95.475106 
L 275.221636 73.627077 
L 275.506977 68.389587 
L 275.64225 67.890038 
L 275.678182 67.925596 
L 275.783864 68.366066 
L 276.003682 70.459358 
L 277.229591 83.92596 
L 277.829864 86.685802 
L 278.161705 90.098943 
L 278.468182 94.686108 
L 278.470295 102.497303 
L 278.578091 95.42843 
L 279.026182 73.591502 
L 279.311523 68.360899 
L 279.446795 67.863862 
L 279.482727 67.899993 
L 279.588409 68.341914 
L 279.808227 70.43722 
L 281.032023 83.896984 
L 281.636523 86.68202 
L 281.968364 90.10647 
L 282.272727 94.66659 
L 282.274841 102.453738 
L 282.382636 95.386372 
L 282.830727 73.559186 
L 283.116068 68.334679 
L 283.251341 67.839881 
L 283.287273 67.876522 
L 283.392955 68.319745 
L 283.612773 70.41688 
L 284.836568 83.878148 
L 285.441068 86.663931 
L 285.772909 90.088723 
L 286.077273 94.649022 
L 286.079386 102.414489 
L 286.187182 95.348433 
L 286.635273 73.52983 
L 286.920614 68.310738 
L 287.055886 67.81794 
L 287.091818 67.85504 
L 287.1975 68.299436 
L 287.417318 70.398238 
L 288.641114 83.861115 
L 289.245614 86.647643 
L 289.577455 90.072769 
L 289.881818 94.633248 
L 289.883932 102.379103 
L 289.991727 95.314193 
L 290.439818 73.503175 
L 290.725159 68.288908 
L 290.860432 67.797904 
L 290.896364 67.835417 
L 291.002045 68.280872 
L 291.223977 70.406787 
L 292.439318 83.820917 
L 293.060727 86.715375 
L 293.396795 90.250882 
L 293.686364 94.619117 
L 293.688477 102.347192 
L 293.796273 95.283288 
L 294.244364 73.478995 
L 294.529705 68.269038 
L 294.664977 67.779647 
L 294.698795 67.813568 
L 294.802364 68.237513 
L 295.020068 70.289342 
L 296.262886 83.880729 
L 296.839909 86.50745 
L 297.167523 89.803006 
L 297.490909 94.60648 
L 297.493023 102.318417 
L 297.600818 95.255401 
L 298.048909 73.457087 
L 298.33425 68.250987 
L 298.469523 67.763047 
L 298.503341 67.797285 
L 298.606909 68.222088 
L 298.824614 70.275199 
L 300.067432 83.868331 
L 300.644455 86.4957 
L 300.972068 89.791546 
L 301.295455 94.595197 
L 301.297568 102.292482 
L 301.405364 95.230251 
L 301.853455 73.437265 
L 302.138795 68.234622 
L 302.274068 67.74799 
L 302.307886 67.782514 
L 302.411455 68.208093 
L 302.629159 70.262379 
L 303.871977 83.85722 
L 304.449 86.485201 
L 304.776614 89.781317 
L 305.1 94.585132 
L 305.102114 102.269123 
L 305.209909 95.20759 
L 305.658 73.419359 
L 305.943341 68.219815 
L 306.0765 67.73408 
L 306.112432 67.769143 
L 306.216 68.195425 
L 306.433705 70.250784 
L 307.676523 83.847278 
L 308.253545 86.47583 
L 308.581159 89.772194 
L 308.904545 94.576161 
L 308.906659 102.248101 
L 309.014455 95.187191 
L 309.462545 73.403207 
L 309.747886 68.206442 
L 309.881045 67.721752 
L 309.916977 67.757064 
L 310.022659 68.197172 
L 310.242477 70.291193 
L 311.4705 83.797763 
L 312.070773 86.563696 
L 312.402614 89.979522 
L 312.709091 94.568167 
L 312.711205 102.229202 
L 312.819 95.168846 
L 313.267091 73.388659 
L 313.552432 68.194384 
L 313.685591 67.710634 
L 313.721523 67.74617 
L 313.827205 68.186864 
L 314.047023 70.281777 
L 315.275045 83.789815 
L 315.875318 86.55625 
L 316.207159 89.972281 
L 316.513636 94.561043 
L 316.51575 102.212228 
L 316.623545 95.152367 
L 317.071636 73.375572 
L 317.356977 68.183527 
L 317.490136 67.700623 
L 317.526068 67.73636 
L 317.63175 68.177582 
L 317.851568 70.273305 
L 319.079591 83.782715 
L 319.679864 86.549609 
L 320.011705 89.965825 
L 320.318182 94.554692 
L 320.320295 102.196997 
L 320.428091 95.137579 
L 320.876182 73.363813 
L 321.161523 68.173764 
L 321.294682 67.691617 
L 321.330614 67.727536 
L 321.436295 68.169233 
L 321.656114 70.265688 
L 322.884136 83.776374 
L 323.484409 86.543685 
L 323.81625 89.960067 
L 324.122727 94.549027 
L 324.124841 102.183343 
L 324.232636 95.124319 
L 324.680727 73.353257 
L 324.966068 68.164991 
L 325.099227 67.683523 
L 325.135159 67.719605 
L 325.240841 68.161728 
L 325.460659 70.258845 
L 326.688682 83.770707 
L 327.288955 86.538396 
L 327.620795 89.954927 
L 327.927273 94.54397 
L 327.929386 102.17111 
L 328.037182 95.112439 
L 328.485273 73.343787 
L 328.770614 68.157113 
L 328.903773 67.676252 
L 328.939705 67.71248 
L 329.045386 68.154987 
L 329.265205 70.252699 
L 330.491114 83.757413 
L 331.095614 86.549954 
L 331.427455 89.977571 
L 331.731818 94.539452 
L 331.733932 102.160159 
L 331.841727 95.101801 
L 332.289818 73.335296 
L 332.575159 68.150042 
L 332.708318 67.669724 
L 332.74425 67.706081 
L 332.849932 68.148931 
L 333.06975 70.247179 
L 334.295659 83.752881 
L 334.900159 86.545731 
L 335.232 89.973466 
L 335.536364 94.535412 
L 335.538477 102.15036 
L 335.646273 95.09228 
L 336.094364 73.327685 
L 336.379705 68.143695 
L 336.512864 67.663861 
L 336.548795 67.700335 
L 336.654477 68.143492 
L 336.874295 70.24222 
L 338.100205 83.748824 
L 338.704705 86.541953 
L 339.036545 89.969793 
L 339.340909 94.531797 
L 339.343023 102.141593 
L 339.450818 95.083761 
L 339.898909 73.320863 
L 340.18425 68.137999 
L 340.317409 67.658596 
L 340.353341 67.695174 
L 340.459023 68.138606 
L 340.678841 70.237765 
L 341.90475 83.745189 
L 342.50925 86.53857 
L 342.841091 89.966505 
L 343.145455 94.528559 
L 343.147568 102.133752 
L 343.255364 95.07614 
L 343.703455 73.314748 
L 343.988795 68.132885 
L 344.121955 67.653867 
L 344.157886 67.690538 
L 344.263568 68.134214 
L 344.483386 70.23376 
L 345.709295 83.74193 
L 346.313795 86.535538 
L 346.645636 89.963558 
L 346.95 94.525657 
L 346.952114 102.12674 
L 347.059909 95.069321 
L 347.508 73.309266 
L 347.793341 68.128293 
L 347.9265 67.649618 
L 347.962432 67.686371 
L 348.068114 68.130267 
L 348.287932 70.230158 
L 349.513841 83.739007 
L 350.118341 86.53282 
L 350.450182 89.960916 
L 350.754545 94.523056 
L 350.756659 102.120467 
L 350.864455 95.06322 
L 351.312545 73.30435 
L 351.597886 68.124168 
L 351.731045 67.645799 
L 351.766977 67.682626 
L 351.872659 68.126716 
L 352.092477 70.226917 
L 353.318386 83.736384 
L 353.922886 86.530383 
L 354.254727 89.958547 
L 354.559091 94.520723 
L 354.561205 102.114856 
L 354.669 95.05776 
L 355.117091 73.299941 
L 355.402432 68.120462 
L 355.535591 67.642365 
L 355.571523 67.679257 
L 355.677205 68.123522 
L 355.897023 70.224001 
L 357.122932 83.734029 
L 357.727432 86.528196 
L 358.059273 89.956422 
L 358.363636 94.518631 
L 358.36575 102.109834 
L 358.473545 95.052873 
L 358.921636 73.295985 
L 359.206977 68.117131 
L 359.340136 67.639276 
L 359.376068 67.676227 
L 359.48175 68.120648 
L 359.701568 70.221376 
L 360.927477 83.731915 
L 361.531977 86.526234 
L 361.863818 89.954516 
L 362.168182 94.516755 
L 362.170295 102.10534 
L 362.278091 95.048497 
L 362.726182 73.292434 
L 363.011523 68.114136 
L 363.144682 67.636497 
L 363.180614 67.673501 
L 363.286295 68.118061 
L 363.506114 70.219012 
L 364.732023 83.730016 
L 365.336523 86.524474 
L 365.668364 89.952806 
L 365.972727 94.515072 
L 365.974841 102.101316 
L 366.082636 95.044577 
L 366.530727 73.289247 
L 366.816068 68.111443 
L 366.949227 67.633997 
L 366.985159 67.671048 
L 367.090841 68.115732 
L 367.310659 70.216883 
L 368.536568 83.728311 
L 369.141068 86.522895 
L 369.472909 89.951273 
L 369.777273 94.513562 
L 369.779386 102.097712 
L 369.887182 95.041065 
L 370.335273 73.286384 
L 370.620614 68.109022 
L 370.753773 67.631747 
L 370.789705 67.66884 
L 370.895386 68.113636 
L 371.115205 70.214966 
L 372.341114 83.726781 
L 372.945614 86.521479 
L 373.277455 89.949898 
L 373.581818 94.51221 
L 373.581818 94.51221 
" clip-path="url(#p74a8a1a914)" style="fill: none; stroke: #ff7f0e; stroke-width: 1.5; stroke-linecap: square"/>
   </g>
   <g id="patch_3">
    <path d="M 54 252 
L 54 34.56 
" style="fill: none; stroke: #000000; stroke-width: 0.8; stroke-linejoin: miter; stroke-linecap: square"/>
   </g>
   <g id="patch_4">
    <path d="M 388.8 252 
L 388.8 34.56 
" style="fill: none; stroke: #000000; stroke-width: 0.8; stroke-linejoin: miter; stroke-linecap: square"/>
   </g>
   <g id="patch_5">
    <path d="M 54 252 
L 388.8 252 
" style="fill: none; stroke: #000000; stroke-width: 0.8; stroke-linejoin: miter; stroke-linecap: square"/>
   </g>
   <g id="patch_6">
    <path d="M 54 34.56 
L 388.8 34.56 
" style="fill: none; stroke: #000000; stroke-width: 0.8; stroke-linejoin: miter; stroke-linecap: square"/>
   </g>
   <g id="legend_1">
    <g id="patch_7">
     <path d="M 61 71.91625 
L 99.860938 71.91625 
Q 101.860938 71.91625 101.860938 69.91625 
L 101.860938 41.56 
Q 101.860938 39.56 99.860938 39.56 
L 61 39.56 
Q 59 39.56 59 41.56 
L 59 69.91625 
Q 59 71.91625 61 71.91625 
z
" style="fill: #ffffff; opacity: 0.8; stroke: #cccccc; stroke-linejoin: miter"/>
    </g>
    <g id="line2d_18">
     <path d="M 63 47.658437 
L 73 47.658437 
L 83 47.658437 
" style="fill: none; stroke: #1f77b4; stroke-width: 1.5; stroke-linecap: square"/>
    </g>
    <g id="text_18">
     <!-- A -->
     <g transform="translate(91 51.158437) scale(0.1 -0.1)">
      <defs>
       <path id="DejaVuSans-41" d="M 2188 4044 
L 1331 1722 
L 3047 1722 
L 2188 4044 
z
M 1831 4666 
L 2547 4666 
L 4325 0 
L 3669 0 
L 3244 1197 
L 1141 1197 
L 716 0 
L 50 0 
L 1831 4666 
z
" transform="scale(0.015625)"/>
      </defs>
      <use xlink:href="#DejaVuSans-41"/>
     </g>
    </g>
    <g id="line2d_19">
     <path d="M 63 62.336562 
L 73 62.336562 
L 83 62.336562 
" style="fill: none; stroke: #ff7f0e; stroke-width: 1.5; stroke-linecap: square"/>
    </g>
    <g id="text_19">
     <!-- B -->
     <g transform="translate(91 65.836562) scale(0.1 -0.1)">
      <defs>
       <path id="DejaVuSans-42" d="M 1259 2228 
L 1259 519 
L 2272 519 
Q 2781 519 3026 730 
Q 3272 941 3272 1375 
Q 3272 1813 3026 2020 
Q 2781 2228 2272 2228 
L 1259 2228 
z
M 1259 4147 
L 1259 2741 
L 2194 2741 
Q 2656 2741 2882 2914 
Q 3109 3088 3109 3444 
Q 3109 3797 2882 3972 
Q 2656 4147 2194 4147 
L 1259 4147 
z
M 628 4666 
L 2241 4666 
Q 2963 4666 3353 4366 
Q 3744 4066 3744 3513 
Q 3744 3084 3544 2831 
Q 3344 2578 2956 2516 
Q 3422 2416 3680 2098 
Q 3938 1781 3938 1306 
Q 3938 681 3513 340 
Q 3088 0 2303 0 
L 628 0 
L 628 4666 
z
" transform="scale(0.015625)"/>
      </defs>
      <use xlink:href="#DejaVuSans-42"/>
     </g>
    </g>
   </g>
  </g>
 </g>
 <defs>
  <clipPath id="p74a8a1a914">
   <rect x="54" y="34.56" width="334.8" height="217.44"/>
  </clipPath>
 </defs>
</svg>
