<?xml version="1.0" encoding="utf-8" standalone="no"?>
<!DOCTYPE svg PUBLIC "-//W3C//DTD SVG 1.1//EN"
  "http://www.w3.org/Graphics/SVG/1.1/DTD/svg11.dtd">
<svg xmlns:xlink="http://www.w3.org/1999/xlink" width="432pt" height="288pt" viewBox="0 0 432 288" xmlns="http://www.w3.org/2000/svg" version="1.1">
 <metadata>
  <rdf:RDF xmlns:dc="http://purl.org/dc/elements/1.1/" xmlns:cc="http://creativecommons.org/ns#" xmlns:rdf="http://www.w3.org/1999/02/22-rdf-syntax-ns#">
   <cc:Work>
    <dc:type rdf:resource="http://purl.org/dc/dcmitype/StillImage"/>
    <dc:date>2024-10-07T10:55:07.568902</dc:date>
    <dc:format>image/svg+xml</dc:format>
    <dc:creator>
     <cc:Agent>
      <dc:title>Matplotlib v3.9.1, https://matplotlib.org/</dc:title>
     </cc:Agent>
    </dc:creator>
   </cc:Work>
  </rdf:RDF>
 </metadata>
 <defs>
  <style type="text/css">*{stroke-linejoin: round; stroke-linecap: butt}</style>
 </defs>
 <g id="figure_1">
  <g id="patch_1">
   <path d="M 0 288 
L 432 288 
L 432 0 
L 0 0 
z
" style="fill: #ffffff"/>
  </g>
  <g id="axes_1">
   <g id="patch_2">
    <path d="M 54 252 
L 388.8 252 
L 388.8 34.56 
L 54 34.56 
z
" style="fill: #ffffff"/>
   </g>
   <g id="matplotlib.axis_1">
    <g id="xtick_1">
     <g id="line2d_1">
      <defs>
       <path id="m9bbe851223" d="M 0 0 
L 0 3.5 
" style="stroke: #000000; stroke-width: 0.8"/>
      </defs>
      <g>
       <use xlink:href="#m9bbe851223" x="69.218182" y="252" style="stroke: #000000; stroke-width: 0.8"/>
      </g>
     </g>
     <g id="text_1">
      <!-- 0 -->
      <g transform="translate(66.036932 266.598437) scale(0.1 -0.1)">
       <defs>
        <path id="DejaVuSans-30" d="M 2034 4250 
Q 1547 4250 1301 3770 
Q 1056 3291 1056 2328 
Q 1056 1369 1301 889 
Q 1547 409 2034 409 
Q 2525 409 2770 889 
Q 3016 1369 3016 2328 
Q 3016 3291 2770 3770 
Q 2525 4250 2034 4250 
z
M 2034 4750 
Q 2819 4750 3233 4129 
Q 3647 3509 3647 2328 
Q 3647 1150 3233 529 
Q 2819 -91 2034 -91 
Q 1250 -91 836 529 
Q 422 1150 422 2328 
Q 422 3509 836 4129 
Q 1250 4750 2034 4750 
z
" transform="scale(0.015625)"/>
       </defs>
       <use xlink:href="#DejaVuSans-30"/>
      </g>
     </g>
    </g>
    <g id="xtick_2">
     <g id="line2d_2">
      <g>
       <use xlink:href="#m9bbe851223" x="111.490909" y="252" style="stroke: #000000; stroke-width: 0.8"/>
      </g>
     </g>
     <g id="text_2">
      <!-- 2000 -->
      <g transform="translate(98.765909 266.598437) scale(0.1 -0.1)">
       <defs>
        <path id="DejaVuSans-32" d="M 1228 531 
L 3431 531 
L 3431 0 
L 469 0 
L 469 531 
Q 828 903 1448 1529 
Q 2069 2156 2228 2338 
Q 2531 2678 2651 2914 
Q 2772 3150 2772 3378 
Q 2772 3750 2511 3984 
Q 2250 4219 1831 4219 
Q 1534 4219 1204 4116 
Q 875 4013 500 3803 
L 500 4441 
Q 881 4594 1212 4672 
Q 1544 4750 1819 4750 
Q 2544 4750 2975 4387 
Q 3406 4025 3406 3419 
Q 3406 3131 3298 2873 
Q 3191 2616 2906 2266 
Q 2828 2175 2409 1742 
Q 1991 1309 1228 531 
z
" transform="scale(0.015625)"/>
       </defs>
       <use xlink:href="#DejaVuSans-32"/>
       <use xlink:href="#DejaVuSans-30" x="63.623047"/>
       <use xlink:href="#DejaVuSans-30" x="127.246094"/>
       <use xlink:href="#DejaVuSans-30" x="190.869141"/>
      </g>
     </g>
    </g>
    <g id="xtick_3">
     <g id="line2d_3">
      <g>
       <use xlink:href="#m9bbe851223" x="153.763636" y="252" style="stroke: #000000; stroke-width: 0.8"/>
      </g>
     </g>
     <g id="text_3">
      <!-- 4000 -->
      <g transform="translate(141.038636 266.598437) scale(0.1 -0.1)">
       <defs>
        <path id="DejaVuSans-34" d="M 2419 4116 
L 825 1625 
L 2419 1625 
L 2419 4116 
z
M 2253 4666 
L 3047 4666 
L 3047 1625 
L 3713 1625 
L 3713 1100 
L 3047 1100 
L 3047 0 
L 2419 0 
L 2419 1100 
L 313 1100 
L 313 1709 
L 2253 4666 
z
" transform="scale(0.015625)"/>
       </defs>
       <use xlink:href="#DejaVuSans-34"/>
       <use xlink:href="#DejaVuSans-30" x="63.623047"/>
       <use xlink:href="#DejaVuSans-30" x="127.246094"/>
       <use xlink:href="#DejaVuSans-30" x="190.869141"/>
      </g>
     </g>
    </g>
    <g id="xtick_4">
     <g id="line2d_4">
      <g>
       <use xlink:href="#m9bbe851223" x="196.036364" y="252" style="stroke: #000000; stroke-width: 0.8"/>
      </g>
     </g>
     <g id="text_4">
      <!-- 6000 -->
      <g transform="translate(183.311364 266.598437) scale(0.1 -0.1)">
       <defs>
        <path id="DejaVuSans-36" d="M 2113 2584 
Q 1688 2584 1439 2293 
Q 1191 2003 1191 1497 
Q 1191 994 1439 701 
Q 1688 409 2113 409 
Q 2538 409 2786 701 
Q 3034 994 3034 1497 
Q 3034 2003 2786 2293 
Q 2538 2584 2113 2584 
z
M 3366 4563 
L 3366 3988 
Q 3128 4100 2886 4159 
Q 2644 4219 2406 4219 
Q 1781 4219 1451 3797 
Q 1122 3375 1075 2522 
Q 1259 2794 1537 2939 
Q 1816 3084 2150 3084 
Q 2853 3084 3261 2657 
Q 3669 2231 3669 1497 
Q 3669 778 3244 343 
Q 2819 -91 2113 -91 
Q 1303 -91 875 529 
Q 447 1150 447 2328 
Q 447 3434 972 4092 
Q 1497 4750 2381 4750 
Q 2619 4750 2861 4703 
Q 3103 4656 3366 4563 
z
" transform="scale(0.015625)"/>
       </defs>
       <use xlink:href="#DejaVuSans-36"/>
       <use xlink:href="#DejaVuSans-30" x="63.623047"/>
       <use xlink:href="#DejaVuSans-30" x="127.246094"/>
       <use xlink:href="#DejaVuSans-30" x="190.869141"/>
      </g>
     </g>
    </g>
    <g id="xtick_5">
     <g id="line2d_5">
      <g>
       <use xlink:href="#m9bbe851223" x="238.309091" y="252" style="stroke: #000000; stroke-width: 0.8"/>
      </g>
     </g>
     <g id="text_5">
      <!-- 8000 -->
      <g transform="translate(225.584091 266.598437) scale(0.1 -0.1)">
       <defs>
        <path id="DejaVuSans-38" d="M 2034 2216 
Q 1584 2216 1326 1975 
Q 1069 1734 1069 1313 
Q 1069 891 1326 650 
Q 1584 409 2034 409 
Q 2484 409 2743 651 
Q 3003 894 3003 1313 
Q 3003 1734 2745 1975 
Q 2488 2216 2034 2216 
z
M 1403 2484 
Q 997 2584 770 2862 
Q 544 3141 544 3541 
Q 544 4100 942 4425 
Q 1341 4750 2034 4750 
Q 2731 4750 3128 4425 
Q 3525 4100 3525 3541 
Q 3525 3141 3298 2862 
Q 3072 2584 2669 2484 
Q 3125 2378 3379 2068 
Q 3634 1759 3634 1313 
Q 3634 634 3220 271 
Q 2806 -91 2034 -91 
Q 1263 -91 848 271 
Q 434 634 434 1313 
Q 434 1759 690 2068 
Q 947 2378 1403 2484 
z
M 1172 3481 
Q 1172 3119 1398 2916 
Q 1625 2713 2034 2713 
Q 2441 2713 2670 2916 
Q 2900 3119 2900 3481 
Q 2900 3844 2670 4047 
Q 2441 4250 2034 4250 
Q 1625 4250 1398 4047 
Q 1172 3844 1172 3481 
z
" transform="scale(0.015625)"/>
       </defs>
       <use xlink:href="#DejaVuSans-38"/>
       <use xlink:href="#DejaVuSans-30" x="63.623047"/>
       <use xlink:href="#DejaVuSans-30" x="127.246094"/>
       <use xlink:href="#DejaVuSans-30" x="190.869141"/>
      </g>
     </g>
    </g>
    <g id="xtick_6">
     <g id="line2d_6">
      <g>
       <use xlink:href="#m9bbe851223" x="280.581818" y="252" style="stroke: #000000; stroke-width: 0.8"/>
      </g>
     </g>
     <g id="text_6">
      <!-- 10000 -->
      <g transform="translate(264.675568 266.598437) scale(0.1 -0.1)">
       <defs>
        <path id="DejaVuSans-31" d="M 794 531 
L 1825 531 
L 1825 4091 
L 703 3866 
L 703 4441 
L 1819 4666 
L 2450 4666 
L 2450 531 
L 3481 531 
L 3481 0 
L 794 0 
L 794 531 
z
" transform="scale(0.015625)"/>
       </defs>
       <use xlink:href="#DejaVuSans-31"/>
       <use xlink:href="#DejaVuSans-30" x="63.623047"/>
       <use xlink:href="#DejaVuSans-30" x="127.246094"/>
       <use xlink:href="#DejaVuSans-30" x="190.869141"/>
       <use xlink:href="#DejaVuSans-30" x="254.492188"/>
      </g>
     </g>
    </g>
    <g id="xtick_7">
     <g id="line2d_7">
      <g>
       <use xlink:href="#m9bbe851223" x="322.854545" y="252" style="stroke: #000000; stroke-width: 0.8"/>
      </g>
     </g>
     <g id="text_7">
      <!-- 12000 -->
      <g transform="translate(306.948295 266.598437) scale(0.1 -0.1)">
       <use xlink:href="#DejaVuSans-31"/>
       <use xlink:href="#DejaVuSans-32" x="63.623047"/>
       <use xlink:href="#DejaVuSans-30" x="127.246094"/>
       <use xlink:href="#DejaVuSans-30" x="190.869141"/>
       <use xlink:href="#DejaVuSans-30" x="254.492188"/>
      </g>
     </g>
    </g>
    <g id="xtick_8">
     <g id="line2d_8">
      <g>
       <use xlink:href="#m9bbe851223" x="365.127273" y="252" style="stroke: #000000; stroke-width: 0.8"/>
      </g>
     </g>
     <g id="text_8">
      <!-- 14000 -->
      <g transform="translate(349.221023 266.598437) scale(0.1 -0.1)">
       <use xlink:href="#DejaVuSans-31"/>
       <use xlink:href="#DejaVuSans-34" x="63.623047"/>
       <use xlink:href="#DejaVuSans-30" x="127.246094"/>
       <use xlink:href="#DejaVuSans-30" x="190.869141"/>
       <use xlink:href="#DejaVuSans-30" x="254.492188"/>
      </g>
     </g>
    </g>
    <g id="text_9">
     <!-- Time / s -->
     <g transform="translate(201.699219 280.276563) scale(0.1 -0.1)">
      <defs>
       <path id="DejaVuSans-54" d="M -19 4666 
L 3928 4666 
L 3928 4134 
L 2272 4134 
L 2272 0 
L 1638 0 
L 1638 4134 
L -19 4134 
L -19 4666 
z
" transform="scale(0.015625)"/>
       <path id="DejaVuSans-69" d="M 603 3500 
L 1178 3500 
L 1178 0 
L 603 0 
L 603 3500 
z
M 603 4863 
L 1178 4863 
L 1178 4134 
L 603 4134 
L 603 4863 
z
" transform="scale(0.015625)"/>
       <path id="DejaVuSans-6d" d="M 3328 2828 
Q 3544 3216 3844 3400 
Q 4144 3584 4550 3584 
Q 5097 3584 5394 3201 
Q 5691 2819 5691 2113 
L 5691 0 
L 5113 0 
L 5113 2094 
Q 5113 2597 4934 2840 
Q 4756 3084 4391 3084 
Q 3944 3084 3684 2787 
Q 3425 2491 3425 1978 
L 3425 0 
L 2847 0 
L 2847 2094 
Q 2847 2600 2669 2842 
Q 2491 3084 2119 3084 
Q 1678 3084 1418 2786 
Q 1159 2488 1159 1978 
L 1159 0 
L 581 0 
L 581 3500 
L 1159 3500 
L 1159 2956 
Q 1356 3278 1631 3431 
Q 1906 3584 2284 3584 
Q 2666 3584 2933 3390 
Q 3200 3197 3328 2828 
z
" transform="scale(0.015625)"/>
       <path id="DejaVuSans-65" d="M 3597 1894 
L 3597 1613 
L 953 1613 
Q 991 1019 1311 708 
Q 1631 397 2203 397 
Q 2534 397 2845 478 
Q 3156 559 3463 722 
L 3463 178 
Q 3153 47 2828 -22 
Q 2503 -91 2169 -91 
Q 1331 -91 842 396 
Q 353 884 353 1716 
Q 353 2575 817 3079 
Q 1281 3584 2069 3584 
Q 2775 3584 3186 3129 
Q 3597 2675 3597 1894 
z
M 3022 2063 
Q 3016 2534 2758 2815 
Q 2500 3097 2075 3097 
Q 1594 3097 1305 2825 
Q 1016 2553 972 2059 
L 3022 2063 
z
" transform="scale(0.015625)"/>
       <path id="DejaVuSans-20" transform="scale(0.015625)"/>
       <path id="DejaVuSans-2f" d="M 1625 4666 
L 2156 4666 
L 531 -594 
L 0 -594 
L 1625 4666 
z
" transform="scale(0.015625)"/>
       <path id="DejaVuSans-73" d="M 2834 3397 
L 2834 2853 
Q 2591 2978 2328 3040 
Q 2066 3103 1784 3103 
Q 1356 3103 1142 2972 
Q 928 2841 928 2578 
Q 928 2378 1081 2264 
Q 1234 2150 1697 2047 
L 1894 2003 
Q 2506 1872 2764 1633 
Q 3022 1394 3022 966 
Q 3022 478 2636 193 
Q 2250 -91 1575 -91 
Q 1294 -91 989 -36 
Q 684 19 347 128 
L 347 722 
Q 666 556 975 473 
Q 1284 391 1588 391 
Q 1994 391 2212 530 
Q 2431 669 2431 922 
Q 2431 1156 2273 1281 
Q 2116 1406 1581 1522 
L 1381 1569 
Q 847 1681 609 1914 
Q 372 2147 372 2553 
Q 372 3047 722 3315 
Q 1072 3584 1716 3584 
Q 2034 3584 2315 3537 
Q 2597 3491 2834 3397 
z
" transform="scale(0.015625)"/>
      </defs>
      <use xlink:href="#DejaVuSans-54"/>
      <use xlink:href="#DejaVuSans-69" x="57.958984"/>
      <use xlink:href="#DejaVuSans-6d" x="85.742188"/>
      <use xlink:href="#DejaVuSans-65" x="183.154297"/>
      <use xlink:href="#DejaVuSans-20" x="244.677734"/>
      <use xlink:href="#DejaVuSans-2f" x="276.464844"/>
      <use xlink:href="#DejaVuSans-20" x="310.15625"/>
      <use xlink:href="#DejaVuSans-73" x="341.943359"/>
     </g>
    </g>
   </g>
   <g id="matplotlib.axis_2">
    <g id="ytick_1">
     <g id="line2d_9">
      <defs>
       <path id="m86223ed0b7" d="M 0 0 
L -3.5 0 
" style="stroke: #000000; stroke-width: 0.8"/>
      </defs>
      <g>
       <use xlink:href="#m86223ed0b7" x="54" y="242.116364" style="stroke: #000000; stroke-width: 0.8"/>
      </g>
     </g>
     <g id="text_10">
      <!-- 0.0 -->
      <g transform="translate(31.096875 245.915582) scale(0.1 -0.1)">
       <defs>
        <path id="DejaVuSans-2e" d="M 684 794 
L 1344 794 
L 1344 0 
L 684 0 
L 684 794 
z
" transform="scale(0.015625)"/>
       </defs>
       <use xlink:href="#DejaVuSans-30"/>
       <use xlink:href="#DejaVuSans-2e" x="63.623047"/>
       <use xlink:href="#DejaVuSans-30" x="95.410156"/>
      </g>
     </g>
    </g>
    <g id="ytick_2">
     <g id="line2d_10">
      <g>
       <use xlink:href="#m86223ed0b7" x="54" y="209.677781" style="stroke: #000000; stroke-width: 0.8"/>
      </g>
     </g>
     <g id="text_11">
      <!-- 0.5 -->
      <g transform="translate(31.096875 213.477) scale(0.1 -0.1)">
       <defs>
        <path id="DejaVuSans-35" d="M 691 4666 
L 3169 4666 
L 3169 4134 
L 1269 4134 
L 1269 2991 
Q 1406 3038 1543 3061 
Q 1681 3084 1819 3084 
Q 2600 3084 3056 2656 
Q 3513 2228 3513 1497 
Q 3513 744 3044 326 
Q 2575 -91 1722 -91 
Q 1428 -91 1123 -41 
Q 819 9 494 109 
L 494 744 
Q 775 591 1075 516 
Q 1375 441 1709 441 
Q 2250 441 2565 725 
Q 2881 1009 2881 1497 
Q 2881 1984 2565 2268 
Q 2250 2553 1709 2553 
Q 1456 2553 1204 2497 
Q 953 2441 691 2322 
L 691 4666 
z
" transform="scale(0.015625)"/>
       </defs>
       <use xlink:href="#DejaVuSans-30"/>
       <use xlink:href="#DejaVuSans-2e" x="63.623047"/>
       <use xlink:href="#DejaVuSans-35" x="95.410156"/>
      </g>
     </g>
    </g>
    <g id="ytick_3">
     <g id="line2d_11">
      <g>
       <use xlink:href="#m86223ed0b7" x="54" y="177.239198" style="stroke: #000000; stroke-width: 0.8"/>
      </g>
     </g>
     <g id="text_12">
      <!-- 1.0 -->
      <g transform="translate(31.096875 181.038417) scale(0.1 -0.1)">
       <use xlink:href="#DejaVuSans-31"/>
       <use xlink:href="#DejaVuSans-2e" x="63.623047"/>
       <use xlink:href="#DejaVuSans-30" x="95.410156"/>
      </g>
     </g>
    </g>
    <g id="ytick_4">
     <g id="line2d_12">
      <g>
       <use xlink:href="#m86223ed0b7" x="54" y="144.800615" style="stroke: #000000; stroke-width: 0.8"/>
      </g>
     </g>
     <g id="text_13">
      <!-- 1.5 -->
      <g transform="translate(31.096875 148.599834) scale(0.1 -0.1)">
       <use xlink:href="#DejaVuSans-31"/>
       <use xlink:href="#DejaVuSans-2e" x="63.623047"/>
       <use xlink:href="#DejaVuSans-35" x="95.410156"/>
      </g>
     </g>
    </g>
    <g id="ytick_5">
     <g id="line2d_13">
      <g>
       <use xlink:href="#m86223ed0b7" x="54" y="112.362032" style="stroke: #000000; stroke-width: 0.8"/>
      </g>
     </g>
     <g id="text_14">
      <!-- 2.0 -->
      <g transform="translate(31.096875 116.161251) scale(0.1 -0.1)">
       <use xlink:href="#DejaVuSans-32"/>
       <use xlink:href="#DejaVuSans-2e" x="63.623047"/>
       <use xlink:href="#DejaVuSans-30" x="95.410156"/>
      </g>
     </g>
    </g>
    <g id="ytick_6">
     <g id="line2d_14">
      <g>
       <use xlink:href="#m86223ed0b7" x="54" y="79.92345" style="stroke: #000000; stroke-width: 0.8"/>
      </g>
     </g>
     <g id="text_15">
      <!-- 2.5 -->
      <g transform="translate(31.096875 83.722668) scale(0.1 -0.1)">
       <use xlink:href="#DejaVuSans-32"/>
       <use xlink:href="#DejaVuSans-2e" x="63.623047"/>
       <use xlink:href="#DejaVuSans-35" x="95.410156"/>
      </g>
     </g>
    </g>
    <g id="ytick_7">
     <g id="line2d_15">
      <g>
       <use xlink:href="#m86223ed0b7" x="54" y="47.484867" style="stroke: #000000; stroke-width: 0.8"/>
      </g>
     </g>
     <g id="text_16">
      <!-- 3.0 -->
      <g transform="translate(31.096875 51.284086) scale(0.1 -0.1)">
       <defs>
        <path id="DejaVuSans-33" d="M 2597 2516 
Q 3050 2419 3304 2112 
Q 3559 1806 3559 1356 
Q 3559 666 3084 287 
Q 2609 -91 1734 -91 
Q 1441 -91 1130 -33 
Q 819 25 488 141 
L 488 750 
Q 750 597 1062 519 
Q 1375 441 1716 441 
Q 2309 441 2620 675 
Q 2931 909 2931 1356 
Q 2931 1769 2642 2001 
Q 2353 2234 1838 2234 
L 1294 2234 
L 1294 2753 
L 1863 2753 
Q 2328 2753 2575 2939 
Q 2822 3125 2822 3475 
Q 2822 3834 2567 4026 
Q 2313 4219 1838 4219 
Q 1578 4219 1281 4162 
Q 984 4106 628 3988 
L 628 4550 
Q 988 4650 1302 4700 
Q 1616 4750 1894 4750 
Q 2613 4750 3031 4423 
Q 3450 4097 3450 3541 
Q 3450 3153 3228 2886 
Q 3006 2619 2597 2516 
z
" transform="scale(0.015625)"/>
       </defs>
       <use xlink:href="#DejaVuSans-33"/>
       <use xlink:href="#DejaVuSans-2e" x="63.623047"/>
       <use xlink:href="#DejaVuSans-30" x="95.410156"/>
      </g>
     </g>
    </g>
    <g id="text_17">
     <!-- Concentration / mM -->
     <g transform="translate(25.017187 192.697969) rotate(-90) scale(0.1 -0.1)">
      <defs>
       <path id="DejaVuSans-43" d="M 4122 4306 
L 4122 3641 
Q 3803 3938 3442 4084 
Q 3081 4231 2675 4231 
Q 1875 4231 1450 3742 
Q 1025 3253 1025 2328 
Q 1025 1406 1450 917 
Q 1875 428 2675 428 
Q 3081 428 3442 575 
Q 3803 722 4122 1019 
L 4122 359 
Q 3791 134 3420 21 
Q 3050 -91 2638 -91 
Q 1578 -91 968 557 
Q 359 1206 359 2328 
Q 359 3453 968 4101 
Q 1578 4750 2638 4750 
Q 3056 4750 3426 4639 
Q 3797 4528 4122 4306 
z
" transform="scale(0.015625)"/>
       <path id="DejaVuSans-6f" d="M 1959 3097 
Q 1497 3097 1228 2736 
Q 959 2375 959 1747 
Q 959 1119 1226 758 
Q 1494 397 1959 397 
Q 2419 397 2687 759 
Q 2956 1122 2956 1747 
Q 2956 2369 2687 2733 
Q 2419 3097 1959 3097 
z
M 1959 3584 
Q 2709 3584 3137 3096 
Q 3566 2609 3566 1747 
Q 3566 888 3137 398 
Q 2709 -91 1959 -91 
Q 1206 -91 779 398 
Q 353 888 353 1747 
Q 353 2609 779 3096 
Q 1206 3584 1959 3584 
z
" transform="scale(0.015625)"/>
       <path id="DejaVuSans-6e" d="M 3513 2113 
L 3513 0 
L 2938 0 
L 2938 2094 
Q 2938 2591 2744 2837 
Q 2550 3084 2163 3084 
Q 1697 3084 1428 2787 
Q 1159 2491 1159 1978 
L 1159 0 
L 581 0 
L 581 3500 
L 1159 3500 
L 1159 2956 
Q 1366 3272 1645 3428 
Q 1925 3584 2291 3584 
Q 2894 3584 3203 3211 
Q 3513 2838 3513 2113 
z
" transform="scale(0.015625)"/>
       <path id="DejaVuSans-63" d="M 3122 3366 
L 3122 2828 
Q 2878 2963 2633 3030 
Q 2388 3097 2138 3097 
Q 1578 3097 1268 2742 
Q 959 2388 959 1747 
Q 959 1106 1268 751 
Q 1578 397 2138 397 
Q 2388 397 2633 464 
Q 2878 531 3122 666 
L 3122 134 
Q 2881 22 2623 -34 
Q 2366 -91 2075 -91 
Q 1284 -91 818 406 
Q 353 903 353 1747 
Q 353 2603 823 3093 
Q 1294 3584 2113 3584 
Q 2378 3584 2631 3529 
Q 2884 3475 3122 3366 
z
" transform="scale(0.015625)"/>
       <path id="DejaVuSans-74" d="M 1172 4494 
L 1172 3500 
L 2356 3500 
L 2356 3053 
L 1172 3053 
L 1172 1153 
Q 1172 725 1289 603 
Q 1406 481 1766 481 
L 2356 481 
L 2356 0 
L 1766 0 
Q 1100 0 847 248 
Q 594 497 594 1153 
L 594 3053 
L 172 3053 
L 172 3500 
L 594 3500 
L 594 4494 
L 1172 4494 
z
" transform="scale(0.015625)"/>
       <path id="DejaVuSans-72" d="M 2631 2963 
Q 2534 3019 2420 3045 
Q 2306 3072 2169 3072 
Q 1681 3072 1420 2755 
Q 1159 2438 1159 1844 
L 1159 0 
L 581 0 
L 581 3500 
L 1159 3500 
L 1159 2956 
Q 1341 3275 1631 3429 
Q 1922 3584 2338 3584 
Q 2397 3584 2469 3576 
Q 2541 3569 2628 3553 
L 2631 2963 
z
" transform="scale(0.015625)"/>
       <path id="DejaVuSans-61" d="M 2194 1759 
Q 1497 1759 1228 1600 
Q 959 1441 959 1056 
Q 959 750 1161 570 
Q 1363 391 1709 391 
Q 2188 391 2477 730 
Q 2766 1069 2766 1631 
L 2766 1759 
L 2194 1759 
z
M 3341 1997 
L 3341 0 
L 2766 0 
L 2766 531 
Q 2569 213 2275 61 
Q 1981 -91 1556 -91 
Q 1019 -91 701 211 
Q 384 513 384 1019 
Q 384 1609 779 1909 
Q 1175 2209 1959 2209 
L 2766 2209 
L 2766 2266 
Q 2766 2663 2505 2880 
Q 2244 3097 1772 3097 
Q 1472 3097 1187 3025 
Q 903 2953 641 2809 
L 641 3341 
Q 956 3463 1253 3523 
Q 1550 3584 1831 3584 
Q 2591 3584 2966 3190 
Q 3341 2797 3341 1997 
z
" transform="scale(0.015625)"/>
       <path id="DejaVuSans-4d" d="M 628 4666 
L 1569 4666 
L 2759 1491 
L 3956 4666 
L 4897 4666 
L 4897 0 
L 4281 0 
L 4281 4097 
L 3078 897 
L 2444 897 
L 1241 4097 
L 1241 0 
L 628 0 
L 628 4666 
z
" transform="scale(0.015625)"/>
      </defs>
      <use xlink:href="#DejaVuSans-43"/>
      <use xlink:href="#DejaVuSans-6f" x="69.824219"/>
      <use xlink:href="#DejaVuSans-6e" x="131.005859"/>
      <use xlink:href="#DejaVuSans-63" x="194.384766"/>
      <use xlink:href="#DejaVuSans-65" x="249.365234"/>
      <use xlink:href="#DejaVuSans-6e" x="310.888672"/>
      <use xlink:href="#DejaVuSans-74" x="374.267578"/>
      <use xlink:href="#DejaVuSans-72" x="413.476562"/>
      <use xlink:href="#DejaVuSans-61" x="454.589844"/>
      <use xlink:href="#DejaVuSans-74" x="515.869141"/>
      <use xlink:href="#DejaVuSans-69" x="555.078125"/>
      <use xlink:href="#DejaVuSans-6f" x="582.861328"/>
      <use xlink:href="#DejaVuSans-6e" x="644.042969"/>
      <use xlink:href="#DejaVuSans-20" x="707.421875"/>
      <use xlink:href="#DejaVuSans-2f" x="739.208984"/>
      <use xlink:href="#DejaVuSans-20" x="772.900391"/>
      <use xlink:href="#DejaVuSans-6d" x="804.6875"/>
      <use xlink:href="#DejaVuSans-4d" x="902.099609"/>
     </g>
    </g>
   </g>
   <g id="line2d_16">
    <path d="M 69.218182 242.116364 
L 76.827273 242.116364 
L 76.829386 201.587072 
L 76.939295 205.260185 
L 77.755159 229.699901 
L 78.201136 236.759399 
L 78.594273 239.868276 
L 78.959932 241.204223 
L 79.321364 241.770421 
L 79.731409 242.01013 
L 80.395091 242.10284 
L 80.631818 242.110121 
L 80.633932 168.232619 
L 80.743841 173.857748 
L 81.631568 214.896353 
L 82.149409 229.011043 
L 82.603841 235.979913 
L 83.022341 239.347997 
L 83.415477 240.910242 
L 83.800159 241.619855 
L 84.212318 241.938661 
L 84.436364 242.017776 
L 84.438477 141.987631 
L 84.548386 148.827427 
L 85.461477 200.175006 
L 86.0385 220.656288 
L 86.545773 231.530582 
L 87.004432 237.080324 
L 87.429273 239.807386 
L 87.830864 241.096607 
L 88.228227 241.692995 
L 88.240909 241.705132 
L 88.243023 121.554805 
L 88.352932 129.193096 
L 89.274477 187.003876 
L 89.900114 212.838832 
L 90.449659 227.191206 
L 90.942136 234.805006 
L 91.390227 238.652963 
L 91.808727 240.529509 
L 92.045455 241.126956 
L 92.047568 105.650101 
L 92.157477 113.827206 
L 93.081136 175.807876 
L 93.744818 205.951184 
L 94.328182 223.259455 
L 94.846023 232.67579 
L 95.313136 237.548704 
L 95.744318 239.960521 
L 95.85 240.340011 
L 95.852114 93.226025 
L 95.962023 101.772533 
L 96.889909 166.781246 
L 97.583182 200.258817 
L 98.194023 219.970447 
L 98.735114 230.919291 
L 99.217023 236.619282 
L 99.654545 239.44003 
L 99.656659 83.474457 
L 99.766568 92.277225 
L 100.696568 159.373837 
L 101.413091 195.500365 
L 102.047182 217.224719 
L 102.605182 229.418785 
L 103.095545 235.776152 
L 103.459091 238.51443 
L 103.461205 75.782592 
L 103.571114 84.764916 
L 104.503227 153.396479 
L 105.238773 191.641361 
L 105.891886 215.002863 
L 106.462568 228.18721 
L 106.959273 235.061297 
L 107.263636 237.625334 
L 107.26575 69.686565 
L 107.375659 78.79583 
L 108.312 148.714999 
L 109.062341 188.5894 
L 109.73025 213.239758 
L 110.309386 227.178618 
L 110.812432 234.473581 
L 111.068182 236.809896 
L 111.070295 64.833308 
L 111.180205 74.033028 
L 112.120773 144.978529 
L 112.883795 186.185069 
L 113.562273 211.821866 
L 114.149864 226.398218 
L 114.655023 233.973691 
L 114.872727 236.086472 
L 114.874841 60.951665 
L 114.98475 70.216282 
L 115.929545 142.003118 
L 116.703136 184.291999 
L 117.390068 210.71613 
L 117.981886 225.743941 
L 118.489159 233.550351 
L 118.677273 235.461081 
L 118.679386 57.831359 
L 118.789295 67.14284 
L 119.736205 139.503895 
L 120.520364 182.79757 
L 121.21575 209.91046 
L 121.811795 225.289137 
L 122.319068 233.224121 
L 122.481818 234.932323 
L 122.483932 55.308056 
L 122.593841 64.653712 
L 123.544977 137.632795 
L 124.335477 181.611026 
L 125.035091 209.206658 
L 125.63325 224.866099 
L 126.140523 232.923204 
L 126.286364 234.494602 
L 126.288477 53.252958 
L 126.398386 62.624056 
L 127.35375 136.16075 
L 128.150591 180.760249 
L 128.854432 208.755588 
L 129.452591 224.568263 
L 129.959864 232.702313 
L 130.090909 234.14004 
L 130.093023 51.565575 
L 130.202932 60.956456 
L 131.162523 135.014681 
L 131.965705 180.190424 
L 132.671659 208.448636 
L 133.269818 224.368574 
L 133.774977 232.520267 
L 133.895455 233.859566 
L 133.897568 50.168538 
L 134.007477 59.576007 
L 134.971295 134.13863 
L 135.778705 179.756881 
L 136.486773 208.251051 
L 137.084932 224.243452 
L 137.590091 232.413159 
L 137.7 233.643575 
L 137.702114 49.003531 
L 137.812023 58.42635 
L 138.780068 133.489917 
L 139.589591 179.422432 
L 140.297659 208.063239 
L 140.893705 224.084139 
L 141.39675 232.266596 
L 141.504545 233.482396 
L 141.506659 48.027715 
L 141.616568 57.466106 
L 142.588841 133.035476 
L 143.400477 179.257279 
L 144.108545 207.998257 
L 144.704591 224.048292 
L 145.207636 232.221497 
L 145.309091 233.366668 
L 145.311205 47.210333 
L 145.421114 56.665452 
L 146.397614 132.748634 
L 147.211364 179.234666 
L 147.919432 208.033423 
L 148.513364 224.031875 
L 149.014295 232.16594 
L 149.113636 233.287666 
L 149.11575 46.529439 
L 149.225659 56.002858 
L 150.206386 132.606588 
L 151.020136 179.22797 
L 151.726091 208.007991 
L 152.317909 223.976761 
L 152.818841 232.116551 
L 152.918182 233.237537 
L 152.920295 45.968928 
L 153.030205 55.462167 
L 154.013045 132.448056 
L 154.826795 179.21426 
L 155.530636 207.973796 
L 156.122455 223.959211 
L 156.623386 232.091188 
L 156.722727 233.209454 
L 156.724841 45.516064 
L 156.83475 55.030228 
L 157.821818 132.534706 
L 158.633455 179.27559 
L 159.335182 207.985674 
L 159.924886 223.925061 
L 160.423705 232.032878 
L 160.527273 233.197667 
L 160.529386 45.159659 
L 160.639295 54.695225 
L 161.628477 132.566622 
L 162.438 179.291377 
L 163.139727 208.030716 
L 163.727318 223.910254 
L 164.226136 232.012603 
L 164.331818 233.197485 
L 164.333932 44.888961 
L 164.443841 54.445699 
L 165.433023 132.525808 
L 166.242545 179.348871 
L 166.942159 208.027874 
L 167.52975 223.908216 
L 168.028568 232.000908 
L 168.136364 233.205184 
L 168.138477 44.693145 
L 168.248386 54.270163 
L 169.239682 132.679894 
L 170.047091 179.435228 
L 170.744591 208.039063 
L 171.332182 223.913808 
L 171.831 231.994624 
L 171.940909 233.217894 
L 171.943023 44.561272 
L 172.052932 54.157143 
L 173.044227 132.731542 
L 173.849523 179.43679 
L 174.547023 208.057728 
L 175.1325 223.87904 
L 175.631318 231.966148 
L 175.745455 233.233464 
L 175.747568 44.482515 
L 175.857477 54.095441 
L 176.848773 132.810745 
L 177.651955 179.4483 
L 178.347341 208.00848 
L 178.932818 223.845185 
L 179.429523 231.913692 
L 179.55 233.250332 
L 179.552114 44.4465 
L 179.662023 54.074482 
L 180.653318 132.907774 
L 181.454386 179.463471 
L 182.149773 208.028729 
L 182.73525 223.854429 
L 183.231955 231.911913 
L 183.354545 233.267403 
L 183.356659 44.443636 
L 183.466568 54.084626 
L 184.45575 132.87207 
L 185.256818 179.477682 
L 185.950091 207.975034 
L 186.535568 223.817119 
L 187.032273 231.884065 
L 187.159091 233.283944 
L 187.161205 44.465374 
L 187.271114 54.11739 
L 188.260295 132.982936 
L 189.05925 179.487699 
L 189.752523 207.986894 
L 190.338 223.820772 
L 190.834705 231.880228 
L 190.963636 233.2995 
L 190.96575 44.504355 
L 191.075659 54.16557 
L 192.064841 133.093229 
L 192.863795 179.594852 
L 193.557068 208.063368 
L 194.142545 223.864876 
L 194.63925 231.900016 
L 194.768182 233.313816 
L 194.770295 44.554468 
L 194.880205 54.223256 
L 195.869386 133.199741 
L 196.666227 179.591064 
L 197.3595 208.063118 
L 197.944977 223.861109 
L 198.441682 231.892842 
L 198.572727 233.326781 
L 198.574841 44.610814 
L 198.68475 54.285776 
L 199.671818 133.157317 
L 200.468659 179.579173 
L 201.159818 207.986148 
L 201.745295 223.809568 
L 202.242 231.858745 
L 202.377273 233.338388 
L 202.379386 44.669617 
L 202.489295 54.349581 
L 203.476364 133.250767 
L 204.273205 179.662553 
L 204.964364 208.044094 
L 205.549841 223.842633 
L 206.046545 231.873394 
L 206.181818 233.348695 
L 206.183932 44.728095 
L 206.293841 54.412105 
L 207.280909 133.336485 
L 208.075636 179.634589 
L 208.766795 208.025914 
L 209.352273 223.82835 
L 209.848977 231.8613 
L 209.986364 233.357798 
L 209.988477 44.784309 
L 210.098386 54.471602 
L 211.085455 133.41437 
L 211.880182 179.702609 
L 212.571341 208.072957 
L 213.156818 223.855084 
L 213.653523 231.872946 
L 213.790909 233.365817 
L 213.793023 44.837014 
L 213.902932 54.526998 
L 214.89 133.484662 
L 215.684727 179.763755 
L 216.375886 208.115247 
L 216.95925 223.835128 
L 217.455955 231.8582 
L 217.595455 233.372876 
L 217.597568 44.885514 
L 217.707477 54.577732 
L 218.694545 133.547819 
L 219.489273 179.818676 
L 220.178318 208.082978 
L 220.761682 223.812754 
L 221.258386 231.842338 
L 221.4 233.379101 
L 221.402114 44.929524 
L 221.512023 54.623635 
L 222.496977 133.461257 
L 223.289591 179.66126 
L 223.98075 208.046926 
L 224.564114 223.788222 
L 225.060818 231.825492 
L 225.204545 233.384606 
L 225.206659 44.969061 
L 225.316568 54.66481 
L 226.301523 133.511954 
L 227.094136 179.705708 
L 227.783182 208.007499 
L 228.368659 223.805829 
L 228.865364 231.832951 
L 229.009091 233.389496 
L 229.011205 45.004341 
L 229.121114 54.701539 
L 230.106068 133.55738 
L 230.898682 179.745751 
L 231.587727 208.035514 
L 232.171091 223.777703 
L 232.667795 231.814511 
L 232.813636 233.393861 
L 232.81575 45.035704 
L 232.925659 54.734208 
L 233.910614 133.598144 
L 234.703227 179.781891 
L 235.392273 208.060855 
L 235.975636 223.792111 
L 236.472341 231.820573 
L 236.618182 233.397778 
L 236.620295 45.063549 
L 236.730205 54.763249 
L 237.715159 133.6348 
L 238.507773 179.814567 
L 239.196818 208.083807 
L 239.780182 223.805156 
L 240.276886 231.82605 
L 240.422727 233.401313 
L 240.424841 45.088295 
L 240.53475 54.7891 
L 241.519705 133.667841 
L 242.312318 179.844157 
L 243.001364 208.104613 
L 243.584727 223.816978 
L 244.081432 231.831013 
L 244.227273 233.404517 
L 244.229386 45.110343 
L 244.339295 54.812177 
L 245.32425 133.697693 
L 246.116864 179.870983 
L 246.805909 208.123484 
L 247.389273 223.827698 
L 247.885977 231.83552 
L 248.031818 233.407435 
L 248.033932 45.130062 
L 248.143841 54.832853 
L 249.128795 133.724721 
L 249.921409 179.895321 
L 250.610455 208.140602 
L 251.193818 223.837419 
L 251.690523 231.839621 
L 251.836364 233.410101 
L 251.838477 45.147775 
L 251.948386 54.851457 
L 252.933341 133.74923 
L 253.723841 179.814052 
L 254.412886 208.085852 
L 254.99625 223.802309 
L 255.492955 231.818303 
L 255.640909 233.412542 
L 255.643023 45.163758 
L 255.752932 54.868263 
L 256.737886 133.771481 
L 257.528386 179.834103 
L 258.217432 208.099938 
L 258.800795 223.810319 
L 259.2975 231.821724 
L 259.445455 233.414782 
L 259.447568 45.178239 
L 259.557477 54.883503 
L 260.542432 133.791692 
L 261.332932 179.852284 
L 262.021977 208.112691 
L 262.605341 223.817573 
L 263.102045 231.824842 
L 263.25 233.416839 
L 263.252114 45.191405 
L 263.362023 54.897363 
L 264.346977 133.810049 
L 265.137477 179.868753 
L 265.826523 208.124223 
L 266.409886 223.824136 
L 266.906591 231.827684 
L 267.054545 233.418728 
L 267.056659 45.203406 
L 267.166568 54.909994 
L 268.151523 133.826713 
L 268.942023 179.883654 
L 269.631068 208.134639 
L 270.214432 223.830068 
L 270.711136 231.830272 
L 270.859091 233.420462 
L 270.861205 45.214361 
L 270.971114 54.921517 
L 271.956068 133.841825 
L 272.746568 179.897118 
L 273.435614 208.144035 
L 274.018977 223.835425 
L 274.515682 231.832628 
L 274.663636 233.422053 
L 274.66575 45.224368 
L 274.775659 54.932033 
L 275.760614 133.855513 
L 276.551114 179.909266 
L 277.240159 208.152501 
L 277.823523 223.840258 
L 278.320227 231.83477 
L 278.468182 233.423512 
L 278.470295 45.233504 
L 278.580205 54.941624 
L 279.565159 133.867892 
L 280.355659 179.920212 
L 281.044705 208.160119 
L 281.628068 223.844613 
L 282.124773 231.836716 
L 282.272727 233.424847 
L 282.274841 45.241837 
L 282.38475 54.950361 
L 283.369705 133.87907 
L 284.160205 179.93006 
L 284.847136 208.096723 
L 285.4305 223.804642 
L 285.927205 231.813461 
L 286.077273 233.426069 
L 286.079386 45.249424 
L 286.189295 54.958305 
L 287.17425 133.889146 
L 287.96475 179.93891 
L 288.651682 208.102885 
L 289.235045 223.808182 
L 289.73175 231.815072 
L 289.881818 233.427185 
L 289.883932 45.256318 
L 289.993841 54.965515 
L 290.978795 133.898214 
L 291.769295 179.946855 
L 292.456227 208.108416 
L 293.039591 223.811366 
L 293.536295 231.816532 
L 293.686364 233.428203 
L 293.688477 45.262568 
L 293.798386 54.972042 
L 294.783341 133.906364 
L 295.573841 179.953982 
L 296.260773 208.113378 
L 296.844136 223.814229 
L 297.340841 231.817855 
L 297.490909 233.429132 
L 297.493023 45.26822 
L 297.602932 54.977939 
L 298.587886 133.913679 
L 299.378386 179.960369 
L 300.065318 208.117828 
L 300.648682 223.816804 
L 301.145386 231.819054 
L 301.295455 233.429979 
L 301.297568 45.27332 
L 301.407477 54.983253 
L 302.392432 133.920237 
L 303.182932 179.966091 
L 303.869864 208.121819 
L 304.453227 223.819119 
L 304.949932 231.820139 
L 305.1 233.43075 
L 305.102114 45.27791 
L 305.212023 54.988034 
L 306.196977 133.926112 
L 306.987477 179.971216 
L 307.674409 208.125398 
L 308.257773 223.8212 
L 308.754477 231.821122 
L 308.904545 233.431452 
L 308.906659 45.282033 
L 309.016568 54.992325 
L 310.001523 133.931372 
L 310.792023 179.975806 
L 311.478955 208.128607 
L 312.062318 223.823072 
L 312.559023 231.822011 
L 312.709091 233.43209 
L 312.711205 45.285731 
L 312.821114 54.996172 
L 313.806068 133.93608 
L 314.596568 179.979916 
L 315.2835 208.131486 
L 315.866864 223.824755 
L 316.363568 231.822817 
L 316.513636 233.432672 
L 316.51575 45.289043 
L 316.625659 54.999616 
L 317.610614 133.940291 
L 318.401114 179.983598 
L 319.088045 208.134069 
L 319.671409 223.82627 
L 320.168114 231.823546 
L 320.318182 233.433201 
L 320.320295 45.292005 
L 320.430205 55.002696 
L 321.415159 133.94406 
L 322.205659 179.986897 
L 322.892591 208.136388 
L 323.475955 223.827633 
L 323.972659 231.824207 
L 324.122727 233.433682 
L 324.124841 45.294654 
L 324.23475 55.00545 
L 325.219705 133.947433 
L 326.010205 179.989853 
L 326.697136 208.138469 
L 327.2805 223.82886 
L 327.777205 231.824805 
L 327.927273 233.43412 
L 327.929386 45.29702 
L 328.039295 55.007911 
L 329.02425 133.950452 
L 329.81475 179.992503 
L 330.501682 208.140339 
L 331.085045 223.829965 
L 331.58175 231.825347 
L 331.731818 233.434518 
L 331.733932 45.299135 
L 331.843841 55.010111 
L 332.828795 133.953155 
L 333.619295 179.99488 
L 334.306227 208.142018 
L 334.889591 223.830959 
L 335.386295 231.825838 
L 335.536364 233.43488 
L 335.538477 45.301025 
L 335.648386 55.012077 
L 336.633341 133.955577 
L 337.423841 179.997013 
L 338.110773 208.143526 
L 338.694136 223.831855 
L 339.190841 231.826282 
L 339.340909 233.43521 
L 339.343023 45.302714 
L 339.452932 55.013835 
L 340.437886 133.957747 
L 341.228386 179.998926 
L 341.915318 208.144881 
L 342.498682 223.832662 
L 342.995386 231.826685 
L 343.145455 233.43551 
L 343.147568 45.304225 
L 343.257477 55.015408 
L 344.242432 133.959692 
L 345.032932 180.000643 
L 345.719864 208.146099 
L 346.303227 223.833388 
L 346.799932 231.827049 
L 346.95 233.435782 
L 346.952114 45.305578 
L 347.062023 55.016817 
L 348.046977 133.961437 
L 348.837477 180.002184 
L 349.524409 208.147193 
L 350.107773 223.834042 
L 350.604477 231.827379 
L 350.754545 233.43603 
L 350.756659 45.306789 
L 350.866568 55.018078 
L 351.851523 133.963002 
L 352.642023 180.003567 
L 353.328955 208.148176 
L 353.912318 223.834631 
L 354.409023 231.827678 
L 354.559091 233.436255 
L 354.561205 45.307874 
L 354.671114 55.019209 
L 355.656068 133.964405 
L 356.446568 180.004809 
L 357.1335 208.14906 
L 357.716864 223.835161 
L 358.213568 231.827948 
L 358.363636 233.436459 
L 358.36575 45.308848 
L 358.475659 55.020222 
L 359.460614 133.965665 
L 360.251114 180.005923 
L 360.938045 208.149853 
L 361.521409 223.835638 
L 362.018114 231.828192 
L 362.168182 233.436644 
L 362.170295 45.30972 
L 362.280205 55.021132 
L 363.265159 133.966795 
L 364.055659 180.006923 
L 364.742591 208.150566 
L 365.325955 223.836067 
L 365.822659 231.828413 
L 365.972727 233.436812 
L 365.974841 45.310504 
L 366.08475 55.021948 
L 367.069705 133.967809 
L 367.860205 180.00782 
L 368.547136 208.151205 
L 369.1305 223.836453 
L 369.627205 231.828613 
L 369.777273 233.436965 
L 369.779386 45.311206 
L 369.889295 55.02268 
L 370.87425 133.968718 
L 371.66475 180.008625 
L 372.351682 208.15178 
L 372.935045 223.836801 
L 373.43175 231.828793 
L 373.581818 233.437103 
L 373.581818 233.437103 
" clip-path="url(#p5ea4c23c7a)" style="fill: none; stroke: #1f77b4; stroke-width: 1.5; stroke-linecap: square"/>
   </g>
   <g id="line2d_17">
    <path d="M 69.218182 242.116364 
L 76.827273 242.116364 
L 76.829386 220.279136 
L 76.939295 223.899741 
L 77.397955 235.098806 
L 77.767841 239.374106 
L 78.11025 241.091268 
L 78.442091 241.75578 
L 78.803523 242.01059 
L 79.374205 242.103319 
L 80.631818 242.116271 
L 80.633932 206.177225 
L 80.743841 211.660738 
L 81.219409 229.519847 
L 81.612545 236.857761 
L 81.976091 239.992596 
L 82.322727 241.290987 
L 82.669364 241.818158 
L 83.070955 242.032121 
L 83.770568 242.108632 
L 84.436364 242.114998 
L 84.438477 197.554041 
L 84.548386 204.069099 
L 85.032409 225.801855 
L 85.436114 235.036999 
L 85.810227 239.131985 
L 86.167432 240.903792 
L 86.518295 241.649304 
L 86.894523 241.960233 
L 87.425045 242.085964 
L 88.240909 242.106535 
L 88.243023 192.551716 
L 88.352932 199.637659 
L 88.841182 223.546607 
L 89.251227 233.899214 
L 89.633795 238.591649 
L 89.997341 240.650101 
L 90.352432 241.533377 
L 90.722318 241.90597 
L 91.2 242.058413 
L 92.045455 242.070675 
L 92.047568 189.847578 
L 92.157477 197.238873 
L 92.647841 222.305838 
L 93.06 233.23654 
L 93.444682 238.246738 
L 93.812455 240.483756 
L 94.169659 241.448419 
L 94.535318 241.853347 
L 94.981295 242.010702 
L 95.676682 241.996454 
L 95.85 241.965111 
L 95.852114 188.551913 
L 95.962023 196.094802 
L 96.452386 221.680637 
L 96.866659 232.916629 
L 97.253455 238.078813 
L 97.623341 240.387878 
L 97.980545 241.375569 
L 98.339864 241.776739 
L 98.758364 241.911252 
L 99.331159 241.847912 
L 99.654545 241.723387 
L 99.656659 188.085688 
L 99.766568 195.692026 
L 100.256932 221.46873 
L 100.671205 232.782589 
L 101.058 237.97913 
L 101.425773 240.286306 
L 101.776636 241.252853 
L 102.121159 241.622012 
L 102.503727 241.713765 
L 102.985636 241.590926 
L 103.459091 241.257763 
L 103.461205 188.079902 
L 103.571114 195.699854 
L 104.059364 221.400069 
L 104.473636 232.715712 
L 104.858318 237.867643 
L 105.221864 240.125087 
L 105.564273 241.034591 
L 105.889773 241.341595 
L 106.236409 241.370147 
L 106.659136 241.170535 
L 107.107227 240.706768 
L 107.263636 240.467451 
L 107.26575 188.301168 
L 107.375659 195.906536 
L 107.863909 221.49878 
L 108.276068 232.66162 
L 108.658636 237.707441 
L 109.015841 239.854282 
L 109.343455 240.657587 
L 109.639364 240.8752 
L 109.952182 240.829936 
L 110.345318 240.531295 
L 110.774386 239.912065 
L 111.068182 239.253969 
L 111.070295 188.599628 
L 111.180205 196.173542 
L 111.666341 221.508113 
L 112.076386 232.499487 
L 112.454727 237.387455 
L 112.801364 239.380246 
L 113.107841 240.051107 
L 113.369932 240.173541 
L 113.657386 240.046661 
L 114.050523 239.604883 
L 114.477477 238.773945 
L 114.872727 237.542116 
L 114.874841 188.874168 
L 114.98475 196.404746 
L 115.466659 221.349268 
L 115.872477 232.117518 
L 116.244477 236.820423 
L 116.578432 238.640137 
L 116.859545 239.167831 
L 117.085705 239.202028 
L 117.360477 238.979814 
L 117.778977 238.3221 
L 118.2165 237.208334 
L 118.647682 235.452815 
L 118.677273 235.300515 
L 118.679386 189.050627 
L 118.789295 196.527317 
L 119.269091 221.107359 
L 119.670682 231.562898 
L 120.034227 235.996023 
L 120.353386 237.6021 
L 120.607023 237.979069 
L 120.801477 237.934794 
L 121.07625 237.587008 
L 121.547591 236.587252 
L 122.002023 235.099795 
L 122.437432 232.844992 
L 122.481818 232.554195 
L 122.483932 189.069894 
L 122.593841 196.481751 
L 123.069409 220.568394 
L 123.466773 230.701575 
L 123.821864 234.847411 
L 124.124114 236.225221 
L 124.350273 236.467039 
L 124.525705 236.353455 
L 124.813159 235.832952 
L 125.369045 234.30007 
L 125.829818 232.389075 
L 126.269455 229.521381 
L 126.286364 229.384413 
L 126.288477 188.883447 
L 126.398386 196.218899 
L 126.869727 219.761324 
L 127.26075 229.495676 
L 127.605273 233.335471 
L 127.892727 234.507563 
L 128.091409 234.639021 
L 128.262614 234.45405 
L 128.569091 233.715092 
L 129.243341 231.407773 
L 129.693545 229.06898 
L 130.090909 225.915934 
L 130.093023 188.454042 
L 130.202932 195.701731 
L 130.670045 218.656028 
L 131.054727 227.965874 
L 131.390795 231.507141 
L 131.661341 232.473156 
L 131.834659 232.522871 
L 132.007977 232.266084 
L 132.333477 231.291952 
L 133.145114 228.018097 
L 133.578409 225.246476 
L 133.895455 222.296259 
L 133.897568 187.759096 
L 134.007477 194.909314 
L 134.470364 217.245623 
L 134.848705 226.124046 
L 135.174205 229.366569 
L 135.429955 230.167997 
L 135.58425 230.163406 
L 135.761795 229.838661 
L 136.104205 228.638839 
L 137.057455 224.297533 
L 137.480182 221.018574 
L 137.7 218.673199 
L 137.702114 186.794302 
L 137.812023 193.840515 
L 138.270682 215.548907 
L 138.642682 224.009908 
L 138.959727 226.996172 
L 139.202795 227.662606 
L 139.342295 227.621843 
L 139.526182 227.232948 
L 139.883386 225.833593 
L 140.959227 220.506368 
L 141.377727 216.688095 
L 141.504545 215.176364 
L 141.506659 185.575491 
L 141.616568 192.515476 
L 142.071 213.608778 
L 142.438773 221.715322 
L 142.749477 224.479213 
L 142.981977 225.035505 
L 143.113023 224.967343 
L 143.30325 224.519075 
L 143.681591 222.917768 
L 144.841977 216.869884 
L 145.258364 212.563699 
L 145.309091 211.905679 
L 145.311205 184.137624 
L 145.421114 190.973941 
L 145.871318 211.486813 
L 146.234864 219.285719 
L 146.539227 221.878119 
L 146.763273 222.368056 
L 146.892205 222.284511 
L 147.086659 221.79845 
L 147.479795 220.069727 
L 148.699364 213.592057 
L 149.113636 208.927311 
L 149.11575 182.530877 
L 149.225659 189.270575 
L 149.671636 209.255259 
L 150.033068 216.830715 
L 150.335318 219.304306 
L 150.555136 219.742875 
L 150.681955 219.647748 
L 150.88275 219.127471 
L 151.30125 217.259747 
L 152.527159 210.824983 
L 152.918182 206.275481 
L 152.920295 180.814647 
L 153.030205 187.468338 
L 153.474068 207.051236 
L 153.833386 214.426258 
L 154.133523 216.813723 
L 154.351227 217.228869 
L 154.480159 217.128093 
L 154.685182 216.59355 
L 155.129045 214.636996 
L 156.331705 208.566933 
L 156.722727 203.957863 
L 156.724841 179.050787 
L 156.83475 185.631348 
L 157.2765 204.878779 
L 157.635818 212.138179 
L 157.935955 214.476331 
L 158.153659 214.882493 
L 158.284705 214.782262 
L 158.491841 214.253457 
L 158.965295 212.238988 
L 160.110886 206.837944 
L 160.501909 202.326513 
L 160.527273 201.962388 
L 160.529386 177.297411 
L 160.639295 183.818605 
L 161.081045 202.857178 
L 161.43825 209.991853 
L 161.738386 212.320017 
L 161.960318 212.74248 
L 162.093477 212.649329 
L 162.300614 212.144172 
L 162.805773 210.109885 
L 163.873159 205.522222 
L 164.245159 201.480735 
L 164.331818 200.263926 
L 164.333932 175.604203 
L 164.443841 182.07946 
L 164.885591 200.967908 
L 165.244909 208.074565 
L 165.547159 210.396861 
L 165.771205 210.830345 
L 165.908591 210.744381 
L 166.115727 210.263742 
L 167.402932 205.885455 
L 167.709409 203.823959 
L 168.083523 199.588792 
L 168.136364 198.829972 
L 168.138477 174.00968 
L 168.248386 180.45119 
L 168.690136 199.240105 
L 169.049455 206.328071 
L 169.353818 208.684926 
L 169.584205 209.151481 
L 169.723705 209.078845 
L 169.928727 208.635556 
L 171.251864 204.422227 
L 171.556227 202.243519 
L 171.934568 197.718639 
L 171.940909 197.625032 
L 171.943023 172.54032 
L 172.052932 178.958478 
L 172.494682 197.6888 
L 172.854 204.783844 
L 173.160477 207.190172 
L 173.397205 207.698083 
L 173.540932 207.63952 
L 173.743841 207.231324 
L 175.086 203.228177 
L 175.38825 200.977293 
L 175.745455 196.613751 
L 175.747568 171.211186 
L 175.857477 177.614368 
L 176.299227 196.317225 
L 176.660659 203.46269 
L 176.971364 205.918616 
L 177.212318 206.454811 
L 177.362386 206.405792 
L 177.565295 206.018839 
L 178.924364 202.172042 
L 179.228727 199.777872 
L 179.55 195.762959 
L 179.552114 170.027528 
L 179.662023 176.42211 
L 180.103773 195.119604 
L 180.467318 202.325904 
L 180.780136 204.825801 
L 181.025318 205.397935 
L 181.179614 205.3634 
L 181.380409 205.005976 
L 182.737364 201.394163 
L 183.039614 198.99977 
L 183.354545 195.042889 
L 183.356659 168.98685 
L 183.466568 175.377398 
L 183.910432 194.144339 
L 184.273977 201.35586 
L 184.588909 203.898864 
L 184.838318 204.504169 
L 184.996841 204.481796 
L 185.195523 204.148669 
L 186.550364 200.727244 
L 186.8505 198.327577 
L 187.159091 194.427787 
L 187.161205 168.081069 
L 187.271114 174.470618 
L 187.714977 193.254944 
L 188.080636 200.532565 
L 188.397682 203.115111 
L 188.651318 203.749189 
L 188.814068 203.735763 
L 189.01275 203.416715 
L 190.365477 200.136582 
L 190.665614 197.695705 
L 190.963636 193.896084 
L 190.96575 167.298497 
L 191.075659 173.688854 
L 191.519523 192.494069 
L 191.885182 199.80882 
L 192.204341 202.442692 
L 192.462205 203.108208 
L 192.629182 203.10356 
L 192.827864 202.796399 
L 193.736727 201.104059 
L 193.973455 200.571543 
L 194.22075 199.362261 
L 194.531455 196.570443 
L 194.768182 193.430267 
L 194.770295 166.62551 
L 194.880205 173.017557 
L 195.326182 191.904492 
L 195.693955 199.245024 
L 196.015227 201.890273 
L 196.275205 202.563903 
L 196.444295 202.562463 
L 196.645091 202.25802 
L 197.484205 200.748442 
L 197.7315 200.302202 
L 197.968227 199.312637 
L 198.262023 196.969636 
L 198.572727 193.016551 
L 198.574841 166.047861 
L 198.68475 172.441822 
L 199.130727 191.347918 
L 199.4985 198.716238 
L 199.819773 201.390764 
L 200.081864 202.090836 
L 200.253068 202.099541 
L 200.45175 201.810649 
L 201.276068 200.381983 
L 201.523364 199.970546 
L 201.75375 199.060754 
L 202.039091 196.886725 
L 202.377273 192.644431 
L 202.379386 165.551642 
L 202.489295 171.947306 
L 202.935273 190.869261 
L 203.303045 198.25993 
L 203.626432 200.967794 
L 203.890636 201.681359 
L 204.063955 201.693491 
L 204.262636 201.409326 
L 205.057364 200.064157 
L 205.313114 199.679124 
L 205.539273 198.838842 
L 205.818273 196.807212 
L 206.181818 192.306164 
L 206.183932 165.123936 
L 206.293841 171.520839 
L 206.739818 190.454805 
L 207.107591 197.862652 
L 207.430977 200.588587 
L 207.695182 201.317252 
L 207.870614 201.337275 
L 208.067182 201.064352 
L 208.857682 199.759985 
L 209.113432 199.391063 
L 209.337477 198.577434 
L 209.614364 196.59092 
L 209.975795 192.157434 
L 209.986364 191.996242 
L 209.988477 164.753208 
L 210.098386 171.15077 
L 210.544364 190.092872 
L 210.91425 197.540433 
L 211.237636 200.262976 
L 211.503955 200.997242 
L 211.679386 201.017237 
L 211.875955 200.746364 
L 212.647432 199.491501 
L 212.909523 199.137908 
L 213.129341 198.371377 
L 213.399886 196.494708 
L 213.754977 192.25343 
L 213.790909 191.710878 
L 213.793023 164.429495 
L 213.902932 170.827124 
L 214.348909 189.773805 
L 214.718795 197.230097 
L 215.044295 199.972735 
L 215.310614 200.707632 
L 215.486045 200.729464 
L 215.682614 200.461532 
L 216.443523 199.24032 
L 216.707727 198.90129 
L 216.925432 198.164373 
L 217.193864 196.339864 
L 217.544727 192.209809 
L 217.595455 191.447543 
L 217.597568 164.144444 
L 217.707477 170.5416 
L 218.153455 189.489833 
L 218.523341 196.951714 
L 218.848841 199.70148 
L 219.115159 200.442862 
L 219.292705 200.46743 
L 219.489273 200.201183 
L 220.2375 199.010692 
L 220.508045 198.679326 
L 220.723636 197.965759 
L 220.989955 196.18437 
L 221.336591 192.153583 
L 221.4 191.204571 
L 221.402114 163.891239 
L 221.512023 170.287473 
L 221.958 189.234859 
L 222.327886 196.699949 
L 222.653386 199.45475 
L 222.921818 200.203276 
L 223.099364 200.227513 
L 223.298045 199.958088 
L 224.029364 198.800543 
L 224.308364 198.475119 
L 224.521841 197.784392 
L 224.786045 196.046019 
L 225.130568 192.084482 
L 225.204545 190.980835 
L 225.206659 163.664451 
L 225.316568 170.059428 
L 225.762545 189.004212 
L 226.132432 196.470822 
L 226.457932 199.229207 
L 226.726364 199.981643 
L 226.903909 200.008567 
L 227.100477 199.74603 
L 227.833909 198.598666 
L 228.110795 198.283297 
L 228.324273 197.600137 
L 228.586364 195.887568 
L 228.928773 191.972307 
L 229.009091 190.775499 
L 229.011205 163.459854 
L 229.121114 169.853352 
L 229.567091 188.794388 
L 229.936977 196.261417 
L 230.262477 199.022453 
L 230.530909 199.77813 
L 230.710568 199.805991 
L 230.90925 199.539452 
L 231.625773 198.421305 
L 231.913227 198.107474 
L 232.124591 197.441396 
L 232.384568 195.763353 
L 232.724864 191.907129 
L 232.813636 190.587842 
L 232.81575 163.274222 
L 232.925659 169.666127 
L 233.371636 188.602792 
L 233.741523 196.069618 
L 234.067023 198.83277 
L 234.335455 199.591301 
L 234.515114 199.621301 
L 234.711682 199.361108 
L 235.432432 198.249906 
L 235.715659 197.946958 
L 235.927023 197.288387 
L 236.187 195.618535 
L 236.525182 191.798426 
L 236.618182 190.417139 
L 236.620295 163.105123 
L 236.730205 169.495412 
L 237.176182 188.427512 
L 237.546068 195.893879 
L 237.871568 198.658894 
L 238.14 199.420086 
L 238.319659 199.452122 
L 238.516227 199.19422 
L 239.23275 198.097346 
L 239.520205 197.797018 
L 239.729455 197.150037 
L 239.987318 195.506548 
L 240.3255 191.705466 
L 240.422727 190.262602 
L 240.424841 162.950735 
L 240.53475 169.339458 
L 240.980727 188.267125 
L 241.350614 195.73303 
L 241.676114 198.499844 
L 241.944545 199.263622 
L 242.124205 199.29765 
L 242.320773 199.042005 
L 243.033068 197.958899 
L 243.322636 197.665177 
L 243.531886 197.025626 
L 243.787636 195.408564 
L 244.123705 191.656893 
L 244.227273 190.12335 
L 244.229386 162.80968 
L 244.339295 169.196941 
L 244.785273 188.120531 
L 245.155159 195.586138 
L 245.480659 198.354794 
L 245.751205 199.123458 
L 245.930864 199.155824 
L 246.127432 198.899862 
L 246.831273 197.83502 
L 247.127182 197.542559 
L 247.334318 196.914368 
L 247.590068 195.306146 
L 247.924023 191.592554 
L 248.031818 189.998406 
L 248.033932 162.68089 
L 248.143841 169.066826 
L 248.589818 187.986835 
L 248.959705 195.452394 
L 249.287318 198.233325 
L 249.557864 198.99653 
L 249.737523 199.027233 
L 249.936205 198.767061 
L 250.62525 197.725971 
L 250.929614 197.436352 
L 251.13675 196.815403 
L 251.390386 195.233676 
L 251.724341 191.54105 
L 251.836364 189.886725 
L 251.838477 162.563496 
L 251.948386 168.948264 
L 252.394364 187.865251 
L 252.76425 195.331041 
L 253.091864 198.11402 
L 253.362409 198.879817 
L 253.542068 198.912446 
L 253.74075 198.65446 
L 254.427682 197.624016 
L 254.734159 197.337747 
L 254.939182 196.727814 
L 255.192818 195.155087 
L 255.524659 191.5013 
L 255.640909 189.787211 
L 255.643023 162.456749 
L 255.752932 168.840511 
L 256.198909 187.755045 
L 256.568795 195.221333 
L 256.896409 198.006434 
L 257.166955 198.774786 
L 257.348727 198.807966 
L 257.547409 198.54956 
L 258.228 197.534075 
L 258.538705 197.249786 
L 258.743727 196.641664 
L 258.997364 195.069596 
L 259.329205 191.414053 
L 259.445455 189.698755 
L 259.447568 162.359967 
L 259.557477 168.74288 
L 260.003455 187.655495 
L 260.373341 195.122512 
L 260.700955 197.909767 
L 260.9715 198.680606 
L 261.153273 198.715607 
L 261.351955 198.459213 
L 262.030432 197.453008 
L 262.34325 197.171521 
L 262.548273 196.565068 
L 262.801909 194.993646 
L 263.13375 191.336612 
L 263.25 189.620261 
L 263.252114 162.272496 
L 263.362023 168.654703 
L 263.808 187.565875 
L 264.177886 195.033798 
L 264.5055 197.823196 
L 264.776045 198.596419 
L 264.957818 198.633143 
L 265.1565 198.378642 
L 265.832864 197.381008 
L 266.147795 197.102012 
L 266.352818 196.497079 
L 266.604341 194.94364 
L 266.936182 191.297092 
L 267.054545 189.550672 
L 267.056659 162.193688 
L 267.166568 168.575319 
L 267.612545 187.485452 
L 267.982432 194.954398 
L 268.310045 197.745884 
L 268.580591 198.52136 
L 268.762364 198.559693 
L 268.958932 198.310741 
L 269.639523 197.315124 
L 269.950227 197.044145 
L 270.153136 196.454626 
L 270.404659 194.918427 
L 270.734386 191.323274 
L 270.859091 189.488995 
L 270.861205 162.122901 
L 270.971114 168.504064 
L 271.417091 187.413485 
L 271.786977 194.883517 
L 272.114591 197.676998 
L 272.385136 198.45457 
L 272.566909 198.494386 
L 272.763477 198.247025 
L 273.444068 197.257608 
L 273.754773 196.989452 
L 273.957682 196.401151 
L 274.209205 194.865472 
L 274.538932 191.26936 
L 274.663636 189.434309 
L 274.66575 162.059492 
L 274.775659 168.440278 
L 275.221636 187.349237 
L 275.591523 194.820369 
L 275.919136 197.615721 
L 276.189682 198.395218 
L 276.373568 198.435119 
L 276.57225 198.182923 
L 277.240159 197.210534 
L 277.559318 196.940947 
L 277.762227 196.353724 
L 278.011636 194.835648 
L 278.33925 191.27921 
L 278.468182 189.385775 
L 278.470295 162.002824 
L 278.580205 168.383307 
L 279.026182 187.291987 
L 279.396068 194.764191 
L 279.723682 197.56127 
L 279.996341 198.344904 
L 280.178114 198.383647 
L 280.376795 198.132756 
L 281.044705 197.165203 
L 281.363864 196.897897 
L 281.566773 196.311622 
L 281.816182 194.793935 
L 282.143795 191.236725 
L 282.272727 189.342646 
L 282.274841 161.952278 
L 282.38475 168.332515 
L 282.830727 187.241041 
L 283.200614 194.714259 
L 283.528227 197.512908 
L 283.800886 198.298123 
L 283.984773 198.336677 
L 284.183455 198.084452 
L 284.845023 197.126872 
L 285.170523 196.855904 
L 285.373432 196.265341 
L 285.624955 194.722467 
L 285.954682 191.112221 
L 286.077273 189.304258 
L 286.079386 161.907254 
L 286.189295 168.287288 
L 286.635273 187.195739 
L 287.005159 194.669892 
L 287.332773 197.46995 
L 287.605432 198.256573 
L 287.789318 198.2961 
L 287.988 198.044898 
L 288.647455 197.092001 
L 288.975068 196.821876 
L 289.175864 196.240885 
L 289.425273 194.723804 
L 289.752886 191.165222 
L 289.881818 189.270029 
L 289.883932 161.867185 
L 289.993841 168.24705 
L 290.439818 187.155466 
L 290.809705 194.630462 
L 291.137318 197.431773 
L 291.409977 198.219638 
L 291.593864 198.260021 
L 291.792545 198.009718 
L 292.452 197.060079 
L 292.779614 196.791546 
L 292.980409 196.211179 
L 293.229818 194.694325 
L 293.557432 191.135133 
L 293.686364 189.239457 
L 293.688477 161.831541 
L 293.798386 168.21126 
L 294.244364 187.119658 
L 294.61425 194.595401 
L 294.941864 197.397813 
L 295.214523 198.186769 
L 295.398409 198.227901 
L 295.597091 197.978385 
L 296.256545 197.0316 
L 296.582045 196.768184 
L 296.782841 196.193425 
L 297.03225 194.685057 
L 297.359864 191.136992 
L 297.490909 189.212106 
L 297.493023 161.799831 
L 297.602932 168.179421 
L 298.048909 187.087799 
L 298.418795 194.564194 
L 298.746409 197.367568 
L 299.019068 198.157478 
L 299.202955 198.199266 
L 299.401636 197.950436 
L 300.061091 197.006154 
L 300.386591 196.743963 
L 300.587386 196.169682 
L 300.836795 194.661475 
L 301.164409 191.112893 
L 301.295455 189.187601 
L 301.297568 161.77161 
L 301.407477 168.151083 
L 301.853455 187.05943 
L 302.223341 194.536385 
L 302.550955 197.340597 
L 302.823614 198.131338 
L 303.0075 198.173698 
L 303.206182 197.925467 
L 303.863523 196.984309 
L 304.191136 196.722273 
L 304.391932 196.148412 
L 304.641341 194.640338 
L 304.968955 191.091281 
L 305.1 189.165622 
L 305.102114 161.746475 
L 305.212023 168.125841 
L 305.658 187.03414 
L 306.027886 194.511574 
L 306.3555 197.316511 
L 306.628159 198.107978 
L 306.812045 198.150836 
L 307.010727 197.903129 
L 307.668068 196.963899 
L 307.995682 196.702826 
L 308.196477 196.129335 
L 308.445886 194.621374 
L 308.7735 191.071883 
L 308.904545 189.14589 
L 308.906659 161.724068 
L 309.016568 168.103334 
L 309.462545 187.011568 
L 309.832432 194.489407 
L 310.160045 197.294974 
L 310.432705 198.087073 
L 310.616591 198.130368 
L 310.815273 197.88312 
L 311.472614 196.945592 
L 311.800227 196.685375 
L 312.001023 196.112211 
L 312.250432 194.604347 
L 312.578045 191.054461 
L 312.709091 189.128167 
L 312.711205 161.704071 
L 312.821114 168.083243 
L 313.267091 186.991396 
L 313.636977 194.469579 
L 313.964591 197.275691 
L 314.23725 198.068344 
L 314.421136 198.112023 
L 314.617705 197.868892 
L 315.281386 196.927349 
L 315.604773 196.669704 
L 315.805568 196.096831 
L 316.054977 194.589052 
L 316.382591 191.038809 
L 316.513636 189.112244 
L 316.51575 161.686205 
L 316.625659 168.065289 
L 317.071636 186.97335 
L 317.441523 194.451823 
L 317.769136 197.25841 
L 318.041795 198.051549 
L 318.225682 198.095567 
L 318.42225 197.852789 
L 319.083818 196.913499 
L 319.409318 196.655628 
L 319.610114 196.083016 
L 319.859523 194.575312 
L 320.187136 191.024747 
L 320.318182 189.09794 
L 320.320295 161.670226 
L 320.430205 168.049227 
L 320.876182 186.957189 
L 321.246068 194.435908 
L 321.573682 197.242911 
L 321.846341 198.036479 
L 322.030227 198.080796 
L 322.226795 197.838331 
L 322.888364 196.900248 
L 323.213864 196.642985 
L 323.414659 196.070606 
L 323.664068 194.562969 
L 323.991682 191.012117 
L 324.122727 189.085092 
L 324.124841 161.65592 
L 324.23475 168.034844 
L 324.680727 186.942703 
L 325.050614 194.421633 
L 325.378227 197.229002 
L 325.650886 198.022951 
L 325.834773 198.067535 
L 326.031341 197.825349 
L 326.692909 196.888347 
L 327.018409 196.631629 
L 327.219205 196.059461 
L 327.468614 194.551886 
L 327.796227 191.000778 
L 327.927273 189.073557 
L 327.929386 161.643103 
L 328.039295 168.021955 
L 328.485273 186.929712 
L 328.855159 194.408823 
L 329.182773 197.216516 
L 329.455432 198.010805 
L 329.639318 198.055627 
L 329.835886 197.813691 
L 330.497455 196.877661 
L 330.822955 196.621434 
L 331.02375 196.049456 
L 331.273159 194.541938 
L 331.600773 190.990602 
L 331.731818 189.063208 
L 331.733932 161.631611 
L 331.843841 168.010396 
L 332.289818 186.918055 
L 332.659705 194.397326 
L 332.987318 197.205308 
L 333.259977 197.9999 
L 333.443864 198.044936 
L 333.640432 197.803226 
L 334.302 196.86807 
L 334.6275 196.612286 
L 334.828295 196.04048 
L 335.077705 194.533015 
L 335.405318 190.981477 
L 335.536364 189.053928 
L 335.538477 161.621303 
L 335.648386 168.000028 
L 336.094364 186.907594 
L 336.46425 194.387006 
L 336.791864 197.195246 
L 337.064523 197.990112 
L 337.248409 198.03534 
L 337.444977 197.793833 
L 338.106545 196.859467 
L 338.432045 196.604082 
L 338.632841 196.032432 
L 338.880136 194.542025 
L 339.205636 191.030696 
L 339.340909 189.045613 
L 339.343023 161.612055 
L 339.452932 167.990725 
L 339.898909 186.898206 
L 340.268795 194.377745 
L 340.596409 197.186218 
L 340.869068 197.981329 
L 341.052955 198.026732 
L 341.249523 197.785408 
L 341.911091 196.851755 
L 342.236591 196.59673 
L 342.437386 196.02522 
L 342.684682 194.534859 
L 343.010182 191.023375 
L 343.145455 189.038166 
L 343.147568 161.603757 
L 343.257477 167.982377 
L 343.703455 186.889783 
L 344.073341 194.369436 
L 344.400955 197.17812 
L 344.673614 197.973454 
L 344.8575 198.019013 
L 345.054068 197.777855 
L 345.715636 196.844845 
L 346.041136 196.590144 
L 346.241932 196.018762 
L 346.489227 194.528444 
L 346.814727 191.016823 
L 346.95 189.031502 
L 346.952114 161.596313 
L 347.062023 167.974889 
L 347.508 186.882227 
L 347.877886 194.361985 
L 348.2055 197.170859 
L 348.478159 197.966394 
L 348.662045 198.012096 
L 348.858614 197.771088 
L 349.520182 196.838658 
L 349.845682 196.58425 
L 350.044364 196.021675 
L 350.291659 194.539638 
L 350.617159 191.039551 
L 350.754545 189.02554 
L 350.756659 161.589635 
L 350.866568 167.968172 
L 351.312545 186.875452 
L 351.682432 194.355306 
L 352.010045 197.164353 
L 352.282705 197.960071 
L 352.466591 198.005901 
L 352.663159 197.765028 
L 353.324727 196.833121 
L 353.650227 196.578976 
L 353.848909 196.016504 
L 354.096205 194.534504 
L 354.421705 191.034311 
L 354.559091 189.02021 
L 354.561205 161.583649 
L 354.671114 167.96215 
L 355.117091 186.86938 
L 355.486977 194.349322 
L 355.814591 197.158526 
L 356.08725 197.954409 
L 356.271136 198.000355 
L 356.467705 197.759605 
L 357.129273 196.828169 
L 357.454773 196.57426 
L 357.653455 196.01188 
L 357.90075 194.529913 
L 358.22625 191.029626 
L 358.363636 189.015445 
L 358.36575 161.578283 
L 358.475659 167.956753 
L 358.921636 186.863941 
L 359.291523 194.343964 
L 359.619136 197.15331 
L 359.891795 197.949342 
L 360.075682 197.995393 
L 360.27225 197.754753 
L 360.933818 196.823741 
L 361.259318 196.570044 
L 361.458 196.007747 
L 361.705295 194.52581 
L 362.030795 191.02544 
L 362.168182 189.011187 
L 362.170295 161.573475 
L 362.280205 167.951919 
L 362.726182 186.859071 
L 363.098182 194.366499 
L 363.425795 197.159125 
L 363.698455 197.947249 
L 363.882341 197.989731 
L 364.081023 197.743027 
L 364.732023 196.822412 
L 365.063864 196.566275 
L 365.262545 196.004053 
L 365.509841 194.522144 
L 365.835341 191.021698 
L 365.972727 189.007382 
L 365.974841 161.56917 
L 366.08475 167.94759 
L 366.530727 186.854712 
L 366.902727 194.362209 
L 367.230341 197.154952 
L 367.503 197.943197 
L 367.686886 197.985764 
L 367.885568 197.739151 
L 368.536568 196.81887 
L 368.868409 196.562908 
L 369.067091 196.000752 
L 369.314386 194.518867 
L 369.639886 191.018355 
L 369.777273 189.003982 
L 369.779386 161.565317 
L 369.889295 167.943715 
L 370.335273 186.850812 
L 370.707273 194.358372 
L 371.034886 197.15122 
L 371.307545 197.939574 
L 371.491432 197.982218 
L 371.690114 197.735685 
L 372.341114 196.815705 
L 372.672955 196.559898 
L 372.871636 195.997802 
L 373.118932 194.515939 
L 373.444432 191.015368 
L 373.581818 189.000943 
L 373.581818 189.000943 
" clip-path="url(#p5ea4c23c7a)" style="fill: none; stroke: #ff7f0e; stroke-width: 1.5; stroke-linecap: square"/>
   </g>
   <g id="patch_3">
    <path d="M 54 252 
L 54 34.56 
" style="fill: none; stroke: #000000; stroke-width: 0.8; stroke-linejoin: miter; stroke-linecap: square"/>
   </g>
   <g id="patch_4">
    <path d="M 388.8 252 
L 388.8 34.56 
" style="fill: none; stroke: #000000; stroke-width: 0.8; stroke-linejoin: miter; stroke-linecap: square"/>
   </g>
   <g id="patch_5">
    <path d="M 54 252 
L 388.8 252 
" style="fill: none; stroke: #000000; stroke-width: 0.8; stroke-linejoin: miter; stroke-linecap: square"/>
   </g>
   <g id="patch_6">
    <path d="M 54 34.56 
L 388.8 34.56 
" style="fill: none; stroke: #000000; stroke-width: 0.8; stroke-linejoin: miter; stroke-linecap: square"/>
   </g>
   <g id="legend_1">
    <g id="patch_7">
     <path d="M 61 71.91625 
L 99.860938 71.91625 
Q 101.860938 71.91625 101.860938 69.91625 
L 101.860938 41.56 
Q 101.860938 39.56 99.860938 39.56 
L 61 39.56 
Q 59 39.56 59 41.56 
L 59 69.91625 
Q 59 71.91625 61 71.91625 
z
" style="fill: #ffffff; opacity: 0.8; stroke: #cccccc; stroke-linejoin: miter"/>
    </g>
    <g id="line2d_18">
     <path d="M 63 47.658437 
L 73 47.658437 
L 83 47.658437 
" style="fill: none; stroke: #1f77b4; stroke-width: 1.5; stroke-linecap: square"/>
    </g>
    <g id="text_18">
     <!-- A -->
     <g transform="translate(91 51.158437) scale(0.1 -0.1)">
      <defs>
       <path id="DejaVuSans-41" d="M 2188 4044 
L 1331 1722 
L 3047 1722 
L 2188 4044 
z
M 1831 4666 
L 2547 4666 
L 4325 0 
L 3669 0 
L 3244 1197 
L 1141 1197 
L 716 0 
L 50 0 
L 1831 4666 
z
" transform="scale(0.015625)"/>
      </defs>
      <use xlink:href="#DejaVuSans-41"/>
     </g>
    </g>
    <g id="line2d_19">
     <path d="M 63 62.336562 
L 73 62.336562 
L 83 62.336562 
" style="fill: none; stroke: #ff7f0e; stroke-width: 1.5; stroke-linecap: square"/>
    </g>
    <g id="text_19">
     <!-- B -->
     <g transform="translate(91 65.836562) scale(0.1 -0.1)">
      <defs>
       <path id="DejaVuSans-42" d="M 1259 2228 
L 1259 519 
L 2272 519 
Q 2781 519 3026 730 
Q 3272 941 3272 1375 
Q 3272 1813 3026 2020 
Q 2781 2228 2272 2228 
L 1259 2228 
z
M 1259 4147 
L 1259 2741 
L 2194 2741 
Q 2656 2741 2882 2914 
Q 3109 3088 3109 3444 
Q 3109 3797 2882 3972 
Q 2656 4147 2194 4147 
L 1259 4147 
z
M 628 4666 
L 2241 4666 
Q 2963 4666 3353 4366 
Q 3744 4066 3744 3513 
Q 3744 3084 3544 2831 
Q 3344 2578 2956 2516 
Q 3422 2416 3680 2098 
Q 3938 1781 3938 1306 
Q 3938 681 3513 340 
Q 3088 0 2303 0 
L 628 0 
L 628 4666 
z
" transform="scale(0.015625)"/>
      </defs>
      <use xlink:href="#DejaVuSans-42"/>
     </g>
    </g>
   </g>
  </g>
 </g>
 <defs>
  <clipPath id="p5ea4c23c7a">
   <rect x="54" y="34.56" width="334.8" height="217.44"/>
  </clipPath>
 </defs>
</svg>
